<?xml version="1.0" encoding="UTF-8" standalone="no"?>
<!-- Created with Inkscape (http://www.inkscape.org/) -->

<svg
   xmlns:dc="http://purl.org/dc/elements/1.1/"
   xmlns:cc="http://creativecommons.org/ns#"
   xmlns:rdf="http://www.w3.org/1999/02/22-rdf-syntax-ns#"
   xmlns:svg="http://www.w3.org/2000/svg"
   xmlns="http://www.w3.org/2000/svg"
   xmlns:xlink="http://www.w3.org/1999/xlink"
   xmlns:sodipodi="http://sodipodi.sourceforge.net/DTD/sodipodi-0.dtd"
   xmlns:inkscape="http://www.inkscape.org/namespaces/inkscape"
   width="22"
   height="22"
   id="svg2"
   sodipodi:version="0.32"
   inkscape:version="0.48.0 r9654"
   version="1.0"
   sodipodi:docname="dialog-apply.svg"
   inkscape:output_extension="org.inkscape.output.svg.inkscape">
  <defs
     id="defs4">
    <inkscape:perspective
       sodipodi:type="inkscape:persp3d"
       inkscape:vp_x="0 : 11 : 1"
       inkscape:vp_y="0 : 1000 : 0"
       inkscape:vp_z="22 : 11 : 1"
       inkscape:persp3d-origin="11 : 7.3333333 : 1"
       id="perspective18" />
    <linearGradient
       id="StandardGradient"
       gradientTransform="scale(1.1310246,0.8841541)"
       x1="11.162445"
       y1="5.6551228"
       x2="11.162445"
       y2="18.097509"
       gradientUnits="userSpaceOnUse">
      <stop
         style="stop-color:#000000;stop-opacity:0.86274511;"
         offset="0"
         id="stop3280" />
      <stop
         style="stop-color:#000000;stop-opacity:0.47058824;"
         offset="1"
         id="stop3282" />
    </linearGradient>
    <inkscape:perspective
       id="perspective2850"
       inkscape:persp3d-origin="0.5 : 0.33333333 : 1"
       inkscape:vp_z="1 : 0.5 : 1"
       inkscape:vp_y="0 : 1000 : 0"
       inkscape:vp_x="0 : 0.5 : 1"
       sodipodi:type="inkscape:persp3d" />
    <linearGradient
       inkscape:collect="always"
       xlink:href="#StandardGradient"
       id="linearGradient3627"
       gradientUnits="userSpaceOnUse"
       gradientTransform="matrix(1.1310246,0,0,0.8841541,-30,0)"
       x1="11.162445"
       y1="5.6551228"
       x2="11.162445"
       y2="18.097509" />
    <linearGradient
       inkscape:collect="always"
       xlink:href="#StandardGradient"
       id="linearGradient3634"
       gradientUnits="userSpaceOnUse"
       gradientTransform="matrix(1.1310246,0,0,0.8841541,-30,20)"
       x1="11.162445"
       y1="5.6551228"
       x2="11.162445"
       y2="18.097509" />
    <clipPath
       clipPathUnits="userSpaceOnUse"
       id="clipPath3637">
      <path
         style="fill:#ff00ff;fill-opacity:1;stroke:none;display:inline"
         d="m -30,0 0,22 22,0 0,-22 -22,0 z m 15.03125,5 3.03125,0 0,5 c 0,1.662 -1.337999,3 -3,3 l -5,0 0,3 L -26,11.5625 -19.9375,7 l 0,2.96875 2.96875,0 c 1.671127,0 2,-0.360122 2,-2.03125 l 0,-2.9375 z"
         id="path3639" />
    </clipPath>
    <filter
       inkscape:collect="always"
       id="filter3641">
      <feGaussianBlur
         inkscape:collect="always"
         stdDeviation="0.37607075"
         id="feGaussianBlur3643" />
    </filter>
    <linearGradient
       inkscape:collect="always"
       xlink:href="#StandardGradient"
       id="linearGradient5224"
       gradientUnits="userSpaceOnUse"
       gradientTransform="scale(1.1310246,0.8841541)"
       x1="11.162445"
       y1="5.6551228"
       x2="11.162445"
       y2="18.097509" />
    <linearGradient
       inkscape:collect="always"
       xlink:href="#StandardGradient"
       id="linearGradient5228"
       gradientUnits="userSpaceOnUse"
       gradientTransform="scale(1.1310246,0.8841541)"
       x1="11.162445"
       y1="5.6551228"
       x2="11.162445"
       y2="18.097509" />
  </defs>
  <sodipodi:namedview
     id="base"
     pagecolor="#ffffff"
     bordercolor="#9a9a9a"
     borderopacity="1"
     inkscape:pageopacity="0.0"
     inkscape:pageshadow="2"
     inkscape:zoom="16.540628"
     inkscape:cx="-7.5388793"
     inkscape:cy="6.4966956"
     inkscape:document-units="px"
     inkscape:current-layer="layer3"
     showgrid="true"
     inkscape:showpageshadow="false"
     showguides="true"
     inkscape:guide-bbox="true"
     inkscape:window-width="1920"
     inkscape:window-height="1029"
     inkscape:window-x="0"
     inkscape:window-y="25"
     inkscape:window-maximized="1">
    <sodipodi:guide
       orientation="1,0"
       position="0,112"
       id="guide2383" />
    <sodipodi:guide
       orientation="0,1"
       position="26.278146,128"
       id="guide2385" />
    <sodipodi:guide
       orientation="1,0"
       position="128,54.082119"
       id="guide2387" />
    <sodipodi:guide
       orientation="0,1"
       position="78.156291,0"
       id="guide2389" />
    <inkscape:grid
       type="xygrid"
       id="grid3672"
       visible="true"
       enabled="true" />
  </sodipodi:namedview>
  <metadata
     id="metadata7">
    <rdf:RDF>
      <cc:Work
         rdf:about="">
        <dc:format>image/svg+xml</dc:format>
        <dc:type
           rdf:resource="http://purl.org/dc/dcmitype/StillImage" />
      </cc:Work>
    </rdf:RDF>
  </metadata>
  <g
     inkscape:groupmode="layer"
     id="layer3"
     inkscape:label="Cross"
     style="display:inline">
    <path
       style="fill:#ffffff;fill-opacity:1;stroke:none;display:inline;opacity:0.15"
       d="M 14.8125 3.96875 A 1.0437574 1.0437574 0 0 0 14 5 L 14 7.9375 C 14 8.7046015 13.853705 8.8977055 13.90625 8.84375 C 13.958795 8.7897945 13.791846 8.9375 13.03125 8.9375 L 11.09375 8.9375 L 11.09375 7 A 1.0437574 1.0437574 0 0 0 9.4375 6.15625 L 3.375 10.71875 A 1.0437574 1.0437574 0 0 0 3.375 12.40625 L 9.4375 16.84375 A 1.0437574 1.0437574 0 0 0 11.09375 16 L 11.09375 14.03125 L 15.0625 14.03125 C 17.284632 14.03125 19.09375 12.222131 19.09375 10 L 19.09375 5 A 1.0437574 1.0437574 0 0 0 18.0625 3.96875 L 15.03125 3.96875 A 1.0437574 1.0437574 0 0 0 14.8125 3.96875 z M 15.03125 5 L 18.0625 5 L 18.0625 10 C 18.0625 11.662 16.724501 13 15.0625 13 L 10.0625 13 L 10.0625 16 L 4 11.5625 L 10.0625 7 L 10.0625 9.96875 L 13.03125 9.96875 C 14.702377 9.96875 15.03125 9.6086282 15.03125 7.9375 L 15.03125 5 z "
       id="path5226" />
    <path
       style="opacity:1;fill:url(#StandardGradient);fill-opacity:1;stroke:none;stroke-width:0.99999994000000003;stroke-linecap:round;stroke-linejoin:miter;stroke-miterlimit:4;stroke-dasharray:none;stroke-opacity:1;display:inline"
       d="M 15.024508,5 L 15.024508,7.9375 C 15.024508,9.6086282 14.711261,9.96875 13.040134,9.96875 L 10.071383,9.96875 L 10.071383,7 L 4,11.5625 L 10.071383,16 L 10.071383,13 L 15.071383,13 C 16.733384,13 18.071383,11.662 18.071383,10 L 18.071383,5 L 15.024508,5 z"
       id="Symbol"
       sodipodi:nodetypes="cccccccccccc" />
    <path
       style="opacity:0.5;fill:#000000;fill-opacity:1;stroke:none;stroke-width:0.99999994000000003;stroke-linecap:round;stroke-linejoin:miter;stroke-miterlimit:4;stroke-dasharray:none;stroke-opacity:1;display:inline"
       d="M 15.03125 5 L 15.03125 6 L 18.0625 6 L 18.0625 5 L 15.03125 5 z M 10.0625 7 L 4 11.5625 L 4.6875 12.0625 L 10.0625 8 L 10.0625 7 z M 15.03125 7.9375 C 15.03125 9.6086282 14.702377 9.96875 13.03125 9.96875 L 10.0625 9.96875 L 10.0625 10.96875 L 13.03125 10.96875 C 14.702377 10.96875 15.03125 10.608628 15.03125 8.9375 L 15.03125 7.9375 z "
       id="BevelShadow"
       inkscape:label="#path3175" />
    <path
       style="opacity:0.3;fill:#ffffff;fill-opacity:1;stroke:none;stroke-width:0.99999994000000003;stroke-linecap:round;stroke-linejoin:miter;stroke-miterlimit:4;stroke-dasharray:none;stroke-opacity:1;display:inline"
       d="M 18.0625 10 C 18.0625 11.662 16.724501 13 15.0625 13 L 10.0625 13 L 10.0625 14 L 15.0625 14 C 16.724501 14 18.0625 12.662 18.0625 11 L 18.0625 10 z M 4 11.5625 L 4 12.5625 L 10.0625 17 L 10.0625 16 L 4 11.5625 z "
       id="BevelHighlight"
       inkscape:label="#path3182" />
  </g>
</svg>
