<?xml version="1.0" encoding="UTF-8" standalone="no"?>
<!-- Created with Inkscape (http://www.inkscape.org/) -->

<svg
   xmlns:dc="http://purl.org/dc/elements/1.1/"
   xmlns:cc="http://creativecommons.org/ns#"
   xmlns:rdf="http://www.w3.org/1999/02/22-rdf-syntax-ns#"
   xmlns:svg="http://www.w3.org/2000/svg"
   xmlns="http://www.w3.org/2000/svg"
   xmlns:xlink="http://www.w3.org/1999/xlink"
   xmlns:sodipodi="http://sodipodi.sourceforge.net/DTD/sodipodi-0.dtd"
   xmlns:inkscape="http://www.inkscape.org/namespaces/inkscape"
   width="22"
   height="22"
   id="svg2"
   sodipodi:version="0.32"
   inkscape:version="0.48.0 r9654"
   version="1.0"
   sodipodi:docname="document-import.svg"
   inkscape:output_extension="org.inkscape.output.svg.inkscape"
   inkscape:export-filename="/home/matt/.icons/Sirocco/scalable/mimetypes/text-plain.png"
   inkscape:export-xdpi="90"
   inkscape:export-ydpi="90"
   sodipodi:modified="true"
   style="display:inline">
  <sodipodi:namedview
     id="base"
     pagecolor="#ffffff"
     bordercolor="#666666"
     borderopacity="1.0"
     inkscape:pageopacity="0.0"
     inkscape:pageshadow="2"
     inkscape:zoom="12.7354"
     inkscape:cx="28.385017"
     inkscape:cy="11.448477"
     inkscape:document-units="px"
     inkscape:current-layer="layer1"
     width="128px"
     height="128px"
     inkscape:showpageshadow="false"
     inkscape:window-width="1920"
     inkscape:window-height="1029"
     inkscape:window-x="0"
     inkscape:window-y="25"
     showguides="true"
     inkscape:guide-bbox="true"
     showgrid="true"
     inkscape:window-maximized="1"
     inkscape:snap-global="false">
    <sodipodi:guide
       id="guide2226"
       position="32.637397,117.99844"
       orientation="horizontal" />
    <sodipodi:guide
       id="guide2230"
       position="110,57.402344"
       orientation="vertical" />
    <sodipodi:guide
       id="guide2232"
       position="33.760911"
       orientation="horizontal" />
    <sodipodi:guide
       id="guide2231"
       position="46.774696"
       orientation="horizontal" />
    <inkscape:grid
       enabled="true"
       visible="true"
       id="grid3231"
       type="xygrid" />
    <sodipodi:guide
       orientation="1,0"
       position="100,67.625"
       id="guide2713" />
  </sodipodi:namedview>
  <defs
     id="defs4">
    <linearGradient
       inkscape:collect="always"
       xlink:href="#StandardGradient"
       id="linearGradient2549"
       gradientUnits="userSpaceOnUse"
       gradientTransform="matrix(0.9247229,0,0,1.0872097,20.939944,2.9976422)"
       x1="11.998966"
       y1="0.92195445"
       x2="11.998966"
       y2="17.478098" />
    <inkscape:perspective
       sodipodi:type="inkscape:persp3d"
       inkscape:vp_x="0 : 11 : 1"
       inkscape:vp_y="0 : 1000 : 0"
       inkscape:vp_z="22 : 11 : 1"
       inkscape:persp3d-origin="11 : 7.3333333 : 1"
       id="perspective3967" />
    <linearGradient
       id="StandardGradient"
       gradientTransform="scale(0.9219544,1.0846523)"
       x1="11.998966"
       y1="0.92195445"
       x2="11.998966"
       y2="19.387045"
       gradientUnits="userSpaceOnUse">
      <stop
         style="stop-color:#000000;stop-opacity:0.86274511;"
         offset="0"
         id="stop3283" />
      <stop
         style="stop-color:#000000;stop-opacity:0.47058824;"
         offset="1"
         id="stop2651" />
    </linearGradient>
    <linearGradient
       inkscape:collect="always"
       xlink:href="#StandardGradient"
       id="linearGradient3978"
       gradientUnits="userSpaceOnUse"
       gradientTransform="matrix(0.9247229,0,0,1.0872097,-2.060056,1.9976422)"
       x1="11.998966"
       y1="0.92195445"
       x2="11.998966"
       y2="17.478098" />
    <linearGradient
       inkscape:collect="always"
       xlink:href="#StandardGradient"
       id="linearGradient3983"
       gradientUnits="userSpaceOnUse"
       gradientTransform="matrix(0.9219544,0,0,1.0846523,2,-2)"
       x1="11.998966"
       y1="0.92195445"
       x2="11.998966"
       y2="19.387045" />
    <linearGradient
       inkscape:collect="always"
       xlink:href="#StandardGradient"
       id="linearGradient3986"
       gradientUnits="userSpaceOnUse"
       gradientTransform="matrix(0.9219544,0,0,1.0846523,6.25e-2,-2)"
       x1="11.998966"
       y1="0.92195445"
       x2="11.998966"
       y2="19.387045" />
    <linearGradient
       inkscape:collect="always"
       xlink:href="#StandardGradient"
       id="linearGradient3989"
       gradientUnits="userSpaceOnUse"
       gradientTransform="matrix(0.9219544,0,0,1.0846523,-1,-2)"
       x1="11.998966"
       y1="0.92195445"
       x2="11.998966"
       y2="19.387045" />
    <linearGradient
       inkscape:collect="always"
       xlink:href="#StandardGradient"
       id="linearGradient3992"
       gradientUnits="userSpaceOnUse"
       gradientTransform="matrix(0.9219544,0,0,1.0846523,-1,-2)"
       x1="11.998966"
       y1="0.92195445"
       x2="11.998966"
       y2="19.387045" />
    <linearGradient
       inkscape:collect="always"
       xlink:href="#StandardGradient"
       id="linearGradient3995"
       gradientUnits="userSpaceOnUse"
       gradientTransform="matrix(0.9219544,0,0,1.0846523,0,-2)"
       x1="11.998966"
       y1="4.6096597"
       x2="11.998966"
       y2="19.387045" />
    <linearGradient
       inkscape:collect="always"
       xlink:href="#StandardGradient"
       id="linearGradient2400"
       gradientUnits="userSpaceOnUse"
       gradientTransform="matrix(0.9219544,0,0,1.0846523,20,-2)"
       x1="11.998966"
       y1="4.6096597"
       x2="11.998966"
       y2="19.387045" />
    <linearGradient
       inkscape:collect="always"
       xlink:href="#StandardGradient"
       id="linearGradient2407"
       gradientUnits="userSpaceOnUse"
       gradientTransform="matrix(0.9219544,0,0,1.0846523,20,-2)"
       x1="11.998966"
       y1="4.6096597"
       x2="11.998966"
       y2="19.387045" />
    <linearGradient
       inkscape:collect="always"
       xlink:href="#StandardGradient"
       id="linearGradient2412"
       gradientUnits="userSpaceOnUse"
       gradientTransform="matrix(0.9219544,0,0,1.0846523,20,-2)"
       x1="11.998966"
       y1="4.6096597"
       x2="11.998966"
       y2="19.387045" />
    <linearGradient
       inkscape:collect="always"
       xlink:href="#StandardGradient"
       id="linearGradient2422"
       gradientUnits="userSpaceOnUse"
       gradientTransform="matrix(0.9219544,0,0,1.0846523,1,0)"
       x1="11.998966"
       y1="4.6096597"
       x2="11.998966"
       y2="19.387045" />
    <linearGradient
       inkscape:collect="always"
       xlink:href="#StandardGradient"
       id="linearGradient2424"
       gradientUnits="userSpaceOnUse"
       gradientTransform="matrix(0.9219544,0,0,1.0846523,0,-2)"
       x1="11.998966"
       y1="4.6096597"
       x2="11.998966"
       y2="19.387045" />
    <linearGradient
       inkscape:collect="always"
       xlink:href="#StandardGradient"
       id="linearGradient2427"
       gradientUnits="userSpaceOnUse"
       gradientTransform="matrix(0.9219544,0,0,1.0846523,-2,-3)"
       x1="11.998966"
       y1="4.6096597"
       x2="11.998966"
       y2="19.387045" />
    <inkscape:perspective
       id="perspective2850"
       inkscape:persp3d-origin="0.5 : 0.33333333 : 1"
       inkscape:vp_z="1 : 0.5 : 1"
       inkscape:vp_y="0 : 1000 : 0"
       inkscape:vp_x="0 : 0.5 : 1"
       sodipodi:type="inkscape:persp3d" />
    <linearGradient
       inkscape:collect="always"
       xlink:href="#StandardGradient"
       id="linearGradient3640"
       gradientUnits="userSpaceOnUse"
       gradientTransform="matrix(0.9219544,0,0,1.0846523,-32,-3)"
       x1="11.998966"
       y1="4.6096597"
       x2="11.998966"
       y2="19.387045" />
    <linearGradient
       inkscape:collect="always"
       xlink:href="#StandardGradient"
       id="linearGradient3657"
       gradientUnits="userSpaceOnUse"
       gradientTransform="matrix(0.9219544,0,0,1.0846523,-32,27)"
       x1="11.998966"
       y1="4.6096597"
       x2="11.998966"
       y2="19.387045" />
    <clipPath
       clipPathUnits="userSpaceOnUse"
       id="clipPath3660">
      <path
         style="fill:#ff00ff;fill-opacity:1;stroke:none;display:inline"
         d="m -30,0 0,22 22,0 0,-22 -22,0 z m 6.5,3 9,0 c 0.831,0 1.5,0.669 1.5,1.5 l 0,11 c 0,0.831 -0.669,1.5 -1.5,1.5 l -3.5,0 0,-2 2.5,0 c 0.277,0 0.5,-0.223 0.5,-0.5 l 0,-9 C -15,5.223 -15.223,5 -15.5,5 l -7,0 C -22.777,5 -23,5.223 -23,5.5 l 0,4.5 -2,0 0,-5.5 C -25,3.669 -24.331,3 -23.5,3 z m -1.5,8 3,0 0,3 3,0 0,3 -3,0 0,3 -3,0 0,-3 -3,0 0,-3 3,0 0,-3 z"
         id="path3662" />
    </clipPath>
    <linearGradient
       inkscape:collect="always"
       xlink:href="#StandardGradient"
       id="linearGradient2862"
       gradientUnits="userSpaceOnUse"
       gradientTransform="matrix(0.9219544,0,0,-1.0846523,-2,23)"
       x1="11.998966"
       y1="4.6096597"
       x2="11.998966"
       y2="19.387045" />
    <linearGradient
       inkscape:collect="always"
       xlink:href="#StandardGradient"
       id="linearGradient2864"
       gradientUnits="userSpaceOnUse"
       gradientTransform="matrix(0.9219544,0,0,1.0846523,-2,-3)"
       x1="11.998966"
       y1="4.6096597"
       x2="11.998966"
       y2="19.387045" />
    <linearGradient
       inkscape:collect="always"
       xlink:href="#StandardGradient"
       id="linearGradient2867"
       gradientUnits="userSpaceOnUse"
       gradientTransform="matrix(0.9219544,0,0,1.0846523,-4,-4)"
       x1="11.998966"
       y1="4.6096597"
       x2="11.998966"
       y2="19.387045" />
    <linearGradient
       inkscape:collect="always"
       xlink:href="#StandardGradient"
       id="linearGradient2881"
       gradientUnits="userSpaceOnUse"
       gradientTransform="matrix(0.9219544,0,0,1.0846523,-4,-3)"
       x1="11.903381"
       y1="5.5846267"
       x2="11.903381"
       y2="22.14945" />
    <linearGradient
       inkscape:collect="always"
       xlink:href="#StandardGradient"
       id="linearGradient2883"
       gradientUnits="userSpaceOnUse"
       gradientTransform="matrix(0.9219544,0,0,1.0846523,-4,-4)"
       x1="11.903381"
       y1="5.5846267"
       x2="11.903381"
       y2="22.14945" />
    <linearGradient
       inkscape:collect="always"
       xlink:href="#StandardGradient"
       id="linearGradient3660"
       gradientUnits="userSpaceOnUse"
       gradientTransform="matrix(0.9219544,0,0,1.0846523,-4,-3)"
       x1="11.903381"
       y1="5.5846267"
       x2="11.903381"
       y2="22.14945" />
    <linearGradient
       inkscape:collect="always"
       xlink:href="#StandardGradient"
       id="linearGradient3665"
       gradientUnits="userSpaceOnUse"
       gradientTransform="matrix(0.9219544,0,0,1.0846523,-4,-4)"
       x1="11.903381"
       y1="5.5846267"
       x2="11.903381"
       y2="22.14945" />
    <linearGradient
       inkscape:collect="always"
       xlink:href="#StandardGradient"
       id="linearGradient3670"
       gradientUnits="userSpaceOnUse"
       gradientTransform="matrix(0.9219544,0,0,1.0846523,-34,-4)"
       x1="11.903381"
       y1="5.5846267"
       x2="11.903381"
       y2="22.14945" />
    <clipPath
       clipPathUnits="userSpaceOnUse"
       id="clipPath3677">
      <path
         style="fill:#ff00ff;fill-opacity:1;stroke:none;display:inline"
         d="m -30,0 0,22 22,0 0,-22 -22,0 z m 4.5,2 13,0 c 0.831,0 1.5,0.669 1.5,1.5 l 0,15 c 0,0.831 -0.669,1.5 -1.5,1.5 l -13,0 c -0.831,0 -1.5,-0.669 -1.5,-1.5 l 0,-15 C -27,2.669 -26.331,2 -25.5,2 z m 1,2 C -24.777,4 -25,4.223 -25,4.5 l 0,13 c 0,0.277 0.223,0.5 0.5,0.5 l 11,0 c 0.277,0 0.5,-0.223 0.5,-0.5 l 0,-13 C -13,4.223 -13.223,4 -13.5,4 l -11,0 z m 1.5,2 8,10 -8,0 0,-10 z m 2,5.46875 0,2.53125 2,0 -2,-2.53125 z"
         id="path3679" />
    </clipPath>
    <linearGradient
       inkscape:collect="always"
       xlink:href="#StandardGradient"
       id="linearGradient3113"
       gradientUnits="userSpaceOnUse"
       gradientTransform="matrix(0.9219544,0,0,1.0846523,25,-4)"
       x1="11.903381"
       y1="5.5846267"
       x2="11.903381"
       y2="22.14945" />
    <linearGradient
       inkscape:collect="always"
       xlink:href="#StandardGradient"
       id="linearGradient3122"
       gradientUnits="userSpaceOnUse"
       gradientTransform="matrix(0.9219544,0,0,1.0846523,-5,-4)"
       x1="11.903381"
       y1="5.5846267"
       x2="11.903381"
       y2="22.14945" />
    <linearGradient
       inkscape:collect="always"
       xlink:href="#StandardGradient"
       id="linearGradient3146"
       gradientUnits="userSpaceOnUse"
       gradientTransform="matrix(0.9219544,0,0,1.0846523,-5,-4)"
       x1="11.903381"
       y1="5.5846267"
       x2="11.903381"
       y2="22.14945" />
    <linearGradient
       inkscape:collect="always"
       xlink:href="#StandardGradient"
       id="linearGradient3153"
       gradientUnits="userSpaceOnUse"
       gradientTransform="matrix(0.9219544,0,0,1.0846523,-5,-3)"
       x1="11.903381"
       y1="5.5846267"
       x2="11.903381"
       y2="22.14945" />
    <linearGradient
       inkscape:collect="always"
       xlink:href="#StandardGradient"
       id="linearGradient3155"
       gradientUnits="userSpaceOnUse"
       gradientTransform="matrix(0.9219544,0,0,1.0846523,-5,-4)"
       x1="11.903381"
       y1="5.5846267"
       x2="11.903381"
       y2="22.14945" />
    <linearGradient
       inkscape:collect="always"
       xlink:href="#StandardGradient"
       id="linearGradient3928"
       gradientUnits="userSpaceOnUse"
       gradientTransform="matrix(0.9219544,0,0,1.0846523,-5,-3)"
       x1="11.903381"
       y1="5.5846267"
       x2="11.903381"
       y2="22.14945" />
    <linearGradient
       inkscape:collect="always"
       xlink:href="#StandardGradient"
       id="linearGradient3932"
       gradientUnits="userSpaceOnUse"
       gradientTransform="matrix(0.9219544,0,0,1.0846523,-5,-4)"
       x1="11.903381"
       y1="5.5846267"
       x2="11.903381"
       y2="22.14945" />
    <linearGradient
       inkscape:collect="always"
       xlink:href="#StandardGradient"
       id="linearGradient3939"
       gradientUnits="userSpaceOnUse"
       gradientTransform="matrix(0.9219544,0,0,1.0846523,-5,-4)"
       x1="11.903381"
       y1="5.5846267"
       x2="11.903381"
       y2="22.14945" />
    <linearGradient
       inkscape:collect="always"
       xlink:href="#StandardGradient"
       id="linearGradient3943"
       gradientUnits="userSpaceOnUse"
       gradientTransform="matrix(0.9219544,0,0,1.0846523,-5,-4)"
       x1="11.903381"
       y1="5.5846267"
       x2="11.903381"
       y2="22.14945" />
    <linearGradient
       inkscape:collect="always"
       xlink:href="#StandardGradient"
       id="linearGradient3946"
       gradientUnits="userSpaceOnUse"
       gradientTransform="matrix(0.9219544,0,0,1.0846523,-5,-5)"
       x1="11.903381"
       y1="6.3070683"
       x2="11.903381"
       y2="22.14945" />
  </defs>
  <metadata
     id="metadata7">
    <rdf:RDF>
      <cc:Work
         rdf:about="">
        <dc:format>image/svg+xml</dc:format>
        <dc:type
           rdf:resource="http://purl.org/dc/dcmitype/StillImage" />
        <dc:title></dc:title>
      </cc:Work>
    </rdf:RDF>
  </metadata>
  <g
     style="display:inline"
     inkscape:label="Calque 1"
     id="layer1"
     inkscape:groupmode="layer">
    <path
       style="opacity:0.15;fill:#ffffff;fill-opacity:1;stroke:none;display:inline"
       d="M 5.5,1 C 4.1359337,1 3,2.1359337 3,3.5 L 3,6 3,7.625 3,8 2,8 A 0.9933237,0.9933237 0 0 0 1,9 l 0,4 a 0.9933237,0.9933237 0 0 0 1,1 l 1,0 0,0.375 0,3.125 C 3,18.864066 4.1359337,20 5.5,20 l 11,0 C 17.864066,20 19,18.864066 19,17.5 L 19,14.375 19,7.625 19,6 19,3.5 C 19,2.1359337 17.864066,1 16.5,1 l -11,0 z m 30,0 C 34.135934,1 33,2.1359337 33,3.5 l 0,14 c 0,1.364066 1.135934,2.5 2.5,2.5 l 11,0 c 1.364066,0 2.5,-1.135934 2.5,-2.5 l 0,-2.5625 A 0.9933237,0.9933237 0 0 0 48.375,14 l 2.3125,-2.3125 a 0.9933237,0.9933237 0 0 0 0,-1.375 L 48.34375,7.96875 A 0.9933237,0.9933237 0 0 0 49,7.03125 L 49,3.5 C 49,2.1359337 47.864066,1 46.5,1 l -11,0 z m -30,1 11,0 C 17.331,2 18,2.669 18,3.5 l 0,2.5 0,1.625 0,6.75 0,3.125 c 0,0.831 -0.669,1.5 -1.5,1.5 l -11,0 C 4.669,19 4,18.331 4,17.5 L 4,14.375 4,14 6,14 6,16.375 6,16.5 C 6,16.777 6.223,17 6.5,17 l 8.5,0 0.5,0 C 15.777,17 16,16.777 16,16.5 L 16,16.375 16,5.625 16,4.5 C 16,4.223 15.777,4 15.5,4 l -9,0 C 6.223,4 6,4.223 6,4.5 L 6,5.625 6,8 4,8 4,7.625 4,6 4,3.5 C 4,2.669 4.669,2 5.5,2 z m 30,0 11,0 C 47.331,2 48,2.669 48,3.5 l 0,3.53125 -2,-2 L 46,4.5 C 46,4.223 45.777,4 45.5,4 l -9,0 C 36.223,4 36,4.223 36,4.5 l 0,12 c 0,0.277 0.223,0.5 0.5,0.5 l 8.5,0 1,0 c 0.551359,-0.67798 0.953287,-1.015788 2,-2.0625 L 48,17.5 c 0,0.831 -0.669,1.5 -1.5,1.5 l -11,0 C 34.669,19 34,18.331 34,17.5 l 0,-14 C 34,2.669 34.669,2 35.5,2 z M 7.09375,5 15,5 15,5.625 15,16 8.375,16 12.6875,11.6875 a 0.9933237,0.9933237 0 0 0 0,-1.375 l -5,-5 A 0.9933237,0.9933237 0 0 0 7.09375,5 z M 37,5 44.875,5 A 0.9933237,0.9933237 0 0 0 44,6 l 0,2 -4,0 a 0.9933237,0.9933237 0 0 0 -1,1 l 0,4 a 0.9933237,0.9933237 0 0 0 1,1 l 4,0 0,2 -7,0 0,-11 z M 7,6 12,11 7,16 7,13 2,13 2,9 7,9 7,6 z m 38,0 5,5 -5,5 0,-3 -5,0 0,-4 5,0 0,-3 z"
       id="path3941"
       inkscape:connector-curvature="0" />
    <path
       style="fill:url(#linearGradient3946);fill-opacity:1;stroke:none;display:inline"
       d="M 5.5,2 C 4.669,2 4,2.669 4,3.5 L 4,6 4,7.625 4,8 6,8 6,5.625 6,4.5 C 6,4.223 6.223,4 6.5,4 l 9,0 C 15.777,4 16,4.223 16,4.5 l 0,1.125 0,10.75 0,0.125 C 16,16.777 15.777,17 15.5,17 L 15,17 6.5,17 C 6.223,17 6,16.777 6,16.5 L 6,16.375 6,14 4,14 4,14.375 4,17.5 C 4,18.331 4.669,19 5.5,19 l 11,0 C 17.331,19 18,18.331 18,17.5 L 18,14.375 18,7.625 18,6 18,3.5 C 18,2.669 17.331,2 16.5,2 l -11,0 z m 30,0 C 34.669,2 34,2.669 34,3.5 l 0,14 c 0,0.831 0.669,1.5 1.5,1.5 l 11,0 c 0.831,0 1.5,-0.669 1.5,-1.5 l 0,-2.5625 C 46.953287,15.984212 46.551359,16.32202 46,17 l -1,0 -8.5,0 C 36.223,17 36,16.777 36,16.5 l 0,-12 C 36,4.223 36.223,4 36.5,4 l 9,0 C 45.777,4 46,4.223 46,4.5 l 0,0.53125 2,2 L 48,3.5 C 48,2.669 47.331,2 46.5,2 l -11,0 z M 7,6 7,9 2,9 l 0,4 5,0 0,3 5,-5 -5,-5 z m 38,0 0,3 -5,0 0,4 5,0 0,3 5,-5 -5,-5 z"
       id="path2858"
       inkscape:connector-curvature="0" />
    <path
       style="opacity:0.5;fill:#000000;fill-opacity:1;stroke:none;display:inline"
       d="M 5.5,2 C 4.669,2 4,2.669 4,3.5 l 0,1 C 4,3.669 4.669,3 5.5,3 l 11,0 C 17.331,3 18,3.669 18,4.5 l 0,-1 C 18,2.669 17.331,2 16.5,2 l -11,0 z m 30,0 C 34.669,2 34,2.669 34,3.5 l 0,1 C 34,3.669 34.669,3 35.5,3 l 11,0 C 47.331,3 48,3.669 48,4.5 l 0,-1 C 48,2.669 47.331,2 46.5,2 l -11,0 z M 7,6 7,7 11.5,11.5 12,11 7,6 z m 38,0 0,1 4.5,4.5 L 50,11 45,6 z M 2,9 2,10 7,10 7,9 6,9 4,9 2,9 z m 38,0 0,1 5,0 0,-1 -5,0 z M 4,14 4,14.375 4,15 6,15 6,14 4,14 z m 44,0.9375 C 46.953287,15.984212 46.551359,16.32202 46,17 l -1,0 -8.5,0 C 36.223,17 36,16.777 36,16.5 l 0,1 c 0,0.277 0.223,0.5 0.5,0.5 l 8.5,0 1,0 c 0.551359,-0.67798 0.953287,-1.015788 2,-2.0625 l 0,-1 z M 6,16.5 6,17.375 6,17.5 C 6,17.777 6.223,18 6.5,18 l 8.5,0 0.5,0 C 15.777,18 16,17.777 16,17.5 L 16,17.375 16,16.5 C 16,16.777 15.777,17 15.5,17 L 15,17 7,17 6.5,17 C 6.223,17 6,16.777 6,16.5 z"
       id="path3149"
       inkscape:connector-curvature="0" />
    <path
       style="opacity:0.3;fill:#ffffff;fill-opacity:1;stroke:none;display:inline"
       d="M 6.5,4 C 6.223,4 6,4.223 6,4.5 l 0,1 C 6,5.223 6.223,5 6.5,5 l 9,0 C 15.777,5 16,5.223 16,5.5 l 0,-1 C 16,4.223 15.777,4 15.5,4 l -9,0 z m 30,0 C 36.223,4 36,4.223 36,4.5 l 0,1 C 36,5.223 36.223,5 36.5,5 l 9,0 C 45.777,5 46,5.223 46,5.5 l 0,0.53125 2,2 0,-1 -2,-2 L 46,4.5 C 46,4.223 45.777,4 45.5,4 l -9,0 z M 4,8 4,8.625 4,9 6,9 6,8 4,8 z m 7.5,3.5 -4.5,4.5 0,1 5,-5 -0.5,-0.5 z m 38,0 -4.5,4.5 0,1 5,-5 -0.5,-0.5 z M 2,13 l 0,1 2,0 2,0 1,0 0,-1 -5,0 z m 38,0 0,1 5,0 0,-1 -5,0 z m -36,4.5 0,1 C 4,19.331 4.669,20 5.5,20 l 11,0 c 0.831,0 1.5,-0.669 1.5,-1.5 l 0,-1 c 0,0.831 -0.669,1.5 -1.5,1.5 l -11,0 C 4.669,19 4,18.331 4,17.5 z m 30,0 0,1 c 0,0.831 0.669,1.5 1.5,1.5 l 11,0 c 0.831,0 1.5,-0.669 1.5,-1.5 l 0,-1 c 0,0.831 -0.669,1.5 -1.5,1.5 l -11,0 C 34.669,19 34,18.331 34,17.5 z"
       id="path3926"
       inkscape:connector-curvature="0" />
  </g>
</svg>
