<?xml version="1.0" encoding="UTF-8" standalone="no"?>
<!-- Created with Inkscape (http://www.inkscape.org/) -->

<svg
   xmlns:dc="http://purl.org/dc/elements/1.1/"
   xmlns:cc="http://creativecommons.org/ns#"
   xmlns:rdf="http://www.w3.org/1999/02/22-rdf-syntax-ns#"
   xmlns:svg="http://www.w3.org/2000/svg"
   xmlns="http://www.w3.org/2000/svg"
   xmlns:xlink="http://www.w3.org/1999/xlink"
   xmlns:sodipodi="http://sodipodi.sourceforge.net/DTD/sodipodi-0.dtd"
   xmlns:inkscape="http://www.inkscape.org/namespaces/inkscape"
   width="22"
   height="22"
   id="svg2"
   sodipodi:version="0.32"
   inkscape:version="0.48.0 r9654"
   version="1.0"
   sodipodi:docname="document-send.svg"
   inkscape:output_extension="org.inkscape.output.svg.inkscape"
   inkscape:export-filename="/home/matt/.icons/Sirocco/scalable/mimetypes/text-plain.png"
   inkscape:export-xdpi="90"
   inkscape:export-ydpi="90"
   sodipodi:modified="true"
   style="display:inline">
  <sodipodi:namedview
     id="base"
     pagecolor="#ffffff"
     bordercolor="#666666"
     borderopacity="1.0"
     inkscape:pageopacity="0.0"
     inkscape:pageshadow="2"
     inkscape:zoom="16.442211"
     inkscape:cx="6.1998827"
     inkscape:cy="9.6016877"
     inkscape:document-units="px"
     inkscape:current-layer="layer1"
     width="128px"
     height="128px"
     inkscape:showpageshadow="false"
     inkscape:window-width="1920"
     inkscape:window-height="1029"
     inkscape:window-x="0"
     inkscape:window-y="25"
     showguides="true"
     inkscape:guide-bbox="true"
     showgrid="true"
     inkscape:window-maximized="1">
    <sodipodi:guide
       id="guide2226"
       position="32.637397,117.99844"
       orientation="horizontal" />
    <sodipodi:guide
       id="guide2230"
       position="110,57.402344"
       orientation="vertical" />
    <sodipodi:guide
       id="guide2232"
       position="33.760911"
       orientation="horizontal" />
    <sodipodi:guide
       id="guide2231"
       position="46.774696"
       orientation="horizontal" />
    <inkscape:grid
       enabled="true"
       visible="true"
       id="grid3231"
       type="xygrid" />
    <sodipodi:guide
       orientation="1,0"
       position="100,67.625"
       id="guide2713" />
  </sodipodi:namedview>
  <defs
     id="defs4">
    <linearGradient
       inkscape:collect="always"
       xlink:href="#StandardGradient"
       id="linearGradient2549"
       gradientUnits="userSpaceOnUse"
       gradientTransform="matrix(0.9247229,0,0,1.0872097,20.939944,2.9976422)"
       x1="11.998966"
       y1="0.92195445"
       x2="11.998966"
       y2="17.478098" />
    <inkscape:perspective
       sodipodi:type="inkscape:persp3d"
       inkscape:vp_x="0 : 11 : 1"
       inkscape:vp_y="0 : 1000 : 0"
       inkscape:vp_z="22 : 11 : 1"
       inkscape:persp3d-origin="11 : 7.3333333 : 1"
       id="perspective3967" />
    <linearGradient
       id="StandardGradient"
       gradientTransform="scale(0.9219544,1.0846523)"
       x1="11.998966"
       y1="0.92195445"
       x2="11.998966"
       y2="19.387045"
       gradientUnits="userSpaceOnUse">
      <stop
         style="stop-color:#000000;stop-opacity:0.86274511;"
         offset="0"
         id="stop3283" />
      <stop
         style="stop-color:#000000;stop-opacity:0.47058824;"
         offset="1"
         id="stop2651" />
    </linearGradient>
    <linearGradient
       inkscape:collect="always"
       xlink:href="#StandardGradient"
       id="linearGradient3978"
       gradientUnits="userSpaceOnUse"
       gradientTransform="matrix(0.9247229,0,0,1.0872097,-2.060056,1.9976422)"
       x1="11.998966"
       y1="0.92195445"
       x2="11.998966"
       y2="17.478098" />
    <linearGradient
       inkscape:collect="always"
       xlink:href="#StandardGradient"
       id="linearGradient3983"
       gradientUnits="userSpaceOnUse"
       gradientTransform="matrix(0.9219544,0,0,1.0846523,2,-2)"
       x1="11.998966"
       y1="0.92195445"
       x2="11.998966"
       y2="19.387045" />
    <linearGradient
       inkscape:collect="always"
       xlink:href="#StandardGradient"
       id="linearGradient3986"
       gradientUnits="userSpaceOnUse"
       gradientTransform="matrix(0.9219544,0,0,1.0846523,6.25e-2,-2)"
       x1="11.998966"
       y1="0.92195445"
       x2="11.998966"
       y2="19.387045" />
    <linearGradient
       inkscape:collect="always"
       xlink:href="#StandardGradient"
       id="linearGradient3989"
       gradientUnits="userSpaceOnUse"
       gradientTransform="matrix(0.9219544,0,0,1.0846523,-1,-2)"
       x1="11.998966"
       y1="0.92195445"
       x2="11.998966"
       y2="19.387045" />
    <linearGradient
       inkscape:collect="always"
       xlink:href="#StandardGradient"
       id="linearGradient3992"
       gradientUnits="userSpaceOnUse"
       gradientTransform="matrix(0.9219544,0,0,1.0846523,-1,-2)"
       x1="11.998966"
       y1="0.92195445"
       x2="11.998966"
       y2="19.387045" />
    <linearGradient
       inkscape:collect="always"
       xlink:href="#StandardGradient"
       id="linearGradient3995"
       gradientUnits="userSpaceOnUse"
       gradientTransform="matrix(0.9219544,0,0,1.0846523,0,-2)"
       x1="11.998966"
       y1="4.6096597"
       x2="11.998966"
       y2="19.387045" />
    <linearGradient
       inkscape:collect="always"
       xlink:href="#StandardGradient"
       id="linearGradient2400"
       gradientUnits="userSpaceOnUse"
       gradientTransform="matrix(0.9219544,0,0,1.0846523,20,-2)"
       x1="11.998966"
       y1="4.6096597"
       x2="11.998966"
       y2="19.387045" />
    <linearGradient
       inkscape:collect="always"
       xlink:href="#StandardGradient"
       id="linearGradient2407"
       gradientUnits="userSpaceOnUse"
       gradientTransform="matrix(0.9219544,0,0,1.0846523,20,-2)"
       x1="11.998966"
       y1="4.6096597"
       x2="11.998966"
       y2="19.387045" />
    <linearGradient
       inkscape:collect="always"
       xlink:href="#StandardGradient"
       id="linearGradient2412"
       gradientUnits="userSpaceOnUse"
       gradientTransform="matrix(0.9219544,0,0,1.0846523,20,-2)"
       x1="11.998966"
       y1="4.6096597"
       x2="11.998966"
       y2="19.387045" />
    <linearGradient
       inkscape:collect="always"
       xlink:href="#StandardGradient"
       id="linearGradient2422"
       gradientUnits="userSpaceOnUse"
       gradientTransform="matrix(0.9219544,0,0,1.0846523,1,0)"
       x1="11.998966"
       y1="4.6096597"
       x2="11.998966"
       y2="19.387045" />
    <linearGradient
       inkscape:collect="always"
       xlink:href="#StandardGradient"
       id="linearGradient2424"
       gradientUnits="userSpaceOnUse"
       gradientTransform="matrix(0.9219544,0,0,1.0846523,0,-2)"
       x1="11.998966"
       y1="4.6096597"
       x2="11.998966"
       y2="19.387045" />
    <linearGradient
       inkscape:collect="always"
       xlink:href="#StandardGradient"
       id="linearGradient2427"
       gradientUnits="userSpaceOnUse"
       gradientTransform="matrix(0.9219544,0,0,1.0846523,-2,-3)"
       x1="11.998966"
       y1="4.6096597"
       x2="11.998966"
       y2="19.387045" />
    <inkscape:perspective
       id="perspective2850"
       inkscape:persp3d-origin="0.5 : 0.33333333 : 1"
       inkscape:vp_z="1 : 0.5 : 1"
       inkscape:vp_y="0 : 1000 : 0"
       inkscape:vp_x="0 : 0.5 : 1"
       sodipodi:type="inkscape:persp3d" />
    <linearGradient
       inkscape:collect="always"
       xlink:href="#StandardGradient"
       id="linearGradient3640"
       gradientUnits="userSpaceOnUse"
       gradientTransform="matrix(0.9219544,0,0,1.0846523,-32,-3)"
       x1="11.998966"
       y1="4.6096597"
       x2="11.998966"
       y2="19.387045" />
    <linearGradient
       inkscape:collect="always"
       xlink:href="#StandardGradient"
       id="linearGradient3657"
       gradientUnits="userSpaceOnUse"
       gradientTransform="matrix(0.9219544,0,0,1.0846523,-32,27)"
       x1="11.998966"
       y1="4.6096597"
       x2="11.998966"
       y2="19.387045" />
    <clipPath
       clipPathUnits="userSpaceOnUse"
       id="clipPath3660">
      <path
         style="fill:#ff00ff;fill-opacity:1;stroke:none;display:inline"
         d="m -30,0 0,22 22,0 0,-22 -22,0 z m 6.5,3 9,0 c 0.831,0 1.5,0.669 1.5,1.5 l 0,11 c 0,0.831 -0.669,1.5 -1.5,1.5 l -3.5,0 0,-2 2.5,0 c 0.277,0 0.5,-0.223 0.5,-0.5 l 0,-9 C -15,5.223 -15.223,5 -15.5,5 l -7,0 C -22.777,5 -23,5.223 -23,5.5 l 0,4.5 -2,0 0,-5.5 C -25,3.669 -24.331,3 -23.5,3 z m -1.5,8 3,0 0,3 3,0 0,3 -3,0 0,3 -3,0 0,-3 -3,0 0,-3 3,0 0,-3 z"
         id="path3662" />
    </clipPath>
    <linearGradient
       inkscape:collect="always"
       xlink:href="#StandardGradient"
       id="linearGradient2862"
       gradientUnits="userSpaceOnUse"
       gradientTransform="matrix(-0.9219544,0,0,-1.0846523,24,23)"
       x1="11.998966"
       y1="4.6096597"
       x2="11.998966"
       y2="19.387045" />
    <linearGradient
       inkscape:collect="always"
       xlink:href="#StandardGradient"
       id="linearGradient2864"
       gradientUnits="userSpaceOnUse"
       gradientTransform="matrix(0.9219544,0,0,1.0846523,-2,-3)"
       x1="11.998966"
       y1="4.6096597"
       x2="11.998966"
       y2="19.387045" />
    <linearGradient
       inkscape:collect="always"
       xlink:href="#StandardGradient"
       id="linearGradient2867"
       gradientUnits="userSpaceOnUse"
       gradientTransform="matrix(0.9219544,0,0,1.0846523,2,-2)"
       x1="11.998966"
       y1="4.6096597"
       x2="11.998966"
       y2="19.387045" />
    <linearGradient
       inkscape:collect="always"
       xlink:href="#StandardGradient"
       id="linearGradient2880"
       gradientUnits="userSpaceOnUse"
       gradientTransform="matrix(0.9219544,0,0,1.0846523,2,-1)"
       x1="11.998966"
       y1="4.6096597"
       x2="11.998966"
       y2="19.387045" />
    <linearGradient
       inkscape:collect="always"
       xlink:href="#StandardGradient"
       id="linearGradient2882"
       gradientUnits="userSpaceOnUse"
       gradientTransform="matrix(0.9219544,0,0,1.0846523,2,-2)"
       x1="11.998966"
       y1="4.6096597"
       x2="11.998966"
       y2="19.387045" />
    <linearGradient
       inkscape:collect="always"
       xlink:href="#StandardGradient"
       id="linearGradient3659"
       gradientUnits="userSpaceOnUse"
       gradientTransform="matrix(0.9219544,0,0,1.0846523,2,-1)"
       x1="11.998966"
       y1="4.6096597"
       x2="11.998966"
       y2="19.387045" />
    <linearGradient
       inkscape:collect="always"
       xlink:href="#StandardGradient"
       id="linearGradient3663"
       gradientUnits="userSpaceOnUse"
       gradientTransform="matrix(0.9219544,0,0,1.0846523,2,-2)"
       x1="11.998966"
       y1="4.6096597"
       x2="11.998966"
       y2="19.387045" />
    <linearGradient
       inkscape:collect="always"
       xlink:href="#StandardGradient"
       id="linearGradient3668"
       gradientUnits="userSpaceOnUse"
       gradientTransform="matrix(0.9219544,0,0,1.0846523,-28,-2)"
       x1="11.998966"
       y1="4.6096597"
       x2="11.998966"
       y2="19.387045" />
    <clipPath
       clipPathUnits="userSpaceOnUse"
       id="clipPath3675">
      <path
         style="fill:#ff00ff;fill-opacity:1;stroke:none;display:inline"
         d="m -30,0 0,22 22,0 0,-22 -22,0 z m 10.5,4 3.5,0 5.5,0 C -9.669,4 -9,4.669 -9,5.5 l 0,5.5 0,5.5 c 0,0.831 -0.669,1.5 -1.5,1.5 l -3.5,0 -5.5,0 c -0.831,0 -1.5,-0.669 -1.5,-1.5 l 0,-5.5 0,-5.5 C -21,4.669 -20.331,4 -19.5,4 z m 1,2 C -18.777,6 -19,6.223 -19,6.5 l 0,4.5 0,4.5 c 0,0.277 0.223,0.5 0.5,0.5 l 4.5,0 2.5,0 c 0.277,0 0.5,-0.223 0.5,-0.5 l 0,-4.5 0,-4.5 C -11,6.223 -11.223,6 -11.5,6 l -4.5,0 -2.5,0 z m -7.5,2 3,0 0,1 -3,0 0,-1 z m -3,3 6,0 0,1 -6,0 0,-1 z m 2,3 4,0 0,1 -4,0 0,-1 z"
         id="path3677" />
    </clipPath>
    <filter
       inkscape:collect="always"
       id="filter3679">
      <feGaussianBlur
         inkscape:collect="always"
         stdDeviation="0.51"
         id="feGaussianBlur3681" />
    </filter>
  </defs>
  <metadata
     id="metadata7">
    <rdf:RDF>
      <cc:Work
         rdf:about="">
        <dc:format>image/svg+xml</dc:format>
        <dc:type
           rdf:resource="http://purl.org/dc/dcmitype/StillImage" />
      </cc:Work>
    </rdf:RDF>
  </metadata>
  <g
     style="display:inline"
     inkscape:label="Calque 1"
     id="layer1"
     inkscape:groupmode="layer">
    <path
       style="fill:#ffffff;fill-opacity:1;stroke:none;display:inline;opacity:0.15"
       d="M 10.5 3.03125 C 9.1426674 3.03125 8.03125 4.1426674 8.03125 5.5 L 8.03125 11 L 8.03125 16.5 C 8.03125 17.857333 9.1426674 18.96875 10.5 18.96875 L 16 18.96875 L 19.5 18.96875 C 20.857333 18.96875 21.96875 17.857333 21.96875 16.5 L 21.96875 11 L 21.96875 5.5 C 21.96875 4.1426674 20.857333 3.03125 19.5 3.03125 L 14 3.03125 L 10.5 3.03125 z M 10.5 4 L 14 4 L 19.5 4 C 20.331 4 21 4.669 21 5.5 L 21 11 L 21 16.5 C 21 17.331 20.331 18 19.5 18 L 16 18 L 10.5 18 C 9.669 18 9 17.331 9 16.5 L 9 11 L 9 5.5 C 9 4.669 9.669 4 10.5 4 z M 11.5 6 C 11.223 6 11 6.223 11 6.5 L 11 11 L 11 15.5 C 11 15.777 11.223 16 11.5 16 L 16 16 L 18.5 16 C 18.777 16 19 15.777 19 15.5 L 19 11 L 19 6.5 C 19 6.223 18.777 6 18.5 6 L 14 6 L 11.5 6 z M 11.96875 6.96875 L 14 6.96875 L 18.03125 6.96875 L 18.03125 11 L 18.03125 15.03125 L 16 15.03125 L 11.96875 15.03125 L 11.96875 11 L 11.96875 6.96875 z M 3.8125 7.03125 A 0.98077609 0.98077609 0 0 0 3.03125 8 L 3.03125 9 A 0.98077609 0.98077609 0 0 0 4 9.96875 L 7 9.96875 A 0.98077609 0.98077609 0 0 0 7.96875 9 L 7.96875 8 A 0.98077609 0.98077609 0 0 0 7 7.03125 L 4 7.03125 A 0.98077609 0.98077609 0 0 0 3.8125 7.03125 z M 4 8 L 7 8 L 7 9 L 4 9 L 4 8 z M 0.8125 10.03125 A 0.98077609 0.98077609 0 0 0 0.03125 11 L 0.03125 12 A 0.98077609 0.98077609 0 0 0 1 12.96875 L 7 12.96875 A 0.98077609 0.98077609 0 0 0 7.96875 12 L 7.96875 11 A 0.98077609 0.98077609 0 0 0 7 10.03125 L 1 10.03125 A 0.98077609 0.98077609 0 0 0 0.8125 10.03125 z M 1 11 L 7 11 L 7 12 L 1 12 L 1 11 z M 2.8125 13.03125 A 0.98077609 0.98077609 0 0 0 2.03125 14 L 2.03125 15 A 0.98077609 0.98077609 0 0 0 3 15.96875 L 7 15.96875 A 0.98077609 0.98077609 0 0 0 7.96875 15 L 7.96875 14 A 0.98077609 0.98077609 0 0 0 7 13.03125 L 3 13.03125 A 0.98077609 0.98077609 0 0 0 2.8125 13.03125 z M 3 14 L 7 14 L 7 15 L 3 15 L 3 14 z "
       id="path3311" />
    <path
       style="fill:url(#linearGradient2867);fill-opacity:1;stroke:none;display:inline"
       d="M 10.5 4 C 9.669 4 9 4.669 9 5.5 L 9 11 L 9 16.5 C 9 17.331 9.669 18 10.5 18 L 16 18 L 19.5 18 C 20.331 18 21 17.331 21 16.5 L 21 11 L 21 5.5 C 21 4.669 20.331 4 19.5 4 L 14 4 L 10.5 4 z M 11.5 6 L 14 6 L 18.5 6 C 18.777 6 19 6.223 19 6.5 L 19 11 L 19 15.5 C 19 15.777 18.777 16 18.5 16 L 16 16 L 11.5 16 C 11.223 16 11 15.777 11 15.5 L 11 11 L 11 6.5 C 11 6.223 11.223 6 11.5 6 z M 4 8 L 4 9 L 7 9 L 7 8 L 4 8 z M 1 11 L 1 12 L 7 12 L 7 11 L 1 11 z M 3 14 L 3 15 L 7 15 L 7 14 L 3 14 z "
       id="path2858" />
    <path
       style="fill:#000000;fill-opacity:1;stroke:none;display:inline;opacity:0.5"
       d="M 10.5 4 C 9.669 4 9 4.669 9 5.5 L 9 6.5 C 9 5.669 9.669 5 10.5 5 L 14 5 L 19.5 5 C 20.331 5 21 5.669 21 6.5 L 21 5.5 C 21 4.669 20.331 4 19.5 4 L 14 4 L 10.5 4 z M 4 8 L 4 9 L 7 9 L 7 8 L 4 8 z M 1 11 L 1 12 L 7 12 L 7 11 L 1 11 z M 3 14 L 3 15 L 7 15 L 7 14 L 3 14 z M 11 15.5 L 11 16.5 C 11 16.777 11.223 17 11.5 17 L 16 17 L 18.5 17 C 18.777 17 19 16.777 19 16.5 L 19 15.5 C 19 15.777 18.777 16 18.5 16 L 16 16 L 11.5 16 C 11.223 16 11 15.777 11 15.5 z "
       id="path2876" />
    <path
       style="fill:#ffffff;fill-opacity:1;stroke:none;display:inline;opacity:0.3"
       d="M 11.5 6 C 11.223 6 11 6.223 11 6.5 L 11 7.5 C 11 7.223 11.223 7 11.5 7 L 14 7 L 18.5 7 C 18.777 7 19 7.223 19 7.5 L 19 6.5 C 19 6.223 18.777 6 18.5 6 L 14 6 L 11.5 6 z M 4 9 L 4 10 L 7 10 L 7 9 L 4 9 z M 1 12 L 1 13 L 7 13 L 7 12 L 1 12 z M 3 15 L 3 16 L 7 16 L 7 15 L 3 15 z M 9 16.5 L 9 17.5 C 9 18.331 9.669 19 10.5 19 L 16 19 L 19.5 19 C 20.331 19 21 18.331 21 17.5 L 21 16.5 C 21 17.331 20.331 18 19.5 18 L 16 18 L 10.5 18 C 9.669 18 9 17.331 9 16.5 z "
       id="path3657" />
  </g>
</svg>
