<?xml version="1.0" encoding="UTF-8" standalone="no"?>
<!-- Created with Inkscape (http://www.inkscape.org/) -->

<svg
   xmlns:dc="http://purl.org/dc/elements/1.1/"
   xmlns:cc="http://creativecommons.org/ns#"
   xmlns:rdf="http://www.w3.org/1999/02/22-rdf-syntax-ns#"
   xmlns:svg="http://www.w3.org/2000/svg"
   xmlns="http://www.w3.org/2000/svg"
   xmlns:xlink="http://www.w3.org/1999/xlink"
   xmlns:sodipodi="http://sodipodi.sourceforge.net/DTD/sodipodi-0.dtd"
   xmlns:inkscape="http://www.inkscape.org/namespaces/inkscape"
   width="22"
   height="22"
   id="svg2"
   sodipodi:version="0.32"
   inkscape:version="0.48.0 r9654"
   version="1.0"
   sodipodi:docname="document-save-as.svg"
   inkscape:output_extension="org.inkscape.output.svg.inkscape">
  <defs
     id="defs4">
    <inkscape:perspective
       sodipodi:type="inkscape:persp3d"
       inkscape:vp_x="0 : 11 : 1"
       inkscape:vp_y="0 : 1000 : 0"
       inkscape:vp_z="22 : 11 : 1"
       inkscape:persp3d-origin="11 : 7.3333333 : 1"
       id="perspective18" />
    <linearGradient
       id="StandardGradient"
       gradientTransform="matrix(1.0765258,0,0,0.9227364,-20.008013,0.1584665)"
       x1="10.005832"
       y1="4.1631975"
       x2="10.005832"
       y2="17.168188"
       gradientUnits="userSpaceOnUse">
      <stop
         id="stop3337"
         offset="0"
         style="stop-color:#000000;stop-opacity:0.86274511;" />
      <stop
         id="stop3339"
         offset="1"
         style="stop-color:#000000;stop-opacity:0.47058824;" />
    </linearGradient>
    <linearGradient
       inkscape:collect="always"
       xlink:href="#StandardGradient"
       id="linearGradient2411"
       gradientUnits="userSpaceOnUse"
       gradientTransform="matrix(1.0765258,0,0,0.9227364,-21.008013,-2.8102835)"
       x1="24.8104"
       y1="4.163197"
       x2="24.8104"
       y2="19.365065" />
    <linearGradient
       inkscape:collect="always"
       xlink:href="#StandardGradient"
       id="linearGradient2421"
       gradientUnits="userSpaceOnUse"
       gradientTransform="matrix(1.0765258,0,0,0.9227364,-21.008013,-2.8102835)"
       x1="24.8104"
       y1="4.163197"
       x2="24.8104"
       y2="24.722519" />
    <inkscape:perspective
       id="perspective2850"
       inkscape:persp3d-origin="0.5 : 0.33333333 : 1"
       inkscape:vp_z="1 : 0.5 : 1"
       inkscape:vp_y="0 : 1000 : 0"
       inkscape:vp_x="0 : 0.5 : 1"
       sodipodi:type="inkscape:persp3d" />
    <linearGradient
       inkscape:collect="always"
       xlink:href="#StandardGradient"
       id="linearGradient3628"
       gradientUnits="userSpaceOnUse"
       gradientTransform="matrix(1.0765258,0,0,0.9227364,-51.008013,-2.8102835)"
       x1="24.8104"
       y1="4.163197"
       x2="24.8104"
       y2="24.722519" />
    <clipPath
       clipPathUnits="userSpaceOnUse"
       id="clipPath3635">
      <path
         style="fill:#ff00ff;fill-opacity:1;stroke:none;display:inline"
         d="m -30,0 0,22 22,0 0,-22 -22,0 z m 3,1.03125 15.03125,0 L -11,2 l 0,15 -16,0 0,-15.96875 z m 4.03125,1 0,5 8,0 0,-5 -8,0 z m 5,1 2,0 0,3 -2,0 0,-3 z M -26,15 l 0,1 1,0 0,-1 -1,0 z m 13,0 0,1 1,0 0,-1 -1,0 z m -13,3 c 0.552,0 1,0.448 1,1 0,0.552 -0.448,1 -1,1 -0.552,0 -1,-0.448 -1,-1 0,-0.552 0.448,-1 1,-1 z m 3,0 c 0.552,0 1,0.448 1,1 0,0.552 -0.448,1 -1,1 -0.552,0 -1,-0.448 -1,-1 0,-0.552 0.448,-1 1,-1 z m 3,0 c 0.552,0 1,0.448 1,1 0,0.552 -0.448,1 -1,1 -0.552,0 -1,-0.448 -1,-1 0,-0.552 0.448,-1 1,-1 z"
         id="path3637" />
    </clipPath>
    <inkscape:perspective
       id="perspective2853"
       inkscape:persp3d-origin="0.5 : 0.33333333 : 1"
       inkscape:vp_z="1 : 0.5 : 1"
       inkscape:vp_y="0 : 1000 : 0"
       inkscape:vp_x="0 : 0.5 : 1"
       sodipodi:type="inkscape:persp3d" />
    <linearGradient
       inkscape:collect="always"
       xlink:href="#StandardGradient-8"
       id="linearGradient2410"
       gradientUnits="userSpaceOnUse"
       gradientTransform="matrix(0.9247229,0,0,1.0872097,-7.0600562,-1.0023578)"
       x1="11.998966"
       y1="1.8417401"
       x2="11.998966"
       y2="20.238579" />
    <linearGradient
       id="StandardGradient-8"
       gradientTransform="scale(0.9219544,1.0846523)"
       x1="11.998966"
       y1="0.92195445"
       x2="11.998966"
       y2="19.387045"
       gradientUnits="userSpaceOnUse">
      <stop
         style="stop-color:#000000;stop-opacity:0.86274511;"
         offset="0"
         id="stop3283" />
      <stop
         style="stop-color:#000000;stop-opacity:0.47058824;"
         offset="1"
         id="stop2651" />
    </linearGradient>
    <linearGradient
       y2="20.238579"
       x2="11.998966"
       y1="1.8417401"
       x1="11.998966"
       gradientTransform="matrix(0.9247229,0,0,1.0872097,-7.0600562,-1.0023578)"
       gradientUnits="userSpaceOnUse"
       id="linearGradient2862"
       xlink:href="#StandardGradient-8"
       inkscape:collect="always" />
    <linearGradient
       inkscape:collect="always"
       xlink:href="#StandardGradient"
       id="linearGradient2878"
       gradientUnits="userSpaceOnUse"
       gradientTransform="matrix(1.0765258,0,0,0.9227364,-22.008013,-2.8102835)"
       x1="24.8104"
       y1="4.163197"
       x2="24.8104"
       y2="24.722519" />
    <linearGradient
       inkscape:collect="always"
       xlink:href="#StandardGradient"
       id="linearGradient2880"
       gradientUnits="userSpaceOnUse"
       gradientTransform="matrix(1.0765258,0,0,0.9227364,-22.008013,-2.8102835)"
       x1="24.8104"
       y1="4.163197"
       x2="24.8104"
       y2="24.722519" />
    <linearGradient
       inkscape:collect="always"
       xlink:href="#StandardGradient"
       id="linearGradient2882"
       gradientUnits="userSpaceOnUse"
       gradientTransform="matrix(1.0765258,0,0,0.9227364,-22.008013,-2.8102835)"
       x1="24.8104"
       y1="4.163197"
       x2="24.8104"
       y2="24.722519" />
    <linearGradient
       inkscape:collect="always"
       xlink:href="#StandardGradient"
       id="linearGradient2889"
       gradientUnits="userSpaceOnUse"
       gradientTransform="matrix(1.0765258,0,0,0.9227364,-22.008013,-1.8102835)"
       x1="24.8104"
       y1="4.163197"
       x2="24.8104"
       y2="24.722519" />
    <linearGradient
       inkscape:collect="always"
       xlink:href="#StandardGradient"
       id="linearGradient2901"
       gradientUnits="userSpaceOnUse"
       gradientTransform="matrix(1.0765258,0,0,0.9227364,-22.008013,-2.8102835)"
       x1="24.8104"
       y1="4.163197"
       x2="24.8104"
       y2="24.722519" />
    <linearGradient
       inkscape:collect="always"
       xlink:href="#StandardGradient"
       id="linearGradient3680"
       gradientUnits="userSpaceOnUse"
       gradientTransform="matrix(1.0765258,0,0,0.9227364,-22.008013,-1.8102835)"
       x1="24.8104"
       y1="4.163197"
       x2="24.8104"
       y2="24.722519" />
    <linearGradient
       inkscape:collect="always"
       xlink:href="#StandardGradient"
       id="linearGradient3685"
       gradientUnits="userSpaceOnUse"
       gradientTransform="matrix(1.0765258,0,0,0.9227364,-52.008013,-2.8102835)"
       x1="24.8104"
       y1="4.163197"
       x2="24.8104"
       y2="24.722519" />
    <clipPath
       clipPathUnits="userSpaceOnUse"
       id="clipPath3692">
      <path
         style="fill:#ff00ff;fill-opacity:1;stroke:none;display:inline"
         d="m -30,0 0,22 22,0 0,-22 -22,0 z m 2.5,1 9,0 c 0.831,0 1.5,0.6690001 1.5,1.5 l 0,11 c 0,0.831 -0.669,1.5 -1.5,1.5 l -9,0 c -0.831,0 -1.5,-0.669 -1.5,-1.5 l 0,-11 c 0,-0.831 0.669,-1.50000001 1.5,-1.5 z m 1,2 C -26.777,3 -27,3.2230001 -27,3.5 l 0,9 c 0,0.277 0.223,0.5 0.5,0.5 l 7,0 c 0.277,0 0.5,-0.223 0.5,-0.5 l 0,-9 C -19,3.223 -19.223,3.0000001 -19.5,3 l -7,0 z m 10.5,5.03125 5,0 0,1 -5,0 0,-1 z m 0,2 5,0 0,2 -5,0 0,-2 z m 0,3 5,0 0,2.96875 2,0 -4.5,5 -4.5,-5 2,0 0,-2.96875 z M -27,18 c 0.552,0 1,0.448 1,1 0,0.552 -0.448,1 -1,1 -0.552,0 -1,-0.448 -1,-1 0,-0.552 0.448,-1 1,-1 z m 3,0 c 0.552,0 1,0.448 1,1 0,0.552 -0.448,1 -1,1 -0.552,0 -1,-0.448 -1,-1 0,-0.552 0.448,-1 1,-1 z m 3,0 c 0.552,0 1,0.448 1,1 0,0.552 -0.448,1 -1,1 -0.552,0 -1,-0.448 -1,-1 0,-0.552 0.448,-1 1,-1 z"
         id="path3694" />
    </clipPath>
    <filter
       inkscape:collect="always"
       id="filter3696">
      <feGaussianBlur
         inkscape:collect="always"
         stdDeviation="0.6"
         id="feGaussianBlur3698" />
    </filter>
    <linearGradient
       inkscape:collect="always"
       xlink:href="#StandardGradient"
       id="linearGradient4088"
       gradientUnits="userSpaceOnUse"
       gradientTransform="matrix(1.0765258,0,0,0.9227364,-22.008013,-2.8102835)"
       x1="24.8104"
       y1="4.163197"
       x2="24.8104"
       y2="24.722519" />
    <linearGradient
       inkscape:collect="always"
       xlink:href="#StandardGradient"
       id="linearGradient4092"
       gradientUnits="userSpaceOnUse"
       gradientTransform="matrix(1.0765258,0,0,0.9227364,-22.008013,-2.8102835)"
       x1="24.8104"
       y1="4.163197"
       x2="24.8104"
       y2="24.722519" />
  </defs>
  <sodipodi:namedview
     id="base"
     pagecolor="#ffffff"
     bordercolor="#9a9a9a"
     borderopacity="1"
     inkscape:pageopacity="0.0"
     inkscape:pageshadow="2"
     inkscape:zoom="16.540628"
     inkscape:cx="-12.759059"
     inkscape:cy="3.8363677"
     inkscape:document-units="px"
     inkscape:current-layer="layer1"
     showgrid="true"
     inkscape:showpageshadow="false"
     showguides="true"
     inkscape:guide-bbox="true"
     inkscape:window-width="1920"
     inkscape:window-height="1029"
     inkscape:window-x="0"
     inkscape:window-y="25"
     inkscape:window-maximized="1">
    <sodipodi:guide
       orientation="1,0"
       position="0,112"
       id="guide2383" />
    <sodipodi:guide
       orientation="0,1"
       position="26.278146,128"
       id="guide2385" />
    <sodipodi:guide
       orientation="1,0"
       position="128,54.082119"
       id="guide2387" />
    <sodipodi:guide
       orientation="0,1"
       position="78.156291,0"
       id="guide2389" />
    <inkscape:grid
       type="xygrid"
       id="grid3672"
       visible="true"
       enabled="true" />
  </sodipodi:namedview>
  <metadata
     id="metadata7">
    <rdf:RDF>
      <cc:Work
         rdf:about="">
        <dc:format>image/svg+xml</dc:format>
        <dc:type
           rdf:resource="http://purl.org/dc/dcmitype/StillImage" />
      </cc:Work>
    </rdf:RDF>
  </metadata>
  <g
     inkscape:label="Calque 1"
     inkscape:groupmode="layer"
     id="layer1"
     style="display:inline">
    <path
       style="fill:#ffffff;fill-opacity:1;stroke:none;display:inline;opacity:0.15"
       d="M 2.5 0 C 1.1338614 -1.6439695e-08 0 1.1338614 0 2.5 L 0 13.5 C 0 14.866139 1.1338614 16 2.5 16 L 11 16 A 0.99718534 0.99718534 0 0 0 11.25 16.65625 L 15.75 21.65625 A 0.99718534 0.99718534 0 0 0 17.25 21.65625 L 21.75 16.65625 A 0.99718534 0.99718534 0 0 0 21 15 L 20 15 L 20 13.03125 A 0.99718534 0.99718534 0 0 0 19.84375 12.5625 A 0.99718534 0.99718534 0 0 0 19.84375 12.53125 A 0.99718534 0.99718534 0 0 0 20 12.03125 L 20 10.03125 A 0.99718534 0.99718534 0 0 0 19.84375 9.5625 A 0.99718534 0.99718534 0 0 0 19.84375 9.53125 A 0.99718534 0.99718534 0 0 0 20 9.03125 L 20 8.03125 A 0.99718534 0.99718534 0 0 0 19 7.03125 L 14 7.03125 L 14 2.5 C 14 1.1338614 12.866139 0 11.5 0 L 2.5 0 z M 2.5 1 L 11.5 1 C 12.331 1 13 1.6690001 13 2.5 L 13 13.5 C 13 14.331 12.331 15 11.5 15 L 2.5 15 C 1.669 15 1 14.331 1 13.5 L 1 2.5 C 1 1.669 1.669 0.99999999 2.5 1 z M 3.5 3 C 3.223 3 3 3.2230001 3 3.5 L 3 12.5 C 3 12.777 3.223 13 3.5 13 L 10.5 13 C 10.777 13 11 12.777 11 12.5 L 11 3.5 C 11 3.223 10.777 3.0000001 10.5 3 L 3.5 3 z M 4 4 L 10 4 L 10 12 L 4 12 L 4 4 z M 14 8.03125 L 19 8.03125 L 19 9.03125 L 14 9.03125 L 14 8.03125 z M 14 10.03125 L 19 10.03125 L 19 12.03125 L 14 12.03125 L 14 10.03125 z M 14 13.03125 L 19 13.03125 L 19 16 L 21 16 L 16.5 21 L 12 16 L 14 16 L 14 13.03125 z M 3 17 C 1.9085141 17 1 17.908514 1 19 C 1 20.091486 1.9085141 21 3 21 C 3.6308295 21 4.1322987 20.653554 4.5 20.1875 C 4.8677013 20.653554 5.3691705 21 6 21 C 6.6308295 21 7.1322987 20.653554 7.5 20.1875 C 7.8677013 20.653554 8.3691705 21 9 21 C 10.091486 21 11 20.091486 11 19 C 11 17.908514 10.091486 17 9 17 C 8.3691705 17 7.8677012 17.346446 7.5 17.8125 C 7.1322987 17.346446 6.6308295 17 6 17 C 5.3691705 17 4.8677012 17.346446 4.5 17.8125 C 4.1322987 17.346446 3.6308295 17 3 17 z M 3 18 C 3.5520001 18 4 18.448 4 19 C 4.0000001 19.552 3.552 20 3 20 C 2.4480001 20 2 19.552 2 19 C 2 18.448 2.448 18 3 18 z M 6 18 C 6.5520001 18 7 18.448 7 19 C 7.0000001 19.552 6.552 20 6 20 C 5.4480001 20 5 19.552 5 19 C 5.0000001 18.448 5.448 18 6 18 z M 9 18 C 9.552 18 10 18.448 10 19 C 10 19.552 9.552 20 9 20 C 8.4480001 20 8 19.552 8 19 C 8.0000001 18.448 8.448 18 9 18 z "
       id="path4090" />
    <path
       style="fill:url(#linearGradient2882);fill-opacity:1;stroke:none;display:inline"
       d="M 2.5 1 C 1.669 0.99999999 1 1.669 1 2.5 L 1 13.5 C 1 14.331 1.669 15 2.5 15 L 11.5 15 C 12.331 15 13 14.331 13 13.5 L 13 2.5 C 13 1.6690001 12.331 1 11.5 1 L 2.5 1 z M 3.5 3 L 10.5 3 C 10.777 3.0000001 11 3.223 11 3.5 L 11 12.5 C 11 12.777 10.777 13 10.5 13 L 3.5 13 C 3.223 13 3 12.777 3 12.5 L 3 3.5 C 3 3.2230001 3.223 3 3.5 3 z M 14 8.03125 L 14 9.03125 L 19 9.03125 L 19 8.03125 L 14 8.03125 z M 14 10.03125 L 14 12.03125 L 19 12.03125 L 19 10.03125 L 14 10.03125 z M 14 13.03125 L 14 16 L 12 16 L 16.5 21 L 21 16 L 19 16 L 19 13.03125 L 14 13.03125 z M 3 18 C 2.448 18 2 18.448 2 19 C 2 19.552 2.4480001 20 3 20 C 3.552 20 4.0000001 19.552 4 19 C 4 18.448 3.5520001 18 3 18 z M 6 18 C 5.448 18 5.0000001 18.448 5 19 C 5 19.552 5.4480001 20 6 20 C 6.552 20 7.0000001 19.552 7 19 C 7 18.448 6.5520001 18 6 18 z M 9 18 C 8.448 18 8.0000001 18.448 8 19 C 8 19.552 8.4480001 20 9 20 C 9.552 20 10 19.552 10 19 C 10 18.448 9.552 18 9 18 z "
       id="path2847" />
    <path
       style="fill:#000000;fill-opacity:1;stroke:none;display:inline;opacity:0.5"
       d="M 2.5 1 C 1.669 0.99999999 1 1.669 1 2.5 L 1 3.5 C 1 2.669 1.669 2 2.5 2 L 11.5 2 C 12.331 2 13 2.6690001 13 3.5 L 13 2.5 C 13 1.6690001 12.331 1 11.5 1 L 2.5 1 z M 14 8.03125 L 14 9.03125 L 19 9.03125 L 19 8.03125 L 14 8.03125 z M 14 10.03125 L 14 11.03125 L 19 11.03125 L 19 10.03125 L 14 10.03125 z M 3 12.5 L 3 13.5 C 3 13.777 3.223 14 3.5 14 L 10.5 14 C 10.777 14 11 13.777 11 13.5 L 11 12.5 C 11 12.777 10.777 13 10.5 13 L 3.5 13 C 3.223 13 3 12.777 3 12.5 z M 14 13.03125 L 14 14.03125 L 19 14.03125 L 19 13.03125 L 14 13.03125 z M 12 16 L 12.90625 17 L 14 17 L 14 16 L 12 16 z M 19 16 L 19 17 L 20.09375 17 L 21 16 L 19 16 z M 3 18 C 2.448 18 2 18.448 2 19 C 2 19.187223 2.0665983 19.350127 2.15625 19.5 C 2.3309235 19.207994 2.6352229 19 3 19 C 3.3647771 19 3.6690766 19.207994 3.84375 19.5 C 3.9334017 19.350127 4 19.187223 4 19 C 4 18.448 3.5520001 18 3 18 z M 6 18 C 5.448 18 5.0000001 18.448 5 19 C 5 19.187223 5.0665983 19.350127 5.15625 19.5 C 5.3309235 19.207994 5.6352229 19 6 19 C 6.3647771 19 6.6690766 19.207994 6.84375 19.5 C 6.9334017 19.350127 7 19.187223 7 19 C 7 18.448 6.5520001 18 6 18 z M 9 18 C 8.448 18 8.0000001 18.448 8 19 C 8 19.187223 8.0665983 19.350127 8.15625 19.5 C 8.3309235 19.207994 8.6352229 19 9 19 C 9.3647771 19 9.6690765 19.207994 9.84375 19.5 C 9.9334017 19.350127 10 19.187223 10 19 C 10 18.448 9.552 18 9 18 z "
       id="path2885" />
    <path
       style="fill:#ffffff;fill-opacity:1;stroke:none;display:inline;opacity:0.3"
       d="M 3.5 3 C 3.223 3 3 3.2230001 3 3.5 L 3 4.5 C 3 4.2230001 3.223 4 3.5 4 L 10.5 4 C 10.777 4.0000001 11 4.223 11 4.5 L 11 3.5 C 11 3.223 10.777 3.0000001 10.5 3 L 3.5 3 z M 14 9.03125 L 14 10.03125 L 19 10.03125 L 19 9.03125 L 14 9.03125 z M 14 12.03125 L 14 13.03125 L 19 13.03125 L 19 12.03125 L 14 12.03125 z M 1 13.5 L 1 14.5 C 1 15.331 1.669 16 2.5 16 L 11.5 16 C 12.331 16 13 15.331 13 14.5 L 13 13.5 C 13 14.331 12.331 15 11.5 15 L 2.5 15 C 1.669 15 1 14.331 1 13.5 z M 12 17 L 16.5 22 L 21 17 L 20.09375 17 L 16.5 21 L 12.90625 17 L 12 17 z M 2.15625 19.5 C 2.0665983 19.649873 2 19.812777 2 20 C 2 20.552 2.4480001 21 3 21 C 3.552 21 4.0000001 20.552 4 20 C 4 19.812777 3.9334017 19.649873 3.84375 19.5 C 3.6690765 19.792006 3.3647771 20 3 20 C 2.635223 20 2.3309235 19.792006 2.15625 19.5 z M 5.15625 19.5 C 5.0665983 19.649873 5 19.812777 5 20 C 5 20.552 5.4480001 21 6 21 C 6.552 21 7.0000001 20.552 7 20 C 7 19.812777 6.9334017 19.649873 6.84375 19.5 C 6.6690765 19.792006 6.3647771 20 6 20 C 5.635223 20 5.3309235 19.792006 5.15625 19.5 z M 8.15625 19.5 C 8.0665983 19.649873 8 19.812777 8 20 C 8 20.552 8.4480001 21 9 21 C 9.552 21 10 20.552 10 20 C 10 19.812777 9.9334017 19.649873 9.84375 19.5 C 9.6690765 19.792006 9.3647771 20 9 20 C 8.635223 20 8.3309235 19.792006 8.15625 19.5 z "
       id="path3678" />
  </g>
</svg>
