<?xml version="1.0" encoding="UTF-8" standalone="no"?>
<!-- Created with Inkscape (http://www.inkscape.org/) -->

<svg
   xmlns:dc="http://purl.org/dc/elements/1.1/"
   xmlns:cc="http://creativecommons.org/ns#"
   xmlns:rdf="http://www.w3.org/1999/02/22-rdf-syntax-ns#"
   xmlns:svg="http://www.w3.org/2000/svg"
   xmlns="http://www.w3.org/2000/svg"
   xmlns:xlink="http://www.w3.org/1999/xlink"
   xmlns:sodipodi="http://sodipodi.sourceforge.net/DTD/sodipodi-0.dtd"
   xmlns:inkscape="http://www.inkscape.org/namespaces/inkscape"
   width="22"
   height="22"
   id="svg2"
   sodipodi:version="0.32"
   inkscape:version="0.48.0 r9654"
   version="1.0"
   sodipodi:docname="document-save.svg"
   inkscape:output_extension="org.inkscape.output.svg.inkscape"
   inkscape:export-filename="/home/matt/.icons/Sirocco/scalable/mimetypes/text-plain.png"
   inkscape:export-xdpi="90"
   inkscape:export-ydpi="90"
   sodipodi:modified="true"
   style="display:inline">
  <sodipodi:namedview
     id="base"
     pagecolor="#ffffff"
     bordercolor="#666666"
     borderopacity="1.0"
     inkscape:pageopacity="0.0"
     inkscape:pageshadow="2"
     inkscape:zoom="16.491346"
     inkscape:cx="-7.5049688"
     inkscape:cy="2.2246299"
     inkscape:document-units="px"
     inkscape:current-layer="layer1"
     width="128px"
     height="128px"
     inkscape:showpageshadow="false"
     inkscape:window-width="1920"
     inkscape:window-height="1029"
     inkscape:window-x="0"
     inkscape:window-y="25"
     showguides="true"
     inkscape:guide-bbox="true"
     showgrid="true"
     inkscape:window-maximized="1">
    <sodipodi:guide
       id="guide2226"
       position="32.637397,117.99844"
       orientation="horizontal" />
    <sodipodi:guide
       id="guide2230"
       position="110,57.402344"
       orientation="vertical" />
    <sodipodi:guide
       id="guide2232"
       position="33.760911"
       orientation="horizontal" />
    <sodipodi:guide
       id="guide2231"
       position="46.774696"
       orientation="horizontal" />
    <inkscape:grid
       enabled="true"
       visible="true"
       id="grid3231"
       type="xygrid" />
    <sodipodi:guide
       orientation="1,0"
       position="100,67.625"
       id="guide2713" />
  </sodipodi:namedview>
  <defs
     id="defs4">
    <inkscape:perspective
       sodipodi:type="inkscape:persp3d"
       inkscape:vp_x="0 : 11 : 1"
       inkscape:vp_y="0 : 1000 : 0"
       inkscape:vp_z="22 : 11 : 1"
       inkscape:persp3d-origin="11 : 7.3333333 : 1"
       id="perspective19" />
    <linearGradient
       id="StandardGradient"
       gradientTransform="scale(0.9219544,1.0846523)"
       x1="11.998966"
       y1="0.92195445"
       x2="11.998966"
       y2="19.387045"
       gradientUnits="userSpaceOnUse">
      <stop
         style="stop-color:#000000;stop-opacity:0.86274511;"
         offset="0"
         id="stop3283" />
      <stop
         style="stop-color:#000000;stop-opacity:0.47058824;"
         offset="1"
         id="stop2651" />
    </linearGradient>
    <linearGradient
       inkscape:collect="always"
       xlink:href="#StandardGradient"
       id="linearGradient2549"
       gradientUnits="userSpaceOnUse"
       gradientTransform="matrix(0.9247229,0,0,1.0872097,-3.0600562,-1.0023578)"
       x1="11.998966"
       y1="0.92195445"
       x2="11.998966"
       y2="17.478098" />
    <linearGradient
       inkscape:collect="always"
       xlink:href="#StandardGradient"
       id="linearGradient2407"
       gradientUnits="userSpaceOnUse"
       gradientTransform="matrix(0.9247229,0,0,1.0872097,-6.0600562,-1.0023578)"
       x1="11.998966"
       y1="0.92195445"
       x2="11.998966"
       y2="17.478098" />
    <linearGradient
       inkscape:collect="always"
       xlink:href="#StandardGradient"
       id="linearGradient2410"
       gradientUnits="userSpaceOnUse"
       gradientTransform="matrix(0.9247229,0,0,1.0872097,-7.0600562,-1.0023578)"
       x1="11.998966"
       y1="1.8417401"
       x2="11.998966"
       y2="20.238579" />
    <inkscape:perspective
       id="perspective2850"
       inkscape:persp3d-origin="0.5 : 0.33333333 : 1"
       inkscape:vp_z="1 : 0.5 : 1"
       inkscape:vp_y="0 : 1000 : 0"
       inkscape:vp_x="0 : 0.5 : 1"
       sodipodi:type="inkscape:persp3d" />
    <linearGradient
       inkscape:collect="always"
       xlink:href="#StandardGradient"
       id="linearGradient3630"
       gradientUnits="userSpaceOnUse"
       gradientTransform="matrix(0.9247229,0,0,1.0872097,-37.060056,-1.0023578)"
       x1="11.998966"
       y1="1.8417401"
       x2="11.998966"
       y2="20.238579" />
    <clipPath
       clipPathUnits="userSpaceOnUse"
       id="clipPath3637">
      <path
         style="fill:#ff00ff;fill-opacity:1;stroke:none;display:inline"
         d="m -30,0 0,22 22,0 0,-22 -22,0 z m 2.5,1 9,0 c 0.831,0 1.5,0.6690001 1.5,1.5 l 0,11 c 0,0.831 -0.669,1.5 -1.5,1.5 l -9,0 c -0.831,0 -1.5,-0.669 -1.5,-1.5 l 0,-11 c 0,-0.831 0.669,-1.50000001 1.5,-1.5 z m 1,2 C -26.777,3 -27,3.2230001 -27,3.5 l 0,9 c 0,0.277 0.223,0.5 0.5,0.5 l 7,0 c 0.277,0 0.5,-0.223 0.5,-0.5 l 0,-9 C -19,3.223 -19.223,3.0000001 -19.5,3 l -7,0 z m 10.5,5.03125 5,0 0,1 -5,0 0,-1 z m 0,2 5,0 0,2 -5,0 0,-2 z m 0,3 5,0 0,2.96875 2,0 -4.5,5 -4.5,-5 2,0 0,-2.96875 z"
         id="path3639" />
    </clipPath>
    <filter
       inkscape:collect="always"
       id="filter3641">
      <feGaussianBlur
         inkscape:collect="always"
         stdDeviation="0.6"
         id="feGaussianBlur3643" />
    </filter>
    <linearGradient
       inkscape:collect="always"
       xlink:href="#StandardGradient"
       id="linearGradient3957"
       gradientUnits="userSpaceOnUse"
       gradientTransform="matrix(0.9247229,0,0,1.0872097,-7.0600562,-1.0023578)"
       x1="11.998966"
       y1="1.8417401"
       x2="11.998966"
       y2="20.238579" />
    <linearGradient
       inkscape:collect="always"
       xlink:href="#StandardGradient"
       id="linearGradient3961"
       gradientUnits="userSpaceOnUse"
       gradientTransform="matrix(0.9247229,0,0,1.0872097,-7.0600562,-1.0023578)"
       x1="11.998966"
       y1="1.8417401"
       x2="11.998966"
       y2="20.238579" />
  </defs>
  <metadata
     id="metadata7">
    <rdf:RDF>
      <cc:Work
         rdf:about="">
        <dc:format>image/svg+xml</dc:format>
        <dc:type
           rdf:resource="http://purl.org/dc/dcmitype/StillImage" />
      </cc:Work>
    </rdf:RDF>
  </metadata>
  <g
     style="display:inline"
     inkscape:label="Calque 1"
     id="layer1"
     inkscape:groupmode="layer">
    <path
       style="fill:#ffffff;fill-opacity:1;stroke:none;display:inline;opacity:0.15"
       d="M 2.5 0 C 1.1322622 -1.6458939e-08 0 1.1322622 0 2.5 L 0 13.5 C 0 14.867738 1.1322622 16 2.5 16 L 11 16 A 1.0001653 1.0001653 0 0 0 11.25 16.65625 L 15.75 21.65625 A 1.0001653 1.0001653 0 0 0 17.25 21.65625 L 21.75 16.65625 A 1.0001653 1.0001653 0 0 0 21 15 L 20 15 L 20 13.03125 A 1.0001653 1.0001653 0 0 0 19.875 12.5625 A 1.0001653 1.0001653 0 0 0 19.875 12.53125 A 1.0001653 1.0001653 0 0 0 20 12.03125 L 20 10.03125 A 1.0001653 1.0001653 0 0 0 19.875 9.5625 A 1.0001653 1.0001653 0 0 0 19.875 9.53125 A 1.0001653 1.0001653 0 0 0 20 9.03125 L 20 8.03125 A 1.0001653 1.0001653 0 0 0 19 7.03125 L 14 7.03125 L 14 2.5 C 14 1.1322622 12.867738 0 11.5 0 L 2.5 0 z M 2.5 1 L 11.5 1 C 12.331 1 13 1.6690001 13 2.5 L 13 13.5 C 13 14.331 12.331 15 11.5 15 L 2.5 15 C 1.669 15 1 14.331 1 13.5 L 1 2.5 C 1 1.669 1.669 0.99999999 2.5 1 z M 3.5 3 C 3.223 3 3 3.2230001 3 3.5 L 3 12.5 C 3 12.777 3.223 13 3.5 13 L 10.5 13 C 10.777 13 11 12.777 11 12.5 L 11 3.5 C 11 3.223 10.777 3.0000001 10.5 3 L 3.5 3 z M 4 4 L 10 4 L 10 12 L 4 12 L 4 4 z M 14 8.03125 L 19 8.03125 L 19 9.03125 L 14 9.03125 L 14 8.03125 z M 14 10.03125 L 19 10.03125 L 19 12.03125 L 14 12.03125 L 14 10.03125 z M 14 13.03125 L 19 13.03125 L 19 16 L 21 16 L 16.5 21 L 12 16 L 14 16 L 14 13.03125 z "
       id="path3959" />
    <path
       style="fill:url(#linearGradient2410);fill-opacity:1;stroke:none;stroke-width:1.00000024000000010;stroke-linecap:round;stroke-linejoin:miter;stroke-miterlimit:4;stroke-dasharray:none;stroke-opacity:1;display:inline"
       d="M 2.5,1 C 1.669,0.99999999 1,1.669 1,2.5 L 1,13.5 C 1,14.331 1.669,15 2.5,15 L 11.5,15 C 12.331,15 13,14.331 13,13.5 L 13,2.5 C 13,1.6690001 12.331,1 11.5,1 L 2.5,1 z M 3.5,3 L 10.5,3 C 10.777,3.0000001 11,3.223 11,3.5 L 11,12.5 C 11,12.777 10.777,13 10.5,13 L 3.5,13 C 3.223,13 3,12.777 3,12.5 L 3,3.5 C 3,3.2230001 3.223,3 3.5,3 z M 14,8.03125 L 14,9.03125 L 19,9.03125 L 19,8.03125 L 14,8.03125 z M 14,10.03125 L 14,12.03125 L 19,12.03125 L 19,10.03125 L 14,10.03125 z M 14,13.03125 L 14,16 L 12,16 L 16.486136,21 L 21,16 L 19,16 L 19,13.03125 L 14,13.03125 z"
       id="Symbol"
       sodipodi:nodetypes="cccccccccccccccccccccccccccccccccccc" />
    <path
       style="opacity:0.5;fill:#000000;fill-opacity:1;stroke:none;stroke-width:1.00000024;stroke-linecap:round;stroke-linejoin:miter;stroke-miterlimit:4;stroke-dasharray:none;stroke-opacity:1;display:inline"
       d="M 2.5,1 C 1.669,0.99999999 1,1.669 1,2.5 L 1,3.5 C 1,2.669 1.669,2 2.5,2 L 11.5,2 C 12.331,2 13,2.6690001 13,3.5 L 13,2.5 C 13,1.6690001 12.331,1 11.5,1 L 2.5,1 z M 14,8.03125 L 14,9.03125 L 19,9.03125 L 19,8.03125 L 14,8.03125 z M 14,10.03125 L 14,11.03125 L 19,11.03125 L 19,10.03125 L 14,10.03125 z M 3,12.5 L 3,13.5 C 3,13.777 3.223,14 3.5,14 L 10.5,14 C 10.777,14 11,13.777 11,13.5 L 11,12.5 C 11,12.777 10.777,13 10.5,13 L 3.5,13 C 3.223,13 3,12.777 3,12.5 z M 14,13.03125 L 14,14.03125 L 19,14.03125 L 19,13.03125 L 14,13.03125 z M 12,16 L 12.90625,17 L 14,17 L 14,16 L 12,16 z M 19,16 L 19,17 L 20.09375,17 L 21,16 L 19,16 z"
       id="BevelShadow"
       sodipodi:nodetypes="ccccccccccccccccccccccccccccccccccccccccccc" />
    <path
       style="opacity:0.3;fill:#ffffff;fill-opacity:1;stroke:none;stroke-width:1.00000024000000010;stroke-linecap:round;stroke-linejoin:miter;stroke-miterlimit:4;stroke-dasharray:none;stroke-opacity:1;display:inline"
       d="M 3.5,3 C 3.223,3 3,3.2230001 3,3.5 L 3,4.5 C 3,4.2230001 3.223,4 3.5,4 L 10.5,4 C 10.777,4.0000001 11,4.223 11,4.5 L 11,3.5 C 11,3.223 10.777,3.0000001 10.5,3 L 3.5,3 z M 14,9.03125 L 14,10.03125 L 19,10.03125 L 19,9.03125 L 14,9.03125 z M 14,12.03125 L 14,13.03125 L 19,13.03125 L 19,12.03125 L 14,12.03125 z M 1,13.5 L 1,14.5 C 1,15.331 1.669,16 2.5,16 L 11.5,16 C 12.331,16 13,15.331 13,14.5 L 13,13.5 C 13,14.331 12.331,15 11.5,15 L 2.5,15 C 1.669,15 1,14.331 1,13.5 z M 12,16 L 12,17 L 16.5,22 L 21,17 L 21,16 L 16.5,21 L 12,16 z"
       id="BevelHighlight"
       sodipodi:nodetypes="ccccccccccccccccccccccccccccccccccc" />
  </g>
</svg>
