<?xml version="1.0" encoding="UTF-8" standalone="no"?>
<!-- Created with Inkscape (http://www.inkscape.org/) -->

<svg
   xmlns:dc="http://purl.org/dc/elements/1.1/"
   xmlns:cc="http://creativecommons.org/ns#"
   xmlns:rdf="http://www.w3.org/1999/02/22-rdf-syntax-ns#"
   xmlns:svg="http://www.w3.org/2000/svg"
   xmlns="http://www.w3.org/2000/svg"
   xmlns:xlink="http://www.w3.org/1999/xlink"
   xmlns:sodipodi="http://sodipodi.sourceforge.net/DTD/sodipodi-0.dtd"
   xmlns:inkscape="http://www.inkscape.org/namespaces/inkscape"
   width="22"
   height="22"
   id="svg2"
   sodipodi:version="0.32"
   inkscape:version="0.48.0 r9654"
   version="1.0"
   sodipodi:docname="edit-copy.svg"
   inkscape:output_extension="org.inkscape.output.svg.inkscape"
   inkscape:export-filename="/home/matt/.icons/Sirocco/scalable/mimetypes/text-plain.png"
   inkscape:export-xdpi="90"
   inkscape:export-ydpi="90"
   sodipodi:modified="true"
   style="display:inline">
  <sodipodi:namedview
     id="base"
     pagecolor="#ffffff"
     bordercolor="#666666"
     borderopacity="1.0"
     inkscape:pageopacity="0.0"
     inkscape:pageshadow="2"
     inkscape:zoom="11.69599"
     inkscape:cx="-14.683724"
     inkscape:cy="5.736997"
     inkscape:document-units="px"
     inkscape:current-layer="layer1"
     width="128px"
     height="128px"
     inkscape:showpageshadow="false"
     inkscape:window-width="1920"
     inkscape:window-height="1029"
     inkscape:window-x="0"
     inkscape:window-y="25"
     showguides="true"
     inkscape:guide-bbox="true"
     showgrid="true"
     inkscape:window-maximized="1">
    <sodipodi:guide
       id="guide2226"
       position="32.637397,117.99844"
       orientation="horizontal" />
    <sodipodi:guide
       id="guide2230"
       position="110,57.402344"
       orientation="vertical" />
    <sodipodi:guide
       id="guide2232"
       position="33.760911"
       orientation="horizontal" />
    <sodipodi:guide
       id="guide2231"
       position="46.774696"
       orientation="horizontal" />
    <inkscape:grid
       enabled="true"
       visible="true"
       id="grid3231"
       type="xygrid" />
    <sodipodi:guide
       orientation="1,0"
       position="100,67.625"
       id="guide2713" />
  </sodipodi:namedview>
  <defs
     id="defs4">
    <inkscape:perspective
       sodipodi:type="inkscape:persp3d"
       inkscape:vp_x="0 : 11 : 1"
       inkscape:vp_y="0 : 1000 : 0"
       inkscape:vp_z="22 : 11 : 1"
       inkscape:persp3d-origin="11 : 7.3333333 : 1"
       id="perspective19" />
    <linearGradient
       id="StandardGradient"
       gradientTransform="scale(0.9219544,1.0846523)"
       x1="11.998966"
       y1="0.92195445"
       x2="11.998966"
       y2="19.387045"
       gradientUnits="userSpaceOnUse">
      <stop
         style="stop-color:#000000;stop-opacity:0.86274511;"
         offset="0"
         id="stop3283" />
      <stop
         style="stop-color:#000000;stop-opacity:0.47058824;"
         offset="1"
         id="stop2651" />
    </linearGradient>
    <linearGradient
       inkscape:collect="always"
       xlink:href="#StandardGradient"
       id="linearGradient2549"
       gradientUnits="userSpaceOnUse"
       gradientTransform="matrix(0.9247229,0,0,1.0872097,-2.0600562,0.9976422)"
       x1="11.998966"
       y1="0.92195445"
       x2="11.998966"
       y2="17.478098" />
    <inkscape:perspective
       id="perspective2850"
       inkscape:persp3d-origin="0.5 : 0.33333333 : 1"
       inkscape:vp_z="1 : 0.5 : 1"
       inkscape:vp_y="0 : 1000 : 0"
       inkscape:vp_x="0 : 0.5 : 1"
       sodipodi:type="inkscape:persp3d" />
    <linearGradient
       inkscape:collect="always"
       xlink:href="#StandardGradient"
       id="linearGradient3628"
       gradientUnits="userSpaceOnUse"
       gradientTransform="matrix(0.9247229,0,0,1.0872097,-32.060056,0.9976422)"
       x1="11.998966"
       y1="0.92195445"
       x2="11.998966"
       y2="17.478098" />
    <linearGradient
       inkscape:collect="always"
       xlink:href="#StandardGradient"
       id="linearGradient3639"
       gradientUnits="userSpaceOnUse"
       gradientTransform="matrix(0.9247229,0,0,1.0872097,-32.060056,20.997642)"
       x1="11.998966"
       y1="0.92195445"
       x2="11.998966"
       y2="17.478098" />
    <clipPath
       clipPathUnits="userSpaceOnUse"
       id="clipPath3642">
      <path
         style="fill:#ff00ff;fill-opacity:1;stroke:none;display:inline"
         d="m -30,0 0,22 22,0 0,-22 -22,0 z m 7.5,2 9,0 c 0.831,0 1.5,0.669 1.5,1.5 l 0,12 c 0,0.831 -0.669,1.5 -1.5,1.5 l -9,0 c -0.831,0 -1.5,-0.669 -1.5,-1.5 l 0,-12 C -24,2.669 -23.331,2 -22.5,2 z m 1,2 C -21.777,4 -22,4.223 -22,4.5 l 0,10 c 0,0.277 0.223,0.5 0.5,0.5 l 7,0 c 0.277,0 0.5,-0.223 0.5,-0.5 l 0,-10 C -14,4.223 -14.223,4 -14.5,4 l -7,0 z m -4,1 0.5,0 0,2.5 0,10 c 0,0.277 0.223,0.5 0.5,0.5 l 7,0 2.5,0 0,0.5 c 0,0.831 -0.669,1.5 -1.5,1.5 l -9,0 c -0.831,0 -1.5,-0.669 -1.5,-1.5 l 0,-12 C -27,5.669 -26.331,5 -25.5,5 z"
         id="path3644" />
    </clipPath>
    <filter
       inkscape:collect="always"
       id="filter3646">
      <feGaussianBlur
         inkscape:collect="always"
         stdDeviation="0.495"
         id="feGaussianBlur3648" />
    </filter>
    <linearGradient
       inkscape:collect="always"
       xlink:href="#StandardGradient"
       id="linearGradient4459"
       gradientUnits="userSpaceOnUse"
       gradientTransform="matrix(0.9247229,0,0,1.0872097,-2.0600562,0.9976422)"
       x1="11.998966"
       y1="0.92195445"
       x2="11.998966"
       y2="17.478098" />
    <linearGradient
       inkscape:collect="always"
       xlink:href="#StandardGradient"
       id="linearGradient4463"
       gradientUnits="userSpaceOnUse"
       gradientTransform="matrix(0.9247229,0,0,1.0872097,-2.0600562,0.9976422)"
       x1="11.998966"
       y1="0.92195445"
       x2="11.998966"
       y2="17.478098" />
  </defs>
  <metadata
     id="metadata7">
    <rdf:RDF>
      <cc:Work
         rdf:about="">
        <dc:format>image/svg+xml</dc:format>
        <dc:type
           rdf:resource="http://purl.org/dc/dcmitype/StillImage" />
      </cc:Work>
    </rdf:RDF>
  </metadata>
  <g
     style="display:inline"
     inkscape:label="Calque 1"
     id="layer1"
     inkscape:groupmode="layer">
    <path
       style="fill:#ffffff;fill-opacity:1;stroke:none;display:inline;opacity:0.15"
       d="M 7.5 0.96875 C 6.1148958 0.96875 4.96875 2.1148958 4.96875 3.5 L 4.96875 3.96875 L 4.5 3.96875 C 3.1148958 3.96875 1.96875 5.1148958 1.96875 6.5 L 1.96875 18.5 C 1.96875 19.885104 3.1148958 21.03125 4.5 21.03125 L 13.5 21.03125 C 14.885104 21.03125 16.03125 19.885104 16.03125 18.5 L 16.03125 18.03125 L 16.5 18.03125 C 17.885104 18.03125 19.03125 16.885104 19.03125 15.5 L 19.03125 3.5 C 19.03125 2.1148958 17.885104 0.96875 16.5 0.96875 L 7.5 0.96875 z M 7.5 2 L 16.5 2 C 17.331 2 18 2.669 18 3.5 L 18 15.5 C 18 16.331 17.331 17 16.5 17 L 7.5 17 C 6.669 17 6 16.331 6 15.5 L 6 3.5 C 6 2.669 6.669 2 7.5 2 z M 8.5 4 C 8.223 4 8 4.223 8 4.5 L 8 14.5 C 8 14.777 8.223 15 8.5 15 L 15.5 15 C 15.777 15 16 14.777 16 14.5 L 16 4.5 C 16 4.223 15.777 4 15.5 4 L 8.5 4 z M 4.5 5 L 5 5 L 5 7.5 L 5 17.5 C 5 17.777 5.223 18 5.5 18 L 12.5 18 L 15 18 L 15 18.5 C 15 19.331 14.331 20 13.5 20 L 4.5 20 C 3.669 20 3 19.331 3 18.5 L 3 6.5 C 3 5.669 3.669 5 4.5 5 z M 9.03125 5.03125 L 14.96875 5.03125 L 14.96875 13.96875 L 9.03125 13.96875 L 9.03125 5.03125 z "
       id="path4461" />
    <path
       style="fill:url(#linearGradient2549);fill-opacity:1;stroke:none;stroke-width:1.00000024000000010;stroke-linecap:round;stroke-linejoin:miter;stroke-miterlimit:4;stroke-dasharray:none;stroke-opacity:1;display:inline"
       d="M 7.5,2 C 6.669,2 6,2.669 6,3.5 L 6,15.5 C 6,16.331 6.669,17 7.5,17 L 16.5,17 C 17.331,17 18,16.331 18,15.5 L 18,3.5 C 18,2.669 17.331,2 16.5,2 L 7.5,2 z M 8.5,4 L 15.5,4 C 15.777,4 16,4.223 16,4.5 L 16,14.5 C 16,14.777 15.777,15 15.5,15 L 8.5,15 C 8.223,15 8,14.777 8,14.5 L 8,4.5 C 8,4.223 8.223,4 8.5,4 z M 4.5,5 C 3.669,5 3,5.669 3,6.5 L 3,18.5 C 3,19.331 3.669,20 4.5,20 L 13.5,20 C 14.331,20 15,19.331 15,18.5 L 15,18 L 12.5,18 L 5.5,18 C 5.223,18 5,17.777 5,17.5 L 5,7.5 L 5,5 L 4.5,5 z"
       id="Symbol"
       sodipodi:nodetypes="ccccccccccccccccccccccccccccccc" />
    <path
       style="opacity:0.5;fill:#000000;fill-opacity:1;stroke:none;stroke-width:1.00000024;stroke-linecap:round;stroke-linejoin:miter;stroke-miterlimit:4;stroke-dasharray:none;stroke-opacity:1;display:inline"
       d="M 7.5,2 C 6.669,2 6,2.669 6,3.5 L 6,4.5 C 6,3.669 6.669,3 7.5,3 L 16.5,3 C 17.331,3 18,3.669 18,4.5 L 18,3.5 C 18,2.669 17.331,2 16.5,2 L 7.5,2 z M 4.5,5 C 3.669,5 3,5.669 3,6.5 L 3,7.5 C 3,6.669 3.669,6 4.5,6 L 5,6 L 5,5 L 4.5,5 z M 8,14.5 L 8,15.5 C 8,15.777 8.223,16 8.5,16 L 15.5,16 C 15.777,16 16,15.777 16,15.5 L 16,14.5 C 16,14.777 15.777,15 15.5,15 L 8.5,15 C 8.223,15 8,14.777 8,14.5 z M 5,17.5 L 5,18.5 C 5,18.777 5.223,19 5.5,19 L 12.5,19 L 14.90625,19 C 14.959738,18.845522 15,18.673125 15,18.5 L 15,18 L 12.5,18 L 7.5,18 L 5.5,18 C 5.223,18 5,17.777 5,17.5 z"
       id="BevelShadow"
       sodipodi:nodetypes="cccccccccccccccccccccccccccccccccccc" />
    <path
       style="opacity:0.3;fill:#ffffff;fill-opacity:1;stroke:none;stroke-width:1.00000024000000010;stroke-linecap:round;stroke-linejoin:miter;stroke-miterlimit:4;stroke-dasharray:none;stroke-opacity:1;display:inline"
       d="M 8.5,4 C 8.223,4 8,4.223 8,4.5 L 8,5.5 C 8,5.223 8.223,5 8.5,5 L 15.5,5 C 15.777,5 16,5.223 16,5.5 L 16,4.5 C 16,4.223 15.777,4 15.5,4 L 8.5,4 z M 6,15.5 L 6,16.5 C 6,17.331 6.669,18 7.5,18 L 12.5,18 L 15,18 L 16.5,18 C 17.331,18 18,17.331 18,16.5 L 18,15.5 C 18,16.331 17.331,17 16.5,17 L 7.5,17 C 6.669,17 6,16.331 6,15.5 z M 3,18.5 L 3,19.5 C 3,20.331 3.669,21 4.5,21 L 13.5,21 C 14.331,21 15,20.331 15,19.5 L 15,19 L 14.90625,19 C 14.702994,19.587017 14.157875,20 13.5,20 L 4.5,20 C 3.669,20 3,19.331 3,18.5 z"
       id="BevelHighlight"
       sodipodi:nodetypes="cccccccccccccccccccccccccccccc" />
  </g>
</svg>
