<?xml version="1.0" encoding="UTF-8" standalone="no"?>
<!-- Created with Inkscape (http://www.inkscape.org/) -->

<svg
   xmlns:dc="http://purl.org/dc/elements/1.1/"
   xmlns:cc="http://creativecommons.org/ns#"
   xmlns:rdf="http://www.w3.org/1999/02/22-rdf-syntax-ns#"
   xmlns:svg="http://www.w3.org/2000/svg"
   xmlns="http://www.w3.org/2000/svg"
   xmlns:xlink="http://www.w3.org/1999/xlink"
   xmlns:sodipodi="http://sodipodi.sourceforge.net/DTD/sodipodi-0.dtd"
   xmlns:inkscape="http://www.inkscape.org/namespaces/inkscape"
   width="22"
   height="22"
   id="svg2"
   sodipodi:version="0.32"
   inkscape:version="0.48.0 r9654"
   version="1.0"
   sodipodi:docname="edit-redo.svg"
   inkscape:output_extension="org.inkscape.output.svg.inkscape">
  <defs
     id="defs4">
    <inkscape:perspective
       sodipodi:type="inkscape:persp3d"
       inkscape:vp_x="0 : 11 : 1"
       inkscape:vp_y="0 : 1000 : 0"
       inkscape:vp_z="22 : 11 : 1"
       inkscape:persp3d-origin="11 : 7.3333333 : 1"
       id="perspective14" />
    <linearGradient
       id="StandardGradient"
       gradientTransform="scale(1.4416113,0.6936683)"
       x1="6.7846189"
       y1="10.091278"
       x2="6.7846189"
       y2="21.579315"
       gradientUnits="userSpaceOnUse">
      <stop
         style="stop-color:#000000;stop-opacity:0.86274511;"
         offset="0"
         id="stop3308" />
      <stop
         style="stop-color:#000000;stop-opacity:0.47058824;"
         offset="1"
         id="stop3310" />
    </linearGradient>
    <inkscape:perspective
       id="perspective2850"
       inkscape:persp3d-origin="0.5 : 0.33333333 : 1"
       inkscape:vp_z="1 : 0.5 : 1"
       inkscape:vp_y="0 : 1000 : 0"
       inkscape:vp_x="0 : 0.5 : 1"
       sodipodi:type="inkscape:persp3d" />
    <linearGradient
       inkscape:collect="always"
       xlink:href="#StandardGradient"
       id="linearGradient3623"
       gradientUnits="userSpaceOnUse"
       gradientTransform="matrix(1.4416113,0,0,0.6936683,-30,0)"
       x1="6.7846189"
       y1="10.091278"
       x2="6.7846189"
       y2="21.579315" />
    <clipPath
       clipPathUnits="userSpaceOnUse"
       id="clipPath3630">
      <rect
         y="0"
         x="-30"
         height="22"
         width="22"
         id="rect3632"
         style="fill:#ff00ff;fill-opacity:1;stroke:none;display:inline" />
    </clipPath>
    <clipPath
       clipPathUnits="userSpaceOnUse"
       id="clipPath3646">
      <path
         style="fill:#ff00ff;fill-opacity:1;stroke:none;display:inline"
         d="m -30,0 0,22 22,0 0,-22 -22,0 z m 19.46875,7.03125 -1.375,7.625 -1.9375,-1.90625 C -16.964899,15.714039 -21.943291,15.701889 -25,12.65625 -25.952169,11.707529 -26.601556,10.575839 -26.96875,9.375 L -23.875,8.5625 c 0.226868,0.658321 0.598028,1.256184 1.125,1.78125 1.816911,1.810331 4.76255,1.868094 6.625,0.125 l -2.03125,-2.03125 7.625,-1.40625 z"
         id="path3648" />
    </clipPath>
    <filter
       inkscape:collect="always"
       id="filter3650"
       x="-0.053322326"
       width="1.1066447"
       y="-0.11081674"
       height="1.2216335">
      <feGaussianBlur
         inkscape:collect="always"
         stdDeviation="0.36528031"
         id="feGaussianBlur3652" />
    </filter>
    <linearGradient
       inkscape:collect="always"
       xlink:href="#StandardGradient"
       id="linearGradient5008"
       gradientUnits="userSpaceOnUse"
       gradientTransform="scale(1.4416113,0.6936683)"
       x1="6.7846189"
       y1="10.091278"
       x2="6.7846189"
       y2="21.579315" />
    <linearGradient
       inkscape:collect="always"
       xlink:href="#StandardGradient"
       id="linearGradient5012"
       gradientUnits="userSpaceOnUse"
       gradientTransform="scale(1.4416113,0.6936683)"
       x1="6.7846189"
       y1="10.091278"
       x2="6.7846189"
       y2="21.579315" />
  </defs>
  <sodipodi:namedview
     id="base"
     pagecolor="#ffffff"
     bordercolor="#9a9a9a"
     borderopacity="1"
     inkscape:pageopacity="0.0"
     inkscape:pageshadow="2"
     inkscape:zoom="17.749579"
     inkscape:cx="-0.24780857"
     inkscape:cy="8.4007396"
     inkscape:document-units="px"
     inkscape:current-layer="layer3"
     showgrid="true"
     inkscape:showpageshadow="false"
     showguides="true"
     inkscape:guide-bbox="true"
     inkscape:window-width="1920"
     inkscape:window-height="1029"
     inkscape:window-x="0"
     inkscape:window-y="25"
     inkscape:window-maximized="1">
    <inkscape:grid
       type="xygrid"
       id="grid3672"
       visible="true"
       enabled="true" />
  </sodipodi:namedview>
  <metadata
     id="metadata7">
    <rdf:RDF>
      <cc:Work
         rdf:about="">
        <dc:format>image/svg+xml</dc:format>
        <dc:type
           rdf:resource="http://purl.org/dc/dcmitype/StillImage" />
      </cc:Work>
    </rdf:RDF>
  </metadata>
  <g
     inkscape:groupmode="layer"
     id="layer3"
     inkscape:label="Arrow"
     style="display:inline">
    <path
       style="fill:#ffffff;fill-opacity:1;stroke:none;opacity:0.15"
       d="M 19.4375 5.96875 A 1.0389505 1.0389505 0 0 0 19.28125 6 L 11.65625 7.40625 A 1.0389505 1.0389505 0 0 0 11.09375 9.1875 L 12.21875 10.3125 C 10.833756 10.97222 9.1191666 10.740001 7.96875 9.59375 C 7.548316 9.1748368 7.2700282 8.7302695 7.09375 8.21875 A 1.0389505 1.0389505 0 0 0 5.875 7.5625 L 2.78125 8.375 A 1.0389505 1.0389505 0 0 0 2.03125 9.6875 C 2.4452264 11.041332 3.203768 12.332671 4.28125 13.40625 C 7.480602 16.594016 12.471676 16.698716 16 14.0625 L 17.375 15.40625 A 1.0389505 1.0389505 0 0 0 19.125 14.84375 L 20.5 7.21875 A 1.0389505 1.0389505 0 0 0 19.4375 5.96875 z M 19.46875 7.03125 L 18.09375 14.65625 L 16.15625 12.75 C 13.035101 15.714044 8.0567083 15.701889 5 12.65625 C 4.0478303 11.707529 3.3984441 10.575839 3.03125 9.375 L 6.125 8.5625 C 6.3518685 9.220821 6.7230275 9.8186837 7.25 10.34375 C 9.0669105 12.154081 12.01255 12.211844 13.875 10.46875 L 11.84375 8.4375 L 19.46875 7.03125 z "
       id="path5010" />
    <path
       style="opacity:1;fill:url(#StandardGradient);fill-opacity:1;stroke:none;stroke-width:1.00000024000000010;stroke-linecap:round;stroke-linejoin:miter;stroke-miterlimit:4;stroke-dasharray:none;stroke-opacity:1"
       d="M 18.078697,14.650314 L 19.467608,7.0444937 L 11.834151,8.4283767 L 13.871222,10.458073 C 12.008772,12.201167 9.0806187,12.165074 7.2637082,10.354743 C 6.7367357,9.8296767 6.3572243,9.2121697 6.1303558,8.5538487 L 3.0266005,9.3804877 C 3.3937946,10.581327 4.0522416,11.716184 5.0044113,12.664905 C 8.0611196,15.710544 13.038998,15.702754 16.160147,12.73871 L 18.078697,14.650314 z"
       id="Symbol"
       inkscape:label="#path3268" />
    <path
       style="opacity:0.5;fill:#000000;fill-opacity:1;stroke:none;stroke-width:1.00000024000000010;stroke-linecap:round;stroke-linejoin:miter;stroke-miterlimit:4;stroke-dasharray:none;stroke-opacity:1"
       d="M 19.46875,7.03125 L 11.84375,8.4375 L 12.71875,9.3125 L 19.28125,8.125 L 19.46875,7.03125 z M 6.125,8.5625 L 3.03125,9.375 C 3.1297969,9.6972794 3.2344492,10.033298 3.375,10.34375 L 6.125,9.59375 C 6.3518685,10.252071 6.7230276,10.881184 7.25,11.40625 C 9.0608541,13.210547 11.980335,13.225525 13.84375,11.5 L 13.84375,11.46875 L 13.875,10.46875 L 13.28125,10.90625 C 11.431942,12.162484 8.8882476,11.976065 7.25,10.34375 C 6.7230276,9.8186837 6.3518685,9.220821 6.125,8.5625 z"
       id="BevelShadow"
       sodipodi:nodetypes="cccccccccsccccsc"
       inkscape:label="#path3166" />
    <path
       style="opacity:0.3;fill:#ffffff;fill-opacity:1;stroke:none;stroke-width:1.00000024000000010;stroke-linecap:round;stroke-linejoin:miter;stroke-miterlimit:4;stroke-dasharray:none;stroke-opacity:1"
       d="M 19.46875 7.03125 L 18.09375 14.65625 L 16.15625 12.75 C 13.035101 15.714044 8.0567084 15.701889 5 12.65625 C 4.0478303 11.707529 3.398444 10.57584 3.03125 9.375 L 3.03125 10.4375 C 3.398444 11.638339 4.0478303 12.770029 5 13.71875 C 8.0567084 16.764389 13.035101 16.745294 16.15625 13.78125 L 18.09375 15.6875 L 19.46875 8.09375 L 19.46875 7.03125 z M 11.84375 8.4375 L 11.84375 9.46875 L 13.28125 10.90625 C 13.48293 10.769249 13.691859 10.640154 13.875 10.46875 L 11.84375 8.4375 z M 13.28125 10.90625 C 13.050086 11.063279 12.812238 11.20056 12.5625 11.3125 C 12.813352 11.200361 13.049068 11.063971 13.28125 10.90625 z M 12.5625 11.3125 C 12.312762 11.42444 12.043314 11.495662 11.78125 11.5625 C 12.04659 11.495767 12.309683 11.425517 12.5625 11.3125 z M 11.78125 11.5625 C 11.571599 11.61597 11.37019 11.662902 11.15625 11.6875 C 11.36871 11.663628 11.572951 11.614887 11.78125 11.5625 z M 9.40625 11.5625 C 9.6425866 11.624886 9.8831465 11.662008 10.125 11.6875 C 9.879983 11.662581 9.6456638 11.625244 9.40625 11.5625 z M 10.25 11.71875 C 10.448041 11.734404 10.645349 11.727743 10.84375 11.71875 C 10.647471 11.728284 10.445994 11.733316 10.25 11.71875 z "
       id="BevelHighlight"
       inkscape:label="#path3176" />
  </g>
</svg>
