<?xml version="1.0" encoding="UTF-8" standalone="no"?>
<!-- Created with Inkscape (http://www.inkscape.org/) -->

<svg
   xmlns:dc="http://purl.org/dc/elements/1.1/"
   xmlns:cc="http://creativecommons.org/ns#"
   xmlns:rdf="http://www.w3.org/1999/02/22-rdf-syntax-ns#"
   xmlns:svg="http://www.w3.org/2000/svg"
   xmlns="http://www.w3.org/2000/svg"
   xmlns:xlink="http://www.w3.org/1999/xlink"
   xmlns:sodipodi="http://sodipodi.sourceforge.net/DTD/sodipodi-0.dtd"
   xmlns:inkscape="http://www.inkscape.org/namespaces/inkscape"
   width="22"
   height="22"
   id="svg2"
   sodipodi:version="0.32"
   inkscape:version="0.48.0 r9654"
   version="1.0"
   sodipodi:docname="edit-undo.svg"
   inkscape:output_extension="org.inkscape.output.svg.inkscape">
  <defs
     id="defs4">
    <inkscape:perspective
       sodipodi:type="inkscape:persp3d"
       inkscape:vp_x="0 : 11 : 1"
       inkscape:vp_y="0 : 1000 : 0"
       inkscape:vp_z="22 : 11 : 1"
       inkscape:persp3d-origin="11 : 7.3333333 : 1"
       id="perspective14" />
    <linearGradient
       id="StandardGradient"
       gradientTransform="scale(1.4416112,0.6936683)"
       x1="7.3275266"
       y1="10.214792"
       x2="7.3275266"
       y2="21.635782"
       gradientUnits="userSpaceOnUse">
      <stop
         style="stop-color:#000000;stop-opacity:0.86274511;"
         offset="0"
         id="stop3308" />
      <stop
         style="stop-color:#000000;stop-opacity:0.47058824;"
         offset="1"
         id="stop3310" />
    </linearGradient>
    <inkscape:perspective
       id="perspective2850"
       inkscape:persp3d-origin="0.5 : 0.33333333 : 1"
       inkscape:vp_z="1 : 0.5 : 1"
       inkscape:vp_y="0 : 1000 : 0"
       inkscape:vp_x="0 : 0.5 : 1"
       sodipodi:type="inkscape:persp3d" />
    <linearGradient
       inkscape:collect="always"
       xlink:href="#StandardGradient"
       id="linearGradient3623"
       gradientUnits="userSpaceOnUse"
       gradientTransform="matrix(1.4416112,0,0,0.6936683,-30,0)"
       x1="7.3275266"
       y1="10.214792"
       x2="7.3275266"
       y2="21.635782" />
    <clipPath
       clipPathUnits="userSpaceOnUse"
       id="clipPath3630">
      <path
         style="fill:#ff00ff;fill-opacity:1;stroke:none;display:inline"
         d="m -30,0 0,22 22,0 0,-22 -22,0 z m 11.90625,7.09375 c 2.016702,0.00825 4.034146,0.7584305 5.5625,2.28125 0.95217,0.948723 1.601556,2.080412 1.96875,3.28125 L -13.65625,13.5 c -0.226868,-0.658321 -0.629277,-1.287435 -1.15625,-1.8125 -1.81691,-1.8103335 -4.7313,-1.8368455 -6.59375,-0.09375 L -19.375,13.625 -27,15 l 1.375,-7.59375 1.9375,1.90625 c 1.560575,-1.482022 3.577048,-2.2270019 5.59375,-2.21875 z"
         id="path3632" />
    </clipPath>
    <filter
       inkscape:collect="always"
       id="filter3634"
       x="-0.053322326"
       width="1.1066447"
       y="-0.11081674"
       height="1.2216335">
      <feGaussianBlur
         inkscape:collect="always"
         stdDeviation="0.36528033"
         id="feGaussianBlur3636" />
    </filter>
    <linearGradient
       inkscape:collect="always"
       xlink:href="#StandardGradient"
       id="linearGradient4489"
       gradientUnits="userSpaceOnUse"
       gradientTransform="scale(1.4416112,0.6936683)"
       x1="7.3275266"
       y1="10.214792"
       x2="7.3275266"
       y2="21.635782" />
    <linearGradient
       inkscape:collect="always"
       xlink:href="#StandardGradient"
       id="linearGradient4493"
       gradientUnits="userSpaceOnUse"
       gradientTransform="scale(1.4416112,0.6936683)"
       x1="7.3275266"
       y1="10.214792"
       x2="7.3275266"
       y2="21.635782" />
  </defs>
  <sodipodi:namedview
     id="base"
     pagecolor="#ffffff"
     bordercolor="#9a9a9a"
     borderopacity="1"
     inkscape:pageopacity="0.0"
     inkscape:pageshadow="2"
     inkscape:zoom="12.625972"
     inkscape:cx="-16.288488"
     inkscape:cy="3.7849908"
     inkscape:document-units="px"
     inkscape:current-layer="layer3"
     showgrid="true"
     inkscape:showpageshadow="false"
     showguides="true"
     inkscape:guide-bbox="true"
     inkscape:window-width="1920"
     inkscape:window-height="1029"
     inkscape:window-x="0"
     inkscape:window-y="25"
     inkscape:window-maximized="1">
    <inkscape:grid
       type="xygrid"
       id="grid3672"
       visible="true"
       enabled="true" />
  </sodipodi:namedview>
  <metadata
     id="metadata7">
    <rdf:RDF>
      <cc:Work
         rdf:about="">
        <dc:format>image/svg+xml</dc:format>
        <dc:type
           rdf:resource="http://purl.org/dc/dcmitype/StillImage" />
      </cc:Work>
    </rdf:RDF>
  </metadata>
  <g
     inkscape:groupmode="layer"
     id="layer3"
     inkscape:label="Arrow"
     style="display:inline">
    <path
       style="fill:#ffffff;fill-opacity:1;stroke:none;display:inline;opacity:0.15"
       d="M 11.90625 6 C 9.9635363 5.9920508 8.0949398 6.7265214 6.46875 7.9375 L 5.15625 6.625 A 1.100201 1.100201 0 0 0 3.28125 7.21875 L 1.90625 14.8125 A 1.100201 1.100201 0 0 0 3.1875 16.09375 L 10.8125 14.71875 A 1.100201 1.100201 0 0 0 11.40625 12.84375 L 10.34375 11.78125 C 11.688966 11.158542 13.291449 11.357984 14.40625 12.46875 C 14.820346 12.881347 15.145849 13.360167 15.3125 13.84375 A 1.100201 1.100201 0 0 0 16.625 14.5625 L 19.71875 13.71875 A 1.100201 1.100201 0 0 0 20.5 12.34375 C 20.083266 10.9809 19.334869 9.6746917 18.25 8.59375 C 16.506722 6.8567852 14.192753 6.0093559 11.90625 6 z M 11.90625 7.09375 C 13.922952 7.1020019 15.940396 7.8521805 17.46875 9.375 C 18.42092 10.323723 19.070306 11.455412 19.4375 12.65625 L 16.34375 13.5 C 16.116882 12.841679 15.714473 12.212565 15.1875 11.6875 C 13.37059 9.8771665 10.4562 9.8506545 8.59375 11.59375 L 10.625 13.625 L 3 15 L 4.375 7.40625 L 6.3125 9.3125 C 7.8730745 7.830478 9.8895481 7.0854981 11.90625 7.09375 z "
       id="path4491" />
    <path
       style="opacity:1;fill:url(#StandardGradient);fill-opacity:1;stroke:none;stroke-width:1.00000024000000010;stroke-linecap:round;stroke-linejoin:miter;stroke-miterlimit:4;stroke-dasharray:none;stroke-opacity:1;display:inline"
       d="M 4.380762,7.3908715 L 2.991851,14.996692 L 10.625308,13.612809 L 8.588237,11.583114 C 10.450687,9.8400185 13.378841,9.8761105 15.195751,11.686444 C 15.722724,12.211509 16.102235,12.829016 16.329103,13.487337 L 19.432859,12.660698 C 19.065665,11.45986 18.407218,10.325003 17.455048,9.3762795 C 14.39834,6.3306405 9.420461,6.3384305 6.299312,9.3024745 L 4.380762,7.3908715 z"
       id="Symbol" />
    <path
       style="opacity:0.5;fill:#000000;fill-opacity:1;stroke:none;stroke-width:1.00000024000000010;stroke-linecap:round;stroke-linejoin:miter;stroke-miterlimit:4;stroke-dasharray:none;stroke-opacity:1;display:inline"
       d="M 11.90625 7.09375 C 9.8895481 7.0854982 7.8730745 7.830478 6.3125 9.3125 L 4.375 7.40625 L 3 15 L 3.1875 14.96875 L 4.375 8.40625 L 6.3125 10.3125 C 9.433649 7.3484565 14.412042 7.3293613 17.46875 10.375 C 18.175929 11.07962 18.709598 11.889259 19.09375 12.75 L 19.4375 12.65625 C 19.070306 11.455412 18.42092 10.323723 17.46875 9.375 C 15.940396 7.8521803 13.922952 7.1020018 11.90625 7.09375 z M 8.59375 11.59375 L 8.59375 12.59375 L 9.78125 13.78125 L 10.625 13.625 L 9.1875 12.1875 L 9.15625 12.15625 L 8.59375 11.59375 z "
       id="BevelShadow"
       inkscape:label="#path3178" />
    <path
       style="opacity:0.3;fill:#ffffff;fill-opacity:1;stroke:none;stroke-width:1.00000024000000010;stroke-linecap:round;stroke-linejoin:miter;stroke-miterlimit:4;stroke-dasharray:none;stroke-opacity:1;display:inline"
       d="M 18.125 10.125 C 18.527731 10.64214 18.837262 11.201081 19.09375 11.78125 C 18.838961 11.201675 18.526032 10.641546 18.125 10.125 z M 11.90625 10.3125 C 10.714291 10.295072 9.5249751 10.722202 8.59375 11.59375 L 9.15625 12.15625 C 11.007235 10.884639 13.543196 11.049148 15.1875 12.6875 C 15.714473 13.212565 16.116882 13.841679 16.34375 14.5 L 19.4375 13.65625 L 19.4375 12.65625 L 16.34375 13.5 C 16.116882 12.841679 15.714473 12.212565 15.1875 11.6875 C 14.279045 10.782333 13.098209 10.329928 11.90625 10.3125 z M 10.625 13.625 L 3 15 L 3 16 L 10.625 14.625 L 10.625 13.625 z "
       id="BevelHighlight"
       inkscape:label="#path3188" />
  </g>
</svg>
