<?xml version="1.0" encoding="UTF-8" standalone="no"?>
<!-- Created with Inkscape (http://www.inkscape.org/) -->

<svg
   xmlns:dc="http://purl.org/dc/elements/1.1/"
   xmlns:cc="http://creativecommons.org/ns#"
   xmlns:rdf="http://www.w3.org/1999/02/22-rdf-syntax-ns#"
   xmlns:svg="http://www.w3.org/2000/svg"
   xmlns="http://www.w3.org/2000/svg"
   xmlns:xlink="http://www.w3.org/1999/xlink"
   xmlns:sodipodi="http://sodipodi.sourceforge.net/DTD/sodipodi-0.dtd"
   xmlns:inkscape="http://www.inkscape.org/namespaces/inkscape"
   width="22"
   height="22"
   id="svg2"
   sodipodi:version="0.32"
   inkscape:version="0.48.0 r9654"
   version="1.0"
   sodipodi:docname="edit-find.svg"
   inkscape:output_extension="org.inkscape.output.svg.inkscape"
   inkscape:export-filename="/home/matt/.icons/Sirocco/scalable/mimetypes/text-plain.png"
   inkscape:export-xdpi="90"
   inkscape:export-ydpi="90"
   sodipodi:modified="true"
   style="display:inline">
  <sodipodi:namedview
     id="base"
     pagecolor="#ffffff"
     bordercolor="#666666"
     borderopacity="1.0"
     inkscape:pageopacity="0.0"
     inkscape:pageshadow="2"
     inkscape:zoom="17.194902"
     inkscape:cx="-8.7051032"
     inkscape:cy="4.3884925"
     inkscape:document-units="px"
     inkscape:current-layer="layer1"
     width="128px"
     height="128px"
     inkscape:showpageshadow="false"
     inkscape:window-width="1920"
     inkscape:window-height="1026"
     inkscape:window-x="0"
     inkscape:window-y="25"
     showguides="true"
     inkscape:guide-bbox="true"
     showgrid="true"
     inkscape:window-maximized="1">
    <sodipodi:guide
       id="guide2226"
       position="32.637397,117.99844"
       orientation="horizontal" />
    <sodipodi:guide
       id="guide2230"
       position="110,57.402344"
       orientation="vertical" />
    <sodipodi:guide
       id="guide2232"
       position="33.760911"
       orientation="horizontal" />
    <sodipodi:guide
       id="guide2231"
       position="46.774696"
       orientation="horizontal" />
    <inkscape:grid
       enabled="true"
       visible="true"
       id="grid3231"
       type="xygrid" />
    <sodipodi:guide
       orientation="1,0"
       position="100,67.625"
       id="guide2713" />
  </sodipodi:namedview>
  <defs
     id="defs4">
    <inkscape:perspective
       sodipodi:type="inkscape:persp3d"
       inkscape:vp_x="0 : 11 : 1"
       inkscape:vp_y="0 : 1000 : 0"
       inkscape:vp_z="22 : 11 : 1"
       inkscape:persp3d-origin="11 : 7.3333333 : 1"
       id="perspective19" />
    <linearGradient
       id="StandardGradient"
       gradientTransform="matrix(0.9984539,0,0,0.9984539,-4.5977599e-2,5.7675578e-2)"
       x1="10.710332"
       y1="1.9963325"
       x2="10.710332"
       y2="18.974037"
       gradientUnits="userSpaceOnUse">
      <stop
         style="stop-color:#000000;stop-opacity:0.86274511;"
         offset="0"
         id="stop3277" />
      <stop
         style="stop-color:#000000;stop-opacity:0.47058824;"
         offset="1"
         id="stop3279" />
    </linearGradient>
    <inkscape:perspective
       id="perspective3675"
       inkscape:persp3d-origin="0.5 : 0.33333333 : 1"
       inkscape:vp_z="1 : 0.5 : 1"
       inkscape:vp_y="0 : 1000 : 0"
       inkscape:vp_x="0 : 0.5 : 1"
       sodipodi:type="inkscape:persp3d" />
    <linearGradient
       inkscape:collect="always"
       xlink:href="#StandardGradient"
       id="linearGradient3627"
       gradientUnits="userSpaceOnUse"
       gradientTransform="matrix(0.9984539,0,0,0.9984539,-30.045978,0.05767558)"
       x1="10.710332"
       y1="1.9963325"
       x2="10.710332"
       y2="18.974037" />
    <clipPath
       clipPathUnits="userSpaceOnUse"
       id="clipPath3634">
      <path
         style="fill:#ff00ff;fill-opacity:1;stroke:none"
         d="m -30,0 0,22 22,0 0,-22 -22,0 z m 9,2 c 1.536279,0 3.078693,0.5829855 4.25,1.75 2.042235,2.0347517 2.299759,5.181761 0.78125,7.5 0.01984,0.394051 0.08665,1.024202 0.34375,1.25 0.350063,0.307445 1.153972,-0.120878 1.6875,0.46875 l 3.6875,3.71875 c 0,0 0.750914,0.690483 -0.3125,1.75 -1.063413,1.059517 -1.75,0.3125 -1.75,0.3125 L -16,15.03125 c -0.591796,-0.531572 -0.160173,-1.338719 -0.46875,-1.6875 -0.226629,-0.256157 -0.854501,-0.32398 -1.25,-0.34375 -2.326765,1.512945 -5.489015,1.253503 -7.53125,-0.78125 -2.342612,-2.3340289 -2.342612,-6.134721 0,-8.46875 C -24.078693,2.5829856 -22.536279,2 -21,2 z m 0.03125,2 c -1.104318,1e-7 -2.119541,0.4034447 -2.84375,1.125 -0.724209,0.7215553 -1.15625,1.7434783 -1.15625,2.84375 0,2.200545 1.791365,4.000001 4,4 2.208637,0 4,-1.799455 4,-4 0,-2.2005437 -1.791364,-3.9687501 -4,-3.96875 z"
         id="path3636" />
    </clipPath>
    <filter
       inkscape:collect="always"
       id="filter3644">
      <feGaussianBlur
         inkscape:collect="always"
         stdDeviation="0.51"
         id="feGaussianBlur3646" />
    </filter>
    <linearGradient
       inkscape:collect="always"
       xlink:href="#StandardGradient"
       id="linearGradient3015"
       gradientUnits="userSpaceOnUse"
       gradientTransform="matrix(0.9984539,0,0,0.9984539,-0.0459776,0.05767558)"
       x1="10.710332"
       y1="1.9963325"
       x2="10.710332"
       y2="18.974037" />
    <linearGradient
       inkscape:collect="always"
       xlink:href="#StandardGradient"
       id="linearGradient3019"
       gradientUnits="userSpaceOnUse"
       gradientTransform="matrix(0.9984539,0,0,0.9984539,-0.0459776,0.05767558)"
       x1="10.710332"
       y1="1.9963325"
       x2="10.710332"
       y2="18.974037" />
  </defs>
  <metadata
     id="metadata7">
    <rdf:RDF>
      <cc:Work
         rdf:about="">
        <dc:format>image/svg+xml</dc:format>
        <dc:type
           rdf:resource="http://purl.org/dc/dcmitype/StillImage" />
      </cc:Work>
    </rdf:RDF>
  </metadata>
  <g
     style="display:inline"
     inkscape:label="Calque 1"
     id="layer1"
     inkscape:groupmode="layer">
    <path
       style="fill:#ffffff;fill-opacity:1;stroke:none;opacity:0.15"
       d="M 9 1 C 7.2131706 1 5.4249354 1.7050568 4.0625 3.0625 C 1.3390742 5.7759471 1.3390744 10.192803 4.0625 12.90625 C 6.3177047 15.153193 9.7105224 15.509383 12.375 14.03125 C 12.472637 14.039632 12.568766 14.047643 12.65625 14.0625 C 12.65651 14.093604 12.655728 14.089905 12.65625 14.125 C 12.661757 14.495018 12.77194 15.210867 13.28125 15.71875 C 13.30331 15.740749 13.320072 15.759981 13.34375 15.78125 L 16.96875 19.40625 L 17 19.40625 C 17.018333 19.425644 17.387123 19.859455 18 19.96875 C 18.627533 20.080658 19.435356 19.812117 20.125 19.125 C 20.815478 18.437052 21.08165 17.628469 20.96875 17 C 20.862562 16.408892 20.483529 16.075739 20.4375 16.03125 L 20.46875 16 L 16.78125 12.3125 C 16.774675 12.305234 16.756646 12.319612 16.75 12.3125 C 16.238247 11.764914 15.536699 11.631173 15.15625 11.625 C 15.121215 11.624431 15.124805 11.625301 15.09375 11.625 C 15.080567 11.547002 15.070606 11.462557 15.0625 11.375 C 16.561575 8.7159423 16.199007 5.3157199 13.9375 3.0625 C 12.575064 1.7050572 10.78683 1 9 1 z M 9 2 C 10.536279 2 12.078693 2.5829855 13.25 3.75 C 15.292235 5.7847517 15.549759 8.931761 14.03125 11.25 C 14.051088 11.644051 14.1179 12.274202 14.375 12.5 C 14.725063 12.807445 15.528972 12.379122 16.0625 12.96875 L 19.75 16.6875 C 19.75 16.6875 20.500914 17.377983 19.4375 18.4375 C 18.374087 19.497017 17.6875 18.75 17.6875 18.75 L 14 15.03125 C 13.408204 14.499678 13.839827 13.692531 13.53125 13.34375 C 13.304621 13.087593 12.676749 13.019765 12.28125 13 C 9.9544849 14.512945 6.7922346 14.253503 4.75 12.21875 C 2.4073878 9.8847211 2.4073876 6.084029 4.75 3.75 C 5.9213063 2.5829856 7.4637215 2 9 2 z M 9.03125 4 C 7.926932 4.0000001 6.911709 4.4034447 6.1875 5.125 C 5.4632913 5.8465553 5.0312502 6.8684783 5.03125 7.96875 C 5.03125 10.169295 6.8226152 11.968751 9.03125 11.96875 C 11.239887 11.96875 13.03125 10.169295 13.03125 7.96875 C 13.03125 5.7682063 11.239886 3.9999999 9.03125 4 z M 9.03125 5 C 10.711299 4.9999999 12.03125 6.3056858 12.03125 7.96875 C 12.03125 9.6318161 10.701958 10.96875 9.03125 10.96875 C 7.3605449 10.968751 6.03125 9.6318155 6.03125 7.96875 C 6.0312502 7.1277368 6.3424882 6.3430608 6.875 5.8125 C 7.402134 5.2872975 8.1681433 5.0000001 9.03125 5 z "
       id="path3017" />
    <path
       style="opacity:1;fill:url(#StandardGradient);fill-opacity:1;stroke:none;stroke-width:1;stroke-linecap:butt;stroke-linejoin:round;stroke-miterlimit:4;stroke-dasharray:none;stroke-dashoffset:0;stroke-opacity:1"
       d="M 4.7569592,3.750522 C 2.4143468,6.084551 2.414347,9.8731201 4.7569592,12.207149 C 6.7991938,14.241902 9.9453689,14.512903 12.272134,12.999958 C 12.667633,13.019723 13.305401,13.074138 13.53203,13.330295 C 13.840607,13.679076 13.404407,14.494453 13.996203,15.026025 L 17.676753,18.755379 C 17.676753,18.755379 18.359513,19.484558 19.422926,18.425041 C 20.48634,17.365524 19.754479,16.685266 19.754479,16.685266 L 16.073928,12.955913 C 15.5404,12.366285 14.722025,12.800886 14.371962,12.493441 C 14.114862,12.267643 14.060248,11.632211 14.04041,11.23816 C 15.558919,8.919921 15.286921,5.7852737 13.244686,3.750522 C 10.902073,1.416493 7.0995717,1.4164931 4.7569592,3.750522 z M 6.1936836,5.1379373 C 6.9178926,4.416382 7.9186077,3.9927692 9.0229257,3.9927691 C 11.231562,3.992769 13.023651,5.7782916 13.023651,7.9788353 C 13.023651,10.17938 11.231563,11.964902 9.0229257,11.964902 C 6.8142909,11.964903 5.0222006,10.17938 5.0222006,7.9788353 C 5.0222008,6.8785636 5.4694749,5.8594926 6.1936836,5.1379373 z"
       id="Symbol"
       sodipodi:nodetypes="cscsccsccscsccssssc"
       inkscape:label="#path3766" />
    <path
       style="opacity:0.5;fill:#000000;fill-opacity:1;stroke:none;stroke-width:1;stroke-linecap:butt;stroke-linejoin:round;stroke-miterlimit:4;stroke-dasharray:none;stroke-dashoffset:0;stroke-opacity:1"
       d="M 9 2 C 7.4637215 2 5.9213063 2.5829855 4.75 3.75 C 3.4707038 5.0246088 2.9133039 6.7378564 3.03125 8.40625 C 3.1593616 7.0719032 3.725107 5.7711377 4.75 4.75 C 7.0926125 2.4159711 10.907387 2.4159711 13.25 4.75 C 14.310966 5.8070783 14.866175 7.1491537 14.96875 8.53125 C 15.129011 6.8187203 14.56655 5.0617263 13.25 3.75 C 12.078693 2.5829856 10.536278 2 9 2 z M 5.0625 8.46875 C 5.040358 8.6395203 5.03125 8.7929514 5.03125 8.96875 C 5.03125 11.169295 6.8226155 12.968751 9.03125 12.96875 C 11.239887 12.96875 13.03125 11.169295 13.03125 8.96875 C 13.03125 8.7926024 12.99101 8.6388761 12.96875 8.46875 C 12.721526 10.433338 11.069806 11.96875 9.03125 11.96875 C 6.9923231 11.968751 5.3092434 10.43386 5.0625 8.46875 z M 14.15625 12.03125 C 14.113365 12.103237 14.077449 12.17947 14.03125 12.25 C 14.051088 12.644051 14.1179 13.274202 14.375 13.5 C 14.725063 13.807445 15.528971 13.379122 16.0625 13.96875 L 19.75 17.6875 C 19.75 17.6875 19.816311 17.745484 19.875 17.84375 C 20.226597 17.130655 19.75 16.6875 19.75 16.6875 L 16.0625 12.96875 C 15.528971 12.379122 14.725063 12.807445 14.375 12.5 C 14.26591 12.404191 14.205241 12.224827 14.15625 12.03125 z "
       id="BevelShadow"
       inkscape:label="#path3170" />
    <path
       style="opacity:0.3;fill:#ffffff;fill-opacity:1;stroke:none;stroke-width:1;stroke-linecap:butt;stroke-linejoin:round;stroke-miterlimit:4;stroke-dasharray:none;stroke-dashoffset:0;stroke-opacity:1"
       d="M 8.4375 2.03125 C 8.0545204 2.0676907 7.6532077 2.1406535 7.28125 2.25 C 7.6524886 2.1405924 8.0548561 2.0677192 8.4375 2.03125 z M 9.5625 2.03125 C 9.945144 2.0677192 10.347511 2.1405924 10.71875 2.25 C 10.346792 2.1406535 9.9454794 2.0676907 9.5625 2.03125 z M 6.21875 2.6875 C 5.869603 2.8697849 5.5332973 3.0884941 5.21875 3.34375 C 5.5329617 3.0884656 5.8703222 2.869846 6.21875 2.6875 z M 11.78125 2.6875 C 12.129678 2.869846 12.467038 3.0884656 12.78125 3.34375 C 12.466703 3.0884941 12.130397 2.8697849 11.78125 2.6875 z M 13.25 3.75 C 13.484153 3.9832948 13.68742 4.2406755 13.875 4.5 C 13.687102 4.2387045 13.486304 3.9854381 13.25 3.75 z M 9.03125 4 C 7.926932 4.0000001 6.911709 4.4034449 6.1875 5.125 C 5.4632913 5.8465553 5.0312502 6.8684785 5.03125 7.96875 C 5.03125 8.1273187 5.0444039 8.2837541 5.0625 8.4375 C 5.1840325 7.5511388 5.5859939 6.7243023 6.1875 6.125 C 6.911709 5.4034447 7.926932 5.0000001 9.03125 5 C 11.063091 5 12.71292 6.5135567 12.96875 8.46875 C 12.989376 8.3048401 13.03125 8.138208 13.03125 7.96875 C 13.03125 5.7682063 11.239887 4 9.03125 4 z M 12.96875 8.46875 C 12.937847 8.7143235 12.885306 8.9574989 12.8125 9.1875 C 12.886794 8.9567562 12.937681 8.7156402 12.96875 8.46875 z M 12.8125 9.1875 C 12.739694 9.4175011 12.641984 9.6336425 12.53125 9.84375 C 12.643351 9.6348425 12.738764 9.4165098 12.8125 9.1875 z M 12.53125 9.84375 C 12.420516 10.053858 12.300936 10.251607 12.15625 10.4375 C 12.299664 10.255425 12.420949 10.049304 12.53125 9.84375 z M 12.15625 10.4375 C 12.020325 10.612137 11.849988 10.787933 11.6875 10.9375 C 11.857207 10.784665 12.014866 10.616998 12.15625 10.4375 z M 14.78125 6.4375 C 14.840311 6.6569535 14.872668 6.8701031 14.90625 7.09375 C 14.873529 6.8705928 14.839291 6.656324 14.78125 6.4375 z M 3.03125 7.40625 C 2.9878596 7.7402173 2.96875 8.0714318 2.96875 8.40625 L 2.96875 8.5625 C 2.9687501 10.232253 3.4728258 11.946255 4.75 13.21875 C 6.7922344 15.253503 9.9544849 15.512945 12.28125 14 C 12.676749 14.019765 13.304621 14.087593 13.53125 14.34375 C 13.839827 14.692531 13.408204 15.499678 14 16.03125 L 17.6875 19.75 C 17.687501 19.75 18.376033 20.498967 19.4375 19.4375 C 20.118659 18.756341 20.03125 18.113546 20.03125 17.84375 C 20.03125 17.641627 20.006366 17.56051 20 17.4375 C 19.966215 17.707751 19.823499 18.052916 19.4375 18.4375 C 18.374087 19.497017 17.687501 18.75 17.6875 18.75 L 14 15.03125 C 13.408204 14.499678 13.839827 13.692531 13.53125 13.34375 C 13.304621 13.087593 12.676749 13.019765 12.28125 13 C 9.9544849 14.512945 6.7922344 14.253503 4.75 12.21875 C 3.4322806 10.905859 2.8665351 9.1218387 3.03125 7.40625 z M 5.0625 8.53125 C 5.0894951 8.7222746 5.1343069 8.9124033 5.1875 9.09375 C 5.1341128 8.9117124 5.0895704 8.7227956 5.0625 8.53125 z M 14.96875 8.5625 C 14.876581 9.4959464 14.565044 10.43508 14.03125 11.25 C 14.04267 11.47685 14.089781 11.768613 14.15625 12.03125 C 14.785182 10.975515 15.050764 9.7501911 14.96875 8.5625 z M 5.96875 10.53125 C 6.0895004 10.67538 6.2040313 10.811671 6.34375 10.9375 C 6.2111987 10.816865 6.0841553 10.668429 5.96875 10.53125 z M 11.03125 11.40625 C 10.848508 11.515128 10.669173 11.608911 10.46875 11.6875 C 10.670915 11.609854 10.846446 11.51414 11.03125 11.40625 z M 7.0625 11.4375 C 7.2316653 11.532896 7.4104277 11.617091 7.59375 11.6875 C 7.4126623 11.616982 7.2297119 11.532546 7.0625 11.4375 z "
       id="BevelHighlight"
       inkscape:label="#path3177" />
  </g>
</svg>
