<?xml version="1.0" encoding="UTF-8" standalone="no"?>
<!-- Created with Inkscape (http://www.inkscape.org/) -->

<svg
   xmlns:dc="http://purl.org/dc/elements/1.1/"
   xmlns:cc="http://creativecommons.org/ns#"
   xmlns:rdf="http://www.w3.org/1999/02/22-rdf-syntax-ns#"
   xmlns:svg="http://www.w3.org/2000/svg"
   xmlns="http://www.w3.org/2000/svg"
   xmlns:xlink="http://www.w3.org/1999/xlink"
   xmlns:sodipodi="http://sodipodi.sourceforge.net/DTD/sodipodi-0.dtd"
   xmlns:inkscape="http://www.inkscape.org/namespaces/inkscape"
   width="22"
   height="22"
   id="svg2"
   sodipodi:version="0.32"
   inkscape:version="0.48.0 r9654"
   version="1.0"
   sodipodi:docname="edit-find-replace.svg"
   inkscape:output_extension="org.inkscape.output.svg.inkscape"
   inkscape:export-filename="/home/matt/.icons/Sirocco/scalable/mimetypes/text-plain.png"
   inkscape:export-xdpi="90"
   inkscape:export-ydpi="90"
   sodipodi:modified="true"
   style="display:inline">
  <sodipodi:namedview
     id="base"
     pagecolor="#ffffff"
     bordercolor="#666666"
     borderopacity="1.0"
     inkscape:pageopacity="0.0"
     inkscape:pageshadow="2"
     inkscape:zoom="8.3198169"
     inkscape:cx="-45.631468"
     inkscape:cy="6.3239921"
     inkscape:document-units="px"
     inkscape:current-layer="layer1"
     width="128px"
     height="128px"
     inkscape:showpageshadow="false"
     inkscape:window-width="1920"
     inkscape:window-height="1029"
     inkscape:window-x="0"
     inkscape:window-y="25"
     showguides="true"
     inkscape:guide-bbox="true"
     showgrid="true"
     inkscape:window-maximized="1">
    <sodipodi:guide
       id="guide2226"
       position="32.637397,117.99844"
       orientation="horizontal" />
    <sodipodi:guide
       id="guide2230"
       position="110,57.402344"
       orientation="vertical" />
    <sodipodi:guide
       id="guide2232"
       position="33.760911"
       orientation="horizontal" />
    <sodipodi:guide
       id="guide2231"
       position="46.774696"
       orientation="horizontal" />
    <inkscape:grid
       enabled="true"
       visible="true"
       id="grid3231"
       type="xygrid" />
    <sodipodi:guide
       orientation="1,0"
       position="100,67.625"
       id="guide2713" />
  </sodipodi:namedview>
  <defs
     id="defs4">
    <inkscape:perspective
       sodipodi:type="inkscape:persp3d"
       inkscape:vp_x="0 : 11 : 1"
       inkscape:vp_y="0 : 1000 : 0"
       inkscape:vp_z="22 : 11 : 1"
       inkscape:persp3d-origin="11 : 7.3333333 : 1"
       id="perspective19" />
    <linearGradient
       id="StandardGradient"
       gradientTransform="matrix(0.9984539,0,0,0.9984539,-4.5977599e-2,5.7675578e-2)"
       x1="10.710332"
       y1="1.9963325"
       x2="10.710332"
       y2="18.974037"
       gradientUnits="userSpaceOnUse">
      <stop
         style="stop-color:#000000;stop-opacity:0.86274511;"
         offset="0"
         id="stop3277" />
      <stop
         style="stop-color:#000000;stop-opacity:0.47058824;"
         offset="1"
         id="stop3279" />
    </linearGradient>
    <inkscape:perspective
       id="perspective2850"
       inkscape:persp3d-origin="0.5 : 0.33333333 : 1"
       inkscape:vp_z="1 : 0.5 : 1"
       inkscape:vp_y="0 : 1000 : 0"
       inkscape:vp_x="0 : 0.5 : 1"
       sodipodi:type="inkscape:persp3d" />
    <linearGradient
       inkscape:collect="always"
       xlink:href="#StandardGradient"
       id="linearGradient2855"
       gradientUnits="userSpaceOnUse"
       gradientTransform="matrix(0.9984539,0,0,0.9984539,-30.045978,0.05767558)"
       x1="10.710332"
       y1="1.9963325"
       x2="10.710332"
       y2="18.974037" />
    <linearGradient
       inkscape:collect="always"
       xlink:href="#StandardGradient"
       id="linearGradient2866"
       gradientUnits="userSpaceOnUse"
       gradientTransform="matrix(0.9984539,0,0,0.9984539,-30.045978,30.057676)"
       x1="10.710332"
       y1="1.9963325"
       x2="10.710332"
       y2="18.974037" />
    <clipPath
       clipPathUnits="userSpaceOnUse"
       id="clipPath2875">
      <path
         style="fill:#ff00ff;fill-opacity:1;stroke:none;display:inline"
         d="m -30,30 0,22 22,0 0,-22 -22,0 z m 9,2 c 1.536278,0 3.078693,0.582986 4.25,1.75 2.042235,2.034752 2.299759,5.181761 0.78125,7.5 0.01984,0.394051 0.08665,1.024202 0.34375,1.25 0.350063,0.307445 1.153971,-0.120878 1.6875,0.46875 l 3.6875,3.71875 c 0,0 0.750914,0.690483 -0.3125,1.75 -1.063413,1.059517 -1.749999,0.3125 -1.75,0.3125 L -16,45.03125 c -0.591796,-0.531572 -0.160173,-1.338719 -0.46875,-1.6875 -0.226629,-0.25616 -0.854501,-0.32399 -1.25,-0.34375 -2.326765,1.512945 -5.489016,1.253503 -7.53125,-0.78125 -2.342612,-2.334029 -2.342613,-6.134721 0,-8.46875 C -24.078694,32.582986 -22.536279,32 -21,32 z m 0.03125,2 c -1.104318,0 -2.119541,0.403445 -2.84375,1.125 -0.724209,0.721555 -1.15625,1.743479 -1.15625,2.84375 0,2.200545 1.791365,4.000001 4,4 2.208637,0 4,-1.799455 4,-4 0,-2.200544 -1.791363,-3.96875 -4,-3.96875 z M -26,47 c 0.552,10e-7 1,0.448 1,1 0,0.552001 -0.448,1 -1,1 -0.552,10e-7 -1,-0.448 -1,-1 0,-0.551999 0.448,-1 1,-1 z m 3,0 c 0.552,10e-7 1,0.448 1,1 0,0.552001 -0.448,1 -1,1 -0.552,10e-7 -1,-0.448 -1,-1 0,-0.551999 0.448,-1 1,-1 z m 3,0 c 0.552,10e-7 1,0.448 1,1 0,0.552001 -0.448,1 -1,1 -0.552,10e-7 -1,-0.448 -1,-1 0,-0.551999 0.448,-1 1,-1 z"
         id="path2877" />
    </clipPath>
    <filter
       inkscape:collect="always"
       id="filter3651">
      <feGaussianBlur
         inkscape:collect="always"
         stdDeviation="0.51030086"
         id="feGaussianBlur3653" />
    </filter>
  </defs>
  <metadata
     id="metadata7">
    <rdf:RDF>
      <cc:Work
         rdf:about="">
        <dc:format>image/svg+xml</dc:format>
        <dc:type
           rdf:resource="http://purl.org/dc/dcmitype/StillImage" />
      </cc:Work>
    </rdf:RDF>
  </metadata>
  <g
     style="display:inline"
     inkscape:label="Calque 1"
     id="layer1"
     inkscape:groupmode="layer">
    <path
       style="fill:#ffffff;fill-opacity:1;stroke:none;opacity:0.15"
       d="M 9 0.96875 C 7.201717 0.96875 5.4024227 1.6651015 4.03125 3.03125 C 1.2904156 5.7620418 1.290416 10.206708 4.03125 12.9375 C 6.3086957 15.206603 9.7518126 15.568377 12.4375 14.0625 C 12.502694 14.069051 12.565584 14.084427 12.625 14.09375 C 12.625193 14.11045 12.624737 14.107298 12.625 14.125 C 12.630562 14.498726 12.727761 15.230618 13.25 15.75 C 13.271955 15.771834 13.288985 15.791378 13.3125 15.8125 L 16.9375 19.4375 L 16.96875 19.4375 C 16.987564 19.457399 17.341454 19.888134 17.96875 20 C 18.611047 20.114541 19.459387 19.85056 20.15625 19.15625 C 20.853986 18.461071 21.115556 17.612003 21 16.96875 C 20.891314 16.363737 20.515972 16.045647 20.46875 16 L 20.5 15.96875 L 16.84375 12.28125 C 16.833178 12.269566 16.823252 12.261293 16.8125 12.25 C 16.290237 11.701438 15.537178 11.599931 15.15625 11.59375 C 15.138579 11.593463 15.141672 11.593965 15.125 11.59375 C 15.115709 11.534241 15.100283 11.471572 15.09375 11.40625 C 16.605825 8.729142 16.246106 5.3002607 13.96875 3.03125 C 12.597577 1.6651019 10.798283 0.96875 9 0.96875 z M 9 2 C 10.536278 2 12.078693 2.5829856 13.25 3.75 C 15.292235 5.7847517 15.549759 8.9317609 14.03125 11.25 C 14.051088 11.644051 14.1179 12.274202 14.375 12.5 C 14.725063 12.807445 15.528971 12.379122 16.0625 12.96875 L 19.75 16.6875 C 19.75 16.6875 20.500914 17.377983 19.4375 18.4375 C 18.374087 19.497017 17.687501 18.75 17.6875 18.75 L 14 15.03125 C 13.408204 14.499678 13.839827 13.692531 13.53125 13.34375 C 13.304621 13.087593 12.676749 13.019765 12.28125 13 C 9.9544849 14.512945 6.7922344 14.253503 4.75 12.21875 C 2.4073878 9.8847211 2.4073874 6.0840291 4.75 3.75 C 5.9213063 2.5829855 7.4637215 2 9 2 z M 9.03125 4 C 7.926932 4.0000001 6.911709 4.4034449 6.1875 5.125 C 5.4632913 5.8465553 5.0312502 6.8684785 5.03125 7.96875 C 5.03125 10.169295 6.8226155 11.968751 9.03125 11.96875 C 11.239887 11.96875 13.03125 10.169295 13.03125 7.96875 C 13.03125 5.7682063 11.239887 4 9.03125 4 z M 9.03125 5.03125 C 10.687136 5.03125 12 6.3302557 12 7.96875 C 12 9.6072459 10.677368 10.9375 9.03125 10.9375 C 7.3851362 10.937501 6.0625 9.6072451 6.0625 7.96875 C 6.0625002 7.1395887 6.3825014 6.3655796 6.90625 5.84375 C 7.4243751 5.3275236 8.1791702 5.0312501 9.03125 5.03125 z M 4 15.96875 C 2.8876481 15.96875 1.9687502 16.88765 1.96875 18 C 1.96875 19.112351 2.8876471 20.031252 4 20.03125 C 4.6163502 20.03125 5.1246474 19.723289 5.5 19.28125 C 5.8753525 19.723289 6.3836478 20.031251 7 20.03125 C 7.6163502 20.03125 8.1246474 19.723289 8.5 19.28125 C 8.8753525 19.723289 9.3836478 20.031251 10 20.03125 C 11.112349 20.03125 12.03125 19.112351 12.03125 18 C 12.03125 16.887649 11.112348 15.968752 10 15.96875 C 9.3836484 15.96875 8.8753522 16.276711 8.5 16.71875 C 8.1246478 16.276712 7.6163497 15.968751 7 15.96875 C 6.3836484 15.96875 5.8753522 16.276711 5.5 16.71875 C 5.1246478 16.276712 4.6163497 15.968751 4 15.96875 z M 4 17 C 4.5520002 17.000001 5 17.448 5 18 C 5.0000002 18.552001 4.552 19 4 19 C 3.4480001 19.000001 3 18.552 3 18 C 3.0000001 17.448001 3.448 17 4 17 z M 7 17 C 7.5520001 17.000001 8 17.448 8 18 C 8.0000001 18.552001 7.552 19 7 19 C 6.448 19.000001 6 18.552 6 18 C 6 17.448001 6.448 17 7 17 z M 10 17 C 10.552 17.000001 11 17.448 11 18 C 11 18.552001 10.552 19 10 19 C 9.4480001 19.000001 9 18.552 9 18 C 9.0000001 17.448001 9.448 17 10 17 z "
       id="path3163" />
    <path
       style="opacity:1;fill:url(#StandardGradient);fill-opacity:1;stroke:none;stroke-width:1;stroke-linecap:butt;stroke-linejoin:round;stroke-miterlimit:4;stroke-dasharray:none;stroke-dashoffset:0;stroke-opacity:1"
       d="M 9 2 C 7.4637215 2 5.9213063 2.5829855 4.75 3.75 C 2.4073874 6.0840291 2.4073878 9.8847211 4.75 12.21875 C 6.7922344 14.253503 9.9544849 14.512945 12.28125 13 C 12.676749 13.019765 13.304621 13.087593 13.53125 13.34375 C 13.839827 13.692531 13.408204 14.499678 14 15.03125 L 17.6875 18.75 C 17.687501 18.75 18.374087 19.497017 19.4375 18.4375 C 20.500914 17.377983 19.75 16.6875 19.75 16.6875 L 16.0625 12.96875 C 15.528971 12.379122 14.725063 12.807445 14.375 12.5 C 14.1179 12.274202 14.051088 11.644051 14.03125 11.25 C 15.549759 8.9317609 15.292235 5.7847517 13.25 3.75 C 12.078693 2.5829856 10.536278 2 9 2 z M 9.03125 4 C 11.239887 4 13.03125 5.7682063 13.03125 7.96875 C 13.03125 10.169295 11.239887 11.96875 9.03125 11.96875 C 6.8226155 11.968751 5.03125 10.169295 5.03125 7.96875 C 5.0312502 6.8684785 5.4632913 5.8465553 6.1875 5.125 C 6.911709 4.4034449 7.926932 4.0000001 9.03125 4 z M 4 17 C 3.448 17 3.0000001 17.448001 3 18 C 3 18.552 3.4480001 19.000001 4 19 C 4.552 19 5.0000002 18.552001 5 18 C 5 17.448 4.5520002 17.000001 4 17 z M 7 17 C 6.448 17 6 17.448001 6 18 C 6 18.552 6.448 19.000001 7 19 C 7.552 19 8.0000001 18.552001 8 18 C 8 17.448 7.5520001 17.000001 7 17 z M 10 17 C 9.448 17 9.0000001 17.448001 9 18 C 9 18.552 9.4480001 19.000001 10 19 C 10.552 19 11 18.552001 11 18 C 11 17.448 10.552 17.000001 10 17 z "
       id="Symbol" />
    <path
       style="opacity:0.5;fill:#000000;fill-opacity:1;stroke:none;stroke-width:1;stroke-linecap:butt;stroke-linejoin:round;stroke-miterlimit:4;stroke-dasharray:none;stroke-dashoffset:0;stroke-opacity:1"
       d="M 9 2 C 7.4637215 2 5.9213063 2.5829855 4.75 3.75 C 3.4707038 5.0246088 2.9133039 6.7378564 3.03125 8.40625 C 3.1593616 7.0719032 3.725107 5.7711377 4.75 4.75 C 7.0926125 2.4159711 10.907387 2.4159711 13.25 4.75 C 14.310966 5.8070783 14.866175 7.1491537 14.96875 8.53125 C 15.129011 6.8187203 14.56655 5.0617263 13.25 3.75 C 12.078693 2.5829856 10.536278 2 9 2 z M 5.0625 8.46875 C 5.040358 8.6395203 5.03125 8.7929514 5.03125 8.96875 C 5.03125 11.169295 6.8226155 12.968751 9.03125 12.96875 C 11.239887 12.96875 13.03125 11.169295 13.03125 8.96875 C 13.03125 8.7926024 12.99101 8.6388761 12.96875 8.46875 C 12.721526 10.433338 11.069806 11.96875 9.03125 11.96875 C 6.9923231 11.968751 5.3092434 10.43386 5.0625 8.46875 z M 14.15625 12.03125 C 14.113365 12.103237 14.077449 12.17947 14.03125 12.25 C 14.051088 12.644051 14.1179 13.274202 14.375 13.5 C 14.725063 13.807445 15.528971 13.379122 16.0625 13.96875 L 19.75 17.6875 C 19.75 17.6875 19.816311 17.745484 19.875 17.84375 C 20.226597 17.130655 19.75 16.6875 19.75 16.6875 L 16.0625 12.96875 C 15.528971 12.379122 14.725063 12.807445 14.375 12.5 C 14.26591 12.404191 14.205241 12.224827 14.15625 12.03125 z M 4 17 C 3.448 17 3.0000001 17.448001 3 18 C 3 18.187223 3.0665983 18.350127 3.15625 18.5 C 3.3309235 18.207994 3.6352229 18 4 18 C 4.3647772 18 4.6690766 18.207994 4.84375 18.5 C 4.9334017 18.350127 5.0000001 18.187223 5 18 C 5 17.448 4.5520002 17.000001 4 17 z M 7 17 C 6.448 17 6 17.448001 6 18 C 6 18.187223 6.0665983 18.350127 6.15625 18.5 C 6.3309235 18.207994 6.6352229 18 7 18 C 7.3647771 18 7.6690765 18.207994 7.84375 18.5 C 7.9334017 18.350127 8 18.187223 8 18 C 8 17.448 7.5520001 17.000001 7 17 z M 10 17 C 9.448 17 9.0000001 17.448001 9 18 C 9 18.187223 9.0665983 18.350127 9.15625 18.5 C 9.3309235 18.207994 9.6352229 18 10 18 C 10.364777 18 10.669077 18.207994 10.84375 18.5 C 10.933402 18.350127 11 18.187223 11 18 C 11 17.448 10.552 17.000001 10 17 z "
       id="BevelShadow" />
    <path
       style="opacity:0.3;fill:#ffffff;fill-opacity:1;stroke:none;stroke-width:1;stroke-linecap:butt;stroke-linejoin:round;stroke-miterlimit:4;stroke-dasharray:none;stroke-dashoffset:0;stroke-opacity:1"
       d="M 13.25 3.75 C 13.484153 3.9832948 13.68742 4.2406755 13.875 4.5 C 13.687102 4.2387045 13.486304 3.9854381 13.25 3.75 z M 9.03125 4 C 7.926932 4.0000001 6.911709 4.4034449 6.1875 5.125 C 5.4632913 5.8465553 5.0312502 6.8684785 5.03125 7.96875 C 5.03125 8.1273187 5.0444039 8.2837541 5.0625 8.4375 C 5.1840325 7.5511388 5.5859939 6.7243023 6.1875 6.125 C 6.911709 5.4034447 7.926932 5.0000001 9.03125 5 C 11.063091 5 12.71292 6.5135567 12.96875 8.46875 C 12.989376 8.3048401 13.03125 8.138208 13.03125 7.96875 C 13.03125 5.7682063 11.239887 4 9.03125 4 z M 14.78125 6.4375 C 14.840311 6.6569535 14.872668 6.8701031 14.90625 7.09375 C 14.873529 6.8705928 14.839291 6.656324 14.78125 6.4375 z M 3 8.0625 C 2.9952567 8.1772022 2.96875 8.2909527 2.96875 8.40625 L 2.96875 8.5625 C 2.9687501 10.232253 3.4728258 11.946255 4.75 13.21875 C 6.7922344 15.253503 9.9544849 15.512945 12.28125 14 C 12.676749 14.019765 13.304621 14.087593 13.53125 14.34375 C 13.839827 14.692531 13.408204 15.499678 14 16.03125 L 17.6875 19.75 C 17.687501 19.75 18.376033 20.498967 19.4375 19.4375 C 20.118659 18.756341 20.03125 18.113546 20.03125 17.84375 C 20.03125 17.641627 20.006366 17.56051 20 17.4375 C 19.966215 17.707751 19.823499 18.052916 19.4375 18.4375 C 18.374087 19.497017 17.687501 18.75 17.6875 18.75 L 14 15.03125 C 13.408204 14.499678 13.839827 13.692531 13.53125 13.34375 C 13.304621 13.087593 12.676749 13.019765 12.28125 13 C 9.9544849 14.512945 6.7922344 14.253503 4.75 12.21875 C 3.5969955 11.06997 3.0159568 9.5712327 3 8.0625 z M 5.0625 8.53125 C 5.0894951 8.7222746 5.1343069 8.9124033 5.1875 9.09375 C 5.1341128 8.9117124 5.0895704 8.7227956 5.0625 8.53125 z M 14.96875 8.5625 C 14.876581 9.4959464 14.565044 10.43508 14.03125 11.25 C 14.04267 11.47685 14.089781 11.768613 14.15625 12.03125 C 14.785182 10.975515 15.050764 9.7501911 14.96875 8.5625 z M 5.96875 10.53125 C 6.0895004 10.67538 6.2040313 10.811671 6.34375 10.9375 C 6.2111987 10.816865 6.0841553 10.668429 5.96875 10.53125 z M 11.03125 11.40625 C 10.848508 11.515128 10.669173 11.608911 10.46875 11.6875 C 10.670915 11.609854 10.846446 11.51414 11.03125 11.40625 z M 7.0625 11.4375 C 7.2316653 11.532896 7.4104277 11.617091 7.59375 11.6875 C 7.4126623 11.616982 7.2297119 11.532546 7.0625 11.4375 z M 3 18 C 3 18.187223 3 18.350127 3 18.5 C 3.0000001 18.649873 3 18.812777 3 19 C 3 19.552 3.4480001 20.000001 4 20 C 4.552 20 5.0000002 19.552001 5 19 C 5 18.812777 5 18.649873 5 18.5 C 5 18.350127 5.0000001 18.187223 5 18 C 5.0000002 18.552001 4.552 19 4 19 C 3.4480001 19.000001 3 18.552 3 18 z M 6 18 C 6 18.187223 6 18.350127 6 18.5 C 6 18.649873 6 18.812777 6 19 C 6 19.552 6.448 20.000001 7 20 C 7.552 20 8 19.552001 8 19 C 8 18.812777 8 18.649873 8 18.5 C 8 18.350127 8 18.187223 8 18 C 8 18.552001 7.552 19 7 19 C 6.448 19.000001 6 18.552 6 18 z M 9 18 C 9 18.187223 9 18.350127 9 18.5 C 9 18.649873 9 18.812777 9 19 C 9 19.552 9.448 20.000001 10 20 C 10.552 20 11 19.552001 11 19 C 11 18.812777 11 18.649873 11 18.5 C 11 18.350127 11 18.187223 11 18 C 11 18.552001 10.552 19 10 19 C 9.448 19.000001 9 18.552 9 18 z "
       id="BevelHighlight" />
  </g>
</svg>
