<?xml version="1.0" encoding="UTF-8" standalone="no"?>
<!-- Created with Inkscape (http://www.inkscape.org/) -->

<svg
   xmlns:dc="http://purl.org/dc/elements/1.1/"
   xmlns:cc="http://creativecommons.org/ns#"
   xmlns:rdf="http://www.w3.org/1999/02/22-rdf-syntax-ns#"
   xmlns:svg="http://www.w3.org/2000/svg"
   xmlns="http://www.w3.org/2000/svg"
   xmlns:xlink="http://www.w3.org/1999/xlink"
   xmlns:sodipodi="http://sodipodi.sourceforge.net/DTD/sodipodi-0.dtd"
   xmlns:inkscape="http://www.inkscape.org/namespaces/inkscape"
   width="22"
   height="22"
   id="svg2"
   sodipodi:version="0.32"
   inkscape:version="0.48.0 r9654"
   version="1.0"
   sodipodi:docname="go-first.svg"
   inkscape:output_extension="org.inkscape.output.svg.inkscape">
  <defs
     id="defs4">
    <inkscape:perspective
       sodipodi:type="inkscape:persp3d"
       inkscape:vp_x="0 : 11 : 1"
       inkscape:vp_y="0 : 1000 : 0"
       inkscape:vp_z="22 : 11 : 1"
       inkscape:persp3d-origin="11 : 7.3333333 : 1"
       id="perspective18" />
    <linearGradient
       id="StandardGradient"
       gradientTransform="matrix(1.0765258,0,0,0.9227364,-8.0131635e-3,0.1584665)"
       x1="10.005832"
       y1="4.1631975"
       x2="10.005832"
       y2="17.168188"
       gradientUnits="userSpaceOnUse">
      <stop
         id="stop3337"
         offset="0"
         style="stop-color:#000000;stop-opacity:0.86274511;" />
      <stop
         id="stop3339"
         offset="1"
         style="stop-color:#000000;stop-opacity:0.47058824;" />
    </linearGradient>
    <inkscape:perspective
       id="perspective2850"
       inkscape:persp3d-origin="0.5 : 0.33333333 : 1"
       inkscape:vp_z="1 : 0.5 : 1"
       inkscape:vp_y="0 : 1000 : 0"
       inkscape:vp_x="0 : 0.5 : 1"
       sodipodi:type="inkscape:persp3d" />
    <linearGradient
       inkscape:collect="always"
       xlink:href="#StandardGradient"
       id="linearGradient2855"
       gradientUnits="userSpaceOnUse"
       gradientTransform="matrix(1.0765258,0,0,0.9227364,-30.008013,0.1584665)"
       x1="10.005832"
       y1="4.1631975"
       x2="10.005832"
       y2="17.168188" />
    <clipPath
       clipPathUnits="userSpaceOnUse"
       id="clipPath2862">
      <path
         style="fill:#ff00ff;fill-opacity:1;stroke:none;display:inline"
         d="m -30,0 0,22 22,0 0,-22 -22,0 z m 12.96875,4 0,3.03125 5.03125,0 0,6.03125 -5.03125,0 0,2.9375 L -26,10 -17.03125,4 z"
         id="path2864" />
    </clipPath>
    <linearGradient
       inkscape:collect="always"
       xlink:href="#StandardGradient"
       id="linearGradient2843"
       gradientUnits="userSpaceOnUse"
       gradientTransform="matrix(1.0765258,0,0,0.9227364,0.9919868,0.1584665)"
       x1="10.005832"
       y1="4.1631975"
       x2="10.005832"
       y2="17.168188" />
    <linearGradient
       inkscape:collect="always"
       xlink:href="#StandardGradient"
       id="linearGradient2854"
       gradientUnits="userSpaceOnUse"
       gradientTransform="matrix(1.0765258,0,0,0.9227364,-29.008013,0.1584665)"
       x1="10.005832"
       y1="4.1631975"
       x2="10.005832"
       y2="17.168188" />
    <clipPath
       clipPathUnits="userSpaceOnUse"
       id="clipPath2861">
      <path
         style="fill:#ff00ff;fill-opacity:1;stroke:none;display:inline"
         d="m -30,0 0,22 22,0 0,-22 -22,0 z m 3,4 2,0 0,6 8.96875,-6 0,3.03125 5.03125,0 0,6.03125 -5.03125,0 0,2.9375 L -25,10 l 0,6 -2,0 0,-12 z"
         id="path2863" />
    </clipPath>
    <filter
       inkscape:collect="always"
       id="filter3637">
      <feGaussianBlur
         inkscape:collect="always"
         stdDeviation="0.42"
         id="feGaussianBlur3639" />
    </filter>
    <linearGradient
       inkscape:collect="always"
       xlink:href="#StandardGradient"
       id="linearGradient4513"
       gradientUnits="userSpaceOnUse"
       gradientTransform="matrix(1.0765258,0,0,0.9227364,0.9919868,0.1584665)"
       x1="10.005832"
       y1="4.1631975"
       x2="10.005832"
       y2="17.168188" />
    <linearGradient
       inkscape:collect="always"
       xlink:href="#StandardGradient"
       id="linearGradient4517"
       gradientUnits="userSpaceOnUse"
       gradientTransform="matrix(1.0765258,0,0,0.9227364,0.9919868,0.1584665)"
       x1="10.005832"
       y1="4.1631975"
       x2="10.005832"
       y2="17.168188" />
  </defs>
  <sodipodi:namedview
     id="base"
     pagecolor="#ffffff"
     bordercolor="#9a9a9a"
     borderopacity="1"
     inkscape:pageopacity="0.0"
     inkscape:pageshadow="2"
     inkscape:zoom="16.540628"
     inkscape:cx="-12.638145"
     inkscape:cy="1.3564482"
     inkscape:document-units="px"
     inkscape:current-layer="layer1"
     showgrid="true"
     inkscape:showpageshadow="false"
     showguides="true"
     inkscape:guide-bbox="true"
     inkscape:window-width="1920"
     inkscape:window-height="1029"
     inkscape:window-x="0"
     inkscape:window-y="25"
     inkscape:window-maximized="1">
    <sodipodi:guide
       orientation="1,0"
       position="0,112"
       id="guide2383" />
    <sodipodi:guide
       orientation="0,1"
       position="26.278146,128"
       id="guide2385" />
    <sodipodi:guide
       orientation="1,0"
       position="128,54.082119"
       id="guide2387" />
    <sodipodi:guide
       orientation="0,1"
       position="78.156291,0"
       id="guide2389" />
    <inkscape:grid
       type="xygrid"
       id="grid3672"
       visible="true"
       enabled="true" />
  </sodipodi:namedview>
  <metadata
     id="metadata7">
    <rdf:RDF>
      <cc:Work
         rdf:about="">
        <dc:format>image/svg+xml</dc:format>
        <dc:type
           rdf:resource="http://purl.org/dc/dcmitype/StillImage" />
      </cc:Work>
    </rdf:RDF>
  </metadata>
  <g
     inkscape:label="Calque 1"
     inkscape:groupmode="layer"
     id="layer1"
     style="display:inline">
    <path
       style="fill:#ffffff;fill-opacity:1;stroke:none;display:inline;opacity:0.15"
       d="M 2.8125 3 A 0.99167088 0.99167088 0 0 0 2 4 L 2 16 A 0.99167088 0.99167088 0 0 0 3 17 L 5 17 A 0.99167088 0.99167088 0 0 0 6 16 L 6 11.84375 L 13.40625 16.8125 A 0.99167088 0.99167088 0 0 0 14.96875 16 L 14.96875 14.0625 L 19 14.0625 A 0.99167088 0.99167088 0 0 0 20 13.0625 L 20 7.03125 A 0.99167088 0.99167088 0 0 0 19 6.03125 L 14.96875 6.03125 L 14.96875 4 A 0.99167088 0.99167088 0 0 0 13.40625 3.1875 L 6 8.15625 L 6 4 A 0.99167088 0.99167088 0 0 0 5 3 L 3 3 A 0.99167088 0.99167088 0 0 0 2.90625 3 A 0.99167088 0.99167088 0 0 0 2.8125 3 z M 3 4 L 5 4 L 5 10 L 13.96875 4 L 13.96875 7.03125 L 19 7.03125 L 19 13.0625 L 13.96875 13.0625 L 13.96875 16 L 5 10 L 5 16 L 3 16 L 3 4 z "
       id="path4515" />
    <path
       style="opacity:0.3;fill:#ffffff;fill-opacity:1;stroke:none;display:inline"
       d="M 5 10 L 5 11 L 13.96875 17 L 13.96875 16 L 5 10 z M 13.96875 13.0625 L 13.96875 14.0625 L 19 14.0625 L 19 13.0625 L 13.96875 13.0625 z M 3 16 L 3 17 L 5 17 L 5 16 L 3 16 z "
       id="BevelHighlight" />
    <path
       style="fill:url(#linearGradient2843);fill-opacity:1;stroke:none;display:inline"
       d="M 3 4 L 3 16 L 5 16 L 5 10 L 5 4 L 3 4 z M 5 10 L 13.96875 16 L 13.96875 13.0625 L 19 13.0625 L 19 7.03125 L 13.96875 7.03125 L 13.96875 4 L 5 10 z "
       id="Symbol" />
    <path
       style="opacity:0.5;fill:#000000;fill-opacity:1;stroke:none;display:inline"
       d="M 3 4 L 3 5 L 5 5 L 5 4 L 3 4 z M 13.96875 4 L 5 10 L 5.75 10.5 L 13.96875 5 L 13.96875 4 z M 13.96875 7.03125 L 13.96875 8.03125 L 19 8.03125 L 19 7.03125 L 13.96875 7.03125 z "
       id="BevelShadow" />
  </g>
</svg>
