<?xml version="1.0" encoding="UTF-8" standalone="no"?>
<!-- Created with Inkscape (http://www.inkscape.org/) -->

<svg
   xmlns:dc="http://purl.org/dc/elements/1.1/"
   xmlns:cc="http://creativecommons.org/ns#"
   xmlns:rdf="http://www.w3.org/1999/02/22-rdf-syntax-ns#"
   xmlns:svg="http://www.w3.org/2000/svg"
   xmlns="http://www.w3.org/2000/svg"
   xmlns:xlink="http://www.w3.org/1999/xlink"
   xmlns:sodipodi="http://sodipodi.sourceforge.net/DTD/sodipodi-0.dtd"
   xmlns:inkscape="http://www.inkscape.org/namespaces/inkscape"
   width="22"
   height="22"
   id="svg2"
   sodipodi:version="0.32"
   inkscape:version="0.48.0 r9654"
   version="1.0"
   sodipodi:docname="media-record.svg"
   inkscape:output_extension="org.inkscape.output.svg.inkscape">
  <defs
     id="defs4">
    <inkscape:perspective
       sodipodi:type="inkscape:persp3d"
       inkscape:vp_x="0 : 11 : 1"
       inkscape:vp_y="0 : 1000 : 0"
       inkscape:vp_z="22 : 11 : 1"
       inkscape:persp3d-origin="11 : 7.3333333 : 1"
       id="perspective18" />
    <linearGradient
       id="SpecificGradient"
       x1="10.761708"
       y1="3.9999998"
       x2="10.761708"
       y2="18.011395"
       gradientUnits="userSpaceOnUse">
      <stop
         style="stop-color:#ad0707;stop-opacity:1;"
         offset="0"
         id="stop3292" />
      <stop
         style="stop-color:#f75535;stop-opacity:1;"
         offset="1"
         id="stop3294" />
    </linearGradient>
    <inkscape:perspective
       id="perspective2850"
       inkscape:persp3d-origin="0.5 : 0.33333333 : 1"
       inkscape:vp_z="1 : 0.5 : 1"
       inkscape:vp_y="0 : 1000 : 0"
       inkscape:vp_x="0 : 0.5 : 1"
       sodipodi:type="inkscape:persp3d" />
    <linearGradient
       inkscape:collect="always"
       xlink:href="#SpecificGradient"
       id="linearGradient3627"
       gradientUnits="userSpaceOnUse"
       x1="10.761708"
       y1="3.9999998"
       x2="10.761708"
       y2="18.011395"
       gradientTransform="translate(-30,0)" />
    <clipPath
       clipPathUnits="userSpaceOnUse"
       id="clipPath3634">
      <path
         style="fill:#ff00ff;fill-opacity:1;stroke:none;display:inline"
         d="m -30,0 0,22 22,0 0,-22 -22,0 z M -22.78125,4 -19,7.78125 -15.21875,4 -12,7.21875 -15.78125,11 -12,14.78125 -15.21875,18 -19,14.21875 -22.78125,18 -26,14.78125 -22.21875,11 -26,7.21875 -22.78125,4 z"
         id="path3636" />
    </clipPath>
    <linearGradient
       inkscape:collect="always"
       xlink:href="#SpecificGradient"
       id="linearGradient3621"
       x1="4"
       y1="11"
       x2="18"
       y2="11"
       gradientUnits="userSpaceOnUse" />
    <linearGradient
       inkscape:collect="always"
       xlink:href="#SpecificGradient"
       id="linearGradient3625"
       gradientUnits="userSpaceOnUse"
       x1="4"
       y1="11"
       x2="18"
       y2="11"
       gradientTransform="matrix(0,1,-1,0,22,0)" />
    <linearGradient
       inkscape:collect="always"
       xlink:href="#SpecificGradient"
       id="linearGradient3629"
       gradientUnits="userSpaceOnUse"
       x1="4"
       y1="11"
       x2="18"
       y2="11" />
    <linearGradient
       inkscape:collect="always"
       xlink:href="#SpecificGradient"
       id="linearGradient3634"
       gradientUnits="userSpaceOnUse"
       x1="4"
       y1="11"
       x2="18"
       y2="11"
       gradientTransform="matrix(0,1,-1,0,22,1)" />
    <linearGradient
       inkscape:collect="always"
       xlink:href="#SpecificGradient"
       id="linearGradient3639"
       gradientUnits="userSpaceOnUse"
       x1="4"
       y1="11"
       x2="18"
       y2="11" />
    <linearGradient
       inkscape:collect="always"
       xlink:href="#SpecificGradient"
       id="linearGradient3644"
       gradientUnits="userSpaceOnUse"
       x1="4"
       y1="11"
       x2="18"
       y2="11" />
    <clipPath
       clipPathUnits="userSpaceOnUse"
       id="clipPath3651">
      <path
         style="fill:#ff00ff;fill-opacity:1;stroke:none;display:inline"
         d="M 0,22 22,22 22,0 0,0 0,22 z M 4,11 c 0,-3.865993 3.1340068,-7 7,-7 3.865993,0 7,3.134007 7,7 0,3.865993 -3.134007,7 -7,7 -3.8659932,0 -7,-3.134007 -7,-7 z"
         id="path3653" />
    </clipPath>
    <linearGradient
       inkscape:collect="always"
       xlink:href="#SpecificGradient"
       id="linearGradient3815"
       gradientUnits="userSpaceOnUse"
       x1="4"
       y1="11"
       x2="18"
       y2="11"
       gradientTransform="matrix(0,1.1428571,-1.1428571,0,23.571429,-1.5714286)" />
  </defs>
  <sodipodi:namedview
     id="base"
     pagecolor="#ffffff"
     bordercolor="#9a9a9a"
     borderopacity="1"
     inkscape:pageopacity="0.0"
     inkscape:pageshadow="2"
     inkscape:zoom="11.730942"
     inkscape:cx="-44.015096"
     inkscape:cy="6.8148571"
     inkscape:document-units="px"
     inkscape:current-layer="layer3"
     showgrid="true"
     inkscape:showpageshadow="false"
     showguides="true"
     inkscape:guide-bbox="true"
     inkscape:window-width="1920"
     inkscape:window-height="1029"
     inkscape:window-x="0"
     inkscape:window-y="25"
     inkscape:window-maximized="1">
    <sodipodi:guide
       orientation="1,0"
       position="0,112"
       id="guide2383" />
    <sodipodi:guide
       orientation="0,1"
       position="26.278146,128"
       id="guide2385" />
    <sodipodi:guide
       orientation="1,0"
       position="128,54.082119"
       id="guide2387" />
    <sodipodi:guide
       orientation="0,1"
       position="78.156291,0"
       id="guide2389" />
    <inkscape:grid
       type="xygrid"
       id="grid3672"
       visible="true"
       enabled="true" />
  </sodipodi:namedview>
  <metadata
     id="metadata7">
    <rdf:RDF>
      <cc:Work
         rdf:about="">
        <dc:format>image/svg+xml</dc:format>
        <dc:type
           rdf:resource="http://purl.org/dc/dcmitype/StillImage" />
      </cc:Work>
    </rdf:RDF>
  </metadata>
  <g
     inkscape:groupmode="layer"
     id="layer3"
     inkscape:label="Cross"
     style="display:inline">
    <path
       style="fill:#ffffff;fill-opacity:1;stroke:none;opacity:0.15"
       d="M 11 3 C 6.5817222 3 3 6.5817222 3 11 C 3 15.418278 6.5817222 19 11 19 C 15.418278 19 19 15.418278 19 11 C 19 6.5817222 15.418278 3 11 3 z M 11 4 C 14.865993 4 18 7.1340068 18 11 C 18 14.865993 14.865993 18 11 18 C 7.1340068 18 4 14.865993 4 11 C 4 7.1340068 7.1340068 4 11 4 z "
       id="path3813" />
    <path
       sodipodi:type="arc"
       style="fill:url(#linearGradient3621);fill-opacity:1;stroke:none"
       id="path2841"
       sodipodi:cx="11"
       sodipodi:cy="11"
       sodipodi:rx="7"
       sodipodi:ry="7"
       d="M 18,11 A 7,7 0 1 1 4,11 7,7 0 1 1 18,11 z"
       transform="matrix(0,1,-1,0,22,0)" />
    <path
       style="fill:#500000;fill-opacity:1;stroke:none;opacity:0.5"
       d="M 11 4 C 7.1340068 4 4 7.1340068 4 11 C 4 11.168225 4.0195795 11.334745 4.03125 11.5 C 4.2877786 7.867514 7.3022322 5 11 5 C 14.697768 5 17.712221 7.867514 17.96875 11.5 C 17.98042 11.334745 18 11.168225 18 11 C 18 7.1340068 14.865993 4 11 4 z "
       id="path3623" />
    <path
       style="fill:#ffffff;fill-opacity:1;stroke:none;opacity:0.3"
       d="M 4.03125 11.5 C 4.0195795 11.665255 4 11.831775 4 12 C 4 15.865993 7.1340068 19 11 19 C 14.865993 19 18 15.865993 18 12 C 18 11.831775 17.98042 11.665255 17.96875 11.5 C 17.712221 15.132486 14.697768 18 11 18 C 7.3022322 18 4.2877786 15.132486 4.03125 11.5 z "
       id="path3632" />
  </g>
</svg>
