<?xml version="1.0" encoding="UTF-8" standalone="no"?>
<!-- Created with Inkscape (http://www.inkscape.org/) -->

<svg
   xmlns:dc="http://purl.org/dc/elements/1.1/"
   xmlns:cc="http://creativecommons.org/ns#"
   xmlns:rdf="http://www.w3.org/1999/02/22-rdf-syntax-ns#"
   xmlns:svg="http://www.w3.org/2000/svg"
   xmlns="http://www.w3.org/2000/svg"
   xmlns:xlink="http://www.w3.org/1999/xlink"
   xmlns:sodipodi="http://sodipodi.sourceforge.net/DTD/sodipodi-0.dtd"
   xmlns:inkscape="http://www.inkscape.org/namespaces/inkscape"
   width="22"
   height="22"
   id="svg2"
   sodipodi:version="0.32"
   inkscape:version="0.48.0 r9654"
   version="1.0"
   sodipodi:docname="media-playlist-repeat.svg"
   inkscape:output_extension="org.inkscape.output.svg.inkscape">
  <defs
     id="defs4">
    <inkscape:perspective
       sodipodi:type="inkscape:persp3d"
       inkscape:vp_x="0 : 11 : 1"
       inkscape:vp_y="0 : 1000 : 0"
       inkscape:vp_z="22 : 11 : 1"
       inkscape:persp3d-origin="11 : 7.3333333 : 1"
       id="perspective18" />
    <linearGradient
       id="StandardGradient"
       gradientTransform="scale(1.1094004,0.9013878)"
       x1="9.3966265"
       y1="5.5470023"
       x2="9.3966265"
       y2="19.983326"
       gradientUnits="userSpaceOnUse">
      <stop
         style="stop-color:#000000;stop-opacity:0.86274511;"
         offset="0"
         id="stop3389" />
      <stop
         style="stop-color:#000000;stop-opacity:0.47058824;"
         offset="1"
         id="stop3391" />
    </linearGradient>
    <inkscape:perspective
       id="perspective2850"
       inkscape:persp3d-origin="0.5 : 0.33333333 : 1"
       inkscape:vp_z="1 : 0.5 : 1"
       inkscape:vp_y="0 : 1000 : 0"
       inkscape:vp_x="0 : 0.5 : 1"
       sodipodi:type="inkscape:persp3d" />
    <linearGradient
       inkscape:collect="always"
       xlink:href="#StandardGradient"
       id="linearGradient3627"
       gradientUnits="userSpaceOnUse"
       gradientTransform="matrix(1.1094004,0,0,0.9013878,-30,0)"
       x1="9.3966265"
       y1="5.5470023"
       x2="9.3966265"
       y2="19.983326" />
    <clipPath
       clipPathUnits="userSpaceOnUse"
       id="clipPath3634">
      <path
         style="fill:#ff00ff;fill-opacity:1;stroke:none;display:inline"
         d="m -30,0 0,22 22,0 0,-22 -22,0 z m 5.5,5 11,0 c 1.385,0 2.5,1.115 2.5,2.5 l 0,6 c 0,1.385 -1.115,2.5 -2.5,2.5 l -1.5,0 0,2 -5,-3 5,-3 0,2 0.5,0 c 0.831,0 1.5,-0.669 1.5,-1.5 l 0,-4 C -13,7.669 -13.669,7 -14.5,7 l -9,0 C -24.331,7 -25,7.669 -25,8.5 l 0,4 c 0,0.831 0.669,1.5 1.5,1.5 l 1.5,0 0,1.78125 c 0,0.08107 0.0208,0.141232 0.03125,0.21875 L -24.5,16 c -1.385,0 -2.5,-1.115 -2.5,-2.5 l 0,-6 C -27,6.115 -25.885,5 -24.5,5 z"
         id="path3636" />
    </clipPath>
    <filter
       inkscape:collect="always"
       id="filter3638">
      <feGaussianBlur
         inkscape:collect="always"
         stdDeviation="0.435"
         id="feGaussianBlur3640" />
    </filter>
    <linearGradient
       inkscape:collect="always"
       xlink:href="#StandardGradient"
       id="linearGradient3198"
       gradientUnits="userSpaceOnUse"
       gradientTransform="scale(1.1094004,0.9013878)"
       x1="9.3966265"
       y1="5.5470023"
       x2="9.3966265"
       y2="19.983326" />
    <linearGradient
       inkscape:collect="always"
       xlink:href="#StandardGradient"
       id="linearGradient3202"
       gradientUnits="userSpaceOnUse"
       gradientTransform="scale(1.1094004,0.9013878)"
       x1="9.3966265"
       y1="5.5470023"
       x2="9.3966265"
       y2="19.983326" />
    <linearGradient
       inkscape:collect="always"
       xlink:href="#StandardGradient"
       id="linearGradient3975"
       gradientUnits="userSpaceOnUse"
       gradientTransform="scale(1.1094004,0.9013878)"
       x1="9.3966265"
       y1="5.5470023"
       x2="9.3966265"
       y2="19.983326" />
  </defs>
  <sodipodi:namedview
     id="base"
     pagecolor="#ffffff"
     bordercolor="#e7e7e7"
     borderopacity="1"
     inkscape:pageopacity="0.0"
     inkscape:pageshadow="2"
     inkscape:zoom="11.69599"
     inkscape:cx="-14.524331"
     inkscape:cy="2.0700791"
     inkscape:document-units="px"
     inkscape:current-layer="layer1"
     showgrid="true"
     inkscape:showpageshadow="false"
     showguides="true"
     inkscape:guide-bbox="true"
     inkscape:window-width="1920"
     inkscape:window-height="1029"
     inkscape:window-x="0"
     inkscape:window-y="25"
     inkscape:window-maximized="1">
    <sodipodi:guide
       orientation="1,0"
       position="0,112"
       id="guide2383" />
    <sodipodi:guide
       orientation="0,1"
       position="78.156291,0"
       id="guide2389" />
    <inkscape:grid
       type="xygrid"
       id="grid3672"
       visible="true"
       enabled="true" />
    <sodipodi:guide
       orientation="1,0"
       position="22.008699,4.1542523"
       id="guide2950" />
    <sodipodi:guide
       orientation="0,1"
       position="11.22532,22.008699"
       id="guide2952" />
  </sodipodi:namedview>
  <metadata
     id="metadata7">
    <rdf:RDF>
      <cc:Work
         rdf:about="">
        <dc:format>image/svg+xml</dc:format>
        <dc:type
           rdf:resource="http://purl.org/dc/dcmitype/StillImage" />
      </cc:Work>
    </rdf:RDF>
  </metadata>
  <g
     inkscape:label="Calque 1"
     inkscape:groupmode="layer"
     id="layer1">
    <path
       style="fill:#ffffff;fill-opacity:1;fill-rule:nonzero;stroke:none;opacity:0.15"
       d="M 5.5,3.96875 C 3.564347,3.96875 1.96875,5.5643469 1.96875,7.5 l 0,6 c 0,1.935653 1.595597,3.53125 3.53125,3.53125 l 2.53125,0 A 1.0260952,1.0260952 0 0 0 9.0625,15.875 C 9.0548,15.81761 9.03576,15.80622 9.03125,15.78125 c 0,-0.04721 -0.0047,-0.07443 0,-0.0625 l 0,-0.34375 a 1.0260952,1.0260952 0 0 0 0.4375,0.5 l 5,3 A 1.0260952,1.0260952 0 0 0 16.03125,18 l 0,-0.96875 0.46875,0 c 1.935653,0 3.53125,-1.595597 3.53125,-3.53125 l 0,-6 c 0,-1.9356531 -1.595597,-3.53125 -3.53125,-3.53125 l -11,0 z M 5.5,5 16.5,5 C 17.885,5 19,6.115 19,7.5 l 0,6 c 0,1.385 -1.115,2.5 -2.5,2.5 l -1.5,0 0,2 -5,-3 5,-3 0,2 0.5,0 c 0.831,0 1.5,-0.669 1.5,-1.5 l 0,-4 C 17,7.669 16.331,7 15.5,7 l -9,0 C 5.669,7 5,7.669 5,8.5 l 0,4 C 5,13.331 5.669,14 6.5,14 L 8,14 8,15.78125 C 8,15.86232 8.0208,15.922482 8.03125,16 L 5.5,16 C 4.115,16 3,14.885 3,13.5 l 0,-6 C 3,6.115 4.115,5 5.5,5 z m 1,3.03125 9,0 c 0.280347,0 0.46875,0.1884031 0.46875,0.46875 l 0,3.1875 a 1.0260952,1.0260952 0 0 0 -1.5,-0.5625 l -5,3 a 1.0260952,1.0260952 0 0 0 -0.4375,0.53125 L 9.03125,14 A 1.0260952,1.0260952 0 0 0 8,12.96875 l -1.5,0 c -0.280347,0 -0.46875,-0.188403 -0.46875,-0.46875 l 0,-4 C 6.03125,8.2196531 6.219653,8.03125 6.5,8.03125 z"
       id="path3200"
       inkscape:connector-curvature="0" />
    <path
       style="opacity:1;fill:url(#StandardGradient);fill-opacity:1;fill-rule:nonzero;stroke:none;stroke-width:1;stroke-linecap:square;stroke-linejoin:round;stroke-miterlimit:4;stroke-dasharray:none;stroke-dashoffset:0;stroke-opacity:1"
       d="M 5.5,5 C 4.115,5 3,6.115 3,7.5 L 3,13.5 C 3,14.885 4.115,16 5.5,16 L 8.03125,16 C 8.0208,15.922482 8,15.862323 8,15.78125 L 8,14 L 6.5,14 C 5.669,14 5,13.331 5,12.5 L 5,8.5 C 5,7.669 5.669,7 6.5,7 L 15.5,7 C 16.331,7 17,7.669 17,8.5 L 17,12.5 C 17,13.331 16.331,14 15.5,14 L 15,14 L 15,12 L 10,15 L 15,18 L 15,16 L 16.5,16 C 17.885,16 19,14.885 19,13.5 L 19,7.5 C 19,6.115 17.885,5 16.5,5 L 5.5,5 z"
       id="Symbol"
       inkscape:label="#rect2395" />
    <path
       style="opacity:0.5;fill:#000000;fill-opacity:1;fill-rule:nonzero;stroke:none;stroke-width:1;stroke-linecap:square;stroke-linejoin:round;stroke-miterlimit:4;stroke-dasharray:none;stroke-dashoffset:0;stroke-opacity:1"
       d="M 5.5 5 C 4.115 5 3 6.115 3 7.5 L 3 8.5 C 3 7.115 4.115 6 5.5 6 L 16.5 6 C 17.885 6 19 7.115 19 8.5 L 19 7.5 C 19 6.115 17.885 5 16.5 5 L 5.5 5 z M 15 12 L 10 15 L 10.84375 15.5 L 15 13 L 15 12 z M 5 12.5 L 5 13.5 C 5 14.331 5.669 15 6.5 15 L 8 15 L 8 14 L 6.5 14 C 5.669 14 5 13.331 5 12.5 z M 17 12.5 C 17 13.331 16.331 14 15.5 14 L 15 14 L 15 15 L 15.5 15 C 16.331 15 17 14.331 17 13.5 L 17 12.5 z M 8 15.78125 L 8 16 L 8.03125 16 C 8.0208 15.922482 8 15.862323 8 15.78125 z "
       id="BevelShadow"
       inkscape:label="#path3165" />
    <path
       style="opacity:0.3;fill:#ffffff;fill-opacity:1;fill-rule:nonzero;stroke:none;stroke-width:1;stroke-linecap:square;stroke-linejoin:round;stroke-miterlimit:4;stroke-dasharray:none;stroke-dashoffset:0;stroke-opacity:1"
       d="M 6.5 7 C 5.669 7 5 7.669 5 8.5 L 5 9.5 C 5 8.669 5.669 8 6.5 8 L 15.5 8 C 16.331 8 17 8.669 17 9.5 L 17 8.5 C 17 7.669 16.331 7 15.5 7 L 6.5 7 z M 3 13.5 L 3 14.5 C 3 15.885 4.115 17 5.5 17 L 8.03125 17 C 8.0208 16.922482 8 16.862323 8 16.78125 L 8 16 L 5.5 16 C 4.115 16 3 14.885 3 13.5 z M 19 13.5 C 19 14.885 17.885 16 16.5 16 L 15 16 L 15 17 L 16.5 17 C 17.885 17 19 15.885 19 14.5 L 19 13.5 z M 10 15 L 10 16 L 15 19 L 15 18 L 10 15 z "
       id="BevelHighlight"
       inkscape:label="#path3172" />
  </g>
</svg>
