<?xml version="1.0" encoding="UTF-8" standalone="no"?>
<!-- Created with Inkscape (http://www.inkscape.org/) -->

<svg
   xmlns:dc="http://purl.org/dc/elements/1.1/"
   xmlns:cc="http://creativecommons.org/ns#"
   xmlns:rdf="http://www.w3.org/1999/02/22-rdf-syntax-ns#"
   xmlns:svg="http://www.w3.org/2000/svg"
   xmlns="http://www.w3.org/2000/svg"
   xmlns:xlink="http://www.w3.org/1999/xlink"
   xmlns:sodipodi="http://sodipodi.sourceforge.net/DTD/sodipodi-0.dtd"
   xmlns:inkscape="http://www.inkscape.org/namespaces/inkscape"
   width="22"
   height="22"
   id="svg2"
   sodipodi:version="0.32"
   inkscape:version="0.48.0 r9654"
   version="1.0"
   sodipodi:docname="media-playlist-shuffle.svg"
   inkscape:output_extension="org.inkscape.output.svg.inkscape">
  <defs
     id="defs4">
    <inkscape:perspective
       sodipodi:type="inkscape:persp3d"
       inkscape:vp_x="0 : 11 : 1"
       inkscape:vp_y="0 : 1000 : 0"
       inkscape:vp_z="22 : 11 : 1"
       inkscape:persp3d-origin="11 : 7.3333333 : 1"
       id="perspective18" />
    <linearGradient
       id="StandardGradient"
       gradientTransform="scale(1.1766968,0.8498366)"
       x1="7.9406605"
       y1="5.9202557"
       x2="7.9406605"
       y2="18.79122"
       gradientUnits="userSpaceOnUse">
      <stop
         style="stop-color:#000000;stop-opacity:0.86274511;"
         offset="0"
         id="stop3389" />
      <stop
         style="stop-color:#000000;stop-opacity:0.47058824;"
         offset="1"
         id="stop3391" />
    </linearGradient>
    <inkscape:perspective
       id="perspective2850"
       inkscape:persp3d-origin="0.5 : 0.33333333 : 1"
       inkscape:vp_z="1 : 0.5 : 1"
       inkscape:vp_y="0 : 1000 : 0"
       inkscape:vp_x="0 : 0.5 : 1"
       sodipodi:type="inkscape:persp3d" />
    <linearGradient
       inkscape:collect="always"
       xlink:href="#StandardGradient"
       id="linearGradient3627"
       gradientUnits="userSpaceOnUse"
       gradientTransform="matrix(1.1766968,0,0,0.8498366,-30,0)"
       x1="7.9406605"
       y1="5.9202557"
       x2="7.9406605"
       y2="18.79122" />
    <clipPath
       clipPathUnits="userSpaceOnUse"
       id="clipPath3640">
      <path
         style="fill:#ff00ff;fill-opacity:1;stroke:none;display:inline"
         d="m -30,0 0,22 22,0 0,-22 -22,0 z m 15,4 5,3 -5,3 0,-2 -2.03125,0 c -0.712185,0 -1.169097,0.243009 -1.65625,0.6875 -0.466009,0.425198 -0.924734,1.0691197 -1.40625,1.78125 -0.437108,0.583292 -0.872096,1.170188 -1.3125,1.75 -0.178119,0.2032 -0.352714,0.408326 -0.5625,0.59375 C -22.735852,13.490518 -23.77474,14 -25.03125,14 L -28,14 l 0,-2 2.96875,0 c 0.76208,0 1.246769,-0.24271 1.75,-0.6875 0.213133,-0.188382 0.416852,-0.429364 0.625,-0.6875 L -21.25,8.65625 c 0.355438,-0.4968502 0.732263,-0.9936167 1.21875,-1.4375 C -19.287828,6.540433 -18.25814,6 -17.03125,6 L -15,6 -15,4 z m -13,3 2.96875,0 c 1.176093,0 2.155888,0.4493745 2.90625,1.0625 L -23.25,9.71875 C -23.2605,9.709317 -23.27077,9.69677 -23.28125,9.6875 -23.784481,9.2427095 -24.26917,9 -25.03125,9 L -28,9 -28,7 z m 13,4 5,3 -5,3 0,-2 -2.03125,0 c -1.22689,0 -2.256578,-0.540433 -3,-1.21875 -0.258335,-0.235712 -0.474953,-0.493708 -0.6875,-0.75 l 1.21875,-1.625 c 0.269049,0.356376 0.545937,0.663031 0.8125,0.90625 0.487153,0.444491 0.944065,0.6875 1.65625,0.6875 L -15,13 l 0,-2 z"
         id="path3642" />
    </clipPath>
    <filter
       inkscape:collect="always"
       id="filter3644">
      <feGaussianBlur
         inkscape:collect="always"
         stdDeviation="0.465"
         id="feGaussianBlur3646" />
    </filter>
    <linearGradient
       inkscape:collect="always"
       xlink:href="#StandardGradient"
       id="linearGradient4978"
       gradientUnits="userSpaceOnUse"
       gradientTransform="scale(1.1766968,0.8498366)"
       x1="7.9406605"
       y1="5.9202557"
       x2="7.9406605"
       y2="18.79122" />
    <linearGradient
       inkscape:collect="always"
       xlink:href="#StandardGradient"
       id="linearGradient4982"
       gradientUnits="userSpaceOnUse"
       gradientTransform="scale(1.1766968,0.8498366)"
       x1="7.9406605"
       y1="5.9202557"
       x2="7.9406605"
       y2="18.79122" />
  </defs>
  <sodipodi:namedview
     id="base"
     pagecolor="#ffffff"
     bordercolor="#e7e7e7"
     borderopacity="1"
     inkscape:pageopacity="0.0"
     inkscape:pageshadow="2"
     inkscape:zoom="11.730942"
     inkscape:cx="-30.122932"
     inkscape:cy="-0.70136876"
     inkscape:document-units="px"
     inkscape:current-layer="layer1"
     showgrid="true"
     inkscape:showpageshadow="false"
     showguides="true"
     inkscape:guide-bbox="true"
     inkscape:window-width="1920"
     inkscape:window-height="1029"
     inkscape:window-x="0"
     inkscape:window-y="25"
     inkscape:window-maximized="1">
    <sodipodi:guide
       orientation="1,0"
       position="0,112"
       id="guide2383" />
    <sodipodi:guide
       orientation="0,1"
       position="78.156291,0"
       id="guide2389" />
    <inkscape:grid
       type="xygrid"
       id="grid3672"
       visible="true"
       enabled="true" />
    <sodipodi:guide
       orientation="1,0"
       position="22.008699,4.1542523"
       id="guide2950" />
  </sodipodi:namedview>
  <metadata
     id="metadata7">
    <rdf:RDF>
      <cc:Work
         rdf:about="">
        <dc:format>image/svg+xml</dc:format>
        <dc:type
           rdf:resource="http://purl.org/dc/dcmitype/StillImage" />
      </cc:Work>
    </rdf:RDF>
  </metadata>
  <g
     inkscape:label="Calque 1"
     inkscape:groupmode="layer"
     id="layer1">
    <path
       style="fill:#ffffff;fill-opacity:1;fill-rule:nonzero;stroke:none;opacity:0.15"
       d="M 14.84375 2.96875 A 1.030118 1.030118 0 0 0 13.96875 4 L 13.96875 4.96875 L 12.96875 4.96875 C 11.439386 4.96875 10.173267 5.6548512 9.28125 6.46875 C 8.9857094 6.7384087 8.7907236 7.0028006 8.5625 7.28125 A 1.030118 1.030118 0 0 0 8.53125 7.25 C 7.6316428 6.5149252 6.4072163 5.96875 4.96875 5.96875 L 2 5.96875 A 1.030118 1.030118 0 0 0 0.96875 7 L 0.96875 9 A 1.030118 1.030118 0 0 0 2 10.03125 L 4.96875 10.03125 C 5.5121354 10.03125 5.6346044 10.118167 6.03125 10.46875 C 5.9461599 10.393513 5.9624564 10.410131 6.0625 10.5 C 6.0545376 10.507342 6.038904 10.524485 6.03125 10.53125 C 5.634604 10.881833 5.512135 10.96875 4.96875 10.96875 L 2 10.96875 A 1.030118 1.030118 0 0 0 0.96875 12 L 0.96875 14 A 1.030118 1.030118 0 0 0 2 15.03125 L 4.96875 15.03125 C 6.41509 15.03125 7.6237805 14.464573 8.53125 13.71875 C 8.740693 13.971183 8.9706557 14.247856 9.28125 14.53125 C 10.173267 15.345149 11.439386 16.03125 12.96875 16.03125 L 13.96875 16.03125 L 13.96875 17 A 1.030118 1.030118 0 0 0 15.53125 17.875 L 20.53125 14.875 A 1.030118 1.030118 0 0 0 20.53125 13.125 L 16.15625 10.5 L 20.53125 7.875 A 1.030118 1.030118 0 0 0 20.53125 6.125 L 15.53125 3.125 A 1.030118 1.030118 0 0 0 14.84375 2.96875 z M 15 4 L 20 7 L 15 10 L 15 8 L 12.96875 8 C 12.256565 8 11.799653 8.243009 11.3125 8.6875 C 10.846491 9.112698 10.387766 9.7566197 9.90625 10.46875 C 9.4691419 11.052042 9.0341536 11.638938 8.59375 12.21875 C 8.4156306 12.42195 8.2410363 12.627076 8.03125 12.8125 C 7.264148 13.490518 6.2252602 14 4.96875 14 L 2 14 L 2 12 L 4.96875 12 C 5.7308302 12 6.2155187 11.75729 6.71875 11.3125 C 6.9318832 11.124118 7.1356016 10.883136 7.34375 10.625 L 8.75 8.65625 C 9.1054382 8.1593998 9.4822627 7.6626333 9.96875 7.21875 C 10.712172 6.540433 11.74186 6 12.96875 6 L 15 6 L 15 4 z M 2 7 L 4.96875 7 C 6.1448435 7 7.1246381 7.4493745 7.875 8.0625 L 6.75 9.71875 C 6.7394993 9.7093174 6.729234 9.6967665 6.71875 9.6875 C 6.2155187 9.2427095 5.7308302 9 4.96875 9 L 2 9 L 2 7 z M 12.65625 9.03125 C 12.739131 9.0208467 12.84928 9.03125 12.96875 9.03125 L 13.96875 9.03125 L 13.96875 10 A 1.030118 1.030118 0 0 0 14.09375 10.5 A 1.030118 1.030118 0 0 0 13.96875 11 L 13.96875 11.96875 L 12.96875 11.96875 C 12.49087 11.96875 12.388346 11.916837 12 11.5625 C 11.789528 11.37046 11.547994 11.093179 11.3125 10.78125 A 1.030118 1.030118 0 0 0 11.125 10.5625 C 11.440041 10.125549 11.766293 9.6507403 12 9.4375 C 12.29126 9.1717471 12.407606 9.06246 12.65625 9.03125 z M 15 11 L 20 14 L 15 17 L 15 15 L 12.96875 15 C 11.74186 15 10.712172 14.459567 9.96875 13.78125 C 9.7104146 13.545538 9.4937969 13.287542 9.28125 13.03125 L 10.5 11.40625 C 10.769049 11.762626 11.045937 12.069281 11.3125 12.3125 C 11.799653 12.756991 12.256565 13 12.96875 13 L 15 13 L 15 11 z "
       id="path4980" />
    <path
       style="opacity:1;fill:url(#StandardGradient);fill-opacity:1;fill-rule:nonzero;stroke:none;stroke-width:1;stroke-linecap:square;stroke-linejoin:round;stroke-miterlimit:4;stroke-dasharray:none;stroke-dashoffset:0;stroke-opacity:1"
       d="M 15,4 L 15,6 L 12.96875,6 C 11.74186,6 10.712172,6.540433 9.96875,7.21875 C 9.4822627,7.6626333 9.1054382,8.1593998 8.75,8.65625 L 7.34375,10.625 C 7.1356016,10.883136 6.9318832,11.124118 6.71875,11.3125 C 6.2155187,11.75729 5.7308302,12 4.96875,12 L 2,12 L 2,14 L 4.96875,14 C 6.2252602,14 7.264148,13.490518 8.03125,12.8125 C 8.2410363,12.627076 8.4156306,12.42195 8.59375,12.21875 C 9.0341536,11.638938 9.4691419,11.052042 9.90625,10.46875 C 10.387766,9.7566197 10.846491,9.112698 11.3125,8.6875 C 11.799653,8.243009 12.256565,8 12.96875,8 L 15,8 L 15,10 L 20,7 L 15,4 z M 2,7 L 2,9 L 4.96875,9 C 5.7308302,9 6.2155187,9.2427095 6.71875,9.6875 C 6.729234,9.6967665 6.7394993,9.7093174 6.75,9.71875 L 7.875,8.0625 C 7.1246381,7.4493745 6.1448435,7 4.96875,7 L 2,7 z M 15,11 L 15,13 L 12.96875,13 C 12.256565,13 11.799653,12.756991 11.3125,12.3125 C 11.045937,12.069281 10.769049,11.762626 10.5,11.40625 L 9.28125,13.03125 C 9.4937969,13.287542 9.7104146,13.545538 9.96875,13.78125 C 10.712172,14.459567 11.74186,15 12.96875,15 L 15,15 L 15,17 L 20,14 L 15,11 z"
       id="Symbol"
       sodipodi:nodetypes="cccsccsccccsccsccccccccscccccccsccsccccc"
       inkscape:label="#rect3184" />
    <path
       style="opacity:0.5;fill:#000000;fill-opacity:1;fill-rule:nonzero;stroke:none;stroke-width:1;stroke-linecap:square;stroke-linejoin:round;stroke-miterlimit:4;stroke-dasharray:none;stroke-dashoffset:0;stroke-opacity:1"
       d="M 15 4 L 15 5 L 19.15625 7.5 L 20 7 L 15 4 z M 12.96875 6 C 11.74186 6 10.712172 6.540433 9.96875 7.21875 C 9.4822627 7.6626333 9.1054382 8.1593998 8.75 8.65625 L 7.34375 10.625 C 7.1356016 10.883136 6.9318832 11.124118 6.71875 11.3125 C 6.2155187 11.75729 5.7308302 12 4.96875 12 L 2 12 L 2 13 L 4.96875 13 C 5.7308302 13 6.2155187 12.75729 6.71875 12.3125 C 6.9318832 12.124118 7.1356016 11.883136 7.34375 11.625 L 8.75 9.65625 C 9.1054382 9.1593998 9.4822627 8.6626333 9.96875 8.21875 C 10.712172 7.540433 11.74186 7 12.96875 7 L 15 7 L 15 6 L 12.96875 6 z M 2 7 L 2 8 L 4.96875 8 C 5.9231383 8 6.7593498 8.2795405 7.4375 8.71875 L 7.875 8.0625 C 7.1246381 7.4493745 6.1448435 7 4.96875 7 L 2 7 z M 15 11 L 15 12 L 19.15625 14.5 L 20 14 L 15 11 z M 10.5 11.40625 L 9.28125 13.03125 C 9.4059709 13.18164 9.5523693 13.322033 9.6875 13.46875 L 10.5 12.40625 C 10.769049 12.762626 11.045937 13.069281 11.3125 13.3125 C 11.799653 13.756991 12.256565 14 12.96875 14 L 15 14 L 15 13 L 12.96875 13 C 12.256565 13 11.799653 12.756991 11.3125 12.3125 C 11.045937 12.069281 10.769049 11.762626 10.5 11.40625 z "
       id="BevelShadow"
       inkscape:label="#path3182" />
    <path
       style="opacity:0.3;fill:#ffffff;fill-opacity:1;fill-rule:nonzero;stroke:none;stroke-width:1;stroke-linecap:square;stroke-linejoin:round;stroke-miterlimit:4;stroke-dasharray:none;stroke-dashoffset:0;stroke-opacity:1"
       d="M 20 7 L 15 10 L 15 11 L 20 8 L 20 7 z M 12.96875 8 C 12.256565 8 11.799653 8.243009 11.3125 8.6875 C 10.846491 9.112698 10.387766 9.7566197 9.90625 10.46875 C 9.4691419 11.052042 9.0341536 11.638938 8.59375 12.21875 C 8.4156306 12.42195 8.2410363 12.627076 8.03125 12.8125 C 7.264148 13.490518 6.2252602 14 4.96875 14 L 2 14 L 2 15 L 4.96875 15 C 6.2252602 15 7.264148 14.490518 8.03125 13.8125 C 8.2410363 13.627076 8.4156306 13.42195 8.59375 13.21875 C 9.0341536 12.638938 9.4691419 12.052042 9.90625 11.46875 C 10.387766 10.75662 10.846491 10.112698 11.3125 9.6875 C 11.799653 9.243009 12.256565 9 12.96875 9 L 15 9 L 15 8 L 12.96875 8 z M 9.28125 13.03125 L 9.28125 14.03125 C 9.4937969 14.287542 9.7104146 14.545538 9.96875 14.78125 C 10.712172 15.459567 11.74186 16 12.96875 16 L 15 16 L 15 15 L 12.96875 15 C 11.74186 15 10.712172 14.459567 9.96875 13.78125 C 9.7104146 13.545538 9.4937969 13.287542 9.28125 13.03125 z M 20 14 L 15 17 L 15 18 L 20 15 L 20 14 z "
       id="BevelHighlight"
       inkscape:label="#path3189" />
  </g>
</svg>
