<?xml version="1.0" encoding="UTF-8" standalone="no"?>
<!-- Created with Inkscape (http://www.inkscape.org/) -->

<svg
   xmlns:dc="http://purl.org/dc/elements/1.1/"
   xmlns:cc="http://creativecommons.org/ns#"
   xmlns:rdf="http://www.w3.org/1999/02/22-rdf-syntax-ns#"
   xmlns:svg="http://www.w3.org/2000/svg"
   xmlns="http://www.w3.org/2000/svg"
   xmlns:xlink="http://www.w3.org/1999/xlink"
   xmlns:sodipodi="http://sodipodi.sourceforge.net/DTD/sodipodi-0.dtd"
   xmlns:inkscape="http://www.inkscape.org/namespaces/inkscape"
   width="22"
   height="22"
   id="svg2"
   sodipodi:version="0.32"
   inkscape:version="0.48.0 r9654"
   version="1.0"
   sodipodi:docname="window-close.svg"
   inkscape:output_extension="org.inkscape.output.svg.inkscape">
  <defs
     id="defs4">
    <inkscape:perspective
       sodipodi:type="inkscape:persp3d"
       inkscape:vp_x="0 : 11 : 1"
       inkscape:vp_y="0 : 1000 : 0"
       inkscape:vp_z="22 : 11 : 1"
       inkscape:persp3d-origin="11 : 7.3333333 : 1"
       id="perspective18" />
    <linearGradient
       id="StandardGradient"
       x1="11"
       y1="3.9374998"
       x2="11"
       y2="18.083122"
       gradientUnits="userSpaceOnUse">
      <stop
         style="stop-color:#000000;stop-opacity:0.86274511;"
         offset="0"
         id="stop3292" />
      <stop
         style="stop-color:#000000;stop-opacity:0.47058824;"
         offset="1"
         id="stop3294" />
    </linearGradient>
    <inkscape:perspective
       id="perspective2850"
       inkscape:persp3d-origin="0.5 : 0.33333333 : 1"
       inkscape:vp_z="1 : 0.5 : 1"
       inkscape:vp_y="0 : 1000 : 0"
       inkscape:vp_x="0 : 0.5 : 1"
       sodipodi:type="inkscape:persp3d" />
    <linearGradient
       inkscape:collect="always"
       xlink:href="#StandardGradient"
       id="linearGradient3627"
       gradientUnits="userSpaceOnUse"
       x1="11"
       y1="3.9374998"
       x2="11"
       y2="18.083122"
       gradientTransform="translate(-30,0)" />
    <clipPath
       clipPathUnits="userSpaceOnUse"
       id="clipPath3634">
      <path
         style="fill:#ff00ff;fill-opacity:1;stroke:none;display:inline"
         d="m -30,0 0,22 22,0 0,-22 -22,0 z M -22.78125,4 -19,7.78125 -15.21875,4 -12,7.21875 -15.78125,11 -12,14.78125 -15.21875,18 -19,14.21875 -22.78125,18 -26,14.78125 -22.21875,11 -26,7.21875 -22.78125,4 z"
         id="path3636" />
    </clipPath>
    <filter
       inkscape:collect="always"
       id="filter3638">
      <feGaussianBlur
         inkscape:collect="always"
         stdDeviation="0.42"
         id="feGaussianBlur3640" />
    </filter>
    <linearGradient
       inkscape:collect="always"
       xlink:href="#StandardGradient"
       id="linearGradient4525"
       gradientUnits="userSpaceOnUse"
       x1="11"
       y1="3.9374998"
       x2="11"
       y2="18.083122" />
    <linearGradient
       inkscape:collect="always"
       xlink:href="#StandardGradient"
       id="linearGradient4529"
       gradientUnits="userSpaceOnUse"
       x1="11"
       y1="3.9374998"
       x2="11"
       y2="18.083122" />
  </defs>
  <sodipodi:namedview
     id="base"
     pagecolor="#ffffff"
     bordercolor="#9a9a9a"
     borderopacity="1"
     inkscape:pageopacity="0.0"
     inkscape:pageshadow="2"
     inkscape:zoom="16.540628"
     inkscape:cx="-7.7957335"
     inkscape:cy="10.717489"
     inkscape:document-units="px"
     inkscape:current-layer="layer3"
     showgrid="true"
     inkscape:showpageshadow="false"
     showguides="true"
     inkscape:guide-bbox="true"
     inkscape:window-width="1920"
     inkscape:window-height="1029"
     inkscape:window-x="0"
     inkscape:window-y="25"
     inkscape:window-maximized="1">
    <sodipodi:guide
       orientation="1,0"
       position="0,112"
       id="guide2383" />
    <sodipodi:guide
       orientation="0,1"
       position="26.278146,128"
       id="guide2385" />
    <sodipodi:guide
       orientation="1,0"
       position="128,54.082119"
       id="guide2387" />
    <sodipodi:guide
       orientation="0,1"
       position="78.156291,0"
       id="guide2389" />
    <inkscape:grid
       type="xygrid"
       id="grid3672"
       visible="true"
       enabled="true" />
  </sodipodi:namedview>
  <metadata
     id="metadata7">
    <rdf:RDF>
      <cc:Work
         rdf:about="">
        <dc:format>image/svg+xml</dc:format>
        <dc:type
           rdf:resource="http://purl.org/dc/dcmitype/StillImage" />
      </cc:Work>
    </rdf:RDF>
  </metadata>
  <g
     inkscape:groupmode="layer"
     id="layer3"
     inkscape:label="Cross"
     style="display:inline">
    <path
       style="fill:#ffffff;fill-opacity:1;stroke:none;opacity:0.15"
       d="M 7.1875 3 A 0.98427028 0.98427028 0 0 0 7 3.03125 A 0.98427028 0.98427028 0 0 0 6.53125 3.3125 L 3.3125 6.53125 A 0.98427028 0.98427028 0 0 0 3.3125 7.90625 L 6.40625 11 L 3.3125 14.09375 A 0.98427028 0.98427028 0 0 0 3.3125 15.46875 L 6.53125 18.6875 A 0.98427028 0.98427028 0 0 0 7.90625 18.6875 L 11 15.59375 L 14.09375 18.6875 A 0.98427028 0.98427028 0 0 0 15.46875 18.6875 L 18.6875 15.46875 A 0.98427028 0.98427028 0 0 0 18.6875 14.09375 L 15.59375 11 L 18.6875 7.90625 A 0.98427028 0.98427028 0 0 0 18.6875 6.53125 L 15.46875 3.3125 A 0.98427028 0.98427028 0 0 0 14.09375 3.3125 L 11 6.40625 L 7.90625 3.3125 A 0.98427028 0.98427028 0 0 0 7.1875 3 z M 7.21875 4 L 11 7.78125 L 14.78125 4 L 18 7.21875 L 14.21875 11 L 18 14.78125 L 14.78125 18 L 11 14.21875 L 7.21875 18 L 4 14.78125 L 7.78125 11 L 4 7.21875 L 7.21875 4 z "
       id="path4527" />
    <path
       style="opacity:1;fill:url(#StandardGradient);fill-opacity:1;stroke:none;stroke-width:1;stroke-linecap:round;stroke-linejoin:miter;stroke-miterlimit:4;stroke-dasharray:none;stroke-opacity:1"
       d="M 14.769231,3.9999998 L 11,7.7692305 L 7.2307694,3.9999998 L 4,7.230769 L 7.7692309,10.999999 L 4,14.76923 L 7.2307694,18 L 11,14.230768 L 14.769231,18 L 18,14.76923 L 14.230769,10.999999 L 18,7.230769 L 14.769231,3.9999998 z"
       id="Symbol"
       inkscape:label="#rect2498" />
    <path
       style="opacity:0.5;fill:#000000;fill-opacity:1;stroke:none;stroke-width:1;stroke-linecap:round;stroke-linejoin:miter;stroke-miterlimit:4;stroke-dasharray:none;stroke-opacity:1"
       d="M 7.21875 4 L 4 7.21875 L 4.5 7.71875 L 7.21875 5 L 11 8.78125 L 14.78125 5 L 17.5 7.71875 L 18 7.21875 L 14.78125 4 L 11 7.78125 L 7.21875 4 z M 7.78125 11 L 7.28125 11.5 L 7.25 11.53125 L 4 14.78125 L 4.5 15.28125 L 7.78125 12 L 7.78125 11 z M 14.21875 11 L 14.21875 12 L 17.5 15.28125 L 18 14.78125 L 14.75 11.53125 L 14.71875 11.5 L 14.21875 11 z "
       id="BevelShadow"
       inkscape:label="#path3176" />
    <path
       style="opacity:0.3;fill:#ffffff;fill-opacity:1;stroke:none;stroke-width:1;stroke-linecap:round;stroke-linejoin:miter;stroke-miterlimit:4;stroke-dasharray:none;stroke-opacity:1"
       d="M 4 7.21875 L 4 8.21875 L 7.28125 11.5 L 7.78125 11 L 4 7.21875 z M 18 7.21875 L 14.21875 11 L 14.71875 11.5 L 18 8.21875 L 18 7.21875 z M 11 14.21875 L 7.21875 18 L 4 14.78125 L 4 15.78125 L 7.21875 19 L 11 15.21875 L 14.78125 19 L 18 15.78125 L 18 14.78125 L 14.78125 18 L 11 14.21875 z "
       id="BevelHighlight"
       inkscape:label="#path3189" />
  </g>
</svg>
