<?xml version="1.0" encoding="UTF-8" standalone="no"?>
<!-- Created with Inkscape (http://www.inkscape.org/) -->

<svg
   xmlns:dc="http://purl.org/dc/elements/1.1/"
   xmlns:cc="http://creativecommons.org/ns#"
   xmlns:rdf="http://www.w3.org/1999/02/22-rdf-syntax-ns#"
   xmlns:svg="http://www.w3.org/2000/svg"
   xmlns="http://www.w3.org/2000/svg"
   xmlns:xlink="http://www.w3.org/1999/xlink"
   xmlns:sodipodi="http://sodipodi.sourceforge.net/DTD/sodipodi-0.dtd"
   xmlns:inkscape="http://www.inkscape.org/namespaces/inkscape"
   width="24"
   height="24"
   id="svg2"
   sodipodi:version="0.32"
   inkscape:version="0.48.0 r9654"
   version="1.0"
   sodipodi:docname="input-keyboard.svg"
   inkscape:output_extension="org.inkscape.output.svg.inkscape"
   style="display:inline">
  <defs
     id="defs4">
    <linearGradient
       id="linearGradient4315">
      <stop
         style="stop-color:#ffffff;stop-opacity:1;"
         offset="0"
         id="stop4317" />
      <stop
         style="stop-color:#ffffff;stop-opacity:0;"
         offset="1"
         id="stop4319" />
    </linearGradient>
    <linearGradient
       id="linearGradient4213">
      <stop
         style="stop-color:#989898;stop-opacity:1;"
         offset="0"
         id="stop4215" />
      <stop
         style="stop-color:#e3e3e3;stop-opacity:1;"
         offset="1"
         id="stop4217" />
    </linearGradient>
    <linearGradient
       inkscape:collect="always"
       id="linearGradient3327">
      <stop
         style="stop-color:#000000;stop-opacity:1;"
         offset="0"
         id="stop3330" />
      <stop
         style="stop-color:#000000;stop-opacity:0;"
         offset="1"
         id="stop3333" />
    </linearGradient>
    <linearGradient
       inkscape:collect="always"
       xlink:href="#linearGradient3327"
       id="linearGradient3335"
       x1="11.375"
       y1="22"
       x2="11.375"
       y2="-9.817296"
       gradientUnits="userSpaceOnUse" />
    <linearGradient
       inkscape:collect="always"
       xlink:href="#linearGradient3641"
       id="linearGradient3181"
       x1="-3.0607977"
       y1="27.258198"
       x2="-3.0607977"
       y2="7.2536583"
       gradientUnits="userSpaceOnUse"
       gradientTransform="translate(12.119372,-7.2581977)" />
    <inkscape:perspective
       sodipodi:type="inkscape:persp3d"
       inkscape:vp_x="0 : 11 : 1"
       inkscape:vp_y="0 : 1000 : 0"
       inkscape:vp_z="22 : 11 : 1"
       inkscape:persp3d-origin="11 : 7.3333333 : 1"
       id="perspective2531" />
    <linearGradient
       id="ButtonShadow"
       gradientTransform="scale(0.9883037,1.0118347)"
       x1="9.3550024"
       y1="21.742682"
       x2="9.3550024"
       y2="0.49362123"
       gradientUnits="userSpaceOnUse">
      <stop
         id="stop3277"
         offset="0"
         style="stop-color:#000000;stop-opacity:0.70588237;" />
      <stop
         id="stop3279"
         offset="1"
         style="stop-color:#000000;stop-opacity:0.15686275;" />
    </linearGradient>
    <linearGradient
       inkscape:collect="always"
       id="linearGradient3232">
      <stop
         style="stop-color:#000000;stop-opacity:1;"
         offset="0"
         id="stop3234" />
      <stop
         style="stop-color:#000000;stop-opacity:0;"
         offset="1"
         id="stop3236" />
    </linearGradient>
    <linearGradient
       gradientUnits="userSpaceOnUse"
       y2="-6.0004225"
       x2="11"
       y1="14.805666"
       x1="11"
       id="linearGradient3221"
       xlink:href="#linearGradient3232"
       inkscape:collect="always" />
    <linearGradient
       id="ButtonColor"
       x1="10.31979"
       y1="21"
       x2="10.31979"
       y2="0.99929649"
       gradientUnits="userSpaceOnUse">
      <stop
         style="stop-color:#29669f;stop-opacity:1;"
         offset="0"
         id="stop3189" />
      <stop
         style="stop-color:#88b6e0;stop-opacity:1;"
         offset="1"
         id="stop3191" />
    </linearGradient>
    <linearGradient
       inkscape:collect="always"
       xlink:href="#ButtonShadow"
       id="linearGradient38042"
       gradientUnits="userSpaceOnUse"
       gradientTransform="scale(0.9883037,1.0118347)"
       x1="9.3550024"
       y1="21.742682"
       x2="9.3550024"
       y2="0.49362123" />
    <filter
       inkscape:collect="always"
       id="filter3194"
       x="-0.18000001"
       width="1.36"
       y="-0.18000001"
       height="1.36"
       color-interpolation-filters="sRGB">
      <feGaussianBlur
         inkscape:collect="always"
         stdDeviation="1.2"
         id="feGaussianBlur3196" />
    </filter>
    <clipPath
       clipPathUnits="userSpaceOnUse"
       id="clipPath2849">
      <rect
         ry="2"
         rx="2"
         y="1"
         x="1"
         height="20"
         width="20"
         id="rect2851"
         style="fill:#ffffff;fill-opacity:1;fill-rule:evenodd;stroke:none;display:inline" />
    </clipPath>
    <inkscape:perspective
       id="perspective3999"
       inkscape:persp3d-origin="0.5 : 0.33333333 : 1"
       inkscape:vp_z="1 : 0.5 : 1"
       inkscape:vp_y="0 : 1000 : 0"
       inkscape:vp_x="0 : 0.5 : 1"
       sodipodi:type="inkscape:persp3d" />
    <linearGradient
       inkscape:collect="always"
       xlink:href="#linearGradient3641"
       id="linearGradient3617"
       gradientUnits="userSpaceOnUse"
       x1="48"
       y1="90"
       x2="48"
       y2="5.9877172" />
    <linearGradient
       id="linearGradient3641">
      <stop
         id="stop3643"
         offset="0"
         style="stop-color:#b4b4b4;stop-opacity:1;" />
      <stop
         id="stop3645"
         offset="1"
         style="stop-color:#dcdcdc;stop-opacity:1;" />
    </linearGradient>
    <inkscape:perspective
       id="perspective4018"
       inkscape:persp3d-origin="0.5 : 0.33333333 : 1"
       inkscape:vp_z="1 : 0.5 : 1"
       inkscape:vp_y="0 : 1000 : 0"
       inkscape:vp_x="0 : 0.5 : 1"
       sodipodi:type="inkscape:persp3d" />
    <linearGradient
       id="linearGradient3746">
      <stop
         style="stop-color:#404040;stop-opacity:1;"
         offset="0"
         id="stop3748" />
      <stop
         id="stop3753"
         offset="0.60000002"
         style="stop-color:#0a0a0a;stop-opacity:1;" />
      <stop
         id="stop3751"
         offset="1"
         style="stop-color:#4e4e4e;stop-opacity:1;" />
    </linearGradient>
    <linearGradient
       id="linearGradient3732">
      <stop
         style="stop-color:#000000;stop-opacity:0;"
         offset="0"
         id="stop3734" />
      <stop
         id="stop3740"
         offset="0.94999999"
         style="stop-color:#000000;stop-opacity:0;" />
      <stop
         style="stop-color:#000000;stop-opacity:1;"
         offset="1"
         id="stop3736" />
    </linearGradient>
    <linearGradient
       id="linearGradient3650">
      <stop
         id="stop3709"
         offset="0"
         style="stop-color:#141414;stop-opacity:1;" />
      <stop
         style="stop-color:#616161;stop-opacity:1;"
         offset="1"
         id="stop3654" />
    </linearGradient>
    <linearGradient
       id="linearGradient3719">
      <stop
         style="stop-color:#4b4b4b;stop-opacity:1"
         offset="0"
         id="stop3721" />
      <stop
         id="stop3723"
         offset="0.37373093"
         style="stop-color:#232323;stop-opacity:1;" />
      <stop
         style="stop-color:#5c5c5c;stop-opacity:1"
         offset="1"
         id="stop3725" />
    </linearGradient>
    <linearGradient
       inkscape:collect="always"
       xlink:href="#linearGradient3664"
       id="linearGradient3670"
       x1="16.162441"
       y1="52.098946"
       x2="76.838295"
       y2="52.098946"
       gradientUnits="userSpaceOnUse" />
    <linearGradient
       id="linearGradient3664">
      <stop
         style="stop-color:#000000;stop-opacity:0.29838711;"
         offset="0"
         id="stop3666" />
      <stop
         style="stop-color:#ffffff;stop-opacity:0.64516127;"
         offset="1"
         id="stop3668" />
    </linearGradient>
    <inkscape:perspective
       id="perspective4066"
       inkscape:persp3d-origin="0.5 : 0.33333333 : 1"
       inkscape:vp_z="1 : 0.5 : 1"
       inkscape:vp_y="0 : 1000 : 0"
       inkscape:vp_x="0 : 0.5 : 1"
       sodipodi:type="inkscape:persp3d" />
    <linearGradient
       id="linearGradient3681">
      <stop
         style="stop-color:#ffffff;stop-opacity:0.18548387"
         offset="0"
         id="stop3683" />
      <stop
         id="stop3689"
         offset="0.3086735"
         style="stop-color:#ffffff;stop-opacity:0.10887097" />
      <stop
         style="stop-color:#000000;stop-opacity:0"
         offset="0.43622452"
         id="stop3691" />
      <stop
         id="stop3693"
         offset="0.54464293"
         style="stop-color:#000000;stop-opacity:0" />
      <stop
         style="stop-color:#ffffff;stop-opacity:0"
         offset="0.58290821"
         id="stop3695" />
      <stop
         id="stop3697"
         offset="0.61479598"
         style="stop-color:#000000;stop-opacity:0.18145161" />
      <stop
         style="stop-color:#000000;stop-opacity:0.43145161"
         offset="0.69132656"
         id="stop3699" />
      <stop
         id="stop3701"
         offset="0.78061229"
         style="stop-color:#ffffff;stop-opacity:0.08064516" />
      <stop
         style="stop-color:#000000;stop-opacity:0"
         offset="0.87627554"
         id="stop3703" />
      <stop
         style="stop-color:#ffffff;stop-opacity:0"
         offset="1"
         id="stop3685" />
    </linearGradient>
    <inkscape:perspective
       id="perspective4139"
       inkscape:persp3d-origin="0.5 : 0.33333333 : 1"
       inkscape:vp_z="1 : 0.5 : 1"
       inkscape:vp_y="0 : 1000 : 0"
       inkscape:vp_x="0 : 0.5 : 1"
       sodipodi:type="inkscape:persp3d" />
    <linearGradient
       id="linearGradient3797">
      <stop
         style="stop-color:#ffffff;stop-opacity:1;"
         offset="0"
         id="stop3799" />
      <stop
         id="stop3805"
         offset="0.5"
         style="stop-color:#ffffff;stop-opacity:1;" />
      <stop
         style="stop-color:#ffffff;stop-opacity:0;"
         offset="1"
         id="stop3801" />
    </linearGradient>
    <linearGradient
       id="linearGradient3881">
      <stop
         style="stop-color:#d40000;stop-opacity:0;"
         offset="0"
         id="stop3883" />
      <stop
         id="stop3889"
         offset="0.5"
         style="stop-color:#d40000;stop-opacity:1;" />
      <stop
         style="stop-color:#d40000;stop-opacity:0;"
         offset="1"
         id="stop3885" />
    </linearGradient>
    <linearGradient
       id="linearGradient3891">
      <stop
         style="stop-color:#d42aff;stop-opacity:0;"
         offset="0"
         id="stop3893" />
      <stop
         id="stop3899"
         offset="0.5"
         style="stop-color:#d42aff;stop-opacity:1;" />
      <stop
         style="stop-color:#d42aff;stop-opacity:0;"
         offset="1"
         id="stop3895" />
    </linearGradient>
    <linearGradient
       id="linearGradient3901">
      <stop
         style="stop-color:#6600ff;stop-opacity:0;"
         offset="0"
         id="stop3903" />
      <stop
         id="stop3909"
         offset="0.5"
         style="stop-color:#6600ff;stop-opacity:1;" />
      <stop
         style="stop-color:#6600ff;stop-opacity:0;"
         offset="1"
         id="stop3905" />
    </linearGradient>
    <linearGradient
       id="linearGradient3911">
      <stop
         style="stop-color:#2a7fff;stop-opacity:0;"
         offset="0"
         id="stop3913" />
      <stop
         id="stop3919"
         offset="0.5"
         style="stop-color:#2a7fff;stop-opacity:1;" />
      <stop
         style="stop-color:#2a7fff;stop-opacity:0;"
         offset="1"
         id="stop3915" />
    </linearGradient>
    <linearGradient
       id="linearGradient3921">
      <stop
         style="stop-color:#5fd3bc;stop-opacity:0;"
         offset="0"
         id="stop3923" />
      <stop
         id="stop3929"
         offset="0.5"
         style="stop-color:#5fd3bc;stop-opacity:1;" />
      <stop
         style="stop-color:#5fd3bc;stop-opacity:0;"
         offset="1"
         id="stop3925" />
    </linearGradient>
    <linearGradient
       id="linearGradient3851">
      <stop
         style="stop-color:#55d400;stop-opacity:0;"
         offset="0"
         id="stop3853" />
      <stop
         id="stop3859"
         offset="0.5"
         style="stop-color:#55d400;stop-opacity:1;" />
      <stop
         style="stop-color:#55d400;stop-opacity:0;"
         offset="1"
         id="stop3855" />
    </linearGradient>
    <linearGradient
       id="linearGradient3861">
      <stop
         style="stop-color:#ffcc00;stop-opacity:0;"
         offset="0"
         id="stop3863" />
      <stop
         id="stop3869"
         offset="0.5"
         style="stop-color:#ffcc00;stop-opacity:1;" />
      <stop
         style="stop-color:#ffcc00;stop-opacity:0;"
         offset="1"
         id="stop3865" />
    </linearGradient>
    <linearGradient
       id="linearGradient3871">
      <stop
         style="stop-color:#ff6600;stop-opacity:0;"
         offset="0"
         id="stop3873" />
      <stop
         id="stop3879"
         offset="0.5"
         style="stop-color:#ff6600;stop-opacity:1;" />
      <stop
         style="stop-color:#ff6600;stop-opacity:0;"
         offset="1"
         id="stop3875" />
    </linearGradient>
    <clipPath
       clipPathUnits="userSpaceOnUse"
       id="clipPath3798">
      <path
         sodipodi:type="arc"
         style="fill:#ff00ff;fill-opacity:1;stroke:none"
         id="path3800"
         sodipodi:cx="47.729706"
         sodipodi:cy="45.997448"
         sodipodi:rx="13.637059"
         sodipodi:ry="13.637059"
         d="m 61.366765,45.997448 a 13.637059,13.637059 0 1 1 -27.274118,0 13.637059,13.637059 0 1 1 27.274118,0 z"
         transform="matrix(1.0266143,0,0,1.0266143,-0.999999,0.778362)" />
    </clipPath>
    <linearGradient
       inkscape:collect="always"
       xlink:href="#linearGradient4213"
       id="linearGradient4227"
       gradientUnits="userSpaceOnUse"
       gradientTransform="translate(-12,7)"
       x1="5"
       y1="5"
       x2="9"
       y2="5" />
    <linearGradient
       inkscape:collect="always"
       xlink:href="#linearGradient4213"
       id="linearGradient4233"
       gradientUnits="userSpaceOnUse"
       gradientTransform="translate(-12,12)"
       x1="5"
       y1="5"
       x2="9"
       y2="5" />
    <linearGradient
       inkscape:collect="always"
       xlink:href="#linearGradient4213"
       id="linearGradient4273"
       gradientUnits="userSpaceOnUse"
       gradientTransform="translate(-22,3)"
       x1="5"
       y1="5"
       x2="9"
       y2="5" />
    <linearGradient
       inkscape:collect="always"
       xlink:href="#linearGradient4213"
       id="linearGradient4279"
       gradientUnits="userSpaceOnUse"
       gradientTransform="translate(-12,2)"
       x1="5"
       y1="5"
       x2="9"
       y2="5" />
    <linearGradient
       inkscape:collect="always"
       xlink:href="#linearGradient4315"
       id="linearGradient4321"
       x1="6"
       y1="5"
       x2="9"
       y2="5"
       gradientUnits="userSpaceOnUse"
       gradientTransform="translate(-12,-12)" />
    <linearGradient
       inkscape:collect="always"
       xlink:href="#linearGradient4213"
       id="linearGradient4325"
       gradientUnits="userSpaceOnUse"
       gradientTransform="translate(-17,9)"
       x1="5"
       y1="5"
       x2="9"
       y2="5" />
    <linearGradient
       inkscape:collect="always"
       xlink:href="#linearGradient4213"
       id="linearGradient4329"
       gradientUnits="userSpaceOnUse"
       gradientTransform="translate(-17,4)"
       x1="5"
       y1="5"
       x2="9"
       y2="5" />
    <linearGradient
       inkscape:collect="always"
       xlink:href="#linearGradient4213"
       id="linearGradient4333"
       gradientUnits="userSpaceOnUse"
       gradientTransform="translate(-22,11)"
       x1="5"
       y1="5"
       x2="9"
       y2="5" />
    <linearGradient
       inkscape:collect="always"
       xlink:href="#linearGradient4315"
       id="linearGradient4337"
       gradientUnits="userSpaceOnUse"
       gradientTransform="translate(-12,-22)"
       x1="6"
       y1="5"
       x2="9"
       y2="5" />
    <linearGradient
       inkscape:collect="always"
       xlink:href="#linearGradient4315"
       id="linearGradient4341"
       gradientUnits="userSpaceOnUse"
       gradientTransform="translate(-12,-17)"
       x1="6"
       y1="5"
       x2="9"
       y2="5" />
    <linearGradient
       inkscape:collect="always"
       xlink:href="#linearGradient4315"
       id="linearGradient4345"
       gradientUnits="userSpaceOnUse"
       gradientTransform="translate(-17,-14)"
       x1="6"
       y1="5"
       x2="9"
       y2="5" />
    <linearGradient
       inkscape:collect="always"
       xlink:href="#linearGradient4315"
       id="linearGradient4349"
       gradientUnits="userSpaceOnUse"
       gradientTransform="translate(-17,-19)"
       x1="6"
       y1="5"
       x2="9"
       y2="5" />
    <linearGradient
       inkscape:collect="always"
       xlink:href="#linearGradient4315"
       id="linearGradient4353"
       gradientUnits="userSpaceOnUse"
       gradientTransform="translate(-22,-21)"
       x1="6"
       y1="5"
       x2="9"
       y2="5" />
    <linearGradient
       inkscape:collect="always"
       xlink:href="#linearGradient4315"
       id="linearGradient4357"
       gradientUnits="userSpaceOnUse"
       gradientTransform="translate(-22,-16)"
       x1="6"
       y1="5"
       x2="9"
       y2="5" />
    <linearGradient
       inkscape:collect="always"
       xlink:href="#linearGradient3831"
       id="linearGradient3845"
       x1="11"
       y1="19.5"
       x2="21"
       y2="19.5"
       gradientUnits="userSpaceOnUse"
       spreadMethod="reflect"
       gradientTransform="translate(1,-1)" />
    <linearGradient
       id="linearGradient3831">
      <stop
         style="stop-color:#ffffff;stop-opacity:1;"
         offset="0"
         id="stop3833" />
      <stop
         id="stop3821"
         offset="0.75"
         style="stop-color:#ffffff;stop-opacity:0.49803922;" />
      <stop
         style="stop-color:#ffffff;stop-opacity:0;"
         offset="1"
         id="stop3835" />
    </linearGradient>
    <linearGradient
       y2="16"
       x2="10"
       y1="1"
       x1="10"
       gradientUnits="userSpaceOnUse"
       id="linearGradient3084"
       xlink:href="#linearGradient3823"
       inkscape:collect="always" />
    <linearGradient
       id="linearGradient3823">
      <stop
         id="stop3825"
         offset="0"
         style="stop-color:#ffffff;stop-opacity:1;" />
      <stop
         id="stop3829"
         offset="1"
         style="stop-color:#ffffff;stop-opacity:0;" />
    </linearGradient>
    <linearGradient
       y2="16"
       x2="10"
       y1="1"
       x1="10"
       gradientUnits="userSpaceOnUse"
       id="linearGradient3078"
       xlink:href="#linearGradient3823"
       inkscape:collect="always"
       gradientTransform="translate(1,-1)" />
  </defs>
  <sodipodi:namedview
     id="base"
     pagecolor="#ffffff"
     bordercolor="#e7e7e7"
     borderopacity="1"
     inkscape:pageopacity="0.0"
     inkscape:pageshadow="2"
     inkscape:zoom="24.484741"
     inkscape:cx="0.40045327"
     inkscape:cy="9.7886145"
     inkscape:document-units="px"
     inkscape:current-layer="layer1"
     showgrid="true"
     inkscape:showpageshadow="false"
     showguides="false"
     inkscape:guide-bbox="true"
     inkscape:window-width="1920"
     inkscape:window-height="1026"
     inkscape:window-x="0"
     inkscape:window-y="25"
     inkscape:window-maximized="1"
     inkscape:snap-global="true">
    <sodipodi:guide
       orientation="1,0"
       position="0,112"
       id="guide2383" />
    <sodipodi:guide
       orientation="0,1"
       position="26.278146,128"
       id="guide2385" />
    <sodipodi:guide
       orientation="1,0"
       position="128,54.082119"
       id="guide2387" />
    <sodipodi:guide
       orientation="0,1"
       position="78.156291,0"
       id="guide2389" />
    <sodipodi:guide
       orientation="0,1"
       position="60.863576,64.084768"
       id="guide2391" />
    <inkscape:grid
       type="xygrid"
       id="grid3672"
       visible="true"
       enabled="true"
       empspacing="8"
       snapvisiblegridlinesonly="true" />
  </sodipodi:namedview>
  <metadata
     id="metadata7">
    <rdf:RDF>
      <cc:Work
         rdf:about="">
        <dc:format>image/svg+xml</dc:format>
        <dc:type
           rdf:resource="http://purl.org/dc/dcmitype/StillImage" />
        <dc:title />
      </cc:Work>
    </rdf:RDF>
  </metadata>
  <g
     inkscape:label="Button"
     inkscape:groupmode="layer"
     id="layer1"
     transform="translate(0,2)">
    <g
       style="display:inline"
       id="g3337"
       transform="translate(1,-1)">
      <rect
         ry="2.5"
         rx="2.5"
         y="0.5"
         x="0.5"
         height="21.5"
         width="21"
         id="rect3371"
         style="opacity:0.3;fill:url(#linearGradient3335);fill-opacity:1;stroke:none;display:inline" />
      <rect
         style="opacity:0.5;fill:#000000;fill-opacity:1;stroke:none;display:inline"
         id="rect2553"
         width="20"
         height="20"
         x="1"
         y="2"
         rx="2.3809524"
         ry="2.3255813" />
    </g>
    <rect
       style="opacity:0.95999995;fill:url(#linearGradient3181);fill-opacity:1;fill-rule:evenodd;stroke:none;display:inline"
       id="rect3173"
       width="20"
       height="20"
       x="2"
       y="0"
       rx="2"
       ry="2" />
    <path
       style="opacity:0.6;fill:url(#linearGradient3078);fill-opacity:1;fill-rule:evenodd;stroke:none;display:inline"
       d="M 4,0 C 2.892,0 2,0.892 2,2 l 0,16 c 0,1.108 0.892,2 2,2 l 16,0 c 1.108,0 2,-0.892 2,-2 L 22,2 C 22,0.892 21.108,0 20,0 L 4,0 z m 0,1.03125 16,0 c 0.5497,0 0.96875,0.4190495 0.96875,0.96875 l 0,16 c 0,0.5497 -0.41905,0.96875 -0.96875,0.96875 l -16,0 C 3.4502995,18.96875 3.03125,18.5497 3.03125,18 l 0,-16 C 3.03125,1.4502995 3.4502995,1.03125 4,1.03125 z"
       id="rect3050"
       inkscape:connector-curvature="0" />
    <path
       id="path3235"
       d="M 4,20 C 2.892,20 2,19.108 2,18 l 0,-1 c 0,1.108 0.892,2 2,2 l 16,0 c 1.108,0 2,-0.892 2,-2 l 0,1 c 0,1.108 -0.892,2 -2,2 L 4,20 z"
       style="opacity:0.35;fill:url(#linearGradient3845);fill-opacity:1;fill-rule:evenodd;stroke:none;display:inline"
       inkscape:connector-curvature="0" />
  </g>
  <g
     inkscape:groupmode="layer"
     id="layer2"
     inkscape:label="Highlight"
     transform="translate(0,2)"
     sodipodi:insensitive="true">
    <rect
       style="opacity:0.5;fill:#ffffff;fill-opacity:1;fill-rule:nonzero;stroke:none;display:inline;filter:url(#filter3194)"
       id="rect2410"
       width="16"
       height="16"
       x="3"
       y="3"
       rx="2"
       ry="2"
       clip-path="url(#clipPath2849)"
       transform="translate(1,-1)" />
  </g>
  <g
     inkscape:groupmode="layer"
     id="layer3"
     inkscape:label="Keys"
     transform="translate(0,2)"
     sodipodi:insensitive="true">
    <path
       style="opacity:0.5;color:#000000;fill:#000000;fill-opacity:1;fill-rule:nonzero;stroke:none;stroke-width:1;marker:none;visibility:visible;display:inline;overflow:visible;enable-background:accumulate"
       d="M 5,4 C 4.446,4 4,4.446 4,5 l 0,4 c 0,0.554 0.446,1 1,1 l 1,0 0,4 c -0.554,0 -1,0.446 -1,1 l 0,4 c 0,0.554 0.446,1 1,1 l 12,0 c 0.554,0 1,-0.446 1,-1 l 0,-4 c 0,-0.554 -0.446,-1 -1,-1 l -1,0 0,-4 2,0 c 0.554,0 1,-0.446 1,-1 L 20,5 C 20,4.446 19.554,4 19,4 L 5,4 z"
       transform="translate(0,-2)"
       id="rect4302"
       inkscape:connector-curvature="0" />
    <rect
       style="color:#000000;fill:url(#linearGradient4279);fill-opacity:1;fill-rule:nonzero;stroke:none;stroke-width:1;marker:none;visibility:visible;display:inline;overflow:visible;enable-background:accumulate"
       id="rect3416"
       width="4"
       height="4"
       x="-7"
       y="5"
       rx="0.5"
       transform="matrix(0,-1,1,0,0,0)"
       ry="0.5" />
    <rect
       style="color:#000000;fill:url(#linearGradient4321);fill-opacity:1;fill-rule:nonzero;stroke:none;stroke-width:1;marker:none;visibility:visible;display:inline;overflow:visible;enable-background:accumulate"
       id="rect4221"
       width="2"
       height="2"
       x="-6"
       y="-8"
       rx="0.25"
       ry="0.25"
       transform="matrix(0,-1,-1,0,0,0)" />
    <rect
       ry="0.5"
       transform="matrix(0,-1,1,0,0,0)"
       rx="0.5"
       y="10"
       x="-7"
       height="4"
       width="4"
       id="rect4223"
       style="color:#000000;fill:url(#linearGradient4227);fill-opacity:1;fill-rule:nonzero;stroke:none;stroke-width:1;marker:none;visibility:visible;display:inline;overflow:visible;enable-background:accumulate" />
    <rect
       style="color:#000000;fill:url(#linearGradient4233);fill-opacity:1;fill-rule:nonzero;stroke:none;stroke-width:1;marker:none;visibility:visible;display:inline;overflow:visible;enable-background:accumulate"
       id="rect4229"
       width="4"
       height="4"
       x="-7"
       y="15"
       rx="0.5"
       transform="matrix(0,-1,1,0,0,0)"
       ry="0.5" />
    <rect
       ry="0.5"
       transform="matrix(0,-1,1,0,0,0)"
       rx="0.5"
       y="7"
       x="-12"
       height="4"
       width="4"
       id="rect4241"
       style="color:#000000;fill:url(#linearGradient4329);fill-opacity:1;fill-rule:nonzero;stroke:none;stroke-width:1;marker:none;visibility:visible;display:inline;overflow:visible;enable-background:accumulate" />
    <rect
       style="color:#000000;fill:url(#linearGradient4325);fill-opacity:1;fill-rule:nonzero;stroke:none;stroke-width:1;marker:none;visibility:visible;display:inline;overflow:visible;enable-background:accumulate"
       id="rect4249"
       width="4"
       height="4"
       x="-12"
       y="12"
       rx="0.5"
       transform="matrix(0,-1,1,0,0,0)"
       ry="0.5" />
    <rect
       style="color:#000000;fill:url(#linearGradient4273);fill-opacity:1;fill-rule:nonzero;stroke:none;stroke-width:1;marker:none;visibility:visible;display:inline;overflow:visible;enable-background:accumulate"
       id="rect4257"
       width="4"
       height="7"
       x="-17"
       y="6"
       rx="0.5"
       transform="matrix(0,-1,1,0,0,0)"
       ry="0.5" />
    <rect
       ry="0.5"
       transform="matrix(0,-1,1,0,0,0)"
       rx="0.5"
       y="14"
       x="-17"
       height="4"
       width="4"
       id="rect4265"
       style="color:#000000;fill:url(#linearGradient4333);fill-opacity:1;fill-rule:nonzero;stroke:none;stroke-width:1;marker:none;visibility:visible;display:inline;overflow:visible;enable-background:accumulate" />
    <path
       style="opacity:0.6;color:#000000;fill:#000000;fill-opacity:1;fill-rule:nonzero;stroke:none;stroke-width:1;marker:none;visibility:visible;display:inline;overflow:visible;enable-background:accumulate"
       d="m 5,8.5 0,1 C 5,9.777 5.223,10 5.5,10 l 3,0 C 8.777,10 9,9.777 9,9.5 l 0,-1 C 9,8.777 8.777,9 8.5,9 l -3,0 C 5.223,9 5,8.777 5,8.5 z m 5,0 0,1 c 0,0.277 0.223,0.5 0.5,0.5 l 3,0 C 13.777,10 14,9.777 14,9.5 l 0,-1 C 14,8.777 13.777,9 13.5,9 l -3,0 C 10.223,9 10,8.777 10,8.5 z m 5,0 0,1 c 0,0.277 0.223,0.5 0.5,0.5 l 3,0 C 18.777,10 19,9.777 19,9.5 l 0,-1 C 19,8.777 18.777,9 18.5,9 l -3,0 C 15.223,9 15,8.777 15,8.5 z m -8,5 0,1 C 7,14.777 7.223,15 7.5,15 l 3,0 c 0.277,0 0.5,-0.223 0.5,-0.5 l 0,-1 c 0,0.277 -0.223,0.5 -0.5,0.5 l -3,0 C 7.223,14 7,13.777 7,13.5 z m 5,0 0,1 c 0,0.277 0.223,0.5 0.5,0.5 l 3,0 c 0.277,0 0.5,-0.223 0.5,-0.5 l 0,-1 c 0,0.277 -0.223,0.5 -0.5,0.5 l -3,0 C 12.223,14 12,13.777 12,13.5 z m -6,5 0,1 C 6,19.777 6.223,20 6.5,20 l 6,0 c 0.277,0 0.5,-0.223 0.5,-0.5 l 0,-1 c 0,0.277 -0.223,0.5 -0.5,0.5 l -6,0 C 6.223,19 6,18.777 6,18.5 z m 8,0 0,1 c 0,0.277 0.223,0.5 0.5,0.5 l 3,0 c 0.277,0 0.5,-0.223 0.5,-0.5 l 0,-1 c 0,0.277 -0.223,0.5 -0.5,0.5 l -3,0 C 14.223,19 14,18.777 14,18.5 z"
       transform="translate(0,-2)"
       id="rect4281"
       inkscape:connector-curvature="0" />
    <path
       style="opacity:0.6;color:#000000;fill:#ffffff;fill-opacity:1;fill-rule:nonzero;stroke:none;stroke-width:1;marker:none;visibility:visible;display:inline;overflow:visible;enable-background:accumulate"
       d="m 4,9 0,1 c 0,0.554 0.446,1 1,1 l 1,0 0,-1 -1,0 C 4.446,10 4,9.554 4,9 z m 16,0 c 0,0.554 -0.446,1 -1,1 l -2,0 0,1 2,0 c 0.554,0 1,-0.446 1,-1 L 20,9 z M 5,19 5,20 c 0,0.554 0.446,1 1,1 l 12,0 c 0.554,0 1,-0.446 1,-1 l 0,-1 c 0,0.554 -0.446,1 -1,1 L 6,20 C 5.446,20 5,19.554 5,19 z"
       transform="translate(0,-2)"
       id="path4310"
       inkscape:connector-curvature="0" />
    <rect
       transform="matrix(0,-1,-1,0,0,0)"
       ry="0.25"
       rx="0.25"
       y="-18"
       x="-6"
       height="2"
       width="2"
       id="rect4335"
       style="color:#000000;fill:url(#linearGradient4337);fill-opacity:1;fill-rule:nonzero;stroke:none;stroke-width:1;marker:none;visibility:visible;display:inline;overflow:visible;enable-background:accumulate" />
    <rect
       style="color:#000000;fill:url(#linearGradient4341);fill-opacity:1;fill-rule:nonzero;stroke:none;stroke-width:1;marker:none;visibility:visible;display:inline;overflow:visible;enable-background:accumulate"
       id="rect4339"
       width="2"
       height="2"
       x="-6"
       y="-13"
       rx="0.25"
       ry="0.25"
       transform="matrix(0,-1,-1,0,0,0)" />
    <rect
       transform="matrix(0,-1,-1,0,0,0)"
       ry="0.25"
       rx="0.25"
       y="-10"
       x="-11"
       height="2"
       width="2"
       id="rect4343"
       style="color:#000000;fill:url(#linearGradient4345);fill-opacity:1;fill-rule:nonzero;stroke:none;stroke-width:1;marker:none;visibility:visible;display:inline;overflow:visible;enable-background:accumulate" />
    <rect
       style="color:#000000;fill:url(#linearGradient4349);fill-opacity:1;fill-rule:nonzero;stroke:none;stroke-width:1;marker:none;visibility:visible;display:inline;overflow:visible;enable-background:accumulate"
       id="rect4347"
       width="2"
       height="2"
       x="-11"
       y="-15"
       rx="0.25"
       ry="0.25"
       transform="matrix(0,-1,-1,0,0,0)" />
    <rect
       transform="matrix(0,-1,-1,0,0,0)"
       ry="0.25"
       rx="0.25"
       y="-17"
       x="-16"
       height="2"
       width="2"
       id="rect4351"
       style="color:#000000;fill:url(#linearGradient4353);fill-opacity:1;fill-rule:nonzero;stroke:none;stroke-width:1;marker:none;visibility:visible;display:inline;overflow:visible;enable-background:accumulate" />
    <rect
       style="color:#000000;fill:url(#linearGradient4357);fill-opacity:1;fill-rule:nonzero;stroke:none;stroke-width:1;marker:none;visibility:visible;display:inline;overflow:visible;enable-background:accumulate"
       id="rect4355"
       width="2"
       height="5"
       x="-16"
       y="-12"
       rx="0.25"
       ry="0.25"
       transform="matrix(0,-1,-1,0,0,0)" />
    <rect
       style="opacity:0.3;color:#000000;fill:#000000;fill-opacity:1;fill-rule:nonzero;stroke:none;stroke-width:1;marker:none;visibility:visible;display:inline;overflow:visible;enable-background:accumulate"
       id="rect4360"
       width="1"
       height="1"
       x="6"
       y="6"
       transform="translate(0,-2)" />
    <rect
       y="4"
       x="11"
       height="1"
       width="1"
       id="rect4364"
       style="opacity:0.4;color:#000000;fill:#000000;fill-opacity:1;fill-rule:nonzero;stroke:none;stroke-width:1;marker:none;visibility:visible;display:inline;overflow:visible;enable-background:accumulate" />
    <rect
       style="opacity:0.3;color:#000000;fill:#000000;fill-opacity:1;fill-rule:nonzero;stroke:none;stroke-width:1;marker:none;visibility:visible;display:inline;overflow:visible;enable-background:accumulate"
       id="rect4366"
       width="1"
       height="1"
       x="16"
       y="4" />
    <rect
       y="9"
       x="13"
       height="1"
       width="1"
       id="rect4368"
       style="opacity:0.3;color:#000000;fill:#000000;fill-opacity:1;fill-rule:nonzero;stroke:none;stroke-width:1;marker:none;visibility:visible;display:inline;overflow:visible;enable-background:accumulate" />
    <rect
       style="opacity:0.3;color:#000000;fill:#000000;fill-opacity:1;fill-rule:nonzero;stroke:none;stroke-width:1;marker:none;visibility:visible;display:inline;overflow:visible;enable-background:accumulate"
       id="rect4370"
       width="1"
       height="1"
       x="8"
       y="9" />
    <rect
       y="14"
       x="7"
       height="1"
       width="1"
       id="rect4372"
       style="opacity:0.5;color:#000000;fill:#000000;fill-opacity:1;fill-rule:nonzero;stroke:none;stroke-width:1;marker:none;visibility:visible;display:inline;overflow:visible;enable-background:accumulate" />
    <rect
       style="opacity:0.3;color:#000000;fill:#000000;fill-opacity:1;fill-rule:nonzero;stroke:none;stroke-width:1;marker:none;visibility:visible;display:inline;overflow:visible;enable-background:accumulate"
       id="rect4374"
       width="1"
       height="1"
       x="8"
       y="14" />
    <rect
       y="14"
       x="9"
       height="1"
       width="1"
       id="rect4376"
       style="opacity:0.4;color:#000000;fill:#000000;fill-opacity:1;fill-rule:nonzero;stroke:none;stroke-width:1;marker:none;visibility:visible;display:inline;overflow:visible;enable-background:accumulate" />
    <rect
       style="opacity:0.3;color:#000000;fill:#000000;fill-opacity:1;fill-rule:nonzero;stroke:none;stroke-width:1;marker:none;visibility:visible;display:inline;overflow:visible;enable-background:accumulate"
       id="rect4378"
       width="1"
       height="1"
       x="15"
       y="14" />
  </g>
</svg>
