<?xml version="1.0" encoding="UTF-8" standalone="no"?>
<!-- Created with Inkscape (http://www.inkscape.org/) -->

<svg
   xmlns:dc="http://purl.org/dc/elements/1.1/"
   xmlns:cc="http://creativecommons.org/ns#"
   xmlns:rdf="http://www.w3.org/1999/02/22-rdf-syntax-ns#"
   xmlns:svg="http://www.w3.org/2000/svg"
   xmlns="http://www.w3.org/2000/svg"
   xmlns:xlink="http://www.w3.org/1999/xlink"
   xmlns:sodipodi="http://sodipodi.sourceforge.net/DTD/sodipodi-0.dtd"
   xmlns:inkscape="http://www.inkscape.org/namespaces/inkscape"
   width="24"
   height="24"
   id="svg2"
   sodipodi:version="0.32"
   inkscape:version="0.48.0 r9654"
   version="1.0"
   sodipodi:docname="preferences-desktop-keyboard-shortcuts.svg"
   inkscape:output_extension="org.inkscape.output.svg.inkscape"
   style="display:inline">
  <defs
     id="defs4">
    <linearGradient
       id="linearGradient4315">
      <stop
         style="stop-color:#ffffff;stop-opacity:1;"
         offset="0"
         id="stop4317" />
      <stop
         style="stop-color:#ffffff;stop-opacity:0;"
         offset="1"
         id="stop4319" />
    </linearGradient>
    <linearGradient
       id="linearGradient4213">
      <stop
         style="stop-color:#989898;stop-opacity:1;"
         offset="0"
         id="stop4215" />
      <stop
         style="stop-color:#e3e3e3;stop-opacity:1;"
         offset="1"
         id="stop4217" />
    </linearGradient>
    <linearGradient
       inkscape:collect="always"
       id="linearGradient3327">
      <stop
         style="stop-color:#000000;stop-opacity:1;"
         offset="0"
         id="stop3330" />
      <stop
         style="stop-color:#000000;stop-opacity:0;"
         offset="1"
         id="stop3333" />
    </linearGradient>
    <linearGradient
       inkscape:collect="always"
       xlink:href="#linearGradient3327"
       id="linearGradient3335"
       x1="11.375"
       y1="22"
       x2="11.375"
       y2="-9.817296"
       gradientUnits="userSpaceOnUse" />
    <linearGradient
       inkscape:collect="always"
       xlink:href="#linearGradient3641"
       id="linearGradient3181"
       x1="-3.0607977"
       y1="27.258198"
       x2="-3.0607977"
       y2="7.2536583"
       gradientUnits="userSpaceOnUse"
       gradientTransform="translate(12.119372,-7.2581977)" />
    <inkscape:perspective
       sodipodi:type="inkscape:persp3d"
       inkscape:vp_x="0 : 11 : 1"
       inkscape:vp_y="0 : 1000 : 0"
       inkscape:vp_z="22 : 11 : 1"
       inkscape:persp3d-origin="11 : 7.3333333 : 1"
       id="perspective2531" />
    <linearGradient
       id="ButtonShadow"
       gradientTransform="scale(0.9883037,1.0118347)"
       x1="9.3550024"
       y1="21.742682"
       x2="9.3550024"
       y2="0.49362123"
       gradientUnits="userSpaceOnUse">
      <stop
         id="stop3277"
         offset="0"
         style="stop-color:#000000;stop-opacity:0.70588237;" />
      <stop
         id="stop3279"
         offset="1"
         style="stop-color:#000000;stop-opacity:0.15686275;" />
    </linearGradient>
    <linearGradient
       inkscape:collect="always"
       id="linearGradient3232">
      <stop
         style="stop-color:#000000;stop-opacity:1;"
         offset="0"
         id="stop3234" />
      <stop
         style="stop-color:#000000;stop-opacity:0;"
         offset="1"
         id="stop3236" />
    </linearGradient>
    <linearGradient
       gradientUnits="userSpaceOnUse"
       y2="-6.0004225"
       x2="11"
       y1="14.805666"
       x1="11"
       id="linearGradient3221"
       xlink:href="#linearGradient3232"
       inkscape:collect="always" />
    <linearGradient
       id="ButtonColor"
       x1="10.31979"
       y1="21"
       x2="10.31979"
       y2="0.99929649"
       gradientUnits="userSpaceOnUse">
      <stop
         style="stop-color:#29669f;stop-opacity:1;"
         offset="0"
         id="stop3189" />
      <stop
         style="stop-color:#88b6e0;stop-opacity:1;"
         offset="1"
         id="stop3191" />
    </linearGradient>
    <linearGradient
       inkscape:collect="always"
       xlink:href="#ButtonShadow"
       id="linearGradient38042"
       gradientUnits="userSpaceOnUse"
       gradientTransform="scale(0.9883037,1.0118347)"
       x1="9.3550024"
       y1="21.742682"
       x2="9.3550024"
       y2="0.49362123" />
    <filter
       inkscape:collect="always"
       id="filter3194"
       x="-0.18000001"
       width="1.36"
       y="-0.18000001"
       height="1.36"
       color-interpolation-filters="sRGB">
      <feGaussianBlur
         inkscape:collect="always"
         stdDeviation="1.2"
         id="feGaussianBlur3196" />
    </filter>
    <clipPath
       clipPathUnits="userSpaceOnUse"
       id="clipPath2849">
      <rect
         ry="2"
         rx="2"
         y="1"
         x="1"
         height="20"
         width="20"
         id="rect2851"
         style="fill:#ffffff;fill-opacity:1;fill-rule:evenodd;stroke:none;display:inline" />
    </clipPath>
    <inkscape:perspective
       id="perspective3999"
       inkscape:persp3d-origin="0.5 : 0.33333333 : 1"
       inkscape:vp_z="1 : 0.5 : 1"
       inkscape:vp_y="0 : 1000 : 0"
       inkscape:vp_x="0 : 0.5 : 1"
       sodipodi:type="inkscape:persp3d" />
    <linearGradient
       inkscape:collect="always"
       xlink:href="#linearGradient3641"
       id="linearGradient3617"
       gradientUnits="userSpaceOnUse"
       x1="48"
       y1="90"
       x2="48"
       y2="5.9877172" />
    <linearGradient
       id="linearGradient3641">
      <stop
         id="stop3643"
         offset="0"
         style="stop-color:#b4b4b4;stop-opacity:1;" />
      <stop
         id="stop3645"
         offset="1"
         style="stop-color:#dcdcdc;stop-opacity:1;" />
    </linearGradient>
    <inkscape:perspective
       id="perspective4018"
       inkscape:persp3d-origin="0.5 : 0.33333333 : 1"
       inkscape:vp_z="1 : 0.5 : 1"
       inkscape:vp_y="0 : 1000 : 0"
       inkscape:vp_x="0 : 0.5 : 1"
       sodipodi:type="inkscape:persp3d" />
    <linearGradient
       id="linearGradient3746">
      <stop
         style="stop-color:#404040;stop-opacity:1;"
         offset="0"
         id="stop3748" />
      <stop
         id="stop3753"
         offset="0.60000002"
         style="stop-color:#0a0a0a;stop-opacity:1;" />
      <stop
         id="stop3751"
         offset="1"
         style="stop-color:#4e4e4e;stop-opacity:1;" />
    </linearGradient>
    <linearGradient
       id="linearGradient3732">
      <stop
         style="stop-color:#000000;stop-opacity:0;"
         offset="0"
         id="stop3734" />
      <stop
         id="stop3740"
         offset="0.94999999"
         style="stop-color:#000000;stop-opacity:0;" />
      <stop
         style="stop-color:#000000;stop-opacity:1;"
         offset="1"
         id="stop3736" />
    </linearGradient>
    <linearGradient
       id="linearGradient3650">
      <stop
         id="stop3709"
         offset="0"
         style="stop-color:#141414;stop-opacity:1;" />
      <stop
         style="stop-color:#616161;stop-opacity:1;"
         offset="1"
         id="stop3654" />
    </linearGradient>
    <linearGradient
       id="linearGradient3719">
      <stop
         style="stop-color:#4b4b4b;stop-opacity:1"
         offset="0"
         id="stop3721" />
      <stop
         id="stop3723"
         offset="0.37373093"
         style="stop-color:#232323;stop-opacity:1;" />
      <stop
         style="stop-color:#5c5c5c;stop-opacity:1"
         offset="1"
         id="stop3725" />
    </linearGradient>
    <linearGradient
       inkscape:collect="always"
       xlink:href="#linearGradient3664"
       id="linearGradient3670"
       x1="16.162441"
       y1="52.098946"
       x2="76.838295"
       y2="52.098946"
       gradientUnits="userSpaceOnUse" />
    <linearGradient
       id="linearGradient3664">
      <stop
         style="stop-color:#000000;stop-opacity:0.29838711;"
         offset="0"
         id="stop3666" />
      <stop
         style="stop-color:#ffffff;stop-opacity:0.64516127;"
         offset="1"
         id="stop3668" />
    </linearGradient>
    <inkscape:perspective
       id="perspective4066"
       inkscape:persp3d-origin="0.5 : 0.33333333 : 1"
       inkscape:vp_z="1 : 0.5 : 1"
       inkscape:vp_y="0 : 1000 : 0"
       inkscape:vp_x="0 : 0.5 : 1"
       sodipodi:type="inkscape:persp3d" />
    <linearGradient
       id="linearGradient3681">
      <stop
         style="stop-color:#ffffff;stop-opacity:0.18548387"
         offset="0"
         id="stop3683" />
      <stop
         id="stop3689"
         offset="0.3086735"
         style="stop-color:#ffffff;stop-opacity:0.10887097" />
      <stop
         style="stop-color:#000000;stop-opacity:0"
         offset="0.43622452"
         id="stop3691" />
      <stop
         id="stop3693"
         offset="0.54464293"
         style="stop-color:#000000;stop-opacity:0" />
      <stop
         style="stop-color:#ffffff;stop-opacity:0"
         offset="0.58290821"
         id="stop3695" />
      <stop
         id="stop3697"
         offset="0.61479598"
         style="stop-color:#000000;stop-opacity:0.18145161" />
      <stop
         style="stop-color:#000000;stop-opacity:0.43145161"
         offset="0.69132656"
         id="stop3699" />
      <stop
         id="stop3701"
         offset="0.78061229"
         style="stop-color:#ffffff;stop-opacity:0.08064516" />
      <stop
         style="stop-color:#000000;stop-opacity:0"
         offset="0.87627554"
         id="stop3703" />
      <stop
         style="stop-color:#ffffff;stop-opacity:0"
         offset="1"
         id="stop3685" />
    </linearGradient>
    <inkscape:perspective
       id="perspective4139"
       inkscape:persp3d-origin="0.5 : 0.33333333 : 1"
       inkscape:vp_z="1 : 0.5 : 1"
       inkscape:vp_y="0 : 1000 : 0"
       inkscape:vp_x="0 : 0.5 : 1"
       sodipodi:type="inkscape:persp3d" />
    <linearGradient
       id="linearGradient3797">
      <stop
         style="stop-color:#ffffff;stop-opacity:1;"
         offset="0"
         id="stop3799" />
      <stop
         id="stop3805"
         offset="0.5"
         style="stop-color:#ffffff;stop-opacity:1;" />
      <stop
         style="stop-color:#ffffff;stop-opacity:0;"
         offset="1"
         id="stop3801" />
    </linearGradient>
    <linearGradient
       id="linearGradient3881">
      <stop
         style="stop-color:#d40000;stop-opacity:0;"
         offset="0"
         id="stop3883" />
      <stop
         id="stop3889"
         offset="0.5"
         style="stop-color:#d40000;stop-opacity:1;" />
      <stop
         style="stop-color:#d40000;stop-opacity:0;"
         offset="1"
         id="stop3885" />
    </linearGradient>
    <linearGradient
       id="linearGradient3891">
      <stop
         style="stop-color:#d42aff;stop-opacity:0;"
         offset="0"
         id="stop3893" />
      <stop
         id="stop3899"
         offset="0.5"
         style="stop-color:#d42aff;stop-opacity:1;" />
      <stop
         style="stop-color:#d42aff;stop-opacity:0;"
         offset="1"
         id="stop3895" />
    </linearGradient>
    <linearGradient
       id="linearGradient3901">
      <stop
         style="stop-color:#6600ff;stop-opacity:0;"
         offset="0"
         id="stop3903" />
      <stop
         id="stop3909"
         offset="0.5"
         style="stop-color:#6600ff;stop-opacity:1;" />
      <stop
         style="stop-color:#6600ff;stop-opacity:0;"
         offset="1"
         id="stop3905" />
    </linearGradient>
    <linearGradient
       id="linearGradient3911">
      <stop
         style="stop-color:#2a7fff;stop-opacity:0;"
         offset="0"
         id="stop3913" />
      <stop
         id="stop3919"
         offset="0.5"
         style="stop-color:#2a7fff;stop-opacity:1;" />
      <stop
         style="stop-color:#2a7fff;stop-opacity:0;"
         offset="1"
         id="stop3915" />
    </linearGradient>
    <linearGradient
       id="linearGradient3921">
      <stop
         style="stop-color:#5fd3bc;stop-opacity:0;"
         offset="0"
         id="stop3923" />
      <stop
         id="stop3929"
         offset="0.5"
         style="stop-color:#5fd3bc;stop-opacity:1;" />
      <stop
         style="stop-color:#5fd3bc;stop-opacity:0;"
         offset="1"
         id="stop3925" />
    </linearGradient>
    <linearGradient
       id="linearGradient3851">
      <stop
         style="stop-color:#55d400;stop-opacity:0;"
         offset="0"
         id="stop3853" />
      <stop
         id="stop3859"
         offset="0.5"
         style="stop-color:#55d400;stop-opacity:1;" />
      <stop
         style="stop-color:#55d400;stop-opacity:0;"
         offset="1"
         id="stop3855" />
    </linearGradient>
    <linearGradient
       id="linearGradient3861">
      <stop
         style="stop-color:#ffcc00;stop-opacity:0;"
         offset="0"
         id="stop3863" />
      <stop
         id="stop3869"
         offset="0.5"
         style="stop-color:#ffcc00;stop-opacity:1;" />
      <stop
         style="stop-color:#ffcc00;stop-opacity:0;"
         offset="1"
         id="stop3865" />
    </linearGradient>
    <linearGradient
       id="linearGradient3871">
      <stop
         style="stop-color:#ff6600;stop-opacity:0;"
         offset="0"
         id="stop3873" />
      <stop
         id="stop3879"
         offset="0.5"
         style="stop-color:#ff6600;stop-opacity:1;" />
      <stop
         style="stop-color:#ff6600;stop-opacity:0;"
         offset="1"
         id="stop3875" />
    </linearGradient>
    <clipPath
       clipPathUnits="userSpaceOnUse"
       id="clipPath3798">
      <path
         sodipodi:type="arc"
         style="fill:#ff00ff;fill-opacity:1;stroke:none"
         id="path3800"
         sodipodi:cx="47.729706"
         sodipodi:cy="45.997448"
         sodipodi:rx="13.637059"
         sodipodi:ry="13.637059"
         d="m 61.366765,45.997448 a 13.637059,13.637059 0 1 1 -27.274118,0 13.637059,13.637059 0 1 1 27.274118,0 z"
         transform="matrix(1.0266143,0,0,1.0266143,-0.999999,0.778362)" />
    </clipPath>
    <linearGradient
       inkscape:collect="always"
       xlink:href="#linearGradient4213"
       id="linearGradient4227"
       gradientUnits="userSpaceOnUse"
       gradientTransform="translate(-12,7)"
       x1="5"
       y1="5"
       x2="9"
       y2="5" />
    <linearGradient
       inkscape:collect="always"
       xlink:href="#linearGradient4213"
       id="linearGradient4233"
       gradientUnits="userSpaceOnUse"
       gradientTransform="translate(-12,12)"
       x1="5"
       y1="5"
       x2="9"
       y2="5" />
    <linearGradient
       inkscape:collect="always"
       xlink:href="#linearGradient4213"
       id="linearGradient4273"
       gradientUnits="userSpaceOnUse"
       gradientTransform="translate(-22,3)"
       x1="5"
       y1="5"
       x2="9"
       y2="5" />
    <linearGradient
       inkscape:collect="always"
       xlink:href="#linearGradient4213"
       id="linearGradient4279"
       gradientUnits="userSpaceOnUse"
       gradientTransform="translate(-12,2)"
       x1="5"
       y1="5"
       x2="9"
       y2="5" />
    <linearGradient
       inkscape:collect="always"
       xlink:href="#linearGradient4315"
       id="linearGradient4321"
       x1="6"
       y1="5"
       x2="9"
       y2="5"
       gradientUnits="userSpaceOnUse"
       gradientTransform="translate(-12,-12)" />
    <linearGradient
       inkscape:collect="always"
       xlink:href="#linearGradient4213"
       id="linearGradient4325"
       gradientUnits="userSpaceOnUse"
       gradientTransform="translate(-17,9)"
       x1="5"
       y1="5"
       x2="9"
       y2="5" />
    <linearGradient
       inkscape:collect="always"
       xlink:href="#linearGradient4213"
       id="linearGradient4329"
       gradientUnits="userSpaceOnUse"
       gradientTransform="translate(-14,3)"
       x1="5"
       y1="5"
       x2="11"
       y2="5" />
    <linearGradient
       inkscape:collect="always"
       xlink:href="#linearGradient4213"
       id="linearGradient4333"
       gradientUnits="userSpaceOnUse"
       gradientTransform="translate(-22,11)"
       x1="5"
       y1="5"
       x2="9"
       y2="5" />
    <linearGradient
       inkscape:collect="always"
       xlink:href="#linearGradient4315"
       id="linearGradient4337"
       gradientUnits="userSpaceOnUse"
       gradientTransform="translate(-12,-22)"
       x1="6"
       y1="5"
       x2="9"
       y2="5" />
    <linearGradient
       inkscape:collect="always"
       xlink:href="#linearGradient4315"
       id="linearGradient4341"
       gradientUnits="userSpaceOnUse"
       gradientTransform="translate(-12,-17)"
       x1="6"
       y1="5"
       x2="9"
       y2="5" />
    <linearGradient
       inkscape:collect="always"
       xlink:href="#linearGradient4315"
       id="linearGradient4345"
       gradientUnits="userSpaceOnUse"
       gradientTransform="translate(-14,-15)"
       x1="6"
       y1="5"
       x2="11"
       y2="5" />
    <linearGradient
       inkscape:collect="always"
       xlink:href="#linearGradient4315"
       id="linearGradient4349"
       gradientUnits="userSpaceOnUse"
       gradientTransform="translate(-17,-19)"
       x1="6"
       y1="5"
       x2="9"
       y2="5" />
    <linearGradient
       inkscape:collect="always"
       xlink:href="#linearGradient4315"
       id="linearGradient4353"
       gradientUnits="userSpaceOnUse"
       gradientTransform="translate(-22,-21)"
       x1="6"
       y1="5"
       x2="9"
       y2="5" />
    <linearGradient
       inkscape:collect="always"
       xlink:href="#linearGradient4315"
       id="linearGradient4357"
       gradientUnits="userSpaceOnUse"
       gradientTransform="translate(-22,-16)"
       x1="6"
       y1="5"
       x2="9"
       y2="5" />
    <linearGradient
       inkscape:collect="always"
       xlink:href="#linearGradient4213"
       id="linearGradient3996"
       gradientUnits="userSpaceOnUse"
       gradientTransform="translate(-17,-26)"
       x1="5"
       y1="5"
       x2="9"
       y2="5" />
    <linearGradient
       inkscape:collect="always"
       xlink:href="#linearGradient4213"
       id="linearGradient3998"
       gradientUnits="userSpaceOnUse"
       gradientTransform="translate(-17,-21)"
       x1="5"
       y1="5"
       x2="9"
       y2="5" />
    <linearGradient
       inkscape:collect="always"
       xlink:href="#linearGradient4213"
       id="linearGradient4000"
       gradientUnits="userSpaceOnUse"
       gradientTransform="translate(-22,-27)"
       x1="5"
       y1="5"
       x2="9"
       y2="5" />
    <linearGradient
       inkscape:collect="always"
       xlink:href="#linearGradient4315"
       id="linearGradient4002"
       gradientUnits="userSpaceOnUse"
       gradientTransform="translate(-17,16)"
       x1="6"
       y1="5"
       x2="9"
       y2="5" />
    <linearGradient
       inkscape:collect="always"
       xlink:href="#linearGradient4315"
       id="linearGradient4004"
       gradientUnits="userSpaceOnUse"
       gradientTransform="translate(-17,11)"
       x1="6"
       y1="5"
       x2="9"
       y2="5" />
    <linearGradient
       inkscape:collect="always"
       xlink:href="#linearGradient4315"
       id="linearGradient4006"
       gradientUnits="userSpaceOnUse"
       gradientTransform="translate(-22,14)"
       x1="6"
       y1="5"
       x2="9"
       y2="5" />
    <linearGradient
       inkscape:collect="always"
       xlink:href="#linearGradient4213"
       id="linearGradient4012"
       gradientUnits="userSpaceOnUse"
       gradientTransform="translate(-15,10)"
       x1="5"
       y1="5"
       x2="9"
       y2="5" />
    <linearGradient
       inkscape:collect="always"
       xlink:href="#linearGradient4315"
       id="linearGradient4014"
       gradientUnits="userSpaceOnUse"
       gradientTransform="translate(-14,-23)"
       x1="6"
       y1="5"
       x2="9"
       y2="5" />
    <linearGradient
       inkscape:collect="always"
       xlink:href="#linearGradient4213"
       id="linearGradient4020"
       gradientUnits="userSpaceOnUse"
       gradientTransform="translate(-15,10)"
       x1="5"
       y1="5"
       x2="9"
       y2="5" />
    <linearGradient
       inkscape:collect="always"
       xlink:href="#linearGradient4315"
       id="linearGradient4022"
       gradientUnits="userSpaceOnUse"
       gradientTransform="translate(-14,-22)"
       x1="6"
       y1="5"
       x2="9"
       y2="5" />
    <linearGradient
       inkscape:collect="always"
       xlink:href="#linearGradient4213"
       id="linearGradient4028"
       gradientUnits="userSpaceOnUse"
       gradientTransform="translate(-23,2)"
       x1="5"
       y1="5"
       x2="9"
       y2="5" />
    <linearGradient
       inkscape:collect="always"
       xlink:href="#linearGradient4315"
       id="linearGradient4030"
       gradientUnits="userSpaceOnUse"
       gradientTransform="translate(-22,-14)"
       x1="6"
       y1="5"
       x2="9"
       y2="5" />
    <linearGradient
       inkscape:collect="always"
       xlink:href="#linearGradient4213"
       id="linearGradient4036"
       gradientUnits="userSpaceOnUse"
       gradientTransform="translate(-14,10)"
       x1="5"
       y1="5"
       x2="11"
       y2="5" />
    <linearGradient
       inkscape:collect="always"
       xlink:href="#linearGradient4315"
       id="linearGradient4038"
       gradientUnits="userSpaceOnUse"
       gradientTransform="translate(-14,-22)"
       x1="6"
       y1="5"
       x2="11"
       y2="5" />
    <linearGradient
       inkscape:collect="always"
       xlink:href="#linearGradient4213"
       id="linearGradient4044"
       gradientUnits="userSpaceOnUse"
       gradientTransform="translate(-21,2)"
       x1="5"
       y1="5"
       x2="11"
       y2="5" />
    <linearGradient
       inkscape:collect="always"
       xlink:href="#linearGradient4315"
       id="linearGradient4046"
       gradientUnits="userSpaceOnUse"
       gradientTransform="translate(-21,-14)"
       x1="6"
       y1="5"
       x2="11"
       y2="5" />
    <linearGradient
       inkscape:collect="always"
       xlink:href="#linearGradient4315"
       id="linearGradient4060"
       gradientUnits="userSpaceOnUse"
       gradientTransform="matrix(0,-1,-1,0,15,21)"
       x1="6"
       y1="5"
       x2="11"
       y2="5" />
    <linearGradient
       inkscape:collect="always"
       xlink:href="#linearGradient4213"
       id="linearGradient4062"
       gradientUnits="userSpaceOnUse"
       gradientTransform="matrix(0,-1,1,0,3,21)"
       x1="5"
       y1="5"
       x2="11"
       y2="5" />
    <linearGradient
       inkscape:collect="always"
       xlink:href="#linearGradient4213"
       id="linearGradient4066"
       gradientUnits="userSpaceOnUse"
       gradientTransform="translate(-14,10)"
       x1="5"
       y1="5"
       x2="11"
       y2="5" />
    <linearGradient
       inkscape:collect="always"
       xlink:href="#linearGradient4213"
       id="linearGradient4092"
       gradientUnits="userSpaceOnUse"
       gradientTransform="matrix(0,-1,1,0,20,16)"
       x1="5"
       y1="5"
       x2="11"
       y2="5" />
    <linearGradient
       inkscape:collect="always"
       xlink:href="#linearGradient4315"
       id="linearGradient4094"
       gradientUnits="userSpaceOnUse"
       gradientTransform="translate(-14,-32)"
       x1="6"
       y1="5"
       x2="11"
       y2="5" />
    <linearGradient
       y2="16"
       x2="10"
       y1="1"
       x1="10"
       gradientUnits="userSpaceOnUse"
       id="linearGradient3078"
       xlink:href="#linearGradient3823"
       inkscape:collect="always"
       gradientTransform="translate(1,-1)" />
    <linearGradient
       id="linearGradient3823">
      <stop
         id="stop3825"
         offset="0"
         style="stop-color:#ffffff;stop-opacity:1;" />
      <stop
         id="stop3829"
         offset="1"
         style="stop-color:#ffffff;stop-opacity:0;" />
    </linearGradient>
    <linearGradient
       inkscape:collect="always"
       xlink:href="#linearGradient3831"
       id="linearGradient3845"
       x1="11"
       y1="19.5"
       x2="21"
       y2="19.5"
       gradientUnits="userSpaceOnUse"
       spreadMethod="reflect"
       gradientTransform="translate(1,-1)" />
    <linearGradient
       id="linearGradient3831">
      <stop
         style="stop-color:#ffffff;stop-opacity:1;"
         offset="0"
         id="stop3833" />
      <stop
         id="stop3821"
         offset="0.75"
         style="stop-color:#ffffff;stop-opacity:0.49803922;" />
      <stop
         style="stop-color:#ffffff;stop-opacity:0;"
         offset="1"
         id="stop3835" />
    </linearGradient>
    <linearGradient
       y2="16"
       x2="10"
       y1="1"
       x1="10"
       gradientTransform="translate(1,-1)"
       gradientUnits="userSpaceOnUse"
       id="linearGradient3961"
       xlink:href="#linearGradient3823"
       inkscape:collect="always" />
  </defs>
  <sodipodi:namedview
     id="base"
     pagecolor="#ffffff"
     bordercolor="#e7e7e7"
     borderopacity="1"
     inkscape:pageopacity="0.0"
     inkscape:pageshadow="2"
     inkscape:zoom="12.315648"
     inkscape:cx="-20.812469"
     inkscape:cy="0.95750174"
     inkscape:document-units="px"
     inkscape:current-layer="layer1"
     showgrid="true"
     inkscape:showpageshadow="false"
     showguides="false"
     inkscape:guide-bbox="true"
     inkscape:window-width="1920"
     inkscape:window-height="1026"
     inkscape:window-x="0"
     inkscape:window-y="25"
     inkscape:window-maximized="1"
     inkscape:snap-global="true">
    <sodipodi:guide
       orientation="1,0"
       position="0,112"
       id="guide2383" />
    <sodipodi:guide
       orientation="0,1"
       position="26.278146,128"
       id="guide2385" />
    <sodipodi:guide
       orientation="1,0"
       position="128,54.082119"
       id="guide2387" />
    <sodipodi:guide
       orientation="0,1"
       position="78.156291,0"
       id="guide2389" />
    <sodipodi:guide
       orientation="0,1"
       position="60.863576,64.084768"
       id="guide2391" />
    <inkscape:grid
       type="xygrid"
       id="grid3672"
       visible="true"
       enabled="true"
       empspacing="8"
       snapvisiblegridlinesonly="true" />
  </sodipodi:namedview>
  <metadata
     id="metadata7">
    <rdf:RDF>
      <cc:Work
         rdf:about="">
        <dc:format>image/svg+xml</dc:format>
        <dc:type
           rdf:resource="http://purl.org/dc/dcmitype/StillImage" />
        <dc:title />
      </cc:Work>
    </rdf:RDF>
  </metadata>
  <g
     inkscape:label="Button"
     inkscape:groupmode="layer"
     id="layer1"
     transform="translate(0,2)">
    <g
       style="display:inline"
       id="g3337"
       transform="translate(1,-1)">
      <rect
         ry="2.5"
         rx="2.5"
         y="0.5"
         x="0.5"
         height="21.5"
         width="21"
         id="rect3371"
         style="opacity:0.3;fill:url(#linearGradient3335);fill-opacity:1;stroke:none;display:inline" />
      <rect
         style="opacity:0.5;fill:#000000;fill-opacity:1;stroke:none;display:inline"
         id="rect2553"
         width="20"
         height="20"
         x="1"
         y="2"
         rx="2.3809524"
         ry="2.3255813" />
    </g>
    <rect
       style="opacity:0.95999995;fill:url(#linearGradient3181);fill-opacity:1;fill-rule:evenodd;stroke:none;display:inline"
       id="rect3173"
       width="20"
       height="20"
       x="2"
       y="0"
       rx="2"
       ry="2" />
    <path
       style="opacity:0.5;fill:url(#linearGradient3961);fill-opacity:1;fill-rule:evenodd;stroke:none;display:inline"
       d="M 4,0 C 2.892,0 2,0.892 2,2 l 0,16 c 0,1.108 0.892,2 2,2 l 16,0 c 1.108,0 2,-0.892 2,-2 L 22,2 C 22,0.892 21.108,0 20,0 L 4,0 z m 0,1.03125 16,0 c 0.5497,0 0.96875,0.4190495 0.96875,0.96875 l 0,16 c 0,0.5497 -0.41905,0.96875 -0.96875,0.96875 l -16,0 C 3.4502995,18.96875 3.03125,18.5497 3.03125,18 l 0,-16 C 3.03125,1.4502995 3.4502995,1.03125 4,1.03125 z"
       id="rect3050"
       inkscape:connector-curvature="0" />
    <path
       id="path3235"
       d="M 4,20 C 2.892,20 2,19.108 2,18 l 0,-1 c 0,1.108 0.892,2 2,2 l 16,0 c 1.108,0 2,-0.892 2,-2 l 0,1 c 0,1.108 -0.892,2 -2,2 L 4,20 z"
       style="opacity:0.3;fill:url(#linearGradient3845);fill-opacity:1;fill-rule:evenodd;stroke:none;display:inline"
       inkscape:connector-curvature="0" />
  </g>
  <g
     inkscape:groupmode="layer"
     id="layer2"
     inkscape:label="Highlight"
     transform="translate(0,2)"
     sodipodi:insensitive="true">
    <rect
       style="opacity:0.5;fill:#ffffff;fill-opacity:1;fill-rule:nonzero;stroke:none;display:inline;filter:url(#filter3194)"
       id="rect2410"
       width="16"
       height="16"
       x="3"
       y="3"
       rx="2"
       ry="2"
       clip-path="url(#clipPath2849)"
       transform="translate(1,-1)" />
  </g>
  <g
     inkscape:groupmode="layer"
     id="layer3"
     inkscape:label="Keys"
     transform="translate(0,2)">
    <path
       style="opacity:0.5;color:#000000;fill:#333333;fill-opacity:1;fill-rule:nonzero;stroke:none;stroke-width:1;marker:none;visibility:visible;display:inline;overflow:visible;enable-background:accumulate"
       d="M 6.25,2 C 5.5575,2 5,2.5575 5,3.25 l 0,5 0,0.5 0,7 C 5,16.4425 5.5575,17 6.25,17 l 10.5,0 C 17.4425,17 18,16.4425 18,15.75 L 18,10 18.75,10 C 19.4425,10 20,9.4425 20,8.75 l 0,-5.5 C 20,2.5575 19.4425,2 18.75,2 L 6.25,2 z"
       id="rect4050" />
    <rect
       ry="1"
       transform="matrix(0,-1,1,0,0,0)"
       rx="1"
       y="6"
       x="-9"
       height="6"
       width="6"
       id="rect4241"
       style="color:#000000;fill:url(#linearGradient4329);fill-opacity:1;fill-rule:nonzero;stroke:none;stroke-width:1;marker:none;visibility:visible;display:inline;overflow:visible;enable-background:accumulate" />
    <rect
       transform="matrix(0,-1,-1,0,0,0)"
       y="-11"
       x="-8"
       height="4"
       width="4"
       id="rect4343"
       style="color:#000000;fill:url(#linearGradient4345);fill-opacity:1;fill-rule:nonzero;stroke:none;stroke-width:1;marker:none;visibility:visible;display:inline;overflow:visible;enable-background:accumulate"
       rx="0.5" />
    <rect
       style="color:#000000;fill:url(#linearGradient3996);fill-opacity:1;fill-rule:nonzero;stroke:none;stroke-width:1;marker:none;visibility:visible;display:inline;overflow:visible;enable-background:accumulate"
       id="rect3968"
       width="4"
       height="4"
       x="-12"
       y="-23"
       rx="0.5"
       transform="matrix(0,-1,1,0,0,0)"
       ry="0.5" />
    <rect
       ry="0.5"
       transform="matrix(0,-1,1,0,0,0)"
       rx="0.5"
       y="-18"
       x="-12"
       height="4"
       width="4"
       id="rect3970"
       style="color:#000000;fill:url(#linearGradient3998);fill-opacity:1;fill-rule:nonzero;stroke:none;stroke-width:1;marker:none;visibility:visible;display:inline;overflow:visible;enable-background:accumulate" />
    <rect
       ry="0.5"
       transform="matrix(0,-1,1,0,0,0)"
       rx="0.5"
       y="-24"
       x="-17"
       height="7"
       width="4"
       id="rect3972"
       style="color:#000000;fill:url(#linearGradient4000);fill-opacity:1;fill-rule:nonzero;stroke:none;stroke-width:1;marker:none;visibility:visible;display:inline;overflow:visible;enable-background:accumulate" />
    <path
       id="path3974"
       d="m -23,11.5 0,1 c 0,0.277 0.223,0.5 0.5,0.5 l 3,0 c 0.277,0 0.5,-0.223 0.5,-0.5 l 0,-1 c 0,0.277 -0.223,0.5 -0.5,0.5 l -3,0 c -0.277,0 -0.5,-0.223 -0.5,-0.5 z"
       style="opacity:0.6;color:#000000;fill:#000000;fill-opacity:1;fill-rule:nonzero;stroke:none;stroke-width:1;marker:none;visibility:visible;display:inline;overflow:visible;enable-background:accumulate" />
    <path
       id="path3976"
       d="m -18,11.5 0,1 c 0,0.277 0.223,0.5 0.5,0.5 l 3,0 c 0.277,0 0.5,-0.223 0.5,-0.5 l 0,-1 c 0,0.277 -0.223,0.5 -0.5,0.5 l -3,0 c -0.277,0 -0.5,-0.223 -0.5,-0.5 z"
       style="opacity:0.6;color:#000000;fill:#000000;fill-opacity:1;fill-rule:nonzero;stroke:none;stroke-width:1;marker:none;visibility:visible;display:inline;overflow:visible;enable-background:accumulate" />
    <path
       id="path3978"
       d="m -24,16.5 0,1 c 0,0.277 0.223,0.5 0.5,0.5 l 6,0 c 0.277,0 0.5,-0.223 0.5,-0.5 l 0,-1 c 0,0.277 -0.223,0.5 -0.5,0.5 l -6,0 c -0.277,0 -0.5,-0.223 -0.5,-0.5 z"
       style="opacity:0.6;color:#000000;fill:#000000;fill-opacity:1;fill-rule:nonzero;stroke:none;stroke-width:1;marker:none;visibility:visible;display:inline;overflow:visible;enable-background:accumulate" />
    <rect
       style="color:#000000;fill:url(#linearGradient4002);fill-opacity:1;fill-rule:nonzero;stroke:none;stroke-width:1;marker:none;visibility:visible;display:inline;overflow:visible;enable-background:accumulate"
       id="rect3980"
       width="2"
       height="2"
       x="-11"
       y="20"
       rx="0.25"
       ry="0.25"
       transform="matrix(0,-1,-1,0,0,0)" />
    <rect
       transform="matrix(0,-1,-1,0,0,0)"
       ry="0.25"
       rx="0.25"
       y="15"
       x="-11"
       height="2"
       width="2"
       id="rect3982"
       style="color:#000000;fill:url(#linearGradient4004);fill-opacity:1;fill-rule:nonzero;stroke:none;stroke-width:1;marker:none;visibility:visible;display:inline;overflow:visible;enable-background:accumulate" />
    <rect
       transform="matrix(0,-1,-1,0,0,0)"
       ry="0.25"
       rx="0.25"
       y="18"
       x="-16"
       height="5"
       width="2"
       id="rect3984"
       style="color:#000000;fill:url(#linearGradient4006);fill-opacity:1;fill-rule:nonzero;stroke:none;stroke-width:1;marker:none;visibility:visible;display:inline;overflow:visible;enable-background:accumulate" />
    <rect
       style="opacity:0.3;color:#000000;fill:#000000;fill-opacity:1;fill-rule:nonzero;stroke:none;stroke-width:1;marker:none;visibility:visible;display:inline;overflow:visible;enable-background:accumulate"
       id="rect3986"
       width="1"
       height="1"
       x="-17"
       y="9" />
    <rect
       y="9"
       x="-22"
       height="1"
       width="1"
       id="rect3988"
       style="opacity:0.3;color:#000000;fill:#000000;fill-opacity:1;fill-rule:nonzero;stroke:none;stroke-width:1;marker:none;visibility:visible;display:inline;overflow:visible;enable-background:accumulate" />
    <rect
       style="opacity:0.5;color:#000000;fill:#000000;fill-opacity:1;fill-rule:nonzero;stroke:none;stroke-width:1;marker:none;visibility:visible;display:inline;overflow:visible;enable-background:accumulate"
       id="rect3990"
       width="1"
       height="1"
       x="-23"
       y="14" />
    <rect
       y="14"
       x="-22"
       height="1"
       width="1"
       id="rect3992"
       style="opacity:0.3;color:#000000;fill:#000000;fill-opacity:1;fill-rule:nonzero;stroke:none;stroke-width:1;marker:none;visibility:visible;display:inline;overflow:visible;enable-background:accumulate" />
    <rect
       style="opacity:0.4;color:#000000;fill:#000000;fill-opacity:1;fill-rule:nonzero;stroke:none;stroke-width:1;marker:none;visibility:visible;display:inline;overflow:visible;enable-background:accumulate"
       id="rect3994"
       width="1"
       height="1"
       x="-21"
       y="14" />
    <path
       style="color:#000000;fill:#000000;fill-opacity:1;fill-rule:nonzero;stroke:none;stroke-width:1;marker:none;visibility:visible;display:inline;overflow:visible;enable-background:accumulate;opacity:0.6"
       d="m 6,8 0,1 c 0,0.554 0.446,1 1,1 l 4,0 c 0.554,0 1,-0.446 1,-1 l 0,-1 c 0,0.554 -0.446,1 -1,1 L 7,9 C 6.446,9 6,8.554 6,8 z m 7,0 0,1 c 0,0.554 0.446,1 1,1 l 2,0 2,0 c 0.554,0 1,-0.446 1,-1 l 0,-1 c 0,0.554 -0.446,1 -1,1 L 14,9 C 13.446,9 13,8.554 13,8 z m -7,7 0,1 c 0,0.554 0.446,1 1,1 l 9,0 c 0.554,0 1,-0.446 1,-1 l 0,-1 c 0,0.554 -0.446,1 -1,1 L 7,16 C 6.446,16 6,15.554 6,15 z"
       id="path4085" />
    <path
       style="color:#000000;fill:#ff0000;fill-opacity:1;fill-rule:nonzero;stroke:none;stroke-width:1;marker:none;visibility:visible;display:inline;overflow:visible;enable-background:accumulate;opacity:0.6"
       d="M 14 3.96875 C 12.900763 3.96875 11.96875 4.9007631 11.96875 6 L 11.96875 10 C 11.96875 10.348325 12.055913 10.678342 12.21875 10.96875 L 7 10.96875 C 5.900763 10.96875 4.96875 11.900763 4.96875 13 L 4.96875 17 C 4.96875 18.099237 5.900763 19.03125 7 19.03125 L 16 19.03125 C 17.099237 19.03125 18.03125 18.099237 18.03125 17 L 18.03125 13 C 18.03125 12.651675 17.944087 12.321658 17.78125 12.03125 L 18 12.03125 C 19.099237 12.03125 20.03125 11.099237 20.03125 10 L 20.03125 6 C 20.03125 4.9007631 19.099237 3.96875 18 3.96875 L 14 3.96875 z "
       transform="translate(0,-2)"
       id="path4068" />
    <rect
       style="color:#000000;fill:url(#linearGradient4036);fill-opacity:1;fill-rule:nonzero;stroke:none;stroke-width:1;marker:none;visibility:visible;display:inline;overflow:visible;enable-background:accumulate"
       id="rect4032"
       width="6"
       height="6"
       x="-9"
       y="13"
       rx="1"
       transform="matrix(0,-1,1,0,0,0)"
       ry="1" />
    <rect
       rx="0.5"
       style="color:#000000;fill:url(#linearGradient4038);fill-opacity:1;fill-rule:nonzero;stroke:none;stroke-width:1;marker:none;visibility:visible;display:inline;overflow:visible;enable-background:accumulate"
       id="rect4034"
       width="4"
       height="4"
       x="-8"
       y="-18"
       transform="matrix(0,-1,-1,0,0,0)" />
    <path
       style="color:#000000;fill:url(#linearGradient4062);fill-opacity:1;fill-rule:nonzero;stroke:none;stroke-width:1;marker:none;visibility:visible;display:inline;overflow:visible;enable-background:accumulate"
       d="m 6,15 0,-4 c 0,-0.554 0.446,-1 1,-1 l 9,0 c 0.554,0 1,0.446 1,1 l 0,4 c 0,0.554 -0.446,1 -1,1 L 7,16 C 6.446,16 6,15.554 6,15 z"
       id="rect4040"
       sodipodi:nodetypes="ccccccccc" />
    <path
       style="color:#000000;fill:url(#linearGradient4060);fill-opacity:1;fill-rule:nonzero;stroke:none;stroke-width:1;marker:none;visibility:visible;display:inline;overflow:visible;enable-background:accumulate"
       d="m 16,14.5 0,-3 C 16,11.223 15.777,11 15.5,11 l -8,0 C 7.223,11 7,11.223 7,11.5 l 0,3 C 7,14.777 7.223,15 7.5,15 l 8,0 c 0.277,0 0.5,-0.223 0.5,-0.5 z"
       id="rect4042"
       sodipodi:nodetypes="ccccccccc" />
    <path
       style="opacity:0.6;color:#000000;fill:#ffffff;fill-opacity:1;fill-rule:nonzero;stroke:none;stroke-width:1;marker:none;visibility:visible;display:inline;overflow:visible;enable-background:accumulate"
       d="M 20,8.75 C 20,9.4425 19.4425,10 18.75,10 l -0.75,0 0,1 0.75,0 C 19.4425,11 20,10.4425 20,9.75 l 0,-1 z m -15,7 0,1 C 5,17.4425 5.5575,18 6.25,18 l 10.5,0 C 17.4425,18 18,17.4425 18,16.75 l 0,-1 C 18,16.4425 17.4425,17 16.75,17 L 6.25,17 C 5.5575,17 5,16.4425 5,15.75 z"
       id="path4055" />
    <path
       style="color:#000000;fill:#ff0000;fill-opacity:1;fill-rule:nonzero;stroke:none;stroke-width:1;marker:none;visibility:visible;display:inline;overflow:visible;enable-background:accumulate;opacity:0.2"
       d="m 14,3 c -0.554,0 -1,0.446 -1,1 l 0,4 c 0,0.554 0.446,1 1,1 l 4,0 c 0.554,0 1,-0.446 1,-1 L 19,4 C 19,3.446 18.554,3 18,3 l -4,0 z m 0.5,1 3,0 C 17.777,4 18,4.223 18,4.5 l 0,3 C 18,7.777 17.777,8 17.5,8 l -3,0 C 14.223,8 14,7.777 14,7.5 l 0,-3 C 14,4.223 14.223,4 14.5,4 z"
       id="rect4088" />
    <path
       id="path4101"
       d="m 7,10 c -0.554,0 -1,0.446 -1,1 l 0,4 c 0,0.554 0.446,1 1,1 l 9,0 c 0.554,0 1,-0.446 1,-1 l 0,-4 c 0,-0.554 -0.446,-1 -1,-1 l -9,0 z m 0.5,1 8,0 c 0.277,0 0.5,0.223 0.5,0.5 l 0,3 c 0,0.277 -0.223,0.5 -0.5,0.5 l -8,0 C 7.223,15 7,14.777 7,14.5 l 0,-3 C 7,11.223 7.223,11 7.5,11 z"
       style="opacity:0.2;color:#000000;fill:#ff0000;fill-opacity:1;fill-rule:nonzero;stroke:none;stroke-width:1;marker:none;visibility:visible;display:inline;overflow:visible;enable-background:accumulate"
       sodipodi:nodetypes="cccccccccccccccccc" />
    <g
       style="font-size:3px;font-style:normal;font-variant:normal;font-weight:normal;font-stretch:normal;text-align:start;line-height:125%;writing-mode:lr-tb;text-anchor:start;fill:#4d4d4d;fill-opacity:1;stroke:none;font-family:Liberation Sans;-inkscape-font-specification:Liberation Sans"
       id="text4104">
      <path
         d="m 9.7094727,7 -0.2358399,-0.6035156 -0.9404297,0 L 8.2958984,7 8.0058594,7 8.8481445,4.9360352 l 0.3178711,0 L 9.9951172,7 9.7094727,7 M 9.125,5.4970703 c -0.015626,-0.039061 -0.030763,-0.078612 -0.04541,-0.1186523 -0.013673,-0.040037 -0.02588,-0.07617 -0.036621,-0.1083985 -0.010743,-0.033201 -0.020021,-0.060545 -0.027832,-0.082031 -0.00684,-0.022459 -0.010743,-0.036131 -0.011719,-0.041016 -0.00195,0.00488 -0.00635,0.018556 -0.013184,0.041016 -0.00684,0.022463 -0.016114,0.050295 -0.027832,0.083496 -0.010743,0.033205 -0.023438,0.069826 -0.038086,0.1098633 C 8.9106436,5.4213883 8.8964835,5.460939 8.8818359,5.5 l -0.2636718,0.6782227 0.7719726,0 L 9.125,5.4970703"
         style="fill:#4d4d4d"
         id="path4120" />
    </g>
    <g
       style="font-size:3px;font-style:normal;font-variant:normal;font-weight:normal;font-stretch:normal;text-align:start;line-height:125%;writing-mode:lr-tb;text-anchor:start;fill:#4d4d4d;fill-opacity:1;stroke:none;font-family:Liberation Sans;-inkscape-font-specification:Liberation Sans"
       id="text4108">
      <path
         d="m 16.73877,7 -1.643555,0 0,-0.2094727 1.256836,-1.6259765 -1.149903,0 0,-0.2285156 1.467774,0 0,0.2036132 -1.256836,1.631836 1.325684,0 0,0.2285156"
         style="fill:#4d4d4d"
         id="path4117" />
    </g>
    <g
       style="font-size:3px;font-style:normal;font-variant:normal;font-weight:normal;font-stretch:normal;text-align:start;line-height:125%;writing-mode:lr-tb;text-anchor:start;fill:#4d4d4d;fill-opacity:1;stroke:none;font-family:Liberation Sans;-inkscape-font-specification:Liberation Sans"
       id="text4112">
      <path
         d="m 9.1601563,12.133789 c -0.1171886,2e-6 -0.2211924,0.01953 -0.3120118,0.05859 -0.089844,0.03906 -0.165528,0.09473 -0.2270507,0.166992 -0.060548,0.07227 -0.1064459,0.159181 -0.1376954,0.260742 -0.03125,0.101564 -0.046875,0.214357 -0.046875,0.338379 -4e-7,0.124024 0.016601,0.237794 0.049805,0.341309 0.034179,0.102539 0.082519,0.190918 0.1450196,0.265136 0.063476,0.07422 0.1406242,0.131837 0.2314453,0.172852 0.091796,0.04102 0.1948231,0.06152 0.309082,0.06152 0.080077,1e-6 0.1528307,-0.01025 0.2182617,-0.03076 0.066405,-0.02148 0.1259751,-0.05127 0.178711,-0.08936 0.053709,-0.03809 0.1015608,-0.08301 0.1435546,-0.134765 0.04199,-0.05273 0.0791,-0.11084 0.1113282,-0.174317 l 0.2285155,0.114258 c -0.03711,0.07715 -0.08301,0.148926 -0.1376952,0.215332 -0.054689,0.06641 -0.1191424,0.124024 -0.1933594,0.172852 -0.073244,0.04883 -0.1567398,0.0874 -0.2504883,0.115722 -0.092775,0.02734 -0.1967786,0.04102 -0.3120117,0.04102 -0.1669932,0 -0.3134774,-0.02637 -0.4394531,-0.0791 -0.1250006,-0.05371 -0.229981,-0.127929 -0.3149414,-0.222656 -0.083985,-0.0957 -0.1469729,-0.208984 -0.1889649,-0.339844 -0.041992,-0.130858 -0.062988,-0.273925 -0.062988,-0.429199 -2e-7,-0.161132 0.021972,-0.306639 0.065918,-0.436523 0.044922,-0.129882 0.109863,-0.240233 0.1948242,-0.331055 0.085937,-0.09179 0.1914057,-0.162107 0.3164063,-0.210938 0.1249991,-0.0498 0.2675771,-0.0747 0.4277344,-0.07471 0.2197251,3e-6 0.4033187,0.04297 0.5507812,0.128907 0.1474591,0.08594 0.2558574,0.21338 0.3251952,0.382324 l -0.2651366,0.08789 c -0.019533,-0.04883 -0.0459,-0.09521 -0.079102,-0.139161 -0.033205,-0.04492 -0.074709,-0.08447 -0.1245117,-0.118652 -0.049806,-0.03418 -0.1083999,-0.06152 -0.1757812,-0.08203 -0.066408,-0.02051 -0.1425794,-0.03076 -0.2285156,-0.03076"
         style="fill:#4d4d4d"
         id="path4123" />
      <path
         d="m 10.979492,13.988281 c -0.04004,0.01074 -0.08106,0.01904 -0.123047,0.0249 -0.04102,0.0068 -0.08887,0.01025 -0.143554,0.01025 -0.210938,-1e-6 -0.316407,-0.119629 -0.316407,-0.358887 l 0,-1.057617 -0.183105,0 0,-0.191895 0.193359,0 0.07764,-0.354492 0.175781,0 0,0.354492 0.292969,0 0,0.191895 -0.292969,0 0,1.000488 c 0,0.07617 0.01221,0.129883 0.03662,0.161133 0.02539,0.03027 0.06885,0.04541 0.130371,0.04541 0.02539,0 0.0498,-0.002 0.07324,-0.0059 0.02441,-0.0039 0.05078,-0.0088 0.0791,-0.01465 l 0,0.194824"
         style="fill:#4d4d4d"
         id="path4125" />
      <path
         d="m 11.208008,14 0,-1.21582 c 0,-0.0332 -4.89e-4,-0.06689 -0.0015,-0.101075 0,-0.03515 -4.89e-4,-0.06885 -0.0015,-0.101074 -9.77e-4,-0.03223 -0.002,-0.0625 -0.0029,-0.09082 -9.76e-4,-0.02832 -0.002,-0.05371 -0.0029,-0.07617 l 0.249023,0 c 9.76e-4,0.02246 0.002,0.04834 0.0029,0.07764 0.002,0.02832 0.0034,0.05762 0.0044,0.08789 0.002,0.03028 0.0029,0.05957 0.0029,0.08789 9.76e-4,0.02735 0.0015,0.05078 0.0015,0.07031 l 0.0059,0 c 0.01855,-0.06055 0.03809,-0.112792 0.05859,-0.156739 0.02148,-0.04492 0.04639,-0.08154 0.07471,-0.109863 0.02832,-0.02929 0.06201,-0.05078 0.101074,-0.06445 0.03906,-0.01465 0.08642,-0.02197 0.14209,-0.02197 0.02148,2e-6 0.04199,0.002 0.06152,0.0059 0.01953,0.0029 0.03467,0.0059 0.04541,0.0088 l 0,0.241699 c -0.01758,-0.0049 -0.03809,-0.0083 -0.06152,-0.01025 -0.02344,-0.0029 -0.04981,-0.0044 -0.0791,-0.0044 -0.06055,2e-6 -0.112306,0.01367 -0.155274,0.04102 -0.04199,0.02735 -0.07666,0.06543 -0.104004,0.114258 -0.02637,0.04785 -0.0459,0.10547 -0.05859,0.172851 -0.0127,0.06641 -0.01904,0.139161 -0.01904,0.218262 l 0,0.826172 -0.263672,0"
         style="fill:#4d4d4d"
         id="path4127" />
      <path
         d="m 12.204102,14 0,-2.173828 0.263671,0 0,2.173828 -0.263671,0"
         style="fill:#4d4d4d"
         id="path4129" />
    </g>
  </g>
</svg>
