<?xml version="1.0" encoding="UTF-8" standalone="no"?>
<!-- Created with Inkscape (http://www.inkscape.org/) -->

<svg
   xmlns:dc="http://purl.org/dc/elements/1.1/"
   xmlns:cc="http://creativecommons.org/ns#"
   xmlns:rdf="http://www.w3.org/1999/02/22-rdf-syntax-ns#"
   xmlns:svg="http://www.w3.org/2000/svg"
   xmlns="http://www.w3.org/2000/svg"
   xmlns:xlink="http://www.w3.org/1999/xlink"
   xmlns:sodipodi="http://sodipodi.sourceforge.net/DTD/sodipodi-0.dtd"
   xmlns:inkscape="http://www.inkscape.org/namespaces/inkscape"
   width="22"
   height="22"
   id="svg2"
   sodipodi:version="0.32"
   inkscape:version="0.48.0 r9654"
   version="1.0"
   sodipodi:docname="network-workgroup.svg"
   inkscape:output_extension="org.inkscape.output.svg.inkscape"
   style="display:inline">
  <defs
     id="defs4">
    <linearGradient
       id="linearGradient4411">
      <stop
         id="stop4413"
         offset="0"
         style="stop-color:#0a0a0a;stop-opacity:1;" />
      <stop
         id="stop4415"
         offset="1"
         style="stop-color:#3c3c3c;stop-opacity:1;" />
    </linearGradient>
    <linearGradient
       id="linearGradient6059">
      <stop
         style="stop-color:#000000;stop-opacity:0.42629482"
         offset="0"
         id="stop6061" />
      <stop
         style="stop-color:#ffffff;stop-opacity:0.31707317;"
         offset="1"
         id="stop6063" />
    </linearGradient>
    <linearGradient
       id="linearGradient6151">
      <stop
         style="stop-color:#5b5b5b;stop-opacity:1;"
         offset="0"
         id="stop6153" />
      <stop
         style="stop-color:#0a0a0a;stop-opacity:1;"
         offset="1"
         id="stop6155" />
    </linearGradient>
    <linearGradient
       id="linearGradient3265">
      <stop
         style="stop-color:#8d8df1;stop-opacity:1;"
         offset="0"
         id="stop3267" />
      <stop
         style="stop-color:#6547e0;stop-opacity:1;"
         offset="1"
         id="stop3269" />
    </linearGradient>
    <radialGradient
       inkscape:collect="always"
       xlink:href="#linearGradient3265"
       id="radialGradient7013"
       gradientUnits="userSpaceOnUse"
       gradientTransform="matrix(-0.2150123,0,0,-9.7219987e-2,25.601934,11.998931)"
       cx="77.203049"
       cy="-0.56155205"
       fx="77.203049"
       fy="-0.56155205"
       r="21" />
    <linearGradient
       inkscape:collect="always"
       id="linearGradient3737">
      <stop
         style="stop-color:#ffffff;stop-opacity:1;"
         offset="0"
         id="stop3739" />
      <stop
         style="stop-color:#ffffff;stop-opacity:0;"
         offset="1"
         id="stop3741" />
    </linearGradient>
    <radialGradient
       inkscape:collect="always"
       xlink:href="#linearGradient3737"
       id="radialGradient7015"
       gradientUnits="userSpaceOnUse"
       gradientTransform="matrix(0.1919464,-1.5717656e-8,0,0.1470006,-2.5836848,9.0463369)"
       cx="34.520515"
       cy="45"
       fx="34.520515"
       fy="45"
       r="27" />
    <linearGradient
       id="linearGradient3303">
      <stop
         style="stop-color:#1a1a1a;stop-opacity:1;"
         offset="0"
         id="stop3305" />
      <stop
         id="stop3313"
         offset="0.25049603"
         style="stop-color:#1a1a1a;stop-opacity:1;" />
      <stop
         id="stop3311"
         offset="0.50099206"
         style="stop-color:#cdff01;stop-opacity:1;" />
      <stop
         style="stop-color:#1a1a1a;stop-opacity:1;"
         offset="0.75049603"
         id="stop3315" />
      <stop
         style="stop-color:#1a1a1a;stop-opacity:1;"
         offset="1"
         id="stop3307" />
    </linearGradient>
    <linearGradient
       inkscape:collect="always"
       xlink:href="#linearGradient3303"
       id="linearGradient7168"
       gradientUnits="userSpaceOnUse"
       gradientTransform="matrix(0.131969,0,0,0.5,-0.6657837,2.3665771e-7)"
       x1="30"
       y1="31"
       x2="48"
       y2="31" />
    <linearGradient
       id="linearGradient6069">
      <stop
         style="stop-color:#ffffff;stop-opacity:1;"
         offset="0"
         id="stop6071" />
      <stop
         style="stop-color:#7c7c7c;stop-opacity:1;"
         offset="1"
         id="stop6073" />
    </linearGradient>
    <linearGradient
       id="linearGradient5892">
      <stop
         style="stop-color:#333333;stop-opacity:1;"
         offset="0"
         id="stop5894" />
      <stop
         style="stop-color:#555555;stop-opacity:1;"
         offset="1"
         id="stop5896" />
    </linearGradient>
    <linearGradient
       id="linearGradient3700">
      <stop
         id="stop3702"
         offset="0"
         style="stop-color:#dcdcdc;stop-opacity:1;" />
      <stop
         id="stop3704"
         offset="1"
         style="stop-color:#f0f0f0;stop-opacity:1;" />
    </linearGradient>
    <linearGradient
       inkscape:collect="always"
       id="linearGradient4594">
      <stop
         style="stop-color:#ffffff;stop-opacity:1;"
         offset="0"
         id="stop4596" />
      <stop
         style="stop-color:#ffffff;stop-opacity:0;"
         offset="1"
         id="stop4598" />
    </linearGradient>
    <linearGradient
       id="linearGradient3175">
      <stop
         id="stop3177"
         offset="0"
         style="stop-color:#55a6eb;stop-opacity:1;" />
      <stop
         id="stop3179"
         offset="1"
         style="stop-color:#1754c4;stop-opacity:1;" />
    </linearGradient>
    <linearGradient
       inkscape:collect="always"
       id="linearGradient3327">
      <stop
         style="stop-color:#000000;stop-opacity:1;"
         offset="0"
         id="stop3330" />
      <stop
         style="stop-color:#000000;stop-opacity:0;"
         offset="1"
         id="stop3333" />
    </linearGradient>
    <inkscape:perspective
       sodipodi:type="inkscape:persp3d"
       inkscape:vp_x="0 : 11 : 1"
       inkscape:vp_y="0 : 1000 : 0"
       inkscape:vp_z="22 : 11 : 1"
       inkscape:persp3d-origin="11 : 7.3333333 : 1"
       id="perspective2531" />
    <linearGradient
       id="ButtonShadow"
       gradientTransform="scale(0.9883037,1.0118347)"
       x1="9.3550024"
       y1="21.742682"
       x2="9.3550024"
       y2="0.49362123"
       gradientUnits="userSpaceOnUse">
      <stop
         id="stop3277"
         offset="0"
         style="stop-color:#000000;stop-opacity:0.70588237;" />
      <stop
         id="stop3279"
         offset="1"
         style="stop-color:#000000;stop-opacity:0.15686275;" />
    </linearGradient>
    <linearGradient
       inkscape:collect="always"
       id="linearGradient3232">
      <stop
         style="stop-color:#000000;stop-opacity:1;"
         offset="0"
         id="stop3234" />
      <stop
         style="stop-color:#000000;stop-opacity:0;"
         offset="1"
         id="stop3236" />
    </linearGradient>
    <linearGradient
       gradientUnits="userSpaceOnUse"
       y2="-6.0004225"
       x2="11"
       y1="14.805666"
       x1="11"
       id="linearGradient3221"
       xlink:href="#linearGradient3232"
       inkscape:collect="always" />
    <linearGradient
       id="ButtonColor"
       x1="10.31979"
       y1="21"
       x2="10.31979"
       y2="0.99929649"
       gradientUnits="userSpaceOnUse">
      <stop
         style="stop-color:#29669f;stop-opacity:1;"
         offset="0"
         id="stop3189" />
      <stop
         style="stop-color:#88b6e0;stop-opacity:1;"
         offset="1"
         id="stop3191" />
    </linearGradient>
    <linearGradient
       inkscape:collect="always"
       xlink:href="#ButtonShadow"
       id="linearGradient38042"
       gradientUnits="userSpaceOnUse"
       gradientTransform="scale(0.9883037,1.0118347)"
       x1="9.3550024"
       y1="21.742682"
       x2="9.3550024"
       y2="0.49362123" />
    <radialGradient
       inkscape:collect="always"
       xlink:href="#linearGradient3175"
       id="radialGradient3360"
       gradientUnits="userSpaceOnUse"
       gradientTransform="matrix(-5.0683284e-3,1.2204755,-1.3843695,-5.7456085e-3,26.241279,-46.842142)"
       cx="48"
       cy="-15.894132"
       fx="48"
       fy="-15.894132"
       r="35.9375" />
    <linearGradient
       inkscape:collect="always"
       xlink:href="#linearGradient3700"
       id="linearGradient3380"
       gradientUnits="userSpaceOnUse"
       gradientTransform="translate(-12.000001,-0.9999998)"
       x1="1"
       y1="9"
       x2="11.000391"
       y2="9" />
    <radialGradient
       inkscape:collect="always"
       xlink:href="#linearGradient3175"
       id="radialGradient3382"
       gradientUnits="userSpaceOnUse"
       gradientTransform="matrix(-5.0683284e-3,1.2204755,-1.3843695,-5.7456085e-3,26.241279,-46.842142)"
       cx="48"
       cy="-15.894132"
       fx="48"
       fy="-15.894132"
       r="35.9375" />
    <linearGradient
       inkscape:collect="always"
       xlink:href="#linearGradient4594"
       id="linearGradient3384"
       gradientUnits="userSpaceOnUse"
       gradientTransform="matrix(0.5288575,0,0,0.5288575,1.6537103,1.796232)"
       x1="10.733215"
       y1="3.9999018"
       x2="10.733215"
       y2="8.8139" />
    <linearGradient
       inkscape:collect="always"
       xlink:href="#linearGradient4594"
       id="linearGradient3386"
       gradientUnits="userSpaceOnUse"
       gradientTransform="translate(-4,5.3674303e-8)"
       x1="10.733215"
       y1="1.7773852"
       x2="10.733215"
       y2="13.937372" />
    <linearGradient
       inkscape:collect="always"
       xlink:href="#linearGradient4594"
       id="linearGradient4515"
       gradientUnits="userSpaceOnUse"
       gradientTransform="translate(-4,5.3674303e-8)"
       x1="10.733215"
       y1="1.7773852"
       x2="10.733215"
       y2="13.937372" />
    <linearGradient
       inkscape:collect="always"
       xlink:href="#linearGradient4594"
       id="linearGradient4518"
       gradientUnits="userSpaceOnUse"
       gradientTransform="matrix(0.5288575,0,0,0.5288575,1.6537103,1.796232)"
       x1="10.733215"
       y1="3.9999018"
       x2="10.733215"
       y2="8.8139" />
    <linearGradient
       inkscape:collect="always"
       xlink:href="#linearGradient3700"
       id="linearGradient4524"
       gradientUnits="userSpaceOnUse"
       gradientTransform="translate(-12.000001,-0.9999998)"
       x1="1"
       y1="9"
       x2="11.000391"
       y2="9" />
    <linearGradient
       inkscape:collect="always"
       xlink:href="#linearGradient4411"
       id="linearGradient4528"
       gradientUnits="userSpaceOnUse"
       gradientTransform="translate(-22.000001,-0.9999998)"
       x1="1"
       y1="9"
       x2="11.000391"
       y2="9" />
    <linearGradient
       inkscape:collect="always"
       xlink:href="#linearGradient5892"
       id="linearGradient4555"
       gradientUnits="userSpaceOnUse"
       gradientTransform="matrix(0.6666666,0,0,1.3333334,-2,-6.6666665)"
       x1="11.046464"
       y1="20"
       x2="11.046464"
       y2="16.988781" />
    <linearGradient
       inkscape:collect="always"
       xlink:href="#linearGradient3232"
       id="linearGradient4567"
       x1="5.5"
       y1="16"
       x2="5.5"
       y2="20"
       gradientUnits="userSpaceOnUse"
       gradientTransform="translate(0,-36)" />
    <linearGradient
       inkscape:collect="always"
       xlink:href="#linearGradient5892"
       id="linearGradient4575"
       gradientUnits="userSpaceOnUse"
       gradientTransform="matrix(0.6666666,0,0,1.3333334,0,-6.6666665)"
       x1="11.046464"
       y1="20"
       x2="11.046464"
       y2="16.988781" />
    <linearGradient
       inkscape:collect="always"
       xlink:href="#linearGradient3303"
       id="linearGradient4577"
       gradientUnits="userSpaceOnUse"
       gradientTransform="matrix(0.1111111,0,0,0.5,2.6666663,2.3665771e-7)"
       x1="30"
       y1="31"
       x2="48"
       y2="31" />
    <linearGradient
       inkscape:collect="always"
       xlink:href="#linearGradient3232"
       id="linearGradient4579"
       gradientUnits="userSpaceOnUse"
       gradientTransform="translate(2,-36)"
       x1="5.5"
       y1="16"
       x2="5.5"
       y2="20" />
    <linearGradient
       inkscape:collect="always"
       xlink:href="#linearGradient5892"
       id="linearGradient4587"
       gradientUnits="userSpaceOnUse"
       gradientTransform="matrix(0.6666666,0,0,1.3333334,2,-6.6666665)"
       x1="11.046464"
       y1="20"
       x2="11.046464"
       y2="16.988781" />
    <linearGradient
       inkscape:collect="always"
       xlink:href="#linearGradient3303"
       id="linearGradient4589"
       gradientUnits="userSpaceOnUse"
       gradientTransform="matrix(0.1111111,0,0,0.5,4.6666663,2.3665771e-7)"
       x1="30"
       y1="31"
       x2="48"
       y2="31" />
    <linearGradient
       inkscape:collect="always"
       xlink:href="#linearGradient3232"
       id="linearGradient4591"
       gradientUnits="userSpaceOnUse"
       gradientTransform="translate(4,-36)"
       x1="5.5"
       y1="16"
       x2="5.5"
       y2="20" />
    <linearGradient
       inkscape:collect="always"
       xlink:href="#linearGradient3327"
       id="linearGradient4616"
       gradientUnits="userSpaceOnUse"
       x1="11.375"
       y1="22"
       x2="11.375"
       y2="-9.817296"
       gradientTransform="translate(-40,0)" />
    <linearGradient
       inkscape:collect="always"
       xlink:href="#linearGradient3327"
       id="linearGradient4638"
       x1="11.189046"
       y1="22"
       x2="11.189046"
       y2="-5.8933268"
       gradientUnits="userSpaceOnUse" />
    <linearGradient
       inkscape:collect="always"
       xlink:href="#linearGradient3831"
       id="linearGradient3845"
       x1="11"
       y1="19.5"
       x2="21"
       y2="19.5"
       gradientUnits="userSpaceOnUse"
       spreadMethod="reflect" />
    <linearGradient
       id="linearGradient3831">
      <stop
         style="stop-color:#ffffff;stop-opacity:1;"
         offset="0"
         id="stop3833" />
      <stop
         id="stop3821"
         offset="0.75"
         style="stop-color:#ffffff;stop-opacity:0.49803922;" />
      <stop
         style="stop-color:#ffffff;stop-opacity:0;"
         offset="1"
         id="stop3835" />
    </linearGradient>
    <linearGradient
       gradientTransform="translate(10,0)"
       y2="20"
       x2="11"
       y1="20"
       x1="6"
       spreadMethod="reflect"
       gradientUnits="userSpaceOnUse"
       id="linearGradient3073"
       xlink:href="#linearGradient3831"
       inkscape:collect="always" />
    <linearGradient
       inkscape:collect="always"
       xlink:href="#linearGradient3831"
       id="linearGradient3890"
       gradientUnits="userSpaceOnUse"
       spreadMethod="reflect"
       x1="6"
       y1="20"
       x2="11"
       y2="20" />
    <linearGradient
       inkscape:collect="always"
       xlink:href="#linearGradient3831"
       id="linearGradient3894"
       gradientUnits="userSpaceOnUse"
       spreadMethod="reflect"
       x1="6"
       y1="20"
       x2="11"
       y2="20"
       gradientTransform="translate(0,-10)" />
    <linearGradient
       inkscape:collect="always"
       xlink:href="#linearGradient4594"
       id="linearGradient3932"
       gradientUnits="userSpaceOnUse"
       gradientTransform="matrix(0,1,1,0,-0.9999998,9.999999)"
       x1="1"
       y1="9"
       x2="11.000391"
       y2="9" />
    <linearGradient
       inkscape:collect="always"
       xlink:href="#linearGradient4594"
       id="linearGradient3936"
       gradientUnits="userSpaceOnUse"
       gradientTransform="translate(9.999999,-0.9999998)"
       x1="1"
       y1="9"
       x2="11.000391"
       y2="9" />
    <linearGradient
       inkscape:collect="always"
       xlink:href="#linearGradient4594"
       id="linearGradient3940"
       gradientUnits="userSpaceOnUse"
       gradientTransform="translate(9.999999,-0.9999998)"
       x1="2.000001"
       y1="9"
       x2="11.000391"
       y2="9" />
    <linearGradient
       inkscape:collect="always"
       xlink:href="#linearGradient4594"
       id="linearGradient3943"
       gradientUnits="userSpaceOnUse"
       gradientTransform="matrix(0,1,1,0,-0.9999998,9.999999)"
       x1="1"
       y1="9"
       x2="8.000001"
       y2="9" />
    <linearGradient
       inkscape:collect="always"
       xlink:href="#linearGradient4594"
       id="linearGradient3947"
       gradientUnits="userSpaceOnUse"
       gradientTransform="matrix(0,1,1,0,9.0000002,9.999999)"
       x1="1"
       y1="9"
       x2="8.000001"
       y2="9" />
    <linearGradient
       inkscape:collect="always"
       xlink:href="#linearGradient4594"
       id="linearGradient3951"
       gradientUnits="userSpaceOnUse"
       gradientTransform="matrix(0,1,1,0,-0.9999998,-10e-7)"
       x1="1"
       y1="9"
       x2="8.000001"
       y2="9" />
  </defs>
  <sodipodi:namedview
     id="base"
     pagecolor="#ffffff"
     bordercolor="#e7e7e7"
     borderopacity="1"
     inkscape:pageopacity="0.0"
     inkscape:pageshadow="2"
     inkscape:zoom="34.730129"
     inkscape:cx="11.717001"
     inkscape:cy="10.301277"
     inkscape:document-units="px"
     inkscape:current-layer="layer1"
     showgrid="true"
     inkscape:showpageshadow="false"
     showguides="false"
     inkscape:guide-bbox="true"
     inkscape:window-width="1920"
     inkscape:window-height="1026"
     inkscape:window-x="0"
     inkscape:window-y="25"
     inkscape:window-maximized="1">
    <sodipodi:guide
       orientation="1,0"
       position="0,112"
       id="guide2383" />
    <sodipodi:guide
       orientation="0,1"
       position="26.278146,128"
       id="guide2385" />
    <sodipodi:guide
       orientation="1,0"
       position="128,54.082119"
       id="guide2387" />
    <sodipodi:guide
       orientation="0,1"
       position="78.156291,0"
       id="guide2389" />
    <sodipodi:guide
       orientation="0,1"
       position="60.863576,64.084768"
       id="guide2391" />
    <inkscape:grid
       type="xygrid"
       id="grid3672"
       visible="true"
       enabled="true" />
  </sodipodi:namedview>
  <metadata
     id="metadata7">
    <rdf:RDF>
      <cc:Work
         rdf:about="">
        <dc:format>image/svg+xml</dc:format>
        <dc:type
           rdf:resource="http://purl.org/dc/dcmitype/StillImage" />
      </cc:Work>
    </rdf:RDF>
  </metadata>
  <g
     inkscape:label="Button"
     inkscape:groupmode="layer"
     id="layer1">
    <path
       style="fill:url(#linearGradient4638);fill-opacity:1;fill-rule:nonzero;stroke:none;stroke-width:0.50000000000000000;stroke-linecap:round;stroke-linejoin:round;stroke-miterlimit:4;stroke-dasharray:none;stroke-dashoffset:0;stroke-opacity:1;display:inline;opacity:0.4"
       d="M 3 0.5 C 1.615 0.5 0.5 1.615 0.5 3 L 0.5 9.5 C 0.5 10.176342 0.75411557 10.800834 1.1875 11.25 C 0.75411557 11.699166 0.5 12.323658 0.5 13 L 0.5 19.5 C 0.5 20.885 1.615 22 3 22 L 9 22 C 9.824075 22 10.545093 21.611481 11 21 C 11.454907 21.611481 12.175925 22 13 22 L 19 22 C 20.385 22 21.5 20.885 21.5 19.5 L 21.5 13 C 21.5 11.615 20.385 10.5 19 10.5 L 13 10.5 C 12.175925 10.5 11.454907 10.888519 11 11.5 C 10.936299 11.414379 10.88644 11.326633 10.8125 11.25 C 11.245884 10.800834 11.5 10.176342 11.5 9.5 L 11.5 3 C 11.5 1.615 10.385 0.5 9 0.5 L 3 0.5 z "
       id="rect4625" />
    <path
       style="fill:#000000;fill-opacity:1;fill-rule:nonzero;stroke:none;stroke-width:0.50000000000000000;stroke-linecap:round;stroke-linejoin:round;stroke-miterlimit:4;stroke-dasharray:none;stroke-dashoffset:0;stroke-opacity:1;display:inline;opacity:0.4"
       d="M 3 2 C 1.892 2 1 2.892 1 4 L 1 10 C 1 11.108 1.892 12 3 12 C 1.892 12 1 12.892 1 14 L 1 20 C 1 21.108 1.892 22 3 22 L 9 22 C 10.108 22 11 21.108 11 20 C 11 21.108 11.892 22 13 22 L 19 22 C 20.108 22 21 21.108 21 20 L 21 14 C 21 12.892 20.108 12 19 12 L 13 12 C 11.892 12 11 12.892 11 14 C 11 12.892 10.108 12 9 12 C 10.108 12 11 11.108 11 10 L 11 4 C 11 2.892 10.108 2 9 2 L 3 2 z "
       id="rect4618" />
    <rect
       style="opacity:0.3;fill:url(#linearGradient4616);fill-opacity:1;stroke:none;stroke-width:1.00000012;stroke-linecap:round;stroke-linejoin:miter;stroke-miterlimit:4;stroke-dasharray:none;stroke-opacity:1;display:inline"
       id="rect3371"
       width="21"
       height="21.5"
       x="-39.5"
       y="0.5"
       rx="2.5"
       ry="2.5" />
    <rect
       ry="2.3255813"
       rx="2.3809524"
       y="2"
       x="-39"
       height="20"
       width="20"
       id="rect2553"
       style="opacity:0.5;fill:#000000;fill-opacity:1;stroke:none;stroke-width:1.00000012;stroke-linecap:round;stroke-linejoin:miter;stroke-miterlimit:4;stroke-dasharray:none;stroke-opacity:1;display:inline" />
    <path
       id="path3188"
       d="M 2.9999999,20.999999 C 1.8919999,20.999999 0.99999993,20.108 0.99999993,19 L 0.99999993,18 C 0.99999993,19.108 1.8919999,20 2.9999999,20 L 19,20 C 20.108,20 21,19.108 21,18 L 21,19 C 21,20.108 20.108,20.999999 19,20.999999 L 2.9999999,20.999999 z"
       style="opacity:0.15;fill:#000000;fill-opacity:1;fill-rule:evenodd;stroke:none;stroke-width:0.25;stroke-linecap:round;stroke-linejoin:miter;stroke-miterlimit:4;stroke-dasharray:none;stroke-dashoffset:0;stroke-opacity:1;display:inline" />
    <rect
       ry="2"
       rx="2"
       y="1"
       x="-11"
       height="10"
       width="10"
       id="rect3196"
       style="fill:url(#linearGradient4524);fill-opacity:1;fill-rule:nonzero;stroke:none;stroke-width:0.5;stroke-linecap:round;stroke-linejoin:round;stroke-miterlimit:4;stroke-dasharray:none;stroke-dashoffset:0;stroke-opacity:1;display:inline"
       transform="matrix(0,-1,1,0,0,0)" />
    <path
       style="fill:#000000;fill-opacity:1;fill-rule:nonzero;stroke:none;stroke-width:1;stroke-linecap:square;stroke-linejoin:miter;stroke-miterlimit:4;stroke-dasharray:none;stroke-dashoffset:0;stroke-opacity:1"
       d="M 3,2 C 2.446,2 2,2.446 2,3 L 2,8 C 2,8.554 2.446,9 3,9 L 4,9 L 4,9.5 C 4,9.777 4.223,10 4.5,10 L 7.5,10 C 7.777,10 8,9.777 8,9.5 L 8,9 L 9,9 C 9.554,9 10,8.554 10,8 L 10,3 C 10,2.446 9.554,2 9,2 L 3,2 z"
       id="rect2568" />
    <path
       sodipodi:type="inkscape:offset"
       inkscape:radius="-0.031530734"
       inkscape:original="M 12.03125 12.03125 L 12.03125 65.96875 L 83.96875 65.96875 L 83.96875 12.03125 L 12.03125 12.03125 z "
       style="fill:url(#radialGradient3360);fill-opacity:1;fill-rule:nonzero;stroke:none;stroke-width:1;stroke-linecap:square;stroke-linejoin:round;stroke-miterlimit:4;stroke-dasharray:none;stroke-dashoffset:0;stroke-opacity:0.69658119;display:inline"
       id="path2573"
       d="M 12.0625,12.0625 L 12.0625,65.9375 L 83.9375,65.9375 L 83.9375,12.0625 L 12.0625,12.0625 z"
       transform="matrix(-8.3478261e-2,0,0,-9.2807425e-2,10.006957,9.1194896)" />
    <path
       style="opacity:0.5;fill:#12429a;fill-opacity:1;fill-rule:nonzero;stroke:none;stroke-width:1;stroke-linecap:square;stroke-linejoin:round;stroke-miterlimit:4;stroke-dasharray:none;stroke-dashoffset:0;stroke-opacity:0.69658119;display:inline"
       d="M 3.0000004,2.9558315 L 3,8.0848072 L 8.980565,8.0977257 L 8.9805654,2.96875 L 3.0000004,2.9558315 z M 3.9375004,3.9870815 L 8.0430654,4 L 8.043065,7.0664756 L 3.9375,7.0535571 L 3.9375004,3.9870815 z"
       id="path4577"
       sodipodi:nodetypes="cccccccccc" />
    <path
       style="opacity:0.7;fill:url(#linearGradient4518);fill-opacity:1;fill-rule:evenodd;stroke:none;stroke-width:1px;stroke-linecap:butt;stroke-linejoin:miter;stroke-opacity:1;display:inline"
       d="M 5.7688825,3.9116619 L 6.8100707,7.0848067 L 8,7.0848067 L 8,3.9116619 L 5.7688825,3.9116619 z"
       id="path4592" />
    <path
       style="opacity:0.15;fill:url(#linearGradient4515);fill-opacity:1;fill-rule:evenodd;stroke:none;stroke-width:1px;stroke-linecap:butt;stroke-linejoin:miter;stroke-opacity:1;display:inline"
       d="M 5.0625,2 L 5.40625,3 L 9,3 L 9,8 L 7.09375,8 L 7.6875,9.84375 C 7.8720864,9.7628797 8,9.6530185 8,9.375 L 8,9 L 9,9 C 9.554,9 10,8.554 10,8 L 10,3 C 10,2.4460001 9.554,2 9,2 L 5.0625,2 z"
       id="path4602" />
    <g
       id="g3366"
       transform="translate(10,10)">
      <rect
         ry="2"
         rx="2"
         y="1"
         x="-11"
         height="10"
         width="10"
         id="rect3368"
         style="opacity:1;fill:url(#linearGradient3380);fill-opacity:1;fill-rule:nonzero;stroke:none;stroke-width:0.5;stroke-linecap:round;stroke-linejoin:round;stroke-miterlimit:4;stroke-dasharray:none;stroke-dashoffset:0;stroke-opacity:1;display:inline"
         transform="matrix(0,-1,1,0,0,0)" />
      <path
         style="opacity:1;fill:#000000;fill-opacity:1;fill-rule:nonzero;stroke:none;stroke-width:1;stroke-linecap:square;stroke-linejoin:miter;stroke-miterlimit:4;stroke-dasharray:none;stroke-dashoffset:0;stroke-opacity:1"
         d="M 3,2 C 2.446,2 2,2.446 2,3 L 2,8 C 2,8.554 2.446,9 3,9 L 4,9 L 4,9.5 C 4,9.777 4.223,10 4.5,10 L 7.5,10 C 7.777,10 8,9.777 8,9.5 L 8,9 L 9,9 C 9.554,9 10,8.554 10,8 L 10,3 C 10,2.446 9.554,2 9,2 L 3,2 z"
         id="path3370" />
      <path
         sodipodi:type="inkscape:offset"
         inkscape:radius="-0.031530734"
         inkscape:original="M 12.03125 12.03125 L 12.03125 65.96875 L 83.96875 65.96875 L 83.96875 12.03125 L 12.03125 12.03125 z "
         style="opacity:1;fill:url(#radialGradient3382);fill-opacity:1;fill-rule:nonzero;stroke:none;stroke-width:1;stroke-linecap:square;stroke-linejoin:round;stroke-miterlimit:4;stroke-dasharray:none;stroke-dashoffset:0;stroke-opacity:0.69658119;display:inline"
         id="path3372"
         d="M 12.0625,12.0625 L 12.0625,65.9375 L 83.9375,65.9375 L 83.9375,12.0625 L 12.0625,12.0625 z"
         transform="matrix(-8.3478261e-2,0,0,-9.2807425e-2,10.006957,9.1194896)" />
      <path
         style="opacity:0.5;fill:#12429a;fill-opacity:1;fill-rule:nonzero;stroke:none;stroke-width:1;stroke-linecap:square;stroke-linejoin:round;stroke-miterlimit:4;stroke-dasharray:none;stroke-dashoffset:0;stroke-opacity:0.69658119;display:inline"
         d="M 3.0000004,2.9558315 L 3,8.0848072 L 8.980565,8.0977257 L 8.9805654,2.96875 L 3.0000004,2.9558315 z M 3.9375004,3.9870815 L 8.0430654,4 L 8.043065,7.0664756 L 3.9375,7.0535571 L 3.9375004,3.9870815 z"
         id="path3374"
         sodipodi:nodetypes="cccccccccc" />
      <path
         style="opacity:0.7;fill:url(#linearGradient3384);fill-opacity:1;fill-rule:evenodd;stroke:none;stroke-width:1px;stroke-linecap:butt;stroke-linejoin:miter;stroke-opacity:1;display:inline"
         d="M 5.7688825,3.9116619 L 6.8100707,7.0848067 L 8,7.0848067 L 8,3.9116619 L 5.7688825,3.9116619 z"
         id="path3376" />
      <path
         style="opacity:0.15;fill:url(#linearGradient3386);fill-opacity:1;fill-rule:evenodd;stroke:none;stroke-width:1px;stroke-linecap:butt;stroke-linejoin:miter;stroke-opacity:1;display:inline"
         d="M 5.0625,2 L 5.40625,3 L 9,3 L 9,8 L 7.09375,8 L 7.6875,9.84375 C 7.8720864,9.7628797 8,9.6530185 8,9.375 L 8,9 L 9,9 C 9.554,9 10,8.554 10,8 L 10,3 C 10,2.4460001 9.554,2 9,2 L 5.0625,2 z"
         id="path3378" />
    </g>
    <rect
       transform="matrix(0,-1,1,0,0,0)"
       style="fill:url(#linearGradient4528);fill-opacity:1.0;fill-rule:nonzero;stroke:none;stroke-width:0.50000000000000000;stroke-linecap:round;stroke-linejoin:round;stroke-miterlimit:4;stroke-dasharray:none;stroke-dashoffset:0;stroke-opacity:1;display:inline"
       id="rect4526"
       width="10"
       height="10"
       x="-21"
       y="1"
       rx="2"
       ry="2" />
    <path
       style="opacity:0.2;fill:url(#radialGradient7015);fill-opacity:1;fill-rule:nonzero;stroke:none;stroke-width:2;stroke-linecap:square;stroke-linejoin:miter;stroke-miterlimit:4;stroke-dasharray:none;stroke-dashoffset:0;stroke-opacity:1;display:inline"
       d="M 4.0424029,11.031802 L 4.0424029,15 L 10.035336,15 L 10.035336,11.217811 C 9.8882338,11.105128 9.7187587,11.031802 9.5359248,11.031802 L 4.0424029,11.031802 z"
       id="rect3273" />
    <rect
       style="opacity:1;fill:url(#radialGradient7013);fill-opacity:1;fill-rule:nonzero;stroke:none;stroke-width:1.00000012;stroke-linecap:square;stroke-linejoin:miter;stroke-miterlimit:4;stroke-dasharray:none;stroke-dashoffset:0;stroke-opacity:1;display:inline"
       id="rect3255"
       width="4.0689044"
       height="1.9819164"
       x="4.9628978"
       y="12.018084" />
    <rect
       y="16"
       x="4"
       height="4"
       width="2"
       id="rect4532"
       style="fill:url(#linearGradient4555);fill-opacity:1;fill-rule:nonzero;stroke:none;stroke-width:0.5;stroke-linecap:square;stroke-linejoin:miter;stroke-miterlimit:4;stroke-dasharray:none;stroke-dashoffset:0;stroke-opacity:1;display:inline" />
    <rect
       style="fill:url(#linearGradient4567);fill-opacity:1;fill-rule:nonzero;stroke:none;stroke-width:0.50000000000000000;stroke-linecap:square;stroke-linejoin:miter;stroke-miterlimit:4;stroke-dasharray:none;stroke-dashoffset:0;stroke-opacity:1;display:inline;opacity:0.6"
       id="rect4557"
       width="1"
       height="4"
       x="5"
       y="-20"
       transform="scale(1,-1)" />
    <rect
       style="fill:url(#linearGradient4575);fill-opacity:1;fill-rule:nonzero;stroke:none;stroke-width:0.5;stroke-linecap:square;stroke-linejoin:miter;stroke-miterlimit:4;stroke-dasharray:none;stroke-dashoffset:0;stroke-opacity:1;display:inline"
       id="rect4569"
       width="2"
       height="4"
       x="6"
       y="16" />
    <rect
       transform="scale(1,-1)"
       y="-20"
       x="7"
       height="4"
       width="1"
       id="rect4573"
       style="opacity:0.6;fill:url(#linearGradient4579);fill-opacity:1;fill-rule:nonzero;stroke:none;stroke-width:0.5;stroke-linecap:square;stroke-linejoin:miter;stroke-miterlimit:4;stroke-dasharray:none;stroke-dashoffset:0;stroke-opacity:1;display:inline" />
    <rect
       y="16"
       x="8"
       height="4"
       width="2"
       id="rect4581"
       style="fill:url(#linearGradient4587);fill-opacity:1;fill-rule:nonzero;stroke:none;stroke-width:0.5;stroke-linecap:square;stroke-linejoin:miter;stroke-miterlimit:4;stroke-dasharray:none;stroke-dashoffset:0;stroke-opacity:1;display:inline" />
    <rect
       style="opacity:0.6;fill:url(#linearGradient4591);fill-opacity:1;fill-rule:nonzero;stroke:none;stroke-width:0.5;stroke-linecap:square;stroke-linejoin:miter;stroke-miterlimit:4;stroke-dasharray:none;stroke-dashoffset:0;stroke-opacity:1;display:inline"
       id="rect4585"
       width="1"
       height="4"
       x="9"
       y="-20"
       transform="scale(1,-1)" />
    <rect
       style="opacity:0.4;fill:#000000;fill-opacity:1;fill-rule:nonzero;stroke:none;stroke-width:1;stroke-linecap:square;stroke-linejoin:miter;stroke-miterlimit:4;stroke-dasharray:none;stroke-dashoffset:0;stroke-opacity:1"
       id="rect4593"
       width="1"
       height="9.9381628"
       x="3"
       y="10.979682" />
    <rect
       style="opacity:0.40000000000000002;fill:#b3b3b3;fill-opacity:1;fill-rule:nonzero;stroke:none;stroke-width:1;stroke-linecap:square;stroke-linejoin:miter;stroke-miterlimit:4;stroke-dasharray:none;stroke-dashoffset:0;stroke-opacity:1"
       id="rect4595"
       width="0.97173142"
       height="0.99381626"
       x="2.0097172"
       y="18.04682" />
    <rect
       y="16.04682"
       x="2.0097172"
       height="0.99381626"
       width="0.97173142"
       id="rect4597"
       style="opacity:0.4;fill:#b3b3b3;fill-opacity:1;fill-rule:nonzero;stroke:none;stroke-width:1;stroke-linecap:square;stroke-linejoin:miter;stroke-miterlimit:4;stroke-dasharray:none;stroke-dashoffset:0;stroke-opacity:1" />
    <rect
       style="opacity:0.4;fill:#b3b3b3;fill-opacity:1;fill-rule:nonzero;stroke:none;stroke-width:1;stroke-linecap:square;stroke-linejoin:miter;stroke-miterlimit:4;stroke-dasharray:none;stroke-dashoffset:0;stroke-opacity:1"
       id="rect4599"
       width="0.97173142"
       height="0.99381626"
       x="2.0097172"
       y="12.04682" />
    <rect
       style="opacity:0.2;fill:#b3b3b3;fill-opacity:1;fill-rule:nonzero;stroke:none;stroke-width:1;stroke-linecap:square;stroke-linejoin:miter;stroke-miterlimit:4;stroke-dasharray:none;stroke-dashoffset:0;stroke-opacity:1"
       id="rect4601"
       width="5.9628973"
       height="0.99381626"
       x="4.009717"
       y="16.04682" />
    <rect
       style="opacity:0.52075472;fill:#000000;fill-opacity:1;fill-rule:nonzero;stroke:none;stroke-width:1;stroke-linecap:square;stroke-linejoin:miter;stroke-miterlimit:4;stroke-dasharray:none;stroke-dashoffset:0;stroke-opacity:1"
       id="rect4640"
       width="5.9823322"
       height="0.9567138"
       x="4"
       y="15.043286" />
    <rect
       style="opacity:1;fill:#aad400;fill-opacity:1;fill-rule:nonzero;stroke:none;stroke-width:1;stroke-linecap:square;stroke-linejoin:miter;stroke-miterlimit:4;stroke-dasharray:none;stroke-dashoffset:0;stroke-opacity:1"
       id="rect4642"
       width="1"
       height="1"
       x="5"
       y="15" />
    <rect
       y="15"
       x="7"
       height="1"
       width="1"
       id="rect4644"
       style="opacity:1;fill:#aad400;fill-opacity:1;fill-rule:nonzero;stroke:none;stroke-width:1;stroke-linecap:square;stroke-linejoin:miter;stroke-miterlimit:4;stroke-dasharray:none;stroke-dashoffset:0;stroke-opacity:1" />
    <rect
       style="opacity:1;fill:#aad400;fill-opacity:1;fill-rule:nonzero;stroke:none;stroke-width:1;stroke-linecap:square;stroke-linejoin:miter;stroke-miterlimit:4;stroke-dasharray:none;stroke-dashoffset:0;stroke-opacity:1"
       id="rect4646"
       width="1"
       height="1"
       x="9"
       y="15" />
    <path
       id="path3235"
       d="m 13,21 c -1.108,0 -2,-0.892 -2,-2 l 0,-1 c 0,1.108 0.892,2 2,2 l 6,0 c 1.108,0 2,-0.892 2,-2 l 0,1 c 0,1.108 -0.892,2 -2,2 z"
       style="opacity:0.35;fill:url(#linearGradient3073);fill-opacity:1;fill-rule:evenodd;stroke:none;display:inline"
       inkscape:connector-curvature="0"
       sodipodi:nodetypes="sscsscsss" />
    <path
       sodipodi:nodetypes="sscsscsss"
       inkscape:connector-curvature="0"
       style="opacity:0.15;fill:url(#linearGradient3890);fill-opacity:1;fill-rule:evenodd;stroke:none;display:inline"
       d="M 3,21 C 1.892,21 1,20.108 1,19 l 0,-1 c 0,1.108 0.892,2 2,2 l 6,0 c 1.108,0 2,-0.892 2,-2 l 0,1 c 0,1.108 -0.892,2 -2,2 z"
       id="path3888" />
    <path
       id="path3892"
       d="M 3,11 C 1.892,11 1,10.108 1,9 L 1,8 c 0,1.108 0.892,2 2,2 l 6,0 c 1.108,0 2,-0.892 2,-2 l 0,1 c 0,1.108 -0.892,2 -2,2 z"
       style="opacity:0.35;fill:url(#linearGradient3894);fill-opacity:1;fill-rule:evenodd;stroke:none;display:inline"
       inkscape:connector-curvature="0"
       sodipodi:nodetypes="sscsscsss" />
    <g
       transform="translate(10,10)"
       id="g3896">
      <rect
         transform="matrix(0,-1,1,0,0,0)"
         style="opacity:1;fill:url(#linearGradient3380);fill-opacity:1;fill-rule:nonzero;stroke:none;stroke-width:0.5;stroke-linecap:round;stroke-linejoin:round;stroke-miterlimit:4;stroke-dasharray:none;stroke-dashoffset:0;stroke-opacity:1;display:inline"
         id="rect3898"
         width="10"
         height="10"
         x="-11"
         y="1"
         rx="2"
         ry="2" />
      <path
         id="path3900"
         d="M 3,2 C 2.446,2 2,2.446 2,3 L 2,8 C 2,8.554 2.446,9 3,9 L 4,9 L 4,9.5 C 4,9.777 4.223,10 4.5,10 L 7.5,10 C 7.777,10 8,9.777 8,9.5 L 8,9 L 9,9 C 9.554,9 10,8.554 10,8 L 10,3 C 10,2.446 9.554,2 9,2 L 3,2 z"
         style="opacity:1;fill:#000000;fill-opacity:1;fill-rule:nonzero;stroke:none;stroke-width:1;stroke-linecap:square;stroke-linejoin:miter;stroke-miterlimit:4;stroke-dasharray:none;stroke-dashoffset:0;stroke-opacity:1" />
      <path
         transform="matrix(-8.3478261e-2,0,0,-9.2807425e-2,10.006957,9.1194896)"
         d="M 12.0625,12.0625 L 12.0625,65.9375 L 83.9375,65.9375 L 83.9375,12.0625 L 12.0625,12.0625 z"
         id="path3902"
         style="opacity:1;fill:url(#radialGradient3382);fill-opacity:1;fill-rule:nonzero;stroke:none;stroke-width:1;stroke-linecap:square;stroke-linejoin:round;stroke-miterlimit:4;stroke-dasharray:none;stroke-dashoffset:0;stroke-opacity:0.69658119;display:inline"
         inkscape:original="M 12.03125 12.03125 L 12.03125 65.96875 L 83.96875 65.96875 L 83.96875 12.03125 L 12.03125 12.03125 z "
         inkscape:radius="-0.031530734"
         sodipodi:type="inkscape:offset" />
      <path
         sodipodi:nodetypes="cccccccccc"
         id="path3904"
         d="M 3.0000004,2.9558315 L 3,8.0848072 L 8.980565,8.0977257 L 8.9805654,2.96875 L 3.0000004,2.9558315 z M 3.9375004,3.9870815 L 8.0430654,4 L 8.043065,7.0664756 L 3.9375,7.0535571 L 3.9375004,3.9870815 z"
         style="opacity:0.5;fill:#12429a;fill-opacity:1;fill-rule:nonzero;stroke:none;stroke-width:1;stroke-linecap:square;stroke-linejoin:round;stroke-miterlimit:4;stroke-dasharray:none;stroke-dashoffset:0;stroke-opacity:0.69658119;display:inline" />
      <path
         id="path3906"
         d="M 5.7688825,3.9116619 L 6.8100707,7.0848067 L 8,7.0848067 L 8,3.9116619 L 5.7688825,3.9116619 z"
         style="opacity:0.7;fill:url(#linearGradient3384);fill-opacity:1;fill-rule:evenodd;stroke:none;stroke-width:1px;stroke-linecap:butt;stroke-linejoin:miter;stroke-opacity:1;display:inline" />
      <path
         id="path3908"
         d="M 5.0625,2 L 5.40625,3 L 9,3 L 9,8 L 7.09375,8 L 7.6875,9.84375 C 7.8720864,9.7628797 8,9.6530185 8,9.375 L 8,9 L 9,9 C 9.554,9 10,8.554 10,8 L 10,3 C 10,2.4460001 9.554,2 9,2 L 5.0625,2 z"
         style="opacity:0.15;fill:url(#linearGradient3386);fill-opacity:1;fill-rule:evenodd;stroke:none;stroke-width:1px;stroke-linecap:butt;stroke-linejoin:miter;stroke-opacity:1;display:inline" />
    </g>
    <path
       style="fill:url(#linearGradient3943);fill-opacity:1;fill-rule:nonzero;stroke:none;display:inline;opacity:0.2"
       d="M 3 11 C 1.892 11 1 11.892 1 13 L 1 19 C 1 20.108 1.892 21 3 21 L 9 21 C 10.108 21 11 20.108 11 19 L 11 13 C 11 11.892 10.108 11 9 11 L 3 11 z M 3 11.96875 L 9 11.96875 C 9.5894732 11.96875 10.03125 12.410527 10.03125 13 L 10.03125 19 C 10.03125 19.589473 9.5894732 20.03125 9 20.03125 L 3 20.03125 C 2.4105268 20.03125 1.96875 19.589473 1.96875 19 L 1.96875 13 C 1.96875 12.410527 2.4105268 11.96875 3 11.96875 z "
       id="rect3930" />
    <path
       id="path3945"
       d="m 13,11 c -1.108,0 -2,0.892 -2,2 l 0,6 c 0,1.108 0.892,2 2,2 l 6,0 c 1.108,0 2,-0.892 2,-2 l 0,-6 c 0,-1.108 -0.892,-2 -2,-2 l -6,0 z m 0,0.96875 6,0 c 0.589473,0 1.03125,0.441777 1.03125,1.03125 l 0,6 c 0,0.589473 -0.441777,1.03125 -1.03125,1.03125 l -6,0 c -0.589473,0 -1.03125,-0.441777 -1.03125,-1.03125 l 0,-6 c 0,-0.589473 0.441777,-1.03125 1.03125,-1.03125 z"
       style="opacity:0.7;fill:url(#linearGradient3947);fill-opacity:1;fill-rule:nonzero;stroke:none;display:inline"
       inkscape:connector-curvature="0" />
    <path
       inkscape:connector-curvature="0"
       style="opacity:0.7;fill:url(#linearGradient3951);fill-opacity:1;fill-rule:nonzero;stroke:none;display:inline"
       d="M 3,1 C 1.892,1 1,1.892 1,3 l 0,6 c 0,1.108 0.892,2 2,2 l 6,0 c 1.108,0 2,-0.892 2,-2 L 11,3 C 11,1.892 10.108,1 9,1 L 3,1 z m 0,0.96875 6,0 c 0.589473,0 1.03125,0.441777 1.03125,1.03125 l 0,6 c 0,0.589473 -0.441777,1.03125 -1.03125,1.03125 l -6,0 C 2.410527,10.03125 1.96875,9.589473 1.96875,9 l 0,-6 C 1.96875,2.410527 2.410527,1.96875 3,1.96875 z"
       id="path3949" />
  </g>
</svg>
