<?xml version="1.0" encoding="UTF-8" standalone="no"?>
<!-- Created with Inkscape (http://www.inkscape.org/) -->

<svg
   xmlns:dc="http://purl.org/dc/elements/1.1/"
   xmlns:cc="http://creativecommons.org/ns#"
   xmlns:rdf="http://www.w3.org/1999/02/22-rdf-syntax-ns#"
   xmlns:svg="http://www.w3.org/2000/svg"
   xmlns="http://www.w3.org/2000/svg"
   xmlns:xlink="http://www.w3.org/1999/xlink"
   xmlns:sodipodi="http://sodipodi.sourceforge.net/DTD/sodipodi-0.dtd"
   xmlns:inkscape="http://www.inkscape.org/namespaces/inkscape"
   width="22"
   height="22"
   id="svg2"
   sodipodi:version="0.32"
   inkscape:version="0.48.0 r9654"
   version="1.0"
   sodipodi:docname="applications-accessories.svg"
   inkscape:output_extension="org.inkscape.output.svg.inkscape"
   style="display:inline">
  <defs
     id="defs4">
    <linearGradient
       inkscape:collect="always"
       id="linearGradient3327">
      <stop
         style="stop-color:#000000;stop-opacity:1;"
         offset="0"
         id="stop3330" />
      <stop
         style="stop-color:#000000;stop-opacity:0;"
         offset="1"
         id="stop3333" />
    </linearGradient>
    <linearGradient
       id="linearGradient3323">
      <stop
         style="stop-color:#000000;stop-opacity:0.70588237;"
         offset="0"
         id="stop3325" />
      <stop
         style="stop-color:#000000;stop-opacity:0.15686275;"
         offset="1"
         id="stop3329" />
    </linearGradient>
    <linearGradient
       inkscape:collect="always"
       id="linearGradient6957">
      <stop
         style="stop-color:#000000;stop-opacity:1;"
         offset="0"
         id="stop6959" />
      <stop
         style="stop-color:#000000;stop-opacity:0"
         offset="1"
         id="stop6961" />
    </linearGradient>
    <linearGradient
       id="ButtonShadow"
       gradientTransform="scale(0.9883037,1.0118347)"
       x1="9.3550024"
       y1="21.742682"
       x2="9.3550024"
       y2="0.49362123"
       gradientUnits="userSpaceOnUse">
      <stop
         id="stop3277"
         offset="0"
         style="stop-color:#000000;stop-opacity:0.60784316;" />
      <stop
         style="stop-color:#000000;stop-opacity:0.39215686;"
         offset="0.64112431"
         id="stop3285" />
      <stop
         id="stop3279"
         offset="1"
         style="stop-color:#000000;stop-opacity:0.18039216;" />
    </linearGradient>
    <linearGradient
       id="ButtonColor"
       x1="10.31979"
       y1="21"
       x2="10.31979"
       y2="0.99929649"
       gradientUnits="userSpaceOnUse"
       xlink:href="#linearGradient3187"
       spreadMethod="pad">
      <stop
         style="stop-color:#b4b4b4;stop-opacity:1;"
         offset="0"
         id="stop6829" />
      <stop
         style="stop-color:#e6e6e6;stop-opacity:1;"
         offset="1"
         id="stop6831" />
    </linearGradient>
    <linearGradient
       id="linearGradient7125">
      <stop
         style="stop-color:#90c7b0;stop-opacity:1;"
         offset="0"
         id="stop7127" />
      <stop
         style="stop-color:#438468;stop-opacity:1;"
         offset="1"
         id="stop7129" />
    </linearGradient>
    <linearGradient
       inkscape:collect="always"
       xlink:href="#linearGradient7125"
       id="linearGradient7131"
       x1="8.7237988"
       y1="7.3726006"
       x2="8.7237988"
       y2="3.7302363"
       gradientUnits="userSpaceOnUse"
       gradientTransform="matrix(1,0,0,1.2547204,0,-0.9503896)" />
    <linearGradient
       id="linearGradient3465">
      <stop
         style="stop-color:#a0a0a0;stop-opacity:1;"
         offset="0"
         id="stop3467" />
      <stop
         style="stop-color:#fdfdfd;stop-opacity:1;"
         offset="1"
         id="stop3469" />
    </linearGradient>
    <linearGradient
       inkscape:collect="always"
       xlink:href="#linearGradient3465"
       id="linearGradient3471"
       x1="35.5"
       y1="14"
       x2="35.5"
       y2="38.046776"
       gradientUnits="userSpaceOnUse"
       gradientTransform="matrix(0.1976744,0,0,0.1818182,-0.4651161,0.7727273)" />
    <linearGradient
       inkscape:collect="always"
       xlink:href="#linearGradient3929"
       id="linearGradient7075"
       gradientUnits="userSpaceOnUse"
       x1="23.482224"
       y1="98.617615"
       x2="23.482224"
       y2="96.000008"
       gradientTransform="matrix(0.7644287,0,0,0.7644287,-13.817431,-57.385159)" />
    <linearGradient
       inkscape:collect="always"
       xlink:href="#linearGradient3929"
       id="linearGradient7087"
       gradientUnits="userSpaceOnUse"
       gradientTransform="matrix(0.7644287,0,0,0.7644287,-9.817431,-57.385159)"
       x1="23.482224"
       y1="98.617615"
       x2="23.482224"
       y2="96.000008" />
    <linearGradient
       inkscape:collect="always"
       xlink:href="#linearGradient3929"
       id="linearGradient7091"
       gradientUnits="userSpaceOnUse"
       gradientTransform="matrix(0.7644287,0,0,0.7644287,-5.817431,-57.385159)"
       x1="23.482224"
       y1="98.617615"
       x2="23.482224"
       y2="96.000008" />
    <linearGradient
       inkscape:collect="always"
       xlink:href="#linearGradient3929"
       id="linearGradient7103"
       gradientUnits="userSpaceOnUse"
       gradientTransform="matrix(0.7644287,0,0,0.7644287,-13.817431,-60.385159)"
       x1="23.482224"
       y1="98.617615"
       x2="23.482224"
       y2="96.000008" />
    <linearGradient
       inkscape:collect="always"
       xlink:href="#linearGradient3929"
       id="linearGradient7105"
       gradientUnits="userSpaceOnUse"
       gradientTransform="matrix(0.7644287,0,0,0.7644287,-9.817431,-60.385159)"
       x1="23.482224"
       y1="98.617615"
       x2="23.482224"
       y2="96.000008" />
    <linearGradient
       inkscape:collect="always"
       xlink:href="#linearGradient3929"
       id="linearGradient7107"
       gradientUnits="userSpaceOnUse"
       gradientTransform="matrix(0.7644287,0,0,0.7644287,-5.817431,-60.385159)"
       x1="23.482224"
       y1="98.617615"
       x2="23.482224"
       y2="96.000008" />
    <linearGradient
       inkscape:collect="always"
       xlink:href="#linearGradient3929"
       id="linearGradient7115"
       gradientUnits="userSpaceOnUse"
       gradientTransform="matrix(0.7644287,0,0,0.7644287,-13.817431,-63.385159)"
       x1="23.482224"
       y1="98.617615"
       x2="23.482224"
       y2="96.000008" />
    <linearGradient
       inkscape:collect="always"
       xlink:href="#linearGradient3929"
       id="linearGradient7117"
       gradientUnits="userSpaceOnUse"
       gradientTransform="matrix(0.7644287,0,0,0.7644287,-9.817431,-63.385159)"
       x1="23.482224"
       y1="98.617615"
       x2="23.482224"
       y2="96.000008" />
    <linearGradient
       inkscape:collect="always"
       xlink:href="#linearGradient3929"
       id="linearGradient7119"
       gradientUnits="userSpaceOnUse"
       gradientTransform="matrix(0.7644287,0,0,0.7644287,-5.817431,-63.385159)"
       x1="23.482224"
       y1="98.617615"
       x2="23.482224"
       y2="96.000008" />
    <linearGradient
       inkscape:collect="always"
       xlink:href="#linearGradient3929"
       id="linearGradient7123"
       gradientUnits="userSpaceOnUse"
       gradientTransform="matrix(0.7644287,0,0,0.7644287,-1.817431,-63.385159)"
       x1="23.482224"
       y1="98.617615"
       x2="23.482224"
       y2="96.000008" />
    <linearGradient
       inkscape:collect="always"
       xlink:href="#linearGradient3929"
       id="linearGradient7153"
       gradientUnits="userSpaceOnUse"
       gradientTransform="matrix(0.7644287,0,0,0.7644287,-1.817431,-57.385159)"
       x1="23.482224"
       y1="98.617615"
       x2="23.482224"
       y2="96.000008" />
    <linearGradient
       inkscape:collect="always"
       xlink:href="#linearGradient3929"
       id="linearGradient7157"
       gradientUnits="userSpaceOnUse"
       gradientTransform="matrix(0.7644287,0,0,0.7644287,-1.817431,-60.385159)"
       x1="23.482224"
       y1="98.617615"
       x2="23.482224"
       y2="96.000008" />
    <linearGradient
       id="linearGradient3461">
      <stop
         style="stop-color:#444542;stop-opacity:1;"
         offset="0"
         id="stop3463" />
      <stop
         style="stop-color:#71746e;stop-opacity:1;"
         offset="1"
         id="stop3465" />
    </linearGradient>
    <linearGradient
       id="linearGradient3401">
      <stop
         style="stop-color:#292929;stop-opacity:1;"
         offset="0"
         id="stop3403" />
      <stop
         id="stop3447"
         offset="0.2"
         style="stop-color:#595959;stop-opacity:1;" />
      <stop
         id="stop3410"
         offset="0.69999999"
         style="stop-color:#efefef;stop-opacity:1;" />
      <stop
         style="stop-color:#7f7f7f;stop-opacity:1;"
         offset="1"
         id="stop3405" />
    </linearGradient>
    <linearGradient
       id="linearGradient3308">
      <stop
         style="stop-color:#ba6920;stop-opacity:1;"
         offset="0"
         id="stop3310" />
      <stop
         style="stop-color:#ffffff;stop-opacity:1;"
         offset="1"
         id="stop3312" />
    </linearGradient>
    <linearGradient
       id="linearGradient3394">
      <stop
         style="stop-color:#000000;stop-opacity:1;"
         offset="0"
         id="stop3396" />
      <stop
         id="stop3402"
         offset="0.5"
         style="stop-color:#7d7d7d;stop-opacity:1;" />
      <stop
         style="stop-color:#000000;stop-opacity:1;"
         offset="1"
         id="stop3398" />
    </linearGradient>
    <linearGradient
       id="linearGradient3254">
      <stop
         style="stop-color:#000000;stop-opacity:1;"
         offset="0"
         id="stop3256" />
      <stop
         id="stop3027"
         offset="0.06588447"
         style="stop-color:#000000;stop-opacity:1;" />
      <stop
         id="stop3264"
         offset="0.07"
         style="stop-color:#ad5f1b;stop-opacity:1;" />
      <stop
         style="stop-color:#ad601a;stop-opacity:1;"
         offset="0.1913653"
         id="stop3030" />
      <stop
         id="stop3262"
         offset="0.20983393"
         style="stop-color:#785800;stop-opacity:1;" />
      <stop
         style="stop-color:#785700;stop-opacity:1;"
         offset="1"
         id="stop3258" />
    </linearGradient>
    <linearGradient
       id="linearGradient3278">
      <stop
         style="stop-color:#944500;stop-opacity:1;"
         offset="0"
         id="stop3280" />
      <stop
         id="stop3290"
         offset="0.30000001"
         style="stop-color:#e2700a;stop-opacity:1;" />
      <stop
         id="stop3286"
         offset="0.34999999"
         style="stop-color:#ff9e14;stop-opacity:1;" />
      <stop
         style="stop-color:#f38f00;stop-opacity:1;"
         offset="0.64999998"
         id="stop3288" />
      <stop
         id="stop3292"
         offset="0.69999999"
         style="stop-color:#ffba14;stop-opacity:1;" />
      <stop
         style="stop-color:#ffe094;stop-opacity:1;"
         offset="1"
         id="stop3282" />
    </linearGradient>
    <linearGradient
       id="linearGradient3485">
      <stop
         style="stop-color:#e2433d;stop-opacity:1;"
         offset="0"
         id="stop3487" />
      <stop
         style="stop-color:#f08682;stop-opacity:1;"
         offset="1"
         id="stop3489" />
    </linearGradient>
    <inkscape:perspective
       sodipodi:type="inkscape:persp3d"
       inkscape:vp_x="0 : 11 : 1"
       inkscape:vp_y="0 : 1000 : 0"
       inkscape:vp_z="22 : 11 : 1"
       inkscape:persp3d-origin="11 : 7.3333333 : 1"
       id="perspective103" />
    <linearGradient
       id="linearGradient3215">
      <stop
         id="stop3217"
         offset="0"
         style="stop-color:#000000;stop-opacity:0.78431374;" />
      <stop
         style="stop-color:#000000;stop-opacity:0.3137255;"
         offset="0.30000001"
         id="stop3318" />
      <stop
         id="stop3219"
         offset="1"
         style="stop-color:#000000;stop-opacity:0.07843138;" />
    </linearGradient>
    <linearGradient
       y2="5.9489675"
       x2="47.667068"
       y1="121.97153"
       x1="47.667068"
       gradientTransform="matrix(0.1678362,0,0,0.1678362,0.244736,0.2447379)"
       gradientUnits="userSpaceOnUse"
       id="linearGradient2442"
       xlink:href="#linearGradient3187"
       inkscape:collect="always" />
    <filter
       height="2.1786267"
       y="-0.58931336"
       width="1.5882337"
       x="-0.29411686"
       id="filter3342"
       inkscape:collect="always">
      <feGaussianBlur
         id="feGaussianBlur3344"
         stdDeviation="2.2029067"
         inkscape:collect="always" />
    </filter>
    <linearGradient
       id="linearGradient3544">
      <stop
         style="stop-color:#040404;stop-opacity:1;"
         offset="0"
         id="stop3546" />
      <stop
         style="stop-color:#4b4b4b;stop-opacity:1;"
         offset="1"
         id="stop3548" />
    </linearGradient>
    <linearGradient
       inkscape:collect="always"
       id="linearGradient3532">
      <stop
         style="stop-color:#ffffff;stop-opacity:1;"
         offset="0"
         id="stop3534" />
      <stop
         style="stop-color:#ffffff;stop-opacity:0;"
         offset="1"
         id="stop3536" />
    </linearGradient>
    <linearGradient
       id="linearGradient3495">
      <stop
         style="stop-color:#555555;stop-opacity:1;"
         offset="0"
         id="stop3497" />
      <stop
         id="stop3503"
         offset="0.43958005"
         style="stop-color:#797979;stop-opacity:1;" />
      <stop
         style="stop-color:#999999;stop-opacity:1;"
         offset="0.57803553"
         id="stop3505" />
      <stop
         style="stop-color:#d3d3d3;stop-opacity:1;"
         offset="1"
         id="stop3499" />
    </linearGradient>
    <linearGradient
       inkscape:collect="always"
       id="linearGradient3436">
      <stop
         style="stop-color:#ffffff;stop-opacity:1;"
         offset="0"
         id="stop3438" />
      <stop
         style="stop-color:#ffffff;stop-opacity:0;"
         offset="1"
         id="stop3440" />
    </linearGradient>
    <linearGradient
       inkscape:collect="always"
       id="linearGradient3423">
      <stop
         style="stop-color:#000000;stop-opacity:1;"
         offset="0"
         id="stop3425" />
      <stop
         style="stop-color:#000000;stop-opacity:0;"
         offset="1"
         id="stop3427" />
    </linearGradient>
    <linearGradient
       id="linearGradient3330">
      <stop
         style="stop-color:#c8c8c8;stop-opacity:1;"
         offset="0"
         id="stop3332" />
      <stop
         id="stop3338"
         offset="0.56385005"
         style="stop-color:#646464;stop-opacity:1;" />
      <stop
         style="stop-color:#505050;stop-opacity:1;"
         offset="0.64175642"
         id="stop3340" />
      <stop
         style="stop-color:#282828;stop-opacity:1;"
         offset="1"
         id="stop3334" />
    </linearGradient>
    <linearGradient
       id="linearGradient3322">
      <stop
         style="stop-color:#ffffff;stop-opacity:1;"
         offset="0"
         id="stop3324" />
      <stop
         style="stop-color:#282828;stop-opacity:1;"
         offset="1"
         id="stop3326" />
    </linearGradient>
    <linearGradient
       id="linearGradient3929">
      <stop
         style="stop-color:#000000;stop-opacity:1;"
         offset="0"
         id="stop3931" />
      <stop
         style="stop-color:#000000;stop-opacity:0.58823532;"
         offset="1"
         id="stop3933" />
    </linearGradient>
    <linearGradient
       id="linearGradient3187">
      <stop
         style="stop-color:#a26f39;stop-opacity:1;"
         offset="0"
         id="stop3189" />
      <stop
         style="stop-color:#d9b27b;stop-opacity:1;"
         offset="1"
         id="stop3191" />
    </linearGradient>
    <linearGradient
       inkscape:collect="always"
       xlink:href="#linearGradient3532"
       id="linearGradient4019"
       gradientUnits="userSpaceOnUse"
       x1="69.183792"
       y1="78.96875"
       x2="69.183792"
       y2="49.031033"
       gradientTransform="translate(29.5,-55)" />
    <linearGradient
       inkscape:collect="always"
       xlink:href="#linearGradient3436"
       id="linearGradient4024"
       gradientUnits="userSpaceOnUse"
       x1="62.637825"
       y1="94"
       x2="61.637825"
       y2="65.678772"
       gradientTransform="matrix(0.1808593,0,0,0.1808593,-1.2731072,-2.1492146)" />
    <linearGradient
       inkscape:collect="always"
       xlink:href="#linearGradient3423"
       id="linearGradient4027"
       gradientUnits="userSpaceOnUse"
       x1="60.339729"
       y1="34"
       x2="60.339729"
       y2="60.062878"
       gradientTransform="matrix(0.1808593,0,0,0.1808593,-1.2731072,-2.1492146)" />
    <linearGradient
       inkscape:collect="always"
       xlink:href="#linearGradient3436"
       id="linearGradient4031"
       gradientUnits="userSpaceOnUse"
       x1="67.288132"
       y1="31.233255"
       x2="68.182961"
       y2="92.192421" />
    <linearGradient
       inkscape:collect="always"
       xlink:href="#linearGradient3544"
       id="linearGradient4033"
       gradientUnits="userSpaceOnUse"
       x1="59.141357"
       y1="31.833477"
       x2="59.141357"
       y2="99.173645" />
    <linearGradient
       inkscape:collect="always"
       xlink:href="#linearGradient3495"
       id="linearGradient4035"
       gradientUnits="userSpaceOnUse"
       x1="61.989902"
       y1="30.972258"
       x2="61.989902"
       y2="99.991722" />
    <radialGradient
       inkscape:collect="always"
       xlink:href="#linearGradient3330"
       id="radialGradient4037"
       gradientUnits="userSpaceOnUse"
       gradientTransform="matrix(-4.9335871e-8,1.5375001,-2.1378289,-6.8599443e-8,141.31345,-77.110153)"
       cx="71.417786"
       cy="32.694695"
       fx="71.417786"
       fy="32.694695"
       r="34.448795" />
    <linearGradient
       inkscape:collect="always"
       xlink:href="#linearGradient3322"
       id="linearGradient4039"
       gradientUnits="userSpaceOnUse"
       x1="74.862663"
       y1="30.972258"
       x2="74.862663"
       y2="80.730537" />
    <linearGradient
       inkscape:collect="always"
       xlink:href="#linearGradient3308"
       id="linearGradient6441"
       gradientUnits="userSpaceOnUse"
       gradientTransform="matrix(-0.2513097,2.8432668e-4,-4.8358822e-4,0.1480977,41.460964,1.5710995)"
       x1="136.98804"
       y1="17.043355"
       x2="148.99514"
       y2="17.043355" />
    <linearGradient
       inkscape:collect="always"
       xlink:href="#linearGradient3394"
       id="linearGradient6444"
       gradientUnits="userSpaceOnUse"
       gradientTransform="matrix(-0.4847146,6.6435722e-4,-9.3272275e-4,0.3460448,74.817389,1.07144)"
       x1="141.25001"
       y1="4.9218718"
       x2="144.81251"
       y2="4.9218718" />
    <linearGradient
       inkscape:collect="always"
       xlink:href="#linearGradient3278"
       id="linearGradient6447"
       gradientUnits="userSpaceOnUse"
       gradientTransform="matrix(-0.2283359,2.619013e-4,-4.3938035e-4,0.1364169,38.178616,1.87361)"
       x1="136"
       y1="60.000001"
       x2="150"
       y2="60.000001" />
    <linearGradient
       inkscape:collect="always"
       xlink:href="#linearGradient3485"
       id="linearGradient6450"
       gradientUnits="userSpaceOnUse"
       gradientTransform="matrix(0.2380374,0,0,0.1530025,-39.570418,0.1101614)"
       x1="136.41356"
       y1="115.49392"
       x2="149.52968"
       y2="115.49392" />
    <linearGradient
       inkscape:collect="always"
       xlink:href="#linearGradient3401"
       id="linearGradient6454"
       gradientUnits="userSpaceOnUse"
       gradientTransform="matrix(0.2277251,0,0,0.1578953,-38.092109,-1.2314571)"
       x1="136"
       y1="106"
       x2="150"
       y2="106" />
    <linearGradient
       inkscape:collect="always"
       xlink:href="#ButtonShadow"
       id="linearGradient6859"
       gradientUnits="userSpaceOnUse"
       gradientTransform="matrix(0.9883037,0,0,1.0118347,22.4375,0.25)"
       x1="9.3550024"
       y1="21.742682"
       x2="9.3550024"
       y2="0.49362123" />
    <linearGradient
       inkscape:collect="always"
       xlink:href="#ButtonColor"
       id="linearGradient6861"
       gradientUnits="userSpaceOnUse"
       x1="10.31979"
       y1="21"
       x2="10.31979"
       y2="0.99929649"
       gradientTransform="translate(22.4375,0.25)" />
    <linearGradient
       inkscape:collect="always"
       xlink:href="#linearGradient7125"
       id="linearGradient6863"
       gradientUnits="userSpaceOnUse"
       gradientTransform="matrix(0.445485,0,0,0.7024759,8.5493412,4.2377466)"
       x1="8.7237988"
       y1="7.3726006"
       x2="8.7237988"
       y2="3.7302363" />
    <linearGradient
       inkscape:collect="always"
       xlink:href="#linearGradient3465"
       id="linearGradient6865"
       gradientUnits="userSpaceOnUse"
       gradientTransform="matrix(8.7209279e-2,0,0,9.0909072e-2,8.4418603,5.3863636)"
       x1="35.5"
       y1="14"
       x2="35.5"
       y2="38.046776" />
    <linearGradient
       inkscape:collect="always"
       xlink:href="#linearGradient3929"
       id="linearGradient6867"
       gradientUnits="userSpaceOnUse"
       gradientTransform="matrix(0.7644287,0,0,0.7644287,8.620069,-57.135159)"
       x1="23.482224"
       y1="98.617615"
       x2="23.482224"
       y2="96.000008" />
    <linearGradient
       inkscape:collect="always"
       xlink:href="#linearGradient3929"
       id="linearGradient6869"
       gradientUnits="userSpaceOnUse"
       gradientTransform="matrix(0.7644287,0,0,0.7644287,12.620069,-57.135159)"
       x1="23.482224"
       y1="98.617615"
       x2="23.482224"
       y2="96.000008" />
    <linearGradient
       inkscape:collect="always"
       xlink:href="#linearGradient3929"
       id="linearGradient6871"
       gradientUnits="userSpaceOnUse"
       gradientTransform="matrix(0.7644287,0,0,0.7644287,16.620069,-57.135159)"
       x1="23.482224"
       y1="98.617615"
       x2="23.482224"
       y2="96.000008" />
    <linearGradient
       inkscape:collect="always"
       xlink:href="#linearGradient3929"
       id="linearGradient6873"
       gradientUnits="userSpaceOnUse"
       gradientTransform="matrix(0.7644287,0,0,0.7644287,8.620069,-60.135159)"
       x1="23.482224"
       y1="98.617615"
       x2="23.482224"
       y2="96.000008" />
    <linearGradient
       inkscape:collect="always"
       xlink:href="#linearGradient3929"
       id="linearGradient6875"
       gradientUnits="userSpaceOnUse"
       gradientTransform="matrix(0.7644287,0,0,0.7644287,12.620069,-60.135159)"
       x1="23.482224"
       y1="98.617615"
       x2="23.482224"
       y2="96.000008" />
    <linearGradient
       inkscape:collect="always"
       xlink:href="#linearGradient3929"
       id="linearGradient6877"
       gradientUnits="userSpaceOnUse"
       gradientTransform="matrix(0.7644287,0,0,0.7644287,16.620069,-60.135159)"
       x1="23.482224"
       y1="98.617615"
       x2="23.482224"
       y2="96.000008" />
    <linearGradient
       inkscape:collect="always"
       xlink:href="#linearGradient3929"
       id="linearGradient6879"
       gradientUnits="userSpaceOnUse"
       gradientTransform="matrix(0.7644287,0,0,0.7644287,8.620069,-63.135159)"
       x1="23.482224"
       y1="98.617615"
       x2="23.482224"
       y2="96.000008" />
    <linearGradient
       inkscape:collect="always"
       xlink:href="#linearGradient3929"
       id="linearGradient6881"
       gradientUnits="userSpaceOnUse"
       gradientTransform="matrix(0.7644287,0,0,0.7644287,12.620069,-63.135159)"
       x1="23.482224"
       y1="98.617615"
       x2="23.482224"
       y2="96.000008" />
    <linearGradient
       inkscape:collect="always"
       xlink:href="#linearGradient3929"
       id="linearGradient6883"
       gradientUnits="userSpaceOnUse"
       gradientTransform="matrix(0.7644287,0,0,0.7644287,16.620069,-63.135159)"
       x1="23.482224"
       y1="98.617615"
       x2="23.482224"
       y2="96.000008" />
    <linearGradient
       inkscape:collect="always"
       xlink:href="#linearGradient3929"
       id="linearGradient6885"
       gradientUnits="userSpaceOnUse"
       gradientTransform="matrix(0.7644287,0,0,0.7644287,20.620069,-63.135159)"
       x1="23.482224"
       y1="98.617615"
       x2="23.482224"
       y2="96.000008" />
    <linearGradient
       inkscape:collect="always"
       xlink:href="#linearGradient3929"
       id="linearGradient6887"
       gradientUnits="userSpaceOnUse"
       gradientTransform="matrix(0.7644287,0,0,0.7644287,20.620069,-57.135159)"
       x1="23.482224"
       y1="98.617615"
       x2="23.482224"
       y2="96.000008" />
    <linearGradient
       inkscape:collect="always"
       xlink:href="#linearGradient3929"
       id="linearGradient6889"
       gradientUnits="userSpaceOnUse"
       gradientTransform="matrix(0.7644287,0,0,0.7644287,20.620069,-60.135159)"
       x1="23.482224"
       y1="98.617615"
       x2="23.482224"
       y2="96.000008" />
    <linearGradient
       inkscape:collect="always"
       xlink:href="#ButtonColor"
       id="linearGradient6899"
       x1="14.274718"
       y1="16.896854"
       x2="14.274718"
       y2="4.8755779"
       gradientUnits="userSpaceOnUse"
       gradientTransform="translate(0,0.1031451)" />
    <linearGradient
       inkscape:collect="always"
       xlink:href="#linearGradient3215"
       id="linearGradient6947"
       x1="13.922939"
       y1="18"
       x2="13.922939"
       y2="2.9668739"
       gradientUnits="userSpaceOnUse" />
    <linearGradient
       inkscape:collect="always"
       xlink:href="#linearGradient6957"
       id="linearGradient6955"
       x1="5.5"
       y1="19.986137"
       x2="5.5"
       y2="-2.1336"
       gradientUnits="userSpaceOnUse"
       gradientTransform="matrix(1.1428571,0,0,1.0123046,-0.7857143,-2.2010994e-2)" />
    <linearGradient
       inkscape:collect="always"
       xlink:href="#linearGradient3187"
       id="linearGradient3332"
       x1="-1.8125"
       y1="22.25"
       x2="-1.8125"
       y2="2.2475588"
       gradientUnits="userSpaceOnUse"
       gradientTransform="translate(8.5625,-1.25)" />
    <linearGradient
       inkscape:collect="always"
       xlink:href="#linearGradient3327"
       id="linearGradient3335"
       x1="11.375"
       y1="22"
       x2="11.375"
       y2="-9.817296"
       gradientUnits="userSpaceOnUse" />
    <linearGradient
       y2="16"
       x2="10"
       y1="1"
       x1="10"
       gradientUnits="userSpaceOnUse"
       id="linearGradient3084"
       xlink:href="#linearGradient3823"
       inkscape:collect="always" />
    <linearGradient
       id="linearGradient3823">
      <stop
         id="stop3825"
         offset="0"
         style="stop-color:#ffffff;stop-opacity:1;" />
      <stop
         id="stop3829"
         offset="1"
         style="stop-color:#ffffff;stop-opacity:0;" />
    </linearGradient>
    <linearGradient
       inkscape:collect="always"
       xlink:href="#linearGradient3831"
       id="linearGradient3845"
       x1="11"
       y1="19.5"
       x2="21"
       y2="19.5"
       gradientUnits="userSpaceOnUse"
       spreadMethod="reflect" />
    <linearGradient
       id="linearGradient3831">
      <stop
         style="stop-color:#ffffff;stop-opacity:1;"
         offset="0"
         id="stop3833" />
      <stop
         id="stop3821"
         offset="0.75"
         style="stop-color:#ffffff;stop-opacity:0.49803922;" />
      <stop
         style="stop-color:#ffffff;stop-opacity:0;"
         offset="1"
         id="stop3835" />
    </linearGradient>
    <linearGradient
       y2="16"
       x2="10"
       y1="1"
       x1="10"
       gradientUnits="userSpaceOnUse"
       id="linearGradient3852"
       xlink:href="#linearGradient3823"
       inkscape:collect="always" />
  </defs>
  <sodipodi:namedview
     id="base"
     pagecolor="#ffffff"
     bordercolor="#e7e7e7"
     borderopacity="1"
     inkscape:pageopacity="0.0"
     inkscape:pageshadow="2"
     inkscape:zoom="18.713635"
     inkscape:cx="-20.13484"
     inkscape:cy="14.992954"
     inkscape:document-units="px"
     inkscape:current-layer="layer1"
     showgrid="true"
     inkscape:showpageshadow="false"
     showguides="true"
     inkscape:guide-bbox="true"
     inkscape:window-width="1920"
     inkscape:window-height="1026"
     inkscape:window-x="0"
     inkscape:window-y="25"
     inkscape:window-maximized="1">
    <sodipodi:guide
       orientation="1,0"
       position="0,112"
       id="guide2383" />
    <sodipodi:guide
       orientation="0,1"
       position="26.278146,128"
       id="guide2385" />
    <sodipodi:guide
       orientation="1,0"
       position="128,54.082119"
       id="guide2387" />
    <sodipodi:guide
       orientation="0,1"
       position="13.081476,-44.547728"
       id="guide2389" />
    <inkscape:grid
       type="xygrid"
       id="grid3672"
       visible="true"
       enabled="true" />
  </sodipodi:namedview>
  <metadata
     id="metadata7">
    <rdf:RDF>
      <cc:Work
         rdf:about="">
        <dc:format>image/svg+xml</dc:format>
        <dc:type
           rdf:resource="http://purl.org/dc/dcmitype/StillImage" />
      </cc:Work>
    </rdf:RDF>
  </metadata>
  <g
     inkscape:label="Button"
     inkscape:groupmode="layer"
     id="layer1"
     style="display:inline">
    <g
       id="g3337">
      <rect
         ry="2.5"
         rx="2.5"
         y="0.5"
         x="0.5"
         height="21.5"
         width="21"
         id="rect3371"
         style="opacity:0.29999999999999999;fill:url(#linearGradient3335);fill-opacity:1;stroke:none;stroke-width:1.00000011999999994;stroke-linecap:round;stroke-linejoin:miter;stroke-miterlimit:4;stroke-dasharray:none;stroke-opacity:1;display:inline" />
      <rect
         style="opacity:0.5;fill:#000000;fill-opacity:1;stroke:none;stroke-width:1.00000011999999994;stroke-linecap:round;stroke-linejoin:miter;stroke-miterlimit:4;stroke-dasharray:none;stroke-opacity:1;display:inline"
         id="rect2553"
         width="20"
         height="20"
         x="1"
         y="2"
         rx="2.3809524"
         ry="2.3255813" />
    </g>
    <rect
       transform="matrix(0.8817734,0,0,0.8817734,1.299059,1.2947549)"
       ry="2"
       rx="2"
       y="1.9800392"
       x="2"
       height="8.9714174"
       width="17.975767"
       id="rect3200"
       style="opacity:0.15;fill:#ffffff;fill-opacity:1;stroke:none;stroke-width:1;stroke-linecap:butt;stroke-linejoin:round;stroke-miterlimit:4;stroke-dasharray:none;stroke-dashoffset:0;stroke-opacity:1;display:inline;filter:url(#filter3342)" />
    <rect
       style="opacity:1;fill:url(#linearGradient3332);fill-opacity:1;fill-rule:evenodd;stroke:none;stroke-width:0.25;stroke-linecap:round;stroke-linejoin:miter;stroke-miterlimit:4;stroke-dasharray:none;stroke-dashoffset:0;stroke-opacity:1"
       id="rect3322"
       width="20"
       height="20"
       x="1"
       y="1"
       rx="2"
       ry="2" />
    <path
       style="opacity:0.6;fill:#593a19;fill-opacity:1;fill-rule:evenodd;stroke:none;stroke-width:1px;stroke-linecap:butt;stroke-linejoin:miter;stroke-opacity:1"
       d="M 18.53125,1 C 18.606692,1.0018694 18.676397,1.0228992 18.75,1.03125 C 18.741347,2.5383033 18.723569,4.0538864 18.71875,5.5625 C 18.697641,8.3213928 18.712897,11.084889 18.71875,13.84375 C 18.718409,14.275735 18.719381,14.693015 18.71875,15.125 C 18.717272,16.137644 18.707544,16.739471 18.75,17.75 C 18.66331,15.971927 18.693202,14.185411 18.65625,12.40625 C 18.649513,11.04559 18.632187,9.6739115 18.625,8.3125 C 18.623848,8.0942694 18.625749,7.8743616 18.625,7.65625 C 18.629527,7.5197305 18.653283,7.3866063 18.65625,7.25 C 18.673772,5.5635286 18.638828,3.8729886 18.625,2.1875 C 18.619598,3.3501245 18.584405,4.5247683 18.5625,5.6875 C 18.557529,4.1308322 18.550325,2.555167 18.53125,1 z M 18.625,8.3125 C 18.6204,9.6934426 18.600175,11.087815 18.59375,12.46875 C 18.605556,14.037688 18.532169,15.587208 18.53125,17.15625 C 18.520871,16.558497 18.532101,16.023777 18.53125,15.3125 C 18.530734,14.880972 18.531455,14.431527 18.53125,14 C 18.535244,12.430802 18.552606,10.881677 18.5625,9.3125 C 18.583917,8.9854259 18.609069,8.639876 18.625,8.3125 z M 18.5625,9.3125 C 18.481323,10.552176 18.384947,11.791066 18.3125,13.03125 C 18.304281,13.171948 18.274511,13.707243 18.25,14.25 C 18.245165,13.551366 18.22229,12.854705 18.21875,12.15625 C 18.225016,12.084614 18.212514,12.009137 18.21875,11.9375 C 18.351704,10.410024 18.47107,8.8758736 18.53125,7.34375 C 18.537695,7.0953591 18.557086,6.8734067 18.5625,6.625 C 18.564528,7.5222509 18.568158,8.415265 18.5625,9.3125 z M 18.21875,11.9375 C 18.197346,8.4217508 18.165808,4.8906259 18.15625,1.375 C 18.155111,1.2497082 18.157179,1.125274 18.15625,1 L 18.1875,1 C 18.187139,1.1251262 18.187995,1.2498609 18.1875,1.375 C 18.197068,4.8951479 18.197483,8.417407 18.21875,11.9375 z M 18.21875,12.15625 C 18.223825,12.985905 18.212886,13.826599 18.21875,14.65625 C 18.20614,14.937943 18.191568,15.284175 18.1875,15.375 C 18.095977,16.607766 18.046664,17.829074 17.96875,19.0625 C 17.938299,19.544566 17.909463,20.018196 17.875,20.5 C 17.872551,20.534243 17.877371,20.590752 17.875,20.625 C 17.865582,20.750162 17.854151,20.875115 17.84375,21 L 17.4375,21 C 17.438859,20.989703 17.436156,20.979045 17.4375,20.96875 C 17.570163,19.735145 17.678499,18.486411 17.78125,17.25 C 17.780541,17.218567 17.781952,17.18768 17.78125,17.15625 C 17.825413,16.628777 17.851682,16.12032 17.90625,15.59375 C 17.988672,14.450453 18.11885,13.298443 18.21875,12.15625 z M 17.78125,17.15625 C 17.751514,15.825008 17.70358,14.518868 17.6875,13.1875 C 17.652526,9.1292332 17.684589,5.0584351 17.6875,1 C 17.684705,5.0480562 17.683877,9.1083952 17.71875,13.15625 C 17.734874,14.491733 17.751597,15.820718 17.78125,17.15625 z M 18.21875,14.65625 C 18.225599,14.503259 18.242301,14.420478 18.25,14.25 C 18.253425,14.745068 18.246281,15.254934 18.25,15.75 C 18.256259,17.27125 18.261412,18.790125 18.25,20.3125 C 18.259706,18.793359 18.224991,17.267993 18.21875,15.75 C 18.215981,15.381257 18.221356,15.024995 18.21875,14.65625 z M 18.53125,17.15625 C 18.535437,17.397365 18.553072,17.619636 18.5625,17.90625 C 18.59273,18.825256 18.650951,19.739599 18.71875,20.65625 C 18.712883,20.611814 18.693402,20.575683 18.6875,20.53125 C 18.586651,19.414126 18.557258,19.318082 18.53125,18.1875 C 18.523309,17.842272 18.531048,17.501516 18.53125,17.15625 z M 17.59375,1 C 17.581664,3.7604932 17.550067,6.5218294 17.5,9.28125 C 17.42884,12.111943 17.417304,14.954001 17.25,17.78125 C 17.233665,18.254088 17.270996,18.351492 17.03125,18.5625 C 17.029821,18.545674 17.002638,18.516694 17,18.5 C 17.003558,18.496833 16.996388,18.471976 17,18.46875 C 17.045216,18.428363 17.102286,18.393691 17.15625,18.34375 C 17.185999,18.316221 17.076904,18.318812 17.0625,18.28125 C 17.027752,18.190632 17.017634,18.095266 17,18 C 16.970684,17.841623 16.960286,17.657473 16.9375,17.5 C 16.933187,17.447245 16.910759,17.396435 16.90625,17.34375 C 16.901896,17.312522 16.879346,17.281324 16.875,17.25 C 16.876263,17.242733 16.904993,17.226017 16.90625,17.21875 C 16.908539,17.205514 16.903981,17.200738 16.90625,17.1875 C 17.352326,14.585463 17.402539,11.914383 17.46875,9.28125 C 17.534793,6.5136855 17.534536,3.7676065 17.53125,1 L 17.59375,1 z M 16.875,17.25 C 16.819502,17.569366 16.786354,17.869899 16.71875,18.1875 C 16.57913,18.682625 16.363836,19.066221 17,18.5 C 17.001866,18.521931 16.99812,18.540425 17,18.5625 C 16.893517,18.654585 16.74083,18.757734 16.5,18.9375 C 16.454624,18.971373 16.474615,18.836914 16.46875,18.78125 C 16.423272,18.349669 16.450317,17.900498 16.40625,17.46875 C 16.332478,15.774755 16.194905,14.102528 16.1875,12.40625 C 16.17394,11.990055 16.163547,11.572459 16.15625,11.15625 C 16.190217,10.390632 16.236652,9.608819 16.28125,8.84375 C 16.284437,8.789087 16.278001,8.7421592 16.28125,8.6875 C 16.304599,8.2946752 16.348202,7.8926042 16.375,7.5 C 16.375482,8.3152713 16.388287,9.153792 16.40625,9.96875 C 16.410513,10.162173 16.419008,10.623932 16.4375,11.09375 C 16.447951,11.249618 16.458202,11.406613 16.46875,11.5625 C 16.46945,11.572853 16.468049,11.583397 16.46875,11.59375 C 16.476874,11.794771 16.464851,12.059174 16.46875,12.15625 C 16.488644,12.480868 16.512986,12.800291 16.53125,13.125 C 16.581327,14.015268 16.584134,14.055923 16.65625,14.9375 C 16.714496,15.649508 16.799764,16.383338 16.875,17.09375 C 16.882808,17.149069 16.867382,17.195087 16.875,17.25 z M 16.28125,8.6875 C 16.267323,8.4639325 16.231127,8.2549851 16.21875,8.03125 C 16.222116,7.9985322 16.247129,7.9337358 16.25,7.90625 C 16.26462,8.1727085 16.265865,8.421084 16.28125,8.6875 z M 16.25,7.90625 C 16.224374,7.439222 16.178683,6.9668819 16.15625,6.5 C 16.152277,6.4173108 16.160285,6.3327418 16.15625,6.25 C 16.159789,5.9121857 16.15284,5.556588 16.15625,5.21875 C 16.162223,3.8124931 16.190544,2.4048607 16.21875,1 L 16.375,1 C 16.372254,2.353458 16.377349,3.7092143 16.375,5.0625 C 16.385517,5.6583538 16.374169,6.2477172 16.375,6.84375 C 16.261724,7.902228 16.331486,7.1262541 16.25,7.90625 z M 16.375,6.84375 C 16.402984,6.5822597 16.407214,6.4524673 16.46875,5.84375 C 16.530119,5.2366853 16.600871,4.6076192 16.65625,4 C 16.540297,5.1509171 16.454209,6.3151168 16.375,7.46875 C 16.374888,7.2666483 16.375282,7.0458477 16.375,6.84375 z M 16.15625,6.5 C 16.181389,7.0055127 16.190793,7.5258891 16.21875,8.03125 C 16.195138,8.260771 16.180116,8.40686 16.125,8.96875 C 16.125896,8.1533536 16.14791,7.3155073 16.15625,6.5 z M 16.125,8.96875 C 16.124248,9.6954272 16.14351,10.429634 16.15625,11.15625 C 16.134113,11.655219 16.11241,12.157169 16.09375,12.65625 C 16.007597,15.346728 15.969133,18.027109 15.9375,20.71875 C 15.940498,20.78102 15.934492,20.843894 15.9375,20.90625 C 15.937136,20.937882 15.937942,20.96836 15.9375,21 L 15.90625,21 C 15.901961,20.519524 15.881167,20.043008 15.875,19.5625 C 15.869918,19.437701 15.879856,19.312321 15.875,19.1875 C 15.848276,17.068186 15.815482,14.96267 15.875,12.84375 C 15.933241,11.548015 15.998362,10.260113 16.125,8.96875 z M 15.875,19.1875 C 15.794808,17.126164 15.726706,15.062268 15.6875,13 C 15.582105,9.9662322 15.593062,6.9098734 15.59375,3.875 C 15.601736,2.909406 15.650054,1.9647851 15.6875,1 L 15.8125,1 C 15.778762,1.9245049 15.758281,2.8543262 15.75,3.78125 C 15.745044,6.8443398 15.749678,9.905783 15.71875,12.96875 C 15.744653,15.044685 15.792666,17.113013 15.875,19.1875 z M 17,18.5625 C 17.003709,18.559294 17.027669,18.565652 17.03125,18.5625 C 17.100605,19.379066 17.150428,20.184936 17.21875,21 C 17.149441,20.163814 17.063317,19.305862 17,18.5625 z M 14.625,1 C 14.621734,2.9156148 14.625261,4.8343837 14.625,6.75 C 14.648819,9.2417144 14.671067,11.727024 14.6875,14.21875 C 14.642956,12.857844 14.588661,11.51772 14.5625,10.15625 C 14.562299,10.145786 14.562699,10.135464 14.5625,10.125 C 14.564161,9.961009 14.560822,9.8202397 14.5625,9.65625 C 14.572321,8.6961297 14.584924,7.7101537 14.59375,6.75 C 14.594012,4.8297326 14.590464,2.9202637 14.59375,1 L 14.625,1 z M 14.5625,9.65625 C 14.53306,8.0007526 14.512752,6.3429818 14.5,4.6875 C 14.497585,3.4554306 14.472499,2.2312154 14.46875,1 L 14.5,1 C 14.499138,2.2288063 14.520395,3.4587328 14.53125,4.6875 C 14.54299,6.3429437 14.536109,8.0009937 14.5625,9.65625 z M 14.5625,10.15625 C 14.592801,11.766695 14.631234,13.390169 14.6875,15 C 14.686199,14.747431 14.689166,14.471314 14.6875,14.21875 C 14.701935,14.659729 14.732753,15.121585 14.75,15.5625 C 14.814625,17.380795 14.871868,19.179655 14.90625,21 C 14.906243,20.999658 14.875007,21.000342 14.875,21 C 14.841058,19.265068 14.78126,17.515557 14.71875,15.78125 C 14.704062,17.517966 14.766771,19.266672 14.875,21 L 14.65625,21 C 14.561171,19.310223 14.506208,17.62991 14.53125,15.9375 C 14.537008,14.013717 14.543019,12.079872 14.5625,10.15625 z M 14,1 C 13.999478,2.2176624 14.000098,3.4399149 14,4.65625 C 13.968861,7.8579151 13.926838,11.048142 13.9375,14.25 C 13.939171,15.165215 13.963872,16.084786 13.96875,17 C 13.968345,17.778301 13.938114,18.565452 13.9375,19.34375 C 13.922454,17.658434 13.919397,15.966589 13.90625,14.28125 C 13.892184,11.114788 13.844552,7.9475736 13.8125,4.78125 C 13.812384,3.5207625 13.813265,2.2605918 13.8125,1 L 14,1 z M 13.9375,19.34375 C 13.942443,19.897417 13.963708,20.446153 13.96875,21 L 13.9375,21 C 13.93744,20.445721 13.937062,19.898256 13.9375,19.34375 z M 13.96875,17 C 13.969424,15.70284 13.962137,14.422148 13.96875,13.125 C 13.973988,9.9904138 13.986135,6.8531013 14.03125,3.71875 C 14.075289,6.8100676 14.087743,9.9084498 14.09375,13 C 14.108086,15.664438 14.117519,18.335296 14.125,21 L 14,21 C 13.986441,19.669202 13.97585,18.332143 13.96875,17 z M 13.40625,1 C 13.345293,1.6807345 13.290927,2.3807425 13.25,3.0625 C 13.260047,2.3764813 13.274061,1.6867662 13.28125,1 L 13.40625,1 z M 13.25,3.0625 C 13.245707,3.3556372 13.254796,3.6443641 13.25,3.9375 C 13.208527,7.6840139 13.214427,11.409542 13.21875,15.15625 C 13.219088,17.099915 13.189692,19.058136 13.1875,21 C 13.190286,19.061531 13.187838,17.126411 13.1875,15.1875 C 13.18904,11.72506 13.190266,8.2434959 13.15625,4.78125 C 13.179781,4.2013851 13.215226,3.6417565 13.25,3.0625 z M 13.15625,4.78125 C 13.115417,5.7874822 13.086667,6.8058176 13.0625,7.8125 C 13.013187,10.649103 13.057474,13.475681 13.0625,16.3125 C 13.049027,17.868702 13.053769,19.442826 13.09375,21 L 12.96875,21 C 12.994425,17.895743 13.002603,14.791331 13,11.6875 C 12.997104,9.0130561 12.970561,6.3311075 12.96875,3.65625 C 12.975502,3.462377 12.960009,3.2562768 12.96875,3.0625 C 12.999867,2.3726465 13.06081,1.6880164 13.125,1 C 13.135066,1.9997258 13.139039,3.0003024 13.15625,4 C 13.159341,4.2658134 13.153638,4.5154359 13.15625,4.78125 z M 12.96875,3.65625 C 12.970112,6.3395105 12.965845,9.00424 12.96875,11.6875 C 12.971347,14.786794 12.961912,17.900375 12.9375,21 L 12.90625,21 C 12.864162,19.491529 12.847645,17.979184 12.875,16.46875 C 12.878242,13.630368 12.901782,10.775882 12.90625,7.9375 C 12.909906,6.5020689 12.918761,5.0914956 12.96875,3.65625 z M 12.84375,1 C 12.808849,2.4773332 12.7593,3.9618039 12.6875,5.4375 C 12.586302,7.6438526 12.523203,9.854082 12.5,12.0625 C 12.48364,14.543539 12.480616,17.018984 12.5,19.5 C 12.517207,19.999877 12.521853,20.500533 12.53125,21 L 12.21875,21 C 12.226732,20.572615 12.236131,20.146732 12.25,19.71875 C 12.26832,17.231072 12.276631,14.73772 12.28125,12.25 C 12.284107,10.0766 12.242723,7.8906436 12.34375,5.71875 C 12.413092,4.1479965 12.461281,2.5718808 12.46875,1 L 12.84375,1 z M 12.375,1 C 12.338469,2.7697141 12.274244,4.5428372 12.21875,6.3125 C 12.274121,4.5428 12.307322,2.7715828 12.34375,1 L 12.375,1 z M 11.5,1 C 11.508839,2.0622502 11.485618,3.1249913 11.46875,4.1875 C 11.430795,6.6313933 11.413393,9.08706 11.40625,11.53125 C 11.391186,14.319369 11.417231,17.086853 11.40625,19.875 C 11.396066,20.249313 11.384695,20.625986 11.375,21 L 11.21875,21 C 11.225896,20.674239 11.246204,20.357051 11.25,20.03125 C 11.239003,17.249506 11.234241,14.469214 11.21875,11.6875 C 11.211211,9.2893774 11.167997,6.8664909 11.125,4.46875 C 11.10337,3.3069739 11.10833,2.1596048 11.125,1 L 11.5,1 z M 10.90625,1 C 10.831211,2.1141981 10.753069,3.2292908 10.6875,4.34375 C 10.751637,3.2256276 10.808206,2.1178107 10.84375,1 L 10.90625,1 z M 10.625,1 C 10.622224,2.4179608 10.625286,3.8328442 10.625,5.25 C 10.622026,5.3014989 10.627959,5.3547911 10.625,5.40625 C 10.6246,7.5006731 10.624893,9.593077 10.625,11.6875 C 10.693736,14.68706 10.503293,17.660633 10.375,20.65625 C 10.36894,20.770588 10.379304,20.885327 10.375,21 L 10.34375,21 L 10.1875,21 C 10.189385,20.947835 10.185604,20.895909 10.1875,20.84375 C 10.233371,19.993322 10.288268,19.131449 10.34375,18.28125 C 10.341256,18.974312 10.347508,19.681981 10.34375,20.375 C 10.347839,19.620381 10.372371,18.879626 10.375,18.125 C 10.514477,15.984393 10.630617,13.834061 10.59375,11.6875 C 10.593647,9.6699727 10.5934,7.6425262 10.59375,5.625 C 10.59637,5.5792267 10.59218,5.5459074 10.59375,5.5 C 10.594026,3.9969833 10.593928,2.5022468 10.59375,1 L 10.625,1 z M 10.375,18.125 C 10.371441,18.179626 10.347315,18.226625 10.34375,18.28125 C 10.349614,16.652504 10.37323,15.035004 10.375,13.40625 C 10.373282,14.973371 10.380461,16.557849 10.375,18.125 z M 9.96875,1 C 9.909326,2.6546812 9.845373,4.3147189 9.8125,5.96875 C 9.80301,6.6334877 9.78755,7.3039835 9.78125,7.96875 C 9.781506,7.306552 9.781166,6.6621986 9.78125,6 C 9.814235,4.33987 9.877544,2.6596021 9.9375,1 L 9.96875,1 z M 9.4375,1 C 9.466516,1.5220676 9.511009,2.0401952 9.53125,2.5625 C 9.567047,3.4861636 9.560269,4.4200023 9.59375,5.34375 C 9.66749,6.8992754 9.727616,8.474507 9.75,10.03125 C 9.751557,9.6917484 9.777319,9.3396825 9.78125,9 C 9.776214,9.6210794 9.783563,10.25475 9.78125,10.875 C 9.780411,11.100019 9.750582,11.306229 9.75,11.53125 C 9.750863,11.647355 9.780542,11.758892 9.78125,11.875 C 9.780582,12.031402 9.781938,12.18735 9.78125,12.34375 C 9.78019,12.855446 9.75148,13.363306 9.75,13.875 C 9.749196,14.153289 9.749609,14.440331 9.75,14.71875 C 9.68558,11.641991 9.58777,8.5740829 9.4375,5.5 C 9.37164,4.0060485 9.323144,2.4955666 9.28125,1 L 9.4375,1 z M 9.75,14.71875 C 9.752354,15.005382 9.78049,15.306792 9.78125,15.59375 C 9.77987,15.931458 9.782919,16.256043 9.78125,16.59375 C 9.779918,16.863249 9.751537,17.136752 9.75,17.40625 C 9.748818,17.194357 9.751526,16.99314 9.75,16.78125 C 9.748302,16.54541 9.752173,16.298338 9.75,16.0625 C 9.749699,15.615776 9.750551,15.16565 9.75,14.71875 z M 8.875,1 C 8.868865,2.8037098 8.845686,4.6031835 8.84375,6.40625 C 8.845687,4.6000767 8.840354,2.8042476 8.84375,1 L 8.875,1 z M 8.65625,1 C 8.552916,2.0870291 8.456214,3.1595464 8.40625,4.25 C 8.409642,4.3120875 8.40269,4.3754587 8.40625,4.4375 C 8.391305,4.7947976 8.380831,5.1734445 8.375,5.53125 C 8.353238,8.2108155 8.309488,10.882987 8.28125,13.5625 C 8.274126,15.30669 8.253738,17.038312 8.25,18.78125 C 8.243447,14.935003 8.276938,11.095929 8.25,7.25 C 8.245953,5.9768743 8.224161,4.7103577 8.21875,3.4375 C 8.218528,3.3853371 8.218954,3.3334242 8.21875,3.28125 C 8.24558,2.913288 8.278495,2.5237394 8.3125,2.15625 C 8.315039,2.1288251 8.309932,2.1211726 8.3125,2.09375 C 8.310738,2.0459837 8.314197,1.9852689 8.3125,1.9375 C 8.342461,1.6241896 8.373485,1.3128186 8.40625,1 L 8.65625,1 z M 8.21875,3.28125 C 8.215794,2.5199025 8.1908,1.7617169 8.1875,1 L 8.21875,1 C 8.221769,1.7589733 8.215779,2.5222392 8.21875,3.28125 z M 8.21875,3.4375 C 8.223674,4.7102637 8.214704,6.0084927 8.21875,7.28125 C 8.245649,11.120479 8.244283,14.9419 8.25,18.78125 C 8.245053,17.054659 8.225852,15.320342 8.21875,13.59375 C 8.190553,10.971166 8.146595,8.3726405 8.125,5.75 C 8.128437,4.9845684 8.165967,4.2001475 8.21875,3.4375 z M 7.5625,1 C 7.525837,2.7748403 7.470136,4.5400976 7.375,6.3125 C 7.461064,4.5458149 7.524966,2.7674289 7.5625,1 z M 7.09375,1 C 7.089322,2.290981 7.088292,3.5834278 7.09375,4.875 C 7.09456,7.3137908 7.092932,9.748709 7.09375,12.1875 C 7.08925,12.293037 7.066801,12.394458 7.0625,12.5 C 7.061684,9.958881 7.063345,7.4161186 7.0625,4.875 C 7.067098,3.5811697 7.06687,2.2922461 7.0625,1 L 7.09375,1 z M 7.0625,12.5 C 7.062546,12.639846 7.062457,12.766403 7.0625,12.90625 C 7.066637,12.797284 7.089381,12.702711 7.09375,12.59375 C 7.094363,14.527728 7.094075,16.472272 7.09375,18.40625 C 7.093134,19.272017 7.094645,20.134548 7.09375,21 L 7.0625,21 C 7.063401,20.135317 7.061884,19.271246 7.0625,18.40625 C 7.062796,16.629948 7.062991,14.838938 7.0625,13.0625 C 6.997216,14.829322 6.979692,16.287987 6.96875,18.0625 C 6.96304,18.98894 6.969848,19.917292 6.96875,20.84375 C 6.968641,20.895915 6.968864,20.947836 6.96875,21 L 6.9375,21 C 6.937601,20.947943 6.937391,20.895803 6.9375,20.84375 C 6.938598,19.917294 6.931791,18.988939 6.9375,18.0625 C 6.948439,16.28795 6.965982,14.82936 7.03125,13.0625 C 7.0383,12.871643 7.054723,12.690842 7.0625,12.5 z M 7.09375,12.59375 C 7.093708,12.457314 7.093796,12.323936 7.09375,12.1875 C 7.169746,10.405273 7.25503,8.6254605 7.34375,6.84375 C 7.249268,8.7551966 7.170467,10.681728 7.09375,12.59375 z M 6.65625,1 C 6.637135,2.3751599 6.602936,3.750412 6.59375,5.125 C 6.602923,3.7518406 6.605462,2.3736298 6.625,1 L 6.65625,1 z M 6.5,1 C 6.501404,1.6144131 6.500013,2.2293053 6.5,2.84375 C 6.499975,4.5030233 6.50001,6.1532269 6.5,7.8125 C 6.5,7.8671261 6.5,7.9141239 6.5,7.96875 C 6.499991,10.150387 6.5,12.318364 6.5,14.5 C 6.52209,16.662743 6.52334,18.835781 6.53125,21 L 6.4375,21 C 6.44237,18.844913 6.447013,16.688015 6.46875,14.53125 C 6.46875,12.464091 6.468744,10.410909 6.46875,8.34375 C 6.46875,8.289172 6.46875,8.2108279 6.46875,8.15625 C 6.468757,6.3824503 6.468721,4.6175497 6.46875,2.84375 C 6.468763,2.2284973 6.467361,1.6155414 6.46875,1 L 6.5,1 z M 5.4375,1 C 5.441182,2.9261497 5.448791,4.8551402 5.4375,6.78125 C 5.42779,8.8872557 5.404615,10.987304 5.375,13.09375 C 5.389048,12.045127 5.367178,10.986137 5.375,9.9375 C 5.312589,12.236005 5.217495,14.51312 5.21875,16.8125 C 5.221683,17.665831 5.215018,18.52168 5.21875,19.375 C 5.200013,19.917005 5.177787,20.45742 5.15625,21 L 4.90625,21 C 4.910205,19.684631 4.902169,18.377771 4.90625,17.0625 C 4.905647,14.755984 5.04235,12.461906 5.09375,10.15625 C 5.145867,7.6753281 5.169868,5.1688865 5.1875,2.6875 C 5.195145,2.1236303 5.232845,1.5639423 5.25,1 L 5.40625,1 C 5.405935,1.2194686 5.406581,1.436784 5.40625,1.65625 C 5.411369,1.4376831 5.431678,1.2185468 5.4375,1 z M 5.15625,21 C 5.172767,20.602423 5.204261,20.209637 5.21875,19.8125 C 5.220597,20.210148 5.216518,20.602482 5.21875,21 L 5.15625,21 z M 4.4375,1 C 4.403153,3.0976441 4.359641,5.1834065 4.34375,7.28125 C 4.329862,9.9812793 4.331933,12.706242 4.3125,15.40625 C 4.305448,17.276598 4.304453,19.132602 4.3125,21 L 4.15625,21 C 4.163802,19.171505 4.163165,17.359675 4.15625,15.53125 C 4.136759,12.855984 4.138897,10.175287 4.125,7.5 C 4.10903,5.4183481 4.066487,3.3314037 4.03125,1.25 C 4.030037,1.166807 4.032401,1.0832429 4.03125,1 L 4.4375,1 z M 3.59375,1 C 3.584337,2.562379 3.560105,4.1252741 3.5625,5.6875 C 3.545529,9.2689789 3.526336,12.824721 3.53125,16.40625 C 3.537073,12.845006 3.516966,9.2799238 3.5,5.71875 C 3.502326,4.1463833 3.478408,2.5733279 3.46875,1 L 3.59375,1 z M 3.0625,1.0625 C 3.061633,1.8862701 3.062721,2.7077373 3.0625,3.53125 C 3.053988,4.3708435 3.060242,5.2230192 3.0625,6.0625 C 3.064633,5.2285483 3.039211,4.3965536 3.03125,3.5625 C 3.031473,2.7296002 3.030403,1.8950732 3.03125,1.0625 C 3.04137,1.0606978 3.052337,1.0641808 3.0625,1.0625 z M 2.5625,1.15625 C 2.560535,3.7947754 2.551598,6.4237077 2.5625,9.0625 C 2.576069,11.53085 2.591919,14.000373 2.59375,16.46875 C 2.571115,17.927206 2.595311,19.385513 2.59375,20.84375 C 2.507531,20.811397 2.425087,20.76003 2.34375,20.71875 C 2.361242,19.377059 2.347637,18.031397 2.34375,16.6875 C 2.346625,14.206631 2.356352,11.730817 2.375,9.25 C 2.391034,6.5823559 2.402334,3.9176221 2.375,1.25 C 2.43576,1.2204137 2.499074,1.1809408 2.5625,1.15625 z M 19.5625,1.25 C 19.5748,1.2559891 19.581566,1.2750662 19.59375,1.28125 C 19.591794,3.5333822 19.584369,5.7770597 19.59375,8.03125 C 19.606082,10.107208 19.629844,12.20526 19.65625,14.28125 C 19.648607,14.148096 19.632409,14.008156 19.625,13.875 C 19.601711,11.93533 19.574025,10.00212 19.5625,8.0625 C 19.553051,5.7927638 19.563104,3.5202739 19.5625,1.25 z M 19.625,13.875 C 19.535993,12.286635 19.437164,10.683818 19.375,9.09375 C 19.324751,7.222285 19.272193,5.3713489 19.21875,3.5 C 19.273306,5.3659739 19.365898,7.2274964 19.40625,9.09375 C 19.468661,10.690372 19.536257,12.280155 19.625,13.875 z M 2.0625,1.4375 C 2.117692,1.9387923 2.184517,2.4337936 2.21875,2.9375 C 2.347578,5.6998736 2.331496,8.486159 2.25,11.25 C 2.240093,13.217472 2.231297,15.188959 2.21875,17.15625 C 2.23074,15.190623 2.22322,13.215689 2.21875,11.25 C 2.169411,8.5474013 2.154496,5.8539826 1.96875,3.15625 C 1.931314,2.6410243 1.870029,2.1362322 1.8125,1.625 C 1.892499,1.5546188 1.973861,1.4972852 2.0625,1.4375 z M 2.21875,17.15625 C 2.211342,18.317769 2.203339,19.463529 2.1875,20.625 C 2.180074,20.62055 2.163625,20.629525 2.15625,20.625 C 2.171696,19.470621 2.211708,18.310705 2.21875,17.15625 z M 20.125,1.625 C 20.1474,1.6447067 20.165827,1.6670116 20.1875,1.6875 C 20.207026,2.2419034 20.22911,2.7887717 20.25,3.34375 C 20.254811,3.6792253 20.245959,4.0083165 20.25,4.34375 C 20.254418,4.7395641 20.278072,5.1354238 20.28125,5.53125 C 20.280683,5.219678 20.279896,4.9051319 20.28125,4.59375 C 20.359468,7.1062723 20.399585,9.642858 20.4375,12.15625 C 20.432007,12.218368 20.44287,12.281744 20.4375,12.34375 C 20.434474,12.251773 20.409391,12.154474 20.40625,12.0625 C 20.358332,10.721098 20.306949,9.3732609 20.28125,8.03125 C 20.27696,8.7302053 20.284137,9.42609 20.28125,10.125 C 20.2029,8.2740839 20.129857,6.446943 20.15625,4.59375 C 20.155795,4.4399332 20.126237,1.8619824 20.125,1.625 z M 20.28125,10.125 C 20.320566,11.053802 20.343577,11.977248 20.375,12.90625 C 20.393615,12.725118 20.419297,12.556032 20.4375,12.375 C 20.438021,12.433454 20.435635,12.504168 20.4375,12.5625 C 20.42031,12.759933 20.392649,12.958853 20.375,13.15625 C 20.372809,13.087904 20.377302,13.005843 20.375,12.9375 C 20.366137,13.02356 20.324184,13.541025 20.28125,13.9375 C 20.27469,12.670022 20.276014,11.39244 20.28125,10.125 z M 20.28125,13.9375 C 20.282258,14.132429 20.279836,14.305067 20.28125,14.5 C 20.187086,15.527509 20.082703,16.565379 20,17.59375 C 19.961624,18.070932 19.929056,18.402232 19.90625,18.75 C 19.904629,18.774717 19.907829,18.819261 19.90625,18.84375 C 19.87165,19.380226 19.823237,19.888204 19.78125,20.625 C 19.774152,20.346217 19.757266,20.060379 19.75,19.78125 C 19.784258,19.227461 19.833538,18.678192 19.875,18.125 C 19.872607,18.09034 19.877365,18.06822 19.875,18.03125 C 19.92309,17.39623 19.969252,16.759384 20.03125,16.125 C 20.052301,15.909605 20.186047,14.816644 20.28125,13.9375 z M 19.75,19.78125 C 19.745987,19.846123 19.722687,19.90387 19.71875,19.96875 C 19.667196,18.030673 19.649205,16.094936 19.625,14.15625 C 19.632151,14.282186 19.648886,14.405314 19.65625,14.53125 C 19.679294,16.278846 19.704522,18.034158 19.75,19.78125 z M 19.71875,19.96875 C 19.72485,20.198072 19.744771,20.42726 19.75,20.65625 C 19.73509,20.665064 19.702608,20.647739 19.6875,20.65625 C 19.701643,20.424766 19.704695,20.200373 19.71875,19.96875 z M 19.90625,18.84375 C 19.919422,19.062899 19.963708,19.368081 19.96875,19.46875 C 19.985495,19.803086 19.98627,20.13401 20,20.46875 C 19.988899,20.133767 19.954251,19.803317 19.9375,19.46875 C 19.93227,19.364279 19.91773,19.033756 19.90625,18.84375 z M 20.28125,14.5 C 20.321796,14.057565 20.335379,13.630008 20.375,13.1875 C 20.432082,14.978801 20.482045,16.768425 20.5,18.5625 C 20.502673,19.020179 20.497758,19.479737 20.5,19.9375 C 20.455844,20.000492 20.424649,20.066487 20.375,20.125 C 20.320771,18.334298 20.280173,16.541309 20.28125,14.75 C 20.280579,14.667922 20.281845,14.582077 20.28125,14.5 z M 20.25,3.34375 C 20.242245,2.8030072 20.223299,2.2587717 20.21875,1.71875 C 20.246138,1.7455844 20.286371,1.7531818 20.3125,1.78125 C 20.307527,2.6707274 20.285133,3.5484617 20.28125,4.4375 C 20.267274,4.0686807 20.263883,3.7125902 20.25,3.34375 z M 20.5,2.0625 C 20.507002,2.3752843 20.524219,2.6873341 20.53125,3 C 20.529477,3.1436847 20.532968,3.262566 20.53125,3.40625 C 20.528306,2.9597688 20.504797,2.5089601 20.5,2.0625 z M 20.53125,3.40625 C 20.571304,5.2445464 20.655276,7.0677405 20.71875,8.90625 C 20.719576,8.930168 20.717919,8.9448334 20.71875,8.96875 C 20.717159,8.9810288 20.688354,8.9877016 20.6875,9 C 20.622993,7.1417529 20.571583,5.2650345 20.53125,3.40625 z M 1.0625,2.875 C 1.061731,3.6670869 1.062592,4.4578828 1.0625,5.25 C 1.062064,9.2043905 1.062572,13.170608 1.0625,17.125 C 1.071608,17.835027 1.083517,18.53966 1.09375,19.25 C 1.051864,19.11766 1.019538,18.984756 1,18.84375 C 1.008133,18.270215 1.024031,17.698556 1.03125,17.125 C 1.031326,13.170609 1.030812,9.2356406 1.03125,5.28125 C 1.031338,4.5208663 1.030828,3.7606165 1.03125,3 C 1.040065,2.9567038 1.051492,2.9174374 1.0625,2.875 z M 20.96875,5.25 L 20.96875,16.84375 C 20.963433,14.752441 20.972576,12.653614 20.9375,10.5625 C 20.932906,8.7930452 20.965201,7.0192548 20.96875,5.25 z M 3.0625,6.125 C 3.069767,8.6263748 3.11912,11.123778 3.15625,13.625 C 3.203441,16.061442 3.16326,18.500888 3.15625,20.9375 C 3.155899,20.947929 3.156601,20.958321 3.15625,20.96875 C 3.08281,20.959497 3.008776,20.952937 2.9375,20.9375 C 2.930006,18.548872 2.923704,16.169846 2.96875,13.78125 C 3.005205,11.228489 3.05545,8.6779078 3.0625,6.125 z M 20.53125,8.90625 C 20.541,9.5618901 20.549128,10.219369 20.5625,10.875 C 20.56017,10.905934 20.564892,10.937809 20.5625,10.96875 C 20.557968,11.043163 20.53706,11.11332 20.53125,11.1875 C 20.530735,10.425298 20.534072,9.668479 20.53125,8.90625 z M 20.71875,9.0625 C 20.759274,10.372028 20.820518,12.757912 20.84375,14.03125 C 20.820376,12.775378 20.728368,10.473192 20.6875,9.15625 C 20.690132,9.1186111 20.716129,9.10014 20.71875,9.0625 z M 1.46875,9.65625 C 1.431315,12.597582 1.370553,15.529792 1.25,18.46875 C 1.369784,15.539862 1.431451,12.587509 1.46875,9.65625 z M 8.84375,10.15625 C 8.845103,12.812273 8.853208,15.437759 8.875,18.09375 C 8.89224,19.056851 8.852717,20.036924 8.84375,21 L 8.78125,21 C 8.787488,20.051347 8.810784,19.104333 8.8125,18.15625 C 8.83276,15.485216 8.841686,12.827318 8.84375,10.15625 z M 8.84375,10.15625 C 8.878227,10.537126 8.933261,10.900667 8.96875,11.28125 C 9.218819,13.812137 9.490809,16.365982 9.625,18.90625 C 9.668268,19.725332 9.701322,20.355351 9.71875,21 L 9.6875,21 C 9.67156,20.344038 9.63671,19.719653 9.59375,18.90625 C 9.459589,16.366009 9.187563,13.843361 8.9375,11.3125 C 8.901244,10.923741 8.878639,10.545203 8.84375,10.15625 z M 6,10.71875 C 6.002604,11.90174 6.022578,13.098285 6.03125,14.28125 C 6.027131,14.347927 6.03534,14.46467 6.03125,14.53125 C 6.040858,15.825134 6.056947,17.112346 6.0625,18.40625 C 6.062004,19.270951 6.034848,20.135515 6.03125,21 L 5.96875,21 C 5.965334,20.167539 5.969174,19.332567 5.96875,18.5 C 5.972921,17.539364 5.961457,16.585773 5.96875,15.625 C 5.971556,15.572392 5.966013,15.487941 5.96875,15.4375 C 5.975598,15.312617 5.987722,15.136842 6,14.96875 C 6.010731,13.551515 5.996556,12.136015 6,10.71875 z M 5.96875,15.625 C 5.949333,15.979351 5.940544,16.302716 5.90625,16.9375 C 5.850046,18.123014 5.79375,19.315086 5.75,20.5 C 5.792811,19.312874 5.814237,18.123798 5.875,16.9375 C 5.909334,16.301936 5.949018,15.99498 5.96875,15.625 z M 20.5625,11.1875 C 20.56498,11.435908 20.588494,11.688935 20.59375,11.9375 C 20.651707,14.518796 20.647625,17.105841 20.65625,19.6875 C 20.628486,19.738736 20.593662,19.794774 20.5625,19.84375 C 20.550177,18.38225 20.529764,16.928993 20.5,15.46875 C 20.50514,15.164519 20.524386,14.835491 20.53125,14.53125 C 20.540479,13.450995 20.531724,12.39269 20.53125,11.3125 C 20.534496,11.271638 20.559293,11.228365 20.5625,11.1875 z M 9.78125,18.1875 C 9.803574,19.126439 9.844051,20.061093 9.875,21 L 9.78125,21 C 9.776079,20.645463 9.786587,20.292133 9.78125,19.9375 C 9.776781,19.640534 9.785729,19.359471 9.78125,19.0625 C 9.781658,18.769074 9.782051,18.48107 9.78125,18.1875 z M 18.84375,19.1875 C 18.876285,19.548297 18.927887,19.887365 18.96875,20.3125 C 18.991562,20.511425 19.038148,20.707856 19.0625,20.90625 C 19.039845,20.911828 19.022897,20.932541 19,20.9375 C 18.945688,20.353411 18.886777,19.773709 18.84375,19.1875 z M 18.25,20.34375 C 18.24831,20.56418 18.252562,20.779589 18.25,21 L 18.21875,21 C 18.221044,20.78139 18.248565,20.562379 18.25,20.34375 z"
       id="path3950" />
    <path
       style="opacity:0.3;fill:url(#linearGradient3852);fill-opacity:1;fill-rule:evenodd;stroke:none;display:inline"
       d="M 3,1 C 1.892,1 1,1.892 1,3 l 0,16 c 0,1.108 0.892,2 2,2 l 16,0 c 1.108,0 2,-0.892 2,-2 L 21,3 C 21,1.892 20.108,1 19,1 L 3,1 z m 0,1.03125 16,0 c 0.5497,0 0.96875,0.4190495 0.96875,0.96875 l 0,16 c 0,0.5497 -0.41905,0.96875 -0.96875,0.96875 l -16,0 C 2.4502995,19.96875 2.03125,19.5497 2.03125,19 l 0,-16 C 2.03125,2.4502995 2.4502995,2.03125 3,2.03125 z"
       id="rect3050"
       inkscape:connector-curvature="0" />
    <path
       id="path3235"
       d="M 3,21 C 1.892,21 1,20.108 1,19 l 0,-1 c 0,1.108 0.892,2 2,2 l 16,0 c 1.108,0 2,-0.892 2,-2 l 0,1 c 0,1.108 -0.892,2 -2,2 L 3,21 z"
       style="opacity:0.25;fill:url(#linearGradient3845);fill-opacity:1;fill-rule:evenodd;stroke:none;display:inline"
       inkscape:connector-curvature="0" />
  </g>
  <g
     inkscape:groupmode="layer"
     id="layer2"
     inkscape:label="Pencil"
     style="display:inline"
     sodipodi:insensitive="true">
    <path
       style="opacity:0.4;fill:url(#linearGradient6955);fill-opacity:1;stroke:none;stroke-width:0.49999994;stroke-linecap:butt;stroke-linejoin:round;stroke-miterlimit:4;stroke-dasharray:none;stroke-opacity:1;display:inline"
       d="M 4.55,19.95697 C 4.0471187,19.957428 3.6490325,19.760467 3.6500001,19.521488 L 3.6500001,18.081048 L 3.5,17.746061 L 3.5,15.032675 L 3.5500001,5.3621602 L 5.55,1.7775904 L 7.5,5.3621602 L 7.45,16.071131 L 7.45,17.746061 C 7.3215721,17.939646 7.405964,17.844404 7.3000001,18.081048 L 7.3000001,19.521488 C 7.2990323,19.760467 6.9028813,19.95651 6.4,19.95697 L 4.55,19.95697 z"
       id="rect6344"
       sodipodi:nodetypes="cccccccccccccc" />
    <rect
       style="fill:url(#linearGradient6450);fill-opacity:1;stroke:none;stroke-width:0.50000203;stroke-linecap:butt;stroke-linejoin:round;stroke-miterlimit:4;stroke-dasharray:none;stroke-opacity:1"
       id="rect3483"
       width="2.884089"
       height="2.4480386"
       x="-6.9798665"
       y="16.556992"
       rx="0.71411234"
       ry="0.45900726"
       transform="matrix(-0.9999992,1.2340593e-3,-2.9936263e-3,0.9999955,0,0)" />
    <path
       style="fill:url(#linearGradient6447);fill-opacity:1;stroke:none;stroke-width:0.49999991;stroke-linecap:butt;stroke-linejoin:round;stroke-miterlimit:4;stroke-dasharray:none;stroke-opacity:1"
       d="M 7,6 L 5.5263594,1.979272 L 4.0316321,6.003405 L 4,15.077 L 6.9683651,15.073595 L 7,6 z"
       id="rect2480"
       sodipodi:nodetypes="cccccc" />
    <path
       style="fill:url(#linearGradient6441);fill-opacity:1;fill-rule:evenodd;stroke:none;stroke-width:1px;stroke-linecap:butt;stroke-linejoin:miter;stroke-opacity:1"
       d="M 5.7948954,2.809455 L 6.8454783,5.6216579 C 6.8454783,5.6216579 6.962239,5.8663981 7.0196297,6.0077449 C 7.0673752,6.1028105 6.5265708,6.2469295 6.2619053,5.7704152 C 5.9542961,6.4392455 4.8589666,6.2811533 4.7569793,5.7737539 C 4.6700829,6.0258361 4.3147661,6.2111336 4.0051706,6 C 4.0646145,5.8653504 4.1155811,5.7744793 4.1155811,5.7744793 L 5.2218731,2.8324265 L 5.7948954,2.809455 z"
       id="path3274"
       sodipodi:nodetypes="ccccccccc" />
    <rect
       transform="matrix(-0.9999991,1.3311946e-3,-2.7751871e-3,0.9999961,0,0)"
       y="14.005442"
       x="-7.0076237"
       height="3.0000114"
       width="2.9604268"
       id="rect6452"
       style="fill:url(#linearGradient6454);fill-opacity:1;stroke:none;stroke-width:0.50000203;stroke-linecap:butt;stroke-linejoin:round;stroke-miterlimit:4;stroke-dasharray:none;stroke-opacity:1" />
    <path
       style="fill:url(#linearGradient6444);fill-opacity:1;fill-rule:evenodd;stroke:none;stroke-width:1px;stroke-linecap:butt;stroke-linejoin:miter;stroke-opacity:1"
       d="M 6.2582247,3.9585529 L 4.8012017,3.968289 L 5.507314,1.9631765"
       id="path3272"
       sodipodi:nodetypes="ccc" />
  </g>
  <g
     inkscape:groupmode="layer"
     id="layer3"
     inkscape:label="Calculator"
     sodipodi:insensitive="true">
    <path
       sodipodi:type="inkscape:offset"
       inkscape:radius="0.53216833"
       inkscape:original="M 10.5625 5.5 C 9.7315 5.5 9.0625 6.169 9.0625 7 L 9.0625 16 C 9.0625 16.831 9.7315 17.5 10.5625 17.5 L 16.5625 17.5 C 17.3935 17.5 18.062499 16.831 18.0625 16 L 18.0625 7 C 18.0625 6.169 17.393499 5.5 16.5625 5.5 L 10.5625 5.5 z "
       style="opacity:0.4;fill:url(#linearGradient6947);fill-opacity:1;fill-rule:evenodd;stroke:none;stroke-width:2;stroke-linecap:square;stroke-linejoin:miter;stroke-miterlimit:4;stroke-dasharray:none;stroke-dashoffset:0;stroke-opacity:1"
       id="path6939"
       d="M 10.5625,4.96875 C 9.4458838,4.96875 8.53125,5.8833838 8.53125,7 L 8.53125,16 C 8.53125,17.116616 9.4458838,18.03125 10.5625,18.03125 L 16.5625,18.03125 C 17.679116,18.03125 18.593749,17.116615 18.59375,16 L 18.59375,7 C 18.59375,5.8833834 17.679116,4.96875 16.5625,4.96875 L 10.5625,4.96875 z" />
    <rect
       style="opacity:1;fill:url(#linearGradient6899);fill-opacity:1;fill-rule:evenodd;stroke:none;stroke-width:2;stroke-linecap:square;stroke-linejoin:miter;stroke-miterlimit:4;stroke-dasharray:none;stroke-dashoffset:0;stroke-opacity:1"
       id="rect6891"
       width="9"
       height="12"
       x="9.0598059"
       y="5"
       rx="1"
       ry="1" />
    <rect
       style="opacity:1;fill:#424242;fill-opacity:1;fill-rule:evenodd;stroke:none;stroke-width:2;stroke-linecap:square;stroke-linejoin:miter;stroke-miterlimit:4;stroke-dasharray:none;stroke-dashoffset:0;stroke-opacity:1"
       id="rect6901"
       width="1"
       height="1"
       x="10.00998"
       y="14.022952" />
    <rect
       y="14.022952"
       x="12.00998"
       height="1"
       width="1"
       id="rect6903"
       style="opacity:1;fill:#424242;fill-opacity:1;fill-rule:evenodd;stroke:none;stroke-width:2;stroke-linecap:square;stroke-linejoin:miter;stroke-miterlimit:4;stroke-dasharray:none;stroke-dashoffset:0;stroke-opacity:1" />
    <rect
       style="opacity:1;fill:#424242;fill-opacity:1;fill-rule:evenodd;stroke:none;stroke-width:2;stroke-linecap:square;stroke-linejoin:miter;stroke-miterlimit:4;stroke-dasharray:none;stroke-dashoffset:0;stroke-opacity:1"
       id="rect6905"
       width="1"
       height="1"
       x="14.00998"
       y="14.022952" />
    <rect
       y="12.022952"
       x="10.00998"
       height="1"
       width="1"
       id="rect6907"
       style="opacity:1;fill:#424242;fill-opacity:1;fill-rule:evenodd;stroke:none;stroke-width:2;stroke-linecap:square;stroke-linejoin:miter;stroke-miterlimit:4;stroke-dasharray:none;stroke-dashoffset:0;stroke-opacity:1" />
    <rect
       style="opacity:1;fill:#424242;fill-opacity:1;fill-rule:evenodd;stroke:none;stroke-width:2;stroke-linecap:square;stroke-linejoin:miter;stroke-miterlimit:4;stroke-dasharray:none;stroke-dashoffset:0;stroke-opacity:1"
       id="rect6909"
       width="1"
       height="1"
       x="12.00998"
       y="12.022952" />
    <rect
       y="12.022952"
       x="14.00998"
       height="1"
       width="1"
       id="rect6911"
       style="opacity:1;fill:#424242;fill-opacity:1;fill-rule:evenodd;stroke:none;stroke-width:2;stroke-linecap:square;stroke-linejoin:miter;stroke-miterlimit:4;stroke-dasharray:none;stroke-dashoffset:0;stroke-opacity:1" />
    <rect
       style="opacity:1;fill:#424242;fill-opacity:1;fill-rule:evenodd;stroke:none;stroke-width:2;stroke-linecap:square;stroke-linejoin:miter;stroke-miterlimit:4;stroke-dasharray:none;stroke-dashoffset:0;stroke-opacity:1"
       id="rect6913"
       width="1"
       height="1"
       x="10.00998"
       y="10.022952" />
    <rect
       y="10.022952"
       x="12.00998"
       height="1"
       width="1"
       id="rect6915"
       style="opacity:1;fill:#424242;fill-opacity:1;fill-rule:evenodd;stroke:none;stroke-width:2;stroke-linecap:square;stroke-linejoin:miter;stroke-miterlimit:4;stroke-dasharray:none;stroke-dashoffset:0;stroke-opacity:1" />
    <rect
       style="opacity:1;fill:#424242;fill-opacity:1;fill-rule:evenodd;stroke:none;stroke-width:2;stroke-linecap:square;stroke-linejoin:miter;stroke-miterlimit:4;stroke-dasharray:none;stroke-dashoffset:0;stroke-opacity:1"
       id="rect6917"
       width="1"
       height="1"
       x="14.00998"
       y="10.022952" />
    <rect
       y="14.022952"
       x="16.009979"
       height="1"
       width="1"
       id="rect6919"
       style="opacity:1;fill:#6c6c6c;fill-opacity:1;fill-rule:evenodd;stroke:none;stroke-width:2;stroke-linecap:square;stroke-linejoin:miter;stroke-miterlimit:4;stroke-dasharray:none;stroke-dashoffset:0;stroke-opacity:1" />
    <rect
       style="opacity:1;fill:#6c6c6c;fill-opacity:1;fill-rule:evenodd;stroke:none;stroke-width:2;stroke-linecap:square;stroke-linejoin:miter;stroke-miterlimit:4;stroke-dasharray:none;stroke-dashoffset:0;stroke-opacity:1"
       id="rect6921"
       width="1"
       height="1"
       x="16.009979"
       y="12.022952" />
    <rect
       y="10.022952"
       x="16.009979"
       height="1"
       width="1"
       id="rect6923"
       style="opacity:1;fill:#6c6c6c;fill-opacity:1;fill-rule:evenodd;stroke:none;stroke-width:2;stroke-linecap:square;stroke-linejoin:miter;stroke-miterlimit:4;stroke-dasharray:none;stroke-dashoffset:0;stroke-opacity:1" />
    <rect
       style="opacity:1;fill:url(#linearGradient6863);fill-opacity:1;stroke:none;stroke-width:2;stroke-linecap:butt;stroke-linejoin:round;stroke-miterlimit:4;stroke-dasharray:none;stroke-dashoffset:0;stroke-opacity:1;display:inline"
       id="rect3463"
       width="7.4143677"
       height="2.5580592"
       x="9.7399273"
       y="6.8587608"
       rx="0.17242715"
       ry="0.23255083" />
    <rect
       ry="0.25"
       rx="0.22058821"
       y="6.7500005"
       x="9.75"
       height="2.5"
       width="7.4999995"
       id="rect3555"
       style="opacity:1;fill:none;fill-opacity:1;stroke:url(#linearGradient6865);stroke-width:0.5;stroke-linecap:butt;stroke-linejoin:round;stroke-miterlimit:4;stroke-dasharray:none;stroke-dashoffset:0;stroke-opacity:1;display:inline" />
    <path
       style="opacity:1;fill:#fcfcfc;fill-opacity:1;fill-rule:evenodd;stroke:none;stroke-width:2;stroke-linecap:square;stroke-linejoin:miter;stroke-miterlimit:4;stroke-dasharray:none;stroke-dashoffset:0;stroke-opacity:1"
       d="M 10.0625,5 C 9.5085,5 9.0625,5.446 9.0625,6 L 9.0625,6.5 C 9.0625,5.946 9.5085,5.5 10.0625,5.5 L 17.0625,5.5 C 17.616499,5.5 18.0625,5.946 18.0625,6.5 L 18.0625,6 C 18.0625,5.446 17.616499,5 17.0625,5 L 10.0625,5 z"
       id="rect6931" />
    <path
       id="path6937"
       d="M 10.0625,17 C 9.5085,17 9.0625,16.554 9.0625,16 L 9.0625,15.5 C 9.0625,16.054 9.5085,16.5 10.0625,16.5 L 17.0625,16.5 C 17.616499,16.5 18.0625,16.054 18.0625,15.5 L 18.0625,16 C 18.0625,16.554 17.616499,17 17.0625,17 L 10.0625,17 z"
       style="opacity:1;fill:#7f7f7f;fill-opacity:1;fill-rule:evenodd;stroke:none;stroke-width:2;stroke-linecap:square;stroke-linejoin:miter;stroke-miterlimit:4;stroke-dasharray:none;stroke-dashoffset:0;stroke-opacity:1" />
  </g>
</svg>
