<?xml version="1.0" encoding="UTF-8" standalone="no"?>
<!-- Created with Inkscape (http://www.inkscape.org/) -->

<svg
   xmlns:dc="http://purl.org/dc/elements/1.1/"
   xmlns:cc="http://creativecommons.org/ns#"
   xmlns:rdf="http://www.w3.org/1999/02/22-rdf-syntax-ns#"
   xmlns:svg="http://www.w3.org/2000/svg"
   xmlns="http://www.w3.org/2000/svg"
   xmlns:xlink="http://www.w3.org/1999/xlink"
   xmlns:sodipodi="http://sodipodi.sourceforge.net/DTD/sodipodi-0.dtd"
   xmlns:inkscape="http://www.inkscape.org/namespaces/inkscape"
   width="22"
   height="22"
   id="svg2"
   sodipodi:version="0.32"
   inkscape:version="0.48.0 r9654"
   version="1.0"
   sodipodi:docname="applications-internet.svg"
   inkscape:output_extension="org.inkscape.output.svg.inkscape"
   style="display:inline">
  <defs
     id="defs4">
    <linearGradient
       inkscape:collect="always"
       id="linearGradient3327">
      <stop
         style="stop-color:#000000;stop-opacity:1;"
         offset="0"
         id="stop3330" />
      <stop
         style="stop-color:#000000;stop-opacity:0;"
         offset="1"
         id="stop3333" />
    </linearGradient>
    <inkscape:perspective
       sodipodi:type="inkscape:persp3d"
       inkscape:vp_x="0 : 11 : 1"
       inkscape:vp_y="0 : 1000 : 0"
       inkscape:vp_z="22 : 11 : 1"
       inkscape:persp3d-origin="11 : 7.3333333 : 1"
       id="perspective75" />
    <linearGradient
       id="linearGradient3215">
      <stop
         id="stop3217"
         offset="0"
         style="stop-color:#000000;stop-opacity:0.70588237;" />
      <stop
         id="stop3219"
         offset="1"
         style="stop-color:#000000;stop-opacity:0.15686275;" />
    </linearGradient>
    <linearGradient
       gradientUnits="userSpaceOnUse"
       y2="0.5"
       x2="11"
       y1="22"
       x1="11"
       id="linearGradient3221"
       xlink:href="#linearGradient3215"
       inkscape:collect="always" />
    <linearGradient
       y2="5.9489675"
       x2="47.667068"
       y1="121.97153"
       x1="47.667068"
       gradientTransform="matrix(0.1678362,0,0,0.1678362,0.244737,0.244738)"
       gradientUnits="userSpaceOnUse"
       id="linearGradient2442"
       xlink:href="#linearGradient3187"
       inkscape:collect="always" />
    <filter
       height="2.1786267"
       y="-0.58931336"
       width="1.5882337"
       x="-0.29411686"
       id="filter3342"
       inkscape:collect="always">
      <feGaussianBlur
         id="feGaussianBlur3344"
         stdDeviation="2.2029067"
         inkscape:collect="always" />
    </filter>
    <linearGradient
       id="linearGradient3543">
      <stop
         style="stop-color:#ffffff;stop-opacity:1;"
         offset="0"
         id="stop3545" />
      <stop
         id="stop3555"
         offset="0.30645162"
         style="stop-color:#ffffff;stop-opacity:1;" />
      <stop
         id="stop3551"
         offset="0.51899064"
         style="stop-color:#ffffff;stop-opacity:0.640625;" />
      <stop
         style="stop-color:#ffffff;stop-opacity:0;"
         offset="1"
         id="stop3547" />
    </linearGradient>
    <linearGradient
       id="linearGradient5226">
      <stop
         style="stop-color:#ffffff;stop-opacity:1;"
         offset="0"
         id="stop5228" />
      <stop
         style="stop-color:#ffffff;stop-opacity:0.4140625;"
         offset="1"
         id="stop5230" />
    </linearGradient>
    <linearGradient
       id="linearGradient3929">
      <stop
         style="stop-color:#000000;stop-opacity:1;"
         offset="0"
         id="stop3931" />
      <stop
         style="stop-color:#000000;stop-opacity:0.58823532;"
         offset="1"
         id="stop3933" />
    </linearGradient>
    <linearGradient
       id="linearGradient3187">
      <stop
         style="stop-color:#1567b3;stop-opacity:1;"
         offset="0"
         id="stop3189" />
      <stop
         style="stop-color:#67aeed;stop-opacity:1;"
         offset="1"
         id="stop3191" />
    </linearGradient>
    <linearGradient
       inkscape:collect="always"
       xlink:href="#linearGradient3929"
       id="linearGradient5001"
       gradientUnits="userSpaceOnUse"
       x1="60.541664"
       y1="127.96666"
       x2="60.541664"
       y2="7.8298512" />
    <linearGradient
       inkscape:collect="always"
       xlink:href="#linearGradient3187"
       id="linearGradient5006"
       gradientUnits="userSpaceOnUse"
       gradientTransform="translate(39.999993,-1.5356449e-8)"
       x1="69"
       y1="122"
       x2="69"
       y2="5.9781809" />
    <radialGradient
       inkscape:collect="always"
       xlink:href="#linearGradient5226"
       id="radialGradient5232"
       cx="63.98003"
       cy="61.948856"
       fx="63.98003"
       fy="61.948856"
       r="58.01997"
       gradientTransform="matrix(1.505773,0,0,1.1615961,7.640631,-10.010692)"
       gradientUnits="userSpaceOnUse" />
    <radialGradient
       inkscape:collect="always"
       xlink:href="#linearGradient5226"
       id="radialGradient3180"
       gradientUnits="userSpaceOnUse"
       gradientTransform="matrix(0.2595267,0,0,0.2002063,-5.5769649,-1.70675)"
       cx="63.98003"
       cy="61.948856"
       fx="63.98003"
       fy="61.948856"
       r="58.01997" />
    <radialGradient
       inkscape:collect="always"
       xlink:href="#linearGradient3543"
       id="radialGradient4084"
       gradientUnits="userSpaceOnUse"
       cx="74.375"
       cy="67.125"
       fx="74.375"
       fy="67.125"
       r="3.125" />
    <radialGradient
       inkscape:collect="always"
       xlink:href="#linearGradient3543"
       id="radialGradient4086"
       gradientUnits="userSpaceOnUse"
       cx="74.375"
       cy="67.125"
       fx="74.375"
       fy="67.125"
       r="3.125" />
    <radialGradient
       inkscape:collect="always"
       xlink:href="#linearGradient3543"
       id="radialGradient4088"
       gradientUnits="userSpaceOnUse"
       cx="74.375"
       cy="67.125"
       fx="74.375"
       fy="67.125"
       r="3.125" />
    <radialGradient
       inkscape:collect="always"
       xlink:href="#linearGradient3543"
       id="radialGradient4090"
       gradientUnits="userSpaceOnUse"
       cx="74.375"
       cy="67.125"
       fx="74.375"
       fy="67.125"
       r="3.125" />
    <radialGradient
       inkscape:collect="always"
       xlink:href="#linearGradient3543"
       id="radialGradient4092"
       gradientUnits="userSpaceOnUse"
       cx="74.375"
       cy="67.125"
       fx="74.375"
       fy="67.125"
       r="3.125" />
    <radialGradient
       inkscape:collect="always"
       xlink:href="#linearGradient5226"
       id="radialGradient4099"
       gradientUnits="userSpaceOnUse"
       gradientTransform="matrix(0.164049,0,0,6.3919942e-2,0.5365603,7.7036027)"
       cx="69.75"
       cy="75.973572"
       fx="69.75"
       fy="75.973572"
       r="58.5" />
    <radialGradient
       inkscape:collect="always"
       xlink:href="#linearGradient5226"
       id="radialGradient4102"
       gradientUnits="userSpaceOnUse"
       gradientTransform="matrix(0.1958447,0,0,8.0190509e-2,-1.4943931,7.3899545)"
       cx="63.875"
       cy="2.2173476"
       fx="63.875"
       fy="2.2173476"
       r="58.375" />
    <radialGradient
       inkscape:collect="always"
       xlink:href="#linearGradient5226"
       id="radialGradient4111"
       gradientUnits="userSpaceOnUse"
       gradientTransform="matrix(0.3018538,3.8762889e-3,-3.2099736e-3,0.2499666,-8.1654179,-5.611025)"
       cx="65.235977"
       cy="63.182522"
       fx="65.235977"
       fy="63.182522"
       r="43.769611" />
    <radialGradient
       inkscape:collect="always"
       xlink:href="#linearGradient5226"
       id="radialGradient4114"
       gradientUnits="userSpaceOnUse"
       gradientTransform="matrix(-0.160813,4.5981613e-2,0.1321437,0.3994121,5.0140774,-20.428142)"
       cx="49.233551"
       cy="70.608253"
       fx="49.233551"
       fy="70.608253"
       r="25.483549" />
    <radialGradient
       inkscape:collect="always"
       xlink:href="#linearGradient3543"
       id="radialGradient4116"
       gradientUnits="userSpaceOnUse"
       cx="74.375"
       cy="67.125"
       fx="74.375"
       fy="67.125"
       r="3.125" />
    <linearGradient
       inkscape:collect="always"
       xlink:href="#linearGradient3187"
       id="linearGradient3216"
       x1="-6.4374995"
       y1="25.0625"
       x2="-6.4374995"
       y2="5.056252"
       gradientUnits="userSpaceOnUse"
       gradientTransform="translate(16.937499,-4.062501)" />
    <linearGradient
       inkscape:collect="always"
       xlink:href="#linearGradient3327"
       id="linearGradient7424"
       gradientUnits="userSpaceOnUse"
       x1="11.375"
       y1="22"
       x2="11.375"
       y2="-9.817296" />
    <inkscape:perspective
       id="perspective2872"
       inkscape:persp3d-origin="0.5 : 0.33333333 : 1"
       inkscape:vp_z="1 : 0.5 : 1"
       inkscape:vp_y="0 : 1000 : 0"
       inkscape:vp_x="0 : 0.5 : 1"
       sodipodi:type="inkscape:persp3d" />
    <clipPath
       clipPathUnits="userSpaceOnUse"
       id="clipPath2849">
      <rect
         ry="2"
         rx="2"
         y="1"
         x="1"
         height="20"
         width="20"
         id="rect2851"
         style="fill:#ffffff;fill-opacity:1;fill-rule:evenodd;stroke:none;display:inline" />
    </clipPath>
    <filter
       color-interpolation-filters="sRGB"
       inkscape:collect="always"
       id="filter3194"
       x="-0.18000001"
       width="1.36"
       y="-0.18000001"
       height="1.36">
      <feGaussianBlur
         inkscape:collect="always"
         stdDeviation="1.2"
         id="feGaussianBlur3196" />
    </filter>
    <linearGradient
       y2="16"
       x2="10"
       y1="1"
       x1="10"
       gradientUnits="userSpaceOnUse"
       id="linearGradient3084"
       xlink:href="#linearGradient3823"
       inkscape:collect="always" />
    <linearGradient
       id="linearGradient3823">
      <stop
         id="stop3825"
         offset="0"
         style="stop-color:#ffffff;stop-opacity:1;" />
      <stop
         id="stop3829"
         offset="1"
         style="stop-color:#ffffff;stop-opacity:0;" />
    </linearGradient>
    <linearGradient
       inkscape:collect="always"
       xlink:href="#linearGradient3831"
       id="linearGradient3845"
       x1="11"
       y1="19.5"
       x2="21"
       y2="19.5"
       gradientUnits="userSpaceOnUse"
       spreadMethod="reflect" />
    <linearGradient
       id="linearGradient3831">
      <stop
         style="stop-color:#ffffff;stop-opacity:1;"
         offset="0"
         id="stop3833" />
      <stop
         id="stop3821"
         offset="0.75"
         style="stop-color:#ffffff;stop-opacity:0.49803922;" />
      <stop
         style="stop-color:#ffffff;stop-opacity:0;"
         offset="1"
         id="stop3835" />
    </linearGradient>
    <linearGradient
       y2="16"
       x2="10"
       y1="1"
       x1="10"
       gradientUnits="userSpaceOnUse"
       id="linearGradient3852"
       xlink:href="#linearGradient3823"
       inkscape:collect="always" />
  </defs>
  <sodipodi:namedview
     id="base"
     pagecolor="#ffffff"
     bordercolor="#e7e7e7"
     borderopacity="1"
     inkscape:pageopacity="0.0"
     inkscape:pageshadow="2"
     inkscape:zoom="17.303705"
     inkscape:cx="-26.563847"
     inkscape:cy="8.2814464"
     inkscape:document-units="px"
     inkscape:current-layer="layer1"
     showgrid="true"
     inkscape:showpageshadow="false"
     showguides="true"
     inkscape:guide-bbox="true"
     inkscape:window-width="1920"
     inkscape:window-height="1026"
     inkscape:window-x="0"
     inkscape:window-y="25"
     inkscape:window-maximized="1">
    <sodipodi:guide
       orientation="1,0"
       position="0,112"
       id="guide2383" />
    <sodipodi:guide
       orientation="1,0"
       position="128,54.082119"
       id="guide2387" />
    <sodipodi:guide
       orientation="0,1"
       position="78.156291,0"
       id="guide2389" />
    <inkscape:grid
       type="xygrid"
       id="grid3672"
       visible="true"
       enabled="true" />
  </sodipodi:namedview>
  <metadata
     id="metadata7">
    <rdf:RDF>
      <cc:Work
         rdf:about="">
        <dc:format>image/svg+xml</dc:format>
        <dc:type
           rdf:resource="http://purl.org/dc/dcmitype/StillImage" />
      </cc:Work>
    </rdf:RDF>
  </metadata>
  <g
     inkscape:label="Button"
     inkscape:groupmode="layer"
     id="layer1"
     style="display:inline">
    <rect
       style="opacity:0.3;fill:url(#linearGradient7424);fill-opacity:1;stroke:none;display:inline"
       id="rect3371"
       width="21"
       height="21.5"
       x="0.5"
       y="0.5"
       rx="2.5"
       ry="2.5" />
    <rect
       ry="2.3255813"
       rx="2.3809524"
       y="2"
       x="1"
       height="20"
       width="20"
       id="rect2553"
       style="opacity:0.5;fill:#000000;fill-opacity:1;stroke:none;display:inline" />
    <rect
       transform="matrix(0.8817734,0,0,0.8817734,1.29906,1.294755)"
       ry="2"
       rx="2"
       y="1.9800392"
       x="2"
       height="8.9714174"
       width="17.975767"
       id="rect3200"
       style="opacity:0.1;fill:#ffffff;fill-opacity:1;stroke:none;display:inline;filter:url(#filter3342)" />
    <rect
       style="fill:url(#linearGradient3216);fill-opacity:1;fill-rule:evenodd;stroke:none"
       id="rect3207"
       width="20"
       height="20"
       x="1"
       y="1"
       rx="2"
       ry="2" />
    <path
       style="opacity:0.4;fill:url(#linearGradient3852);fill-opacity:1;fill-rule:evenodd;stroke:none;display:inline"
       d="M 3,1 C 1.892,1 1,1.892 1,3 l 0,16 c 0,1.108 0.892,2 2,2 l 16,0 c 1.108,0 2,-0.892 2,-2 L 21,3 C 21,1.892 20.108,1 19,1 L 3,1 z m 0,1.03125 16,0 c 0.5497,0 0.96875,0.4190495 0.96875,0.96875 l 0,16 c 0,0.5497 -0.41905,0.96875 -0.96875,0.96875 l -16,0 C 2.4502995,19.96875 2.03125,19.5497 2.03125,19 l 0,-16 C 2.03125,2.4502995 2.4502995,2.03125 3,2.03125 z"
       id="rect3050"
       inkscape:connector-curvature="0" />
    <path
       id="path3235"
       d="M 3,21 C 1.892,21 1,20.108 1,19 l 0,-1 c 0,1.108 0.892,2 2,2 l 16,0 c 1.108,0 2,-0.892 2,-2 l 0,1 c 0,1.108 -0.892,2 -2,2 L 3,21 z"
       style="opacity:0.2;fill:url(#linearGradient3845);fill-opacity:1;fill-rule:evenodd;stroke:none;display:inline"
       inkscape:connector-curvature="0" />
  </g>
  <g
     inkscape:groupmode="layer"
     id="layer2"
     inkscape:label="Highlight"
     sodipodi:insensitive="true">
    <rect
       style="opacity:0.15;fill:#ffffff;fill-opacity:1;fill-rule:nonzero;stroke:none;display:inline;filter:url(#filter3194)"
       id="rect2410"
       width="16"
       height="16"
       x="3"
       y="3"
       rx="2"
       ry="2"
       clip-path="url(#clipPath2849)" />
  </g>
  <g
     inkscape:groupmode="layer"
     id="layer4"
     inkscape:label="World Map"
     style="display:inline"
     sodipodi:insensitive="true">
    <path
       style="opacity:0.6;fill:url(#radialGradient5232);fill-opacity:1;stroke:none;stroke-width:6;stroke-linecap:butt;stroke-linejoin:round;stroke-miterlimit:4;stroke-dasharray:none;stroke-dashoffset:0;stroke-opacity:1;display:inline"
       d="M 87.78125,6 C 90.060767,9.0622022 87.936773,14.175761 91.375,14.125 C 93.049147,16.49279 88.038224,14.831319 91.65625,16.65625 C 93.736824,18.295422 89.455097,19.231978 92.031704,20.702971 C 89.06207,22.235894 92.513056,28.720764 94.71875,30.34375 C 98.349074,33.401073 96.324247,23.87076 100.375,23.375 C 102.57611,20.861216 106.44202,19.247553 109.1875,16.71875 C 106.50436,16.500845 104.93759,14.830152 107.47864,13.795227 C 112.1554,18.58933 108.65134,11.524811 106.0625,10.40625 C 108.56752,9.6091019 111.00383,10.192846 110.65625,8.125 C 113.30351,6.1875239 108.1113,5.5619734 106.25787,6 C 100.099,6 93.940123,6 87.78125,6 z M 49.375,8 C 45.990832,8.9645069 45.75477,17.055098 49.15625,12.5625 C 49.991106,10.717785 53.849067,8.4946437 49.375,8 z M 65.1875,8.28125 C 63.236569,11.341586 65.470577,13.795223 67.09375,10.0625 C 68.242695,8.5037745 66.24013,8.3383596 65.1875,8.28125 z M 70.0625,8.96875 C 66.292927,10.716551 69.133348,14.792253 69.226653,15.698711 C 73.197651,17.072996 75.406094,14.800179 76.90835,18.684652 C 80.686773,20.863074 76.834001,24.648363 75.415656,25.634169 C 77.970389,23.408426 82.881112,31.68549 81.59375,27.3125 C 80.057901,26.190674 85.71753,29.11466 82.78125,25.46875 C 80.079092,21.113579 82.995748,23.518982 84.134983,24.535445 C 88.009731,21.059637 79.750889,20.639521 81.8125,17.0625 C 80.005928,15.598761 77.636598,11.164498 74.4375,12.03125 C 72.295953,14.801793 74.141663,5.9944599 70.999673,10.401766 C 70.836814,12.865428 70.940481,15.991656 70.024783,11.723553 C 69.411332,10.976374 71.080195,9.2393283 70.0625,8.96875 z M 62.375,9 C 59.844776,9.8438496 59.980671,13.263788 63.091902,13.630427 C 64.157583,12.415277 63.515296,9.2301089 62.375,9 z M 52.5,10.09375 C 49.213474,10.872708 50.55496,13.523653 51.561218,14.270254 C 47.493028,15.289643 57.771691,15.573116 52.65625,16.21875 C 48.400361,17.919061 56.75448,19.922281 58.125,17.90625 C 63.380491,19.191994 58.314129,13.697665 57.852803,10.719322 C 55.624902,8.3274039 57.764865,16.233342 55.750451,10.974069 C 55.047599,12.535835 52.812806,11.204213 52.5,10.09375 z M 156.9375,10.4375 C 152.52736,12.164097 159.6785,18.679705 157.90124,12.752078 C 157.72419,12.036325 158.29937,10.145176 156.9375,10.4375 z M 64.84375,13.0625 C 61.674643,16.041837 68.871977,18.505606 63.933534,20.725155 C 63.193063,17.958239 61.919034,22.109491 59.09375,19.875 C 54.23679,21.898056 51.753025,18.821208 47.686562,16.712123 C 45.244157,16.407982 46.161769,19.033659 46,21.492132 C 46,28.286421 46,35.080711 46,41.875 C 48.39469,44.395389 46.934299,42.987017 46,42.291849 C 47.314383,46.769946 45.420391,53.315967 50.60133,55.920788 C 51.482077,57.555064 55.177837,64.517524 55.34822,62.434287 C 53.495429,60.493289 51.594393,54.674269 54.729484,59.860653 C 57.537589,64.790688 61.325456,67.988297 66.859079,69.16148 C 69.884486,70.190956 72.372592,73.729816 75.033148,72.951188 C 76.537594,76.918605 70.574707,80.728473 75.233335,84.428924 C 77.665359,88.175078 81.748402,90.632086 79.537809,95.891424 C 77.991889,101.02794 78.653796,106.62478 77.316768,111.41053 C 76.901795,114.32359 81.375452,121.71738 80.987871,115.79672 C 82.294107,111.68227 82.259664,107.15503 85.336027,104.2413 C 89.545389,104.27464 86.140533,99.713325 90.318847,100.30918 C 92.86847,96.966013 93.606968,92.977763 97.909669,91.650259 C 98.423621,87.592167 105.06383,81.377133 98.204107,79.797159 C 96.339718,78.877887 91.539397,78.547337 91.90625,78.09375 C 92.649501,74.067055 85.698848,72.920713 82.741535,71.273266 C 78.858677,68.516144 73.024247,75.853523 71.65625,69.53125 C 70.839998,67.542064 67.855492,67.509804 69.227106,64.440395 C 66.755197,66.899789 61.920261,66.152317 63.186077,61.40275 C 65.108431,57.402692 72.490877,57.213431 73.748834,62.024782 C 72.002224,56.718435 77.124958,52.58765 79.96875,48.8125 C 80.547797,47.008078 83.988352,45.457804 82.804379,47.85597 C 84.821477,47.783188 87.878762,44.14181 84.295504,45.822491 C 84.244836,42.50168 81.155552,43.446057 80.153988,43.917591 C 82.010312,40.970211 91.543842,42.581574 87.55167,37.763898 C 84.458233,36.510003 84.715561,29.192895 81.586667,33.269286 C 81.849954,30.757647 75.218267,25.841144 75.362981,30.052879 C 76.172478,33.821594 75.510977,38.163065 73.788256,40.633396 C 73.428747,35.110971 64.013717,36.331511 65.2242,30.446749 C 66.97784,27.642048 69.027064,23.763523 69.2223,24.112434 C 72.365113,22.912054 74.892496,19.420395 71.25,17.125 C 71.055333,19.125587 68.510587,23.253209 68.868888,18.260983 C 66.512457,21.055861 67.050654,13.813602 64.84375,13.0625 z M 140.0625,15 C 134.5424,16.350813 132.35404,21.625104 129.62331,25.993633 C 125.59803,27.809158 125.75125,35.606053 130.24828,33.115828 C 131.45189,35.218745 129.40629,38.53334 132.91211,35.783666 C 135.73989,32.040131 133.40657,25.985529 138.21875,23.625 C 138.56926,25.460437 133.77976,32.314009 139.375,31.1875 C 144.43318,31.378426 135.69784,31.691679 138.15796,34.92389 C 135.60195,33.40679 136.9301,39.067255 133.59375,37.75 C 130.70335,39.322802 128.80802,37.019737 129.47014,34.496792 C 127.19637,35.823755 130.1853,39.567256 126.23818,39.792235 C 125.354,42.933133 118.08308,42.459721 122.21794,45.658001 C 124.05372,50.417516 115.37775,45.95637 117.84084,51.667947 C 119.94813,57.315833 124.36449,49.796495 126.15625,48.34375 C 129.61324,45.661192 134.73583,52.917782 131.625,53.1875 C 135.11322,52.719317 134.39641,49.40066 131.60156,48.115861 C 130.09211,44.199603 136.37996,50.036494 136.03125,52 C 138.24975,56.155815 137.33617,47.745078 139.59375,51.46875 C 139.33017,55.396675 148.67551,52.392314 144.21378,57.398416 C 140.37773,58.171343 136.60193,56.409115 133.29936,57.537838 C 130.22552,57.510632 130.37975,54.225221 129.26064,53.402473 C 125.35069,53.720257 120.51905,53.684322 117.90148,56.84417 C 115.0709,60.72922 110.98904,66.160241 114.07419,71.120968 C 117.16151,78.472188 124.8178,71.50228 129.21875,75.84375 C 130.52687,77.653948 128.08516,79.805735 131.01006,81.766516 C 132.11066,85.943316 129.76058,89.909114 132.46369,93.901878 C 133.86147,97.656869 134.72893,103.27713 139.93136,99.845901 C 145.43741,96.531222 143.97088,90.420827 148.51409,87.036398 C 144.91924,80.076671 152.91203,77.02504 154.90625,71.375 C 150.54931,72.013093 146.66773,67.667577 145.61506,63.293725 C 143.78476,61.169248 144.25619,58.036697 146.3007,62.02769 C 149.11089,64.751736 149.17161,72.83469 154.37,68.676532 C 156.74653,67.682131 163.23684,63.888883 158.06547,62.162654 C 154.73202,64.577941 151.05438,54.94571 155.94937,60.532608 C 159.50799,62.042928 162,62.942794 162,57.935315 C 162,44.444112 162,30.770105 162,17.1875 C 160.89154,18.320658 158.04386,20.41347 156.60651,19.022824 C 154.13325,19.367359 150.86822,24.181471 151.64547,19.527789 C 149.49564,19.385374 151.26063,23.700441 148.30705,23.821119 C 148.00965,26.039536 145.32335,24.231924 146.3324,26.338591 C 144.25936,24.867542 142.50492,20.22295 146.58954,23.138196 C 152.65542,21.317689 142.58947,17.211307 141.8125,16.21875 C 143.11858,15.905699 140.39155,14.544117 140.0625,15 z M 90,16.21875 C 87.981039,17.901608 93.838345,18.218523 90,16.21875 z M 63.03125,17.125 C 60.773095,19.487939 66.627494,19.297225 63.03125,17.125 z M 76.125,19.46875 C 74.414977,22.271085 78.651669,20.503361 76.125,19.46875 z M 113.5625,22.78125 C 111.56049,25.086962 108.91807,22.174439 108.875,24.15625 C 109.23783,24.755064 110.69112,29.028953 113.875,25.875 C 115.5838,25.154295 114.91102,23.337483 113.5625,22.78125 z M 70.9375,24.15625 C 67.140222,27.473721 77.386425,27.779379 71.741938,24.536732 L 70.9375,24.15625 z M 121.03125,33.34375 C 118.29729,35.127231 122.34283,38.914786 120.97174,40.693949 C 119.25863,43.679858 127.33781,40.483619 123.02263,38.10134 C 122.71517,36.054593 120.49459,33.557328 121.03125,33.34375 z M 119.1875,36.9375 C 115.37836,38.014818 118.32278,43.576972 119.67191,38.338265 C 119.74785,38.034547 119.85061,36.927342 119.1875,36.9375 z M 88.6875,40.96875 C 85.143829,43.386018 88.1371,45.798837 90.73417,44.711207 C 90.200998,43.252746 88.711527,42.333829 88.6875,40.96875 z M 155.625,45.03125 C 157.39315,45.923927 152.38481,47.448864 155.55616,49.01993 C 157.40172,51.19108 156.70594,55.851725 153.70615,52.55313 C 154.26348,48.870254 149.63984,46.119848 155.625,45.03125 z M 146.53125,45.0625 C 146.29134,47.428601 151.63418,51.106442 145.875,49.90625 C 142.82931,50.26366 138.26752,49.813161 142.1045,46.016587 C 143.31691,45.288458 146.50028,48.528714 144.84375,45.5 C 145.43105,45.462523 145.97801,45.240744 146.53125,45.0625 z M 128.9375,50.1875 C 126.71601,51.61923 130.47363,52.717062 128.9375,50.1875 z M 73.15625,63.53125 C 72.78174,64.781173 80.182179,66.047874 75.075469,64.045346 L 74.314208,63.777286 L 73.15625,63.53125 z M 78.90625,65.3125 C 76.661546,67.59215 83.531008,65.993568 78.90625,65.3125 z M 153.96875,86.21875 C 149.09132,86.344646 149.73975,98.930097 153.13971,91.48315 C 153.46214,89.867157 154.75446,87.734264 153.96875,86.21875 z"
       id="path3522"
       sodipodi:nodetypes="cccccccccccccccccccccccccccccccccccccccccccccccccccccccccccccccccccccccccccccccccccccccccccccccccccccccccccccccccccsccccccccccccccccccccccccccccccccccccccccccccccccccc" />
    <path
       style="opacity:0.5;fill:url(#radialGradient3180);fill-opacity:1;stroke:none;stroke-width:6;stroke-linecap:butt;stroke-linejoin:round;stroke-miterlimit:4;stroke-dasharray:none;stroke-dashoffset:0;stroke-opacity:1;display:inline"
       d="M 8.2356274,1.052765 C 8.5260672,1.5876164 8.41274,2.3499352 8.8966396,2.6492486 C 8.3581362,2.7450129 9.3791222,3.0604903 8.8211781,3.4106767 C 8.762596,3.910092 8.8277042,5.1426124 9.6938223,5.3406704 C 9.8953209,4.5131533 10.335014,3.8669565 11.130468,3.4747763 C 11.669556,3.1210687 12.145892,2.9459749 11.409351,2.6242245 C 11.503919,2.0484356 12.360619,3.1519882 11.872327,2.2996063 C 11.528184,1.8935971 11.240688,1.7172745 11.966729,1.6977382 C 12.922346,0.93489355 11.164597,0.98710715 10.624022,1.052765 C 9.8278919,1.052765 9.0317582,1.052765 8.2356274,1.052765 z M 1.6161392,1.397473 C 0.96054746,1.4971737 1.1129463,3.0412946 1.6529978,2.0622635 C 1.9032921,1.8248399 2.2133395,1.3974619 1.6161392,1.397473 z M 4.3414943,1.445948 C 3.8233553,2.1126116 4.7945318,2.2430619 4.7009489,1.5403503 C 4.6069046,1.4511486 4.459652,1.4602406 4.3414943,1.445948 z M 5.1817219,1.5644419 C 4.3638928,2.0955585 5.1818087,3.1499496 6.0093996,2.8444248 C 6.632832,3.1795406 6.8693676,4.0477468 6.1043621,4.436805 C 6.5031716,4.0293712 7.3281119,5.424353 7.1606571,4.6832099 C 8.081988,5.0805066 6.6123281,3.4897312 7.5216749,4.1732574 C 8.3461407,4.0113924 6.8901589,3.4449043 7.2068871,2.959435 C 6.8356035,2.5409082 6.3231516,1.8785552 5.763628,2.143026 C 5.7517929,1.1939676 5.1804897,1.8299861 5.2903413,2.4023983 C 5.0505299,2.1410907 5.2714698,1.7918463 5.1817219,1.5644419 z M 3.8567469,1.5698281 C 2.9292532,2.0840845 4.5255688,2.7687887 3.984796,1.6818067 L 3.9260169,1.6069169 L 3.8567471,1.569828 L 3.8567469,1.5698281 z M 2.154747,1.758341 C 1.4953263,1.810887 2.0648261,2.4976333 1.8506119,2.5891247 C 2.2871844,2.7069717 2.7070135,2.7316877 2.0018886,2.9249015 C 2.2202329,3.5156364 4.147542,3.3170895 3.3058843,2.4255577 C 3.1846017,2.0321384 2.8247023,1.4457604 2.8640679,2.2276449 C 2.731178,1.6209953 2.4439574,2.3801442 2.154747,1.758341 z M 20.155014,1.817587 C 19.380512,2.1306532 20.717544,3.1944201 20.315299,2.0950536 C 20.3297,1.9949206 20.321517,1.7627417 20.155014,1.817587 z M 4.2822473,2.270018 C 3.874698,2.5842013 4.8514826,3.7044735 4.0728552,3.4632951 C 3.3724805,3.4942646 2.4843936,3.7425079 1.81029,3.186612 C 0.66914876,2.2551718 1.1015831,4.2093504 1.0344431,4.8207388 C 0.89600154,5.6255105 1.2303245,7.5026225 1.0708718,7.4564651 C 1.0268873,8.5020694 1.3724597,9.3956886 2.0786089,10.114344 C 2.1688766,10.454013 2.9667356,11.261018 2.4182807,10.443318 C 1.9875033,9.2440029 3.0644255,11.415894 3.5395287,11.477395 C 4.3491972,11.949525 5.583366,12.256606 6.0814316,12.847266 C 5.6664184,13.688747 5.711975,14.526866 6.5074902,15.132076 C 7.3541119,15.911084 6.5392799,16.968458 6.6099292,17.906018 C 6.5379849,18.632326 6.1738088,20.173368 7.0538164,20.257808 C 7.2410884,19.496911 7.1897629,18.270456 8.0298453,17.953403 C 8.3847744,17.296659 9.0145931,17.020002 9.3573212,16.235789 C 10.042716,15.787852 10.6405,14.853133 10.473994,14.00175 C 9.8956449,13.496061 8.8622032,13.850346 8.7396595,12.955457 C 7.9867572,12.573442 7.1073544,11.914261 6.2491682,12.38321 C 5.4140631,12.851949 5.1047666,11.109305 4.8617293,11.258007 C 3.3769749,11.792834 4.0779773,9.5345486 5.2331298,10.128759 C 5.7502458,10.202843 5.8770314,11.107037 5.7622227,10.214877 C 6.0089885,9.3858406 6.6625374,8.43253 7.4016012,8.0744765 C 7.2447527,8.6808665 8.3889283,7.5737127 7.6348441,7.916345 C 7.702635,7.211729 6.3904267,7.7451628 7.3519944,7.3247687 C 8.2854412,7.3316787 8.6449664,6.6859789 7.8299732,6.1104661 C 7.7435841,5.8118388 7.436687,5.2655863 7.1679631,5.752745 C 7.0463893,4.8286988 5.6568612,4.6486891 6.1539619,5.8234122 C 6.160725,6.2355525 5.9025643,7.5034017 5.6467676,6.5934275 C 4.9362394,6.1882081 3.7663205,5.5948645 4.6898031,4.6925452 C 4.8896189,4.0737868 6.2865491,3.6533765 5.3863931,2.970205 C 5.4156964,3.3852595 4.851406,3.8597572 4.9759981,3.165995 C 4.5137448,3.6173877 4.6647524,2.325379 4.2822473,2.270018 z M 17.246533,2.6039549 C 16.124007,2.8327953 15.894282,4.1230364 15.133188,4.7650136 C 14.651232,5.3118427 15.164423,5.9370326 15.609513,5.8695538 C 15.726627,7.1162248 16.518805,5.2694149 16.403387,4.7622367 C 16.436855,4.306944 17.223229,3.7806914 16.807506,4.5721063 C 16.277195,5.2365265 17.091375,5.5032949 17.332984,5.4652734 C 16.710539,5.5682885 17.012746,6.045666 16.627396,6.1369992 C 16.55407,6.820218 15.164114,6.7739868 15.420892,5.964315 C 15.309603,6.7946395 14.646432,7.1448853 13.957126,7.5736008 C 14.553387,8.1886727 13.872464,8.3410994 13.355623,8.5329905 C 13.27692,9.6966714 14.4261,9.1599577 14.714378,8.4873291 C 15.385649,7.6040941 16.04997,9.2324974 15.984489,9.1340978 C 16.747036,8.8885272 15.147389,7.740341 16.094968,8.2663201 C 16.518228,8.5604215 16.684977,9.7151293 16.997354,8.7210141 C 16.991716,9.4573838 18.666283,9.1319996 17.962024,9.911515 C 17.21195,9.8838835 16.332322,10.012315 15.678667,9.7453537 C 15.449596,8.82014 14.206302,9.3306424 13.612995,9.6363773 C 12.958555,10.335258 12.194886,11.437447 12.819483,12.388341 C 13.291959,13.564486 15.278356,12.096375 15.441408,13.46164 C 15.791453,14.219868 15.662042,15.086071 15.800097,15.945119 C 15.976556,16.870541 16.813889,18.073458 17.64574,16.861621 C 17.982138,15.926284 18.847902,15.198389 18.565622,14.228864 C 18.646983,13.513347 19.888609,12.807826 19.665177,12.331199 C 18.684663,12.292363 18.216774,11.223271 18.012187,10.423229 C 18.682669,10.57565 18.563944,12.092086 19.41536,12.031127 C 20.056051,11.929331 21.37196,10.66589 20.030123,10.778786 C 19.550768,10.654856 19.443909,9.7119121 19.984705,10.451705 C 21.467444,11.27095 20.953045,9.0581352 21.027558,8.2549243 C 21.027558,6.4969412 21.027558,4.7389581 21.027558,2.980975 C 20.52007,3.5286391 19.799935,3.2421075 19.260051,3.7174686 C 19.119253,2.8593137 18.943294,4.4922758 18.344921,4.3621759 C 18.2332,4.9580282 17.594265,3.3382397 18.371497,4.006605 C 19.28693,3.4922621 17.528567,2.9721929 17.349242,2.596042 L 17.246532,2.603955 L 17.246533,2.6039549 z M 8.6180394,2.8140151 C 8.3238088,3.1708539 9.2555949,3.0343982 8.6180394,2.8140151 z M 3.9698551,2.970205 C 3.5931451,3.3948055 4.5844255,3.2496947 3.9698551,2.970205 z M 6.2266209,3.374165 C 5.9030534,3.7963321 6.6611529,3.5540116 6.2266209,3.374165 z M 12.67914,3.9450852 C 12.342658,4.2274095 11.476239,3.9029565 12.119781,4.5727437 C 12.421314,4.9124887 13.330508,4.2151939 12.67914,3.9450852 z M 5.3325322,4.1820752 C 4.7134927,4.7496449 6.4037577,4.7078708 5.4711801,4.247655 C 5.4249641,4.2257951 5.3787481,4.2039351 5.3325322,4.1820752 z M 13.966412,5.7655851 C 13.616262,6.158955 14.069541,6.8429362 13.991411,7.2374534 C 15.149596,7.0898498 13.990962,6.3090039 13.966412,5.7655851 z M 13.648633,6.3849851 C 12.958508,6.5404009 13.608002,7.4437121 13.732124,6.626405 C 13.740032,6.5601655 13.767315,6.391164 13.648633,6.3849851 z M 8.391824,7.079785 C 7.4589598,7.4999984 9.1595245,8.2022459 8.5352929,7.3962662 L 8.435766,7.2444808 L 8.3918241,7.079785 L 8.391824,7.079785 z M 19.928799,7.7799751 C 19.983692,8.0513913 19.486226,8.3682745 20.015766,8.6243663 C 20.421167,9.4167491 19.386136,9.372649 19.545212,8.6324326 C 19.291388,8.1907184 19.362664,7.8205475 19.928799,7.7799751 z M 18.36145,7.7853648 C 18.421079,8.1461199 19.080594,8.8687125 18.248343,8.620205 C 17.582504,8.9933988 16.953639,8.012811 17.800556,7.9563547 C 18.313423,8.2966619 17.924698,7.7844661 18.36145,7.7853648 z M 15.329089,8.6686746 C 14.941877,8.8974875 15.619087,9.0528109 15.329089,8.6686746 z M 5.7149432,10.968535 C 6.0123971,11.379 6.689216,11.200605 5.9145229,11.010935 C 5.8479963,10.996802 5.7814697,10.982668 5.7149432,10.968535 z M 6.705982,11.275535 C 6.3899446,11.703121 7.4538135,11.301694 6.705982,11.275535 z M 19.643338,14.878825 C 18.72552,14.856719 19.042652,17.041863 19.528097,15.677925 C 19.597104,15.423525 19.763699,15.143589 19.643338,14.878825 z"
       id="path3175" />
  </g>
  <g
     inkscape:groupmode="layer"
     id="layer3"
     inkscape:label="Network"
     style="display:inline"
     sodipodi:insensitive="true">
    <path
       style="fill:none;stroke:url(#radialGradient4102);stroke-width:1.00000012;stroke-linecap:butt;stroke-linejoin:miter;stroke-miterlimit:4;stroke-opacity:1;stroke-dasharray:none"
       d="M 1,11.25 C 7.5209479,6.5491445 16.966875,5.6052342 20.822026,10.947115"
       id="path3577"
       sodipodi:nodetypes="cc" />
    <path
       style="fill:none;stroke:url(#radialGradient4114);stroke-width:1.00000012;stroke-linecap:butt;stroke-linejoin:miter;stroke-miterlimit:4;stroke-opacity:1;stroke-dasharray:none"
       d="M 6.1518918,1.1961974 C 2.0294584,12.55524 17.717196,20.536999 17.717196,20.536999"
       id="path3583"
       sodipodi:nodetypes="cc" />
    <path
       style="fill:none;stroke:url(#radialGradient4111);stroke-width:1.00000012;stroke-linecap:butt;stroke-linejoin:miter;stroke-miterlimit:4;stroke-opacity:1;stroke-dasharray:none"
       d="M 6.2782753,20.957267 C 6.0322018,17.196582 13.193748,6.1346146 20.781014,4.2542724"
       id="path3581"
       sodipodi:nodetypes="cc" />
    <path
       sodipodi:type="arc"
       style="fill:#eeeeec;fill-opacity:1;fill-rule:evenodd;stroke:none;display:inline"
       id="path4125"
       sodipodi:cx="6.25"
       sodipodi:cy="8.375"
       sodipodi:rx="1.8125"
       sodipodi:ry="1.8125"
       d="m 8.0625,8.375 a 1.8125,1.8125 0 1 1 -3.625,0 1.8125,1.8125 0 1 1 3.625,0 z"
       transform="matrix(0.8965517,0,0,0.8965517,0.6465517,0.8663793)" />
    <path
       sodipodi:type="arc"
       style="fill:#eeeeec;fill-opacity:1;fill-rule:evenodd;stroke:none;display:inline"
       id="path4127"
       sodipodi:cx="14.8125"
       sodipodi:cy="7.625"
       sodipodi:rx="1.9375"
       sodipodi:ry="1.9375"
       d="m 16.75,7.625 a 1.9375,1.9375 0 1 1 -3.875,0 1.9375,1.9375 0 1 1 3.875,0 z"
       transform="matrix(0.9032258,0,0,0.9032258,1.4334678,0.7379032)" />
    <path
       sodipodi:type="arc"
       style="fill:#eeeeec;fill-opacity:1;fill-rule:evenodd;stroke:none;display:inline"
       id="path4129"
       sodipodi:cx="9.1875"
       sodipodi:cy="13.5"
       sodipodi:rx="1.5625"
       sodipodi:ry="1.5625"
       d="m 10.75,13.5 a 1.5625,1.5625 0 1 1 -3.125,0 1.5625,1.5625 0 1 1 3.125,0 z" />
  </g>
</svg>
