<?xml version="1.0" encoding="UTF-8" standalone="no"?>
<!-- Created with Inkscape (http://www.inkscape.org/) -->

<svg
   xmlns:dc="http://purl.org/dc/elements/1.1/"
   xmlns:cc="http://creativecommons.org/ns#"
   xmlns:rdf="http://www.w3.org/1999/02/22-rdf-syntax-ns#"
   xmlns:svg="http://www.w3.org/2000/svg"
   xmlns="http://www.w3.org/2000/svg"
   xmlns:xlink="http://www.w3.org/1999/xlink"
   xmlns:sodipodi="http://sodipodi.sourceforge.net/DTD/sodipodi-0.dtd"
   xmlns:inkscape="http://www.inkscape.org/namespaces/inkscape"
   width="22"
   height="22"
   id="svg2"
   sodipodi:version="0.32"
   inkscape:version="0.48.0 r9654"
   version="1.0"
   sodipodi:docname="applications-development.svg"
   inkscape:output_extension="org.inkscape.output.svg.inkscape"
   style="display:inline">
  <defs
     id="defs4">
    <linearGradient
       id="linearGradient3823">
      <stop
         id="stop3825"
         offset="0"
         style="stop-color:#ffffff;stop-opacity:1;" />
      <stop
         id="stop3829"
         offset="1"
         style="stop-color:#ffffff;stop-opacity:0;" />
    </linearGradient>
    <linearGradient
       inkscape:collect="always"
       id="linearGradient3327">
      <stop
         style="stop-color:#000000;stop-opacity:1;"
         offset="0"
         id="stop3330" />
      <stop
         style="stop-color:#000000;stop-opacity:0;"
         offset="1"
         id="stop3333" />
    </linearGradient>
    <linearGradient
       inkscape:collect="always"
       xlink:href="#linearGradient3327"
       id="linearGradient3335"
       x1="11.375"
       y1="22"
       x2="11.375"
       y2="-9.817296"
       gradientUnits="userSpaceOnUse" />
    <linearGradient
       inkscape:collect="always"
       id="linearGradient5287">
      <stop
         style="stop-color:#000000;stop-opacity:1;"
         offset="0"
         id="stop5289" />
      <stop
         style="stop-color:#000000;stop-opacity:0;"
         offset="1"
         id="stop5291" />
    </linearGradient>
    <linearGradient
       inkscape:collect="always"
       xlink:href="#ButtonColor"
       id="linearGradient4489"
       gradientUnits="userSpaceOnUse"
       x1="58.650177"
       y1="122.03427"
       x2="58.650177"
       y2="5.4252338"
       gradientTransform="translate(33.314488,-50.833922)" />
    <inkscape:perspective
       sodipodi:type="inkscape:persp3d"
       inkscape:vp_x="0 : 11 : 1"
       inkscape:vp_y="0 : 1000 : 0"
       inkscape:vp_z="22 : 11 : 1"
       inkscape:persp3d-origin="11 : 7.3333333 : 1"
       id="perspective2531" />
    <linearGradient
       id="ButtonShadow"
       gradientTransform="scale(0.9883037,1.0118347)"
       x1="9.3550024"
       y1="21.742682"
       x2="9.3550024"
       y2="0.49362123"
       gradientUnits="userSpaceOnUse">
      <stop
         id="stop3277"
         offset="0"
         style="stop-color:#000000;stop-opacity:0.70588237;" />
      <stop
         id="stop3279"
         offset="1"
         style="stop-color:#000000;stop-opacity:0.15686275;" />
    </linearGradient>
    <linearGradient
       inkscape:collect="always"
       id="linearGradient3232">
      <stop
         style="stop-color:#000000;stop-opacity:1;"
         offset="0"
         id="stop3234" />
      <stop
         style="stop-color:#000000;stop-opacity:0;"
         offset="1"
         id="stop3236" />
    </linearGradient>
    <linearGradient
       gradientUnits="userSpaceOnUse"
       y2="-6.0004225"
       x2="11"
       y1="14.805666"
       x1="11"
       id="linearGradient3221"
       xlink:href="#linearGradient3232"
       inkscape:collect="always" />
    <linearGradient
       id="ButtonColor"
       x1="10.31979"
       y1="21"
       x2="10.31979"
       y2="0.99929649"
       gradientUnits="userSpaceOnUse">
      <stop
         style="stop-color:#d28c1e;stop-opacity:1;"
         offset="0"
         id="stop3189" />
      <stop
         style="stop-color:#ffcf0f;stop-opacity:1;"
         offset="1"
         id="stop3191" />
    </linearGradient>
    <linearGradient
       inkscape:collect="always"
       xlink:href="#linearGradient5287"
       id="linearGradient5293"
       x1="17"
       y1="2.4978692"
       x2="20.087286"
       y2="2.4978692"
       gradientUnits="userSpaceOnUse" />
    <linearGradient
       inkscape:collect="always"
       xlink:href="#linearGradient5287"
       id="linearGradient5295"
       x1="14"
       y1="2.4978692"
       x2="17.087286"
       y2="2.4978692"
       gradientUnits="userSpaceOnUse" />
    <linearGradient
       inkscape:collect="always"
       xlink:href="#linearGradient5287"
       id="linearGradient5297"
       x1="11"
       y1="2.4978692"
       x2="14.087286"
       y2="2.4978692"
       gradientUnits="userSpaceOnUse" />
    <linearGradient
       inkscape:collect="always"
       xlink:href="#linearGradient5287"
       id="linearGradient5299"
       x1="8"
       y1="2.4978692"
       x2="11.087286"
       y2="2.4978692"
       gradientUnits="userSpaceOnUse" />
    <linearGradient
       inkscape:collect="always"
       xlink:href="#linearGradient5287"
       id="linearGradient5301"
       x1="5"
       y1="2.4978692"
       x2="8.0872861"
       y2="2.4978692"
       gradientUnits="userSpaceOnUse" />
    <linearGradient
       inkscape:collect="always"
       xlink:href="#linearGradient5287"
       id="linearGradient5303"
       x1="2"
       y1="2.4978692"
       x2="5.0872857"
       y2="2.4978692"
       gradientUnits="userSpaceOnUse" />
    <linearGradient
       inkscape:collect="always"
       xlink:href="#linearGradient5287"
       id="linearGradient5306"
       gradientUnits="userSpaceOnUse"
       x1="7.1236749"
       y1="1.013298"
       x2="7.1236749"
       y2="6.2611337" />
    <linearGradient
       inkscape:collect="always"
       xlink:href="#linearGradient5287"
       id="linearGradient5320"
       gradientUnits="userSpaceOnUse"
       x1="7.1236749"
       y1="1.013298"
       x2="7.1236749"
       y2="6.2611337"
       gradientTransform="matrix(1.4019643,0,0,1,-1.5989816,0)" />
    <linearGradient
       inkscape:collect="always"
       xlink:href="#linearGradient5287"
       id="linearGradient5322"
       gradientUnits="userSpaceOnUse"
       x1="7.1236749"
       y1="1.013298"
       x2="7.1236749"
       y2="6.2611337"
       gradientTransform="matrix(1.4019643,0,0,1,-1.5989816,0)" />
    <linearGradient
       inkscape:collect="always"
       xlink:href="#linearGradient5287"
       id="linearGradient5324"
       gradientUnits="userSpaceOnUse"
       x1="7.1236749"
       y1="1.013298"
       x2="7.1236749"
       y2="6.2611337"
       gradientTransform="matrix(1.4019643,0,0,1,-1.5989816,0)" />
    <linearGradient
       inkscape:collect="always"
       xlink:href="#linearGradient5287"
       id="linearGradient5326"
       gradientUnits="userSpaceOnUse"
       x1="7.1236749"
       y1="1.013298"
       x2="7.1236749"
       y2="6.2611337"
       gradientTransform="matrix(1.4019643,0,0,1,-1.5989816,0)" />
    <linearGradient
       inkscape:collect="always"
       xlink:href="#linearGradient5287"
       id="linearGradient5330"
       gradientUnits="userSpaceOnUse"
       gradientTransform="matrix(1.4019643,0,0,1,3.5246933,0)"
       x1="7.1236749"
       y1="1.013298"
       x2="7.1236749"
       y2="6.2611337" />
    <linearGradient
       inkscape:collect="always"
       xlink:href="#linearGradient5287"
       id="linearGradient5335"
       gradientUnits="userSpaceOnUse"
       gradientTransform="matrix(1.4019643,0,0,1,2.7296403,0)"
       x1="7.1236749"
       y1="1.013298"
       x2="7.1236749"
       y2="6.2611337" />
    <linearGradient
       inkscape:collect="always"
       xlink:href="#linearGradient5287"
       id="linearGradient5341"
       gradientUnits="userSpaceOnUse"
       gradientTransform="matrix(1.4019643,0,0,1,-1.5989816,0)"
       x1="7.1236749"
       y1="2.1614699"
       x2="7.1236749"
       y2="6.2611337" />
    <linearGradient
       inkscape:collect="always"
       xlink:href="#ButtonColor"
       id="linearGradient3195"
       gradientUnits="userSpaceOnUse"
       x1="10.31979"
       y1="21"
       x2="10.31979"
       y2="0.99929649" />
    <linearGradient
       inkscape:collect="always"
       xlink:href="#ButtonColor"
       id="linearGradient3205"
       x1="7.3763251"
       y1="25.15901"
       x2="7.3763251"
       y2="6.9999461"
       gradientUnits="userSpaceOnUse"
       gradientTransform="translate(2.0600706,-6.1590104)" />
    <inkscape:perspective
       id="perspective2855"
       inkscape:persp3d-origin="0.5 : 0.33333333 : 1"
       inkscape:vp_z="1 : 0.5 : 1"
       inkscape:vp_y="0 : 1000 : 0"
       inkscape:vp_x="0 : 0.5 : 1"
       sodipodi:type="inkscape:persp3d" />
    <clipPath
       clipPathUnits="userSpaceOnUse"
       id="clipPath2849">
      <rect
         ry="2"
         rx="2"
         y="1"
         x="1"
         height="20"
         width="20"
         id="rect2851"
         style="fill:#ffffff;fill-opacity:1;fill-rule:evenodd;stroke:none;display:inline" />
    </clipPath>
    <filter
       color-interpolation-filters="sRGB"
       inkscape:collect="always"
       id="filter3194"
       x="-0.18000001"
       width="1.36"
       y="-0.18000001"
       height="1.36">
      <feGaussianBlur
         inkscape:collect="always"
         stdDeviation="1.2"
         id="feGaussianBlur3196" />
    </filter>
    <linearGradient
       inkscape:collect="always"
       xlink:href="#ButtonColor"
       id="linearGradient2902"
       gradientUnits="userSpaceOnUse"
       gradientTransform="translate(2.0600706,23.84099)"
       x1="7.3763251"
       y1="25.15901"
       x2="7.3763251"
       y2="6.9999461" />
    <clipPath
       clipPathUnits="userSpaceOnUse"
       id="clipPath2909">
      <path
         style="fill:#ffffff;fill-opacity:1;fill-rule:evenodd;stroke:none;display:inline"
         d="m 3,31 c -1.108,0 -2,0.892 -2,2 l 0,16 c 0,1.108 0.892,2 2,2 l 16,0 c 1.108,0 2,-0.892 2,-2 l 0,-16 c 0,-1.108 -0.892,-2 -2,-2 L 3,31 z m 7.4375,4.75 c 0.455867,-0.01672 0.891897,0.242353 1.125,0.71875 0.140584,0.287312 0.153754,0.76751 0.03125,1.09375 -0.184496,0.491333 -0.601472,0.78125 -1.125,0.78125 -0.275675,0 -0.299974,0.0074 -0.28125,0.09375 0.01085,0.05002 0.08324,1.122171 0.15625,2.40625 0.09991,1.757408 0.126943,2.374173 0.09375,2.5 -0.02425,0.09194 -0.03889,0.175324 -0.03125,0.1875 0.0076,0.01218 0.279214,0.181793 0.59375,0.34375 0.367985,0.189476 0.573565,0.278633 0.59375,0.25 0.323932,-0.459535 0.915396,-1.163773 1.03125,-1.21875 0.120694,-0.05727 0.335172,-0.06255 1.25,-0.0625 0.951886,5.7e-5 1.091995,-0.0019 1.21875,0.0625 0.106977,0.05434 0.637624,0.698702 2.03125,2.5 1.037471,1.340952 1.881869,2.464328 1.875,2.5 -0.01116,0.05794 -0.574865,0.08421 -5.1875,0.09375 -4.667796,0.0097 -5.15625,-0.0029 -5.15625,-0.0625 0,-0.03632 0.564604,-0.777593 1.25,-1.65625 0.685395,-0.878656 1.227401,-1.617708 1.21875,-1.625 C 11.1163,44.64895 10.444225,44.307385 9.625,43.875 8.29247,43.171694 8.027957,43.042235 8.03125,43.15625 8.031772,43.17433 8.125002,43.605033 8.25,44.125 l 0.25,0.96875 0,1.375 c 0.00447,1.332314 -0.010945,1.354691 -0.09375,1.4375 -0.091016,0.09102 -0.216746,0.1137 -0.75,0.0625 -0.192157,-0.01845 -0.274871,-0.0561 -0.34375,-0.125 -0.092057,-0.09208 -0.09703,-0.126939 -0.125,-1.5 l -0.03125,-1.375 -0.21875,-0.90625 -0.25,-0.90625 -1.25,2.1875 c -0.690631,1.214671 -1.323763,2.288238 -1.40625,2.375 -0.209394,0.220244 -0.326476,0.204011 -0.6875,-0.0625 C 3.034604,47.428033 2.959688,47.337062 3,47.125 3.036324,46.933925 3.026791,46.96434 4.5,44.375 5.230115,43.091734 5.834249,42.018459 5.84375,41.96875 5.858534,41.891417 5.791192,41.830563 5.40625,41.625 4.961735,41.387625 4.935386,41.382537 4.875,41.46875 4.767743,41.621882 4.643864,41.583696 4.34375,41.3125 3.931912,40.940349 3.904604,41.021941 4.8125,39.3125 5.224148,38.537426 5.60074,37.839091 5.65625,37.78125 L 5.75,37.6875 l 1.8125,-0.03125 1.8125,0 -0.0625,-0.1875 C 9.169107,37.00722 9.30744,36.429733 9.65625,36.09375 9.878208,35.879956 10.16398,35.760035 10.4375,35.75 z M 6.65625,39 l -0.4375,0.03125 -0.5,0.90625 c -0.262796,0.495702 -0.448002,0.895748 -0.4375,0.90625 0.026793,0.02679 0.786828,0.437048 0.8125,0.4375 0.011568,2.04e-4 0.240981,-0.478829 0.5,-1.0625 0.259019,-0.583672 0.484378,-1.11495 0.5,-1.15625 C 7.120083,38.99288 7.075665,38.98888 6.65625,39 z m 2.53125,1.71875 c -0.049339,0.05121 -0.176201,0.290864 -0.40625,0.8125 -0.217366,0.492875 -0.398631,0.922602 -0.40625,0.9375 -0.014753,0.02885 0.939223,0.520894 0.96875,0.5 0.00959,-0.0068 -0.031954,-0.478255 -0.0625,-1.0625 C 9.250705,41.322004 9.232947,40.803281 9.21875,40.75 c -0.00501,-0.0188 -0.014803,-0.04832 -0.03125,-0.03125 z"
         id="path2911" />
    </clipPath>
    <filter
       inkscape:collect="always"
       id="filter3693"
       x="-0.10589339"
       width="1.2117868"
       y="-0.13844267"
       height="1.2768853">
      <feGaussianBlur
         inkscape:collect="always"
         stdDeviation="0.70595554"
         id="feGaussianBlur3695" />
    </filter>
    <linearGradient
       inkscape:collect="always"
       xlink:href="#linearGradient3831"
       id="linearGradient3845"
       x1="11"
       y1="19.5"
       x2="21"
       y2="19.5"
       gradientUnits="userSpaceOnUse"
       spreadMethod="reflect" />
    <linearGradient
       id="linearGradient3831">
      <stop
         style="stop-color:#ffffff;stop-opacity:1;"
         offset="0"
         id="stop3833" />
      <stop
         id="stop3821"
         offset="0.75"
         style="stop-color:#ffffff;stop-opacity:0.49803922;" />
      <stop
         style="stop-color:#ffffff;stop-opacity:0;"
         offset="1"
         id="stop3835" />
    </linearGradient>
    <linearGradient
       inkscape:collect="always"
       xlink:href="#linearGradient3831"
       id="linearGradient3837"
       x1="10"
       y1="1"
       x2="10"
       y2="16"
       gradientUnits="userSpaceOnUse" />
    <linearGradient
       y2="16"
       x2="10"
       y1="1"
       x1="10"
       gradientUnits="userSpaceOnUse"
       id="linearGradient3084"
       xlink:href="#linearGradient3823"
       inkscape:collect="always" />
  </defs>
  <sodipodi:namedview
     id="base"
     pagecolor="#ffffff"
     bordercolor="#e7e7e7"
     borderopacity="1"
     inkscape:pageopacity="0.0"
     inkscape:pageshadow="2"
     inkscape:zoom="13.239896"
     inkscape:cx="-2.7095967"
     inkscape:cy="5.7275826"
     inkscape:document-units="px"
     inkscape:current-layer="layer1"
     showgrid="true"
     inkscape:showpageshadow="false"
     showguides="false"
     inkscape:guide-bbox="true"
     inkscape:window-width="1920"
     inkscape:window-height="1026"
     inkscape:window-x="0"
     inkscape:window-y="25"
     inkscape:window-maximized="1"
     inkscape:snap-global="false">
    <sodipodi:guide
       orientation="1,0"
       position="0,112"
       id="guide2383" />
    <sodipodi:guide
       orientation="0,1"
       position="26.278146,128"
       id="guide2385" />
    <sodipodi:guide
       orientation="1,0"
       position="128,54.082119"
       id="guide2387" />
    <sodipodi:guide
       orientation="0,1"
       position="78.156291,0"
       id="guide2389" />
    <sodipodi:guide
       orientation="0,1"
       position="60.863576,64.084768"
       id="guide2391" />
    <inkscape:grid
       type="xygrid"
       id="grid3672"
       visible="true"
       enabled="true" />
  </sodipodi:namedview>
  <metadata
     id="metadata7">
    <rdf:RDF>
      <cc:Work
         rdf:about="">
        <dc:format>image/svg+xml</dc:format>
        <dc:type
           rdf:resource="http://purl.org/dc/dcmitype/StillImage" />
      </cc:Work>
    </rdf:RDF>
  </metadata>
  <g
     inkscape:label="Button"
     inkscape:groupmode="layer"
     id="layer1">
    <g
       style="display:inline"
       id="g3337">
      <rect
         ry="2.5"
         rx="2.5"
         y="0.5"
         x="0.5"
         height="21.5"
         width="21"
         id="rect3371"
         style="opacity:0.3;fill:url(#linearGradient3335);fill-opacity:1;stroke:none;display:inline" />
      <rect
         style="opacity:0.5;fill:#000000;fill-opacity:1;stroke:none;display:inline"
         id="rect2553"
         width="20"
         height="20"
         x="1"
         y="2"
         rx="2.3809524"
         ry="2.3255813" />
    </g>
    <rect
       style="fill:url(#linearGradient3205);fill-opacity:1;fill-rule:evenodd;stroke:none"
       id="rect3197"
       width="20"
       height="20"
       x="1"
       y="1"
       rx="2"
       ry="2" />
    <path
       style="opacity:0.8;fill:url(#linearGradient5341);fill-opacity:1;fill-rule:evenodd;stroke:none"
       d="M 3,1 C 2.8826824,1 2.767922,1.0120519 2.65625,1.03125 l -1.4375,2.9375 2.875,0 L 5.53125,1 3,1 z m 3.84375,0 -1.4375,2.96875 2.90625,0 L 9.75,1 6.84375,1 z m 4.21875,0 -1.4375,2.96875 2.875,0 L 13.9375,1 11.0625,1 z m 4.21875,0 -1.46875,2.96875 2.90625,0 L 18.15625,1 l -2.875,0 z m 4.28125,0.09375 -1.40625,2.875 2.84375,0 L 21,3 C 21,2.0893625 20.392266,1.3372934 19.5625,1.09375 z"
       id="path5318" />
    <path
       style="opacity:0.5;fill:#ffffff;fill-opacity:1;stroke:none;display:inline"
       d="m 48.314488,-42.833922 c -3.878,0 -7,3.122 -7,7 l 0,2 c 0,-3.878 3.122,-7 7,-7 l 98.000002,0 c 3.878,0 7,3.122 7,7 l 0,-2 c 0,-3.878 -3.122,-7 -7,-7 l -98.000002,0 z"
       id="rect5247" />
    <path
       style="opacity:0.50000000000000000;fill:url(#linearGradient3084);fill-opacity:1.0;fill-rule:evenodd;stroke:none;display:inline"
       d="M 3,1 C 1.892,1 1,1.892 1,3 l 0,16 c 0,1.108 0.892,2 2,2 l 16,0 c 1.108,0 2,-0.892 2,-2 L 21,3 C 21,1.892 20.108,1 19,1 L 3,1 z m 0,1.03125 16,0 c 0.5497,0 0.96875,0.4190495 0.96875,0.96875 l 0,16 c 0,0.5497 -0.41905,0.96875 -0.96875,0.96875 l -16,0 C 2.4502995,19.96875 2.03125,19.5497 2.03125,19 l 0,-16 C 2.03125,2.4502995 2.4502995,2.03125 3,2.03125 z"
       id="rect3050"
       inkscape:connector-curvature="0" />
    <path
       id="path3235"
       d="M 3,21 C 1.892,21 1,20.108 1,19 l 0,-1 c 0,1.108 0.892,2 2,2 l 16,0 c 1.108,0 2,-0.892 2,-2 l 0,1 c 0,1.108 -0.892,2 -2,2 L 3,21 z"
       style="opacity:0.3;fill:url(#linearGradient3845);fill-opacity:1;fill-rule:evenodd;stroke:none;display:inline"
       inkscape:connector-curvature="0" />
  </g>
  <g
     inkscape:groupmode="layer"
     id="layer2"
     inkscape:label="Highlight"
     sodipodi:insensitive="true">
    <rect
       style="opacity:0.15;fill:#ffffff;fill-opacity:1;fill-rule:nonzero;stroke:none;display:inline;filter:url(#filter3194)"
       id="rect2410"
       width="16"
       height="16"
       x="3"
       y="3"
       rx="2"
       ry="2"
       clip-path="url(#clipPath2849)" />
  </g>
  <g
     inkscape:groupmode="layer"
     id="layer3"
     inkscape:label="Symbol"
     sodipodi:insensitive="true">
    <path
       sodipodi:nodetypes="cscccccssssssssscccccssssssssssssssssssssscccsccssssccscccssc"
       id="path2904"
       d="M 7.663368,47.968437 C 7.471211,47.949984 7.376645,47.918343 7.307766,47.849447 7.215709,47.757367 7.213397,47.729147 7.185427,46.356086 L 7.156917,44.956581 6.929489,44.052152 6.702059,43.147724 5.446366,45.356212 C 4.755735,46.570883 4.123182,47.63569 4.040695,47.722452 3.831301,47.942696 3.709595,47.932823 3.348571,47.666312 3.039425,47.438095 2.970105,47.324568 3.010417,47.112506 3.046741,46.921431 3.015213,46.979504 4.488422,44.390164 5.218537,43.106898 5.823679,42.016284 5.83318,41.966575 5.847964,41.889242 5.785527,41.841525 5.400585,41.635962 4.95607,41.398587 4.949983,41.396765 4.889597,41.482978 4.78234,41.63611 4.62857,41.591545 4.328456,41.320349 3.916618,40.948198 3.902347,41.008083 4.810243,39.298642 5.221891,38.523568 5.604111,37.842091 5.659621,37.78425 l 0.100926,-0.105167 1.803317,-0.0122 1.803318,-0.01221 -0.061557,-0.198127 c -0.143393,-0.46153 0.00231,-1.027186 0.35112,-1.363169 0.591888,-0.570116 1.542783,-0.380776 1.915748,0.381459 0.140584,0.287312 0.154154,0.74789 0.03165,1.07413 -0.184496,0.491333 -0.614267,0.789572 -1.137795,0.789572 -0.275675,0 -0.289394,0.0046 -0.27067,0.09094 0.01085,0.05002 0.07945,1.141547 0.152461,2.425626 0.09991,1.757408 0.121833,2.376021 0.08864,2.501848 -0.02425,0.09194 -0.03784,0.177122 -0.0302,0.189298 0.0076,0.01218 0.271244,0.15465 0.58578,0.316607 0.367985,0.189476 0.583068,0.278599 0.603253,0.249966 0.323932,-0.459535 0.920564,-1.157543 1.036418,-1.21252 0.120694,-0.05727 0.316001,-0.06806 1.230829,-0.06801 0.951886,5.7e-5 1.105412,0.0092 1.232167,0.07362 0.106977,0.05434 0.637477,0.710351 2.031103,2.511649 1.037471,1.340952 1.880689,2.467282 1.87382,2.502954 -0.01116,0.05794 -0.562937,0.066 -5.175572,0.07554 -4.667796,0.0097 -5.163084,0.0043 -5.163084,-0.05535 0,-0.03632 0.560778,-0.784934 1.246174,-1.663591 0.685395,-0.878656 1.239094,-1.603522 1.230443,-1.610814 -0.0087,-0.0073 -0.686003,-0.367026 -1.505228,-0.799411 -1.33253,-0.703306 -1.60473,-0.823981 -1.601437,-0.709966 5.22e-4,0.01808 0.103221,0.458299 0.228219,0.978266 l 0.227268,0.945395 0.00462,1.377305 c 0.00447,1.332314 0.00182,1.380102 -0.080985,1.462911 -0.091016,0.09102 -0.213753,0.09884 -0.747007,0.04764 z m 1.629309,-6.072104 c -0.030545,-0.584246 -0.067153,-1.105858 -0.08135,-1.159139 -0.020034,-0.07519 -0.11429,0.103748 -0.421022,0.799263 -0.217366,0.492875 -0.401445,0.908326 -0.409064,0.923224 -0.014753,0.02885 0.920005,0.53215 0.949532,0.511256 0.00959,-0.0068 -0.00755,-0.490359 -0.038096,-1.074604 z M 6.587225,40.212631 c 0.259019,-0.583672 0.483726,-1.095012 0.499348,-1.136312 0.026333,-0.06962 -0.00455,-0.07422 -0.423965,-0.0631 l -0.452367,0.01199 -0.477809,0.901275 c -0.262796,0.495702 -0.469217,0.909869 -0.458715,0.920371 0.026793,0.02679 0.795858,0.426173 0.82153,0.426625 0.011568,2.04e-4 0.232959,-0.477179 0.491978,-1.06085 z"
       style="fill:#ffe680;fill-opacity:1;display:inline;filter:url(#filter3693)"
       clip-path="url(#clipPath2909)"
       transform="translate(0,-30)" />
    <path
       style="fill:#403407;fill-opacity:1;display:inline"
       d="M 7.663368,17.968437 C 7.471211,17.949984 7.376645,17.918343 7.307766,17.849447 7.215709,17.757367 7.213397,17.729147 7.185427,16.356086 L 7.156917,14.956581 6.929489,14.052152 6.702059,13.147724 5.446366,15.356212 C 4.755735,16.570883 4.123182,17.63569 4.040695,17.722452 3.831301,17.942696 3.709595,17.932823 3.348571,17.666312 3.039425,17.438095 2.970105,17.324568 3.010417,17.112506 3.046741,16.921431 3.015213,16.979504 4.488422,14.390164 5.218537,13.106898 5.823679,12.016284 5.83318,11.966575 5.847964,11.889242 5.785527,11.841525 5.400585,11.635962 4.95607,11.398587 4.949983,11.396765 4.889597,11.482978 4.78234,11.63611 4.62857,11.591545 4.328456,11.320349 3.916618,10.948198 3.902347,11.008083 4.810243,9.2986422 5.221891,8.5235677 5.604111,7.8420908 5.659621,7.7842495 L 5.760547,7.6790832 7.563864,7.6668777 9.367182,7.6546721 9.305625,7.4565454 C 9.162232,6.9950148 9.307932,6.4293593 9.656745,6.0933756 10.248633,5.5232601 11.199528,5.7126 11.572493,6.4748347 c 0.140584,0.2873127 0.154154,0.74789 0.03165,1.0741306 -0.184496,0.491333 -0.614267,0.7895715 -1.137795,0.7895715 -0.275675,0 -0.289394,0.00461 -0.27067,0.090938 0.01085,0.050016 0.07945,1.1415476 0.152461,2.4256262 0.09991,1.757408 0.121833,2.376021 0.08864,2.501848 -0.02425,0.09194 -0.03784,0.177122 -0.0302,0.189298 0.0076,0.01218 0.271244,0.15465 0.58578,0.316607 0.367985,0.189476 0.583068,0.278599 0.603253,0.249966 0.323932,-0.459535 0.920564,-1.157543 1.036418,-1.21252 0.120694,-0.05727 0.316001,-0.06806 1.230829,-0.06801 0.951886,5.7e-5 1.105412,0.0092 1.232167,0.07362 0.106977,0.05434 0.637477,0.710351 2.031103,2.511649 1.037471,1.340952 1.880689,2.467282 1.87382,2.502954 -0.01116,0.05794 -0.562937,0.066 -5.175572,0.07554 -4.667796,0.0097 -5.163084,0.0043 -5.163084,-0.05535 0,-0.03632 0.560778,-0.784934 1.246174,-1.663591 0.685395,-0.878656 1.239094,-1.603522 1.230443,-1.610814 -0.0087,-0.0073 -0.686003,-0.367026 -1.505228,-0.799411 -1.33253,-0.703306 -1.60473,-0.823981 -1.601437,-0.709966 5.22e-4,0.01808 0.103221,0.458299 0.228219,0.978266 l 0.227268,0.945395 0.00462,1.377305 c 0.00447,1.332314 0.00182,1.380102 -0.080985,1.462911 -0.091016,0.09102 -0.213753,0.09884 -0.747007,0.04764 z m 1.629309,-6.072104 c -0.030545,-0.584246 -0.067153,-1.105858 -0.08135,-1.159139 -0.020034,-0.07519 -0.11429,0.103748 -0.421022,0.799263 -0.217366,0.492875 -0.401445,0.908326 -0.409064,0.923224 -0.014753,0.02885 0.920005,0.53215 0.949532,0.511256 0.00959,-0.0068 -0.00755,-0.490359 -0.038096,-1.074604 z M 6.587225,10.212631 C 6.846244,9.6289589 7.070951,9.1176187 7.086573,9.0763187 7.112906,9.0066989 7.082018,9.0021014 6.662608,9.0132191 L 6.210241,9.0252102 5.732432,9.9264854 C 5.469636,10.422187 5.263215,10.836354 5.273717,10.846856 c 0.026793,0.02679 0.795858,0.426173 0.82153,0.426625 0.011568,2.04e-4 0.232959,-0.477179 0.491978,-1.06085 z"
       id="path4617"
       sodipodi:nodetypes="cscccccssssssssscccccssssssssssssssssssssscccsccssssccscccssc" />
    <path
       style="fill:#1a1a1a;fill-opacity:1;display:inline"
       d="m 10.4375,5.75 c -0.27352,0.010035 -0.559292,0.1299567 -0.78125,0.34375 -0.2910678,0.2803648 -0.4167523,0.7187375 -0.375,1.125 0.062103,-0.2411032 0.200595,-0.4570082 0.375,-0.625 0.591888,-0.5701155 1.533285,-0.3872347 1.90625,0.375 0.03515,0.071828 0.07462,0.16132 0.09375,0.25 0.02806,-0.2638415 0.004,-0.5502826 -0.09375,-0.75 C 11.329397,5.9923533 10.893367,5.7332756 10.4375,5.75 z M 7.5625,7.65625 5.75,7.6875 5.65625,7.78125 C 5.60074,7.8390913 5.224148,8.5374255 4.8125,9.3125 4.1014487,10.65131 3.9567865,10.899215 4.125,11.125 4.2219117,10.867616 4.4364484,10.520552 4.8125,9.8125 5.224148,9.0374255 5.60074,8.3390913 5.65625,8.28125 L 5.75,8.1875 7.5625,8.15625 l 1.8125,0 -0.0625,-0.1875 C 9.282465,7.872078 9.2554581,7.7589911 9.25,7.65625 l -1.6875,0 z m 2.65625,1.1875 C 10.1832,8.855693 10.17814,8.894336 10.1875,8.9375 c 0.01085,0.050016 0.08324,1.122171 0.15625,2.40625 0.04996,0.878704 0.07993,1.484942 0.09375,1.875 0.01975,-0.20776 -0.0038,-0.793333 -0.09375,-2.375 -0.06067,-1.0671184 -0.101031,-1.6860899 -0.125,-2 z M 6.90625,9.5 c -0.092498,0.2113618 -0.1513503,0.3556162 -0.3125,0.71875 -0.259019,0.583671 -0.488432,1.062704 -0.5,1.0625 -0.019843,-3.49e-4 -0.4029497,-0.223005 -0.625,-0.34375 -0.066966,0.135917 -0.1921687,0.401581 -0.1875,0.40625 0.026793,0.02679 0.786828,0.437048 0.8125,0.4375 0.011568,2.04e-4 0.240981,-0.478829 0.5,-1.0625 C 6.852769,10.135078 7.078128,9.6038 7.09375,9.5625 7.1113053,9.5160868 7.037721,9.5032251 6.90625,9.5 z m -1.25,2.78125 C 5.5185006,12.550312 5.1336174,13.26134 4.5,14.375 3.026791,16.96434 3.036324,16.933925 3,17.125 2.9776044,17.242812 3.0261474,17.312701 3.09375,17.40625 3.1897521,17.194656 3.4687537,16.687538 4.5,14.875 5.230115,13.591734 5.834249,12.518459 5.84375,12.46875 5.85352,12.41766 5.784603,12.360535 5.65625,12.28125 z M 8.5625,12.5625 c -0.058964,0.132951 -0.1841645,0.399728 -0.1875,0.40625 -0.014753,0.02885 0.939223,0.520894 0.96875,0.5 C 9.34854,13.46535 9.319404,13.13227 9.3125,12.9375 9.238143,12.92357 8.779244,12.696617 8.5625,12.5625 z m 4.375,0.28125 c -0.178267,0.0099 -0.252153,0.03387 -0.3125,0.0625 -0.115854,0.05498 -0.707318,0.759215 -1.03125,1.21875 -0.02018,0.02863 -0.225765,-0.06052 -0.59375,-0.25 -0.294959,-0.151877 -0.526229,-0.286271 -0.5625,-0.3125 -0.0016,0.08556 0.0075,0.252939 0,0.28125 -0.02425,0.09194 -0.03889,0.175324 -0.03125,0.1875 0.0076,0.01218 0.279214,0.181793 0.59375,0.34375 0.367985,0.189476 0.573565,0.278633 0.59375,0.25 0.323932,-0.459535 0.915396,-1.163773 1.03125,-1.21875 0.120694,-0.05727 0.335172,-0.06255 1.25,-0.0625 0.951886,5.7e-5 1.091995,-0.0019 1.21875,0.0625 0.106977,0.05434 0.637624,0.698702 2.03125,2.5 0.859026,1.110308 1.342121,1.743768 1.5625,2.0625 0.202788,-0.0098 0.309103,-0.04487 0.3125,-0.0625 0.0069,-0.03567 -0.837529,-1.159048 -1.875,-2.5 -1.393626,-1.801298 -1.924273,-2.44566 -2.03125,-2.5 -0.126755,-0.06442 -0.266864,-0.06244 -1.21875,-0.0625 -0.457414,-2.5e-5 -0.759233,-0.0099 -0.9375,0 z M 8.09375,13.625 C 8.047873,13.6187 8.030427,13.6277 8.03125,13.65625 8.031772,13.67433 8.125002,14.105033 8.25,14.625 l 0.25,0.96875 0,-0.5 L 8.25,14.125 C 8.189852,13.874798 8.197172,13.831374 8.15625,13.65625 8.140099,13.65175 8.10569,13.62663 8.09375,13.625 z m 2.75,1.40625 c -0.175355,0.237274 -0.410273,0.574111 -0.9375,1.25 -0.685396,0.878657 -1.25,1.61993 -1.25,1.65625 0,0.01897 0.1252571,0.02199 0.34375,0.03125 0.2015236,-0.280524 0.4128395,-0.554963 0.90625,-1.1875 0.685395,-0.878656 1.227401,-1.617708 1.21875,-1.625 -0.0016,-0.0013 -0.238711,-0.102097 -0.28125,-0.125 z"
       id="path2891" />
  </g>
</svg>
