<?xml version="1.0" encoding="UTF-8" standalone="no"?>
<!-- Created with Inkscape (http://www.inkscape.org/) -->

<svg
   xmlns:dc="http://purl.org/dc/elements/1.1/"
   xmlns:cc="http://creativecommons.org/ns#"
   xmlns:rdf="http://www.w3.org/1999/02/22-rdf-syntax-ns#"
   xmlns:svg="http://www.w3.org/2000/svg"
   xmlns="http://www.w3.org/2000/svg"
   xmlns:xlink="http://www.w3.org/1999/xlink"
   xmlns:sodipodi="http://sodipodi.sourceforge.net/DTD/sodipodi-0.dtd"
   xmlns:inkscape="http://www.inkscape.org/namespaces/inkscape"
   width="22"
   height="22"
   id="svg2"
   sodipodi:version="0.32"
   inkscape:version="0.48.0 r9654"
   version="1.0"
   sodipodi:docname="accessories-text-editor.svg"
   inkscape:output_extension="org.inkscape.output.svg.inkscape"
   style="display:inline">
  <sodipodi:namedview
     id="base"
     pagecolor="#ffffff"
     bordercolor="#e7e7e7"
     borderopacity="1"
     inkscape:pageopacity="0.0"
     inkscape:pageshadow="2"
     inkscape:zoom="24.411791"
     inkscape:cx="-4.4765906"
     inkscape:cy="14.677741"
     inkscape:document-units="px"
     inkscape:current-layer="layer1"
     showgrid="true"
     inkscape:showpageshadow="false"
     showguides="false"
     inkscape:guide-bbox="true"
     inkscape:window-width="1920"
     inkscape:window-height="1026"
     inkscape:window-x="0"
     inkscape:window-y="25"
     inkscape:window-maximized="1">
    <sodipodi:guide
       id="guide2383"
       position="0,112"
       orientation="1,0" />
    <sodipodi:guide
       id="guide2385"
       position="26.278146,128"
       orientation="0,1" />
    <sodipodi:guide
       id="guide2387"
       position="128,54.082119"
       orientation="1,0" />
    <sodipodi:guide
       id="guide2389"
       position="78.156291,0"
       orientation="0,1" />
    <sodipodi:guide
       id="guide2391"
       position="60.863576,64.084768"
       orientation="0,1" />
    <inkscape:grid
       enabled="true"
       visible="true"
       id="grid3672"
       type="xygrid" />
  </sodipodi:namedview>
  <defs
     id="defs4">
    <linearGradient
       inkscape:collect="always"
       id="linearGradient5677">
      <stop
         style="stop-color:#000000;stop-opacity:1;"
         offset="0"
         id="stop5679" />
      <stop
         style="stop-color:#000000;stop-opacity:0;"
         offset="1"
         id="stop5681" />
    </linearGradient>
    <linearGradient
       id="linearGradient3394">
      <stop
         id="stop3396"
         offset="0"
         style="stop-color:#000000;stop-opacity:1;" />
      <stop
         style="stop-color:#7d7d7d;stop-opacity:1;"
         offset="0.5"
         id="stop3402" />
      <stop
         id="stop3398"
         offset="1"
         style="stop-color:#000000;stop-opacity:1;" />
    </linearGradient>
    <linearGradient
       y2="4.9218718"
       x2="144.81251"
       y1="4.9218718"
       x1="141.25001"
       gradientTransform="matrix(-0.4847146,6.6435722e-4,-9.3272275e-4,0.3460448,74.817389,1.07144)"
       gradientUnits="userSpaceOnUse"
       id="linearGradient6444"
       xlink:href="#linearGradient3394"
       inkscape:collect="always" />
    <linearGradient
       id="linearGradient3401">
      <stop
         id="stop3403"
         offset="0"
         style="stop-color:#292929;stop-opacity:1;" />
      <stop
         style="stop-color:#595959;stop-opacity:1;"
         offset="0.2"
         id="stop3447" />
      <stop
         style="stop-color:#efefef;stop-opacity:1;"
         offset="0.69999999"
         id="stop3410" />
      <stop
         id="stop3405"
         offset="1"
         style="stop-color:#7f7f7f;stop-opacity:1;" />
    </linearGradient>
    <linearGradient
       y2="106"
       x2="150"
       y1="106"
       x1="136"
       gradientTransform="matrix(0.2277251,0,0,0.1578953,-38.092109,-1.2314571)"
       gradientUnits="userSpaceOnUse"
       id="linearGradient6454"
       xlink:href="#linearGradient3401"
       inkscape:collect="always" />
    <linearGradient
       id="linearGradient3308">
      <stop
         id="stop3310"
         offset="0"
         style="stop-color:#ba6920;stop-opacity:1;" />
      <stop
         id="stop3312"
         offset="1"
         style="stop-color:#ffffff;stop-opacity:1;" />
    </linearGradient>
    <linearGradient
       y2="17.043355"
       x2="148.99514"
       y1="17.043355"
       x1="136.98804"
       gradientTransform="matrix(-0.2513097,2.8432668e-4,-4.8358822e-4,0.1480977,41.460964,1.5710995)"
       gradientUnits="userSpaceOnUse"
       id="linearGradient6441"
       xlink:href="#linearGradient3308"
       inkscape:collect="always" />
    <linearGradient
       id="linearGradient3278">
      <stop
         id="stop3280"
         offset="0"
         style="stop-color:#944500;stop-opacity:1;" />
      <stop
         style="stop-color:#e2700a;stop-opacity:1;"
         offset="0.30000001"
         id="stop3290" />
      <stop
         style="stop-color:#ff9e14;stop-opacity:1;"
         offset="0.34999999"
         id="stop3286" />
      <stop
         id="stop3288"
         offset="0.64999998"
         style="stop-color:#f38f00;stop-opacity:1;" />
      <stop
         style="stop-color:#ffba14;stop-opacity:1;"
         offset="0.69999999"
         id="stop3292" />
      <stop
         id="stop3282"
         offset="1"
         style="stop-color:#ffe094;stop-opacity:1;" />
    </linearGradient>
    <linearGradient
       y2="60.000001"
       x2="150"
       y1="60.000001"
       x1="136"
       gradientTransform="matrix(-0.2283359,2.619013e-4,-4.3938035e-4,0.1364169,38.178616,1.87361)"
       gradientUnits="userSpaceOnUse"
       id="linearGradient6447"
       xlink:href="#linearGradient3278"
       inkscape:collect="always" />
    <linearGradient
       id="linearGradient3485">
      <stop
         id="stop3487"
         offset="0"
         style="stop-color:#e2433d;stop-opacity:1;" />
      <stop
         id="stop3489"
         offset="1"
         style="stop-color:#f08682;stop-opacity:1;" />
    </linearGradient>
    <linearGradient
       y2="115.49392"
       x2="149.52968"
       y1="115.49392"
       x1="136.41356"
       gradientTransform="matrix(0.2380374,0,0,0.1530025,-39.570418,0.1101614)"
       gradientUnits="userSpaceOnUse"
       id="linearGradient6450"
       xlink:href="#linearGradient3485"
       inkscape:collect="always" />
    <inkscape:perspective
       id="perspective2531"
       inkscape:persp3d-origin="11 : 7.3333333 : 1"
       inkscape:vp_z="22 : 11 : 1"
       inkscape:vp_y="0 : 1000 : 0"
       inkscape:vp_x="0 : 11 : 1"
       sodipodi:type="inkscape:persp3d" />
    <linearGradient
       gradientUnits="userSpaceOnUse"
       y2="0.49362123"
       x2="9.3550024"
       y1="21.742682"
       x1="9.3550024"
       gradientTransform="scale(0.9883037,1.0118347)"
       id="ButtonShadow">
      <stop
         style="stop-color:#000000;stop-opacity:0.70588237;"
         offset="0"
         id="stop3277" />
      <stop
         style="stop-color:#000000;stop-opacity:0.15686275;"
         offset="1"
         id="stop3279" />
    </linearGradient>
    <linearGradient
       id="linearGradient3232"
       inkscape:collect="always">
      <stop
         id="stop3234"
         offset="0"
         style="stop-color:#000000;stop-opacity:1;" />
      <stop
         id="stop3236"
         offset="1"
         style="stop-color:#000000;stop-opacity:0;" />
    </linearGradient>
    <linearGradient
       inkscape:collect="always"
       xlink:href="#linearGradient3232"
       id="linearGradient3221"
       x1="11"
       y1="14.805666"
       x2="11"
       y2="-6.0004225"
       gradientUnits="userSpaceOnUse" />
    <linearGradient
       gradientUnits="userSpaceOnUse"
       y2="0.99929649"
       x2="10.31979"
       y1="21"
       x1="10.31979"
       id="ButtonColor">
      <stop
         id="stop3189"
         offset="0"
         style="stop-color:#dcdcdc;stop-opacity:1;" />
      <stop
         id="stop3191"
         offset="1"
         style="stop-color:#f6f6f6;stop-opacity:1;" />
    </linearGradient>
    <linearGradient
       inkscape:collect="always"
       xlink:href="#linearGradient3485"
       id="linearGradient4859"
       gradientUnits="userSpaceOnUse"
       gradientTransform="matrix(0.2380374,0,0,0.1530025,-39.570418,0.1101614)"
       x1="136.41356"
       y1="115.49392"
       x2="149.52968"
       y2="115.49392" />
    <linearGradient
       inkscape:collect="always"
       xlink:href="#linearGradient3278"
       id="linearGradient4861"
       gradientUnits="userSpaceOnUse"
       gradientTransform="matrix(-0.2283359,2.619013e-4,-4.3938035e-4,0.1364169,38.178616,1.87361)"
       x1="136"
       y1="60.000001"
       x2="150"
       y2="60.000001" />
    <linearGradient
       inkscape:collect="always"
       xlink:href="#linearGradient3308"
       id="linearGradient4863"
       gradientUnits="userSpaceOnUse"
       gradientTransform="matrix(-0.2513097,2.8432668e-4,-4.8358822e-4,0.1480977,41.460964,1.5710995)"
       x1="136.98804"
       y1="17.043355"
       x2="148.99514"
       y2="17.043355" />
    <linearGradient
       inkscape:collect="always"
       xlink:href="#linearGradient3401"
       id="linearGradient4865"
       gradientUnits="userSpaceOnUse"
       gradientTransform="matrix(0.2277251,0,0,0.1578953,-38.092109,-1.2314571)"
       x1="136"
       y1="106"
       x2="150"
       y2="106" />
    <linearGradient
       inkscape:collect="always"
       xlink:href="#linearGradient3394"
       id="linearGradient4867"
       gradientUnits="userSpaceOnUse"
       gradientTransform="matrix(-0.4847146,6.6435722e-4,-9.3272275e-4,0.3460448,74.817389,1.07144)"
       x1="141.25001"
       y1="4.9218718"
       x2="144.81251"
       y2="4.9218718" />
    <linearGradient
       inkscape:collect="always"
       xlink:href="#linearGradient3394"
       id="linearGradient4870"
       gradientUnits="userSpaceOnUse"
       gradientTransform="matrix(-0.2968636,-0.3831718,0.2726887,-0.2130463,50.138911,74.487845)"
       x1="141.25001"
       y1="4.9218718"
       x2="144.81251"
       y2="4.9218718" />
    <linearGradient
       inkscape:collect="always"
       xlink:href="#linearGradient3401"
       id="linearGradient4873"
       gradientUnits="userSpaceOnUse"
       gradientTransform="matrix(0.2277251,0,0,0.1578953,-52.837493,-8.3908576)"
       x1="136"
       y1="106"
       x2="150"
       y2="106" />
    <linearGradient
       inkscape:collect="always"
       xlink:href="#linearGradient3308"
       id="linearGradient4876"
       gradientUnits="userSpaceOnUse"
       gradientTransform="matrix(-0.1539622,-0.198626,0.1166515,-9.1244642e-2,30.068223,47.840743)"
       x1="136.98804"
       y1="17.043355"
       x2="148.99514"
       y2="17.043355" />
    <linearGradient
       inkscape:collect="always"
       xlink:href="#linearGradient3278"
       id="linearGradient4879"
       gradientUnits="userSpaceOnUse"
       gradientTransform="matrix(-0.1398847,-0.1804705,0.1074547,-8.4043181e-2,28.293279,45.063173)"
       x1="136"
       y1="60.000001"
       x2="150"
       y2="60.000001" />
    <linearGradient
       inkscape:collect="always"
       xlink:href="#linearGradient3485"
       id="linearGradient4882"
       gradientUnits="userSpaceOnUse"
       gradientTransform="matrix(-0.1458116,-0.1881509,0.1205398,-9.4233291e-2,27.715871,47.273845)"
       x1="136.41356"
       y1="115.49392"
       x2="149.52968"
       y2="115.49392" />
    <linearGradient
       inkscape:collect="always"
       xlink:href="#linearGradient3232"
       id="linearGradient4885"
       gradientUnits="userSpaceOnUse"
       gradientTransform="matrix(-0.1071955,-0.2125345,0.1363175,-6.9478665e-2,22.204852,50.198061)"
       x1="143.05882"
       y1="12.081187"
       x2="143.4556"
       y2="108.19236" />
    <linearGradient
       inkscape:collect="always"
       xlink:href="#linearGradient3232"
       id="linearGradient4889"
       gradientUnits="userSpaceOnUse"
       gradientTransform="matrix(-0.208543,-0.1147677,7.3201392e-2,-0.1343551,37.4622,36.996814)"
       x1="143.04747"
       y1="12.101092"
       x2="143.04301"
       y2="118.2906" />
    <linearGradient
       inkscape:collect="always"
       xlink:href="#ButtonColor"
       id="linearGradient6834"
       gradientUnits="userSpaceOnUse"
       x1="10.31979"
       y1="21"
       x2="10.31979"
       y2="0.99929649" />
    <linearGradient
       inkscape:collect="always"
       xlink:href="#ButtonShadow"
       id="linearGradient6847"
       gradientUnits="userSpaceOnUse"
       gradientTransform="scale(0.9883037,1.0118347)"
       x1="9.3550024"
       y1="21.742682"
       x2="9.3550024"
       y2="0.49362123" />
    <linearGradient
       inkscape:collect="always"
       xlink:href="#ButtonColor"
       id="linearGradient6862"
       gradientUnits="userSpaceOnUse"
       x1="10.31979"
       y1="21"
       x2="10.31979"
       y2="0.99929649" />
    <linearGradient
       inkscape:collect="always"
       xlink:href="#ButtonColor"
       id="linearGradient6865"
       gradientUnits="userSpaceOnUse"
       x1="10.31979"
       y1="21"
       x2="10.31979"
       y2="0.99929649" />
    <linearGradient
       inkscape:collect="always"
       xlink:href="#ButtonColor"
       id="linearGradient6877"
       gradientUnits="userSpaceOnUse"
       x1="10.31979"
       y1="21"
       x2="10.31979"
       y2="0.99929649" />
    <linearGradient
       inkscape:collect="always"
       xlink:href="#ButtonColor"
       id="linearGradient6880"
       gradientUnits="userSpaceOnUse"
       x1="10.31979"
       y1="21"
       x2="10.31979"
       y2="0.99929649" />
    <linearGradient
       inkscape:collect="always"
       xlink:href="#ButtonShadow"
       id="linearGradient6887"
       gradientUnits="userSpaceOnUse"
       gradientTransform="scale(0.9883037,1.0118347)"
       x1="9.3550024"
       y1="21.742682"
       x2="9.3550024"
       y2="0.49362123" />
    <linearGradient
       inkscape:collect="always"
       xlink:href="#ButtonShadow"
       id="linearGradient6890"
       gradientUnits="userSpaceOnUse"
       gradientTransform="scale(0.9883037,1.0118347)"
       x1="9.3550024"
       y1="21.742682"
       x2="9.3550024"
       y2="0.49362123" />
    <linearGradient
       inkscape:collect="always"
       xlink:href="#ButtonShadow"
       id="linearGradient6895"
       gradientUnits="userSpaceOnUse"
       gradientTransform="scale(0.9883037,1.0118347)"
       x1="9.3550024"
       y1="21.742682"
       x2="9.3550024"
       y2="0.49362123" />
    <linearGradient
       inkscape:collect="always"
       xlink:href="#ButtonColor"
       id="linearGradient6909"
       gradientUnits="userSpaceOnUse"
       x1="10.31979"
       y1="21"
       x2="10.31979"
       y2="0.99929649" />
    <linearGradient
       inkscape:collect="always"
       xlink:href="#ButtonColor"
       id="linearGradient6914"
       gradientUnits="userSpaceOnUse"
       x1="10.31979"
       y1="21"
       x2="10.31979"
       y2="0.99929649" />
    <linearGradient
       inkscape:collect="always"
       xlink:href="#ButtonColor"
       id="linearGradient6917"
       gradientUnits="userSpaceOnUse"
       x1="21"
       y1="10.708481"
       x2="0.93624264"
       y2="10.708481"
       gradientTransform="matrix(0,1,-1,0,22,0)" />
    <linearGradient
       inkscape:collect="always"
       xlink:href="#ButtonColor"
       id="linearGradient6922"
       gradientUnits="userSpaceOnUse"
       x1="10.31979"
       y1="21"
       x2="10.31979"
       y2="0.99929649" />
    <linearGradient
       inkscape:collect="always"
       xlink:href="#ButtonColor"
       id="linearGradient6927"
       gradientUnits="userSpaceOnUse"
       x1="10.31979"
       y1="21"
       x2="10.31979"
       y2="0.99929649" />
    <linearGradient
       inkscape:collect="always"
       xlink:href="#linearGradient5677"
       id="linearGradient2483"
       gradientUnits="userSpaceOnUse"
       x1="11"
       y1="22"
       x2="11"
       y2="-15.020253" />
    <linearGradient
       inkscape:collect="always"
       xlink:href="#ButtonColor"
       id="linearGradient2489"
       gradientUnits="userSpaceOnUse"
       gradientTransform="matrix(0,1,-1,0,2,0)"
       x1="21"
       y1="10.708481"
       x2="0.93624264"
       y2="10.708481" />
    <linearGradient
       inkscape:collect="always"
       xlink:href="#ButtonColor"
       id="linearGradient2493"
       gradientUnits="userSpaceOnUse"
       gradientTransform="matrix(0,-1,-1,0,2,22)"
       x1="21"
       y1="10.708481"
       x2="0.93624264"
       y2="10.708481" />
    <linearGradient
       inkscape:collect="always"
       xlink:href="#ButtonColor"
       id="linearGradient2498"
       gradientUnits="userSpaceOnUse"
       gradientTransform="matrix(0,1,-1,0,2,0)"
       x1="21"
       y1="10.708481"
       x2="0.93624264"
       y2="10.708481" />
    <linearGradient
       inkscape:collect="always"
       xlink:href="#linearGradient5677"
       id="linearGradient2527"
       gradientUnits="userSpaceOnUse"
       x1="11"
       y1="22"
       x2="11"
       y2="-15.020253"
       gradientTransform="translate(-20,0)" />
    <linearGradient
       inkscape:collect="always"
       xlink:href="#linearGradient5677"
       id="linearGradient2531"
       gradientUnits="userSpaceOnUse"
       gradientTransform="matrix(1,0,0,-1,-20,22.5)"
       x1="11"
       y1="22"
       x2="11"
       y2="-15.020253" />
    <linearGradient
       inkscape:collect="always"
       xlink:href="#linearGradient5677"
       id="linearGradient2534"
       gradientUnits="userSpaceOnUse"
       x1="11"
       y1="22"
       x2="11"
       y2="-15.020253" />
    <linearGradient
       inkscape:collect="always"
       xlink:href="#linearGradient3831"
       id="linearGradient3845"
       x1="11"
       y1="19.5"
       x2="21"
       y2="19.5"
       gradientUnits="userSpaceOnUse"
       spreadMethod="reflect"
       gradientTransform="translate(-29,-1)" />
    <linearGradient
       id="linearGradient3831">
      <stop
         style="stop-color:#ffffff;stop-opacity:1;"
         offset="0"
         id="stop3833" />
      <stop
         id="stop3821"
         offset="0.75"
         style="stop-color:#ffffff;stop-opacity:0.49803922;" />
      <stop
         style="stop-color:#ffffff;stop-opacity:0;"
         offset="1"
         id="stop3835" />
    </linearGradient>
    <linearGradient
       y2="16"
       x2="10"
       y1="1"
       x1="10"
       gradientUnits="userSpaceOnUse"
       id="linearGradient3078"
       xlink:href="#linearGradient3823"
       inkscape:collect="always"
       gradientTransform="translate(1,-1)" />
    <linearGradient
       id="linearGradient3823">
      <stop
         id="stop3825"
         offset="0"
         style="stop-color:#ffffff;stop-opacity:1;" />
      <stop
         id="stop3829"
         offset="1"
         style="stop-color:#ffffff;stop-opacity:0;" />
    </linearGradient>
    <linearGradient
       y2="16"
       x2="10"
       y1="1"
       x1="10"
       gradientTransform="translate(-29,-1)"
       gradientUnits="userSpaceOnUse"
       id="linearGradient3888"
       xlink:href="#linearGradient3823"
       inkscape:collect="always" />
    <linearGradient
       inkscape:collect="always"
       xlink:href="#linearGradient3831"
       id="linearGradient3305"
       gradientUnits="userSpaceOnUse"
       spreadMethod="reflect"
       x1="11"
       y1="19.5"
       x2="21"
       y2="19.5" />
    <linearGradient
       inkscape:collect="always"
       xlink:href="#linearGradient3831"
       id="linearGradient4088"
       x1="6"
       y1="1"
       x2="6"
       y2="15"
       gradientUnits="userSpaceOnUse" />
  </defs>
  <metadata
     id="metadata7">
    <rdf:RDF>
      <cc:Work
         rdf:about="">
        <dc:format>image/svg+xml</dc:format>
        <dc:type
           rdf:resource="http://purl.org/dc/dcmitype/StillImage" />
      </cc:Work>
    </rdf:RDF>
  </metadata>
  <g
     id="layer1"
     inkscape:groupmode="layer"
     inkscape:label="Button">
    <path
       style="opacity:0.3;fill:url(#linearGradient2534);fill-opacity:1;stroke:none;display:inline"
       d="M 3,0.5 C 1.615,0.5 0.5,1.615 0.5,3 l 0,0.5 0,0.5 0,0.5 0,1.5 0,0.5 0,0.5 0,0.5 0,1.5 0,0.5 0,0.5 0,0.5 0,1.5 0,0.5 0,0.5 0,0.5 0,1.5 0,0.5 0,0.5 0,0.5 0,1.5 0,0.5 0,0.5 0,0.5 C 0.5,20.885 1.615,22 3,22 l 0.5,0 1,0 2,0 1,0 0.5,0 1.5,0 1,0 2,0 1,0 0.5,0 1.5,0 1,0 2,0 0.5,0 c 0.173125,0 0.336963,-0.02931 0.5,-0.0625 0.142742,-0.02906 0.273613,-0.07287 0.40625,-0.125 0.128401,-0.05047 0.258112,-0.117454 0.375,-0.1875 0.122776,-0.07358 0.235949,-0.157098 0.34375,-0.25 0.09364,-0.0807 0.169299,-0.156357 0.25,-0.25 0.01391,-0.01615 0.049,-0.01475 0.0625,-0.03125 0.0494,-0.05928 0.08124,-0.123718 0.125,-0.1875 0.03242,-0.04807 0.06467,-0.105861 0.09375,-0.15625 0.05396,-0.09312 0.114605,-0.180859 0.15625,-0.28125 0.01283,-0.03043 0.0196,-0.06272 0.03125,-0.09375 C 21.3855,20.261579 21.41254,20.120752 21.4375,20 21.47133,19.836314 21.5,19.67435 21.5,19.5 l 0,-0.5 0,-0.5 0,-0.5 0,-2 0,-0.5 0,-0.5 0,-1.5 0,-0.5 0,-0.5 0,-0.5 0,-1.5 0,-0.5 0,-0.5 0,-0.5 0,-1.5 0,-0.5 0,-0.5 0,-0.5 0,-1.5 0,-1 0,-0.5 C 21.5,2.8256501 21.471332,2.6636857 21.4375,2.5 21.411055,2.3701115 21.38938,2.2466037 21.34375,2.125 21.332277,2.0938302 21.325175,2.0618037 21.3125,2.03125 21.272222,1.9357052 21.207611,1.8389848 21.15625,1.75 21.124787,1.6957014 21.097876,1.6453185 21.0625,1.59375 21.019455,1.5299297 20.986109,1.4656623 20.9375,1.40625 20.923187,1.3890724 20.889767,1.3917803 20.875,1.375 20.794299,1.2813573 20.718643,1.2057007 20.625,1.125 20.517199,1.0320979 20.404026,0.94857464 20.28125,0.875 20.164362,0.80495412 20.034651,0.73796763 19.90625,0.6875 19.773547,0.63573633 19.642657,0.59154419 19.5,0.5625 19.398415,0.54181798 19.291759,0.54276525 19.1875,0.53125 l 0,1.625 c 8.14e-4,0.082504 0.03457,0.1612611 0.09375,0.21875 0.01959,0.012745 0.04055,0.023228 0.0625,0.03125 C 19.555504,2.5329178 19.6875,2.7527542 19.6875,3 19.6875,3.3847104 19.38471,3.6875 19,3.6875 18.61529,3.6875001 18.3125,3.3847103 18.3125,3 c 0,-0.2472456 0.131996,-0.4670822 0.34375,-0.59375 0.03481,-0.014916 0.06659,-0.036101 0.09375,-0.0625 0.04078,-0.05398 0.06274,-0.1198457 0.0625,-0.1875 l 0,-1.65625 -0.3125,0 -2,0 -0.3125,0 0,1.65625 c 8.14e-4,0.082504 0.03457,0.1612611 0.09375,0.21875 0.01959,0.012745 0.04055,0.023228 0.0625,0.03125 0.03458,0.020688 0.06264,0.064459 0.125,0.125 C 16.604104,2.6626446 16.6875,2.8249746 16.6875,3 16.6875,3.3847101 16.38471,3.6875 16,3.6875 15.61529,3.6874999 15.3125,3.3847103 15.3125,3 c 0,-0.2472458 0.131996,-0.4670823 0.34375,-0.59375 0.03481,-0.014916 0.06659,-0.036101 0.09375,-0.0625 0.04078,-0.05398 0.06274,-0.1198457 0.0625,-0.1875 l 0,-1.65625 -0.3125,0 -1.5,0 -0.5,0 -0.3125,0 0,1.65625 c 8.14e-4,0.082504 0.03457,0.1612611 0.09375,0.21875 0.01959,0.012745 0.04055,0.023228 0.0625,0.03125 0.03458,0.020688 0.06264,0.064459 0.125,0.125 C 13.604104,2.6626446 13.6875,2.8249746 13.6875,3 13.6875,3.3847101 13.38471,3.6875 13,3.6875 12.61529,3.6874999 12.3125,3.3847103 12.3125,3 c 0,-0.2472458 0.131996,-0.4670823 0.34375,-0.59375 0.03481,-0.014916 0.06659,-0.036101 0.09375,-0.0625 0.04078,-0.05398 0.06274,-0.1198457 0.0625,-0.1875 l 0,-1.65625 -0.3125,0 -2,0 -0.3125,0 0,1.65625 c 8.14e-4,0.082504 0.03457,0.1612611 0.09375,0.21875 0.01959,0.012745 0.04055,0.023228 0.0625,0.03125 0.03458,0.020688 0.06264,0.064459 0.125,0.125 C 10.604104,2.6626446 10.6875,2.8249746 10.6875,3 10.6875,3.3847101 10.38471,3.6875 10,3.6875 9.6152897,3.6874999 9.3125,3.3847103 9.3125,3 9.3125,2.7527542 9.4444964,2.5329177 9.65625,2.40625 9.691064,2.391334 9.7228414,2.370149 9.75,2.34375 9.7907842,2.2897702 9.8127395,2.2239043 9.8125,2.15625 L 9.8125,0.5 9.5,0.5 8,0.5 l -0.5,0 -0.3125,0 0,1.65625 c 8.142e-4,0.082504 0.034567,0.1612611 0.09375,0.21875 0.019586,0.012745 0.040553,0.023228 0.0625,0.03125 0.034585,0.020688 0.062635,0.064459 0.125,0.125 C 7.6041038,2.6626446 7.6875,2.8249746 7.6875,3 7.6875,3.3847101 7.3847102,3.6875 7,3.6875 6.6152897,3.6874999 6.3125,3.3847103 6.3125,3 6.3125,2.7527542 6.4444964,2.5329177 6.65625,2.40625 6.691064,2.391334 6.7228414,2.370149 6.75,2.34375 6.790784,2.28977 6.81274,2.2239043 6.8125,2.15625 l 0,-1.65625 -0.3125,0 -2,0 -0.3125,0 0,1.1875 0,0.46875 C 4.1883142,2.238754 4.222067,2.3175111 4.28125,2.375 4.300836,2.387745 4.321803,2.398228 4.34375,2.40625 4.5555037,2.5329178 4.6875,2.7527542 4.6875,3 4.6875,3.3847104 4.3847103,3.6875 4,3.6875 3.6152898,3.6875001 3.3125,3.3847103 3.3125,3 3.3125,2.7527544 3.4444963,2.5329178 3.65625,2.40625 3.691064,2.391334 3.7228414,2.370149 3.75,2.34375 3.790784,2.28977 3.81274,2.2239043 3.8125,2.15625 L 3.8125,0.5 3.5,0.5 3,0.5 z"
       id="rect3271"
       inkscape:connector-curvature="0" />
    <path
       style="opacity:0.5;fill:#000000;fill-opacity:1;stroke:none;display:inline"
       d="M 3.375,1 C 2.055953,1 1,2.0847094 1,3.4375 l 0,0.5 0,0.46875 0,1.96875 0,0.96875 0,1.96875 0,0.96875 0,1.9375 0,1 0,1.9375 0,0.96875 0,1.96875 0,0.96875 0,0.5 C 1,20.91529 2.055952,22 3.375,22 l 0.46875,0 4.3125,0 5.6875,0 4.3125,0 0.46875,0 C 19.944047,22 21,20.91529 21,19.5625 l 0,-0.5 0,-0.96875 0,-1.96875 0,-0.96875 0,-1.9375 0,-1 0,-1.9375 0,-0.96875 0,-1.96875 0,-0.96875 0,-1.96875 0,-0.46875 0,-0.5 C 21,2.3990507 20.385828,1.5093656 19.5,1.15625 l 0,0.5 C 19.792006,1.8309235 20,2.1352229 20,2.5 c 0,0.5520001 -0.448,1 -1,1 -0.552,10e-8 -1,-0.448 -1,-1 0,-0.364777 0.207994,-0.6690765 0.5,-0.84375 L 18.5,1 18.15625,1 16.5,1 l 0,0.65625 C 16.573,1.699918 16.626937,1.753709 16.6875,1.8125 16.869188,1.9888735 17,2.2264172 17,2.5 c 0,0.5519999 -0.448,1 -1,1 -0.552,-10e-8 -1,-0.448 -1,-1 0,-0.3647771 0.207994,-0.6690766 0.5,-0.84375 L 15.5,1 13.84375,1 13.5,1 l 0,0.65625 C 13.573,1.699918 13.626937,1.753709 13.6875,1.8125 13.869188,1.9888735 14,2.2264172 14,2.5 c 0,0.5519999 -0.448,1 -1,1 -0.552,-10e-8 -1,-0.448 -1,-1 0,-0.3647771 0.207994,-0.6690766 0.5,-0.84375 L 12.5,1 l -2,0 0,0.65625 C 10.573,1.699918 10.626937,1.753709 10.6875,1.8125 10.869188,1.9888735 11,2.2264172 11,2.5 c 0,0.5519999 -0.448,1 -1,1 C 9.448,3.4999999 9,3.052 9,2.5 9,2.1352229 9.207994,1.8309234 9.5,1.65625 L 9.5,1 8.15625,1 7.5,1 7.5,1.65625 C 7.573002,1.6999184 7.626937,1.7537088 7.6875,1.8125 7.869188,1.9888735 8,2.2264172 8,2.5 8,3.0519999 7.552,3.5 7,3.5 6.448,3.4999999 6,3.052 6,2.5 6,2.1352229 6.207994,1.8309234 6.5,1.65625 L 6.5,1 l -2,0 0,0.1875 0,0.46875 C 4.792006,1.8309235 5,2.1352229 5,2.5 5,3.0520001 4.552,3.5 4,3.5 3.448,3.5000001 3,3.052 3,2.5 3,2.135223 3.207994,1.8309235 3.5,1.65625 L 3.5,1 3.375,1 z"
       id="path5685"
       inkscape:connector-curvature="0" />
    <path
       style="fill:url(#linearGradient6917);fill-opacity:1;stroke:none;display:inline"
       d="M 21,3 C 21,2.0637731 20.366008,1.28252 19.5,1.0625 l 0,1.09375 C 19.792006,2.3309235 20,2.6352229 20,3 c 0,0.5520001 -0.448,1 -1,1 -0.552,1e-7 -1,-0.448 -1,-1 0,-0.364777 0.207994,-0.6690765 0.5,-0.84375 L 18.5,1 18,1 17.375,1 16.5,1 l 0,1.15625 C 16.573,2.199918 16.626937,2.253709 16.6875,2.3125 16.869188,2.4888735 17,2.7264172 17,3 17,3.5519999 16.552,4 16,4 15.448,3.9999999 15,3.552 15,3 15,2.6352229 15.207994,2.3309234 15.5,2.15625 L 15.5,1 l -2,0 0,1.15625 C 13.573,2.199918 13.626937,2.253709 13.6875,2.3125 13.869188,2.4888735 14,2.7264172 14,3 14,3.5519999 13.552,4 13,4 12.448,3.9999999 12,3.552 12,3 12,2.6352229 12.207994,2.3309234 12.5,2.15625 L 12.5,1 l -2,0 0,1.15625 C 10.573,2.199918 10.626937,2.253709 10.6875,2.3125 10.869188,2.4888735 11,2.7264172 11,3 11,3.5519999 10.552,4 10,4 9.448,3.9999999 9,3.552 9,3 9,2.6352229 9.207994,2.3309234 9.5,2.15625 L 9.5,1 l -2,0 0,1.15625 C 7.573002,2.1999184 7.626937,2.2537088 7.6875,2.3125 7.869188,2.4888735 8,2.7264172 8,3 8,3.5519999 7.552,4 7,4 6.448,3.9999999 6,3.552 6,3 6,2.6352229 6.207994,2.3309234 6.5,2.15625 L 6.5,1 l -2,0 0,0.6875 0,0.46875 C 4.792006,2.3309235 5,2.6352229 5,3 5,3.5520001 4.552,4 4,4 3.448,4.0000001 3,3.552 3,3 3,2.635223 3.207994,2.3309235 3.5,2.15625 L 3.5,1.0625 3.5,1 C 3.434745,1 3.376468,1.0263881 3.3125,1.03125 3.210386,1.0153018 3.106726,1 3,1 1.892,1 1,1.892 1,3 L 1,3.5 1,5 1,9 1,13 1,18.5 1,19 c 0,1.108 0.892,2 2,2 l 0.5,0 15,0 0.5,0 c 1.108,0 2,-0.892 2,-2 L 21,18.5 21,13 21,9 21,5 21,3.5 21,3 z"
       id="rect2479"
       inkscape:connector-curvature="0" />
    <path
       id="path3235"
       d="M 3,21 C 1.892,21 1,20.108 1,19 l 0,-1 c 0,1.108 0.892,2 2,2 l 16,0 c 1.108,0 2,-0.892 2,-2 l 0,1 c 0,1.108 -0.892,2 -2,2 L 3,21 z"
       style="opacity:0.35;fill:url(#linearGradient3305);fill-opacity:1;fill-rule:evenodd;stroke:none;display:inline"
       inkscape:connector-curvature="0" />
    <path
       style="fill:url(#linearGradient4088);fill-opacity:1;stroke:none;display:inline;opacity:0.6"
       d="M 3 1 C 1.892 1 1 1.892 1 3 L 1 3.5 L 1 5 L 1 9 L 1 13 L 1 18.5 L 1 19 C 1 20.108 1.892 21 3 21 L 3.5 21 L 18.5 21 L 19 21 C 20.108 21 21 20.108 21 19 L 21 18.5 L 21 13 L 21 9 L 21 5 L 21 3.5 L 21 3 C 21 2.0637731 20.366008 1.28252 19.5 1.0625 L 19.5 2.15625 C 19.792006 2.3309235 20 2.6352229 20 3 C 20 3.5520001 19.552 4 19 4 C 18.448 4.0000001 18 3.552 18 3 C 18 2.635223 18.207994 2.3309235 18.5 2.15625 L 18.5 1 L 18 1 L 17.375 1 L 16.5 1 L 16.5 2.15625 C 16.573 2.199918 16.626937 2.253709 16.6875 2.3125 C 16.869188 2.4888735 17 2.7264172 17 3 C 17 3.5519999 16.552 4 16 4 C 15.448 3.9999999 15 3.552 15 3 C 15 2.6352229 15.207994 2.3309234 15.5 2.15625 L 15.5 1 L 13.5 1 L 13.5 2.15625 C 13.573 2.199918 13.626937 2.253709 13.6875 2.3125 C 13.869188 2.4888735 14 2.7264172 14 3 C 14 3.5519999 13.552 4 13 4 C 12.448 3.9999999 12 3.552 12 3 C 12 2.6352229 12.207994 2.3309234 12.5 2.15625 L 12.5 1 L 10.5 1 L 10.5 2.15625 C 10.573 2.199918 10.626937 2.253709 10.6875 2.3125 C 10.869188 2.4888735 11 2.7264172 11 3 C 11 3.5519999 10.552 4 10 4 C 9.448 3.9999999 9 3.552 9 3 C 9 2.6352229 9.207994 2.3309234 9.5 2.15625 L 9.5 1 L 7.5 1 L 7.5 2.15625 C 7.573002 2.1999184 7.626937 2.2537088 7.6875 2.3125 C 7.869188 2.4888735 8 2.7264172 8 3 C 8 3.5519999 7.552 4 7 4 C 6.448 3.9999999 6 3.552 6 3 C 6 2.6352229 6.207994 2.3309234 6.5 2.15625 L 6.5 1 L 4.5 1 L 4.5 1.6875 L 4.5 2.15625 C 4.792006 2.3309235 5 2.6352229 5 3 C 5 3.5520001 4.552 4 4 4 C 3.448 4.0000001 3 3.552 3 3 C 3 2.635223 3.207994 2.3309235 3.5 2.15625 L 3.5 1.0625 L 3.5 1 C 3.434745 1 3.376468 1.0263881 3.3125 1.03125 C 3.210386 1.0153018 3.106726 1 3 1 z M 2.15625 2.59375 C 2.1228679 2.7334987 2.03125 2.8489566 2.03125 3 C 2.03125 4.0839555 2.9160443 4.9687502 4 4.96875 C 4.627116 4.96875 5.1349103 4.6511022 5.5 4.1875 C 5.8650897 4.6511021 6.3728841 4.9687499 7 4.96875 C 7.6271161 4.96875 8.1349103 4.6511022 8.5 4.1875 C 8.8650897 4.6511021 9.3728841 4.9687499 10 4.96875 C 10.627116 4.96875 11.13491 4.6511022 11.5 4.1875 C 11.86509 4.6511021 12.372884 4.9687499 13 4.96875 C 13.627116 4.96875 14.13491 4.6511022 14.5 4.1875 C 14.86509 4.6511021 15.372884 4.9687499 16 4.96875 C 16.627116 4.96875 17.13491 4.6511022 17.5 4.1875 C 17.86509 4.6511022 18.372884 4.9687501 19 4.96875 C 19.39662 4.96875 19.719099 4.7682783 20.03125 4.5625 L 20.03125 5 L 20.03125 9 L 20.03125 13 L 20.03125 18.5 L 20.03125 19 C 20.03125 19.580331 19.580331 20.03125 19 20.03125 L 18.5 20.03125 L 3.5 20.03125 L 3 20.03125 C 2.4196689 20.03125 1.96875 19.580331 1.96875 19 L 1.96875 18.5 L 1.96875 13 L 1.96875 9 L 1.96875 5 L 1.96875 3.5 L 1.96875 3 C 1.96875 2.8343888 2.0919561 2.7291329 2.15625 2.59375 z "
       id="path4075" />
  </g>
  <g
     inkscape:groupmode="layer"
     id="layer3"
     inkscape:label="Texte"
     sodipodi:insensitive="true">
    <path
       style="font-size:3px;font-style:normal;font-variant:normal;font-weight:normal;font-stretch:normal;text-align:start;line-height:100%;writing-mode:lr-tb;text-anchor:start;fill:#31407b;fill-opacity:1;stroke:none;font-family:Hurontario;-inkscape-font-specification:Hurontario"
       d="M 4.0898851,4.5669415 C 3.777957,4.8996994 4.3501253,5.4171387 3.8451872,5.8197793 3.7096332,6.1727489 3.6660133,6.1902242 3.4336351,6.1919415 c -0.3365218,0.2616862 -0.1822102,1.0005013 0.15625,0.375 0.084029,0.4240957 0.5433179,0.2435694 0.84375,0.28125 C 4.770859,6.8433122 5.115778,5.7307403 4.8658105,6.5210373 4.7001673,7.0529361 5.2543673,6.7400679 5.5139606,6.8481915 5.9134585,6.9777809 6.267205,5.7421594 6.1156637,6.5289786 5.8003705,7.3193449 6.6844398,5.7146272 6.4336351,6.4731915 c -0.2962518,0.331189 0.2120335,0.4948265 0.09375,0.1875 -0.1335721,0.020024 0.3096429,-0.9310458 -0.1875,-0.5 -0.3821344,-0.4445702 -0.3412948,0.4517042 -0.6875,0.5 -0.8079421,0.163218 0.7025705,-0.6576266 -0.125,-0.59375 -0.1678578,0.1857124 -0.3537587,0.8425572 -0.5625,0.53125 0.1227795,-0.315283 0.6314313,-1.0180134 0,-0.53125 C 4.9563979,5.545196 4.6472329,6.2896194 4.7074447,6.4713323 4.191258,7.155622 4.9059946,5.8233978 4.3086351,6.0669415 4.1781752,6.3632709 3.8701956,7.0439361 3.6836351,6.4106915 3.9006171,5.7572416 4.3127325,5.249503 4.5898851,4.6919415 4.4025115,4.27568 4.0922055,5.5480179 4.0980901,4.7395399 4.2395765,4.4989509 4.0815137,4.653525 4.0898851,4.5669415 z m 7.7812499,0 c -0.465262,0.3112473 -0.409527,1.3195991 -0.75,1.46875 -0.29893,0.1893932 -0.411296,0.5577919 -0.561129,0.775767 0.153075,0.1104353 0.387687,0.00604 0.498629,-0.182017 -0.09197,0.3611611 0.428463,0.1718443 0.649031,0.21875 0.336181,-0.064716 0.285059,-0.1450927 0.569719,0 0.275706,-0.041399 0.684648,0.1377474 0.792579,-0.2337224 0.06874,-0.4315091 0.532626,-0.5359299 0.176171,-0.047528 -0.276776,0.3288553 0.292301,0.354433 0.15625,0.125 -0.355611,-0.048284 0.631525,-1.1263644 0.04922,-0.6630449 -0.211889,0.217938 -0.07786,-0.4271775 -0.330469,-0.024455 0.128555,0.3088224 -0.45179,1.0611543 -0.216906,0.3539865 0.130096,-0.732136 -0.54707,0.094551 -0.583974,0.3022635 -0.460064,-0.1934635 0.401914,-0.9731155 0.406882,-1.397183 0.161702,-0.350703 0.193181,-1.0515556 -0.11424,-0.3387907 -0.39979,0.4902427 -0.260199,1.5174055 -0.866762,1.7359737 0.329496,-0.3125066 0.02101,-0.9830586 -0.273328,-0.3749854 0.01287,0.4538095 -0.490727,0.5135353 -0.198715,0.024176 0.218747,-0.5638286 0.590444,-1.0970882 0.628293,-1.7116904 l -0.03125,-0.03125 0,0 z m 4.15625,0.03125 c -0.177083,0.4791667 -0.354167,0.9583333 -0.53125,1.4375 -0.263367,-0.039225 -0.134727,0.2088378 -0.129321,0.2778017 -0.01771,0.4889146 -0.879398,0.4730176 -0.464429,-0.059052 0.113522,-0.5492613 -0.553686,0.8675899 -0.459528,0.2750819 0.0056,-0.2528371 0.06778,-1.1342729 -0.165472,-0.4625819 0.05594,0.4392912 -0.523831,0.4852589 -0.53125,0.7481953 0.257298,0.235088 0.763015,-0.9438434 0.515586,-0.2399919 -0.468186,0.2183391 0.112863,0.3908717 0.328164,0.2105466 0.03673,-0.1430703 0.49315,0.300111 0.6875,-0.09375 0.125118,0.417299 0.588344,-0.1000202 0.15625,-0.03125 -0.143745,-0.3205464 0.193267,-0.3856964 0.248629,-0.588267 -0.178258,-0.031842 0.0481,-0.3275404 0.08177,-0.497716 0.106029,-0.3145605 0.271928,-0.6528057 0.341476,-0.9529339 -0.03069,0.034033 -0.04328,-0.058846 -0.07813,-0.023583 z m -11.5937499,0.15625 c 0.064714,0.1189382 -0.1633083,0.2735769 0,0 z m 7.3437499,0.125 C 11.695078,5.1952637 11.1943,6.3648572 11.5091,5.5105438 11.617323,5.3118998 11.615964,5.0432665 11.777385,4.8794415 z m 0.9375,0.0625 c -0.110123,0.365948 -0.507641,1.2265219 -0.1875,0.40625 0.05413,-0.1391204 0.118483,-0.273976 0.1875,-0.40625 z m -4.9999999,0.375 C 7.3649428,5.5240556 7.5783423,6.1862673 7.7614687,5.5233219 7.8061142,5.4514286 7.7746848,5.3632448 7.7148851,5.3169415 z m 7.4687499,0 c -0.451513,0.1593717 -0.102979,0.9084515 0.04658,0.2063805 0.04465,-0.071893 0.01322,-0.1600772 -0.04658,-0.2063805 z m -6.4374999,0.46875 C 8.6374831,5.9400424 8.2761877,6.9221164 8.136571,6.5658608 8.5320861,5.9367005 7.670136,5.8755988 7.6836351,6.5356915 c -0.325303,0.416025 -0.3975507,-0.1965225 -0.25,-0.4375 -0.087355,0.3198347 -0.4649976,0.5004482 -0.5625,0.6758802 0.1315976,0.2315518 0.3560007,-0.2389633 0.5410651,0.07412 0.2583758,0.00906 -0.057011,0.4305181 -0.00982,0.59375 -0.2791038,0.2714737 -0.1226205,0.4231086 0.06642,0.05159 C 7.7011631,7.252925 7.8480507,5.9606442 8.0948111,6.3549726 7.7855265,6.6717089 7.8175831,7.039455 8.2773851,6.7544415 c 0.180146,-0.2317649 0.548761,-0.6388367 0.276084,-0.1717948 -0.5098119,0.2820556 0.302709,0.4120803 0.380166,0.046795 -0.064857,0.4993603 0.300239,-0.1822986 0.34375,0.21875 C 9.6326201,6.9489154 9.9560471,5.765335 9.8514061,6.4915943 9.5582311,7.2063913 10.121257,6.1748691 10.214885,6.2856915 9.9000931,6.4911671 10.208101,7.121945 10.26176,6.6842746 10.050542,6.6684091 10.548351,5.8318168 10.027385,6.0669415 9.5687021,5.859433 9.7575971,6.6663058 9.3398851,6.6606915 9.3984761,6.436297 9.5624191,5.6841987 9.2613531,6.3530399 c -0.322835,0.574724 -0.159071,0.046324 -0.015218,-0.2548484 -0.209686,-0.1301387 -0.747804,1.1073081 -0.5,0.28125 -0.096513,-0.2035907 0.090066,-0.4179685 0,-0.59375 z m -3.1875,0.40625 c 0.087446,0.1990562 -0.4001496,0.4274161 -0.03125,0.03125 l 0.03125,-0.03125 0,0 z m -1.25,0.03125 C 4.8192972,6.1946814 3.9148518,7.08916 4.2180518,6.38802 l 0.031137,-0.070629 0.059446,-0.094199 0,0 z m 6.6562499,0 c 0.540758,-0.032221 -0.460973,0.8664277 -0.05937,0.1409575 l 0.02812,-0.078457 0.03125,-0.0625 0,0 z m 0.65625,0 c 0.50406,-0.00353 -0.446324,0.8804909 -0.09058,0.1648285 l 0.03114,-0.070629 0.05945,-0.094199 0,0 z m 1.03125,0 c 0.559927,-0.052308 -0.43846,0.8900866 -0.05897,0.1419748 l 0.02772,-0.079475 0.03125,-0.0625 0,0 z m -9.1562499,0.09375 c 0.1818776,0.3045178 -0.4226509,0.4562943 -0.03125,0.03125 l 0.03125,-0.03125 z m 2.96875,1.28125 c -0.1875,0.4791667 -0.375,0.9583333 -0.5625,1.4375 C 5.6144239,9.0476279 5.8926739,9.2668899 5.7705053,9.3920036 5.7271516,9.818982 4.5941018,9.7237463 5.3711351,9.3794415 5.8449597,8.8434331 4.8218883,9.1006957 4.9648851,9.5981915 4.3835671,9.992175 5.1662133,8.758707 4.5586351,9.0669415 4.1155722,8.8636196 4.2344306,9.6455165 3.8711351,9.6606915 3.7452383,9.5761046 4.2389478,8.7572419 3.6928414,9.1462243 3.5875579,9.441984 3.1087298,9.619246 3.2072182,9.8325665 3.3754983,9.7690487 3.6830649,9.8349386 3.7148851,9.7231915 4.0015078,10.312274 4.4879574,8.7139406 4.3996494,9.4542101 4.1047129,10.105712 4.5492868,9.4399781 4.7461351,9.2231915 c -0.235873,0.3521878 -0.1329435,0.7710744 0.21875,0.59375 0.3250327,0.1541984 0.6848428,-0.1383196 0.90625,0.03125 0.4364157,-0.1349495 -0.2720422,-0.1695446 0,-0.46875 C 5.8841939,9.1856944 6.1599602,9.2167311 6.066302,9.0513165 5.9330051,8.9534761 6.209229,8.61941 6.2401542,8.4256438 6.3334241,8.1606411 6.486667,7.8725795 6.5430101,7.6217746 6.5123245,7.6558078 6.4997339,7.5629289 6.4648851,7.5981915 z m -0.46875,2.21875 c -0.042674,0.6928735 0.5796105,-0.9391489 0.081001,-0.2973398 -0.1328365,0.1692267 0.140121,0.094703 -0.081001,0.2973398 z m 5.3749999,-2.21875 c -0.1875,0.4791667 -0.375,0.9583333 -0.5625,1.4375 -0.285792,-0.041752 -0.07007,0.2144563 -0.103927,0.2763176 0.04725,0.3835487 -0.9083639,0.5327027 -0.677323,0.1299324 0.05336,-0.2571767 0.702128,-0.2279069 0.181041,-0.3916808 -0.2809679,0.2476285 -0.3527649,0.7614262 -0.8372909,0.6104308 0.317774,-0.1132608 0.6605689,-0.8829539 0.090282,-0.503723 0.020855,0.3367457 -0.597247,0.829887 -0.309032,0.222473 -0.071976,-0.2019515 0.090185,-0.9078796 -0.1875,-0.375 0.165196,0.3296087 -0.7219786,0.9905186 -0.5,0.46875 0.301009,-0.5167229 -0.4593712,-0.5558373 -0.4375,-0.0625 -0.3484426,0.5943005 -0.090984,-0.058056 -0.125,-0.34375 -0.5556297,-0.1788263 -0.3155895,0.8141415 -0.875,0.59375 -0.2032975,-0.2711074 0.2391189,-0.4285007 0.375,-0.46875 -0.2942366,-0.5155874 -0.4999281,0.508861 -0.75,0.5 -0.095924,0.3040864 0.2789209,0.026936 0.4767604,0.15625 0.2562155,-0.019911 0.5304547,0.040438 0.7752124,-0.030495 0.1079816,-0.1917948 0.6201442,-0.9858786 0.4355272,-0.3132553 -0.2727663,0.9051955 0.783371,-0.2467071 0.6875,-0.09375 -0.311989,0.2653735 -0.310383,0.5430415 0.15094,0.4201999 0.217151,0.067389 0.603284,-0.059804 0.78656,0.0173 0.3992909,0.072188 0.5856829,-0.2015286 0.9062499,0 0.219303,-0.1122986 0.529175,0.098974 0.827289,-0.043262 0.127932,-0.1905135 0.517205,0.2991829 0.641461,-0.1754876 -0.06486,0.4993605 0.300239,-0.1822986 0.34375,0.21875 0.281592,-0.063471 0.434211,0.015183 0.759815,0 0.200579,-0.089982 0.609915,-1.058255 0.4223,-0.4007501 -0.354338,0.330112 0.272301,0.5525097 0.161635,0.2445001 -0.384227,0.040461 0.512536,-1.0209571 0.09911,-0.7132901 -0.328295,0.3589274 -0.08328,-0.3911511 -0.380365,0.02579 0.0075,0.3401396 -0.129759,0.7937553 -0.590141,0.65625 -0.10085,-0.052386 0.812384,-0.6840461 0.121391,-0.59375 -0.102726,0.21838 -0.541175,0.9759605 -0.509329,0.3837988 0.259989,-0.4649997 -0.0344,-0.468919 -0.146921,-0.0088 -0.399764,0.6994875 0.28916,-0.8204934 -0.147714,-0.2323683 -0.09116,0.4388453 -0.756412,0.6919887 -0.453125,0.049065 0.113835,0.022181 0.299708,-0.2171347 0.100839,-0.2229471 0.174813,-0.4684301 0.408917,-0.959657 0.546875,-1.4139169 -0.176125,-0.053628 -0.181635,0.3765944 -0.287622,0.5117989 -0.117668,0.300706 -0.235335,0.601412 -0.353003,0.902118 -0.285792,-0.041752 -0.07007,0.2144563 -0.103927,0.2763176 0.09485,0.4247332 -1.063943,0.4815392 -0.551953,0.1601767 0.602836,-0.2472237 -0.0259,-0.6977745 -0.18787,-0.1552443 0.01507,0.5623425 -0.767569,0.360157 -0.34375,-0.09375 0.229663,0.016099 0.102005,-0.2061408 0.093,-0.263756 0.164633,-0.4430066 0.388599,-0.9088261 0.516373,-1.3376609 -0.03069,0.034033 -0.04328,-0.058846 -0.07813,-0.023583 z m -6.0937499,1.59375 c 0.2991442,0.083078 -0.5000317,0.5012404 -0.03125,0.03125 l 0.03125,-0.03125 0,0 z m 4.28125,0 c 0.316278,0.06662 -0.429799,0.4736861 -0.03125,0.03125 l 0.03125,-0.03125 0,0 z m 1.8437499,0 c 0.200657,0.1298378 -0.455784,0.472244 -0.03125,0.03125 l 0.03125,-0.03125 0,0 z m 1.90625,0 c 0.200656,0.1298373 -0.455784,0.4722442 -0.03125,0.03125 l 0.03125,-0.03125 0,0 z m -9.5624999,0.03125 c 0.3899907,0.06889 -0.5162747,0.7939635 -0.1341974,0.1170118 l 0.071697,-0.085762 0.0625,-0.03125 0,0 z m 3.90625,0 C 8.1554114,9.1991543 7.1912829,10.089354 7.5618018,9.38802 l 0.031137,-0.070629 0.059446,-0.094199 0,0 z m -1.5,0.3125 c 0.1182122,-0.031645 -0.1399345,0.1602632 0,0 z m -1.03125,1.0312505 c -0.2903923,0.477246 -0.4163381,0.990087 -0.65625,1.5 -0.3456729,-0.158967 -0.7048112,1.131302 -0.5625,0.312499 0.2365127,-0.816165 -0.5466605,0.209979 -0.703125,0.304834 -0.11419,0.32184 0.528099,0.03449 0.515625,0.03892 0.1305286,0.254632 0.5121848,0.122617 0.625,-0.09375 -0.023327,0.512267 0.4937286,-0.07808 0.6660651,0.21875 0.3666847,-0.07845 -0.4068616,1.067451 0.033719,0.682668 0.2554675,-0.235871 0.3911862,-1.567162 0.6488916,-1.175888 -0.1576951,0.275704 -0.4118028,0.578715 0.088824,0.49322 0.1979015,-0.335016 0.3835019,0.222759 0.6875,-0.09375 0.00584,0.03711 0.4252116,0.17873 0.59375,0.03125 0.3302296,0.247248 0.6490279,-0.197033 0.8848151,0.0625 0.3592049,0.135316 0.7510189,-1.119072 0.6464349,-0.34375 -0.4082074,0.588759 0.800686,0.134126 0.212342,0.6279 -0.304394,0.35398 -0.179111,1.025566 0.108846,0.303056 0.062282,-0.438215 0.429799,-0.500693 0.553812,-0.743457 -0.381072,0.08349 0.259989,-0.555343 0.03125,-0.656249 -0.530283,-0.187125 -0.419802,0.798627 -0.84375,0.59375 0.38158,-0.368476 -0.15015,-0.845851 -0.28216,-0.39096 0.040884,0.511718 -0.8027767,0.598524 -0.40534,0.01596 -0.0084,-0.473148 -0.2483034,0.672652 -0.6642604,0.40625 -0.3932054,-0.083 0.1454803,-0.485282 0.2892604,-0.468751 -0.2589212,-0.596196 -0.6726335,0.795667 -0.7518828,0.4037 0.1571105,-0.218253 0.1299715,-1.204183 -0.091867,-0.528699 0.088248,0.495937 -0.9143139,0.944426 -0.53125,0.1875 0.092962,-0.547021 -0.4706508,0.805322 -0.4845643,0.311419 0.3840004,-0.708907 -0.5025784,-0.623868 -0.4841857,0.0011 -0.3416491,0.371634 -0.3255533,-0.270233 -0.21875,-0.46875 -0.072405,0.328125 -0.7814482,0.946466 -0.4720427,0.211689 0.1774858,-0.558084 0.7038419,-1.165913 0.5657927,-1.742939 z m 6.3749999,0 c -0.500997,0.58604 -0.485787,1.437376 -0.90625,2.0625 -0.317943,0.09413 -0.7408379,0.03731 -0.1875,-0.250001 0.456308,-0.621401 -0.5401479,-0.158114 -0.4687499,0.281251 -0.282344,-0.03097 -0.188524,0.334735 0.09375,0.15625 0.365316,0.183379 0.667158,-0.236588 0.853565,0.03125 0.317549,0.02095 0.353375,-0.254655 0.5625,0 0.315925,-0.04047 0.49894,-0.03292 0.740185,-0.03125 0.330388,0.09656 0.322781,-0.818727 0.03125,-0.28125 -0.17498,0.47822 -0.323748,-0.274908 -0.03125,-0.343751 0.136352,-0.148402 -0.118259,-0.191791 0.07551,-0.423145 0.139173,-0.379444 0.337818,-0.781755 0.440117,-1.147021 -0.175997,-0.05358 -0.174373,0.379356 -0.277418,0.51568 -0.110652,0.299412 -0.221305,0.598824 -0.331957,0.898237 -0.263366,-0.03922 -0.134728,0.208838 -0.12932,0.277802 -0.101002,0.555704 -0.938381,0.413026 -0.46443,-0.152802 -0.06548,-0.382163 -0.231805,0.740587 -0.65625,0.5 0.105978,-0.659654 0.578041,-1.217654 0.704576,-1.884174 0.04229,-0.07298 0.01252,-0.162643 -0.04833,-0.209576 z m 2,0 c -0.08752,0.210946 0.03629,0.505636 -0.147865,0.758105 -0.172018,0.488346 -0.405264,0.965285 -0.539635,1.460645 0.310092,-0.23928 0.442763,-1.095833 0.732422,-1.534061 0.119854,-0.38119 0.490258,-0.709107 0.205078,-0.09094 -0.06829,0.499937 -0.850286,1.335019 -0.375,1.6875 0.263656,-0.02948 0.205997,-0.32503 0.34375,0 0.168277,-0.374274 0.413063,0.325206 0.6875,-0.1875 0.150019,0.483137 0.549352,-0.152772 0.697315,0.1875 0.323237,-0.07772 0.529552,-0.06529 0.740185,-0.03125 0.05529,-0.181393 -0.04189,-0.415652 0.09375,-0.75 -0.331998,-0.151914 -0.851124,1.11877 -0.84375,0.34375 0.212222,-0.595034 0.726827,-1.220136 0.625,-1.84375 -0.482012,0.555905 -0.496278,1.40092 -0.846505,1.984112 -0.678268,0.435036 -0.131057,-0.617368 0.04342,-0.89895 0.162788,-0.20131 0.533268,-1.492449 0.09784,-0.836222 -0.416918,0.530374 -0.315061,1.530587 -0.888505,1.84481 -0.196665,0.0037 0.269808,-1.003466 -0.100839,-0.395748 -0.135943,0.3673 -0.371757,0.498834 -0.100933,0.0428 0.04564,-0.716666 -0.270774,0.503509 -0.610728,0.352948 0.02303,-0.683657 0.883313,-1.558476 0.5625,-2.0625 -0.246933,0.321767 -0.104084,0.247483 -0.1875,-0.03125 -0.333873,0.30432 0.05871,0.144289 -0.1875,0 z m -8.4687499,0.312499 c -0.079396,0.316385 -0.5881957,1.483704 -0.2695451,0.630957 0.1106505,-0.19788 0.1075547,-0.467187 0.2695451,-0.630957 z m 10.0312499,0.0625 c -0.110123,0.365948 -0.507641,1.226522 -0.1875,0.406251 0.05413,-0.139121 0.118483,-0.273976 0.1875,-0.406251 z m -3.78125,0.281251 c -0.09638,0.288602 -0.318391,0.809 -0.103951,0.235034 l 0.04145,-0.110034 0.0625,-0.125 0,0 z m 4.21875,0 c -0.09638,0.288602 -0.318391,0.809 -0.103951,0.235034 l 0.04145,-0.110034 0.0625,-0.125 0,0 z m -10.1874999,0.09375 c -0.3499421,0.207114 -0.1365432,0.869326 0.046584,0.20638 0.044645,-0.07189 0.013216,-0.160077 -0.046584,-0.20638 z m 1.1875,0 c -0.4515126,0.159371 -0.1029791,0.90845 0.046584,0.20638 0.044645,-0.07189 0.013216,-0.160077 -0.046584,-0.20638 z m 1.75,0 c -0.3790521,0.151101 -0.1284062,0.87538 0.00834,0.259879 -0.054649,-0.110295 0.1462175,-0.166175 -0.00834,-0.259879 z m 3.4999999,0 c -0.432126,0.259273 -0.07148,0.832172 0.07783,0.20638 0.04254,-0.07003 0.01665,-0.196205 -0.07783,-0.20638 z m -5.3437499,0.1875 c 0.096339,0.01004 -0.1408812,0.357026 0,0 z m 5.2812499,0 c 0.0851,0.0393 -0.08937,0.180308 0,0 z m -2.4374999,0.687499 c 0.461856,0.03283 -0.562925,0.959413 -0.122225,0.174043 3.91e-4,-0.08349 0.07509,-0.120065 0.122225,-0.174043 z m 1.0624999,0 c 0.207655,0.128799 -0.4633459,0.473595 -0.03125,0.03125 l 0.03125,-0.03125 0,0 z m -6.5624999,0.03125 c 0.3899906,0.06889 -0.5162748,0.793964 -0.1341974,0.117011 l 0.071697,-0.08576 0.0625,-0.03125 0,0 z m 0.5,0 c 0.5040409,-0.04715 -0.4599816,0.852494 -0.05937,0.140957 l 0.02812,-0.07846 0.03125,-0.0625 0,0 z m 11.4687499,0 c 0.389766,0.06714 -0.515782,0.79486 -0.134198,0.117011 l 0.0717,-0.08576 0.0625,-0.03125 0,0 z m -8.9062499,0.09375 c -0.00202,0.375084 -0.4443412,0.535097 0,0 z m 5.4999999,0.25 c 0.12073,-0.0289 -0.159565,0.240761 0,0 z m -3.3437499,0.5 c -0.097733,0.304489 -0.374309,0.635652 -0.09375,0.15625 l 0.046558,-0.08431 0.047192,-0.07194 z m 3.2187499,0.5 c -0.479579,0.593669 -0.540562,1.419119 -0.90625,2.0625 -0.551733,0.315498 0.187804,-1.034246 -0.257089,-0.364498 -0.129449,0.395134 -0.410444,0.497235 -0.127024,0.0453 0.144455,-0.654408 -0.412604,0.360883 -0.542056,0.461377 0.01007,0.286579 0.409925,-0.405708 0.301169,0.04532 0.282566,-0.08677 0.173058,-0.104756 0.4375,0.03125 0.317573,-0.102321 0.24615,-0.131628 0.51963,0 0.314659,-0.08702 0.378071,-0.07964 0.69912,0 0.202838,-0.215776 0.657569,-1.04504 0.369676,-0.327155 -0.290274,0.607754 0.547382,0.137896 0.505324,0.264655 0.281945,0.128685 0.467676,-0.01951 0.777641,0.0625 0.308541,-0.08876 0.354923,-0.08302 0.659859,0 0.241232,-0.102234 0.663845,0.170099 0.854211,-0.174016 0.135857,-0.228867 0.417032,-0.545308 0.192625,-0.09903 -0.438941,0.139174 0.04769,0.42903 0.150624,0.201957 -0.07281,-0.191998 0.03585,-0.533132 0.08379,-0.92891 -0.336703,-0.07441 -0.202325,0.87481 -0.6875,0.8125 -0.860032,0.187517 0.646019,-0.641095 -0.125,-0.59375 -0.259943,0.146085 -0.328364,0.875665 -0.65625,0.53125 0.12567,-0.300459 0.137426,-0.777924 -0.07256,-0.218895 -0.0135,0.382899 -0.975796,0.430821 -0.535528,-0.04877 0.160085,-0.06984 0.522481,-0.206043 0.101631,-0.280268 -0.155875,0.177988 -0.604456,1.009608 -0.657343,0.418056 0.220351,-0.413143 0.03906,-0.579638 -0.09626,-0.08902 -0.13391,0.43708 -0.673527,0.328773 -0.255632,-0.09377 0.248029,-0.409082 0.212811,-0.485498 -0.171806,-0.187334 -0.08145,-0.619788 -0.213006,0.455324 -0.394063,0.567707 -0.430969,0.175303 -0.272012,-0.44919 -0.03577,-0.458333 0.172554,-0.183231 -0.185257,-0.134515 0.0061,-0.362515 0.149359,-0.404869 0.358127,-0.832582 0.470619,-1.223276 -0.175997,-0.05358 -0.174373,0.379356 -0.277418,0.515681 -0.110652,0.299411 -0.221305,0.598824 -0.331957,0.898236 -0.263366,-0.03922 -0.134728,0.208838 -0.12932,0.277802 -0.0526,0.577042 -0.937646,0.376032 -0.404083,-0.129142 0.269899,-0.492728 0.506774,-1.0387 0.564653,-1.58616 l -0.03125,-0.03125 z m -5.9687499,0.03125 c -0.1770833,0.479167 -0.3541667,0.958333 -0.53125,1.4375 -0.2633666,-0.03922 -0.1347271,0.208838 -0.1293203,0.277802 0.1073752,0.436407 -1.0929871,0.467402 -0.5438392,0.160179 0.5946878,-0.254207 -0.045942,-0.696371 -0.2018405,-0.156731 -0.021936,0.512145 -0.6444294,0.443906 -0.226044,-0.02851 0.2465962,-0.531878 -0.6140195,-0.11712 -0.523956,0.247256 -0.1985231,0.25198 -0.8342138,0.13492 -0.25,-0.156251 0.5389248,-0.506702 -0.5089855,-0.293348 -0.375,0.218751 -0.1752123,-0.01748 -0.3807606,0.309841 -0.100758,0.220422 0.1338539,0.09889 0.832882,-0.112385 0.7251687,0.158987 -0.4138637,0.23642 -0.392483,1.304335 -0.029983,0.457873 0.080012,-0.52627 0.4756172,-0.711805 0.9135828,-0.587282 0.3595334,0.0126 0.5539197,-0.122441 0.8044896,-0.03125 0.1512692,-0.236728 -0.4077173,-0.102965 -0.085697,-0.477768 0.023024,-0.150287 0.2901103,-0.129683 0.1481965,-0.303482 -0.1042374,-0.101081 0.1585133,-0.450624 0.1967703,-0.648177 0.088158,-0.252281 0.2363832,-0.527659 0.2876047,-0.76574 -0.030685,0.03403 -0.043276,-0.05885 -0.078125,-0.02358 z m 3.28125,0 c 0.031603,0.475085 -0.22939,0.895082 -0.445818,1.497076 -0.110866,0.223416 -0.265424,1.040697 0.164568,0.596673 0.072549,0.364131 0.578031,-0.03132 0.7889169,0.140625 0.185853,-0.244205 -0.4112929,-0.156897 -0.055663,-0.567509 0.1043689,-0.0057 0.2699129,-0.22575 0.079246,-0.229365 0.174813,-0.46843 0.408917,-0.959657 0.546875,-1.413917 -0.176125,-0.05363 -0.181635,0.376593 -0.287622,0.511799 -0.117668,0.300706 -0.235335,0.601412 -0.3530029,0.902118 -0.287961,0.01194 -0.00971,0.231197 -0.131879,0.356311 -0.113822,0.421443 -0.774476,0.332573 -0.336871,-0.106311 0.171384,-0.536002 0.5352169,-1.166681 0.5937499,-1.65625 -0.4608099,0.600042 -0.5038409,1.454232 -1.0249509,2.019004 -0.029059,-0.597254 0.533116,-1.321514 0.743701,-1.956505 -0.133268,-0.152677 -0.241362,0.233115 -0.265625,-0.101416 l -0.015625,0.0077 0,0 z m 2.5624999,0.343749 c -0.110123,0.365948 -0.507641,1.226522 -0.1875,0.406251 0.05413,-0.139121 0.118483,-0.273976 0.1875,-0.406251 z m 1.5625,0.375001 c -0.432126,0.259273 -0.07148,0.832172 0.07783,0.206381 0.04254,-0.07003 0.01665,-0.196205 -0.07783,-0.206381 z m 1.1875,0 c -0.349942,0.207114 -0.136543,0.869325 0.04658,0.20638 0.04465,-0.07189 0.01322,-0.160077 -0.04658,-0.20638 z m 3.03125,0 c -0.440997,0.256461 -0.05506,0.836877 0.06275,0.202441 0.02131,-0.07223 -0.0031,-0.157091 -0.06275,-0.202441 z m -4.28125,0.1875 c 0.179987,-0.0059 -0.152111,0.228454 0,0 z m -6.7812499,0.28125 c -0.2065972,0.238816 -0.2673049,0.898482 -0.671875,0.898583 -0.063077,0.440106 0.5186834,-0.198465 0.578125,-0.398583 -0.05544,0.315334 -0.5055666,0.639023 0.09375,0.5625 0.2410429,-0.07372 0.7307367,0.168204 0.84375,-0.28125 0.1477843,-0.516958 0.3730592,-0.264227 0.13105,0.07419 -0.135503,0.526744 0.65682,-0.938229 0.3377,-0.16794 -0.2394592,0.455716 0.353898,0.489558 0.421382,0.06699 -0.00601,-0.557562 -0.54581,0.638251 -0.296382,-0.09824 0.260768,-0.380992 -0.1047481,-0.384457 -0.21875,-0.374999 -0.4430629,-0.203323 -0.3242045,0.578574 -0.6875,0.59375 -0.7328028,0.165517 0.6674429,-0.676005 -0.09375,-0.59375 -0.1367151,0.182602 -0.4024756,0.832953 -0.501883,0.528699 0.144596,-0.220367 0.070933,-0.590817 0.064383,-0.809949 z m 9.9999999,0.25 c -0.40281,-0.07085 -0.231967,0.632904 -0.632667,0.640625 -0.137611,0.360192 0.413407,0.01075 0.382061,-0.274901 0.523705,-0.646568 -0.229921,0.729452 0.188106,0.259276 0.08495,-0.351808 0.498221,-0.619303 0.184922,-0.09548 -0.06712,0.58521 0.457218,0.01077 0.678458,0.282976 0.260185,-0.235755 -0.330607,-0.119795 -0.06035,-0.476627 0.206079,-0.816809 -0.345176,0.6467 -0.511131,0.237887 0.225719,-0.365215 0.08867,-0.63663 -0.166896,-0.54251 l -0.0625,-0.03125 0,0 z M 3.7461351,15.191941 c 0.2006565,0.129838 -0.4557846,0.472245 -0.03125,0.03125 l 0.03125,-0.03125 0,0 z m 0.59375,0 c 0.4618557,0.03283 -0.5629249,0.959412 -0.1222251,0.174043 3.911e-4,-0.08349 0.07509,-0.120065 0.1222251,-0.174043 z m 0.6875,0 c 0.2991441,0.08308 -0.5000317,0.501241 -0.03125,0.03125 l 0.03125,-0.03125 0,0 z m 2.1875,0 c 0.3162784,0.06662 -0.4297989,0.473687 -0.03125,0.03125 l 0.03125,-0.03125 0,0 z m 7.8749999,0 c 0.299144,0.08308 -0.500032,0.501241 -0.03125,0.03125 l 0.03125,-0.03125 0,0 z m -6.7187499,0.375001 c 0.127127,-0.03625 -0.1665776,0.247083 0,0 z m -4.28125,0.499999 c -0.097733,0.30449 -0.3743083,0.635654 -0.09375,0.156251 l 0.046558,-0.08431 0.047192,-0.07194 0,0 z m 2.65625,0.5 c -0.2549848,0.167783 -0.4843005,1.249595 -0.1935859,0.458671 0.2366052,-0.26303 -0.2419435,0.494723 -0.3077752,0.707637 -0.070495,0.444214 -0.6007804,0.376179 -0.6548889,0.927442 -0.1940232,0.01492 -0.1290593,0.294825 0.1115755,0.1875 0.1815175,-0.07409 0.2339933,-0.313371 0.3259245,0 0.3112238,0.0068 0.3872616,-0.175144 0.65625,0 0.3705907,-0.227992 0.6099475,0.195733 0.9365908,-0.171644 0.109355,-0.403124 0.4761388,-0.598799 0.2119906,-0.104142 -0.1912954,0.715622 0.3006312,-0.472576 0.4139186,-0.286714 -0.3887373,0.355417 0.010289,0.820261 0.25,0.375 0.149092,-0.415505 -0.166349,-0.265653 -0.211083,0.01563 -0.2433367,0.06807 0.37571,-0.962779 -0.226417,-0.515625 -0.3386226,-0.432261 -0.3461556,0.450301 -0.6875,0.5 C 7.245238,18.576104 7.738948,17.757243 7.1928412,18.146224 7.1099233,18.419187 6.4164955,19.024503 6.6116618,18.371566 6.8249527,17.530708 6.2275468,19.116388 6.08541,18.559205 6.2986424,17.917796 6.7202539,17.338003 6.8086351,16.660691 l -0.03125,-0.0625 -0.03125,-0.03125 z m 0.1875,0.75 c -0.3790523,0.151103 -0.1284061,0.875381 0.00834,0.25988 -0.054649,-0.110295 0.146218,-0.166175 -0.00834,-0.25988 z m -3.28125,0.718751 c -0.1009725,0.186465 -0.2034634,0.660925 -0.46875,0.65625 -0.042231,0.473151 0.5119432,-0.298245 0.5773555,-0.459713 0.2411484,0.02198 -0.295577,0.794438 0.3056549,0.615962 0.4290711,0.109782 0.6949406,-0.178052 0.8357396,-0.5625 0.4364812,-0.226036 -0.2413578,0.720413 0.2264169,0.546876 0.1742142,-0.226018 -0.2767168,-0.11406 0.0228,-0.4428 0.1453863,-0.575736 -0.5578775,-0.319024 -0.485581,0.132338 -0.505056,0.550938 0.2739334,-0.753065 -0.3665746,-0.443935 -0.116782,0.238017 -0.54607,0.982868 -0.385986,0.292368 0.1026952,-0.41581 -0.0069,-0.219585 -0.2610754,-0.334846 z m 0.65625,0.187499 c 0.4984752,-0.0054 -0.4356769,0.884054 -0.090583,0.164828 l 0.031137,-0.07063 0.059446,-0.0942 0,0 z m 1.5625,0 c 0.5041721,-0.04421 -0.4563199,0.875688 -0.05937,0.140957 l 0.02812,-0.07846 0.03125,-0.0625 0,0 z m 1.375,0 c 0.3831357,0.07294 -0.5777122,0.793262 -0.1341974,0.117012 l 0.071697,-0.08576 0.0625,-0.03125 0,0 z"
       id="path2470"
       sodipodi:nodetypes="cccccsscccccccccccccccccccccccccccccccccccccscccccccccsscccccccsccccccccccccccccccccccccccccccccccccccccccccccccccccccccccccccccccccccccssccsccccccccccccccccccccccccccccccccccccccccccccccscccccccccccccccccccccccccccccccccsccscccccccccccccccccccccccccccccccccccccscccccccccccccccccccccccccccccccsccccccccccccccccccccccccccccccccccccccccccccccccccccccccccccccccccccccsccccccccccsccccccccscccccsccccccccccccssscccccccccccccccccccsccccccccscccccscsccccccccccccccccccccccccccccccccccccccccccccccccccscccccccccccccccccccccccccccscccccccccccccccc"
       inkscape:connector-curvature="0" />
  </g>
  <g
     inkscape:label="Pencil"
     id="layer2"
     inkscape:groupmode="layer"
     sodipodi:insensitive="true">
    <path
       id="path4887"
       d="m 15.339895,3.5722826 c -0.05786,0.030878 -0.116843,0.076002 -0.147258,0.1318252 L 14.475129,5.036116 14.434039,5.0198471 13.50034,6.7178129 13.374046,6.9767681 12.986613,7.6551828 9.1704728,14.652502 c -0.00865,4.46e-4 -0.019859,0.01155 -0.02868,0.01241 -0.00127,0.01466 0.013419,0.01492 0.012412,0.02868 l -0.036396,0.151953 c -3.892e-4,0.02288 0.00855,0.09845 0.00855,0.09845 l -0.2723898,1.8885 -0.084366,0.513214 -0.256957,1.609418 0.02868,-0.01241 1.57488,-1.396572 1.337727,-1.157745 c 0,0 0.204884,-0.179752 0.323193,-0.276059 l 3.80373,-7.0259996 0.448651,-0.7730063 0.06508,-0.1643635 0.933698,-1.697966 -0.04109,-0.016268 0.746188,-1.3444197 C 17.855043,4.8670182 17.658848,4.5439371 17.312249,4.3531927 L 16.050012,3.6395439 C 15.790062,3.4964852 15.51349,3.4796488 15.339895,3.5722826 z"
       style="opacity:0.3;fill:url(#linearGradient4889);fill-opacity:1;stroke:none"
       inkscape:connector-curvature="0" />
    <path
       style="opacity:0.5;fill:url(#linearGradient4885);fill-opacity:1;stroke:none"
       d="m 22.842017,10.120764 c -0.06519,-0.0072 -0.139346,-0.0033 -0.195985,0.02554 l -1.344684,0.693461 -0.02471,-0.03664 -1.729851,0.873211 -0.250532,0.142273 -0.703017,0.340762 -7.102618,3.61638 c -0.0074,-0.0045 -0.02291,-0.0017 -0.03067,-0.006 -0.0093,0.01138 0.0026,0.0199 -0.006,0.03068 l -0.115897,0.104796 c -0.01325,0.01865 -0.04858,0.08606 -0.04858,0.08606 l -1.2919307,1.404115 -0.359625,0.375735 -1.1214878,1.182589 0.030675,0.006 2.0885165,-0.262219 1.757898,-0.1992 c 0,0 0.270612,-0.03252 0.422644,-0.04511 l 7.108587,-3.647055 0.806976,-0.384208 0.146573,-0.09883 1.72985,-0.873212 -0.02471,-0.03664 1.37536,-0.687493 c 0.226559,-0.115473 0.24727,-0.492892 0.06911,-0.846125 L 23.389866,10.577548 C 23.256247,10.312623 23.037585,10.14244 22.842017,10.120764 z"
       id="rect4829"
       inkscape:connector-curvature="0" />
    <g
       transform="matrix(1.1120928,0.2979843,0.2979843,-1.1120928,1.951693,19.849571)"
       id="g4147"
       style="display:inline">
      <rect
         style="fill:url(#linearGradient6450);fill-opacity:1;stroke:none"
         id="rect3483"
         width="2.884089"
         height="2.4480386"
         x="-6.9798665"
         y="16.556992"
         rx="0.71411234"
         ry="0.45900726"
         transform="matrix(-0.9999992,0.00123406,-0.00299363,0.9999955,0,0)" />
      <path
         style="fill:url(#linearGradient6447);fill-opacity:1;stroke:none"
         d="M 7,6 5.5263594,1.979272 4.0316321,6.003405 4,15.077 6.9683651,15.073595 7,6 z"
         id="rect2480"
         sodipodi:nodetypes="cccccc"
         inkscape:connector-curvature="0" />
      <path
         style="fill:url(#linearGradient6441);fill-opacity:1;fill-rule:evenodd;stroke:none"
         d="m 5.7948954,2.809455 1.0505829,2.8122029 c 0,0 0.1167607,0.2447402 0.1741514,0.386087 C 7.0673752,6.1028105 6.5265708,6.2469295 6.2619053,5.7704152 5.9542961,6.4392455 4.8589666,6.2811533 4.7569793,5.7737539 4.6700829,6.0258361 4.3147661,6.2111336 4.0051706,6 4.0646145,5.8653504 4.1155811,5.7744793 4.1155811,5.7744793 L 5.2218731,2.8324265 5.7948954,2.809455 z"
         id="path3274"
         sodipodi:nodetypes="ccccccccc"
         inkscape:connector-curvature="0" />
      <rect
         transform="matrix(-0.9999991,0.00133119,-0.00277519,0.9999961,0,0)"
         y="14.005442"
         x="-7.0076237"
         height="3.0000114"
         width="2.9604268"
         id="rect6452"
         style="fill:url(#linearGradient6454);fill-opacity:1;stroke:none" />
      <path
         style="fill:url(#linearGradient6444);fill-opacity:1;fill-rule:evenodd;stroke:none"
         d="M 6.2582247,3.9585529 4.8012017,3.968289 5.507314,1.9631765"
         id="path3272"
         sodipodi:nodetypes="ccc"
         inkscape:connector-curvature="0" />
    </g>
  </g>
</svg>
