<?xml version="1.0" encoding="UTF-8" standalone="no"?>
<!-- Created with Inkscape (http://www.inkscape.org/) -->

<svg
   xmlns:dc="http://purl.org/dc/elements/1.1/"
   xmlns:cc="http://creativecommons.org/ns#"
   xmlns:rdf="http://www.w3.org/1999/02/22-rdf-syntax-ns#"
   xmlns:svg="http://www.w3.org/2000/svg"
   xmlns="http://www.w3.org/2000/svg"
   xmlns:xlink="http://www.w3.org/1999/xlink"
   xmlns:sodipodi="http://sodipodi.sourceforge.net/DTD/sodipodi-0.dtd"
   xmlns:inkscape="http://www.inkscape.org/namespaces/inkscape"
   width="22"
   height="22"
   id="svg2"
   sodipodi:version="0.32"
   inkscape:version="0.48.1 r9760"
   version="1.0"
   sodipodi:docname="config-users.svg"
   inkscape:output_extension="org.inkscape.output.svg.inkscape"
   style="display:inline">
  <defs
     id="defs4">
    <linearGradient
       inkscape:collect="always"
       id="linearGradient3327">
      <stop
         style="stop-color:#000000;stop-opacity:1;"
         offset="0"
         id="stop3330" />
      <stop
         style="stop-color:#000000;stop-opacity:0;"
         offset="1"
         id="stop3333" />
    </linearGradient>
    <linearGradient
       inkscape:collect="always"
       xlink:href="#linearGradient3327"
       id="linearGradient3335"
       x1="11.375"
       y1="22"
       x2="11.375"
       y2="-9.817296"
       gradientUnits="userSpaceOnUse" />
    <linearGradient
       inkscape:collect="always"
       xlink:href="#linearGradient3700"
       id="linearGradient3181"
       x1="-3.0607977"
       y1="27.258198"
       x2="-3.0607977"
       y2="7.2536583"
       gradientUnits="userSpaceOnUse"
       gradientTransform="translate(11.119372,-6.2581977)" />
    <inkscape:perspective
       sodipodi:type="inkscape:persp3d"
       inkscape:vp_x="0 : 11 : 1"
       inkscape:vp_y="0 : 1000 : 0"
       inkscape:vp_z="22 : 11 : 1"
       inkscape:persp3d-origin="11 : 7.3333333 : 1"
       id="perspective2531" />
    <linearGradient
       id="ButtonShadow"
       gradientTransform="scale(0.9883037,1.0118347)"
       x1="9.3550024"
       y1="21.742682"
       x2="9.3550024"
       y2="0.49362123"
       gradientUnits="userSpaceOnUse">
      <stop
         id="stop3277"
         offset="0"
         style="stop-color:#000000;stop-opacity:0.70588237;" />
      <stop
         id="stop3279"
         offset="1"
         style="stop-color:#000000;stop-opacity:0.15686275;" />
    </linearGradient>
    <linearGradient
       inkscape:collect="always"
       id="linearGradient3232">
      <stop
         style="stop-color:#000000;stop-opacity:1;"
         offset="0"
         id="stop3234" />
      <stop
         style="stop-color:#000000;stop-opacity:0;"
         offset="1"
         id="stop3236" />
    </linearGradient>
    <linearGradient
       gradientUnits="userSpaceOnUse"
       y2="-6.0004225"
       x2="11"
       y1="14.805666"
       x1="11"
       id="linearGradient3221"
       xlink:href="#linearGradient3232"
       inkscape:collect="always" />
    <linearGradient
       id="ButtonColor"
       x1="10.31979"
       y1="21"
       x2="10.31979"
       y2="0.99929649"
       gradientUnits="userSpaceOnUse">
      <stop
         style="stop-color:#29669f;stop-opacity:1;"
         offset="0"
         id="stop3189" />
      <stop
         style="stop-color:#88b6e0;stop-opacity:1;"
         offset="1"
         id="stop3191" />
    </linearGradient>
    <linearGradient
       inkscape:collect="always"
       xlink:href="#ButtonShadow"
       id="linearGradient38042"
       gradientUnits="userSpaceOnUse"
       gradientTransform="scale(0.9883037,1.0118347)"
       x1="9.3550024"
       y1="21.742682"
       x2="9.3550024"
       y2="0.49362123" />
    <filter
       inkscape:collect="always"
       id="filter3194"
       x="-0.18"
       width="1.36"
       y="-0.18"
       height="1.36">
      <feGaussianBlur
         inkscape:collect="always"
         stdDeviation="1.2"
         id="feGaussianBlur3196" />
    </filter>
    <clipPath
       clipPathUnits="userSpaceOnUse"
       id="clipPath2849">
      <rect
         ry="2"
         rx="2"
         y="1"
         x="1"
         height="20"
         width="20"
         id="rect2851"
         style="fill:#ffffff;fill-opacity:1;fill-rule:evenodd;stroke:none;display:inline" />
    </clipPath>
    <inkscape:perspective
       id="perspective3901"
       inkscape:persp3d-origin="0.5 : 0.33333333 : 1"
       inkscape:vp_z="1 : 0.5 : 1"
       inkscape:vp_y="0 : 1000 : 0"
       inkscape:vp_x="0 : 0.5 : 1"
       sodipodi:type="inkscape:persp3d" />
    <linearGradient
       inkscape:collect="always"
       xlink:href="#linearGradient3700"
       id="linearGradient3617"
       gradientUnits="userSpaceOnUse"
       x1="48"
       y1="90"
       x2="48"
       y2="5.9877172" />
    <linearGradient
       id="linearGradient3700">
      <stop
         style="stop-color:#da8714;stop-opacity:1;"
         offset="0"
         id="stop3702" />
      <stop
         style="stop-color:#f4d468;stop-opacity:1;"
         offset="1"
         id="stop3704" />
    </linearGradient>
    <linearGradient
       gradientTransform="translate(-83,-23)"
       y2="5.9877172"
       x2="48"
       y1="90"
       x1="48"
       gradientUnits="userSpaceOnUse"
       id="linearGradient3910"
       xlink:href="#linearGradient3700"
       inkscape:collect="always" />
    <inkscape:perspective
       id="perspective3939"
       inkscape:persp3d-origin="0.5 : 0.33333333 : 1"
       inkscape:vp_z="1 : 0.5 : 1"
       inkscape:vp_y="0 : 1000 : 0"
       inkscape:vp_x="0 : 0.5 : 1"
       sodipodi:type="inkscape:persp3d" />
    <linearGradient
       gradientTransform="matrix(0.27586208,0,0,0.27380985,-2.2413954,18.107145)"
       inkscape:collect="always"
       xlink:href="#linearGradient3853"
       id="linearGradient3859"
       x1="48"
       y1="27"
       x2="48"
       y2="69"
       gradientUnits="userSpaceOnUse" />
    <linearGradient
       id="linearGradient3853">
      <stop
         style="stop-color:#000000;stop-opacity:1;"
         offset="0"
         id="stop3855" />
      <stop
         style="stop-color:#313131;stop-opacity:1;"
         offset="1"
         id="stop3857" />
    </linearGradient>
    <clipPath
       clipPathUnits="userSpaceOnUse"
       id="clipPath3846">
      <path
         style="fill:url(#linearGradient3851);fill-opacity:1;fill-rule:nonzero;stroke:none"
         d="m 102,6 c -3.324,0 -6,2.676 -6,6 l 0,72 c 0,3.324 2.676,6 6,6 l 72,0 c 3.324,0 6,-2.676 6,-6 l 0,-72 c 0,-3.324 -2.676,-6 -6,-6 l -72,0 z m 36,21 c 4.27575,0 7.7501,3.22498 7.75,7.21875 -0.017,0.50192 -0.053,1.06898 -0.0937,1.65625 0.5842,0.43883 0.63569,1.74219 0.0625,3.09375 -0.20688,0.48783 -0.46974,0.90718 -0.75,1.25 -0.0907,0.424 -0.13328,0.75622 -0.25,1.25 -0.31758,0.95347 -1.58219,2.81614 -2.53125,4.28125 -0.0612,0.9744 -0.0577,1.9482 0.0625,2.9375 1.59781,1.39047 4.55784,2.451439 6.96875,3.46875 0.99952,-0.415702 1.91915,-0.840829 2.5625,-1.375 0.1571,-0.91653 0.1406,-1.7255 0.0625,-2.53125 -0.78289,-1.0445 -1.65985,-2.26031 -1.875,-2.90625 -0.0694,-0.31812 -0.0988,-0.53048 -0.15625,-0.8125 -0.008,-0.0088 -0.0232,-0.02225 -0.0312,-0.03125 -0.24058,-0.27087 -0.48169,-0.61965 -0.65625,-1.03125 -0.45269,-1.06743 -0.3825,-2.10425 0.125,-2.375 -0.0357,-0.42697 -0.0545,-0.81298 -0.0625,-1.15625 0,-2.99532 2.60569,-5.4375 5.8125,-5.4375 3.20682,0 5.8125,2.44217 5.8125,5.4375 -0.0127,0.37644 -0.0632,0.7783 -0.0937,1.21875 0.43815,0.32912 0.49239,1.29882 0.0625,2.3125 -0.15516,0.36587 -0.35231,0.68039 -0.5625,0.9375 -0.068,0.318 -0.1,0.56717 -0.1875,0.9375 -0.23818,0.7151 -1.1632,2.11991 -1.875,3.21875 -0.0459,0.7308 -0.0589,1.47678 0.0312,2.21875 2.22581,1.93697 8.02225,2.96722 8.03125,4.625 L 167,60.46875 c 0,1.01728 -1.51441,1.92514 -3.90625,2.5625 l -0.4375,1.4375 a 0.84317393,0.843822 0 0 1 -0.5,0.53125 c -0.10882,0.04212 -0.1705,0.13205 -0.46875,0.21875 C 160.11641,65.67522 157.68988,66 155,66 c -2.51238,0 -4.74599,-0.278913 -6.3125,-0.6875 l -0.46875,1.65625 a 1.1242319,1.125096 0 0 1 -0.65625,0.71875 c -0.1451,0.05616 -0.25859,0.16571 -0.65625,0.28125 C 144.81146,68.57738 141.58651,69 138,69 c -3.58651,0 -6.78021,-0.42262 -8.875,-1.03125 -0.39766,-0.11554 -0.51115,-0.22505 -0.65625,-0.28125 a 1.1242319,1.125096 0 0 1 -0.6875,-0.75 L 127.375,65.28125 C 125.80443,65.695778 123.53462,66 121,66 118.31012,66 115.91484,65.67522 114.34375,65.21875 114.0455,65.1321 113.98382,65.0421 113.875,65 a 0.84317393,0.843822 0 0 1 -0.53125,-0.5625 L 113,63.0625 c -2.45175,-0.63836 -4,-1.56194 -4,-2.59375 l 0.78125,-5.0625 c -0.009,-1.93697 5.74656,-2.75398 8,-4.625 0.1571,-0.91653 0.1406,-1.7255 0.0625,-2.53125 -0.78289,-1.0445 -1.65985,-2.26031 -1.875,-2.90625 -0.0695,-0.31812 -0.0988,-0.53048 -0.15625,-0.8125 -0.008,-0.0088 -0.0233,-0.02225 -0.0312,-0.03125 -0.24058,-0.27087 -0.48169,-0.61965 -0.65625,-1.03125 -0.45269,-1.06743 -0.3825,-2.10425 0.125,-2.375 -0.0357,-0.42697 -0.0545,-0.81298 -0.0625,-1.15625 0,-2.99532 2.60569,-5.4375 5.8125,-5.4375 3.20682,0 5.8125,2.44217 5.8125,5.4375 -0.0127,0.37644 -0.0631,0.7783 -0.0937,1.21875 0.43815,0.32912 0.49239,1.29882 0.0625,2.3125 -0.15516,0.36587 -0.35231,0.68039 -0.5625,0.9375 -0.068,0.318 -0.1,0.56717 -0.1875,0.9375 -0.23818,0.7151 -1.1632,2.11991 -1.875,3.21875 -0.0459,0.7308 -0.0589,1.47678 0.0312,2.21875 0.56995,0.49599 1.36884,0.938591 2.25,1.34375 2.44969,-1.03953 5.58983,-2.033128 7.28125,-3.4375 0.20939,-1.22203 0.19785,-2.26942 0.0937,-3.34375 -1.04386,-1.39267 -2.24438,-3.01374 -2.53125,-3.875 -0.0926,-0.42416 -0.14215,-0.71772 -0.21875,-1.09375 -0.0107,-0.0118 -0.0205,-0.01925 -0.0312,-0.03125 -0.32077,-0.36116 -0.64226,-0.82619 -0.875,-1.375 -0.60358,-1.42323 -0.52042,-2.82649 0.15625,-3.1875 -0.0476,-0.56929 -0.0521,-1.10481 -0.0625,-1.5625 C 130.25,30.22497 133.72425,27 138,27 z"
         id="path3849" />
    </clipPath>
    <linearGradient
       inkscape:collect="always"
       xlink:href="#linearGradient3853"
       id="linearGradient2866"
       gradientUnits="userSpaceOnUse"
       gradientTransform="matrix(0.27586208,0,0,0.28571463,-2.2413954,-1.7142835)"
       x1="48"
       y1="27"
       x2="48"
       y2="69" />
    <linearGradient
       inkscape:collect="always"
       xlink:href="#linearGradient3853"
       id="linearGradient2870"
       gradientUnits="userSpaceOnUse"
       gradientTransform="matrix(0.27586208,0,0,0.28571463,-2.2413954,-2.7142835)"
       x1="48"
       y1="27"
       x2="48"
       y2="69" />
    <linearGradient
       y2="16"
       x2="10"
       y1="1"
       x1="10"
       gradientUnits="userSpaceOnUse"
       id="linearGradient3078"
       xlink:href="#linearGradient3823"
       inkscape:collect="always"
       gradientTransform="translate(1,-1)" />
    <linearGradient
       id="linearGradient3823">
      <stop
         id="stop3825"
         offset="0"
         style="stop-color:#ffffff;stop-opacity:1;" />
      <stop
         id="stop3829"
         offset="1"
         style="stop-color:#ffffff;stop-opacity:0;" />
    </linearGradient>
    <linearGradient
       inkscape:collect="always"
       xlink:href="#linearGradient3831"
       id="linearGradient3845"
       x1="11"
       y1="19.5"
       x2="21"
       y2="19.5"
       gradientUnits="userSpaceOnUse"
       spreadMethod="reflect" />
    <linearGradient
       id="linearGradient3831">
      <stop
         style="stop-color:#ffffff;stop-opacity:1;"
         offset="0"
         id="stop3833" />
      <stop
         id="stop3821"
         offset="0.75"
         style="stop-color:#ffffff;stop-opacity:0.49803922;" />
      <stop
         style="stop-color:#ffffff;stop-opacity:0;"
         offset="1"
         id="stop3835" />
    </linearGradient>
    <linearGradient
       y2="16"
       x2="10"
       y1="1"
       x1="10"
       gradientUnits="userSpaceOnUse"
       id="linearGradient3892"
       xlink:href="#linearGradient3823"
       inkscape:collect="always" />
    <linearGradient
       inkscape:collect="always"
       xlink:href="#linearGradient3853"
       id="linearGradient3846"
       x1="8"
       y1="8"
       x2="8"
       y2="16"
       gradientUnits="userSpaceOnUse"
       gradientTransform="translate(-30,0)" />
    <linearGradient
       inkscape:collect="always"
       xlink:href="#linearGradient3853"
       id="linearGradient3848"
       x1="11"
       y1="6"
       x2="11"
       y2="17"
       gradientUnits="userSpaceOnUse"
       gradientTransform="translate(-30,0)" />
    <linearGradient
       inkscape:collect="always"
       xlink:href="#linearGradient3853"
       id="linearGradient3890"
       gradientUnits="userSpaceOnUse"
       x1="8"
       y1="8"
       x2="8"
       y2="16" />
    <linearGradient
       inkscape:collect="always"
       xlink:href="#linearGradient3853"
       id="linearGradient3894"
       gradientUnits="userSpaceOnUse"
       x1="8"
       y1="8"
       x2="8"
       y2="16" />
    <linearGradient
       inkscape:collect="always"
       xlink:href="#linearGradient3853"
       id="linearGradient3896"
       gradientUnits="userSpaceOnUse"
       x1="8"
       y1="8"
       x2="8"
       y2="16" />
    <linearGradient
       inkscape:collect="always"
       xlink:href="#linearGradient3853"
       id="linearGradient3824"
       gradientUnits="userSpaceOnUse"
       gradientTransform="matrix(0.2142513,0,0,0.20690011,0.71593741,2.6683282)"
       x1="56"
       y1="16"
       x2="56"
       y2="64.435303" />
    <linearGradient
       id="StandardGradient-3"
       gradientTransform="scale(0.9219544,1.0846523)"
       x1="11.998966"
       y1="0.92195445"
       x2="11.998966"
       y2="19.387045"
       gradientUnits="userSpaceOnUse">
      <stop
         style="stop-color:#000000;stop-opacity:0.86274511;"
         offset="0"
         id="stop3283-5" />
      <stop
         style="stop-color:#000000;stop-opacity:0.47058824;"
         offset="1"
         id="stop2651-2" />
    </linearGradient>
    <linearGradient
       inkscape:collect="always"
       xlink:href="#linearGradient3853"
       id="linearGradient3936"
       gradientUnits="userSpaceOnUse"
       gradientTransform="matrix(0.12855078,0,0,0.12414007,0.5438478,8.0009965)"
       x1="56"
       y1="16"
       x2="56"
       y2="80" />
    <linearGradient
       inkscape:collect="always"
       xlink:href="#linearGradient3853"
       id="linearGradient3938"
       gradientUnits="userSpaceOnUse"
       gradientTransform="matrix(0.12855078,0,0,0.12414007,-0.45615222,8.0009965)"
       x1="56"
       y1="16"
       x2="56"
       y2="80" />
    <linearGradient
       inkscape:collect="always"
       xlink:href="#linearGradient3853"
       id="linearGradient3955"
       gradientUnits="userSpaceOnUse"
       gradientTransform="matrix(0.12855078,0,0,0.12414007,-0.45615222,8.0009965)"
       x1="56"
       y1="16"
       x2="56"
       y2="80" />
    <linearGradient
       inkscape:collect="always"
       xlink:href="#linearGradient3853"
       id="linearGradient3958"
       gradientUnits="userSpaceOnUse"
       gradientTransform="matrix(0.12855078,0,0,0.12414007,-0.45615222,8.0009965)"
       x1="56"
       y1="16"
       x2="56"
       y2="80" />
    <linearGradient
       inkscape:collect="always"
       xlink:href="#linearGradient3853"
       id="linearGradient3968"
       gradientUnits="userSpaceOnUse"
       gradientTransform="matrix(0.12855078,0,0,0.12414007,-0.45615222,8.0009965)"
       x1="56"
       y1="16"
       x2="56"
       y2="80" />
  </defs>
  <sodipodi:namedview
     id="base"
     pagecolor="#ffffff"
     bordercolor="#e7e7e7"
     borderopacity="1"
     inkscape:pageopacity="0.0"
     inkscape:pageshadow="2"
     inkscape:zoom="17.365065"
     inkscape:cx="-12.731547"
     inkscape:cy="1.3561358"
     inkscape:document-units="px"
     inkscape:current-layer="layer3"
     showgrid="true"
     inkscape:showpageshadow="false"
     showguides="false"
     inkscape:guide-bbox="true"
     inkscape:window-width="1920"
     inkscape:window-height="1030"
     inkscape:window-x="0"
     inkscape:window-y="25"
     inkscape:window-maximized="1">
    <sodipodi:guide
       orientation="1,0"
       position="0,112"
       id="guide2383" />
    <sodipodi:guide
       orientation="0,1"
       position="26.278146,128"
       id="guide2385" />
    <sodipodi:guide
       orientation="1,0"
       position="128,54.082119"
       id="guide2387" />
    <sodipodi:guide
       orientation="0,1"
       position="78.156291,0"
       id="guide2389" />
    <sodipodi:guide
       orientation="0,1"
       position="60.863576,64.084768"
       id="guide2391" />
    <inkscape:grid
       type="xygrid"
       id="grid3672"
       visible="true"
       enabled="true" />
  </sodipodi:namedview>
  <metadata
     id="metadata7">
    <rdf:RDF>
      <cc:Work
         rdf:about="">
        <dc:format>image/svg+xml</dc:format>
        <dc:type
           rdf:resource="http://purl.org/dc/dcmitype/StillImage" />
        <dc:title />
      </cc:Work>
    </rdf:RDF>
  </metadata>
  <g
     inkscape:label="Button"
     inkscape:groupmode="layer"
     id="layer1">
    <g
       style="display:inline"
       id="g3337">
      <rect
         ry="2.5"
         rx="2.5"
         y="0.5"
         x="0.5"
         height="21.5"
         width="21"
         id="rect3371"
         style="opacity:0.3;fill:url(#linearGradient3335);fill-opacity:1;stroke:none;display:inline" />
      <rect
         style="opacity:0.5;fill:#000000;fill-opacity:1;stroke:none;display:inline"
         id="rect2553"
         width="20"
         height="20"
         x="1"
         y="2"
         rx="2.3809524"
         ry="2.3255813" />
    </g>
    <rect
       style="fill:url(#linearGradient3181);fill-opacity:1;fill-rule:evenodd;stroke:none;display:inline"
       id="rect3173"
       width="20"
       height="20"
       x="1"
       y="1"
       rx="2"
       ry="2" />
    <path
       style="opacity:0.4;fill:url(#linearGradient3892);fill-opacity:1;fill-rule:evenodd;stroke:none;display:inline"
       d="M 3,1 C 1.892,1 1,1.892 1,3 l 0,16 c 0,1.108 0.892,2 2,2 l 16,0 c 1.108,0 2,-0.892 2,-2 L 21,3 C 21,1.892 20.108,1 19,1 L 3,1 z m 0,1.03125 16,0 c 0.5497,0 0.96875,0.4190495 0.96875,0.96875 l 0,16 c 0,0.5497 -0.41905,0.96875 -0.96875,0.96875 l -16,0 C 2.4502995,19.96875 2.03125,19.5497 2.03125,19 l 0,-16 C 2.03125,2.4502995 2.4502995,2.03125 3,2.03125 z"
       id="rect3050"
       inkscape:connector-curvature="0" />
    <path
       id="path3235"
       d="M 3,21 C 1.892,21 1,20.108 1,19 l 0,-1 c 0,1.108 0.892,2 2,2 l 16,0 c 1.108,0 2,-0.892 2,-2 l 0,1 c 0,1.108 -0.892,2 -2,2 L 3,21 z"
       style="opacity:0.25;fill:url(#linearGradient3845);fill-opacity:1;fill-rule:evenodd;stroke:none;display:inline"
       inkscape:connector-curvature="0" />
  </g>
  <g
     inkscape:groupmode="layer"
     id="layer2"
     inkscape:label="Highlight"
     sodipodi:insensitive="true">
    <rect
       style="opacity:0.15;fill:#ffffff;fill-opacity:1;fill-rule:nonzero;stroke:none;display:inline;filter:url(#filter3194)"
       id="rect2410"
       width="16"
       height="16"
       x="3"
       y="3"
       rx="2"
       ry="2"
       clip-path="url(#clipPath2849)" />
  </g>
  <g
     inkscape:groupmode="layer"
     id="layer3"
     inkscape:label="Symbol">
    <path
       style="opacity:0.15;fill:#ffffff;fill-opacity:1;stroke:none;display:inline;enable-background:new"
       d="M 11 5.0625 C 9.0609844 5.0625 7.34375 6.5026499 7.34375 8.40625 A 0.92988813 0.92988813 0 0 0 7.34375 8.4375 C 7.3455329 8.5129442 7.3393262 8.6052636 7.34375 8.6875 C 7.2406041 8.9065721 7.1920436 9.1245203 7.1875 9.3125 C 7.1845355 9.435149 7.2646048 9.539263 7.28125 9.65625 C 6.8337994 9.3257347 6.3037834 9.0625 5.71875 9.0625 C 4.382196 9.0625 3.15625 10.073121 3.15625 11.4375 A 0.92988813 0.92988813 0 0 0 3.15625 11.46875 C 3.1561122 11.462915 3.1485063 11.614204 3.15625 11.78125 C 3.1492194 11.83364 3.0647695 11.891575 3.0625 11.9375 C 3.0476769 12.237462 3.1009918 12.515661 3.21875 12.78125 C 3.2660353 12.887898 3.319531 12.947755 3.375 13.03125 C 3.3818899 13.049995 3.4069043 13.127866 3.40625 13.125 A 0.92988813 0.92988813 0 0 0 3.4375 13.21875 C 3.5398986 13.512808 3.6341262 13.617022 3.75 13.78125 C 3.7584786 13.793267 3.7726799 13.800524 3.78125 13.8125 C 3.5639312 13.908394 3.4357229 13.974905 3.125 14.09375 C 2.8660642 14.192788 2.5843393 14.296516 2.3125 14.46875 C 2.0706868 14.62196 1.7627356 14.942353 1.6875 15.4375 L 1.65625 15.4375 L 1.625 15.5625 C 1.6247379 15.574221 1.6249444 15.581828 1.625 15.59375 L 1.59375 15.84375 A 0.92988813 0.92988813 0 0 0 2.5 16.9375 L 5.65625 16.9375 L 8.9375 16.9375 L 13 16.9375 L 16.34375 16.9375 L 19.4375 16.9375 A 0.92988813 0.92988813 0 0 0 20.34375 15.84375 L 20.3125 15.59375 L 20.3125 15.5625 L 20.28125 15.4375 L 20.25 15.4375 C 20.20121 15.185268 20.116012 14.939933 20 14.8125 C 19.854984 14.653209 19.692944 14.545663 19.5625 14.46875 C 19.301612 14.314924 19.06923 14.225288 18.8125 14.125 C 18.514746 14.008686 18.37354 13.944589 18.15625 13.84375 C 18.164941 13.830775 18.178858 13.825539 18.1875 13.8125 C 18.299845 13.642994 18.399855 13.50634 18.5 13.21875 A 0.92988813 0.92988813 0 0 0 18.53125 13.125 C 18.547029 13.061144 18.551499 13.019796 18.5625 12.96875 C 18.614645 12.896161 18.639936 12.888522 18.6875 12.78125 C 18.804424 12.517538 18.863199 12.256508 18.84375 11.96875 C 18.840419 11.919463 18.758128 11.865571 18.75 11.8125 C 18.756759 11.743394 18.775039 11.643526 18.78125 11.46875 A 0.92988813 0.92988813 0 0 0 18.78125 11.4375 C 18.781241 10.073128 17.555304 9.0625 16.21875 9.0625 C 15.654125 9.0625 15.158221 9.3466438 14.71875 9.65625 C 14.730816 9.5500887 14.7856 9.4523114 14.78125 9.34375 C 14.777252 9.24399 14.647841 9.1396824 14.625 9.03125 C 14.640055 8.8241453 14.649762 8.6199699 14.65625 8.4375 A 0.92988813 0.92988813 0 0 0 14.65625 8.40625 C 14.656259 6.502645 12.939016 5.0625 11 5.0625 z M 5.71875 10 C 6.615965 10 7.3437492 10.635917 7.34375 11.4375 C 7.340172 11.538239 7.32107 11.66338 7.3125 11.78125 C 7.4350855 11.869327 7.4640266 12.134979 7.34375 12.40625 C 7.3003373 12.504161 7.246308 12.5562 7.1875 12.625 C 7.168469 12.7101 7.149491 12.80714 7.125 12.90625 C 7.0583608 13.097619 6.7928993 13.45594 6.59375 13.75 C 6.580915 13.945569 6.568534 14.145192 6.59375 14.34375 C 7.2164944 14.862107 8.87244 15.150108 8.875 15.59375 L 8.9375 16 L 2.5 16 L 2.5625 15.59375 C 2.5600834 15.075394 4.1820264 14.844456 4.8125 14.34375 C 4.856441 14.098477 4.865599 13.903129 4.84375 13.6875 C 4.6247081 13.407982 4.372695 13.079112 4.3125 12.90625 C 4.293068 12.821117 4.266069 12.76298 4.25 12.6875 C 4.1826891 12.615014 4.111338 12.5164 4.0625 12.40625 C 3.935845 12.120595 3.9517574 11.82246 4.09375 11.75 C 4.08377 11.635738 4.09592 11.52936 4.09375 11.4375 C 4.09375 10.635917 4.8215353 10 5.71875 10 z M 16.21875 10 C 17.115965 10 17.843745 10.635917 17.84375 11.4375 C 17.84017 11.538239 17.8211 11.66338 17.8125 11.78125 C 17.93508 11.869327 17.964026 12.134979 17.84375 12.40625 C 17.800337 12.504161 17.74631 12.5562 17.6875 12.625 C 17.66847 12.7101 17.64949 12.80714 17.625 12.90625 C 17.558361 13.097619 17.292899 13.45594 17.09375 13.75 C 17.08091 13.945569 17.06853 14.145192 17.09375 14.34375 C 17.716494 14.862107 19.3724 15.150108 19.375 15.59375 L 19.4375 16 L 13 16 L 13.0625 15.59375 C 13.060083 15.075394 14.682027 14.844456 15.3125 14.34375 C 15.35644 14.098477 15.3656 13.903129 15.34375 13.6875 C 15.124708 13.407982 14.8727 13.079112 14.8125 12.90625 C 14.79306 12.821117 14.76607 12.76298 14.75 12.6875 C 14.682689 12.615014 14.61134 12.5164 14.5625 12.40625 C 14.435847 12.120595 14.451758 11.82246 14.59375 11.75 C 14.58375 11.635738 14.59595 11.52936 14.59375 11.4375 C 14.59375 10.635917 15.321536 10 16.21875 10 z M 8.3125 12.0625 C 8.398701 12.184082 8.5035023 12.287126 8.59375 12.40625 C 8.5987763 12.488727 8.5950893 12.576329 8.59375 12.65625 C 8.4909276 12.714554 8.2727778 12.808742 8.125 12.875 C 8.1518584 12.829464 8.1637171 12.834889 8.1875 12.78125 C 8.2905791 12.548766 8.314136 12.312494 8.3125 12.0625 z M 13.625 12.21875 C 13.647491 12.405215 13.640507 12.604779 13.71875 12.78125 C 13.619557 12.741327 13.471022 12.725554 13.40625 12.6875 C 13.405407 12.646186 13.405756 12.603929 13.40625 12.5625 C 13.480454 12.451099 13.549687 12.336258 13.625 12.21875 z "
       id="path3960" />
    <path
       style="opacity:0.4;fill:url(#linearGradient3938);fill-opacity:1;stroke:none;display:inline;enable-background:new"
       d="m 5.71875,10 c -0.8972147,0 -1.625,0.635917 -1.625,1.4375 0.00217,0.09186 -0.00998,0.198238 0,0.3125 -0.1419926,0.07246 -0.157905,0.370595 -0.03125,0.65625 0.048838,0.11015 0.1201891,0.208764 0.1875,0.28125 0.016069,0.07548 0.043068,0.133617 0.0625,0.21875 0.060195,0.172862 0.3122081,0.501732 0.53125,0.78125 0.021849,0.215629 0.012691,0.410977 -0.03125,0.65625 -0.6304736,0.500706 -2.2524166,0.731644 -2.25,1.25 L 2.5,16 8.9375,16 8.875,15.59375 C 8.87244,15.150108 7.2164944,14.862107 6.59375,14.34375 6.568534,14.145192 6.580915,13.945569 6.59375,13.75 6.7928993,13.45594 7.0583608,13.097619 7.125,12.90625 7.149491,12.80714 7.168469,12.7101 7.1875,12.625 7.246308,12.5562 7.3003373,12.504161 7.34375,12.40625 7.4640266,12.134979 7.4350855,11.869327 7.3125,11.78125 7.32107,11.66338 7.340172,11.538239 7.34375,11.4375 7.3437492,10.635917 6.615965,10 5.71875,10 z"
       id="path3933"
       inkscape:connector-curvature="0" />
    <path
       style="opacity:0.4;fill:url(#linearGradient3936);fill-opacity:1;stroke:none;display:inline;enable-background:new"
       d="m 16.21875,10 c -0.897214,0 -1.625,0.635917 -1.625,1.4375 0.0022,0.09186 -0.01,0.198238 0,0.3125 -0.141992,0.07246 -0.157903,0.370595 -0.03125,0.65625 0.04884,0.11015 0.120189,0.208764 0.1875,0.28125 0.01607,0.07548 0.04306,0.133617 0.0625,0.21875 0.0602,0.172862 0.312208,0.501732 0.53125,0.78125 0.02185,0.215629 0.01269,0.410977 -0.03125,0.65625 -0.630473,0.500706 -2.252417,0.731644 -2.25,1.25 L 13,16 19.4375,16 19.375,15.59375 c -0.0026,-0.443642 -1.658506,-0.731643 -2.28125,-1.25 -0.02522,-0.198558 -0.01284,-0.398181 0,-0.59375 0.199149,-0.29406 0.464611,-0.652381 0.53125,-0.84375 0.02449,-0.09911 0.04347,-0.19615 0.0625,-0.28125 0.05881,-0.0688 0.112837,-0.120839 0.15625,-0.21875 0.120276,-0.271271 0.09133,-0.536923 -0.03125,-0.625 0.0086,-0.11787 0.02767,-0.243011 0.03125,-0.34375 C 17.843745,10.635917 17.115965,10 16.21875,10 z"
       id="path3847"
       inkscape:connector-curvature="0" />
    <path
       style="opacity:0.2;fill:#000000;fill-opacity:1;stroke:none;display:inline;enable-background:new"
       d="m 5.71875,10 c -0.8972147,0 -1.625,0.635917 -1.625,1.4375 0.00217,0.09186 -0.00998,0.198238 0,0.3125 -0.1419926,0.07246 -0.157905,0.370595 -0.03125,0.65625 0.048838,0.11015 0.1201891,0.208764 0.1875,0.28125 0.016069,0.07548 0.043068,0.133617 0.0625,0.21875 0.060195,0.172862 0.3122081,0.501732 0.53125,0.78125 0.021849,0.215629 0.012691,0.410977 -0.03125,0.65625 -0.6304736,0.500706 -2.2524166,0.731644 -2.25,1.25 L 2.5,16 8.9375,16 8.875,15.59375 C 8.87244,15.150108 7.2164944,14.862107 6.59375,14.34375 6.568534,14.145192 6.580915,13.945569 6.59375,13.75 6.7928993,13.45594 7.0583608,13.097619 7.125,12.90625 7.149491,12.80714 7.168469,12.7101 7.1875,12.625 7.246308,12.5562 7.3003373,12.504161 7.34375,12.40625 7.4640266,12.134979 7.4350855,11.869327 7.3125,11.78125 7.32107,11.66338 7.340172,11.538239 7.34375,11.4375 7.3437492,10.635917 6.615965,10 5.71875,10 z m 0,0.5 c 0.6457536,0 1.1075371,0.422437 1.125,0.90625 3.456e-4,0.0096 0,0.02163 0,0.03125 C 6.83963,11.49658 6.822173,11.61696 6.8125,11.75 a 0.50518134,0.50518134 0 0 0 0.09375,0.34375 C 6.9041,12.12022 6.8974,12.13698 6.875,12.1875 6.86765,12.20407 6.888854,12.1919 6.8125,12.28125 A 0.50518134,0.50518134 0 0 0 6.6875,12.5 C 6.6662293,12.595115 6.6456489,12.697688 6.625,12.78125 6.6102008,12.80811 6.5791243,12.880618 6.5,13 6.4073413,13.139803 6.2920917,13.314312 6.1875,13.46875 a 0.50518134,0.50518134 0 0 0 -0.09375,0.25 c -0.012916,0.196801 -0.03315,0.426466 0,0.6875 a 0.50518134,0.50518134 0 0 0 0.1875,0.3125 c 0.4452222,0.370592 1.0194318,0.562274 1.5,0.75 0.027249,0.01064 0.03609,0.0207 0.0625,0.03125 L 3.5,15.5 C 3.550922,15.47911 3.569604,15.45869 3.625,15.4375 4.0905876,15.259422 4.6741839,15.108027 5.125,14.75 A 0.50518134,0.50518134 0 0 0 5.3125,14.4375 C 5.362502,14.158393 5.370111,13.885157 5.34375,13.625 A 0.50518134,0.50518134 0 0 0 5.25,13.375 C 5.1417919,13.236916 5.0256476,13.093682 4.9375,12.96875 4.8636466,12.864078 4.823338,12.797401 4.8125,12.78125 4.8063163,12.754159 4.7869546,12.771398 4.78125,12.75 4.7584315,12.664408 4.7524593,12.605302 4.75,12.59375 a 0.50518134,0.50518134 0 0 0 -0.125,-0.25 C 4.592017,12.30823 4.551477,12.23312 4.53125,12.1875 4.503313,12.12449 4.471271,12.09552 4.46875,12.0625 a 0.50518134,0.50518134 0 0 0 0.125,-0.34375 c -0.00452,-0.05179 0.00344,-0.135681 0,-0.28125 0,-0.495832 0.4664657,-0.9375 1.125,-0.9375 z"
       id="path3920"
       inkscape:connector-curvature="0" />
    <path
       style="opacity:0.2;fill:#000000;fill-opacity:1;stroke:none;display:inline;enable-background:new"
       d="m 16.21875,10 c -0.897214,0 -1.625,0.635917 -1.625,1.4375 0.0022,0.09186 -0.01,0.198238 0,0.3125 -0.141992,0.07246 -0.157903,0.370595 -0.03125,0.65625 0.04884,0.11015 0.120189,0.208764 0.1875,0.28125 0.01607,0.07548 0.04306,0.133617 0.0625,0.21875 0.0602,0.172862 0.312208,0.501732 0.53125,0.78125 0.02185,0.215629 0.01269,0.410977 -0.03125,0.65625 -0.630473,0.500706 -2.252417,0.731644 -2.25,1.25 L 13,16 19.4375,16 19.375,15.59375 c -0.0026,-0.443642 -1.658506,-0.731643 -2.28125,-1.25 -0.02522,-0.198558 -0.01284,-0.398181 0,-0.59375 0.199149,-0.29406 0.464611,-0.652381 0.53125,-0.84375 0.02449,-0.09911 0.04347,-0.19615 0.0625,-0.28125 0.05881,-0.0688 0.112837,-0.120839 0.15625,-0.21875 0.120276,-0.271271 0.09133,-0.536923 -0.03125,-0.625 0.0086,-0.11787 0.02767,-0.243011 0.03125,-0.34375 C 17.843745,10.635917 17.115965,10 16.21875,10 z m 0,0.5 c 0.645754,0 1.107535,0.422434 1.125,0.90625 3.46e-4,0.0096 0,0.02163 0,0.03125 -0.0041,0.05916 -0.02155,0.179626 -0.03125,0.3125 a 0.50518134,0.50518134 0 0 0 0.09375,0.34375 c -0.0021,0.02647 -0.0089,0.04324 -0.03125,0.09375 -0.0074,0.01658 0.01385,0.0044 -0.0625,0.09375 A 0.50518134,0.50518134 0 0 0 17.1875,12.5 C 17.16623,12.5951 17.14565,12.697679 17.125,12.78125 17.1102,12.80811 17.07912,12.88062 17,13 c -0.09266,0.139803 -0.207908,0.314312 -0.3125,0.46875 a 0.50518134,0.50518134 0 0 0 -0.09375,0.25 c -0.01292,0.196811 -0.03316,0.426461 0,0.6875 a 0.50518134,0.50518134 0 0 0 0.1875,0.3125 c 0.445218,0.370589 1.019436,0.562274 1.5,0.75 0.02725,0.01064 0.03609,0.0207 0.0625,0.03125 L 14,15.5 c 0.05092,-0.02089 0.0696,-0.04131 0.125,-0.0625 0.465588,-0.178078 1.049184,-0.329473 1.5,-0.6875 a 0.50518134,0.50518134 0 0 0 0.1875,-0.3125 c 0.05,-0.279104 0.05761,-0.552339 0.03125,-0.8125 A 0.50518134,0.50518134 0 0 0 15.75,13.375 C 15.641793,13.236918 15.525647,13.093682 15.4375,12.96875 15.36365,12.864077 15.323341,12.79741 15.3125,12.78125 15.3063,12.75417 15.28695,12.77135 15.28125,12.75 15.25844,12.66444 15.25247,12.605335 15.25,12.59375 a 0.50518134,0.50518134 0 0 0 -0.125,-0.25 c -0.03298,-0.03552 -0.07352,-0.11062 -0.09375,-0.15625 -0.02794,-0.06301 -0.05998,-0.09198 -0.0625,-0.125 a 0.50518134,0.50518134 0 0 0 0.125,-0.34375 c -0.0045,-0.05159 0.0035,-0.135372 0,-0.28125 0,-0.495832 0.466467,-0.9375 1.125,-0.9375 z"
       id="path3918"
       inkscape:connector-curvature="0" />
    <path
       style="fill:url(#linearGradient3859);fill-opacity:1;stroke:none"
       d="m 10.999985,25.500011 c -1.179518,0 -2.1379315,0.883029 -2.1379315,1.976565 0.00282,0.12532 0.00416,0.271951 0.017243,0.427827 -0.1866676,0.09885 -0.209609,0.483075 -0.043107,0.872769 0.06421,0.15027 0.1528893,0.2776 0.2413785,0.376489 0.003,0.0033 0.0057,0.0053 0.0086,0.0086 0.02113,0.102961 0.0348,0.18334 0.06034,0.299479 0.07914,0.235822 0.410315,0.679688 0.698276,1.061013 0.02872,0.294164 0.03192,0.58095 -0.02586,0.915553 -0.466597,0.384532 -1.3328442,0.656587 -2.008621,0.941221 -0.2430789,-0.110937 -0.463462,-0.232125 -0.6206888,-0.367931 -0.02486,-0.20316 -0.021283,-0.407416 -0.00862,-0.607517 0.1963583,-0.300873 0.4515347,-0.685524 0.5172414,-0.881326 0.024154,-0.101398 0.032972,-0.169623 0.051729,-0.256695 0.057981,-0.0704 0.1123685,-0.156519 0.1551722,-0.256697 0.118591,-0.277556 0.103627,-0.543069 -0.017235,-0.633185 0.00844,-0.1206 0.022334,-0.230634 0.025864,-0.333706 0,-0.820152 -0.7188103,-1.488842 -1.6034484,-1.488842 -0.8846382,0 -1.6034485,0.668693 -1.6034485,1.488842 0.0022,0.09399 0.00737,0.199683 0.017235,0.316593 -0.1400003,0.07414 -0.1593621,0.358024 -0.034478,0.650298 0.048152,0.1127 0.1146678,0.208199 0.1810343,0.282366 0.0022,0.0025 0.00635,0.0061 0.00863,0.0085 0.015839,0.07722 0.023942,0.135366 0.043107,0.222471 0.059354,0.176864 0.3012703,0.509765 0.5172414,0.795759 0.021534,0.220623 0.026092,0.442127 -0.017243,0.69308 -0.6216388,0.512304 -2.2092791,0.73601 -2.2068959,1.266372 L 3,34.664064 c 0,0.28252 0.4271044,0.535405 1.1034483,0.710194 l 0.094828,0.376489 a 0.23259972,0.23104678 0 0 0 0.1465515,0.154017 c 0.030022,0.01154 0.047038,0.03617 0.129311,0.0599 0.4334038,0.124985 1.0941702,0.213913 1.8362059,0.213913 0.6992053,0 1.325362,-0.0833 1.7586214,-0.1968 l 0.1120696,0.453496 a 0.31013294,0.30806237 0 0 0 0.1896541,0.205357 c 0.040032,0.01539 0.071333,0.04537 0.1810351,0.07701 C 9.129597,36.884283 10.010618,37 11,37 c 0.989383,0 1.879026,-0.115717 2.456898,-0.282365 0.109699,-0.03164 0.141006,-0.06164 0.181033,-0.07701 a 0.31013294,0.30806237 0 0 0 0.181034,-0.196767 l 0.129311,-0.453498 c 0.43214,0.111875 1.048307,0.188245 1.741379,0.188245 0.742036,0 1.411423,-0.08893 1.844828,-0.213913 0.08227,-0.02373 0.09929,-0.04836 0.12931,-0.0599 a 0.23259972,0.23104678 0 0 0 0.137931,-0.145463 l 0.12069,-0.393602 C 18.582233,35.191216 19,34.942635 19,34.664094 l -0.215517,-1.386163 c -0.0026,-0.453916 -1.601503,-0.73601 -2.215517,-1.266371 -0.02486,-0.203157 -0.02128,-0.407415 -0.0086,-0.607515 0.196359,-0.300873 0.451535,-0.685524 0.517242,-0.881325 0.02415,-0.101399 0.03297,-0.169625 0.05173,-0.256696 0.05798,-0.0704 0.112368,-0.156519 0.155172,-0.256698 0.118591,-0.277555 0.103627,-0.543069 -0.01723,-0.633184 0.0084,-0.1206 0.02233,-0.230634 0.02586,-0.333707 0,-0.820151 -0.71881,-1.488841 -1.603449,-1.488841 -0.884638,0 -1.603448,0.668693 -1.603448,1.488841 0.0022,0.09399 0.0074,0.199684 0.01723,0.316593 -0.14,0.07414 -0.159362,0.358025 -0.03449,0.650298 0.04815,0.112701 0.114667,0.2082 0.181035,0.282367 0.0022,0.0025 0.0063,0.0061 0.0086,0.0085 0.01585,0.07722 0.02395,0.135366 0.04311,0.22247 0.05935,0.176865 0.301271,0.509765 0.517242,0.79576 0.02153,0.220623 0.02609,0.442126 -0.01724,0.693081 -0.177476,0.146263 -0.431167,0.262667 -0.706897,0.37649 -0.665078,-0.278551 -1.481638,-0.569055 -1.922414,-0.949779 -0.03315,-0.270881 -0.03412,-0.537515 -0.01723,-0.804316 0.261811,-0.401162 0.610668,-0.911179 0.698277,-1.172249 0.0322,-0.135201 0.04395,-0.226167 0.06896,-0.342262 0.07731,-0.09387 0.149826,-0.208689 0.206897,-0.342262 0.158121,-0.37007 0.143916,-0.726944 -0.01723,-0.8471 0.01126,-0.1608 0.02116,-0.316067 0.02586,-0.453498 0,-1.093496 -0.958414,-1.976528 -2.137932,-1.976528 z"
       id="path3813"
       inkscape:connector-curvature="0" />
    <path
       style="opacity:0.3;fill:#ffffff;fill-opacity:1;stroke:none"
       d="m 13.125,28.40625 c -0.05707,0.13938 -0.11019,0.277051 -0.1875,0.375 -0.02501,0.121143 -0.06155,0.20267 -0.09375,0.34375 -0.08761,0.27242 -0.425689,0.800147 -0.6875,1.21875 -0.01689,0.278401 -0.0019,0.561091 0.03125,0.84375 0.01028,0.0093 0.02056,0.02208 0.03125,0.03125 0.24991,-0.396735 0.54529,-0.845892 0.625,-1.09375 0.0322,-0.14108 0.06874,-0.222607 0.09375,-0.34375 0.07731,-0.09795 0.130429,-0.23562 0.1875,-0.375 0.158121,-0.38616 0.161146,-0.74962 0,-0.875 0.003,-0.04474 -0.0027,-0.08132 0,-0.125 z M 8.875,28.5 c -0.1866676,0.103147 -0.197752,0.499612 -0.03125,0.90625 0.06421,0.156803 0.1302608,0.303062 0.21875,0.40625 0.003,0.0035 0.02835,-0.0034 0.03125,0 0.02113,0.107438 0.03696,0.191312 0.0625,0.3125 0.075555,0.234927 0.3781747,0.677529 0.65625,1.0625 C 9.87028,30.838349 9.87247,30.556953 9.84375,30.25 9.555789,29.852095 9.23539,29.371075 9.15625,29.125 9.13071,29.003812 9.11488,28.919938 9.09375,28.8125 9.09085,28.8091 9.0655,28.816 9.0625,28.8125 8.9926828,28.731085 8.9329423,28.615544 8.875,28.5 z M 7.90625,29.71875 C 7.863446,29.823284 7.807981,29.89529 7.75,29.96875 7.731243,30.05961 7.711654,30.144193 7.6875,30.25 c -0.065707,0.204315 -0.3036417,0.592296 -0.5,0.90625 -0.012663,0.208801 -0.02486,0.413007 0,0.625 0.044144,0.03979 0.1030437,0.08752 0.15625,0.125 C 7.501437,31.651337 7.63822,31.403236 7.6875,31.25 7.711654,31.144193 7.731243,31.059608 7.75,30.96875 c 0.057981,-0.07346 0.1134463,-0.145466 0.15625,-0.25 0.118591,-0.289623 0.089612,-0.593466 -0.03125,-0.6875 0.00768,-0.114497 0.026455,-0.213424 0.03125,-0.3125 z m 9.375,0 c -0.0428,0.104534 -0.09827,0.17654 -0.15625,0.25 -0.01876,0.09086 -0.03835,0.175442 -0.0625,0.28125 -0.06571,0.204314 -0.303641,0.592295 -0.5,0.90625 -0.01268,0.2088 -0.02486,0.41301 0,0.625 0.0431,0.03885 0.104339,0.08855 0.15625,0.125 0.157687,-0.254914 0.29447,-0.503014 0.34375,-0.65625 0.02415,-0.105808 0.04374,-0.190393 0.0625,-0.28125 0.05798,-0.07346 0.113446,-0.145466 0.15625,-0.25 0.118591,-0.289623 0.120857,-0.593466 0,-0.6875 0.0076,-0.114404 -0.0048,-0.213494 0,-0.3125 z M 4.71875,29.75 c 0.00273,0.08386 -0.00807,0.181438 0,0.28125 -0.1400003,0.07736 -0.1561341,0.382519 -0.03125,0.6875 0.048152,0.1176 0.1211335,0.203859 0.1875,0.28125 0.015839,0.08058 0.043335,0.159108 0.0625,0.25 0.046922,0.145897 0.2029055,0.380215 0.375,0.625 0.041803,-0.02896 0.089136,-0.06291 0.125,-0.09375 0.043335,-0.261864 0.021534,-0.488535 0,-0.71875 C 5.2215289,30.764071 4.996854,30.434554 4.9375,30.25 4.918335,30.159108 4.890839,30.08058 4.875,30 4.817142,29.932531 4.7645684,29.848449 4.71875,29.75 z m 9.375,0 c 0.0027,0.08386 -0.008,0.181438 0,0.28125 -0.14,0.07736 -0.156122,0.382519 -0.03125,0.6875 0.04815,0.117601 0.121132,0.203858 0.1875,0.28125 0.01585,0.08058 0.04334,0.159109 0.0625,0.25 0.04692,0.145898 0.202905,0.380215 0.375,0.625 0.04225,-0.02887 0.08867,-0.06251 0.125,-0.09375 0.04333,-0.261866 0.02153,-0.488535 0,-0.71875 -0.215971,-0.298429 -0.44065,-0.627945 -0.5,-0.8125 C 14.29334,30.159109 14.26585,30.08058 14.25,30 14.192141,29.93253 14.139567,29.84845 14.09375,29.75 z M 3.125,34.8125 3,35.5625 c 0,0.294803 0.4174061,0.567611 1.09375,0.75 l 0.09375,0.375 a 0.23259972,0.24109229 0 0 0 0.03125,0.0625 0.23259972,0.24109229 0 0 0 0.125,0.09375 c 0.030022,0.01204 0.042727,0.03774 0.125,0.0625 0.4334038,0.130419 1.1017143,0.25 1.84375,0.25 0.6992053,0 1.3167406,-0.100313 1.75,-0.21875 l 0.125,0.46875 A 0.31013294,0.32145639 0 0 0 8.375,37.625 c 0.040032,0.01606 0.077798,0.06073 0.1875,0.09375 C 9.1403721,37.892641 10.010618,38 11,38 c 0.989383,0 1.890878,-0.107356 2.46875,-0.28125 0.109699,-0.03301 0.116223,-0.07771 0.15625,-0.09375 a 0.31013294,0.32145639 0 0 0 0.1875,-0.21875 l 0.125,-0.46875 c 0.43214,0.116739 1.056928,0.21875 1.75,0.21875 0.742036,0 1.410345,-0.119586 1.84375,-0.25 0.08227,-0.02476 0.09498,-0.05046 0.125,-0.0625 a 0.23259972,0.24109229 0 0 0 0.15625,-0.125 l 0.125,-0.4375 C 18.597319,36.099149 19,35.853151 19,35.5625 l -0.125,-0.75 c -0.166763,0.184511 -0.481449,0.342886 -0.9375,0.46875 l -0.125,0.4375 a 0.23259972,0.24109229 0 0 1 -0.15625,0.125 c -0.03002,0.01204 -0.04273,0.03774 -0.125,0.0625 -0.433405,0.130414 -1.101714,0.25 -1.84375,0.25 -0.693072,0 -1.31786,-0.102011 -1.75,-0.21875 l -0.125,0.46875 A 0.31013294,0.32145639 0 0 1 13.625,36.625 c -0.04003,0.01604 -0.04655,0.06074 -0.15625,0.09375 C 12.890878,36.892644 11.989383,37 11,37 10.010618,37 9.1403721,36.892641 8.5625,36.71875 8.4527979,36.68573 8.415032,36.64106 8.375,36.625 A 0.31013294,0.32145639 0 0 1 8.1875,36.40625 L 8.0625,35.9375 c -0.4332594,0.118437 -1.0507947,0.21875 -1.75,0.21875 -0.7420357,0 -1.4103462,-0.119581 -1.84375,-0.25 -0.082273,-0.02476 -0.094978,-0.05046 -0.125,-0.0625 A 0.23259972,0.24109229 0 0 1 4.21875,35.75 0.23259972,0.24109229 0 0 1 4.1875,35.6875 L 4.09375,35.3125 C 3.623691,35.18574 3.2945715,35.001009 3.125,34.8125 z"
       id="path2864"
       inkscape:connector-curvature="0" />
    <path
       style="fill:#000000;fill-opacity:1;stroke:none"
       d="m 11,25.5 c -1.179518,0 -2.125,0.883026 -2.125,1.976562 0.00282,0.125321 -0.013083,0.263395 0,0.419271 -0.1866676,0.09885 -0.197752,0.478795 -0.03125,0.86849 0.06421,0.150269 0.1302608,0.290434 0.21875,0.389323 0.003,0.0033 0.02835,-0.0033 0.03125,0 0.02113,0.102961 0.03696,0.18334 0.0625,0.299479 0.07914,0.235822 0.399539,0.696799 0.6875,1.078125 0.02872,0.294163 0.02653,0.563834 -0.03125,0.898438 -0.466597,0.384532 -1.3242232,0.673699 -2,0.958333 -0.2430789,-0.110937 -0.4677732,-0.253517 -0.625,-0.389323 -0.02486,-0.20316 -0.012663,-0.398857 0,-0.598958 0.1963583,-0.300873 0.4342933,-0.672688 0.5,-0.86849 0.024154,-0.101398 0.043743,-0.182459 0.0625,-0.269531 0.057981,-0.0704 0.1134463,-0.139406 0.15625,-0.239584 0.118591,-0.277555 0.089612,-0.568738 -0.03125,-0.658854 0.00844,-0.1206 0.02772,-0.226354 0.03125,-0.329427 0,-0.820151 -0.7091119,-1.467448 -1.59375,-1.467448 -0.8846382,0 -1.59375,0.6473 -1.59375,1.467448 0.0022,0.09399 -0.00986,0.212517 0,0.329427 -0.1400003,0.07414 -0.1561341,0.366581 -0.03125,0.658854 0.048152,0.112701 0.1211335,0.195365 0.1875,0.269532 0.015839,0.07722 0.043335,0.152478 0.0625,0.239583 0.059354,0.176864 0.2840289,0.492651 0.5,0.778646 0.021534,0.220623 0.043335,0.437849 0,0.688802 -0.6216388,0.512304 -2.2211332,0.757399 -2.21875,1.28776 L 3,34.664063 c 0,0.282519 0.4174061,0.54396 1.09375,0.71875 l 0.09375,0.359375 a 0.23259972,0.23104678 0 0 0 0.03125,0.05989 0.23259972,0.23104678 0 0 0 0.125,0.08984 c 0.030022,0.01154 0.042727,0.03617 0.125,0.0599 0.4334038,0.124985 1.1017143,0.239583 1.84375,0.239583 0.6992053,0 1.3167406,-0.09613 1.75,-0.209635 l 0.125,0.449219 A 0.31013294,0.30806237 0 0 0 8.375,36.64062 c 0.040032,0.01539 0.077798,0.0582 0.1875,0.08984 C 9.1403721,36.897114 10.010618,37 11,37 c 0.989383,0 1.890878,-0.102883 2.46875,-0.269531 0.109699,-0.03163 0.116223,-0.07447 0.15625,-0.08984 a 0.31013294,0.30806237 0 0 0 0.1875,-0.209635 l 0.125,-0.449219 c 0.43214,0.111875 1.056928,0.209635 1.75,0.209635 0.742036,0 1.410345,-0.114603 1.84375,-0.239583 0.08227,-0.02373 0.09498,-0.04836 0.125,-0.0599 a 0.23259972,0.23104678 0 0 0 0.15625,-0.119792 l 0.125,-0.41927 C 18.597319,35.178351 19,34.942603 19,34.664063 l -0.21875,-1.377605 c -0.0026,-0.453916 -1.604736,-0.757398 -2.21875,-1.28776 -0.02486,-0.203157 -0.01268,-0.398858 0,-0.598958 0.196359,-0.300874 0.434293,-0.672689 0.5,-0.86849 0.02415,-0.101399 0.04374,-0.18246 0.0625,-0.269531 0.05798,-0.0704 0.113446,-0.139405 0.15625,-0.239584 0.118591,-0.277555 0.120857,-0.568738 0,-0.658854 0.0084,-0.1206 -0.0035,-0.226354 0,-0.329427 0,-0.820151 -0.709111,-1.467448 -1.59375,-1.467448 -0.884638,0 -1.59375,0.6473 -1.59375,1.467448 0.0022,0.09399 -0.0098,0.212518 0,0.329427 -0.14,0.07414 -0.156122,0.366582 -0.03125,0.658854 0.04815,0.112701 0.121132,0.195364 0.1875,0.269532 0.01585,0.07722 0.04334,0.152479 0.0625,0.239583 0.05935,0.176865 0.284029,0.492651 0.5,0.778646 0.02153,0.220623 0.04333,0.437847 0,0.688802 -0.177476,0.146263 -0.44302,0.2755 -0.71875,0.389323 -0.665078,-0.278551 -1.465474,-0.57761 -1.90625,-0.958333 -0.03315,-0.270882 -0.04814,-0.541793 -0.03125,-0.808594 0.261811,-0.401162 0.599891,-0.9069 0.6875,-1.167969 0.0322,-0.135202 0.06874,-0.213332 0.09375,-0.329427 0.07731,-0.09387 0.130429,-0.225802 0.1875,-0.359375 0.158121,-0.370071 0.161146,-0.718386 0,-0.838542 0.01126,-0.1608 -0.0047,-0.311788 0,-0.449219 C 13.125,26.383036 12.179518,25.5 11,25.5 z m 0,0.748698 c 0.757363,0 1.327367,0.535847 1.34375,1.197917 -5.17e-4,0.01511 3.12e-4,0.01566 0,0.02995 -0.0041,0.1858 0.0053,0.313515 0,0.389322 a 0.7889497,0.7560768 0 0 0 0.09375,0.449219 c -0.0071,0.04277 0.0015,0.07321 -0.03125,0.14974 -0.06105,0.142892 -0.130284,0.224046 -0.09375,0.179687 a 0.7889497,0.7560768 0 0 0 -0.15625,0.329427 c -0.0066,0.03083 -0.03012,0.121524 -0.0625,0.239584 -0.0087,0.03157 -0.02147,0.01884 -0.03125,0.0599 -0.03355,0.0559 -0.312084,0.574631 -0.5625,0.958333 a 0.7889497,0.7560768 0 0 0 -0.125,0.329427 c -0.02055,0.324666 -0.0058,0.655721 0.03125,0.958333 a 0.7889497,0.7560768 0 0 0 0.25,0.479167 c 0.640955,0.55363 1.482882,0.80919 2.125,1.078125 a 0.7889497,0.7560768 0 0 0 0.625,0 c 0.305979,-0.12631 0.608008,-0.263326 0.90625,-0.509115 a 0.7889497,0.7560768 0 0 0 0.28125,-0.449218 c 0.06226,-0.360567 0.0214,-0.649168 0,-0.86849 A 0.7889497,0.7560768 0 0 0 15.4375,30.860677 c -0.198847,-0.263318 -0.390425,-0.602743 -0.375,-0.539062 6.03e-4,0.0025 -0.0013,-0.03382 0,-0.02995 -0.01558,-0.05767 -0.03048,-0.145994 -0.03125,-0.14974 A 0.7889497,0.7560768 0 0 0 14.84375,29.8125 c -0.04912,-0.05489 -0.06314,-0.0618 -0.0625,-0.0599 a 0.7889497,0.7560768 0 0 0 0,-0.02995 0.7889497,0.7560768 0 0 0 0.09375,-0.419271 c -0.002,-0.02422 0.0015,-0.130976 0,-0.269531 -1.7e-4,-0.0154 3.98e-4,-0.01295 0,-0.02995 0.01568,-0.387693 0.341559,-0.688802 0.8125,-0.688802 0.470944,0 0.796821,0.301106 0.8125,0.688802 -6.02e-4,0.01758 3.04e-4,0.01415 0,0.02995 -0.0027,0.142217 0.0027,0.230081 0,0.269531 a 0.7889497,0.7560768 0 0 0 0.0625,0.359375 0.7889497,0.7560768 0 0 0 0,0.02995 c -0.0044,0.01591 0.007,0.01358 0,0.02995 -3.82e-4,8.95e-4 -0.0082,-0.006 -0.0625,0.0599 a 0.7889497,0.7560768 0 0 0 -0.15625,0.329427 c -0.01204,0.05588 -0.01548,0.113345 -0.03125,0.179688 -0.0057,0.02388 -0.02478,0.03272 -0.03125,0.0599 -0.02257,0.02879 -0.197488,0.386859 -0.375,0.658854 a 0.7889497,0.7560768 0 0 0 -0.125,0.329427 c -0.01271,0.200631 -0.03516,0.46139 0,0.748698 a 0.7889497,0.7560768 0 0 0 0.25,0.479166 c 0.504884,0.4361 1.104632,0.617911 1.5625,0.808594 0.19966,0.08315 0.344722,0.127942 0.4375,0.179688 l 0.125,0.898437 c -0.09756,0.04772 -0.215411,0.120947 -0.4375,0.179688 a 0.7889497,0.7560768 0 0 0 -0.53125,0.509114 l -0.03125,0.119792 c -0.357664,0.0906 -0.875216,0.179687 -1.46875,0.179687 -0.615664,0 -1.172222,-0.08674 -1.53125,-0.179687 a 0.7889497,0.7560768 0 0 0 -0.96875,0.509114 l -0.0625,0.239584 c -0.464457,0.119444 -1.243847,0.239583 -2.125,0.239583 -0.893415,0 -1.6604821,-0.116117 -2.125,-0.239583 L 8.8125,35.772135 A 0.7889497,0.7560768 0 0 0 7.84375,35.263021 c -0.358632,0.09395 -0.9074961,0.179687 -1.53125,0.179687 -0.5935366,0 -1.1110963,-0.08908 -1.46875,-0.179687 l 0,-0.0599 A 0.7889497,0.7560768 0 0 0 4.3125,34.664063 C 4.075481,34.602809 3.9413429,34.506241 3.84375,34.454427 l 0.125,-0.928385 c 0.07747,-0.04651 0.2319488,-0.09717 0.4375,-0.179688 0.4469923,-0.179448 1.0139784,-0.352352 1.53125,-0.778646 A 0.7889497,0.7560768 0 0 0 6.21875,32.11849 c 0.062265,-0.360575 0.021408,-0.64916 0,-0.86849 A 0.7889497,0.7560768 0 0 0 6.0625,30.860677 c -0.198844,-0.263314 -0.3904172,-0.602716 -0.375,-0.539062 6.027e-4,0.0025 -0.0013,-0.03382 0,-0.02995 -0.01558,-0.05765 -0.030495,-0.146059 -0.03125,-0.14974 A 0.7889497,0.7560768 0 0 0 5.46875,29.8125 C 5.419638,29.75762 5.405618,29.75071 5.40625,29.7526 a 0.7889497,0.7560768 0 0 0 0,-0.02995 A 0.7889497,0.7560768 0 0 0 5.5,29.303385 c -0.00202,-0.02397 0.00153,-0.130866 0,-0.269531 0,-0.01012 -4.045e-4,-0.01995 0,-0.02995 0.015679,-0.387692 0.3415587,-0.688802 0.8125,-0.688802 0.470943,0 0.7968214,0.301106 0.8125,0.688802 4.045e-4,0.01 0,0.01983 0,0.02995 -0.00361,0.04032 -0.020666,0.118295 -0.03125,0.269531 a 0.7889497,0.7560768 0 0 0 0.09375,0.419271 c -3.833e-4,8.97e-4 -0.00825,-0.006 -0.0625,0.0599 a 0.7889497,0.7560768 0 0 0 -0.15625,0.329427 c -0.012036,0.05588 -0.015481,0.11336 -0.03125,0.179688 -0.00568,0.02388 -0.024779,0.03273 -0.03125,0.0599 -0.02257,0.02879 -0.1974878,0.386859 -0.375,0.658854 a 0.7889497,0.7560768 0 0 0 -0.125,0.329427 c -0.012691,0.20055 -0.035162,0.46135 0,0.748698 a 0.7889497,0.7560768 0 0 0 0.25,0.479166 c 0.2309031,0.199446 0.502906,0.367822 0.8125,0.509115 a 0.7889497,0.7560768 0 0 0 0.65625,0 c 0.6308777,-0.265722 1.5068141,-0.517158 2.1875,-1.078125 a 0.7889497,0.7560768 0 0 0 0.28125,-0.449219 c 0.0684,-0.396117 0.06448,-0.737743 0.03125,-1.078125 a 0.7889497,0.7560768 0 0 0 -0.15625,-0.389327 c -0.136934,-0.181331 -0.263191,-0.368326 -0.375,-0.539062 -0.08403,-0.128324 -0.1325616,-0.195532 -0.15625,-0.239584 -0.00461,-0.02095 0.00404,-0.04102 0,-0.0599 -9.998e-4,-0.0014 -0.032285,-0.03303 -0.03125,-0.02995 C 9.892546,29.148439 9.890048,29.077226 9.875,29.003903 A 0.7889497,0.7560768 0 0 0 9.6875,28.674479 c -9.1e-6,-1e-5 -0.028196,0.0026 -0.03125,0 0.00733,0.0082 -0.026779,-0.05124 -0.03125,-0.0599 C 9.614216,28.593709 9.603151,28.559979 9.5625,28.46484 9.535977,28.40276 9.539507,28.38931 9.53125,28.345048 a 0.7889497,0.7560768 0 0 0 0.125,-0.509115 c -0.00554,-0.06601 0.00187,-0.189077 0,-0.359375 -1.554e-4,-0.01419 3.437e-4,-0.01468 0,-0.02995 0.016382,-0.662076 0.586382,-1.19791 1.34375,-1.19791 z m -6.4375,8.924479 c -0.02817,-0.0083 0.089742,0.01058 0.0625,0 -0.013621,-0.0053 -0.017695,0.0222 0,0.02995 a 0.7889497,0.7560768 0 0 0 -0.0625,-0.02995 z m 8.65625,0.808594 c -0.01776,0.01228 0.04978,-0.01126 0.03125,0 -0.0067,0.0041 0.0061,0.02604 0,0.02995 -0.0061,0.0018 -0.02496,-0.0018 -0.03125,0 -0.01692,0.01324 0.01776,-0.04223 0,-0.02995 z"
       id="path2866"
       inkscape:connector-curvature="0" />
    <path
       style="opacity:0.6;fill:url(#linearGradient3846);fill-opacity:1;stroke:none"
       d="m -23.6875,7.46875 c -0.884639,0 -1.59375,0.673705 -1.59375,1.5 0.0022,0.09469 -0.0099,0.225965 0,0.34375 -0.140001,0.07469 -0.15613,0.361786 -0.03125,0.65625 0.04816,0.113544 0.121133,0.206528 0.1875,0.28125 0.01584,0.0778 0.04334,0.130993 0.0625,0.21875 0.05935,0.17819 0.284029,0.524362 0.5,0.8125 0.02154,0.222276 0.04334,0.434664 0,0.6875 -0.621639,0.516144 -2.221133,0.746914 -2.21875,1.28125 L -27,14.65625 c 0,0.284638 0.417406,0.542651 1.09375,0.71875 l 0.09375,0.375 a 0.2325997,0.23277848 0 0 0 0.15625,0.15625 c 0.03002,0.01161 0.04273,0.0386 0.125,0.0625 0.433404,0.125922 1.101713,0.21875 1.84375,0.21875 0.742036,0 1.410346,-0.09283 1.84375,-0.21875 0.08228,-0.02392 0.09498,-0.05088 0.125,-0.0625 a 0.2325997,0.23277848 0 0 0 0.03125,-0.03125 0.2325997,0.23277848 0 0 0 0.0625,-0.03125 0.2325997,0.23277848 0 0 0 0.03125,-0.0625 0.2325997,0.23277848 0 0 0 0.03125,-0.03125 l 0.09375,-0.40625 c 0.659818,-0.175824 1.09375,-0.406871 1.09375,-0.6875 L -20.59375,13.25 c -0.0025,-0.457318 -1.604736,-0.746913 -2.21875,-1.28125 -0.02486,-0.204681 -0.01266,-0.39215 0,-0.59375 0.196359,-0.303128 0.434295,-0.708982 0.5,-0.90625 0.02414,-0.10216 0.04375,-0.162276 0.0625,-0.25 0.05799,-0.07093 0.113447,-0.149071 0.15625,-0.25 0.118593,-0.279636 0.12087,-0.565458 0,-0.65625 0.0084,-0.121503 -0.0035,-0.239904 0,-0.34375 0,-0.826298 -0.70911,-1.5 -1.59375,-1.5 z m 9.375,0 c -0.884637,0 -1.59375,0.673705 -1.59375,1.5 0.0022,0.09469 -0.0099,0.225965 0,0.34375 -0.140003,0.07469 -0.156131,0.361786 -0.03125,0.65625 0.04815,0.113544 0.12113,0.206528 0.1875,0.28125 0.01583,0.0778 0.04334,0.130993 0.0625,0.21875 0.05935,0.17819 0.284028,0.524362 0.5,0.8125 0.02154,0.222276 0.04334,0.434664 0,0.6875 -0.621639,0.516144 -2.221131,0.746914 -2.21875,1.28125 l -0.21875,1.40625 c 0,0.284638 0.417405,0.542651 1.09375,0.71875 l 0.09375,0.375 a 0.2325997,0.23277848 0 0 0 0.03125,0.03125 0.2325997,0.23277848 0 0 0 0.125,0.125 c 0.03002,0.01161 0.04273,0.0386 0.125,0.0625 0.433405,0.125922 1.101714,0.21875 1.84375,0.21875 0.742036,0 1.410346,-0.09283 1.84375,-0.21875 0.08228,-0.02392 0.09498,-0.05088 0.125,-0.0625 a 0.2325997,0.23277848 0 0 0 0.0625,-0.03125 0.2325997,0.23277848 0 0 0 0.03125,-0.03125 0.2325997,0.23277848 0 0 0 0.03125,-0.0625 0.2325997,0.23277848 0 0 0 0.03125,-0.03125 l 0.09375,-0.40625 C -11.433932,15.167926 -11,14.936879 -11,14.65625 L -11.21875,13.25 c -0.0025,-0.457318 -1.604736,-0.746913 -2.21875,-1.28125 -0.02485,-0.204681 -0.01266,-0.39215 0,-0.59375 0.196358,-0.303128 0.434292,-0.708982 0.5,-0.90625 0.02414,-0.10216 0.04375,-0.162276 0.0625,-0.25 0.05799,-0.07093 0.113444,-0.149071 0.15625,-0.25 0.11859,-0.279636 0.120867,-0.565458 0,-0.65625 0.0084,-0.121503 -0.0035,-0.239904 0,-0.34375 0,-0.826298 -0.70911,-1.5 -1.59375,-1.5 z"
       id="path3132"
       inkscape:connector-curvature="0" />
    <path
       style="opacity:0.2;fill:#000000;fill-opacity:1;stroke:none"
       d="m -23.6875,7.46875 c -0.884639,0 -1.59375,0.673705 -1.59375,1.5 0.0022,0.09469 -0.0099,0.225965 0,0.34375 -0.140001,0.07469 -0.15613,0.361786 -0.03125,0.65625 0.04816,0.113544 0.121133,0.206528 0.1875,0.28125 0.01584,0.0778 0.04334,0.130993 0.0625,0.21875 0.05935,0.17819 0.284029,0.524362 0.5,0.8125 0.02154,0.222276 0.04334,0.434664 0,0.6875 -0.621639,0.516144 -2.221133,0.746914 -2.21875,1.28125 L -27,14.65625 c 0,0.284638 0.417406,0.542651 1.09375,0.71875 l 0.09375,0.375 a 0.2325997,0.23277848 0 0 0 0.15625,0.15625 c 0.03002,0.01161 0.04273,0.0386 0.125,0.0625 0.433404,0.125922 1.101713,0.21875 1.84375,0.21875 0.742036,0 1.410346,-0.09283 1.84375,-0.21875 0.08228,-0.02392 0.09498,-0.05088 0.125,-0.0625 a 0.2325997,0.23277848 0 0 0 0.03125,-0.03125 0.2325997,0.23277848 0 0 0 0.0625,-0.03125 0.2325997,0.23277848 0 0 0 0.03125,-0.0625 0.2325997,0.23277848 0 0 0 0.03125,-0.03125 l 0.09375,-0.40625 c 0.659818,-0.175824 1.09375,-0.406871 1.09375,-0.6875 L -20.59375,13.25 c -0.0025,-0.457318 -1.604736,-0.746913 -2.21875,-1.28125 -0.02486,-0.204681 -0.01266,-0.39215 0,-0.59375 0.196359,-0.303128 0.434295,-0.708982 0.5,-0.90625 0.02414,-0.10216 0.04375,-0.162276 0.0625,-0.25 0.05799,-0.07093 0.113447,-0.149071 0.15625,-0.25 0.118593,-0.279636 0.12087,-0.565458 0,-0.65625 0.0084,-0.121503 -0.0035,-0.239904 0,-0.34375 0,-0.826298 -0.70911,-1.5 -1.59375,-1.5 z m 9.375,0 c -0.884637,0 -1.59375,0.673705 -1.59375,1.5 0.0022,0.09469 -0.0099,0.225965 0,0.34375 -0.140003,0.07469 -0.156131,0.361786 -0.03125,0.65625 0.04815,0.113544 0.12113,0.206528 0.1875,0.28125 0.01583,0.0778 0.04334,0.130993 0.0625,0.21875 0.05935,0.17819 0.284028,0.524362 0.5,0.8125 0.02154,0.222276 0.04334,0.434664 0,0.6875 -0.621639,0.516144 -2.221131,0.746914 -2.21875,1.28125 l -0.21875,1.40625 c 0,0.284638 0.417405,0.542651 1.09375,0.71875 l 0.09375,0.375 a 0.2325997,0.23277848 0 0 0 0.03125,0.03125 0.2325997,0.23277848 0 0 0 0.125,0.125 c 0.03002,0.01161 0.04273,0.0386 0.125,0.0625 0.433405,0.125922 1.101714,0.21875 1.84375,0.21875 0.742036,0 1.410346,-0.09283 1.84375,-0.21875 0.08228,-0.02392 0.09498,-0.05088 0.125,-0.0625 a 0.2325997,0.23277848 0 0 0 0.0625,-0.03125 0.2325997,0.23277848 0 0 0 0.03125,-0.03125 0.2325997,0.23277848 0 0 0 0.03125,-0.0625 0.2325997,0.23277848 0 0 0 0.03125,-0.03125 l 0.09375,-0.40625 C -11.433932,15.167926 -11,14.936879 -11,14.65625 L -11.21875,13.25 c -0.0025,-0.457318 -1.604736,-0.746913 -2.21875,-1.28125 -0.02485,-0.204681 -0.01266,-0.39215 0,-0.59375 0.196358,-0.303128 0.434292,-0.708982 0.5,-0.90625 0.02414,-0.10216 0.04375,-0.162276 0.0625,-0.25 0.05799,-0.07093 0.113444,-0.149071 0.15625,-0.25 0.11859,-0.279636 0.120867,-0.565458 0,-0.65625 0.0084,-0.121503 -0.0035,-0.239904 0,-0.34375 0,-0.826298 -0.70911,-1.5 -1.59375,-1.5 z m -9.375,0.6875 c 0.51801,0 0.889791,0.3666643 0.90625,0.78125 -5.96e-4,0.017521 3e-4,0.01523 0,0.03125 -0.0027,0.1441838 0.0028,0.2407287 0,0.28125 a 0.69797491,0.69797491 0 0 0 0.0625,0.34375 0.69797491,0.69797491 0 0 0 0,0.03125 c -0.0053,0.024244 -0.01797,0.031195 -0.03125,0.0625 -0.0088,0.020649 0.0058,0.048475 -0.03125,0.09375 a 0.69797491,0.69797491 0 0 0 -0.15625,0.28125 c -0.0085,0.03984 -0.01374,0.118948 -0.03125,0.1875 -0.0063,0.02468 -0.02344,0.02945 -0.03125,0.0625 -0.03187,0.05886 -0.239158,0.429553 -0.40625,0.6875 A 0.69797491,0.69797491 0 0 0 -23.5,11.34375 c -0.0126,0.200619 -0.0343,0.436305 0,0.71875 a 0.69797491,0.69797491 0 0 0 0.21875,0.4375 c 0.486679,0.423525 1.070426,0.591801 1.53125,0.78125 0.214094,0.08802 0.404923,0.163572 0.5,0.21875 l 0.15625,0.96875 c -0.108913,0.0573 -0.299995,0.117549 -0.5625,0.1875 a 0.69797491,0.69797491 0 0 0 -0.5,0.53125 l -0.03125,0.15625 c -0.353197,0.08705 -0.881308,0.15625 -1.5,0.15625 -0.618694,0 -1.146807,-0.0692 -1.5,-0.15625 l -0.03125,-0.125 a 0.69797491,0.69797491 0 0 0 -0.5,-0.53125 c -0.278106,-0.07241 -0.466141,-0.160426 -0.5625,-0.21875 l 0.15625,-1 c 0.0757,-0.04981 0.243101,-0.129393 0.46875,-0.21875 0.451297,-0.178713 1.033422,-0.336656 1.53125,-0.75 a 0.69797491,0.69797491 0 0 0 0.25,-0.40625 c 0.06092,-0.355395 0.0213,-0.655238 0,-0.875 A 0.69797491,0.69797491 0 0 0 -24,10.875 c -0.17629,-0.235198 -0.355508,-0.544998 -0.375,-0.5625 -0.002,-0.0018 -0.03329,-0.06862 -0.03125,-0.0625 -0.01782,-0.06179 -0.03337,-0.1354 -0.03125,-0.125 A 0.69797491,0.69797491 0 0 0 -24.59375,9.78125 C -24.63789,9.731548 -24.65357,9.69383 -24.65625,9.6875 -24.66681,9.662607 -24.68328,9.675308 -24.6875,9.65625 a 0.69797491,0.69797491 0 0 0 0,-0.03125 0.69797491,0.69797491 0 0 0 0.09375,-0.375 c -0.0021,-0.02499 0.0015,-0.1408825 0,-0.28125 -1.67e-4,-0.015596 3.92e-4,-0.014367 0,-0.03125 0.01646,-0.4145813 0.388243,-0.78125 0.90625,-0.78125 z m 9.375,0 c 0.51801,0 0.889791,0.3666643 0.90625,0.78125 -5.9e-4,0.017492 2.96e-4,0.015253 0,0.03125 -0.0027,0.1439721 0.0028,0.240626 0,0.28125 a 0.69797491,0.69797491 0 0 0 0.0625,0.34375 0.69797491,0.69797491 0 0 0 0,0.03125 c -0.0053,0.024245 -0.01797,0.031194 -0.03125,0.0625 -0.0088,0.020671 0.0058,0.048484 -0.03125,0.09375 a 0.69797491,0.69797491 0 0 0 -0.15625,0.28125 c -0.0085,0.03984 -0.01374,0.118948 -0.03125,0.1875 -0.0063,0.02468 -0.02344,0.02945 -0.03125,0.0625 -0.03187,0.05888 -0.239159,0.429553 -0.40625,0.6875 a 0.69797491,0.69797491 0 0 0 -0.09375,0.34375 c -0.0126,0.200642 -0.03429,0.436347 0,0.71875 a 0.69797491,0.69797491 0 0 0 0.21875,0.4375 c 0.486679,0.423525 1.070426,0.591801 1.53125,0.78125 0.214094,0.08802 0.404923,0.163572 0.5,0.21875 l 0.15625,0.96875 c -0.108913,0.0573 -0.299995,0.117549 -0.5625,0.1875 a 0.69797491,0.69797491 0 0 0 -0.5,0.53125 l -0.03125,0.15625 c -0.353197,0.08705 -0.881308,0.15625 -1.5,0.15625 -0.618693,0 -1.146805,-0.0692 -1.5,-0.15625 l -0.03125,-0.125 a 0.69797491,0.69797491 0 0 0 -0.5,-0.53125 c -0.278107,-0.07241 -0.466142,-0.160426 -0.5625,-0.21875 l 0.15625,-1 c 0.0757,-0.04981 0.243101,-0.129393 0.46875,-0.21875 0.451297,-0.178713 1.033423,-0.336656 1.53125,-0.75 a 0.69797491,0.69797491 0 0 0 0.25,-0.40625 c 0.06092,-0.355395 0.0213,-0.655238 0,-0.875 A 0.69797491,0.69797491 0 0 0 -14.625,10.875 c -0.17629,-0.235196 -0.355508,-0.544996 -0.375,-0.5625 -0.002,-0.0018 -0.03329,-0.06862 -0.03125,-0.0625 -0.01782,-0.06179 -0.03338,-0.135466 -0.03125,-0.125 a 0.69797491,0.69797491 0 0 0 -0.15625,-0.34375 c -0.04415,-0.049712 -0.05984,-0.087478 -0.0625,-0.09375 -0.01056,-0.024893 -0.02703,-0.012192 -0.03125,-0.03125 a 0.69797491,0.69797491 0 0 0 0,-0.03125 0.69797491,0.69797491 0 0 0 0.09375,-0.375 c -0.0021,-0.024626 0.0015,-0.1407291 0,-0.28125 -1.68e-4,-0.015613 3.93e-4,-0.014343 0,-0.03125 0.01646,-0.4145803 0.388245,-0.78125 0.90625,-0.78125 z m -1.65625,7.125 c -0.01331,-0.0072 0.0442,0.0078 0.03125,0 -0.01295,-0.0078 0.01255,0.03966 0,0.03125 -0.0065,-0.0018 -0.02497,0.0018 -0.03125,0 0.0086,0.0025 -0.01927,-0.03696 0,-0.03125 z"
       id="path3886"
       inkscape:connector-curvature="0" />
    <path
       inkscape:connector-curvature="0"
       id="path3130"
       d="m -19,5.413793 c -1.179517,0 -2.135708,0.893128 -2.135708,1.994861 0.0029,0.126259 0.0047,0.270422 0.01779,0.427467 -0.186668,0.09959 -0.210999,0.48904 -0.04449,0.881656 0.06421,0.151395 0.151779,0.274408 0.240267,0.374038 0.003,0.0033 0.0059,0.0057 0.0089,0.0089 0.02113,0.103732 0.03675,0.185779 0.06229,0.302788 0.07913,0.237589 0.406144,0.684492 0.694105,1.068676 0.02872,0.296367 0.03108,0.589071 -0.0267,0.926182 -0.828852,0.688191 -2.948673,0.997429 -2.945495,1.709879 l -0.284761,1.852364 c 0,0.379517 0.566507,0.727004 1.468298,0.961804 l 0.124582,0.507622 a 0.31013294,0.31037131 0 0 0 0.195774,0.204828 c 0.04003,0.0155 0.06828,0.04828 0.177975,0.08015 C -20.869291,16.882919 -19.989382,17 -19,17 c 0.989382,0 1.87819,-0.117081 2.456063,-0.284979 0.1097,-0.03187 0.137948,-0.06466 0.177976,-0.08015 a 0.31013294,0.31037131 0 0 0 0.186874,-0.195923 l 0.151277,-0.534338 c 0.87976,-0.234431 1.441603,-0.569824 1.441603,-0.943995 l -0.284761,-1.852369 c -0.0034,-0.60976 -2.135705,-0.997429 -2.954395,-1.709879 -0.03315,-0.27291 -0.03468,-0.541611 -0.01779,-0.810411 0.261813,-0.404168 0.606497,-0.921421 0.694105,-1.184447 0.0322,-0.136215 0.04619,-0.230353 0.07119,-0.347319 0.07731,-0.09457 0.1476,-0.20384 0.20467,-0.338413 0.158121,-0.372845 0.14336,-0.733882 -0.01779,-0.854938 0.01126,-0.162006 0.02199,-0.315727 0.0267,-0.454188 0,-1.10173 -0.956187,-1.994858 -2.135704,-1.994858 z"
       style="fill:url(#linearGradient3848);fill-opacity:1;stroke:none" />
    <path
       style="opacity:0.3;fill:#ffffff;fill-opacity:1;stroke:none"
       d="m -16.90625,8.75 c -0.05042,0.116145 -0.08731,0.2281701 -0.15625,0.3125 -0.025,0.116966 -0.06155,0.207535 -0.09375,0.34375 -0.08761,0.263026 -0.425687,0.783332 -0.6875,1.1875 -0.01689,0.2688 -0.0019,0.53959 0.03125,0.8125 0.01565,0.01362 0.04596,0.01793 0.0625,0.03125 0.242774,-0.376055 0.516483,-0.79927 0.59375,-1.03125 0.0322,-0.136215 0.06875,-0.226784 0.09375,-0.34375 0.07731,-0.09457 0.13043,-0.209177 0.1875,-0.34375 0.158121,-0.372845 0.1299,-0.722694 -0.03125,-0.84375 0.003,-0.04301 -0.0033,-0.08178 0,-0.125 z M -21.125,8.78125 c 8.23e-4,0.022246 -0.0019,0.040065 0,0.0625 -0.186668,0.09959 -0.197759,0.482384 -0.03125,0.875 0.06421,0.151395 0.130262,0.27537 0.21875,0.375 0.003,0.0033 0.02825,-0.0032 0.03125,0 0.02113,0.103732 0.03696,0.195491 0.0625,0.3125 0.07544,0.226499 0.379411,0.629256 0.65625,1 0.05778,-0.337111 0.05997,-0.641133 0.03125,-0.9375 -0.287961,-0.384184 -0.60837,-0.824911 -0.6875,-1.0625 -0.02554,-0.117009 -0.04137,-0.208768 -0.0625,-0.3125 -0.003,-0.0032 -0.02825,0.0033 -0.03125,0 -0.07428,-0.083627 -0.132661,-0.1927494 -0.1875,-0.3125 z m -0.96875,1.1875 c -0.0428,0.100929 -0.09826,0.17907 -0.15625,0.25 -0.01875,0.08772 -0.03836,0.14784 -0.0625,0.25 -0.0657,0.197268 -0.303641,0.603122 -0.5,0.90625 -0.01266,0.2016 -0.02486,0.389069 0,0.59375 0.05117,0.04453 0.125825,0.0816 0.1875,0.125 0.144575,-0.240042 0.265621,-0.484253 0.3125,-0.625 0.02414,-0.10216 0.04375,-0.162276 0.0625,-0.25 0.05799,-0.07093 0.113447,-0.149071 0.15625,-0.25 0.118593,-0.279636 0.12087,-0.565458 0,-0.65625 0.0084,-0.121503 -0.0035,-0.239904 0,-0.34375 z m 9.375,0 c -0.04281,0.100929 -0.09826,0.17907 -0.15625,0.25 -0.01875,0.08772 -0.03836,0.14784 -0.0625,0.25 -0.06571,0.197268 -0.303642,0.603122 -0.5,0.90625 -0.01266,0.2016 -0.02485,0.389069 0,0.59375 0.05117,0.04453 0.124105,0.08363 0.1875,0.125 0.144574,-0.240042 0.265618,-0.484253 0.3125,-0.625 0.02414,-0.10216 0.04375,-0.162276 0.0625,-0.25 0.05799,-0.07093 0.113444,-0.149071 0.15625,-0.25 0.11859,-0.279636 0.120867,-0.565458 0,-0.65625 0.0084,-0.121503 -0.0035,-0.239904 0,-0.34375 z M -25.28125,10 c -8.4e-5,0.09175 -0.009,0.205423 0,0.3125 -0.140001,0.07469 -0.15613,0.361786 -0.03125,0.65625 0.04816,0.113544 0.121133,0.206528 0.1875,0.28125 0.01584,0.0778 0.04334,0.130993 0.0625,0.21875 0.04451,0.133643 0.186664,0.366478 0.34375,0.59375 0.04991,-0.03233 0.114409,-0.05901 0.15625,-0.09375 0.04334,-0.252836 0.02154,-0.465224 0,-0.6875 -0.215971,-0.288138 -0.44065,-0.63431 -0.5,-0.8125 -0.01916,-0.08776 -0.04666,-0.14095 -0.0625,-0.21875 -0.05786,-0.06514 -0.109168,-0.155576 -0.15625,-0.25 z m 9.375,0 c -9.1e-5,0.09175 -0.009,0.205423 0,0.3125 -0.140003,0.07469 -0.156131,0.361786 -0.03125,0.65625 0.04815,0.113544 0.12113,0.206528 0.1875,0.28125 0.01583,0.0778 0.04334,0.130993 0.0625,0.21875 0.04451,0.133643 0.186664,0.366478 0.34375,0.59375 0.05141,-0.03312 0.112607,-0.05751 0.15625,-0.09375 0.04334,-0.252836 0.02154,-0.465224 0,-0.6875 -0.215972,-0.288138 -0.44065,-0.63431 -0.5,-0.8125 -0.01916,-0.08776 -0.04667,-0.14095 -0.0625,-0.21875 -0.05786,-0.06514 -0.109173,-0.155576 -0.15625,-0.25 z m 4.78125,4.875 c -0.170515,0.173652 -0.510176,0.346552 -0.96875,0.46875 L -12.1875,15.75 a 0.2325997,0.23277848 0 0 1 -0.03125,0.03125 0.2325997,0.23277848 0 0 1 -0.03125,0.0625 0.2325997,0.23277848 0 0 1 -0.03125,0.03125 0.2325997,0.23277848 0 0 1 -0.0625,0.03125 c -0.03002,0.01162 -0.04272,0.03858 -0.125,0.0625 -0.433404,0.12592 -1.101714,0.21875 -1.84375,0.21875 -0.698107,0 -1.316618,-0.07292 -1.75,-0.1875 l -0.125,0.4375 a 0.31013294,0.31037131 0 0 1 0,0.03125 0.31013294,0.31037131 0 0 1 -0.0625,0.09375 0.31013294,0.31037131 0 0 1 -0.125,0.0625 c -0.04003,0.01549 -0.04655,0.06188 -0.15625,0.09375 C -17.109123,16.886648 -18.010618,17 -19,17 c -0.989382,0 -1.859618,-0.113339 -2.4375,-0.28125 -0.109695,-0.03187 -0.14747,-0.07825 -0.1875,-0.09375 a 0.31013294,0.31037131 0 0 1 -0.0625,-0.03125 0.31013294,0.31037131 0 0 1 -0.125,-0.15625 L -21.9375,16 c -0.433381,0.11459 -1.051893,0.1875 -1.75,0.1875 -0.742037,0 -1.410346,-0.09283 -1.84375,-0.21875 -0.08227,-0.0239 -0.09498,-0.05089 -0.125,-0.0625 A 0.2325997,0.23277848 0 0 1 -25.8125,15.75 l -0.09375,-0.375 c -0.467473,-0.121715 -0.801004,-0.287026 -0.96875,-0.46875 l -0.125,0.75 c 0,0.284638 0.417406,0.542651 1.09375,0.71875 l 0.09375,0.375 a 0.2325997,0.23277848 0 0 0 0.15625,0.15625 c 0.03002,0.01161 0.04273,0.0386 0.125,0.0625 0.433404,0.125922 1.101713,0.21875 1.84375,0.21875 0.698107,0 1.316619,-0.07291 1.75,-0.1875 l 0.125,0.4375 a 0.31013294,0.31037131 0 0 0 0.125,0.15625 0.31013294,0.31037131 0 0 0 0.0625,0.03125 c 0.04003,0.0155 0.0778,0.06188 0.1875,0.09375 C -20.859618,17.886661 -19.989382,18 -19,18 c 0.989382,0 1.890877,-0.113352 2.46875,-0.28125 0.1097,-0.03187 0.116222,-0.07826 0.15625,-0.09375 a 0.31013294,0.31037131 0 0 0 0.125,-0.0625 0.31013294,0.31037131 0 0 0 0.0625,-0.09375 0.31013294,0.31037131 0 0 0 0,-0.03125 L -16.0625,17 c 0.433382,0.114584 1.051893,0.1875 1.75,0.1875 0.742036,0 1.410346,-0.09283 1.84375,-0.21875 0.08228,-0.02392 0.09498,-0.05088 0.125,-0.0625 a 0.2325997,0.23277848 0 0 0 0.0625,-0.03125 0.2325997,0.23277848 0 0 0 0.03125,-0.03125 0.2325997,0.23277848 0 0 0 0.03125,-0.0625 0.2325997,0.23277848 0 0 0 0.03125,-0.03125 l 0.09375,-0.40625 C -11.433932,16.167926 -11,15.936879 -11,15.65625 L -11.125,14.875 z"
       id="path3859"
       inkscape:connector-curvature="0" />
    <path
       style="opacity:0.4;fill:#000000;fill-opacity:1;stroke:none"
       d="m -19,5.40625 c -1.179517,0 -2.125,0.898267 -2.125,2 0.0029,0.126259 -0.01309,0.280455 0,0.4375 -0.186668,0.09959 -0.197759,0.482384 -0.03125,0.875 0.06421,0.151395 0.130262,0.27537 0.21875,0.375 0.003,0.0033 0.02825,-0.0032 0.03125,0 0.02113,0.103732 0.03696,0.195491 0.0625,0.3125 0.07913,0.237589 0.399539,0.678316 0.6875,1.0625 0.02872,0.296367 0.02653,0.600389 -0.03125,0.9375 -0.828852,0.688191 -2.940678,0.97505 -2.9375,1.6875 l -0.28125,1.875 c 0,0.379517 0.566959,0.73395 1.46875,0.96875 l 0.125,0.5 a 0.31013294,0.31037131 0 0 0 0.1875,0.1875 c 0.04003,0.0155 0.0778,0.06188 0.1875,0.09375 C -20.859618,16.886661 -19.989382,17 -19,17 c 0.989382,0 1.890877,-0.113352 2.46875,-0.28125 0.1097,-0.03187 0.116222,-0.07826 0.15625,-0.09375 a 0.31013294,0.31037131 0 0 0 0.125,-0.0625 0.31013294,0.31037131 0 0 0 0.0625,-0.125 l 0.15625,-0.53125 c 0.87976,-0.234431 1.4375,-0.563329 1.4375,-0.9375 l -0.28125,-1.875 c -0.0034,-0.60976 -2.11881,-0.97505 -2.9375,-1.6875 -0.03315,-0.27291 -0.04814,-0.5437 -0.03125,-0.8125 0.261813,-0.404168 0.599892,-0.924474 0.6875,-1.1875 0.0322,-0.136215 0.06875,-0.226784 0.09375,-0.34375 0.07731,-0.09457 0.13043,-0.209177 0.1875,-0.34375 0.158121,-0.372845 0.1299,-0.722694 -0.03125,-0.84375 0.01126,-0.162006 0.02654,-0.330289 0.03125,-0.46875 0,-1.10173 -0.945483,-2 -2.125,-2 z m 0,0.96875 c 0.669166,0 1.140256,0.4716278 1.15625,1 2.88e-4,0.00952 0,0.021693 0,0.03125 -0.0043,0.095835 -0.01986,0.2424085 -0.03125,0.40625 a 0.98157189,0.98157189 0 0 0 0.09375,0.53125 c -0.0498,0.1174349 -0.06043,0.1294464 -0.03125,0.09375 a 0.98157189,0.98157189 0 0 0 -0.21875,0.40625 c -0.0042,0.019542 -0.0338,0.1447814 -0.0625,0.25 -0.01099,0.040297 -0.01795,0.037467 -0.03125,0.09375 -0.02966,0.029532 -0.291467,0.5048405 -0.53125,0.875 a 0.98157189,0.98157189 0 0 0 -0.15625,0.46875 c -0.02176,0.346248 -0.007,0.685101 0.03125,1 a 0.98157189,0.98157189 0 0 0 0.3125,0.625 c 0.662472,0.576504 1.454419,0.784212 2.0625,1.03125 0.274817,0.111647 0.471237,0.212295 0.59375,0.28125 l 0.1875,1.25 c -0.139097,0.07222 -0.339651,0.165635 -0.65625,0.25 a 0.98157189,0.98157189 0 0 0 -0.6875,0.65625 l -0.0625,0.1875 c -0.458917,0.109856 -1.146069,0.21875 -1.96875,0.21875 -0.83445,0 -1.511372,-0.10529 -1.96875,-0.21875 L -21,15.6875 A 0.98157189,0.98157189 0 0 0 -21.6875,15 c -0.338006,-0.08801 -0.550787,-0.204763 -0.6875,-0.28125 l 0.1875,-1.3125 c 0.109487,-0.06353 0.2955,-0.145599 0.5625,-0.25 0.59457,-0.232485 1.384446,-0.437016 2.0625,-1 a 0.98157189,0.98157189 0 0 0 0.34375,-0.59375 c 0.07368,-0.429883 0.06665,-0.822225 0.03125,-1.1875 a 0.98157189,0.98157189 0 0 0 -0.1875,-0.5 c -0.140732,-0.1877582 -0.267496,-0.3709158 -0.375,-0.53125 -0.0918,-0.1369146 -0.125757,-0.2338735 -0.125,-0.21875 -0.0024,-0.011946 -0.02888,-0.019244 -0.03125,-0.03125 -0.01206,-0.06112 -0.01505,-0.1079724 -0.03125,-0.1875 a 0.98157189,0.98157189 0 0 0 -0.25,-0.46875 c -8e-6,-8.2e-6 -0.02862,0.00212 -0.03125,0 8e-6,8.6e-6 0.0026,-0.029056 0,-0.03125 -0.0031,-0.00578 2.1e-4,0.011676 -0.03125,-0.0625 -0.0083,-0.019657 0.0051,-0.01348 0,-0.03125 A 0.98157189,0.98157189 0 0 0 -20.15625,7.75 c -0.0029,-0.03494 0.0024,-0.1525277 0,-0.34375 0,-0.00956 -2.88e-4,-0.021733 0,-0.03125 0.01599,-0.5283763 0.487083,-1 1.15625,-1 z"
       id="path3873"
       inkscape:connector-curvature="0" />
    <path
       style="fill:url(#linearGradient3824);fill-opacity:1;stroke:none;display:inline;enable-background:new"
       d="M 11,6 C 9.5046418,6 8.2938147,7.0640288 8.2938147,8.4 8.2974329,8.5531045 8.3048038,8.7428964 8.321431,8.9333336 8.0847765,9.054095 8.0551092,9.52391 8.2662001,10 c 0.081397,0.183583 0.1915709,0.332524 0.3037558,0.453334 0.026782,0.125788 0.050456,0.231444 0.082843,0.373332 0.1003254,0.288105 0.5185824,0.840803 0.8836524,1.306667 0.036414,0.359382 0.045622,0.711211 -0.027615,1.12 -1.050788,0.834508 -3.7595483,1.189408 -3.7555204,2.053334 L 5.6428575,16 16.357142,16 16.246686,15.306667 c -0.0043,-0.739404 -2.717615,-1.189408 -3.755523,-2.053334 -0.04203,-0.330931 -0.04901,-0.660717 -0.02762,-0.986666 0.331916,-0.4901 0.772588,-1.121052 0.883653,-1.440001 0.04082,-0.165174 0.05113,-0.284833 0.08284,-0.426666 0.09801,-0.114675 0.203787,-0.236815 0.276141,-0.4 0.200461,-0.452117 0.176691,-0.893205 -0.02762,-1.04 0.01428,-0.1964491 0.02165,-0.3921012 0.02762,-0.56 6e-6,-1.3359708 -1.210824,-2.4 -2.706182,-2.4 z"
       id="path3798"
       inkscape:connector-curvature="0" />
    <path
       style="fill:#000000;fill-opacity:1;stroke:none;display:inline;enable-background:new;opacity:0.4"
       d="M 11 6 C 9.5046418 6 8.28125 7.0702788 8.28125 8.40625 C 8.2848682 8.5593545 8.2958728 8.7470628 8.3125 8.9375 C 8.0758455 9.0582614 8.0701591 9.52391 8.28125 10 C 8.362647 10.183583 8.4503151 10.34794 8.5625 10.46875 C 8.589282 10.594538 8.623863 10.670612 8.65625 10.8125 C 8.7565754 11.100605 9.16618 11.659136 9.53125 12.125 C 9.567664 12.484382 9.573237 12.841211 9.5 13.25 C 8.449212 14.084508 5.7459721 14.448574 5.75 15.3125 L 5.65625 16 L 16.34375 16 L 16.25 15.3125 C 16.2457 14.573096 13.537908 14.113926 12.5 13.25 C 12.45797 12.919069 12.44736 12.607199 12.46875 12.28125 C 12.800666 11.79115 13.232685 11.131449 13.34375 10.8125 C 13.38457 10.647326 13.40579 10.548083 13.4375 10.40625 C 13.53551 10.291575 13.646396 10.163185 13.71875 10 C 13.919211 9.547883 13.891811 9.115545 13.6875 8.96875 C 13.70178 8.7723009 13.71278 8.5741488 13.71875 8.40625 C 13.718756 7.0702792 12.495358 6 11 6 z M 11 6.78125 C 12.104546 6.78125 12.919792 7.534706 12.9375 8.375 C 12.937699 8.3844415 12.9375 8.3967852 12.9375 8.40625 C 12.931752 8.5563346 12.919071 8.7298724 12.90625 8.90625 A 0.79311374 0.79311374 0 0 0 13.0625 9.4375 C 13.060631 9.4817898 13.050821 9.57288 13 9.6875 C 12.986864 9.7171268 12.943758 9.7892376 12.84375 9.90625 A 0.79311374 0.79311374 0 0 0 12.65625 10.21875 C 12.629079 10.340283 12.621305 10.447902 12.59375 10.5625 C 12.588387 10.584804 12.568761 10.599667 12.5625 10.625 C 12.53317 10.687433 12.446404 10.84444 12.3125 11.0625 C 12.160048 11.310764 11.975398 11.603218 11.8125 11.84375 A 0.79311374 0.79311374 0 0 0 11.6875 12.21875 C 11.662823 12.594781 11.670976 12.967589 11.71875 13.34375 A 0.79311374 0.79311374 0 0 0 12 13.875 C 12.726485 14.479706 13.679993 14.754502 14.46875 15.0625 C 14.625542 15.123725 14.708924 15.161009 14.84375 15.21875 L 7 15.21875 C 7.1642012 15.144269 7.2862341 15.080381 7.5 15 C 8.2780308 14.707443 9.2592353 14.463296 10 13.875 A 0.79311374 0.79311374 0 0 0 10.28125 13.375 C 10.369845 12.880485 10.353403 12.434938 10.3125 12.03125 A 0.79311374 0.79311374 0 0 0 10.15625 11.625 C 9.9798045 11.399839 9.8013145 11.180037 9.65625 10.96875 C 9.5323537 10.788295 9.4578344 10.660243 9.4375 10.625 C 9.4340258 10.618979 9.4051229 10.559263 9.40625 10.5625 C 9.3743713 10.441351 9.3527359 10.354705 9.34375 10.3125 A 0.79311374 0.79311374 0 0 0 9.15625 9.9375 C 9.1479286 9.9285388 9.0669639 9.8385306 9 9.6875 C 8.9525339 9.580446 8.9465131 9.4995734 8.9375 9.4375 A 0.79311374 0.79311374 0 0 0 9.09375 8.875 C 9.079368 8.7102774 9.0661977 8.5336035 9.0625 8.40625 C 9.0622545 8.397795 9.0626919 8.3831208 9.0625 8.375 C 9.0802116 7.5347013 9.8954536 6.78125 11 6.78125 z "
       id="path3879" />
    <path
       style="fill:#ffffff;fill-opacity:1;stroke:none;display:inline;enable-background:new;opacity:0.3"
       d="M 8.28125 10 C 8.0973453 10.162675 8.0881791 10.564552 8.28125 11 C 8.362647 11.183583 8.4503151 11.34794 8.5625 11.46875 C 8.589282 11.594538 8.623863 11.670612 8.65625 11.8125 C 8.755165 12.096555 9.1699103 12.632097 9.53125 13.09375 C 9.5752683 12.754936 9.5625572 12.433981 9.53125 12.125 C 9.16618 11.659136 8.7565754 11.100605 8.65625 10.8125 C 8.623863 10.670612 8.589282 10.594538 8.5625 10.46875 C 8.4503151 10.34794 8.362647 10.183583 8.28125 10 z M 13.71875 10 C 13.646396 10.163185 13.53551 10.291575 13.4375 10.40625 C 13.40579 10.548083 13.38457 10.647326 13.34375 10.8125 C 13.232685 11.131449 12.800666 11.79115 12.46875 12.28125 C 12.448049 12.596695 12.461504 12.898557 12.5 13.21875 C 12.827008 12.737019 13.236656 12.120046 13.34375 11.8125 C 13.38457 11.647326 13.40579 11.548083 13.4375 11.40625 C 13.53551 11.291575 13.646396 11.163185 13.71875 11 C 13.90821 10.572694 13.892996 10.168461 13.71875 10 z M 5.875 16 C 5.7992655 16.094015 5.7494965 16.204509 5.75 16.3125 L 5.65625 17 L 16.34375 17 L 16.25 16.3125 C 16.249404 16.20993 16.186902 16.093309 16.09375 16 L 5.875 16 z "
       id="path3940" />
  </g>
</svg>
