<?xml version="1.0" encoding="UTF-8" standalone="no"?>
<!-- Created with Inkscape (http://www.inkscape.org/) -->

<svg
   xmlns:dc="http://purl.org/dc/elements/1.1/"
   xmlns:cc="http://creativecommons.org/ns#"
   xmlns:rdf="http://www.w3.org/1999/02/22-rdf-syntax-ns#"
   xmlns:svg="http://www.w3.org/2000/svg"
   xmlns="http://www.w3.org/2000/svg"
   xmlns:xlink="http://www.w3.org/1999/xlink"
   xmlns:sodipodi="http://sodipodi.sourceforge.net/DTD/sodipodi-0.dtd"
   xmlns:inkscape="http://www.inkscape.org/namespaces/inkscape"
   width="22"
   height="22"
   id="svg2"
   sodipodi:version="0.32"
   inkscape:version="0.48.0 r9654"
   version="1.0"
   sodipodi:docname="preferences-desktop-locale.svg"
   inkscape:output_extension="org.inkscape.output.svg.inkscape"
   style="display:inline">
  <defs
     id="defs4">
    <linearGradient
       id="linearGradient6746">
      <stop
         id="stop6748"
         offset="0"
         style="stop-color:#1d3462;stop-opacity:1;" />
      <stop
         style="stop-color:#5e83cd;stop-opacity:0.50588238;"
         offset="0.28121248"
         id="stop6750" />
      <stop
         id="stop6752"
         offset="0.45118788"
         style="stop-color:#28509d;stop-opacity:1;" />
      <stop
         id="stop6754"
         offset="0.58596319"
         style="stop-color:#1f4286;stop-opacity:1" />
      <stop
         style="stop-color:#2b55a8;stop-opacity:1;"
         offset="0.76171201"
         id="stop6756" />
      <stop
         style="stop-color:#9cb5e7;stop-opacity:0.9765625;"
         offset="1"
         id="stop6758" />
    </linearGradient>
    <linearGradient
       inkscape:collect="always"
       xlink:href="#linearGradient6746"
       id="linearGradient3536"
       gradientUnits="userSpaceOnUse"
       gradientTransform="matrix(0,1.0172414,-1.0172414,0,45.845499,-41.955038)"
       x1="50.420731"
       y1="111.18644"
       x2="68.841461"
       y2="9.1256237" />
    <linearGradient
       id="linearGradient3538">
      <stop
         style="stop-color:#264869;stop-opacity:1;"
         offset="0"
         id="stop3540" />
      <stop
         id="stop3544"
         offset="0.28121248"
         style="stop-color:#84abcf;stop-opacity:1;" />
      <stop
         style="stop-color:#386693;stop-opacity:1;"
         offset="0.63176233"
         id="stop3546" />
      <stop
         id="stop3542"
         offset="1"
         style="stop-color:#b4cadf;stop-opacity:1;" />
    </linearGradient>
    <linearGradient
       inkscape:collect="always"
       id="linearGradient3327">
      <stop
         style="stop-color:#000000;stop-opacity:1;"
         offset="0"
         id="stop3330" />
      <stop
         style="stop-color:#000000;stop-opacity:0;"
         offset="1"
         id="stop3333" />
    </linearGradient>
    <linearGradient
       inkscape:collect="always"
       xlink:href="#linearGradient3327"
       id="linearGradient3335"
       x1="11.375"
       y1="22"
       x2="11.375"
       y2="-9.817296"
       gradientUnits="userSpaceOnUse" />
    <linearGradient
       inkscape:collect="always"
       xlink:href="#ButtonColor"
       id="linearGradient3181"
       x1="-3.0607977"
       y1="27.258198"
       x2="-3.0607977"
       y2="7.2536583"
       gradientUnits="userSpaceOnUse"
       gradientTransform="translate(11.119372,-6.2581977)" />
    <inkscape:perspective
       sodipodi:type="inkscape:persp3d"
       inkscape:vp_x="0 : 11 : 1"
       inkscape:vp_y="0 : 1000 : 0"
       inkscape:vp_z="22 : 11 : 1"
       inkscape:persp3d-origin="11 : 7.3333333 : 1"
       id="perspective2531" />
    <linearGradient
       id="ButtonShadow"
       gradientTransform="scale(0.9883037,1.0118347)"
       x1="9.3550024"
       y1="21.742682"
       x2="9.3550024"
       y2="0.49362123"
       gradientUnits="userSpaceOnUse">
      <stop
         id="stop3277"
         offset="0"
         style="stop-color:#000000;stop-opacity:0.70588237;" />
      <stop
         id="stop3279"
         offset="1"
         style="stop-color:#000000;stop-opacity:0.15686275;" />
    </linearGradient>
    <linearGradient
       inkscape:collect="always"
       id="linearGradient3232">
      <stop
         style="stop-color:#000000;stop-opacity:1;"
         offset="0"
         id="stop3234" />
      <stop
         style="stop-color:#000000;stop-opacity:0;"
         offset="1"
         id="stop3236" />
    </linearGradient>
    <linearGradient
       gradientUnits="userSpaceOnUse"
       y2="-6.0004225"
       x2="11"
       y1="14.805666"
       x1="11"
       id="linearGradient3221"
       xlink:href="#linearGradient3232"
       inkscape:collect="always" />
    <linearGradient
       id="ButtonColor"
       x1="10.31979"
       y1="21"
       x2="10.31979"
       y2="0.99929649"
       gradientUnits="userSpaceOnUse">
      <stop
         style="stop-color:#2a6cce;stop-opacity:1"
         offset="0"
         id="stop3189" />
      <stop
         style="stop-color:#5b92e5;stop-opacity:1"
         offset="1"
         id="stop3191" />
    </linearGradient>
    <linearGradient
       inkscape:collect="always"
       xlink:href="#ButtonShadow"
       id="linearGradient38042"
       gradientUnits="userSpaceOnUse"
       gradientTransform="scale(0.9883037,1.0118347)"
       x1="9.3550024"
       y1="21.742682"
       x2="9.3550024"
       y2="0.49362123" />
    <linearGradient
       inkscape:collect="always"
       xlink:href="#linearGradient6746"
       id="linearGradient4354"
       gradientUnits="userSpaceOnUse"
       gradientTransform="matrix(0,0.1724138,-0.1724138,0,22.034483,-0.034483)"
       x1="42.774391"
       y1="116.78658"
       x2="68.841461"
       y2="9.1256237" />
    <inkscape:perspective
       id="perspective2944"
       inkscape:persp3d-origin="450 : 200 : 1"
       inkscape:vp_z="900 : 300 : 1"
       inkscape:vp_y="0 : 1000 : 0"
       inkscape:vp_x="0 : 300 : 1"
       sodipodi:type="inkscape:persp3d" />
    <linearGradient
       y2="16"
       x2="10"
       y1="1"
       x1="10"
       gradientUnits="userSpaceOnUse"
       id="linearGradient3078"
       xlink:href="#linearGradient3823"
       inkscape:collect="always"
       gradientTransform="translate(1,-1)" />
    <linearGradient
       id="linearGradient3823">
      <stop
         id="stop3825"
         offset="0"
         style="stop-color:#ffffff;stop-opacity:1;" />
      <stop
         id="stop3829"
         offset="1"
         style="stop-color:#ffffff;stop-opacity:0;" />
    </linearGradient>
    <linearGradient
       inkscape:collect="always"
       xlink:href="#linearGradient3831"
       id="linearGradient3845"
       x1="11"
       y1="19.5"
       x2="21"
       y2="19.5"
       gradientUnits="userSpaceOnUse"
       spreadMethod="reflect" />
    <linearGradient
       id="linearGradient3831">
      <stop
         style="stop-color:#ffffff;stop-opacity:1;"
         offset="0"
         id="stop3833" />
      <stop
         id="stop3821"
         offset="0.75"
         style="stop-color:#ffffff;stop-opacity:0.49803922;" />
      <stop
         style="stop-color:#ffffff;stop-opacity:0;"
         offset="1"
         id="stop3835" />
    </linearGradient>
    <linearGradient
       y2="16"
       x2="10"
       y1="1"
       x1="10"
       gradientUnits="userSpaceOnUse"
       id="linearGradient3961"
       xlink:href="#linearGradient3823"
       inkscape:collect="always" />
  </defs>
  <sodipodi:namedview
     id="base"
     pagecolor="#ffffff"
     bordercolor="#e7e7e7"
     borderopacity="1"
     inkscape:pageopacity="0.0"
     inkscape:pageshadow="2"
     inkscape:zoom="8.6566631"
     inkscape:cx="-38.128655"
     inkscape:cy="-6.9507776"
     inkscape:document-units="px"
     inkscape:current-layer="layer1"
     showgrid="true"
     inkscape:showpageshadow="false"
     showguides="false"
     inkscape:guide-bbox="true"
     inkscape:window-width="1920"
     inkscape:window-height="1026"
     inkscape:window-x="0"
     inkscape:window-y="25"
     inkscape:window-maximized="1"
     inkscape:snap-global="false">
    <sodipodi:guide
       orientation="1,0"
       position="0,112"
       id="guide2383" />
    <sodipodi:guide
       orientation="0,1"
       position="26.278146,128"
       id="guide2385" />
    <sodipodi:guide
       orientation="1,0"
       position="128,54.082119"
       id="guide2387" />
    <sodipodi:guide
       orientation="0,1"
       position="78.156291,0"
       id="guide2389" />
    <sodipodi:guide
       orientation="0,1"
       position="60.863576,64.084768"
       id="guide2391" />
    <inkscape:grid
       type="xygrid"
       id="grid3672"
       visible="true"
       enabled="true"
       empspacing="8"
       snapvisiblegridlinesonly="true" />
  </sodipodi:namedview>
  <metadata
     id="metadata7">
    <rdf:RDF>
      <cc:Work
         rdf:about="">
        <dc:format>image/svg+xml</dc:format>
        <dc:type
           rdf:resource="http://purl.org/dc/dcmitype/StillImage" />
      </cc:Work>
    </rdf:RDF>
  </metadata>
  <g
     inkscape:label="Button"
     inkscape:groupmode="layer"
     id="layer1">
    <g
       style="display:inline"
       id="g3337">
      <rect
         ry="2.5"
         rx="2.5"
         y="0.5"
         x="0.5"
         height="21.5"
         width="21"
         id="rect3371"
         style="opacity:0.3;fill:url(#linearGradient3335);fill-opacity:1;stroke:none;display:inline" />
      <rect
         style="opacity:0.5;fill:#000000;fill-opacity:1;stroke:none;display:inline"
         id="rect2553"
         width="20"
         height="20"
         x="1"
         y="2"
         rx="2.3809524"
         ry="2.3255813" />
    </g>
    <rect
       style="fill:url(#linearGradient3181);fill-opacity:1;fill-rule:evenodd;stroke:none;display:inline"
       id="rect3173"
       width="20"
       height="20"
       x="1"
       y="1"
       rx="2"
       ry="2" />
    <path
       style="opacity:0.4;fill:url(#linearGradient4354);fill-opacity:1;stroke:none;display:inline"
       d="M 3,1 C 1.892,1 1,1.892 1,3 l 0,16 c 0,1.108 0.892,2 2,2 l 16,0 c 1.108,0 2,-0.892 2,-2 L 21,3 C 21,1.892 20.108,1 19,1 L 3,1 z"
       id="path3534" />
    <g
       id="g6782"
       transform="matrix(0.1667758,0,0,0.1667758,37.847172,7.7876505)">
      <path
         transform="matrix(-1.033127,0,0,1.033127,141.58111,6.4398546)"
         d="m 84.942409,19.602094 -4.823386,-3.348879 -4.748083,3.454814 1.694464,-5.622173 -4.752962,-3.448099 5.870623,-0.125816 1.810592,-5.5858566 1.93378,5.5444146 5.871969,-0.0041 -4.675481,3.552452 z"
         inkscape:randomized="0"
         inkscape:rounded="0"
         inkscape:flatsided="false"
         sodipodi:arg2="1.559729"
         sodipodi:arg1="0.93141042"
         sodipodi:r2="3.1853478"
         sodipodi:r1="8.142477"
         sodipodi:cy="13.068063"
         sodipodi:cx="80.083771"
         sodipodi:sides="5"
         id="path6674"
         style="opacity:0.99595139;fill:#ffcc00;fill-opacity:1;fill-rule:nonzero;stroke:none;display:inline"
         sodipodi:type="star" />
      <path
         sodipodi:type="star"
         style="opacity:0.99595139;fill:#ffcc00;fill-opacity:1;fill-rule:nonzero;stroke:none;display:inline"
         id="path6662"
         sodipodi:sides="5"
         sodipodi:cx="80.083771"
         sodipodi:cy="13.068063"
         sodipodi:r1="8.142477"
         sodipodi:r2="3.1853478"
         sodipodi:arg1="0.93141042"
         sodipodi:arg2="1.559729"
         inkscape:flatsided="false"
         inkscape:rounded="0"
         inkscape:randomized="0"
         d="m 84.942409,19.602094 -4.823386,-3.348879 -4.748083,3.454814 1.694464,-5.622173 -4.752962,-3.448099 5.870623,-0.125816 1.810592,-5.5858566 1.93378,5.5444146 5.871969,-0.0041 -4.675481,3.552452 z"
         transform="matrix(1.033127,0,0,1.033127,-103.77193,6.4398546)" />
      <path
         sodipodi:type="star"
         style="opacity:0.99595139;fill:#ffcc00;fill-opacity:1;fill-rule:nonzero;stroke:none;display:inline"
         id="path6672"
         sodipodi:sides="5"
         sodipodi:cx="80.083771"
         sodipodi:cy="13.068063"
         sodipodi:r1="8.142477"
         sodipodi:r2="3.1853478"
         sodipodi:arg1="0.93141042"
         sodipodi:arg2="1.559729"
         inkscape:flatsided="false"
         inkscape:rounded="0"
         inkscape:randomized="0"
         d="m 84.942409,19.602094 -4.823386,-3.348879 -4.748083,3.454814 1.694464,-5.622173 -4.752962,-3.448099 5.870623,-0.125816 1.810592,-5.5858566 1.93378,5.5444146 5.871969,-0.0041 -4.675481,3.552452 z"
         transform="matrix(-1.033127,0,0,1.033127,136.3874,26.222266)" />
      <path
         transform="matrix(1.033127,0,0,1.033127,-98.578214,26.222266)"
         d="m 84.942409,19.602094 -4.823386,-3.348879 -4.748083,3.454814 1.694464,-5.622173 -4.752962,-3.448099 5.870623,-0.125816 1.810592,-5.5858566 1.93378,5.5444146 5.871969,-0.0041 -4.675481,3.552452 z"
         inkscape:randomized="0"
         inkscape:rounded="0"
         inkscape:flatsided="false"
         sodipodi:arg2="1.559729"
         sodipodi:arg1="0.93141042"
         sodipodi:r2="3.1853478"
         sodipodi:r1="8.142477"
         sodipodi:cy="13.068063"
         sodipodi:cx="80.083771"
         sodipodi:sides="5"
         id="path6664"
         style="opacity:0.99595139;fill:#ffcc00;fill-opacity:1;fill-rule:nonzero;stroke:none;display:inline"
         sodipodi:type="star" />
      <path
         sodipodi:type="star"
         style="opacity:0.99595139;fill:#ffcc00;fill-opacity:1;fill-rule:nonzero;stroke:none;display:inline"
         id="path6676"
         sodipodi:sides="5"
         sodipodi:cx="80.083771"
         sodipodi:cy="13.068063"
         sodipodi:r1="8.142477"
         sodipodi:r2="3.1853478"
         sodipodi:arg1="0.93141042"
         sodipodi:arg2="1.559729"
         inkscape:flatsided="false"
         inkscape:rounded="0"
         inkscape:randomized="0"
         d="m 84.942409,19.602094 -4.823386,-3.348879 -4.748083,3.454814 1.694464,-5.622173 -4.752962,-3.448099 5.870623,-0.125816 1.810592,-5.5858566 1.93378,5.5444146 5.871969,-0.0041 -4.675481,3.552452 z"
         transform="matrix(-1.033127,0,0,1.033127,136.21986,-13.149464)" />
      <path
         transform="matrix(1.033127,0,0,1.033127,-98.410674,-13.149464)"
         d="m 84.942409,19.602094 -4.823386,-3.348879 -4.748083,3.454814 1.694464,-5.622173 -4.752962,-3.448099 5.870623,-0.125816 1.810592,-5.5858566 1.93378,5.5444146 5.871969,-0.0041 -4.675481,3.552452 z"
         inkscape:randomized="0"
         inkscape:rounded="0"
         inkscape:flatsided="false"
         sodipodi:arg2="1.559729"
         sodipodi:arg1="0.93141042"
         sodipodi:r2="3.1853478"
         sodipodi:r1="8.142477"
         sodipodi:cy="13.068063"
         sodipodi:cx="80.083771"
         sodipodi:sides="5"
         id="path6660"
         style="opacity:0.99595139;fill:#ffcc00;fill-opacity:1;fill-rule:nonzero;stroke:none;display:inline"
         sodipodi:type="star" />
      <path
         transform="matrix(-1.033127,0,0,1.033127,121.81148,40.880996)"
         d="m 84.942409,19.602094 -4.823386,-3.348879 -4.748083,3.454814 1.694464,-5.622173 -4.752962,-3.448099 5.870623,-0.125816 1.810592,-5.5858566 1.93378,5.5444146 5.871969,-0.0041 -4.675481,3.552452 z"
         inkscape:randomized="0"
         inkscape:rounded="0"
         inkscape:flatsided="false"
         sodipodi:arg2="1.559729"
         sodipodi:arg1="0.93141042"
         sodipodi:r2="3.1853478"
         sodipodi:r1="8.142477"
         sodipodi:cy="13.068063"
         sodipodi:cx="80.083771"
         sodipodi:sides="5"
         id="path6670"
         style="opacity:0.99595139;fill:#ffcc00;fill-opacity:1;fill-rule:nonzero;stroke:none;display:inline"
         sodipodi:type="star" />
      <path
         sodipodi:type="star"
         style="opacity:0.99595139;fill:#ffcc00;fill-opacity:1;fill-rule:nonzero;stroke:none;display:inline"
         id="path6666"
         sodipodi:sides="5"
         sodipodi:cx="80.083771"
         sodipodi:cy="13.068063"
         sodipodi:r1="8.142477"
         sodipodi:r2="3.1853478"
         sodipodi:arg1="0.93141042"
         sodipodi:arg2="1.559729"
         inkscape:flatsided="false"
         inkscape:rounded="0"
         inkscape:randomized="0"
         d="m 84.942409,19.602094 -4.823386,-3.348879 -4.748083,3.454814 1.694464,-5.622173 -4.752962,-3.448099 5.870623,-0.125816 1.810592,-5.5858566 1.93378,5.5444146 5.871969,-0.0041 -4.675481,3.552452 z"
         transform="matrix(1.033127,0,0,1.033127,-84.002297,40.880996)" />
      <path
         transform="matrix(-1.033127,0,0,1.033127,121.64394,-27.808195)"
         d="m 84.942409,19.602094 -4.823386,-3.348879 -4.748083,3.454814 1.694464,-5.622173 -4.752962,-3.448099 5.870623,-0.125816 1.810592,-5.5858566 1.93378,5.5444146 5.871969,-0.0041 -4.675481,3.552452 z"
         inkscape:randomized="0"
         inkscape:rounded="0"
         inkscape:flatsided="false"
         sodipodi:arg2="1.559729"
         sodipodi:arg1="0.93141042"
         sodipodi:r2="3.1853478"
         sodipodi:r1="8.142477"
         sodipodi:cy="13.068063"
         sodipodi:cx="80.083771"
         sodipodi:sides="5"
         id="path6678"
         style="opacity:0.99595139;fill:#ffcc00;fill-opacity:1;fill-rule:nonzero;stroke:none;display:inline"
         sodipodi:type="star" />
      <path
         sodipodi:type="star"
         style="opacity:0.99595139;fill:#ffcc00;fill-opacity:1;fill-rule:nonzero;stroke:none;display:inline"
         id="path6658"
         sodipodi:sides="5"
         sodipodi:cx="80.083771"
         sodipodi:cy="13.068063"
         sodipodi:r1="8.142477"
         sodipodi:r2="3.1853478"
         sodipodi:arg1="0.93141042"
         sodipodi:arg2="1.559729"
         inkscape:flatsided="false"
         inkscape:rounded="0"
         inkscape:randomized="0"
         d="m 84.942409,19.602094 -4.823386,-3.348879 -4.748083,3.454814 1.694464,-5.622173 -4.752962,-3.448099 5.870623,-0.125816 1.810592,-5.5858566 1.93378,5.5444146 5.871969,-0.0041 -4.675481,3.552452 z"
         transform="matrix(1.033127,0,0,1.033127,-83.834756,-27.808195)" />
      <path
         transform="matrix(1.033127,0,0,1.033127,-63.803343,46.088444)"
         d="m 84.942409,19.602094 -4.823386,-3.348879 -4.748083,3.454814 1.694464,-5.622173 -4.752962,-3.448099 5.870623,-0.125816 1.810592,-5.5858566 1.93378,5.5444146 5.871969,-0.0041 -4.675481,3.552452 z"
         inkscape:randomized="0"
         inkscape:rounded="0"
         inkscape:flatsided="false"
         sodipodi:arg2="1.559729"
         sodipodi:arg1="0.93141042"
         sodipodi:r2="3.1853478"
         sodipodi:r1="8.142477"
         sodipodi:cy="13.068063"
         sodipodi:cx="80.083771"
         sodipodi:sides="5"
         id="path6668"
         style="opacity:0.99595139;fill:#ffcc00;fill-opacity:1;fill-rule:nonzero;stroke:none;display:inline"
         sodipodi:type="star" />
      <path
         transform="matrix(1.033127,0,0,1.033127,-63.803343,-33.015643)"
         d="m 84.942409,19.602094 -4.823386,-3.348879 -4.748083,3.454814 1.694464,-5.622173 -4.752962,-3.448099 5.870623,-0.125816 1.810592,-5.5858566 1.93378,5.5444146 5.871969,-0.0041 -4.675481,3.552452 z"
         inkscape:randomized="0"
         inkscape:rounded="0"
         inkscape:flatsided="false"
         sodipodi:arg2="1.559729"
         sodipodi:arg1="0.93141042"
         sodipodi:r2="3.1853478"
         sodipodi:r1="8.142477"
         sodipodi:cy="13.068063"
         sodipodi:cx="80.083771"
         sodipodi:sides="5"
         id="path6639"
         style="opacity:0.99595139;fill:#ffcc00;fill-opacity:1;fill-rule:nonzero;stroke:none;display:inline"
         sodipodi:type="star" />
    </g>
    <path
       id="path2906"
       style="fill:#ffffff"
       d="m 17.826794,13.8832 c -0.389304,0.254802 -0.783907,0.491107 -1.158003,0.780802 v -0.03558 c 0.572996,-0.952298 0.292892,-2.260515 0.645934,-3.308541 l 0.131671,-0.351077 c -0.07367,0.652876 0.209906,1.205913 0.189994,1.861026 -0.01992,0.395744 -0.149072,0.746639 -0.356878,1.06264 h 0.03521 c 0.280743,-0.368706 0.499966,-0.760843 0.828071,-1.112057 0.509284,-0.491106 1.027062,-0.994681 1.093925,-1.676193 0.172958,1.137725 -0.465439,2.134873 -1.409927,2.778979 l 0,0 z m -1.791103,2.773612 c -0.985774,0.372223 -1.977487,-0.08467 -2.922021,-0.237309 l -0.181865,-0.02311 v -0.0058 c 0.451647,-0.102486 0.890049,-0.236944 1.24953,-0.561486 0.52947,-0.508941 1.000618,-1.032794 1.588594,-1.433837 -0.436026,0.559067 -0.482246,1.354825 -1.202532,1.714261 -0.178257,0.116645 -0.403235,0.137288 -0.5872,0.225616 0.262338,0.0057 0.502524,-0.08833 0.762304,-0.114634 0.965863,-0.15163 2.070795,0.0039 2.748379,-0.818869 -0.251559,0.573338 -0.881553,1.053438 -1.455189,1.255123 l 0,0 z m -0.940879,0.90722 c -0.877991,0.327648 -1.794299,-0.01498 -2.480059,-0.534997 -0.277636,-0.176474 -0.522391,-0.430592 -0.881506,-0.408121 -0.130256,-0.0025 -0.255852,0.0039 -0.36656,0.0359 0.666211,0.310019 1.28506,0.737414 1.850885,1.284011 -0.09536,0.108881 -0.218857,0.210729 -0.335183,0.30463 -0.545272,-0.58752 -1.149142,-1.153025 -1.825264,-1.483322 -0.132402,0.01717 -0.258365,0.09682 -0.37775,0.160947 -0.550433,0.348017 -1.0947023,0.79569 -1.5039197,1.343749 L 8.8238301,17.976449 C 9.3850425,17.408752 10.00581,16.966834 10.684901,16.651152 10.017594,16.439784 9.5820238,16.998804 9.0754804,17.283156 8.4852212,17.695296 7.6363235,17.888852 6.922979,17.604501 6.5393375,17.458991 6.1676625,17.2447 5.8898882,16.896409 c 0.5613947,0.386747 1.3975042,0.427302 2.0359474,0.176109 0.8567075,-0.371584 1.7469375,-0.842641 2.7797084,-0.617388 0.161175,0.0028 0.317783,0.163321 0.470053,0.02668 0.767602,-0.199309 1.63664,-0.0623 2.297508,0.288554 l 0.681146,0.273024 c 0.633099,0.234113 1.451625,0.169351 1.994295,-0.216391 -0.279007,0.347287 -0.660136,0.596105 -1.053734,0.737047 l 0,0 z M 4.5196035,15.498467 c 0.7791574,0.886143 2.0522979,0.590465 3.0901848,0.822384 0.1466055,0.02 0.2807886,0.07873 0.4361635,0.0549 C 7.9222275,16.297472 7.7505479,16.305964 7.6154973,16.23481 6.8019494,15.948997 6.6826095,15.068244 6.2409652,14.47433 c 0.5642266,0.37469 1.0385717,0.880046 1.559091,1.369714 0.3741416,0.327739 0.8245088,0.479004 1.2990364,0.575462 -0.1140417,0.04166 -0.2635247,0.03023 -0.3859247,0.0623 C 7.860662,16.691431 6.913525,17.03406 6.0094563,16.727329 5.4217084,16.542268 4.8153269,16.077514 4.5196035,15.498467 l 0,0 z m -1.248935,-2.050836 c 0.4859458,1.099314 1.7030016,1.190383 2.5190161,1.859792 0.1501678,0.133086 0.3075065,0.24626 0.4770394,0.325227 l 0.00872,-0.0089 C 6.0881027,15.454394 5.871391,15.261477 5.7402221,15.041934 5.2626347,14.377869 5.4306144,13.447631 5.0727779,12.733418 c 0.3251356,0.388939 0.6208136,0.793224 0.8171097,1.234457 0.2919787,0.720286 0.4035543,1.533835 1.079174,2.078308 C 6.2379052,15.80522 5.3813348,15.87254 4.7359953,15.422332 4.0313745,14.989274 3.4025225,14.254739 3.2706685,13.447631 l 0,0 z M 2.7500584,11.223653 c 0.070289,0.968466 1.1117374,1.480216 1.5944861,2.281981 0.1142245,0.164051 0.2133318,0.345551 0.3659661,0.482885 -0.02384,-0.103178 -0.1201162,-0.189994 -0.155466,-0.295678 -0.1688937,-0.33628 -0.2304586,-0.737003 -0.1898567,-1.143434 0.046768,-0.494668 0.2542539,-0.953714 0.1750593,-1.474004 0.4241975,0.914619 0.2953582,2.056225 0.5325307,3.047299 0.062113,0.216757 0.187573,0.410314 0.2697818,0.617479 C 4.4710091,14.146588 3.2825891,13.581813 2.8959334,12.493917 2.732977,12.118815 2.7147998,11.654427 2.7500584,11.223653 l 0,0 z m 0.028819,-1.7845716 c 0.049828,-0.2161636 0.087918,-0.4398628 0.1820012,-0.6382145 -0.178256,0.9137056 0.4363006,1.5720611 0.637895,2.3640531 0.084356,0.296225 0.1049987,0.614373 0.2256177,0.89233 0.011235,0.0061 0.021009,-0.0057 0.02795,-0.01457 C 3.552188,11.201365 3.9854743,10.419559 4.4208615,9.760838 4.5267281,9.5823533 4.5877455,9.3835906 4.640405,9.1784337 4.6866704,9.5591976 4.5903944,9.9976906 4.5350864,10.393024 4.4292193,10.89605 4.271196,11.373091 4.133633,11.861182 4.043112,12.166177 4.066907,12.510267 4.1134,12.829831 L 4.069783,12.794981 C 3.7505854,12.206368 3.1185365,11.747278 2.9308264,11.104221 2.7763653,10.591558 2.6736953,9.9976906 2.7788771,9.4390814 l 0,0 z M 3.1155222,8.4562292 c -0.017447,-0.6911479 0.2694166,-1.2553291 0.673656,-1.770299 0.011737,-0.00587 0.020095,-0.017606 0.035213,-0.014775 -0.4449783,0.6761907 -0.076865,1.5279198 -0.097144,2.2967783 l -0.058688,0.7871954 c 0.00872,0.00571 0.00872,0.029367 0.029367,0.020278 C 3.7242328,9.6876717 3.7299418,9.5939082 3.7475255,9.503661 3.8523416,8.8686895 4.4037805,8.4181393 4.8854331,7.9793265 4.9882851,7.8645538 5.0792174,7.7480227 5.1320593,7.6133374 5.0927361,7.9294987 4.9936287,8.2483777 4.8624603,8.5407675 4.4875878,9.2718321 3.7950695,9.8716825 3.6685592,10.708661 3.6071765,9.9065759 3.0610818,9.3069079 3.1155222,8.4562292 l 0,0 z M 4.2884598,6.1240328 C 4.497727,5.8638874 4.7630332,5.6830967 5.0615883,5.6067568 4.4818788,6.0049898 4.5196035,6.7186541 4.335821,7.311928 4.2772243,7.531311 4.1754681,7.7334307 4.1247728,7.9583174 l 0.014752,0.011737 C 4.2359832,7.7158246 4.4055161,7.4756149 4.6171123,7.2681745 5.0288415,6.8880957 5.6379178,6.6512197 5.8396947,6.0889799 5.8304693,6.8702838 5.1786899,7.4845209 4.5550446,7.9236303 4.297868,8.1492475 4.0498716,8.4063786 3.9082435,8.6964159 3.8943596,8.4992976 3.9373822,8.3013795 3.9233613,8.0902173 3.8555388,7.4081806 3.8062591,6.6297085 4.2884598,6.1240328 l 0,0 z M 6.4548105,5.022373 C 6.0660594,5.3631752 5.7964382,5.794181 5.5080414,6.1960957 5.2495206,6.516183 4.9188282,6.7272501 4.6257688,7.0025039 4.7839762,6.6745349 4.7897532,6.2827714 5.0141489,5.9815006 5.3334522,5.4244318 5.9255541,5.228447 6.4548105,5.022373 l 0,0 z M 16.472358,5.3459034 c 0.428856,0.3838239 0.622823,0.8807994 0.748055,1.3957234 l 0.07083,0.163527 C 16.668791,6.4574813 16.103331,5.8556896 15.705852,5.220124 L 15.220408,4.7290174 c 0.426756,0.1809508 0.886851,0.288964 1.25195,0.616886 l 0,0 z m 1.522416,1.4103154 c 0.136011,0.6149451 -0.06266,1.2138364 0.0623,1.8346958 l -0.0046,0.00534 C 17.717867,7.9384047 17.007629,7.6279294 16.518943,7.1014046 16.235734,6.7889655 16.112603,6.4081788 16.041766,6.0049898 c 0.280013,0.6750715 1.035603,0.8238242 1.469392,1.3926863 0.145144,0.131146 0.192505,0.3128278 0.286087,0.461557 l 0.0153,-0.014775 C 17.563086,7.311928 17.479507,6.7126253 17.305453,6.1446765 c -0.08714,-0.2461014 -0.2601,-0.4879096 -0.492157,-0.6430788 0.569433,0.1163711 1.06296,0.7108555 1.181478,1.2546211 l 0,0 z m 0.365098,0.1347083 c 0.517825,0.7017666 0.63132,1.8201038 0.254163,2.6250656 -0.140578,0.3411208 -0.239867,0.7046203 -0.295084,1.0821873 -0.02635,-0.06513 -0.03238,-0.15268 -0.0559,-0.225252 C 18.05707,9.5850022 17.311893,9.0234704 17.005436,8.2805993 16.908247,8.0376719 16.825399,7.7866608 16.779453,7.5229533 c 0.327466,0.6056509 1.134482,0.9184781 1.354437,1.5859229 0.09011,0.1688019 0.08504,0.3797135 0.140943,0.5612123 0.01174,0 0.02347,-0.00872 0.02347,-0.020644 -0.09682,-0.6875399 -0.06728,-1.4071184 0.02604,-2.086118 -0.0054,-0.3677929 -0.04128,-0.7245565 -0.245622,-1.0092502 0.131033,0.07634 0.19004,0.2229683 0.281154,0.3368505 l 0,0 z m 0.484714,4.5545979 c -0.307096,0.436986 -0.678589,0.843783 -0.962301,1.287893 0.03166,-0.351625 0.0733,-0.783998 -0.06367,-1.117081 -0.237355,-0.717272 -0.445892,-1.445551 -0.513166,-2.2327464 l 0.0093,-0.3010213 c 0.178622,0.803911 0.968329,1.3565367 0.918501,2.2582777 0.01809,0.218538 -0.04951,0.40433 -0.09043,0.596516 l 0.01356,0.01421 0.03558,-0.03987 c 0.117102,-0.442329 0.176201,-0.907448 0.358294,-1.320137 0.258775,-0.5938672 0.581902,-1.1932153 0.450231,-1.910259 0.393596,0.8453808 0.274349,1.974885 -0.155878,2.764226 l 0,0 z m -2.261201,4.207403 c -0.503894,0.134937 -1.041585,0.178325 -1.530957,0.345209 0.828848,-0.710673 0.781533,-1.810307 1.334525,-2.64733 0.176154,-0.23699 0.321756,-0.485398 0.527095,-0.710284 -0.336372,0.674751 -0.190496,1.550183 -0.576923,2.204977 -0.148753,0.260099 -0.361491,0.512436 -0.596746,0.716724 0.07686,-0.0029 0.14414,-0.06942 0.211735,-0.113859 0.627664,-0.62634 1.447651,-0.801491 2.126605,-1.310363 0.271974,-0.216711 0.521067,-0.500697 0.640635,-0.807839 -0.128474,1.039166 -1.162296,2.013158 -2.135969,2.322765 l 0,0 z"
       inkscape:transform-center-y="1.5515155" />
    <g
       id="g3889">
      <path
         transform="matrix(0.95,0,0,0.95,0.55000001,-1.4)"
         d="m 16,12 c 0,2.761424 -2.238576,5 -5,5 -2.7614237,0 -5,-2.238576 -5,-5 0,-2.7614237 2.2385763,-5 5,-5 2.761424,0 5,2.2385763 5,5 z"
         sodipodi:ry="5"
         sodipodi:rx="5"
         sodipodi:cy="12"
         sodipodi:cx="11"
         id="path3877"
         style="fill:#ffffff;fill-opacity:0.25480766;stroke:#ffffff;stroke-width:0.52631581;stroke-miterlimit:4;stroke-dasharray:none"
         sodipodi:type="arc" />
      <path
         style="fill:#ffffff"
         d="m 14.39042,12.308517 c 0.0029,0.02654 -0.0062,0.09187 0.0062,0.106863 0.01282,0.02035 0.06067,0.01602 0.0814,0.0089 0.05664,-0.02129 0.112993,-0.09612 0.139154,-0.152215 0.01841,-0.02848 0.03079,-0.06183 0.02676,-0.09914 l -0.03962,-0.120023 c -0.0099,-0.04209 -0.0232,-0.116089 -0.0681,-0.133564 0.0042,-0.01114 0.01841,-0.02856 0.01673,-0.04452 -0.01038,-0.04743 -0.08963,-0.03497 -0.117946,-1.22e-4 -0.01426,0.01741 -0.01023,0.05462 -0.0133,0.07636 -7.98e-4,0.04312 -0.01287,0.130168 -0.03003,0.16933 -0.01718,0.03909 -0.06531,0.09178 -0.06595,0.134882 0.0034,0.03188 0.03762,0.05031 0.06471,0.05333 l 0,0 z m -2.637218,-0.33299 0.01408,0.03095 c 6.18e-4,0.0053 0.007,0.01548 0.01238,0.01502 0.0359,0.03443 0.08621,-0.04536 0.02617,-0.05603 -0.0054,4.58e-4 -0.01655,-0.004 -0.02135,0.0019 -0.01053,9.93e-4 -0.02121,0.0019 -0.03127,0.0082 l 0,0 z m 0.03978,-0.07878 c -0.0243,0.02361 -0.03313,0.04056 0.0063,0.05849 l -0.0063,-0.05849 0,0 z m -0.640457,-0.469109 c -0.039,0.03567 -0.03605,0.01399 -0.05602,0.02654 -0.01486,0.01198 -0.0024,0.02701 -0.0161,0.04975 -0.0042,0.01114 -0.01965,0.01789 -0.01841,0.02856 -0.0036,0.01642 0.01346,0.02562 0.03001,0.0295 0.02183,0.0034 0.0856,-0.0023 0.105545,-0.01478 0.01967,-0.01789 0.01192,-0.03871 0.02091,-0.05565 0.0048,-0.0058 0.01424,-0.01739 0.01904,-0.0232 0.0023,-0.02708 -0.0548,-0.05959 -0.08497,-0.0407 l 0,0 z m 1.537837,-0.164837 0.0057,0.05316 -0.0062,0.04357 c 0.05788,-0.01061 0.0935,-0.02988 0.144867,-0.05062 0.01533,-0.0067 0.04597,-0.02026 0.05787,-0.01059 0.01706,0.0093 0.008,0.02614 0.0039,0.03729 -0.0083,0.02221 -0.04146,0.06285 -0.05572,0.08027 -0.04318,0.04681 -0.106922,0.05254 -0.160802,0.100372 -0.02896,0.02947 -0.03666,0.05702 -0.06578,0.08651 -0.02892,0.0294 -0.04968,0.03668 -0.06455,0.04875 -0.01422,0.01741 -0.0023,0.02708 -0.03247,0.04589 l 0.01718,-0.03909 c -0.01642,-0.004 -0.03778,-0.002 -0.05016,-0.01709 -0.007,-0.0154 -0.0087,-0.03143 -0.0052,-0.04783 0.0073,-0.03289 0.01394,-0.119484 0.033,-0.14271 0.0048,-0.0058 0.04613,-0.02027 0.06143,-0.027 l -0.0071,0.0329 c 0.01594,-0.0014 0.04242,-0.0038 0.05244,-0.01006 0.02604,-0.0078 0.05216,-0.06384 0.06578,-0.08651 l -0.07209,0.02794 c 0.01254,-0.03335 0.04813,-0.100992 0.07785,-0.125136 l 0,0 z m -1.425622,0.160104 c -0.01082,0.04938 0.01935,0.03049 0.0376,0.05039 0.01176,0.0097 0.01348,0.02562 0.01518,0.04163 l -0.04194,0.0091 -0.01843,0.02848 -0.02369,0.02902 0.07197,0.02043 c -0.03605,0.01394 -0.05788,0.01052 -0.08095,0.0449 l 0.09022,-0.0081 c 0.05897,8.1e-5 0.103249,0.01223 0.158807,-0.01967 l -0.01176,-0.0097 0.01609,-0.04983 -0.04008,-0.02323 -0.0141,-0.03095 -0.06748,-0.07994 -0.02243,-0.0088 c 0.01904,-0.0232 0.05742,-0.0643 0.0026,-0.07545 l -0.02708,-0.0029 0.02369,-0.02902 c -0.03251,-0.0024 -0.05959,-0.0053 -0.0839,0.01833 -0.02848,0.03475 -0.02926,0.07778 0.01564,0.09526 l 0,0 z m -0.03141,-0.690284 -0.0013,0.03768 -0.01238,-0.015 0.0015,0.0643 c 0.0094,0.03683 0.05077,0.02237 0.06021,0.01074 0.01007,-0.0062 0.013,-0.02808 0.01193,-0.03869 -0.0011,-0.01061 -0.0076,-0.02081 -0.01346,-0.02562 -0.0113,-0.0044 -0.01658,-0.004 -0.02724,-0.003 l -0.0034,-0.03187 -0.01594,0.0014 0,0 z m -4.3776557,0.339041 c -0.0021,0.08078 0.019171,0.07884 0.037205,0.147104 0.00937,0.03676 -0.00541,0.04882 0.023844,0.12142 0.014079,0.03104 0.022747,0.06245 0.056337,0.07553 -0.00967,-0.09047 -0.02075,-0.143169 -0.051085,-0.226426 -0.021668,-0.05178 -0.038224,-0.05564 -0.055718,-0.118645 l -0.010584,9.93e-4 0,0 z M 14.19447,10.187524 c -0.02536,0.013 -0.03435,0.02993 -0.03143,0.05648 -0.0024,0.02716 0.02105,0.04651 0.04705,0.03879 0.03607,-0.01394 0.04226,-0.105864 -0.01561,-0.09526 l 0,0 z m -5.0215462,-0.01162 c -0.013081,0.0281 -0.015557,0.05518 0.013301,0.07407 -0.00286,-0.02655 0.00487,-0.05418 -0.013301,-0.07407 l 0,0 z m 1.5689302,0.02586 0.01772,0.01454 c 0.039,-0.03574 0.04737,-0.05803 0.07585,-0.09278 0.02366,-0.02902 0.03962,-0.03041 0.0544,-0.04247 0.0094,-0.01162 0.0083,-0.02229 0.01183,-0.03871 0.0084,-0.02229 0.02376,-0.02902 0.01981,-0.06625 0.0019,-0.03241 -0.01925,-0.07887 -0.05585,-0.07022 l -0.0082,-0.02612 c -0.01594,0.0014 -0.04194,0.0091 -0.05671,0.02117 -0.01478,0.01211 -0.0072,0.03292 -0.0267,0.05079 -0.02369,0.02896 -0.06501,0.04341 -0.07507,0.04968 -0.01539,0.0068 -0.0083,0.02229 -0.03328,0.04064 -0.03483,0.0246 -0.05782,0.01053 -0.07849,0.0178 -0.026,0.0077 -0.06453,0.04875 -0.08404,0.06662 -0.02848,0.03475 -0.03675,0.05704 -0.04867,0.09574 -0.0042,0.01107 -0.01308,0.028 -0.0066,0.03823 0.0064,0.01015 0.02237,0.0087 0.03249,0.0024 0.02067,-0.0072 0.06616,-0.03273 0.08274,-0.02886 0.01586,-0.0014 0.02234,0.0088 0.03357,0.01308 0.0165,0.0039 0.0271,0.0029 0.03831,0.0072 0.01114,0.0044 0.02353,0.01942 0.03529,0.02909 0.02826,0.01354 0.05674,-0.0212 0.06508,-0.04341 0.0042,-0.01114 0.0083,-0.02229 0.0066,-0.03823 l 0,0 z m 0.03087,-0.4111551 6.18e-4,0.0053 -0.006,-0.0048 0.0053,-4.99e-4 0,0 z m 0.04705,0.03876 c 0.01408,0.031 0.06592,0.06392 0.09534,0.08819 0.01005,-0.0062 0.01478,-0.01208 0.01896,-0.02318 0.01308,-0.02806 0.0073,-0.0813 -0.02097,-0.09488 -0.01701,-0.0092 -0.03777,-0.002 -0.05308,0.0048 -6.17e-4,-0.0053 -0.0076,-0.02079 -0.01346,-0.025662 -0.0418,-0.039223 -0.0941,0.072932 -0.02678,0.050765 l 0,0 z m -0.222169,-0.071381 c 0.03582,0.034389 0.03645,0.039682 0.08428,0.035389 -0.0073,0.03289 -0.04985,0.08509 -0.08468,0.06137 -0.0229,-0.01408 -0.02523,-0.03536 -0.03637,-0.03974 -0.01709,-0.0092 -0.01841,0.02852 -0.02786,0.0401 -0.0226,0.03965 -0.06035,0.03768 -0.06406,0.102489 l 0.02011,-0.01262 c 0.02043,0.04118 0.05836,-0.0052 0.08382,-0.01821 -0.0047,0.0058 -0.01424,0.01745 -0.01835,0.02851 -0.0037,0.01647 0.01402,0.03103 0.02942,0.02422 0.01531,-0.0068 0.03373,-0.03529 0.04845,-0.04737 0.01485,-0.01202 0.02011,-0.0125 0.03551,-0.01931 0.01478,-0.01203 0.03429,-0.0299 0.04915,-0.04198 0.04442,-0.0362 0.04665,-0.01493 0.06221,-0.07008 -0.0013,-0.01062 0.0035,-0.01643 0.0024,-0.027079 -0.02113,-0.046472 -0.09726,-0.00739 -0.103229,-0.012182 l -0.03305,-0.00782 c -0.01114,-0.00437 -0.03187,0.00287 -0.04773,0.00431 l 0,0 z m 0.245459,-0.011263 -0.02654,0.00236 0.007,0.015477 c 0.03133,-0.00817 0.05254,-0.010105 0.05386,-0.047829 -0.02656,0.00239 -0.03189,0.00285 -0.03437,0.029996 l 0,0 z m -1.6731569,0.1017107 -0.024624,0.120463 0.011004,0.0527 0.022127,0.105465 c 0.01362,-0.02267 0.038065,-0.09472 0.040541,-0.121801 l 0.00605,-0.04358 c 0.00186,-0.03237 0.00604,-0.04348 -0.00805,-0.07447 l -0.034369,0.02993 -0.0021,-0.06964 -0.010585,9.04e-4 0,0 z M 10.898081,9.709503 c -0.0034,-0.031932 0.0024,-0.02706 0.02955,-0.024144 l -3.69e-4,-0.053702 c -0.01539,0.00675 -0.03661,0.00869 -0.05146,0.02073 -0.02369,0.028977 -0.02073,0.055638 0.02229,0.057116 l 0,0 z m -0.157867,-0.071774 0.0182,0.019851 c 0.03661,-0.00866 0.04837,9.939e-4 0.0814,0.00881 l -0.01292,-0.02035 0.01362,-0.022707 c 0.03189,-0.00281 0.03437,-0.029956 0.02091,-0.055598 -0.0059,-0.00485 -0.01711,-0.00921 -0.02299,-0.014079 -0.05719,-0.032432 -0.0626,0.016396 -0.07623,0.039102 l -0.02199,0.044974 0,0 z m 0.137517,-0.017734 c 0.01061,-9.577e-4 0.02129,-0.0019 0.03133,-0.00815 0.01951,-0.017894 0.0085,-0.070656 -0.0087,-0.079842 -0.01648,-0.00389 -0.02536,0.013001 -0.02421,0.023646 l -0.0036,0.016495 0.0029,0.026581 0.0023,0.021268 0,0 z M 9.1702046,9.751721 c 0.018952,-0.023186 0.025542,-0.061409 0.028018,-0.08851 -0.035448,0.019351 -0.032033,0.051245 -0.028018,0.08851 l 0,0 z M 9.3584075,9.4070684 c 0.00511,0.04791 -9.216e-4,0.091425 -0.017634,0.1359002 -0.021369,0.050306 -0.072913,0.119404 -0.083736,0.1686915 l -0.012302,-0.015018 c -0.023146,0.03433 -0.025782,0.1098188 -0.011063,0.1460848 0.028937,-0.02945 0.035588,-0.06768 0.053381,-0.1015105 0.035068,-0.072972 0.08188,-0.1362593 0.099833,-0.2184981 0.0031,-0.021768 0.00743,-0.081281 -0.00557,-0.1015906 -0.00643,-0.010185 -0.011763,-0.00969 -0.022907,-0.014059 l 0,0 z m 4.8369795,0.1409325 c 0.02788,-0.040141 0.03531,-0.1213411 0.04597,-0.1707285 0.02524,-0.1150706 0.07849,-0.1681926 0.06298,-0.3119009 -0.0034,-0.031913 -0.01561,-0.0953 -0.05384,-0.102649 -0.05959,-0.00538 -0.03515,0.073013 -0.03871,0.089448 0.0017,0.015996 -0.0024,0.0271 -0.0067,0.038243 -0.02612,0.056057 -0.0139,0.1194442 -0.01298,0.1784573 l -0.0113,0.1944535 0.01454,0.084675 0,0 z M 13.335173,8.6311307 c 0.0011,0.010624 0.007,0.015497 0.01346,0.025642 0.0059,0.00487 0.01178,0.00971 0.01765,0.014558 0.03419,0.018413 0.05201,-0.015397 0.03899,-0.035767 -0.0063,-0.010164 -0.02816,-0.01358 -0.03882,-0.012601 -0.01054,9.577e-4 -0.02121,0.0019 -0.03127,0.00817 l 0,0 z m 0.794591,-0.092803 c 0.0051,0.04791 0.02432,0.1268135 0.0449,0.1679328 l 0.04689,0.087132 0.0554,0.1669742 c 0.02848,-0.034789 0.01334,-0.076427 0.0041,-0.1131935 -0.02396,-0.073073 -0.05851,-0.145206 -0.08727,-0.2124473 -0.01997,-0.035827 -0.0345,-0.072173 -0.06395,-0.096398 l 0,0 z m -0.293609,-0.086473 -0.0043,0.059472 -0.07261,-0.025742 c -0.0012,0.037784 0.01566,0.09536 0.04569,0.124876 l 0.05831,0.043137 c 0.04706,0.038783 0.09474,0.082878 0.136998,0.1274123 0.03714,0.045054 0.03882,0.061031 0.05168,0.08134 0.01178,0.00967 0.02353,0.019392 0.03886,0.012622 0.01006,-0.00627 0.01254,-0.033351 0.0167,-0.044495 l 0.01782,-0.033831 c 0.0078,-0.02754 -0.0127,-0.068679 -0.02617,-0.094361 L 14.063983,8.624859 C 14.049323,8.588554 14.040493,8.5571 14.015893,8.527084 13.974113,8.487842 13.942243,8.490698 13.898106,8.478515 l -0.06191,-0.02666 0,0 z m -1.477784,0.073472 c -0.0031,0.021788 -0.005,0.05422 -0.03095,0.061909 -0.0052,4.785e-4 -0.02708,-0.00294 -0.03299,-0.00781 l -0.02025,0.06095 c -0.0089,0.016895 -0.02571,0.061389 -0.02384,0.077386 -0.0024,0.02704 0.03467,0.023705 0.05356,5.398e-4 0.01965,-0.017874 0.02213,-0.044974 0.03575,-0.06768 0.02196,-0.044954 0.06267,-0.064765 0.06762,-0.118905 l -0.04889,-0.00639 0,0 z m 1.646336,-0.2014633 c 0.01582,0.046971 0.02693,0.051344 0.0528,0.092004 0.01346,0.025662 0.0099,0.042098 0.04114,0.03393 -0.01869,-0.025182 -0.07085,-0.1118552 -0.09394,-0.1259344 l 0,0 z m -2.227361,0.2858185 c -0.05959,-0.00538 -0.02027,0.06095 -0.02802,0.08849 -0.013,0.028059 -0.07273,0.071035 -0.10167,0.052124 -0.01534,0.00677 -0.03127,0.0082 -0.04783,0.00429 -0.01642,-0.00391 -0.02818,-0.01358 -0.04412,-0.012142 l -0.08466,0.06133 c -0.01486,0.012063 -0.03483,0.024604 -0.05618,0.026501 -0.01579,0.00144 -0.03714,0.00332 -0.04659,0.014978 -0.01486,0.012022 -7.77e-4,0.043017 0.0063,0.058494 l 0.02522,0.035369 c -0.052,0.015398 -0.04799,0.052623 -0.04288,0.1005717 0.003,0.026581 0.01316,0.1223799 0.02075,0.1431894 0.0082,0.026162 0.04302,0.049886 0.07057,0.058114 0.01718,0.00927 0.04425,0.012162 0.06019,0.010764 l 0.0037,-0.064844 0.01596,-0.0014 0.0164,0.052283 c 0.0052,-5.194e-4 0.01594,-0.00144 0.0212,-0.00194 l 0.06608,0.015597 c 0.0059,0.00483 0.0059,0.00483 0.01176,0.00967 0.007,0.015477 -0.0061,0.043536 -0.0043,0.059513 0.0093,0.036746 0.04767,0.044075 0.07956,0.0412 -7.77e-4,0.043037 0.0034,0.031933 9.04e-4,0.059013 0.0029,0.026621 -0.013,0.028058 0.01981,0.084195 0.0065,0.010145 0.01997,0.035827 0.0359,0.034389 0.01594,-0.00142 0.04907,-0.042018 0.08451,-0.06131 0.0082,0.026101 0.0088,0.031454 0.03171,0.045533 l -0.0078,0.02754 0.06035,-0.037644 c -0.01795,0.082199 -0.05214,0.063766 -0.08945,0.1154698 -0.01316,0.028079 -0.005,0.0542 -0.0127,0.08176 l 0.0059,0.00483 0.02011,-0.012541 0.01534,-0.00673 c 0.04719,-0.00965 0.01053,0.04739 0.0116,0.058035 0.0017,0.015996 0.013,0.02031 0.02414,0.024723 l -0.02493,0.018313 0.0147,0.03633 -0.09564,0.0086 c -0.04721,0.0096 -0.08638,0.04536 -0.125994,0.07577 l 0.0013,0.01064 0.01642,0.0039 -0.09162,0.04585 c 0.0277,0.0082 0.06377,-0.0057 0.09039,-0.0081 0.026,-0.0078 0.02121,-0.0019 0.05262,-0.01013 l 0.01701,0.0093 -0.0031,0.02175 0.116708,0.03785 c 0.0277,0.0083 0.04783,-0.0042 0.06501,0.005 0.0229,0.01408 0.01516,0.04162 0.05354,0.04889 0.04412,0.01216 0.0791,-0.01244 0.11563,-0.02111 l -0.0432,0.04689 0.01997,0.03582 0.05201,-0.0154 c -0.03854,0.04102 -0.03668,0.0087 -0.110976,0.01531 0.01703,0.0092 0.06764,0.0315 0.07895,0.0359 0.0277,0.0083 0.0424,-0.0039 0.0814,0.0089 0.03297,0.0078 0.07305,0.03103 0.08374,-0.01835 0.0065,0.01023 0.013,0.02036 0.01888,0.02524 0.01706,0.0092 0.02772,0.0083 0.0443,0.01214 0.02181,0.0034 0.07349,0.03637 0.07118,0.06347 -0.0048,0.0058 -0.0096,0.0116 -0.01422,0.01741 -0.0071,-0.01556 -0.0141,-0.03095 -0.02648,-0.04597 -0.03048,-0.03491 -0.07725,-0.01997 -0.11561,-0.02732 l -0.07725,-0.01989 -0.05957,-0.0054 c -0.03235,-0.0024 -0.05062,-0.02229 -0.0825,-0.01944 -0.01069,9.04e-4 -0.026,0.0077 -0.02477,0.01833 0.0011,0.01061 0.01284,0.02037 0.01873,0.02516 0.03419,0.01841 0.02181,0.0034 0.07367,0.03637 0.02878,0.01889 0.03884,0.01262 0.06654,0.02089 l 0.02832,0.01362 c 0.02183,0.0034 0.026,-0.0078 0.04783,-0.0043 0.01053,-9.04e-4 0.03236,0.0024 0.04364,0.0069 l -0.09222,0.04048 -0.07074,-0.0097 c 0.01408,0.03095 0.01997,0.03582 -0.0037,0.06476 l -0.013,-0.02027 c -0.01424,0.01734 -0.013,0.02802 -0.02724,0.04541 l -0.02369,0.02896 c -0.0042,0.01114 -0.01841,0.02856 -0.02909,0.02947 -0.01594,0.0014 -0.03405,-0.01841 -0.04597,-0.02808 -0.0229,-0.0141 -0.03357,-0.01316 -0.05957,-0.0054 0.01949,0.03049 0.02955,0.02422 0.05772,0.03777 0.02307,0.01408 0.08188,0.06253 0.100152,0.08242 -0.0054,4.58e-4 -0.01068,9.04e-4 -0.01485,0.01208 -0.0094,0.0116 9.03e-4,0.05904 0.0133,0.07397 0.01176,0.0097 0.02307,0.01408 0.03884,0.0127 l -0.06329,0.05943 c 0.0277,0.0082 0.03777,0.0019 0.06129,0.02135 l -0.0531,0.0047 -0.07009,-0.05276 -0.07305,-0.03112 c 0.02724,0.0029 0.07026,0.0045 0.09564,-0.0086 0.04551,-0.02554 0.02384,-0.0773 -0.01145,-0.106404 -0.0229,-0.0141 -0.03886,-0.01262 -0.06594,-0.01556 -0.02183,-0.0034 -0.0554,-0.01655 -0.07677,-0.01464 l -0.05788,0.01061 0.0037,-0.01648 c -0.01658,-0.0039 -0.02244,-0.0088 -0.0373,0.0033 -0.01765,-0.01456 -0.01811,-0.01981 -0.03994,-0.02323 l 0.0028,0.02654 -0.02414,-0.02468 -0.0023,0.02708 c -0.013,-0.02035 -0.01363,-0.02561 -0.03591,-0.03435 l 0.01795,0.06818 -0.0089,0.01693 c -0.02955,0.02414 -0.02926,0.07786 -0.0257,0.109819 0.0068,0.06384 -0.0074,0.08126 -0.01284,0.130088 -0.0014,0.03769 0.01099,0.0527 7.77e-4,0.107403 -0.003,0.02175 -0.02323,0.08266 -0.03219,0.09961 l -0.02368,0.02894 -0.01779,0.03381 c -0.0089,0.01696 -0.02368,0.02902 -0.03265,0.04597 -0.0084,0.02221 0.0034,0.03196 0.0099,0.04209 0.0088,0.03141 -0.01361,0.02267 0.02337,0.06778 l -0.01889,0.02315 0.02121,-0.0019 c -0.01193,0.03871 0.01222,0.06346 0.04875,0.0548 0.026,-0.0078 0.05448,-0.0425 0.06222,-0.07012 l 0.01069,-9.03e-4 0.07149,0.117167 c 0.01238,0.01502 0.01531,0.04164 0.03714,0.04503 0.02183,0.0034 0.03003,-0.01879 0.039,-0.03574 0.0094,-0.0116 0.01952,-0.01787 0.02894,-0.02947 0.01316,-0.02802 -0.01268,-0.06872 -0.01021,-0.09582 0.0029,-0.02173 0.0178,-0.03381 0.02027,-0.06089 -0.004,-0.03722 -0.03173,-0.04551 -0.04999,-0.0654 -0.01827,-0.01981 -0.02043,-0.04108 -0.02337,-0.0677 -0.0063,-0.05859 0.02383,-0.07738 0.0294,-0.126214 0.0019,-0.03244 -0.0164,-0.05224 -0.01873,-0.07359 -0.0017,-0.01596 0.0019,-0.03235 0.01782,-0.03383 0.03666,-0.0087 0.04116,0.03397 0.04409,0.06053 l -0.005,0.05416 c -0.003,0.02183 -0.0119,0.03871 -0.0089,0.0653 0.0076,0.02083 0.01997,0.03585 0.02692,0.05133 0.01238,0.015 0.01409,0.03103 0.02586,0.0407 0.01114,0.0043 0.01701,0.0091 0.0277,0.0082 0.01114,0.0044 0.02229,0.0088 0.03297,0.0078 0.026,-0.0078 0.05277,-0.05851 0.07753,-0.07677 0.01485,-0.01214 0.03668,-0.0087 0.05262,-0.01015 -0.0089,0.01696 -0.03265,0.04597 -0.04209,0.05752 -0.02011,0.01252 -0.05679,0.02119 -0.05866,0.05362 -0.0113,0.04404 0.04705,0.03876 0.04582,0.07644 -0.0024,0.0271 -0.04364,-0.0068 -0.05618,0.02655 -0.01779,0.03383 0.0057,0.05326 0.01392,0.0794 0.0017,0.01596 -0.0071,0.03282 -0.01082,0.0493 -0.02244,0.03962 -0.04132,0.01446 -0.07151,0.03328 -0.02538,0.01308 -0.05324,0.05316 -0.07925,0.06091 -0.02057,0.0072 -0.03838,-0.0074 -0.05432,-0.006 -0.02121,0.0019 -0.039,0.03582 -0.07428,0.0067 -0.03591,-0.03443 0.005,-0.05416 -0.0039,-0.08565 l -0.02167,-0.05178 c -0.03018,0.01881 -0.05973,0.04303 -0.04983,0.08514 0.0147,0.0362 0.04998,0.06531 0.03158,0.09378 -0.01486,0.01208 -0.04676,0.01493 -0.07151,0.03329 -0.03018,0.01887 -0.06159,0.07537 -0.07166,0.08172 -0.01485,0.01206 -0.03079,0.01346 -0.04549,0.02552 l -0.0534,0.05316 c -0.0047,0.0058 -0.0047,0.0058 -0.0095,0.01162 l -0.06654,-0.02091 0.004,0.03722 c -0.02662,0.0024 -0.02662,0.0024 -0.04845,-9.94e-4 -0.0164,-0.004 -0.04891,-0.0063 -0.05725,0.01586 -0.0089,0.01696 0.03529,0.0291 0.04659,0.03343 0.06762,0.03158 0.08094,0.105565 0.05201,0.135122 -0.01951,0.01779 -0.0531,0.0047 -0.07491,0.0014 -0.04907,-0.0063 -0.126294,-0.02632 -0.174583,-0.02732 -0.06379,0.0057 -0.04333,0.04681 -0.05572,0.08019 -0.0032,0.02181 -0.02323,0.03435 -0.02678,0.05077 -0.0048,0.0058 -0.0042,0.01114 -0.0036,0.01648 -6.01e-4,-0.0053 0.01749,0.06291 0.01688,0.05757 0.0076,0.02081 0.0449,0.01749 0.06672,0.02089 0.02754,0.0082 0.03467,0.02376 0.05755,0.03785 0.02244,0.0087 0.03251,0.0024 0.05324,-0.0048 0.04769,-0.0043 0.09318,0.01849 0.164078,-0.02013 0.01532,-0.0067 0.03018,-0.01879 0.03435,-0.02993 0.01424,-0.01734 0.0071,-0.0329 0.02662,-0.05077 0.0243,-0.02368 0.07151,-0.03329 0.09642,-0.05163 0.01951,-0.01787 0.0054,-0.04883 0.04148,-0.06283 0.026,-0.0077 0.0548,0.01122 0.09087,-0.0028 0.03125,-0.0082 0.06501,-0.04341 0.09642,-0.05161 0.03187,-0.0029 0.05168,0.03295 0.09596,0.04511 l 0.175662,0.0379 c 0.0054,-4.58e-4 0.01655,0.004 0.02244,0.0089 0.04705,0.03871 -0.02075,0.05556 -0.04675,0.06331 -0.02073,0.0072 -0.026,0.0077 -0.04735,0.0096 0.0061,0.0048 0.0065,0.01015 0.01238,0.01502 0.02244,0.0088 0.07661,0.01464 0.09626,-0.0033 0.0095,-0.0116 0.0084,-0.02229 0.0067,-0.03823 0.02057,-0.0072 0.03064,-0.01346 0.039,-0.03575 -0.0017,-0.01594 -0.0089,-0.03141 0.0061,-0.0435 0.0095,-0.0116 0.03064,-0.01354 0.04673,-0.01502 -0.02477,-0.02993 -0.04488,-0.01741 -0.07738,-0.01989 -0.0164,-0.0039 -0.0229,-0.01408 -0.03946,-0.01794 -0.01594,0.0014 -0.03064,0.01354 -0.05308,0.0048 -0.01655,-0.004 -0.03421,-0.01849 -0.0506,-0.02237 -0.01719,-0.0092 -0.06083,-0.01602 -0.05836,-0.04312 0.0042,-0.01114 0.0089,-0.01693 0.01949,-0.01787 0.0048,-0.0058 0.01006,-0.0062 0.01548,-0.0068 l 0.0076,0.02091 c 0.05666,-0.02121 0.03823,0.0072 0.08729,0.01362 0.04412,0.01214 0.09612,-0.0033 0.140992,0.01424 0.02772,0.0082 0.01873,0.02514 0.04288,0.04983 0.02942,0.0243 0.07136,0.0151 0.108481,0.01176 -0.0046,0.0058 -0.01003,0.0063 -0.0094,0.0116 -0.0089,0.01696 0.0028,0.02662 0.01409,0.03095 0.0399,0.02331 0.09921,-0.02498 0.04845,-0.04727 l 0.08156,-0.03955 c -0.03946,-0.01795 -0.05899,-8.2e-5 -0.110837,-0.03305 0.02664,-0.0024 0.03187,-0.0029 0.05141,-0.02075 l 0.0031,-0.02181 0.08636,-0.04536 c -0.02736,0.04543 0.0034,0.03195 0.01378,0.0794 0.02664,-0.0024 0.05959,0.0053 0.08623,0.003 0.02073,-0.0072 0.07737,-0.02848 0.09222,-0.04056 0.0147,-0.01206 0.01841,-0.02848 0.03311,-0.04054 l 0.06147,-0.02702 c 0.02493,-0.01833 0.04382,-0.04154 0.06283,-0.06476 0.0094,-0.0116 0.01889,-0.0232 0.03547,-0.01927 0.02229,0.0088 0.028,0.06199 0.03031,0.08328 0.0071,0.01548 0.0147,0.0362 0.01642,0.05222 -0.0033,0.07012 -0.07692,0.08212 -0.121341,0.118326 -0.02955,0.02414 -0.05217,0.06377 -0.08296,0.0773 -0.03962,0.03041 -0.153095,0.07283 -0.205098,0.08823 l -0.110358,0.02065 c -0.02536,0.01308 -0.05492,0.03722 -0.06326,0.05943 -0.0084,0.02229 0.0051,0.04791 -0.02029,0.06091 -0.02541,0.01308 -0.131087,0.02785 -0.158186,0.025 -0.04364,-0.0069 -0.02894,-0.01897 -0.0927,-0.01325 -0.05836,0.0052 -0.1215,0.01634 -0.181692,0.0056 0.0094,-0.0116 0.02848,-0.03483 0.03203,-0.05122 0.0042,-0.01115 -0.0017,-0.01602 -0.0029,-0.02663 -4.79e-4,-0.0052 -0.0017,-0.01594 -0.0076,-0.02081 -0.01238,-0.01502 -0.0548,-0.01122 -0.07073,-0.0098 -0.03668,0.0087 -0.03018,0.01881 -0.08853,0.02407 l -0.196092,0.02299 c -0.0955,0.0085 -0.171807,0.04767 -0.208952,0.051 -0.02662,0.0024 -0.08621,-0.003 -0.113912,-0.0113 -0.02243,-0.0088 -0.04595,-0.02816 -0.07136,-0.01508 -0.026,0.0078 -0.03435,0.02993 -0.06499,0.0434 -0.03082,0.01356 -0.08915,0.01881 -0.124137,0.04341 -0.03483,0.02462 -0.01663,0.0445 -0.05742,0.06425 -0.02067,0.0072 -0.09025,0.0081 -0.116848,0.01051 -0.05897,-4.1e-5 -0.08855,0.02409 -0.139994,0.04481 l -0.05674,0.02121 c -0.02065,0.0072 -0.0626,0.01633 -0.07149,0.03328 -0.0089,0.01688 0.004,0.03722 0.0057,0.05324 0.0017,0.01594 -0.0019,0.03235 -0.0055,0.04882 -0.02778,0.0401 -0.09935,0.07337 -0.08767,0.131487 0.0093,0.03676 0.03111,0.04016 0.07227,0.07405 0.0541,0.05426 0.09456,0.131247 0.152834,0.174364 0.07531,0.05238 0.184269,0.117846 0.277432,0.136339 l 0.161742,0.007 c 0.08667,0.0083 0.153234,0.02925 0.24424,0.0264 l 0.199966,-0.03405 c 0.04256,-0.0038 0.105704,-0.01486 0.149959,-0.0027 0.04427,0.01214 0.05295,0.04364 0.132644,0.03645 l 0.110977,-0.01531 c 0.026,-0.0077 0.04673,-0.01493 0.07491,-0.0014 0.0684,0.03684 -0.04752,0.106323 0.0054,0.149978 0.02942,0.02422 0.126754,0.03158 0.165756,0.04417 0.0271,0.003 0.112514,0.04899 0.130807,0.06888 0.01175,0.0097 0.01282,0.02035 0.02521,0.03536 0.01222,0.01502 0.0401,0.02323 0.04178,0.03924 0.0017,0.01594 -0.03264,0.04589 -0.04209,0.0575 -0.02908,0.02947 -0.08542,0.104386 -0.05368,0.149899 0.01238,0.015 0.04597,0.02808 0.06315,0.03729 l 0.154933,0.04519 c 0.06714,0.02624 0.07289,0.07948 0.113593,0.108041 0.02879,0.01896 0.07661,0.01462 0.114391,0.01663 l 0.159725,0.03938 c 0.05556,0.01658 0.03235,0.05085 0.07597,0.05765 0.09211,0.008 0.233457,-0.07467 0.308506,-0.124357 l 0.152456,-0.07816 c 0.06099,-0.03233 0.115909,-0.06956 0.170868,-0.106703 0.104167,-0.07916 0.189441,-0.183569 0.241125,-0.301036 0.01782,-0.03381 0.06826,-0.113613 0.07138,-0.135341 0.0071,-0.03289 -0.02712,-0.05133 -0.01394,-0.07932 0.01717,-0.03924 0.08651,-0.0938 0.103087,-0.138216 0.01378,-0.02275 0.0097,-0.05997 -0.01334,-0.07405 -0.02229,-0.0088 -0.03714,0.0033 -0.0814,-0.0089 0.03343,-0.08893 0.09394,-0.174983 0.144268,-0.254764 0.0232,-0.03427 0.06466,-0.09712 0.06547,-0.140134 1.64e-4,-0.04837 -0.04306,-0.04993 -0.06115,-0.06974 -0.01765,-0.01454 -0.01361,-0.02569 -0.02477,-0.03009 -0.02229,-0.0087 -0.05788,0.01061 -0.07968,0.0072 -0.01597,0.0014 -0.02772,-0.0083 -0.03886,-0.0126 -0.01718,-0.0092 -0.03778,-0.002 -0.05372,-6.18e-4 -0.02396,-0.07305 0.026,-0.206476 0.05049,-0.27851 0.04765,-0.154713 0.111436,-0.310942 0.08835,-0.4754 l -0.02444,-0.126754 c -0.007,-0.01556 -0.01981,-0.03582 -0.04054,-0.02864 -0.03127,0.0082 -0.05884,0.10201 -0.07182,0.130009 l -0.07181,0.130088 c -0.01841,0.02848 -0.03036,0.06719 -0.05464,0.09085 -0.01953,0.01789 -0.05032,0.03135 -0.07569,0.04435 -0.0082,-0.02608 -0.02353,-0.01935 -0.04425,-0.01208 l -0.0963,0.05163 c -0.02009,0.01254 -0.05971,0.04295 -0.08636,0.04536 -0.02121,0.0019 -0.03359,-0.01308 -0.06483,-0.005 -0.02121,0.0019 -0.05727,0.01594 -0.07385,0.01198 -0.02181,-0.0034 -0.04533,-0.02275 -0.06719,-0.02614 -0.01637,-0.004 -0.04781,0.0042 -0.06315,0.01099 -0.05313,0.0048 -0.13624,-0.02005 -0.191159,-0.0312 0.01007,-0.0062 0.02073,-0.0072 0.01965,-0.01787 0.0078,-0.02754 -0.03467,-0.07211 0.01734,-0.08753 0.0052,-4.59e-4 0.01594,-0.0014 0.02121,-0.0019 l 0.09083,-0.0028 0.05268,-0.01006 c 0.02708,0.003 0.03419,0.01843 0.07133,0.0151 l 0.130488,-0.0332 c 0.05324,-0.0048 0.07473,0.04706 0.129849,0.0098 0.0449,-0.03087 0.08715,-0.136819 0.103248,-0.186585 l 0.04641,-0.117007 0.01797,-0.08218 c 0.02025,-0.06099 0.03866,-0.08947 0.03123,-0.158646 l -0.01082,-0.101151 c -0.0046,-0.04256 -0.0133,-0.07405 -0.05712,-0.03249 -0.03387,0.03529 -0.04581,0.07397 -0.09997,0.0681 -0.01437,0.06578 -0.0052,0.150897 -0.0709,0.189061 -0.02493,0.01833 -0.0526,0.01005 -0.07844,0.01779 -0.01549,0.0067 -0.03562,0.01935 -0.04677,0.01493 -0.01594,0.0014 -0.02768,-0.0083 -0.0294,-0.02422 0.003,-0.02175 0.03902,-0.03574 0.05448,-0.0425 0.05141,-0.02073 0.0774,-0.02848 0.11531,-0.07483 0.02305,-0.03435 0.02552,-0.06145 0.04394,-0.08993 0.01889,-0.0232 0.03547,-0.01933 0.05436,-0.04248 0.01422,-0.01741 0.04038,-0.07351 0.054,-0.0962 l 0.06498,-0.193914 c 0.03143,-0.05658 0.08408,-0.06664 0.09785,-0.137757 l 0.0082,0.02616 c 0.0562,-0.02654 0.05572,-0.08024 0.04473,-0.132944 0.03188,-0.0029 0.09674,0.002 0.12274,-0.0057 l 0.120543,-0.07529 c 0.0302,-0.01889 0.07988,-0.05557 0.08699,-0.08847 0.0083,-0.02221 -0.02617,-0.09432 -0.03854,-0.109339 -0.0063,-0.01015 -0.01222,-0.01502 -0.02353,-0.01935 -0.02772,-0.0083 -0.06423,4.09e-4 -0.0842,-0.03544 -0.02476,-0.03001 -0.05216,-0.135021 -0.07258,-0.176201 -0.04397,-0.1088812 -0.04689,-0.08713 -0.0675,-0.1282732 -0.01346,-0.02564 -0.01099,-0.05275 -0.01394,-0.07936 -0.0076,-0.02077 -0.01993,-0.03579 -0.02101,-0.04647 -0.0023,-0.021268 0.0125,-0.033351 0.02676,-0.050725 0.02244,-0.039661 0.01901,-0.071575 0.04333,-0.09526 0.01949,-0.017874 0.03666,-0.00863 0.04549,-0.025563 0.03267,-0.045893 -0.04625,-0.081799 -0.01965,-0.1325648 0.01362,-0.022727 0.05216,-0.063766 0.07877,-0.066182 0.02061,-0.00719 0.03778,0.00198 0.05836,-0.00521 0.02013,-0.012581 0.02153,-0.050306 0.02988,-0.072553 0.02073,-0.055599 0.05324,-0.053122 0.06115,-0.1290303 0.0024,-0.0271 0.0037,-0.064864 -0.0091,-0.085175 -0.02477,-0.030056 -0.05959,-0.00541 -0.06794,0.016836 -0.01841,0.028478 -0.01437,0.065783 -0.01099,0.097696 -0.0019,0.032392 -0.008,0.075908 -0.02632,0.1044261 -0.02244,0.039662 -0.06842,0.011543 -0.0814,-0.00876 -0.0063,-0.010185 -0.0022,-0.021288 -0.0034,-0.031972 7.61e-4,-0.043057 -0.01162,-0.058035 -7.96e-4,-0.107362 0.003,-0.021788 0.0232,-0.082698 0.01689,-0.092863 -0.0019,-0.015977 -0.05064,-0.070657 -0.06287,-0.085713 -0.02412,-0.024684 -0.06762,-0.079903 -0.107841,-0.054779 -0.03547,0.019272 -0.02804,0.08849 -0.03467,0.1266735 -0.0036,0.016436 -0.01086,0.049328 -0.0268,0.050765 -0.0099,0.00627 -0.02768,-0.00829 -0.0393,-0.017954 -0.03003,-0.029556 -0.04829,-0.049407 -0.05341,-0.097316 0.01642,0.00388 0.06067,0.016056 0.06375,-0.00573 -0.0023,-0.021268 -0.02752,-0.056636 -0.04889,-0.054699 -0.02181,-0.00342 -0.02476,0.018333 -0.05372,-5.4e-4 C 13.610811,8.9503697 13.558651,8.8636975 13.533889,8.833662 13.502819,8.793462 13.456359,8.76003 13.41087,8.737244 13.38331,8.729014 13.293682,8.694028 13.268799,8.7124 c -0.01006,0.00627 -0.0084,0.022207 -0.01254,0.033311 -0.0059,-0.00479 -0.01178,-0.00967 -0.02229,-0.00873 -0.03838,-0.00729 -0.04968,0.036706 -0.05217,0.063806 0.0011,0.010624 0.0034,0.031953 -0.01194,0.038683 -0.01546,0.00673 -0.02724,-0.00294 -0.03902,-0.012641 -0.02879,-0.018892 -0.0294,-0.024225 -0.06826,-0.036846 0.0076,0.020809 0.01518,0.041639 0.02803,0.061949 0.03123,0.040201 0.05244,0.038263 0.04749,0.092484 -0.04473,-0.017494 -0.09534,-0.039781 -0.125975,-0.07469 l 0.04134,-0.014459 -0.0011,-0.010604 c -0.01701,-0.00925 -0.07537,-0.052362 -0.07768,-0.073632 -0.0017,-0.015977 0.01949,-0.017914 0.01782,-0.03387 0.0037,-0.016436 -0.01346,-0.025642 -0.0052,-0.047889 0.01422,-0.017414 0.04501,-0.030914 0.0427,-0.052203 -0.0013,-0.010644 -0.01298,-0.02031 -0.02412,-0.024684 -0.02293,-0.014079 -0.06362,-0.042637 -0.08791,-0.018992 -0.01949,0.017874 -0.0048,0.05416 -0.01562,0.1034876 -0.01658,-0.00385 -0.0449,-0.017474 -0.06131,-0.021349 -0.02181,-0.00342 -0.04721,0.00959 -0.07553,-0.00396 -0.03899,-0.012641 -0.05292,-0.043636 -0.08651,-0.056757 -0.06191,-0.026661 -0.113912,-0.011223 -0.171787,-6.584e-4 -0.02648,0.00236 -0.06905,0.00619 -0.09442,0.019192 -0.02013,0.012581 -0.02912,0.029477 -0.03795,0.046392 -0.02365,0.029017 -0.07042,0.043916 -0.06575,0.086472 0.0093,0.036806 0.04178,0.039283 0.05352,0.048908 l 0.03391,0.066862 c -0.03655,0.00863 -0.05372,-5.399e-4 -0.08543,0.00229 l -0.125835,0.02738 c -0.06438,4.377e-4 -0.08436,-0.035388 -0.123818,-0.053342 -0.02229,-0.00875 -0.03823,-0.00733 -0.0554,-0.016536 -0.01765,-0.014499 -0.01935,-0.030475 -0.02524,-0.035369 -0.01238,-0.014957 -0.06654,-0.020889 -0.08248,-0.019451 0.0011,0.010684 0.0017,0.015977 -0.0078,0.02754 -0.0089,0.016955 -0.05448,0.042538 -0.07569,0.044434 -0.01005,0.00627 -0.02662,0.00239 -0.03777,-0.00198 l 0.003,-0.021788 c 0.0024,-0.02704 -0.01348,-0.025622 -0.03405,-0.018413 -0.03143,0.00819 -0.05031,0.031374 -0.07522,0.049727 0.0089,-0.016914 0.01734,-0.039162 0.03158,-0.056537 0.01951,-0.017874 0.04551,-0.025622 0.0709,-0.038624 l 0.08032,-0.050186 c 0.02011,-0.012541 0.05092,-0.026081 0.06562,-0.038143 0.04442,-0.036227 0.0537,-0.1498597 0.04209,-0.2079342 -0.08218,0.034189 -0.06037,0.037605 -0.115929,0.069477 -0.02011,0.012542 -0.03079,0.01352 -0.04612,0.02025 -0.01472,0.012102 -0.01843,0.028558 -0.02199,0.044954 l 0,0 z m 0.563691,-0.1956319 0.05232,0.038304 0.0399,0.071614 c 0.03067,-0.0135 0.03483,-0.024604 0.0556,-0.031833 0.01003,-0.00627 0.07613,0.00929 0.06079,-0.032313 -0.0059,-0.00487 -0.01175,-0.00971 -0.01761,-0.014538 l -0.0035,0.016436 c -0.01765,-0.014538 -0.04118,-0.03393 -0.06362,-0.042677 -0.02244,-0.00871 -0.09738,-0.00735 -0.123818,-0.005 l 0,0 z m 0.179855,0.02686 c 0.0743,-0.00665 0.06143,-0.02702 0.104007,-0.030814 0.02057,-0.00727 0.05352,5.604e-4 0.07537,0.00396 l -0.003,0.021747 c 0.04473,0.017494 0.04194,-0.00913 0.07493,-0.00136 0.03359,0.013121 0.05415,0.0543 0.109558,0.070776 0.02229,0.00879 0.03359,0.013121 0.05372,5.807e-4 0.01282,0.020351 0.01825,0.019891 0.03946,0.017954 0.0024,-0.02708 0.01777,-0.03385 0.01066,-0.049328 -0.007,-0.015517 -0.06299,-0.037345 -0.06778,0.016855 -0.01889,-0.025223 -0.0089,-0.031493 -0.01578,-0.046931 -0.01889,-0.025223 -0.05664,-0.0272 -0.08268,-0.019491 -0.01099,-0.052742 -0.004,-0.037266 -0.07753,-0.073632 -0.02305,-0.014059 -0.07365,-0.036387 -0.100892,-0.039322 -0.03235,-0.00248 -0.0407,0.019771 -0.0661,0.032812 -0.01422,0.017414 -0.03079,0.0135 -0.04549,0.025583 -0.01426,0.017374 -0.01082,0.049328 -0.0085,0.070616 l 0,0 z m 1.122427,-0.2350735 0.06719,0.07461 c 0.02524,0.035328 0.05044,0.070696 0.08048,0.1002127 0.02353,0.019392 0.05712,0.032512 0.08839,0.024344 0.02073,-0.00725 0.08339,-0.071974 0.03219,-0.099633 -0.01706,-0.00919 -0.04257,0.00383 -0.05836,0.00525 0.0013,-0.037725 -0.0011,-0.059013 -0.01038,-0.095799 -0.0011,-0.010644 -0.0034,-0.031913 -0.02417,-0.024684 -0.02536,0.01304 0.0045,0.090926 -0.03559,0.06766 l -0.01701,-0.00921 -0.01765,-0.014538 c -0.01901,0.023166 0.0034,0.031913 0.02169,0.051763 0.02353,0.019432 0.04162,0.039282 0.04518,0.071195 -0.05772,-0.037844 -0.06111,-0.069718 -0.09826,-0.1147509 -0.02401,-0.024724 -0.04166,-0.039283 -0.07369,-0.036427 l 0,0 z m 0.230461,-0.052882 c 0.01454,0.036286 0.07149,0.1171673 0.110517,0.1297689 -0.02648,-0.045973 -0.06051,-0.1127938 -0.110517,-0.1297689 l 0,0 z M 9.9412896,8.5433998 c 0.015937,-0.00142 0.037225,-0.00333 0.04781,-0.00429 l 0.1385364,0.041299 c 0.03838,0.00731 0.07615,0.00931 0.101371,0.044635 -0.06904,0.00623 -0.05432,-0.00587 -0.10912,-0.017055 -0.04891,-0.00635 -0.06377,0.00573 -0.10153,0.00371 -0.021829,-0.00342 -0.032971,-0.00777 -0.049527,-0.011643 l -0.1422307,0.023486 c -0.037764,-0.00198 -0.045972,-0.028099 -0.068419,-0.036846 -0.022906,-0.014079 -0.043636,-0.00685 -0.063766,0.00573 -0.035907,0.01398 -0.070876,0.038583 -0.1057844,0.063227 -0.065085,0.043416 -0.1401337,0.093163 -0.1869648,0.15647 -0.032572,0.045892 -0.024444,0.072053 -0.057036,0.117946 C 9.3115171,8.9706498 9.2352103,9.0097318 9.183666,9.0788699 9.146301,9.1305739 9.149696,9.1624869 9.135537,9.179901 9.126007,9.191464 9.060387,9.229628 9.044991,9.236358 9.029674,9.243088 9.013737,9.244528 9.003671,9.250837 8.988892,9.262899 8.979986,9.279814 8.971019,9.296749 L 8.918396,9.355183 C 8.904776,9.37789 8.849517,9.4634435 8.846502,9.4852317 8.845182,9.5229557 8.906015,9.5390127 8.873902,9.590237 8.869172,9.596007 8.864452,9.60182 8.859722,9.607651 8.824833,9.632254 8.815468,9.595469 8.788387,9.592534 8.755336,9.584744 8.706208,9.626763 8.6767915,9.602539 8.6585375,9.582688 8.6663465,9.555149 8.6641095,9.53384 c -0.0082,-0.026121 -0.019971,-0.035808 -0.02756,-0.056617 -0.013541,-0.025702 -0.00277,-0.07503 -0.0404,-0.1253755 -0.019331,-0.030475 -0.041699,-0.039222 -0.058953,-1.96e-5 l -0.012541,0.033311 c -0.021049,-0.046432 -0.00915,-0.085134 -0.047531,-0.092484 -0.048888,-0.00631 -0.063826,0.054141 -0.092304,0.088909 -0.071055,0.086992 -0.082877,0.077306 -0.1372977,0.1197637 l -0.072193,0.076348 -0.045033,0.030914 c -0.024225,0.023665 -0.040321,0.073472 -0.052783,0.1068226 l -0.052083,0.2142457 c -0.011383,0.04396 -0.030495,0.1156091 -0.077146,0.1304671 -0.015338,0.0067 -0.063766,0.0057 -0.080262,0.0019 -0.017095,-0.0092 -0.029396,-0.02421 -0.045892,-0.02816 -0.015937,0.0014 -0.058494,0.0052 -0.097956,-0.0127 -0.023525,-0.01933 -0.054639,-0.05957 -0.077086,-0.06824 -0.022367,-0.0089 -0.043636,-0.0069 -0.064844,-0.005 -0.026621,0.0023 -0.063766,0.0057 -0.085594,0.0023 C 7.4412528,9.933705 7.4054848,9.850935 7.3844361,9.804459 7.3768661,9.783649 7.3627681,9.752655 7.3456731,9.74345 7.3221481,9.724058 7.2937501,9.758847 7.2660501,9.7506 7.2442221,9.74717 7.1959331,9.697798 7.1676951,9.684178 c -0.00589,-0.00485 -0.023605,-0.019351 -0.03359,-0.013081 -0.010604,9.216e-4 -0.0137,0.022747 -0.017814,0.03381 -7.607e-4,0.043076 0.011084,0.052743 0.035687,0.082798 0.00587,0.0048 0.024144,0.0247 0.00929,0.03677 -0.024763,0.01833 -0.060511,-0.064425 -0.08837,-0.0243 -0.00419,0.01114 -0.00358,0.01646 -0.00837,0.02221 L 7.0539241,9.823379 7.0282421,9.734351 7.0242821,9.697085 6.9885341,9.614327 6.9447391,9.655865 6.9342751,9.608435 6.9196561,9.572149 C 6.9114561,9.546027 6.8902601,9.547924 6.8701291,9.560446 6.8305081,9.590901 6.8031081,9.636335 6.7783441,9.654667 6.7481691,9.673519 6.7251821,9.659437 6.7045331,9.666669 6.6791501,9.67971 6.6613371,9.71352 6.6535281,9.741119 l -0.04086,0.2185784 c -0.035368,0.1697696 -0.057954,0.2093916 -0.038463,0.3903246 l 0.021509,0.100153 0.02021,0.137897 0.018034,0.06824 0.010664,-9.94e-4 c -0.00743,-0.06918 -0.00525,-0.198348 0.014399,-0.264571 0.019192,-0.07151 0.049847,-0.08506 0.051385,-0.171187 l 0.012701,0.0688 c 0.029017,-0.02958 0.026761,-0.05085 0.067481,-0.07058 0.01354,0.02561 0.019412,0.03049 0.028158,0.06199 0.0082,0.02606 0.010444,0.04735 0.023984,0.07305 0.01348,0.0256 0.024624,0.03001 0.037545,0.05036 0.012382,0.01494 0.02051,0.0411 0.028078,0.06191 0.014719,0.0363 0.026322,0.09442 0.070497,0.106563 0.017274,-0.03917 0.012162,-0.08705 0.012781,-0.130149 0.00417,-0.01114 0.00611,-0.04349 0.016096,-0.04976 0.026002,-0.0078 0.036527,0.0397 0.038223,0.05564 0.015178,0.04164 0.026241,0.09442 0.051464,0.12969 0.026381,0.04605 0.047131,0.03879 0.08164,0.110895 l 0.00781,-0.02754 c 0.014639,0.03628 -0.00378,0.06484 0.036306,0.08807 -0.00231,-0.02129 -0.00665,-0.112214 0.00216,-0.129169 0.00419,-0.01114 0.02013,-0.01254 0.030815,-0.01346 l 0.024763,0.180454 c 0.00224,0.02129 0.010365,0.04745 0.022747,0.06247 0.030016,0.02955 0.064925,0.0049 0.078385,0.03056 l 0.020969,0.0948 c 0.018034,0.06826 0.043196,0.151997 0.071196,0.213906 0.021128,0.04649 0.049227,0.108479 0.085134,0.142849 0.012382,0.01502 0.030575,0.03491 0.051225,0.02762 0.020749,-0.0072 0.012542,-0.03335 0.016097,-0.04975 0.0031,-0.02175 0.013081,-0.02802 0.016716,-0.0445 0.00248,-0.0271 -0.00635,-0.05859 0.00727,-0.08126 -0.00711,0.03289 0.00403,0.03722 0.00751,0.06918 0.00457,0.04256 0.015018,0.09001 0.030256,0.131567 0.022766,0.06253 0.039702,0.120023 0.077865,0.175741 0.025303,0.03536 0.083577,0.07846 0.1188651,0.107562 0.048288,0.04937 0.095879,0.09348 0.1541529,0.136579 l 0.069497,0.04753 0.057715,0.03785 c 0.051245,0.02762 0.056657,-0.02129 0.088529,-0.02409 0.016556,0.0039 0.07475,0.04697 0.092404,0.06153 0.089468,0.08334 0.060051,0.05913 0.1218008,0.134183 l 0.1392949,0.148661 c 0.035907,0.03437 0.080481,0.100292 0.1294695,0.106562 l 0.048988,0.0064 c 0.054799,0.01122 0.1160891,0.03257 0.1733448,0.01663 0.021289,-0.0019 0.036067,-0.01394 0.045573,-0.02554 0.014179,-0.01741 0.022527,-0.03962 0.043815,-0.04156 0.021808,0.0034 0.072513,0.0257 0.094861,0.0345 0.056576,0.0271 0.1366785,0.07367 0.1968102,0.08436 0.060191,0.01076 0.1033878,-0.03612 0.093482,-0.07823 -0.015178,-0.04164 -0.078784,-0.08428 -0.1127537,-0.151058 -0.032892,-0.05612 -0.055638,-0.118565 -0.093263,-0.168951 l -0.086352,-0.105086 -0.051704,-0.08134 -0.025223,-0.03534 c -0.00649,-0.01015 -0.015777,-0.04691 -0.017494,-0.06293 l -0.059113,-0.150518 c -0.026941,-0.0513 -0.080182,-0.04651 -0.1146912,-0.118626 0.024684,0.03001 0.071814,0.0688 0.1053247,0.08188 -0.015157,-0.04164 -0.049148,-0.108422 -0.07445,-0.143789 l -0.05408,-0.05424 c 0.029396,0.02421 0.052922,0.04364 0.091306,0.0509 l 0.011304,-0.04404 c 0.016716,-0.0445 0.032033,-0.05122 0.031653,-0.104925 -0.00441,-0.09093 -0.088389,-0.223111 -0.1003721,-0.334847 -0.0052,-0.04791 0.00557,-0.0972 0.011063,-0.146025 l 0.00147,-0.08613 c -0.00172,-0.01596 0.00772,-0.02764 0.010824,-0.0493 l -9.938e-4,-0.05903 c 0.00719,-0.03289 0.011363,-0.04404 0.00797,-0.07601 l -0.025702,-0.08899 -0.00154,-0.06438 -0.00921,-0.08512 c -0.00689,-0.06384 0.027459,-0.0938 0.033511,-0.137298 0.0031,-0.02181 -0.024464,-0.07847 -0.036306,-0.08813 -0.017095,-0.0092 -0.053621,-5.4e-4 -0.04062,-0.02856 0.013081,-0.02802 0.06129,0.02135 0.073671,0.03637 0.015477,-0.0551 0.00371,-0.06485 -0.00673,-0.1122546 L 8.8821663,9.7667955 c -0.00929,-0.036786 -0.032812,-0.056137 -0.034589,-0.072114 0.00363,-0.016455 0.019571,-0.017894 0.038463,-0.04106 0.019032,-0.023205 0.026781,-0.050765 0.029257,-0.077846 l 9.215e-4,-0.091445 c 0.00597,-0.043515 0.042717,-0.1005516 0.089468,-0.1154899 0.047211,-0.00959 0.09542,0.039781 0.1219602,0.037425 0.026621,-0.00242 0.039622,-0.030416 0.048589,-0.047371 L 9.237526,9.1814558 9.24821,9.18048 c 0.026381,0.046052 0.0541,0.054281 0.089927,0.088689 l 0.030635,0.034869 c 0.00589,0.00483 0.015957,-0.00144 0.026002,-0.00771 0.018892,-0.023186 0.041639,-0.1111963 0.028178,-0.1368586 -0.00759,-0.020809 -0.031114,-0.0402 -0.039322,-0.066322 -0.0017,-0.015977 0.00721,-0.032892 0.016097,-0.049787 0.012542,-0.033391 0.019132,-0.071594 0.043337,-0.09526 0.047989,-0.052662 0.1436286,-0.061269 0.2019027,-0.018113 0.029497,0.024225 0.025782,0.04066 0.038164,0.055678 0.018253,0.019851 0.044794,0.017494 0.053541,0.048948 0.00116,0.010644 -0.00124,0.037725 -0.00487,0.05416 0.00348,0.031932 0.00983,0.042098 -0.00264,0.075449 -0.017794,0.033831 -0.04735,0.057975 -0.059353,0.096658 -0.016635,0.044495 0.010525,0.04745 0.00388,0.085634 -0.011923,0.038703 -0.04094,0.06818 -0.052862,0.106863 -0.0137,0.022727 -0.011363,0.043995 -0.036126,0.062348 -0.02013,0.012522 -0.052623,0.010085 -0.073831,0.011982 -0.031334,0.00817 -0.056177,0.026541 -0.08156,0.039562 0.00108,0.010665 0.00224,0.021268 0.00866,0.031454 0.00881,0.031454 0.035367,0.029058 0.06129,0.021349 0.041939,-0.00909 0.097497,-0.040979 0.1387558,-0.00707 0.035827,0.03443 0.046731,0.1355404 0.077306,0.1703885 0.029396,0.02423 0.050685,0.02233 0.083717,0.03012 0.022367,0.0088 0.039482,0.01795 0.057116,0.03249 0.04118,0.03389 0.028178,0.06194 0.046891,0.08712 0.017654,0.0145 0.033051,0.0079 0.051245,0.02766 l 0.078065,0.1272921 0.0538,-0.04781 c 0.01825,0.01987 0.03954,0.01793 0.04194,-0.0091 -0.0017,-0.01594 -0.01037,-0.04735 -0.01749,-0.06291 0.03591,0.03443 0.03878,0.06105 0.03862,0.109418 0.0012,0.01061 -0.003,0.02175 0.0035,0.03198 0.0023,0.02119 0.0281,0.06191 0.04573,0.07644 0.02299,0.014 0.0383,0.0072 0.05843,-0.0052 0.01841,-0.02848 0.02918,-0.07785 0.05757,-0.112594 0.02376,-0.02902 0.07096,-0.03861 0.113612,-0.09085 -0.01114,-0.0043 -0.04473,-0.01742 -0.04118,-0.03389 0.0084,-0.02221 0.04024,-0.02508 0.06035,-0.03765 0.02958,-0.02414 0.05216,-0.06381 0.05875,-0.10197 l -0.06494,-0.005 -0.0383,-0.0073 -0.05316,0.0048 -0.0523,-0.038324 -0.07553,-0.00398 c 0.013,-0.028018 0.02197,-0.044974 0.05386,-0.04783 0.01594,-0.00144 0.0383,0.00735 0.04837,0.00108 0.02065,-0.00727 0.01833,-0.028558 0.03319,-0.04062 0.0284,-0.034789 0.07026,-0.043916 0.07639,-0.087452 0.04364,0.00681 0.05316,-0.00475 0.07491,-0.00136 0.0448,0.017455 0.05874,0.096818 0.07925,0.1379771 -0.05542,-0.016516 -0.04498,0.030894 -0.0463,0.06862 0.02013,-0.012542 0.04381,-0.041519 0.06447,-0.048769 l 0.06966,-8.793e-4 c 0.01594,-0.00144 0.02065,-0.00721 0.03607,-0.013979 0.03658,-0.00863 0.06073,0.016056 0.08009,0.046551 0.02013,-0.012541 0.01897,-0.023205 0.0061,-0.043536 l 0.02656,-0.00239 -0.01518,-0.041578 c -0.02655,0.00236 -0.03252,-0.00248 -0.04024,0.025063 -0.0229,-0.014039 -0.0229,-0.014039 -0.05006,-0.016995 l 0.01957,-0.017834 -0.0013,-0.010684 c -0.04534,-0.022786 0.0067,-0.038184 0.0144,-0.065763 0.0036,-0.016455 -0.0028,-0.026581 -0.0093,-0.036765 l 0.06678,-0.0275 c 0.0284,-0.034749 0.05254,-0.010065 0.06447,-0.048768 0.0548,0.011223 0.03676,-0.057016 0.07816,-0.071495 0.01,-0.00627 0.02646,-0.00236 0.03714,-0.00333 0.01531,-0.00673 0.03064,-0.01346 0.04611,-0.02023 0.02121,-0.0019 0.03189,-0.00281 0.05246,-0.010105 0.02013,-0.012522 0.03854,-0.04104 0.05278,-0.058414 0.0095,-0.011663 0.02894,-0.029497 0.03313,-0.04064 0.0035,-0.016436 -0.0034,-0.031873 -0.0062,-0.058533 0.02181,0.0034 0.03777,0.00198 0.05184,-0.015397 0.01486,-0.012082 0.01254,-0.033371 -0.0099,-0.042099 -0.0052,4.99e-4 -0.0212,0.00194 -0.02646,0.00239 l 0.07336,-0.065703 0.0144,-0.065783 -0.02075,0.00723 0.0073,-0.032892 -0.05851,0.00528 c 0.0094,-0.011604 0.03792,-0.046392 0.04737,-0.057995 0.02493,-0.018353 0.05201,-0.015398 0.06455,-0.048808 -0.05248,0.010105 -0.117007,0.058873 -0.150138,0.099454 l -0.05171,0.069098 0.0031,-0.021748 c -0.052,0.015437 -0.04861,0.047371 -0.06874,0.059912 l -0.01005,0.00625 c 0.01594,-0.00142 -0.09085,0.0028 -0.07429,0.00671 -0.02716,-0.00295 -0.05658,-0.02716 -0.0801,-0.046592 -0.01772,-0.014518 -0.02995,-0.029516 -0.05006,-0.016955 L 10.7288,8.9833007 c 0.0094,-0.011603 0.01424,-0.017414 0.0024,-0.027121 -0.01176,-0.00969 -0.03947,-0.017953 -0.06245,-0.032013 -0.04126,-0.03389 -0.03932,-0.066322 -0.04452,-0.1142118 -0.0045,-0.042558 -0.0099,-0.042098 -0.02445,-0.078404 -0.007,-0.015518 -0.0082,-0.026141 -0.02059,-0.041159 -0.01231,-0.015018 -0.04116,-0.03389 -0.05881,-0.048448 -0.02353,-0.019352 -0.05292,-0.043596 -0.08008,-0.046552 -0.0383,-0.00727 -0.06788,0.016876 -0.100992,0.00907 -0.0277,-0.00825 -0.06355,-0.042637 -0.09712,-0.055758 -0.02183,-0.00342 -0.04837,-0.00102 -0.06966,8.794e-4 -0.0012,-0.010644 -0.0035,-0.031913 -0.01462,-0.036286 -0.01703,-0.00921 -0.04783,0.00429 -0.06904,0.00619 -0.02127,0.0019 -0.02832,-0.01358 -0.04479,-0.017494 -0.0165,-0.00388 -0.091487,-0.00251 -0.1009917,0.00907 -0.010065,0.00629 -0.00295,0.021768 -0.00186,0.032412 l 0,0 z M 13.7379,7.987818 c 0.0435,0.055198 0.121182,0.1288302 0.186645,0.1390952 -0.01933,-0.030535 -0.0359,-0.034389 -0.05943,-0.053781 -0.03467,-0.023765 -0.09362,-0.072214 -0.127213,-0.085314 l 0,0 z m -0.425334,-0.2143645 -0.01346,-0.025662 c 0.02245,0.00871 0.0449,0.017454 0.05775,0.037804 0.007,0.015477 0.0082,0.026121 0.0099,0.042098 0.0034,0.031933 0.05927,0.1021497 0.09162,0.104586 0.01127,0.00437 0.01066,-9.215e-4 0.02133,-0.0019 L 13.452316,7.825374 c -0.01238,-0.015018 -0.02768,-0.00825 -0.04593,-0.028099 L 13.295871,7.6674691 c -0.0065,-0.010185 -0.03112,-0.0402 -0.02756,-0.056617 0.0094,-0.011603 0.03607,-0.013999 0.04673,-0.014918 l -0.101212,-0.093023 c -0.01178,-0.00971 -0.03003,-0.029556 -0.05077,-0.022327 -0.02061,0.00723 -0.02836,0.034789 -0.03734,0.051684 -0.0089,0.016955 -0.02305,0.034329 -0.02137,0.050306 0.0076,0.020829 0.03175,0.045513 0.04402,0.060511 l 0.09426,0.077506 c 0.02412,0.024723 0.03635,0.039741 0.06994,0.052862 l 0,0 z m 1.377332,-0.010764 c -0.01394,-0.079364 -0.06503,-0.1553516 -0.124895,-0.2144444 l -0.09426,-0.077526 C 14.434355,7.4310176 14.395052,7.3646954 14.341492,7.3157474 14.282698,7.2672986 14.238443,7.2551563 14.18612,7.2168529 L 14.09713,7.1388479 13.938323,7.0080205 c -0.04118,-0.03389 -0.09007,-0.08865 -0.121181,-0.1288102 -0.03175,-0.045533 -0.02277,-0.062448 -0.04102,-0.082299 -0.01238,-0.015018 -0.05712,-0.032512 -0.07892,-0.035907 l 0.0083,-0.022247 -0.03946,-0.017953 c 0.02196,-0.044954 -0.0089,-0.031454 -0.03994,-0.071614 -0.01238,-0.015018 -0.01454,-0.036347 -0.03403,-0.066822 -0.03051,-0.034869 -0.07121,-0.063466 -0.111157,-0.086713 L 13.287171,6.3894308 c -0.06255,-0.031993 -0.148023,-0.078085 -0.218119,-0.082519 -0.05372,-5.602e-4 -0.08807,0.029396 -0.140713,0.039462 -0.04717,0.00963 -0.149181,0.00805 -0.181853,0.053941 -0.03311,0.04058 0.04985,0.1137526 0.07988,0.1433087 l 0.08404,0.083777 c 0.02417,0.024723 0.03112,0.0402 0.05572,0.070216 0.02368,0.019391 0.0695,0.04753 0.08839,0.072673 0.01873,0.025183 -0.01254,0.033391 0.01266,0.068719 0.01937,0.030495 0.06658,0.069258 0.08068,0.1002523 0.0076,0.02081 0.01099,0.052742 0.02864,0.067301 0.01701,0.00921 0.03714,-0.00337 0.05308,-0.00482 0.026,-0.00769 0.102329,-0.046771 0.125215,-0.032691 0.02293,0.014039 0.101211,0.092983 0.119504,0.1128735 0.01175,0.00967 0.03575,0.034349 0.03219,0.050845 0.0029,0.026581 -0.0808,-0.00353 -0.06083,0.032292 0.0065,0.010185 0.05772,0.037804 0.07537,0.052363 l 0.06531,0.058614 0.07585,0.057655 c 0.01765,0.014559 0.03699,0.045034 0.05416,0.054261 0.03359,0.013101 0.05077,-0.026042 0.07972,-0.00717 0.05648,0.02716 0.09702,0.1041668 0.155851,0.1525955 0.03994,0.023266 0.04996,0.016995 0.08356,0.030115 0.02831,0.01358 0.04661,0.03343 0.07537,0.052342 0.04537,0.022786 0.04909,0.00635 0.10201,0.049966 0.07057,0.058114 0.130647,0.1172273 0.191158,0.1816527 0.02412,0.024684 0.08356,0.078465 0.111276,0.086713 0.0052,-4.581e-4 0.01051,-9.215e-4 0.01594,-0.00142 l 0.06083,-0.032313 c 0,0 0.0054,-5.194e-4 0.0048,-0.00581 0.0035,-0.016436 0.0013,-0.037724 0.0048,-0.05418 0.0037,-0.016436 0.01378,-0.022706 0.01673,-0.044495 0.0035,-0.016396 1.64e-4,-0.048369 0.01546,-0.055099 0.0155,-0.00677 0.0449,0.017455 0.05604,0.021828 l 0,0 z M 13.393367,6.379885 c -0.0023,-0.021288 -0.0082,-0.026121 -0.01577,-0.046931 -0.03175,-0.045513 -0.06702,-0.074571 -0.117187,-0.091605 -0.01637,-0.00385 -0.0659,-0.015557 -0.07489,0.00136 -0.01362,0.022707 0.04409,0.060551 0.06111,0.069758 0.01765,0.014518 0.0401,0.023265 0.05775,0.037824 0.03419,0.018413 0.0506,0.022308 0.08899,0.029596 l 0,0 z M 11.312411,5.9325836 c 0.07027,0.00441 0.09674,0.00206 0.163899,0.028238 0.06129,0.021369 0.0972,0.055758 0.167473,0.060211 l -0.07879,-0.084276 0.0449,-0.030875 c -0.02353,-0.019392 -0.03405,-0.018453 -0.05712,-0.032492 -0.01176,-0.00969 -0.01284,-0.020351 -0.0246,-0.030036 -0.01069,9.758e-4 -0.03731,0.00333 -0.04783,0.00429 -0.03141,0.00817 -0.05727,0.015916 -0.09332,0.029876 -0.03143,0.00817 -0.07321,0.017295 -0.07461,0.055059 l 0,0 z m 0.322086,-0.1471034 c -0.0078,0.02754 -0.03375,0.035248 -0.05866,0.053581 0.0059,0.00483 0.0065,0.010185 0.01238,0.015018 0.01718,0.00921 0.104466,0.022866 0.126293,0.026301 0.0537,5.602e-4 0.05556,-0.031833 0.118706,-0.042897 l 0.07908,-0.012462 c 0.07429,-0.00669 0.175821,-0.010405 0.242063,-0.043216 -0.02523,-0.035328 -0.04116,-0.03395 -0.08002,-0.046552 -0.06081,-0.016056 -0.125675,-0.020968 -0.187723,6.994e-4 -0.05727,0.015897 -0.05496,0.037186 -0.12939,0.043876 l -0.12274,0.00566 0,0 z m -1.128299,9.1067928 c -1.2406535,-0.26489 0.252368,0.05257 0,0 l 0,0 z"
         id="path2936" />
    </g>
    <path
       style="opacity:0.3;fill:url(#linearGradient3961);fill-opacity:1;fill-rule:evenodd;stroke:none;display:inline"
       d="M 3,1 C 1.892,1 1,1.892 1,3 l 0,16 c 0,1.108 0.892,2 2,2 l 16,0 c 1.108,0 2,-0.892 2,-2 L 21,3 C 21,1.892 20.108,1 19,1 L 3,1 z m 0,1.03125 16,0 c 0.5497,0 0.96875,0.4190495 0.96875,0.96875 l 0,16 c 0,0.5497 -0.41905,0.96875 -0.96875,0.96875 l -16,0 C 2.4502995,19.96875 2.03125,19.5497 2.03125,19 l 0,-16 C 2.03125,2.4502995 2.4502995,2.03125 3,2.03125 z"
       id="rect3050"
       inkscape:connector-curvature="0" />
    <path
       id="path3235"
       d="M 3,21 C 1.892,21 1,20.108 1,19 l 0,-1 c 0,1.108 0.892,2 2,2 l 16,0 c 1.108,0 2,-0.892 2,-2 l 0,1 c 0,1.108 -0.892,2 -2,2 L 3,21 z"
       style="opacity:0.2;fill:url(#linearGradient3845);fill-opacity:1;fill-rule:evenodd;stroke:none;display:inline"
       inkscape:connector-curvature="0" />
  </g>
</svg>
