<?xml version="1.0" encoding="UTF-8" standalone="no"?>
<!-- Created with Inkscape (http://www.inkscape.org/) -->

<svg
   xmlns:dc="http://purl.org/dc/elements/1.1/"
   xmlns:cc="http://creativecommons.org/ns#"
   xmlns:rdf="http://www.w3.org/1999/02/22-rdf-syntax-ns#"
   xmlns:svg="http://www.w3.org/2000/svg"
   xmlns="http://www.w3.org/2000/svg"
   xmlns:xlink="http://www.w3.org/1999/xlink"
   xmlns:sodipodi="http://sodipodi.sourceforge.net/DTD/sodipodi-0.dtd"
   xmlns:inkscape="http://www.inkscape.org/namespaces/inkscape"
   width="16"
   height="16"
   id="svg2"
   sodipodi:version="0.32"
   inkscape:version="0.48.1 r9760"
   version="1.0"
   sodipodi:docname="config-users.svg"
   inkscape:output_extension="org.inkscape.output.svg.inkscape"
   style="display:inline">
  <defs
     id="defs4">
    <inkscape:perspective
       sodipodi:type="inkscape:persp3d"
       inkscape:vp_x="0 : 8 : 1"
       inkscape:vp_y="0 : 1000 : 0"
       inkscape:vp_z="16 : 8 : 1"
       inkscape:persp3d-origin="8 : 5.3333333 : 1"
       id="perspective26" />
    <linearGradient
       inkscape:collect="always"
       id="linearGradient3327">
      <stop
         style="stop-color:#000000;stop-opacity:1;"
         offset="0"
         id="stop3330" />
      <stop
         style="stop-color:#000000;stop-opacity:0;"
         offset="1"
         id="stop3333" />
    </linearGradient>
    <linearGradient
       id="ButtonColor"
       x1="10.31979"
       y1="21"
       x2="10.31979"
       y2="0.99929649"
       gradientUnits="userSpaceOnUse">
      <stop
         style="stop-color:#29669f;stop-opacity:1;"
         offset="0"
         id="stop3189" />
      <stop
         style="stop-color:#88b6e0;stop-opacity:1;"
         offset="1"
         id="stop3191" />
    </linearGradient>
    <linearGradient
       inkscape:collect="always"
       xlink:href="#linearGradient3327"
       id="linearGradient3192"
       x1="9.0574636"
       y1="10.202822"
       x2="9.0574636"
       y2="-12.198761"
       gradientUnits="userSpaceOnUse"
       gradientTransform="translate(0,5.8006549)" />
    <linearGradient
       inkscape:collect="always"
       xlink:href="#linearGradient3700"
       id="linearGradient3204"
       x1="1"
       y1="9"
       x2="15"
       y2="9"
       gradientUnits="userSpaceOnUse"
       gradientTransform="translate(-17,-2)" />
    <linearGradient
       inkscape:collect="always"
       xlink:href="#ButtonColor"
       id="linearGradient3173"
       gradientUnits="userSpaceOnUse"
       gradientTransform="translate(-16,-1)"
       x1="1"
       y1="9"
       x2="15"
       y2="9" />
    <linearGradient
       inkscape:collect="always"
       xlink:href="#ButtonColor"
       id="linearGradient3177"
       gradientUnits="userSpaceOnUse"
       gradientTransform="translate(-16,-1)"
       x1="1"
       y1="9"
       x2="15"
       y2="9" />
    <linearGradient
       inkscape:collect="always"
       xlink:href="#ButtonColor"
       id="linearGradient3179"
       gradientUnits="userSpaceOnUse"
       gradientTransform="matrix(0,-1,1,0,-1,16)"
       x1="1"
       y1="9"
       x2="15"
       y2="9" />
    <linearGradient
       inkscape:collect="always"
       xlink:href="#linearGradient3327"
       id="linearGradient3612"
       x1="8"
       y1="15"
       x2="8"
       y2="-1"
       gradientUnits="userSpaceOnUse" />
    <inkscape:perspective
       id="perspective2873"
       inkscape:persp3d-origin="0.5 : 0.33333333 : 1"
       inkscape:vp_z="1 : 0.5 : 1"
       inkscape:vp_y="0 : 1000 : 0"
       inkscape:vp_x="0 : 0.5 : 1"
       sodipodi:type="inkscape:persp3d" />
    <linearGradient
       inkscape:collect="always"
       xlink:href="#linearGradient3700"
       id="linearGradient3181"
       x1="-3.0607977"
       y1="27.258198"
       x2="-3.0607977"
       y2="7.2536583"
       gradientUnits="userSpaceOnUse"
       gradientTransform="translate(11.119372,-6.2581977)" />
    <linearGradient
       id="linearGradient3700">
      <stop
         style="stop-color:#da8714;stop-opacity:1;"
         offset="0"
         id="stop3702" />
      <stop
         style="stop-color:#f4d468;stop-opacity:1;"
         offset="1"
         id="stop3704" />
    </linearGradient>
    <linearGradient
       y2="7.2536583"
       x2="-3.0607977"
       y1="27.258198"
       x1="-3.0607977"
       gradientTransform="translate(-9.880628,-21.258198)"
       gradientUnits="userSpaceOnUse"
       id="linearGradient2882"
       xlink:href="#linearGradient3700"
       inkscape:collect="always" />
    <inkscape:perspective
       id="perspective2892"
       inkscape:persp3d-origin="0.5 : 0.33333333 : 1"
       inkscape:vp_z="1 : 0.5 : 1"
       inkscape:vp_y="0 : 1000 : 0"
       inkscape:vp_x="0 : 0.5 : 1"
       sodipodi:type="inkscape:persp3d" />
    <linearGradient
       gradientTransform="matrix(0.27586208,0,0,0.27380985,-2.2413954,-1.892855)"
       inkscape:collect="always"
       xlink:href="#linearGradient3853"
       id="linearGradient3859"
       x1="48"
       y1="27"
       x2="48"
       y2="69"
       gradientUnits="userSpaceOnUse" />
    <linearGradient
       id="linearGradient3853">
      <stop
         style="stop-color:#000000;stop-opacity:1;"
         offset="0"
         id="stop3855" />
      <stop
         style="stop-color:#313131;stop-opacity:1;"
         offset="1"
         id="stop3857" />
    </linearGradient>
    <linearGradient
       inkscape:collect="always"
       xlink:href="#linearGradient3853"
       id="linearGradient3647"
       gradientUnits="userSpaceOnUse"
       gradientTransform="matrix(0.20689656,0,0,0.20535739,-1.9310465,-1.1696413)"
       x1="48"
       y1="27"
       x2="48"
       y2="69" />
    <linearGradient
       inkscape:collect="always"
       xlink:href="#linearGradient3853"
       id="linearGradient3651"
       gradientUnits="userSpaceOnUse"
       gradientTransform="matrix(0.20689656,0,0,0.20535739,-1.9310465,-2.1696413)"
       x1="48"
       y1="27"
       x2="48"
       y2="69" />
    <inkscape:perspective
       id="perspective2956"
       inkscape:persp3d-origin="0.5 : 0.33333333 : 1"
       inkscape:vp_z="1 : 0.5 : 1"
       inkscape:vp_y="0 : 1000 : 0"
       inkscape:vp_x="0 : 0.5 : 1"
       sodipodi:type="inkscape:persp3d" />
    <linearGradient
       inkscape:collect="always"
       xlink:href="#linearGradient3853"
       id="linearGradient3674"
       x1="8"
       y1="3"
       x2="8"
       y2="13"
       gradientUnits="userSpaceOnUse"
       gradientTransform="matrix(1,0,0,1.047672,-30,-0.6674076)" />
    <linearGradient
       inkscape:collect="always"
       xlink:href="#linearGradient3853"
       id="linearGradient3680"
       gradientUnits="userSpaceOnUse"
       x1="8"
       y1="3"
       x2="8"
       y2="13"
       gradientTransform="translate(0,1)" />
    <linearGradient
       inkscape:collect="always"
       xlink:href="#linearGradient3853"
       id="linearGradient3682"
       gradientUnits="userSpaceOnUse"
       x1="8"
       y1="3"
       x2="8"
       y2="13" />
    <inkscape:perspective
       id="perspective2898"
       inkscape:persp3d-origin="0.5 : 0.33333333 : 1"
       inkscape:vp_z="1 : 0.5 : 1"
       inkscape:vp_y="0 : 1000 : 0"
       inkscape:vp_x="0 : 0.5 : 1"
       sodipodi:type="inkscape:persp3d" />
    <linearGradient
       inkscape:collect="always"
       xlink:href="#linearGradient3698"
       id="linearGradient3704"
       x1="0"
       y1="8"
       x2="16"
       y2="8"
       gradientUnits="userSpaceOnUse"
       gradientTransform="matrix(0,-1,1,0,0,16)" />
    <linearGradient
       id="linearGradient3698">
      <stop
         style="stop-color:#90540e;stop-opacity:1;"
         offset="0"
         id="stop3700" />
      <stop
         style="stop-color:#bd6f13;stop-opacity:0.62015504;"
         offset="1"
         id="stop3702-4" />
    </linearGradient>
    <linearGradient
       y2="8"
       x2="16"
       y1="8"
       x1="0"
       gradientTransform="matrix(0,-1,1,0,0,16)"
       gradientUnits="userSpaceOnUse"
       id="linearGradient2907"
       xlink:href="#linearGradient3698"
       inkscape:collect="always" />
    <inkscape:perspective
       id="perspective2917"
       inkscape:persp3d-origin="0.5 : 0.33333333 : 1"
       inkscape:vp_z="1 : 0.5 : 1"
       inkscape:vp_y="0 : 1000 : 0"
       inkscape:vp_x="0 : 0.5 : 1"
       sodipodi:type="inkscape:persp3d" />
    <linearGradient
       inkscape:collect="always"
       xlink:href="#linearGradient3853"
       id="linearGradient3824"
       gradientUnits="userSpaceOnUse"
       gradientTransform="matrix(0.2135965,0,0,0.20626777,-2.2526329,-0.30171)"
       x1="56"
       y1="16"
       x2="56"
       y2="80" />
    <linearGradient
       id="StandardGradient-3-5"
       gradientTransform="scale(0.9219544,1.0846523)"
       x1="11.998966"
       y1="0.92195445"
       x2="11.998966"
       y2="19.387045"
       gradientUnits="userSpaceOnUse">
      <stop
         style="stop-color:#000000;stop-opacity:0.86274511;"
         offset="0"
         id="stop3283-5-0" />
      <stop
         style="stop-color:#000000;stop-opacity:0.47058824;"
         offset="1"
         id="stop2651-2-4" />
    </linearGradient>
  </defs>
  <sodipodi:namedview
     id="base"
     pagecolor="#ffffff"
     bordercolor="#e7e7e7"
     borderopacity="1"
     inkscape:pageopacity="0.0"
     inkscape:pageshadow="2"
     inkscape:zoom="17.162743"
     inkscape:cx="-27.984582"
     inkscape:cy="11.080167"
     inkscape:document-units="px"
     inkscape:current-layer="layer1"
     showgrid="true"
     inkscape:showpageshadow="false"
     showguides="false"
     inkscape:guide-bbox="true"
     inkscape:window-width="1920"
     inkscape:window-height="1030"
     inkscape:window-x="0"
     inkscape:window-y="25"
     inkscape:window-maximized="1"
     inkscape:snap-global="false">
    <sodipodi:guide
       orientation="1,0"
       position="0,112"
       id="guide2383" />
    <sodipodi:guide
       orientation="0,1"
       position="26.278146,128"
       id="guide2385" />
    <sodipodi:guide
       orientation="1,0"
       position="128,54.082119"
       id="guide2387" />
    <sodipodi:guide
       orientation="0,1"
       position="78.156291,0"
       id="guide2389" />
    <sodipodi:guide
       orientation="0,1"
       position="60.863576,64.084768"
       id="guide2391" />
    <inkscape:grid
       type="xygrid"
       id="grid3672"
       visible="true"
       enabled="true" />
  </sodipodi:namedview>
  <metadata
     id="metadata7">
    <rdf:RDF>
      <cc:Work
         rdf:about="">
        <dc:format>image/svg+xml</dc:format>
        <dc:type
           rdf:resource="http://purl.org/dc/dcmitype/StillImage" />
      </cc:Work>
    </rdf:RDF>
  </metadata>
  <g
     inkscape:label="Button"
     inkscape:groupmode="layer"
     id="layer1">
    <rect
       ry="2"
       rx="2"
       y="0"
       x="-16"
       height="16"
       width="16"
       id="rect3196"
       style="fill:url(#linearGradient3204);fill-opacity:1;fill-rule:nonzero;stroke:none"
       transform="matrix(0,-1,1,0,0,0)" />
    <path
       id="path3696"
       d="m 0,14 c 0,1.108 0.892,2 2,2 l 12,0 c 1.108,0 2,-0.892 2,-2 L 16,2 C 16,0.892 15.108,0 14,0 L 2,0 C 0.892,0 0,0.892 0,2 L 0,14 z M 1,13.96875 1,2.03125 C 1,1.447387 1.4473874,1 2.03125,1 l 11.9375,0 C 14.552612,1 15,1.447387 15,2.03125 l 0,11.9375 C 15,14.552612 14.552612,15 13.96875,15 L 2.03125,15 C 1.4473874,15 1,14.552612 1,13.96875 z"
       style="opacity:0.7;fill:url(#linearGradient2907);fill-opacity:1;fill-rule:nonzero;stroke:none;display:inline" />
    <path
       style="opacity:0.4;fill:#ffffff;fill-opacity:1;fill-rule:nonzero;stroke:none;display:inline"
       d="M 2.03125,1 C 1.447388,1 1,1.4473874 1,2.03125 l 0,1 C 1,2.4473874 1.447388,2 2.03125,2 l 11.9375,0 C 14.552613,2 15,2.4473874 15,3.03125 l 0,-1 C 15,1.4473874 14.552613,1 13.96875,1 L 2.03125,1 z"
       id="path3687" />
    <path
       inkscape:connector-curvature="0"
       style="opacity:0.2;fill:#ffffff;fill-opacity:1;stroke:none;display:inline;enable-background:new"
       d="m 7.9999998,2.32993 c -1.8229461,0 -3.3824878,1.344277 -3.3824878,3.0931961 a 0.69329869,0.69329869 0 0 0 0,0.022254 c 0.00166,0.070329 -0.00304,0.1786121 0,0.2670385 -0.1107745,0.1957378 -0.1703795,0.4153295 -0.1780258,0.6008367 -0.013624,0.3305331 0.079577,0.6567232 0.2225322,0.9791412 0.069268,0.1562254 0.1629092,0.2976411 0.2670384,0.4450642 0.020795,0.080966 0.050052,0.1715897 0.06676,0.2447853 a 0.69329869,0.69329869 0 0 0 0.022254,0.06676 C 5.1172648,8.3338638 5.2460336,8.5512631 5.4186275,8.8056141 5.550326,8.9996977 5.695113,9.1928633 5.8414384,9.3841975 5.8523524,9.5322529 5.8276974,9.6870478 5.8191854,9.8292619 5.4084098,10.074411 4.7180247,10.338035 3.9944222,10.608124 3.5798682,10.762859 3.1889643,10.923007 2.8372554,11.1422 2.5134988,11.343975 2.1806831,11.688016 2.1251526,12.188102 l -0.044506,0 -0.111266,0.68985 a 0.69329869,0.69329869 0 0 0 0.6898495,0.801114 l 10.6815399,0 a 0.69329869,0.69329869 0 0 0 0.68985,-0.801114 l -0.111266,-0.68985 -0.0445,0 C 13.838864,11.943943 13.757131,11.70584 13.630065,11.565012 13.480252,11.398974 13.311669,11.287694 13.140494,11.186708 12.798143,10.984735 12.415971,10.834 12.00558,10.674884 11.281591,10.394179 10.587265,10.090543 10.180817,9.8292619 c -0.0047,-0.1177902 -0.02684,-0.2348481 -0.02225,-0.3560516 0.1377,-0.204805 0.288762,-0.4069816 0.422811,-0.6230898 0.171406,-0.2763358 0.301836,-0.5176168 0.400557,-0.8011156 a 0.69329869,0.69329869 0 0 0 0.02225,-0.06676 c 0.0357,-0.1444514 0.04878,-0.2194658 0.06676,-0.3115449 0.08734,-0.1136025 0.167736,-0.2045301 0.244785,-0.3783046 0.135967,-0.306657 0.209041,-0.6221947 0.20028,-0.9346348 -0.0032,-0.1111732 -0.124034,-0.215044 -0.155773,-0.3337981 0.01626,-0.2238539 0.01677,-0.4244119 0.02225,-0.5785835 a 0.69329869,0.69329869 0 0 0 0,-0.022254 C 11.38249,3.6742065 9.8229466,2.32993 7.9999998,2.32993 z m 0,0.6898495 c 1.4907884,0 2.6926402,1.0714588 2.6926382,2.4033466 -0.006,0.1673857 -0.008,0.3604813 -0.02225,0.5563304 0.203685,0.1463463 0.222102,0.5729124 0.02225,1.0236476 -0.07213,0.1626862 -0.169324,0.2862325 -0.267038,0.4005578 -0.03162,0.1413994 -0.04831,0.2581408 -0.08901,0.422811 -0.110727,0.3179744 -0.5369737,0.9578564 -0.8678754,1.4464586 -0.021328,0.324953 -0.019647,0.6492209 0.022254,0.9791405 1.0347344,0.861287 3.7342664,1.310152 3.7385394,2.047296 l 0.111266,0.68985 -10.6815408,0 0.111266,-0.68985 C 2.766478,11.438081 5.4614585,11.08403 6.5090351,10.252072 6.582047,9.8445329 6.5675912,9.497696 6.5312886,9.1394122 6.1673337,8.6749724 5.7634316,8.1136966 5.6634128,7.8264729 5.6311255,7.6850186 5.6010991,7.5958256 5.5744,7.4704215 5.4625581,7.3499814 5.3662572,7.1861259 5.2851082,7.0031041 5.074662,6.5284687 5.0936836,6.0553418 5.3296146,5.93495 5.3130385,5.7450955 5.3109747,5.5757629 5.3073614,5.4231261 c 0,-1.331888 1.2018506,-2.4033466 2.6926384,-2.4033466 z"
       id="path3841" />
    <path
       style="fill:url(#linearGradient3824);fill-opacity:1.0;stroke:none;display:inline;enable-background:new"
       d="m 7.9999991,3.0197795 c -1.4907877,0 -2.6979143,1.060777 -2.6979143,2.3926652 0.00361,0.1526366 0.010955,0.3418487 0.027532,0.5317032 -0.2359313,0.1203919 -0.2655079,0.5887714 -0.055061,1.0634068 0.081149,0.1830218 0.1909854,0.3315074 0.3028274,0.4519478 0.026699,0.1254043 0.050302,0.230738 0.082589,0.3721922 0.1000188,0.2872238 0.5169977,0.8382332 0.8809518,1.302673 0.036303,0.3582838 0.045482,0.7090372 -0.02753,1.1165763 -1.0475766,0.831958 -3.7480584,1.185773 -3.7440428,2.04706 l -0.1101213,0.691214 10.6815411,0 -0.11012,-0.691214 C 13.226378,11.560858 10.52134,11.112231 9.4866054,10.250944 9.4447052,9.9210244 9.4377408,9.5922475 9.4590684,9.2672945 9.7899697,8.7786923 10.229294,8.1496692 10.34002,7.8316947 10.38071,7.6670245 10.391,7.5477317 10.42261,7.4063323 10.52032,7.292007 10.625775,7.1702408 10.697908,7.0075547 c 0.199848,-0.4507352 0.176151,-0.8904751 -0.02753,-1.0368216 0.01423,-0.1958489 0.02159,-0.3909028 0.02753,-0.5582884 10e-7,-1.331888 -1.2071269,-2.3926652 -2.6979154,-2.3926652 z"
       id="path3798-5"
       inkscape:connector-curvature="0" />
    <path
       inkscape:connector-curvature="0"
       style="opacity:0.1;fill:#000000;fill-opacity:1;stroke:none;display:inline;enable-background:new"
       d="m 7.9999998,3.0197795 c -1.4907878,0 -2.6926384,1.0714586 -2.6926384,2.4033466 0.00361,0.1526368 0.00567,0.3219694 0.022254,0.5118239 -0.2359311,0.1203918 -0.2549526,0.5935187 -0.044506,1.0681541 0.081149,0.1830218 0.1774499,0.3468773 0.2892918,0.4673174 0.0267,0.1254041 0.056725,0.2145971 0.089013,0.3560514 0.1000188,0.2872237 0.5039209,0.8484995 0.8678752,1.3129393 0.036303,0.3582838 0.050758,0.7051207 -0.022254,1.1126598 -1.0475765,0.831958 -3.7425547,1.186009 -3.7385393,2.047296 l -0.111266,0.68985 10.6815409,0 -0.111266,-0.68985 C 13.225232,11.562224 10.5257,11.113359 9.4909648,10.252072 9.4490648,9.9221524 9.4473842,9.5978845 9.4687116,9.2729315 9.7996133,8.7843293 10.22586,8.1444473 10.336587,7.8264729 c 0.0407,-0.1646702 0.05739,-0.2814116 0.08901,-0.422811 0.09771,-0.1143253 0.194906,-0.2378716 0.267038,-0.4005578 0.199849,-0.4507352 0.181432,-0.8773013 -0.02225,-1.0236476 0.01423,-0.1958491 0.0163,-0.3889447 0.02225,-0.5563304 5e-6,-1.3318878 -1.2018468,-2.4033466 -2.6926352,-2.4033466 z m 0,0.734356 c 1.1249222,0 1.9457014,0.7717165 1.9582823,1.6467374 9.9e-5,0.00689 0,0.015352 0,0.022254 -0.00591,0.1739995 -0.010714,0.3529694 -0.022252,0.5118238 a 0.74517269,0.74517269 0 0 0 0.1335189,0.5118235 c -0.0044,0.055151 -0.0155,0.1291671 -0.06676,0.2447853 -0.028266,0.063754 -0.049511,0.1242441 -0.1335187,0.2225321 A 0.74517269,0.74517269 0 0 0 9.6912404,7.2478897 c -0.031924,0.1427659 -0.04398,0.2305682 -0.06676,0.3337981 -0.0047,0.021235 -0.016728,0.044392 -0.022254,0.06676 -0.030374,0.065356 -0.1116005,0.2303546 -0.2447808,0.4450635 -0.151403,0.2440868 -0.3477618,0.514359 -0.5118238,0.7566092 a 0.74517269,0.74517269 0 0 0 -0.111266,0.3783046 c -0.023614,0.3598297 -0.027024,0.7246761 0.022253,1.1126609 a 0.74517269,0.74517269 0 0 0 0.2670385,0.48957 c 0.7133262,0.593753 1.6603157,0.874078 2.4478527,1.17942 0.225515,0.08744 0.359459,0.165935 0.534077,0.244786 l -8.1669276,0 c 0.18775,-0.09316 0.3837751,-0.183354 0.6675965,-0.289292 0.7774069,-0.290172 1.7429523,-0.557428 2.4701063,-1.134914 A 0.74517269,0.74517269 0 0 0 7.2433906,10.385592 C 7.3323536,9.8890175 7.3048088,9.4591819 7.2656439,9.0726525 A 0.74517269,0.74517269 0 0 0 7.1098714,8.6720948 C 6.9352382,8.4492465 6.764632,8.2171993 6.6203008,8.0044985 6.4759696,7.7917977 6.3726587,7.5734841 6.3755155,7.5816875 6.3498075,7.4800313 6.3222486,7.378024 6.3087558,7.314649 A 0.74517269,0.74517269 0 0 0 6.1307302,6.9585977 C 6.1030622,6.9288025 6.0343639,6.8255427 5.9749578,6.6915591 5.9194133,6.5662855 5.9120938,6.4628954 5.9081981,6.4022674 A 0.74517269,0.74517269 0 0 0 6.0639706,5.8681903 C 6.0509184,5.7186977 6.045186,5.5736485 6.0417174,5.4231261 c -1.731e-4,-0.00751 1.787e-4,-0.0147 0,-0.022253 0.012582,-0.8750221 0.833361,-1.6467376 1.9582824,-1.6467376 z"
       id="path3855" />
    <path
       inkscape:connector-curvature="0"
       style="opacity:0.4;fill:#000000;fill-opacity:1;stroke:none;display:inline;enable-background:new"
       d="m 7.9999998,3.0197795 c -1.4907878,0 -2.6926384,1.0714586 -2.6926384,2.4033466 0.00345,0.1460129 0.00715,0.3080732 0.022254,0.4895707 0.1266621,-1.2246624 1.2643696,-2.1808145 2.6703844,-2.1808145 1.4060154,0 2.5437242,0.9561524 2.6703862,2.1808145 0.01115,-0.1718774 0.01701,-0.3422391 0.02225,-0.4895707 4e-6,-1.3318878 -1.2018478,-2.4033466 -2.6926362,-2.4033466 z M 5.3296146,5.93495 C 5.1308508,6.036376 5.0818081,6.3895133 5.1960954,6.7805719 5.2280934,6.7204499 5.2754893,6.6746723 5.3296146,6.6470527 5.3130385,6.4571982 5.3109747,6.2878655 5.3073614,6.1352289 c 0,-0.068232 0.016041,-0.1335761 0.022254,-0.2002789 z m 5.3407714,0.06676 c 0.0027,0.045045 0.02225,0.087804 0.02225,0.1335193 -0.006,0.1673857 -0.008,0.3604813 -0.02225,0.5563302 0.03785,0.027196 0.06388,0.065628 0.08901,0.111266 0.110537,-0.3644893 0.07225,-0.6688454 -0.08901,-0.8011155 z M 6.531288,9.9627806 C 6.522448,10.058176 6.527208,10.150634 6.509034,10.252072 5.4614575,11.08403 2.7664793,11.438081 2.7704947,12.299368 l -0.111266,0.68985 0.111266,0 c 0.042604,-0.845023 2.700129,-1.200366 3.7385393,-2.025043 0.065459,-0.36538 0.049241,-0.680953 0.022254,-1.0013944 z m 2.9374236,0.044504 c -0.019583,0.317751 -0.0187,0.634451 0.022254,0.956888 1.0242474,0.852557 3.6805644,1.301086 3.7385394,2.025042 l 0.111266,0 -0.111266,-0.689849 C 13.225305,11.562221 10.5257,11.113356 9.4909656,10.25207 9.4804896,10.16959 9.4749216,10.08958 9.4687116,10.007285 z"
       id="path3846" />
    <path
       inkscape:connector-curvature="0"
       style="opacity:0.3;fill:#ffffff;fill-opacity:1;stroke:none;display:inline;enable-background:new"
       d="m 5.2812498,7.0000002 c -0.1748913,0.1679149 -0.1894022,0.5728281 0,1 0.081149,0.1830218 0.169408,0.3483096 0.28125,0.46875 0.026699,0.1254043 0.061463,0.2335458 0.09375,0.375 0.098613,0.2831858 0.5147648,0.7897575 0.875,1.2499998 0.043883,-0.3377777 0.031212,-0.6607138 0,-0.9687498 -0.3639541,-0.4644403 -0.7749812,-0.9940262 -0.875,-1.28125 -0.032287,-0.1414542 -0.067051,-0.2495957 -0.09375,-0.375 -0.111842,-0.1204404 -0.200101,-0.2857282 -0.28125,-0.46875 z m 5.4062502,0 c -0.07213,0.1626861 -0.15229,0.2919247 -0.25,0.40625 -0.03161,0.1413994 -0.05306,0.2728298 -0.09375,0.4375 -0.110726,0.3179745 -0.5440989,0.9488981 -0.8750002,1.4375 -0.020641,0.3144815 -0.00713,0.6182855 0.03125,0.9374998 0.3257346,-0.4798158 0.7371722,-1.0689358 0.8437502,-1.3749998 0.04069,-0.1646702 0.06214,-0.2961006 0.09375,-0.4375 0.09771,-0.1143253 0.177867,-0.2435639 0.25,-0.40625 0.188881,-0.4259997 0.173709,-0.832054 0,-1 z M 2.8749998,13 c -0.075503,0.09373 -0.094252,0.204839 -0.09375,0.3125 L 2.6562498,14 13.34375,14 13.21875,13.3125 C 13.218157,13.210893 13.18552,13.09248 13.09375,13 L 2.8749998,13 z"
       id="path3073" />
  </g>
</svg>
