<?xml version="1.0" encoding="UTF-8" standalone="no"?>
<!-- Created with Inkscape (http://www.inkscape.org/) -->

<svg
   xmlns:dc="http://purl.org/dc/elements/1.1/"
   xmlns:cc="http://creativecommons.org/ns#"
   xmlns:rdf="http://www.w3.org/1999/02/22-rdf-syntax-ns#"
   xmlns:svg="http://www.w3.org/2000/svg"
   xmlns="http://www.w3.org/2000/svg"
   xmlns:xlink="http://www.w3.org/1999/xlink"
   xmlns:sodipodi="http://sodipodi.sourceforge.net/DTD/sodipodi-0.dtd"
   xmlns:inkscape="http://www.inkscape.org/namespaces/inkscape"
   width="24"
   height="24"
   id="svg2"
   sodipodi:version="0.32"
   inkscape:version="0.48.0 r9654"
   version="1.0"
   sodipodi:docname="video-x-generic.svg"
   inkscape:output_extension="org.inkscape.output.svg.inkscape"
   style="display:inline">
  <defs
     id="defs4">
    <linearGradient
       inkscape:collect="always"
       id="linearGradient3735">
      <stop
         style="stop-color:#ffffff;stop-opacity:1;"
         offset="0"
         id="stop3737" />
      <stop
         style="stop-color:#ffffff;stop-opacity:0;"
         offset="1"
         id="stop3739" />
    </linearGradient>
    <linearGradient
       inkscape:collect="always"
       id="linearGradient3327">
      <stop
         style="stop-color:#000000;stop-opacity:1;"
         offset="0"
         id="stop3330" />
      <stop
         style="stop-color:#000000;stop-opacity:0;"
         offset="1"
         id="stop3333" />
    </linearGradient>
    <linearGradient
       inkscape:collect="always"
       xlink:href="#linearGradient3327"
       id="linearGradient3335"
       x1="11.375"
       y1="22"
       x2="11.375"
       y2="-9.817296"
       gradientUnits="userSpaceOnUse" />
    <linearGradient
       id="linearGradient3222">
      <stop
         style="stop-color:#000000;stop-opacity:1;"
         offset="0"
         id="stop3224" />
      <stop
         style="stop-color:#000000;stop-opacity:0;"
         offset="1"
         id="stop3226" />
    </linearGradient>
    <linearGradient
       id="linearGradient3422">
      <stop
         style="stop-color:#2f230c;stop-opacity:1;"
         offset="0"
         id="stop3424" />
      <stop
         style="stop-color:#825121;stop-opacity:0;"
         offset="1"
         id="stop3426" />
    </linearGradient>
    <linearGradient
       id="linearGradient3347">
      <stop
         style="stop-color:#fcfaf7;stop-opacity:1;"
         offset="0"
         id="stop3349" />
      <stop
         style="stop-color:#b3925c;stop-opacity:1;"
         offset="1"
         id="stop3351" />
    </linearGradient>
    <inkscape:perspective
       sodipodi:type="inkscape:persp3d"
       inkscape:vp_x="0 : 64 : 1"
       inkscape:vp_y="0 : 1000 : 0"
       inkscape:vp_z="128 : 64 : 1"
       inkscape:persp3d-origin="64 : 42.666667 : 1"
       id="perspective27" />
    <linearGradient
       id="ButtonShadow"
       gradientTransform="matrix(1.0212132,0,0,1.012703,-0.06779365,-2.1355961)"
       x1="51.733612"
       y1="125.54085"
       x2="51.733612"
       y2="7.9231682"
       gradientUnits="userSpaceOnUse"
       xlink:href="#linearGradient3347"
       spreadMethod="pad">
      <stop
         style="stop-color:#000000;stop-opacity:0.70588237;"
         offset="0"
         id="stop3931" />
      <stop
         style="stop-color:#000000;stop-opacity:0.15686275;"
         offset="1"
         id="stop3933" />
    </linearGradient>
    <linearGradient
       id="ButtonColor"
       x1="58.650177"
       y1="122"
       x2="58.650177"
       y2="5.4252338"
       gradientUnits="userSpaceOnUse"
       gradientTransform="translate(20.488606,-18.489718)">
      <stop
         style="stop-color:#000000;stop-opacity:1;"
         offset="0"
         id="stop3189" />
      <stop
         style="stop-color:#515151;stop-opacity:1;"
         offset="1"
         id="stop3191" />
    </linearGradient>
    <clipPath
       clipPathUnits="userSpaceOnUse"
       id="clipPath3409">
      <path
         style="fill:#ffffff;fill-opacity:1;stroke:none;display:inline"
         d="m 15,74 c -4.986,0 -9,4.014 -9,9 l 0,98 c 0,4.986 4.014,9 9,9 l 98,0 c 4.986,0 9,-4.014 9,-9 l 0,-98 c 0,-4.986 -4.014,-9 -9,-9 l -98,0 z m -5,5 8,0 0,6 -8,0 0,-6 z m 100,0 8,0 0,6 -8,0 0,-6 z m -100,10 8,0 0,6 -8,0 0,-6 z m 100,0 8,0 0,6 -8,0 0,-6 z m -100,10 8,0 0,6 -8,0 0,-6 z m 100,0 8,0 0,6 -8,0 0,-6 z m -100,10 8,0 0,6 -8,0 0,-6 z m 100,0 8,0 0,6 -8,0 0,-6 z m -100,10 8,0 0,6 -8,0 0,-6 z m 100,0 8,0 0,6 -8,0 0,-6 z m -100,10 8,0 0,6 -8,0 0,-6 z m 100,0 8,0 0,6 -8,0 0,-6 z m -100,10 8,0 0,6 -8,0 0,-6 z m 100,0 8,0 0,6 -8,0 0,-6 z m -100,10 8,0 0,6 -8,0 0,-6 z m 100,0 8,0 0,6 -8,0 0,-6 z m -100,10 8,0 0,6 -8,0 0,-6 z m 100,0 8,0 0,6 -8,0 0,-6 z m -100,10 8,0 0,6 -8,0 0,-6 z m 100,0 8,0 0,6 -8,0 0,-6 z m -100,10 8,0 0,6 -8,0 0,-6 z m 100,0 8,0 0,6 -8,0 0,-6 z"
         id="path3411" />
    </clipPath>
    <clipPath
       clipPathUnits="userSpaceOnUse"
       id="clipPath3413">
      <path
         id="path3415"
         d="m 15,-62 c -4.986,0 -9,4.014 -9,9 l 0,98 c 0,4.986 4.014,9 9,9 l 98,0 c 4.986,0 9,-4.014 9,-9 l 0,-98 c 0,-4.986 -4.014,-9 -9,-9 l -98,0 z m -5,5 8,0 0,6 -8,0 0,-6 z m 100,0 8,0 0,6 -8,0 0,-6 z m -100,10 8,0 0,6 -8,0 0,-6 z m 100,0 8,0 0,6 -8,0 0,-6 z m -100,10 8,0 0,6 -8,0 0,-6 z m 100,0 8,0 0,6 -8,0 0,-6 z m -100,10 8,0 0,6 -8,0 0,-6 z m 100,0 8,0 0,6 -8,0 0,-6 z m -100,10 8,0 0,6 -8,0 0,-6 z m 100,0 8,0 0,6 -8,0 0,-6 z m -100,10 8,0 0,6 -8,0 0,-6 z m 100,0 8,0 0,6 -8,0 0,-6 z M 10,3 l 8,0 0,6 -8,0 0,-6 z m 100,0 8,0 0,6 -8,0 0,-6 z m -100,10 8,0 0,6 -8,0 0,-6 z m 100,0 8,0 0,6 -8,0 0,-6 z m -100,10 8,0 0,6 -8,0 0,-6 z m 100,0 8,0 0,6 -8,0 0,-6 z m -100,10 8,0 0,6 -8,0 0,-6 z m 100,0 8,0 0,6 -8,0 0,-6 z m -100,10 8,0 0,6 -8,0 0,-6 z m 100,0 8,0 0,6 -8,0 0,-6 z"
         style="fill:#ffffff;fill-opacity:1;stroke:none;display:inline" />
    </clipPath>
    <linearGradient
       inkscape:collect="always"
       xlink:href="#ButtonColor"
       id="linearGradient3346"
       gradientUnits="userSpaceOnUse"
       gradientTransform="translate(20.488605,-18.489719)"
       x1="-9.4886045"
       y1="39.489719"
       x2="-9.4886045"
       y2="19.489719" />
    <radialGradient
       inkscape:collect="always"
       xlink:href="#linearGradient3347"
       id="radialGradient3400"
       gradientUnits="userSpaceOnUse"
       gradientTransform="matrix(0.1742353,0,0,0.1597041,-0.1510563,2.4456062)"
       cx="64"
       cy="64"
       fx="64"
       fy="64"
       r="42" />
    <radialGradient
       inkscape:collect="always"
       xlink:href="#linearGradient3347"
       id="radialGradient3418"
       gradientUnits="userSpaceOnUse"
       gradientTransform="matrix(0.1742353,0,0,0.1597041,-0.1510563,2.4456062)"
       cx="64"
       cy="64"
       fx="64"
       fy="64"
       r="42" />
    <radialGradient
       inkscape:collect="always"
       xlink:href="#linearGradient3347"
       id="radialGradient3436"
       gradientUnits="userSpaceOnUse"
       gradientTransform="matrix(0.1742353,0,0,0.1597041,-0.1510563,2.4456062)"
       cx="64"
       cy="64"
       fx="64"
       fy="64"
       r="42" />
    <clipPath
       clipPathUnits="userSpaceOnUse"
       id="clipPath3445">
      <path
         style="fill:#ffffff;fill-opacity:1;stroke:none;display:inline"
         d="M 3.5,15 C 2.1150001,15 1,16.115 1,17.5 l 0,15 c -1e-8,1.385 1.115,2.5 2.5,2.5 l 15,0 c 1.385,0 2.5,-1.115 2.5,-2.5 l 0,-15 C 21,16.115 19.885,15 18.5,15 l -15,0 z m -1.5,1 1,0 0,1 -1,0 0,-1 z m 17,0 1,0 0,1 -1,0 0,-1 z m -17,2 1,0 0,1 -1,0 0,-1 z m 17,0 1,0 0,1 -1,0 0,-1 z m -17,2 1,0 0,1 -1,0 0,-1 z m 17,0 1,0 0,1 -1,0 0,-1 z m -17,2 1,0 0,1 -1,0 0,-1 z m 17,0 1,0 0,1 -1,0 0,-1 z m -17,2 1,0 0,1 -1,0 0,-1 z m 17,0 1,0 0,1 -1,0 0,-1 z m -17,2 1,0 0,1 -1,0 0,-1 z m 17,0 1,0 0,1 -1,0 0,-1 z m -17,2 1,0 0,1 -1,0 0,-1 z m 17,0 1,0 0,1 -1,0 0,-1 z m -17,2 1,0 0,1 -1,0 0,-1 z m 17,0 1,0 0,1 -1,0 0,-1 z m -17,2 1,0 0,1 -1,0 0,-1 z m 17,0 1,0 0,1 -1,0 0,-1 z"
         id="path3447" />
    </clipPath>
    <clipPath
       clipPathUnits="userSpaceOnUse"
       id="clipPath3449">
      <path
         id="path3451"
         d="M 3.5,-9 C 2.1150001,-9 1,-7.885 1,-6.5 l 0,15 c -1e-8,1.385 1.115,2.5 2.5,2.5 l 15,0 C 19.885,11 21,9.885 21,8.5 l 0,-15 C 21,-7.8850001 19.885,-9 18.5,-9 l -15,0 z m -1.5,1 1,0 0,1 -1,0 0,-1 z m 17,0 1,0 0,1 -1,0 0,-1 z m -17,2 1,0 0,1 -1,0 0,-1 z m 17,0 1,0 0,1 -1,0 0,-1 z m -17,2 1,0 0,1 -1,0 0,-1 z m 17,0 1,0 0,1 -1,0 0,-1 z m -17,2 1,0 0,1 -1,0 0,-1 z m 17,0 1,0 0,1 -1,0 0,-1 z M 2,0 3,0 3,1 2,1 2,0 z m 17,0 1,0 0,1 -1,0 0,-1 z M 2,2 3,2 3,3 2,3 2,2 z m 17,0 1,0 0,1 -1,0 0,-1 z M 2,4 3,4 3,5 2,5 2,4 z m 17,0 1,0 0,1 -1,0 0,-1 z M 2,6 3,6 3,7 2,7 2,6 z m 17,0 1,0 0,1 -1,0 0,-1 z M 2,8 3,8 3,9 2,9 2,8 z m 17,0 1,0 0,1 -1,0 0,-1 z"
         style="fill:#ffffff;fill-opacity:1;stroke:none;display:inline" />
    </clipPath>
    <linearGradient
       inkscape:collect="always"
       xlink:href="#linearGradient3921"
       id="linearGradient3461"
       x1="8.8586569"
       y1="21"
       x2="8.8586569"
       y2="10.934072"
       gradientUnits="userSpaceOnUse"
       gradientTransform="translate(1,-1)" />
    <radialGradient
       inkscape:collect="always"
       xlink:href="#linearGradient3347"
       id="radialGradient3472"
       gradientUnits="userSpaceOnUse"
       gradientTransform="matrix(0.2163118,7.3809524e-8,-6.1670823e-8,0.1807372,-2.8439498,-0.90052)"
       cx="64"
       cy="64"
       fx="64"
       fy="64"
       r="42" />
    <radialGradient
       inkscape:collect="always"
       xlink:href="#linearGradient3347"
       id="radialGradient3483"
       gradientUnits="userSpaceOnUse"
       gradientTransform="matrix(0.2163118,7.3809524e-8,-6.1670823e-8,0.1807372,-2.8439498,-0.90052)"
       cx="64"
       cy="64"
       fx="64"
       fy="64"
       r="42" />
    <radialGradient
       inkscape:collect="always"
       xlink:href="#linearGradient3347"
       id="radialGradient3499"
       gradientUnits="userSpaceOnUse"
       gradientTransform="matrix(0.2163118,7.3809524e-8,-6.1670823e-8,0.1807372,-2.8439498,-0.90052)"
       cx="64"
       cy="64"
       fx="64"
       fy="64"
       r="42" />
    <radialGradient
       inkscape:collect="always"
       xlink:href="#linearGradient3347"
       id="radialGradient3515"
       gradientUnits="userSpaceOnUse"
       gradientTransform="matrix(0.2163118,7.3809524e-8,-6.1670823e-8,0.1807372,-2.8439498,-0.90052)"
       cx="64"
       cy="64"
       fx="64"
       fy="64"
       r="42" />
    <clipPath
       clipPathUnits="userSpaceOnUse"
       id="clipPath3524">
      <path
         style="fill:#ffffff;fill-opacity:1;stroke:none;display:inline"
         d="m 3.5,14.037986 c -1.3849999,0 -2.5,1.115 -2.5,2.5 l 0,15 c -1e-8,1.385 1.115,2.5 2.5,2.5 l 15,0 c 1.385,0 2.5,-1.115 2.5,-2.5 l 0,-15 c 0,-1.385 -1.115,-2.5 -2.5,-2.5 l -15,0 z m -1.5,1 1,0 0,1 -1,0 0,-1 z m 17,0 1,0 0,1 -1,0 0,-1 z m -17,2 1,0 0,1 -1,0 0,-1 z m 17,0 1,0 0,1 -1,0 0,-1 z m -17,2 1,0 0,1 -1,0 0,-1 z m 17,0 1,0 0,1 -1,0 0,-1 z m -17,2 1,0 0,1 -1,0 0,-1 z m 17,0 1,0 0,1 -1,0 0,-1 z m -17,2 1,0 0,1 -1,0 0,-1 z m 17,0 1,0 0,1 -1,0 0,-1 z m -17,2 1,0 0,1 -1,0 0,-1 z m 17,0 1,0 0,1 -1,0 0,-1 z m -17,2 1,0 0,1 -1,0 0,-1 z m 17,0 1,0 0,1 -1,0 0,-1 z m -17,2 1,0 0,1 -1,0 0,-1 z m 17,0 1,0 0,1 -1,0 0,-1 z m -17,2 1,0 0,1 -1,0 0,-1 z m 17,0 1,0 0,1 -1,0 0,-1 z"
         id="path3526" />
    </clipPath>
    <clipPath
       clipPathUnits="userSpaceOnUse"
       id="clipPath3528">
      <path
         id="path3530"
         d="m 3.5,-11.962014 c -1.3849999,0 -2.5,1.115 -2.5,2.5 l 0,15 c -1e-8,1.385 1.115,2.5 2.5,2.5 l 15,0 c 1.385,0 2.5,-1.115 2.5,-2.5 l 0,-15 c 0,-1.385 -1.115,-2.5 -2.5,-2.5 l -15,0 z m -1.5,1 1,0 0,1 -1,0 0,-1 z m 17,0 1,0 0,1 -1,0 0,-1 z m -17,2 1,0 0,1 -1,0 0,-1 z m 17,0 1,0 0,1 -1,0 0,-1 z m -17,2 1,0 0,1 -1,0 0,-1 z m 17,0 1,0 0,1 -1,0 0,-1 z m -17,2 1,0 0,1 -1,0 0,-1 z m 17,0 1,0 0,1 -1,0 0,-1 z m -17,2 1,0 0,1 -1,0 0,-1 z m 17,0 1,0 0,1 -1,0 0,-1 z m -17,2 1,0 0,1 -1,0 0,-1 z m 17,0 1,0 0,1 -1,0 0,-1 z m -17,2 1,0 0,1 -1,0 0,-1 z m 17,0 1,0 0,1 -1,0 0,-1 z m -17,2 1,0 0,1 -1,0 0,-1 z m 17,0 1,0 0,1 -1,0 0,-1 z m -17,2 1,0 0,1 -1,0 0,-1 z m 17,0 1,0 0,1 -1,0 0,-1 z"
         style="fill:#ffffff;fill-opacity:1;stroke:none;display:inline" />
    </clipPath>
    <linearGradient
       inkscape:collect="always"
       xlink:href="#linearGradient3222"
       id="linearGradient3228"
       x1="3.9996865"
       y1="11.042108"
       x2="11.004457"
       y2="11.042108"
       gradientUnits="userSpaceOnUse"
       spreadMethod="reflect" />
    <linearGradient
       inkscape:collect="always"
       xlink:href="#linearGradient3222"
       id="linearGradient3236"
       x1="11.000002"
       y1="5.0462289"
       x2="11.000002"
       y2="11.042108"
       gradientUnits="userSpaceOnUse"
       spreadMethod="reflect" />
    <linearGradient
       inkscape:collect="always"
       xlink:href="#ButtonColor"
       id="linearGradient3227"
       x1="6.8087134"
       y1="25.634102"
       x2="6.8087134"
       y2="5.5416451"
       gradientUnits="userSpaceOnUse"
       gradientTransform="translate(1.7495831,-4.6341014)" />
    <linearGradient
       inkscape:collect="always"
       xlink:href="#ButtonColor"
       id="linearGradient3261"
       gradientUnits="userSpaceOnUse"
       gradientTransform="translate(2.749583,-5.6341014)"
       x1="6.8087134"
       y1="25.634102"
       x2="6.8087134"
       y2="5.5416451" />
    <linearGradient
       inkscape:collect="always"
       xlink:href="#ButtonShadow"
       id="linearGradient3270"
       x1="8.9805651"
       y1="22"
       x2="8.9805651"
       y2="0.42911154"
       gradientUnits="userSpaceOnUse" />
    <inkscape:perspective
       id="perspective4021"
       inkscape:persp3d-origin="0.5 : 0.33333333 : 1"
       inkscape:vp_z="1 : 0.5 : 1"
       inkscape:vp_y="0 : 1000 : 0"
       inkscape:vp_x="0 : 0.5 : 1"
       sodipodi:type="inkscape:persp3d" />
    <radialGradient
       inkscape:collect="always"
       xlink:href="#linearGradient3806"
       id="radialGradient3804"
       cx="48"
       cy="48"
       fx="48"
       fy="48"
       r="28"
       gradientTransform="matrix(1.1428571,0,0,0.85714286,-6.8571431,3.8571432)"
       gradientUnits="userSpaceOnUse" />
    <linearGradient
       id="linearGradient3806">
      <stop
         id="stop3808"
         offset="0"
         style="stop-color:#f7e0c0;stop-opacity:1;" />
      <stop
         id="stop3810"
         offset="1"
         style="stop-color:#b67e35;stop-opacity:1;" />
    </linearGradient>
    <radialGradient
       r="28"
       fy="48"
       fx="48"
       cy="48"
       cx="48"
       gradientTransform="matrix(1.1428571,0,0,0.85714286,-2.857143,-34.142857)"
       gradientUnits="userSpaceOnUse"
       id="radialGradient4030"
       xlink:href="#linearGradient3806"
       inkscape:collect="always" />
    <linearGradient
       inkscape:collect="always"
       xlink:href="#linearGradient3921"
       id="linearGradient3684"
       gradientUnits="userSpaceOnUse"
       spreadMethod="reflect"
       x1="3.9996865"
       y1="11.042108"
       x2="11.004457"
       y2="11.042108"
       gradientTransform="matrix(1,0,0,1.8099677,1,-9.9437509)" />
    <linearGradient
       inkscape:collect="always"
       xlink:href="#linearGradient3921"
       id="linearGradient3687"
       gradientUnits="userSpaceOnUse"
       spreadMethod="reflect"
       x1="11.000002"
       y1="5.0462289"
       x2="11.000002"
       y2="11.042108"
       gradientTransform="matrix(1.5785484,0,0,1,-5.3640332,-1)" />
    <radialGradient
       inkscape:collect="always"
       xlink:href="#linearGradient3720"
       id="radialGradient3692"
       gradientUnits="userSpaceOnUse"
       gradientTransform="matrix(0.2163118,7.3809524e-8,-6.1670823e-8,0.1807372,-1.8439498,-1.90052)"
       cx="64"
       cy="64"
       fx="64"
       fy="64"
       r="42" />
    <radialGradient
       inkscape:collect="always"
       xlink:href="#linearGradient3347"
       id="radialGradient3696"
       gradientUnits="userSpaceOnUse"
       gradientTransform="matrix(0.2163118,7.3809524e-8,-6.1670823e-8,0.1807372,-2.8439498,-13.938506)"
       cx="64"
       cy="64"
       fx="64"
       fy="64"
       r="42" />
    <radialGradient
       inkscape:collect="always"
       xlink:href="#linearGradient3720"
       id="radialGradient3701"
       gradientUnits="userSpaceOnUse"
       gradientTransform="matrix(0.2163118,7.3809524e-8,-6.1670823e-8,0.1807372,-1.8439498,-14.938506)"
       cx="64"
       cy="64"
       fx="64"
       fy="64"
       r="42" />
    <radialGradient
       inkscape:collect="always"
       xlink:href="#linearGradient3347"
       id="radialGradient3705"
       gradientUnits="userSpaceOnUse"
       gradientTransform="matrix(0.2163118,7.3809524e-8,-6.1670823e-8,0.1807372,-2.8439498,12.061494)"
       cx="64"
       cy="64"
       fx="64"
       fy="64"
       r="42" />
    <radialGradient
       inkscape:collect="always"
       xlink:href="#linearGradient3720"
       id="radialGradient3710"
       gradientUnits="userSpaceOnUse"
       gradientTransform="matrix(0.2163118,7.3809524e-8,-6.1670823e-8,0.1807372,-1.8439498,11.061494)"
       cx="64"
       cy="64"
       fx="64"
       fy="64"
       r="42" />
    <inkscape:perspective
       id="perspective4040"
       inkscape:persp3d-origin="0.5 : 0.33333333 : 1"
       inkscape:vp_z="1 : 0.5 : 1"
       inkscape:vp_y="0 : 1000 : 0"
       inkscape:vp_x="0 : 0.5 : 1"
       sodipodi:type="inkscape:persp3d" />
    <linearGradient
       inkscape:collect="always"
       xlink:href="#linearGradient3921"
       id="linearGradient3968"
       gradientUnits="userSpaceOnUse"
       x1="48.495441"
       y1="90.434654"
       x2="48.495441"
       y2="52.387913" />
    <linearGradient
       inkscape:collect="always"
       id="linearGradient3921">
      <stop
         style="stop-color:#6b3715;stop-opacity:1;"
         offset="0"
         id="stop3923" />
      <stop
         style="stop-color:#6b3715;stop-opacity:0;"
         offset="1"
         id="stop3925" />
    </linearGradient>
    <linearGradient
       gradientTransform="translate(-79,-92)"
       y2="52.387913"
       x2="48.495441"
       y1="90.434654"
       x1="48.495441"
       gradientUnits="userSpaceOnUse"
       id="linearGradient4049"
       xlink:href="#linearGradient3921"
       inkscape:collect="always" />
    <linearGradient
       inkscape:collect="always"
       xlink:href="#ButtonColor"
       id="linearGradient3696"
       gradientUnits="userSpaceOnUse"
       gradientTransform="translate(-17.250417,-3.6341014)"
       x1="6.8087134"
       y1="25.634102"
       x2="6.8087134"
       y2="5.5416451" />
    <linearGradient
       inkscape:collect="always"
       xlink:href="#ButtonColor"
       id="linearGradient3700"
       gradientUnits="userSpaceOnUse"
       gradientTransform="translate(-17.250417,-6.6341014)"
       x1="6.8087134"
       y1="25.634102"
       x2="6.8087134"
       y2="5.5416451" />
    <inkscape:perspective
       id="perspective2917"
       inkscape:persp3d-origin="0.5 : 0.33333333 : 1"
       inkscape:vp_z="1 : 0.5 : 1"
       inkscape:vp_y="0 : 1000 : 0"
       inkscape:vp_x="0 : 0.5 : 1"
       sodipodi:type="inkscape:persp3d" />
    <radialGradient
       inkscape:collect="always"
       xlink:href="#linearGradient3720"
       id="radialGradient3804-1"
       cx="48"
       cy="48"
       fx="48"
       fy="48"
       r="28"
       gradientTransform="matrix(1.1428571,0,0,0.85714286,-6.8571431,3.8571432)"
       gradientUnits="userSpaceOnUse" />
    <linearGradient
       id="linearGradient3720">
      <stop
         style="stop-color:#efad51;stop-opacity:1;"
         offset="0"
         id="stop3722" />
      <stop
         style="stop-color:#d56616;stop-opacity:1;"
         offset="1"
         id="stop3724" />
    </linearGradient>
    <radialGradient
       r="28"
       fy="48"
       fx="48"
       cy="48"
       cx="48"
       gradientTransform="matrix(1.1428571,0,0,0.85714286,-61.799444,-47.763254)"
       gradientUnits="userSpaceOnUse"
       id="radialGradient2926"
       xlink:href="#linearGradient3720"
       inkscape:collect="always" />
    <linearGradient
       inkscape:collect="always"
       xlink:href="#ButtonColor"
       id="linearGradient3730"
       gradientUnits="userSpaceOnUse"
       gradientTransform="translate(-27.250417,-3.6341014)"
       x1="6.8087134"
       y1="25.634102"
       x2="6.8087134"
       y2="5.5416451" />
    <linearGradient
       inkscape:collect="always"
       xlink:href="#linearGradient3735"
       id="linearGradient3741"
       x1="-28"
       y1="8.421875"
       x2="-8"
       y2="8.421875"
       gradientUnits="userSpaceOnUse" />
    <linearGradient
       inkscape:collect="always"
       xlink:href="#linearGradient3735"
       id="linearGradient3745"
       gradientUnits="userSpaceOnUse"
       x1="-15"
       y1="12"
       x2="-15"
       y2="-2"
       gradientTransform="translate(30,-2)" />
    <linearGradient
       y2="16"
       x2="10"
       y1="1"
       x1="10"
       gradientUnits="userSpaceOnUse"
       id="linearGradient3078"
       xlink:href="#linearGradient3823"
       inkscape:collect="always"
       gradientTransform="translate(1,-1)" />
    <linearGradient
       id="linearGradient3823">
      <stop
         id="stop3825"
         offset="0"
         style="stop-color:#ffffff;stop-opacity:1;" />
      <stop
         id="stop3829"
         offset="1"
         style="stop-color:#ffffff;stop-opacity:0;" />
    </linearGradient>
    <linearGradient
       inkscape:collect="always"
       xlink:href="#linearGradient3831"
       id="linearGradient3845"
       x1="11"
       y1="19.5"
       x2="21"
       y2="19.5"
       gradientUnits="userSpaceOnUse"
       spreadMethod="reflect"
       gradientTransform="translate(1,-1)" />
    <linearGradient
       id="linearGradient3831">
      <stop
         style="stop-color:#ffffff;stop-opacity:1;"
         offset="0"
         id="stop3833" />
      <stop
         id="stop3821"
         offset="0.75"
         style="stop-color:#ffffff;stop-opacity:0.49803922;" />
      <stop
         style="stop-color:#ffffff;stop-opacity:0;"
         offset="1"
         id="stop3835" />
    </linearGradient>
    <linearGradient
       y2="16"
       x2="10"
       y1="1"
       x1="10"
       gradientTransform="translate(1,-1)"
       gradientUnits="userSpaceOnUse"
       id="linearGradient3859"
       xlink:href="#linearGradient3823"
       inkscape:collect="always" />
  </defs>
  <sodipodi:namedview
     id="base"
     pagecolor="#ffffff"
     bordercolor="#e7e7e7"
     borderopacity="1"
     inkscape:pageopacity="0.0"
     inkscape:pageshadow="2"
     inkscape:zoom="13.163965"
     inkscape:cx="0.51155054"
     inkscape:cy="8.8068774"
     inkscape:document-units="px"
     inkscape:current-layer="layer5"
     showgrid="true"
     inkscape:showpageshadow="false"
     showguides="false"
     inkscape:guide-bbox="true"
     inkscape:window-width="1920"
     inkscape:window-height="1026"
     inkscape:window-x="0"
     inkscape:window-y="25"
     inkscape:window-maximized="1"
     inkscape:snap-global="true">
    <sodipodi:guide
       orientation="1,0"
       position="0,112"
       id="guide2383" />
    <sodipodi:guide
       orientation="0,1"
       position="26.278146,128"
       id="guide2385" />
    <sodipodi:guide
       orientation="1,0"
       position="128,54.082119"
       id="guide2387" />
    <sodipodi:guide
       orientation="0,1"
       position="78.156291,0"
       id="guide2389" />
    <sodipodi:guide
       orientation="0,1"
       position="60.863576,64.084768"
       id="guide2391" />
    <inkscape:grid
       type="xygrid"
       id="grid3672"
       visible="true"
       enabled="true"
       empspacing="8"
       snapvisiblegridlinesonly="true" />
  </sodipodi:namedview>
  <metadata
     id="metadata7">
    <rdf:RDF>
      <cc:Work
         rdf:about="">
        <dc:format>image/svg+xml</dc:format>
        <dc:type
           rdf:resource="http://purl.org/dc/dcmitype/StillImage" />
        <dc:title />
      </cc:Work>
    </rdf:RDF>
  </metadata>
  <g
     inkscape:label="Button"
     inkscape:groupmode="layer"
     id="layer1"
     style="display:inline"
     transform="translate(0,2)"
     sodipodi:insensitive="true">
    <g
       style="display:inline"
       id="g3337"
       transform="translate(1,-1)">
      <rect
         ry="2.5"
         rx="2.5"
         y="0.5"
         x="0.5"
         height="21.5"
         width="21"
         id="rect3371"
         style="opacity:0.3;fill:url(#linearGradient3335);fill-opacity:1;stroke:none;display:inline" />
      <rect
         style="opacity:0.5;fill:#000000;fill-opacity:1;stroke:none;display:inline"
         id="rect2553"
         width="20"
         height="20"
         x="1"
         y="2"
         rx="2.3809524"
         ry="2.3255813" />
    </g>
    <path
       style="fill:url(#linearGradient3261);fill-opacity:1;fill-rule:evenodd;stroke:none"
       d="M 4,0 C 2.892,0 2,0.892 2,2 l 0,16 c 0,1.108 0.892,2 2,2 l 16,0 c 1.108,0 2,-0.892 2,-2 L 22,2 C 22,0.892 21.108,0 20,0 L 4,0 z M 3,1 4,1 4,2 3,2 3,1 z m 17,0 1,0 0,1 -1,0 0,-1 z M 3,3 4,3 4,4 3,4 3,3 z m 17,0 1,0 0,1 -1,0 0,-1 z M 3,5 4,5 4,6 3,6 3,5 z m 17,0 1,0 0,1 -1,0 0,-1 z M 3,7 4,7 4,8 3,8 3,7 z m 17,0 1,0 0,1 -1,0 0,-1 z M 3,9 4,9 4,10 3,10 3,9 z m 17,0 1,0 0,1 -1,0 0,-1 z m -17,2 1,0 0,1 -1,0 0,-1 z m 17,0 1,0 0,1 -1,0 0,-1 z m -17,2 1,0 0,1 -1,0 0,-1 z m 17,0 1,0 0,1 -1,0 0,-1 z m -17,2 1,0 0,1 -1,0 0,-1 z m 17,0 1,0 0,1 -1,0 0,-1 z m -17,2 1,0 0,1 -1,0 0,-1 z m 17,0 1,0 0,1 -1,0 0,-1 z"
       id="rect2449"
       inkscape:connector-curvature="0" />
    <path
       id="rect3313"
       style="opacity:0.5;fill:#ffffff;fill-opacity:1;fill-rule:evenodd;stroke:none"
       d="m 3,17 1,0 0,1 -1,0 0,-1 z m 0,-2 1,0 0,1 -1,0 0,-1 z m 0,-2 1,0 0,1 -1,0 0,-1 z m 0,-2 1,0 0,1 -1,0 0,-1 z M 3,9 4,9 4,10 3,10 3,9 z M 3,7 4,7 4,8 3,8 3,7 z M 3,5 4,5 4,6 3,6 3,5 z M 3,3 4,3 4,4 3,4 3,3 z M 3,1 4,1 4,2 3,2 3,1 z m 17,16 1,0 0,1 -1,0 0,-1 z m 0,-2 1,0 0,1 -1,0 0,-1 z m 0,-2 1,0 0,1 -1,0 0,-1 z m 0,-2 1,0 0,1 -1,0 0,-1 z m 0,-2 1,0 0,1 -1,0 0,-1 z m 0,-2 1,0 0,1 -1,0 0,-1 z m 0,-2 1,0 0,1 -1,0 0,-1 z m 0,-2 1,0 0,1 -1,0 0,-1 z m 0,-2 1,0 0,1 -1,0 0,-1 z"
       inkscape:connector-curvature="0" />
  </g>
  <g
     inkscape:groupmode="layer"
     id="layer3"
     inkscape:label="Film"
     style="display:inline"
     transform="translate(0,2)"
     sodipodi:insensitive="true">
    <path
       style="fill:url(#radialGradient3692);fill-opacity:1;fill-rule:evenodd;stroke:none"
       d="M 5.3333334,4.0462291 C 5.1486667,4.0462291 5,4.1948958 5,4.3795625 L 5,15.704653 c 0,0.184667 0.1486667,0.333333 0.3333334,0.333333 l 13.3333356,0 c 0.184667,0 0.333334,-0.148666 0.333334,-0.333333 l 0,-11.3250905 c 0,-0.1846667 -0.148667,-0.3333334 -0.333334,-0.3333334 l -13.3333356,0 z"
       id="path3343"
       sodipodi:nodetypes="ccccccccc"
       inkscape:connector-curvature="0" />
    <path
       style="fill:url(#radialGradient3701);fill-opacity:1;fill-rule:evenodd;stroke:none"
       d="M 5,0 5,2.65625 C 5,2.840917 5.1590833,3 5.34375,3 l 13.3125,0 C 18.840917,3 19,2.840917 19,2.65625 L 19,0 5,0 z"
       id="path3487"
       inkscape:connector-curvature="0" />
    <path
       style="fill:url(#radialGradient3710);fill-opacity:1;fill-rule:evenodd;stroke:none"
       d="M 5.34375,17 C 5.1590833,17 5,17.159084 5,17.34375 L 5,20 19,20 19,17.34375 C 19,17.159083 18.840917,17 18.65625,17 l -13.3125,0 z"
       id="path3503"
       inkscape:connector-curvature="0" />
    <path
       style="fill:#ffffff;stroke:none"
       d="m 10,7 0,6 5,-3 -5,-3 z"
       id="path3726"
       inkscape:connector-curvature="0" />
  </g>
  <g
     inkscape:groupmode="layer"
     id="layer5"
     inkscape:label="Film Shadow"
     style="display:inline"
     transform="translate(0,2)">
    <path
       style="opacity:0.2;fill:url(#linearGradient3745);fill-opacity:1;fill-rule:evenodd;stroke:none;display:inline"
       d="M 4,0 C 2.892,0 2,0.892 2,2 L 2,12.84375 C 2.345624,12.551064 2.71071,12.271104 3.09375,12 L 3,12 3,11 4,11 4,11.40625 C 7.400168,9.30216 11.963683,8 17,8 c 1.729338,0 3.407768,0.152703 5,0.4375 L 22,2 C 22,0.892 21.108,0 20,0 L 4,0 z M 3,1 4,1 4,2 3,2 3,1 z m 17,0 1,0 0,1 -1,0 0,-1 z M 3,3 4,3 4,4 3,4 3,3 z m 17,0 1,0 0,1 -1,0 0,-1 z M 3,5 4,5 4,6 3,6 3,5 z m 17,0 1,0 0,1 -1,0 0,-1 z M 3,7 4,7 4,8 3,8 3,7 z m 17,0 1,0 0,1 -1,0 0,-1 z M 3,9 4,9 4,10 3,10 3,9 z"
       id="path3728"
       inkscape:connector-curvature="0" />
    <path
       style="opacity:0.25;fill:url(#linearGradient3859);fill-opacity:1;fill-rule:evenodd;stroke:none;display:inline"
       d="M 4,0 C 2.892,0 2,0.892 2,2 l 0,16 c 0,1.108 0.892,2 2,2 l 16,0 c 1.108,0 2,-0.892 2,-2 L 22,2 C 22,0.892 21.108,0 20,0 L 4,0 z m 0,1.03125 16,0 c 0.5497,0 0.96875,0.4190495 0.96875,0.96875 l 0,16 c 0,0.5497 -0.41905,0.96875 -0.96875,0.96875 l -16,0 C 3.4502995,18.96875 3.03125,18.5497 3.03125,18 l 0,-16 C 3.03125,1.4502995 3.4502995,1.03125 4,1.03125 z"
       id="rect3050"
       inkscape:connector-curvature="0" />
    <path
       id="path3235"
       d="M 4,20 C 2.892,20 2,19.108 2,18 l 0,-1 c 0,1.108 0.892,2 2,2 l 16,0 c 1.108,0 2,-0.892 2,-2 l 0,1 c 0,1.108 -0.892,2 -2,2 L 4,20 z"
       style="opacity:0.15;fill:url(#linearGradient3845);fill-opacity:1;fill-rule:evenodd;stroke:none;display:inline"
       inkscape:connector-curvature="0" />
  </g>
</svg>
