<?xml version="1.0" encoding="UTF-8" standalone="no"?>
<!-- Created with Inkscape (http://www.inkscape.org/) -->

<svg
   xmlns:dc="http://purl.org/dc/elements/1.1/"
   xmlns:cc="http://creativecommons.org/ns#"
   xmlns:rdf="http://www.w3.org/1999/02/22-rdf-syntax-ns#"
   xmlns:svg="http://www.w3.org/2000/svg"
   xmlns="http://www.w3.org/2000/svg"
   xmlns:xlink="http://www.w3.org/1999/xlink"
   xmlns:sodipodi="http://sodipodi.sourceforge.net/DTD/sodipodi-0.dtd"
   xmlns:inkscape="http://www.inkscape.org/namespaces/inkscape"
   width="96"
   height="96"
   id="svg2408"
   sodipodi:version="0.32"
   inkscape:version="0.47 r22583"
   version="1.0"
   sodipodi:docname="preferences-desktop-accessibility.svg"
   inkscape:output_extension="org.inkscape.output.svg.inkscape">
  <defs
     id="defs2410">
    <linearGradient
       id="ButtonColor">
      <stop
         style="stop-color:#1d5282;stop-opacity:1;"
         offset="0"
         id="stop3189" />
      <stop
         style="stop-color:#568ec2;stop-opacity:1;"
         offset="1"
         id="stop3191" />
    </linearGradient>
    <linearGradient
       id="ButtonShadow"
       gradientTransform="scale(1.0058652,0.994169)"
       x1="45.447727"
       y1="92.539597"
       x2="45.447727"
       y2="7.0165396"
       gradientUnits="userSpaceOnUse">
      <stop
         style="stop-color:#000000;stop-opacity:1;"
         offset="0"
         id="stop3750" />
      <stop
         style="stop-color:#000000;stop-opacity:0.58823532;"
         offset="1"
         id="stop3752" />
    </linearGradient>
    <linearGradient
       inkscape:collect="always"
       id="linearGradient3737">
      <stop
         style="stop-color:#ffffff;stop-opacity:1;"
         offset="0"
         id="stop3739" />
      <stop
         style="stop-color:#ffffff;stop-opacity:0;"
         offset="1"
         id="stop3741" />
    </linearGradient>
    <linearGradient
       id="linearGradient3700">
      <stop
         style="stop-color:#2276c5;stop-opacity:1;"
         offset="0"
         id="stop3702" />
      <stop
         style="stop-color:#69a9e6;stop-opacity:1;"
         offset="1"
         id="stop3704" />
    </linearGradient>
    <inkscape:perspective
       sodipodi:type="inkscape:persp3d"
       inkscape:vp_x="0 : 526.18109 : 1"
       inkscape:vp_y="0 : 1000 : 0"
       inkscape:vp_z="744.09448 : 526.18109 : 1"
       inkscape:persp3d-origin="372.04724 : 350.78739 : 1"
       id="perspective2416" />
    <linearGradient
       inkscape:collect="always"
       xlink:href="#ButtonColor"
       id="linearGradient3706"
       x1="48"
       y1="90"
       x2="48"
       y2="5.9877172"
       gradientUnits="userSpaceOnUse" />
    <linearGradient
       inkscape:collect="always"
       xlink:href="#linearGradient3737"
       id="linearGradient3743"
       x1="36.357143"
       y1="6"
       x2="36.357143"
       y2="63.893143"
       gradientUnits="userSpaceOnUse"
       gradientTransform="translate(-100,0)" />
    <filter
       inkscape:collect="always"
       id="filter3218">
      <feGaussianBlur
         inkscape:collect="always"
         stdDeviation="1.71"
         id="feGaussianBlur3220" />
    </filter>
    <linearGradient
       inkscape:collect="always"
       xlink:href="#linearGradient3737"
       id="linearGradient3230"
       gradientUnits="userSpaceOnUse"
       gradientTransform="translate(-100,0)"
       x1="124.39286"
       y1="6"
       x2="124.39286"
       y2="63.606895" />
    <inkscape:perspective
       id="perspective2865"
       inkscape:persp3d-origin="0.5 : 0.33333333 : 1"
       inkscape:vp_z="1 : 0.5 : 1"
       inkscape:vp_y="0 : 1000 : 0"
       inkscape:vp_x="0 : 0.5 : 1"
       sodipodi:type="inkscape:persp3d" />
    <radialGradient
       inkscape:collect="always"
       xlink:href="#linearGradient3737-6"
       id="radialGradient3619"
       cx="48"
       cy="90.171875"
       fx="48"
       fy="90.171875"
       r="42"
       gradientTransform="matrix(1.1573129,0,0,0.99590774,-7.5510206,0.19713193)"
       gradientUnits="userSpaceOnUse" />
    <linearGradient
       inkscape:collect="always"
       id="linearGradient3737-6">
      <stop
         style="stop-color:#ffffff;stop-opacity:1;"
         offset="0"
         id="stop3739-6" />
      <stop
         style="stop-color:#ffffff;stop-opacity:0;"
         offset="1"
         id="stop3741-4" />
    </linearGradient>
    <radialGradient
       r="42"
       fy="90.171875"
       fx="48"
       cy="90.171875"
       cx="48"
       gradientTransform="matrix(1.1573129,0,0,0.99590774,-7.551021,0.1971319)"
       gradientUnits="userSpaceOnUse"
       id="radialGradient2874"
       xlink:href="#linearGradient3737-6"
       inkscape:collect="always" />
    <linearGradient
       inkscape:collect="always"
       xlink:href="#ButtonColor"
       id="linearGradient3625"
       gradientUnits="userSpaceOnUse"
       x1="48"
       y1="90"
       x2="48"
       y2="5.9877172"
       gradientTransform="translate(-90,0)" />
    <linearGradient
       inkscape:collect="always"
       xlink:href="#linearGradient3737"
       id="linearGradient3627"
       gradientUnits="userSpaceOnUse"
       gradientTransform="translate(-190,0)"
       x1="124.39286"
       y1="6"
       x2="124.39286"
       y2="63.606895" />
    <inkscape:perspective
       id="perspective2895"
       inkscape:persp3d-origin="0.5 : 0.33333333 : 1"
       inkscape:vp_z="1 : 0.5 : 1"
       inkscape:vp_y="0 : 1000 : 0"
       inkscape:vp_x="0 : 0.5 : 1"
       sodipodi:type="inkscape:persp3d" />
    <linearGradient
       inkscape:collect="always"
       xlink:href="#linearGradient3737-2"
       id="linearGradient3613"
       x1="48"
       y1="20.220806"
       x2="48"
       y2="138.66119"
       gradientUnits="userSpaceOnUse" />
    <linearGradient
       inkscape:collect="always"
       id="linearGradient3737-2">
      <stop
         style="stop-color:#ffffff;stop-opacity:1;"
         offset="0"
         id="stop3739-5" />
      <stop
         style="stop-color:#ffffff;stop-opacity:0;"
         offset="1"
         id="stop3741-8" />
    </linearGradient>
    <clipPath
       clipPathUnits="userSpaceOnUse"
       id="clipPath3613">
      <rect
         ry="6"
         rx="6"
         y="6"
         x="6"
         height="84"
         width="84"
         id="rect3615"
         style="fill:#ffffff;fill-opacity:1;fill-rule:nonzero;stroke:none" />
    </clipPath>
    <filter
       color-interpolation-filters="sRGB"
       inkscape:collect="always"
       id="filter3794"
       x="-0.192"
       width="1.3839999"
       y="-0.192"
       height="1.3839999">
      <feGaussianBlur
         inkscape:collect="always"
         stdDeviation="5.28"
         id="feGaussianBlur3796" />
    </filter>
    <linearGradient
       y2="138.66119"
       x2="48"
       y1="20.220806"
       x1="48"
       gradientUnits="userSpaceOnUse"
       id="linearGradient2908"
       xlink:href="#linearGradient3737-2"
       inkscape:collect="always" />
    <inkscape:perspective
       id="perspective3030"
       inkscape:persp3d-origin="0.5 : 0.33333333 : 1"
       inkscape:vp_z="1 : 0.5 : 1"
       inkscape:vp_y="0 : 1000 : 0"
       inkscape:vp_x="0 : 0.5 : 1"
       sodipodi:type="inkscape:persp3d" />
    <linearGradient
       y2="90.238609"
       x2="32.251034"
       y1="6.1317081"
       x1="32.251034"
       gradientTransform="matrix(1.0238095,0,0,1.0119048,-1.1428571,-98.071429)"
       gradientUnits="userSpaceOnUse"
       id="linearGradient3026"
       xlink:href="#ButtonShadow-0"
       inkscape:collect="always" />
    <linearGradient
       id="ButtonShadow-0"
       gradientTransform="matrix(1.0058652,0,0,0.994169,100,0)"
       x1="45.447727"
       y1="92.539597"
       x2="45.447727"
       y2="7.0165396"
       gradientUnits="userSpaceOnUse">
      <stop
         style="stop-color:#000000;stop-opacity:1;"
         offset="0"
         id="stop3750-8" />
      <stop
         style="stop-color:#000000;stop-opacity:0.58823532;"
         offset="1"
         id="stop3752-5" />
    </linearGradient>
    <linearGradient
       inkscape:collect="always"
       xlink:href="#ButtonShadow-0"
       id="linearGradient3780"
       gradientUnits="userSpaceOnUse"
       gradientTransform="matrix(1.0238095,0,0,1.0119048,-1.1428571,-98.071429)"
       x1="32.251034"
       y1="6.1317081"
       x2="32.251034"
       y2="90.238609" />
    <linearGradient
       id="linearGradient3039"
       gradientTransform="matrix(1.0058652,0,0,0.994169,100,0)"
       x1="45.447727"
       y1="92.539597"
       x2="45.447727"
       y2="7.0165396"
       gradientUnits="userSpaceOnUse">
      <stop
         style="stop-color:#000000;stop-opacity:1;"
         offset="0"
         id="stop3041" />
      <stop
         style="stop-color:#000000;stop-opacity:0.58823532;"
         offset="1"
         id="stop3043" />
    </linearGradient>
    <linearGradient
       inkscape:collect="always"
       xlink:href="#ButtonShadow-0"
       id="linearGradient3772"
       gradientUnits="userSpaceOnUse"
       gradientTransform="matrix(1.0238095,0,0,1.0119048,-1.1428571,-98.071429)"
       x1="32.251034"
       y1="6.1317081"
       x2="32.251034"
       y2="90.238609" />
    <linearGradient
       id="linearGradient3046"
       gradientTransform="matrix(1.0058652,0,0,0.994169,100,0)"
       x1="45.447727"
       y1="92.539597"
       x2="45.447727"
       y2="7.0165396"
       gradientUnits="userSpaceOnUse">
      <stop
         style="stop-color:#000000;stop-opacity:1;"
         offset="0"
         id="stop3048" />
      <stop
         style="stop-color:#000000;stop-opacity:0.58823532;"
         offset="1"
         id="stop3050" />
    </linearGradient>
    <linearGradient
       inkscape:collect="always"
       xlink:href="#ButtonShadow-0"
       id="linearGradient3725"
       gradientUnits="userSpaceOnUse"
       gradientTransform="matrix(1.0238095,0,0,1.0119048,-1.1428571,-98.071429)"
       x1="32.251034"
       y1="6.1317081"
       x2="32.251034"
       y2="90.238609" />
    <linearGradient
       id="linearGradient3053"
       gradientTransform="matrix(1.0058652,0,0,0.994169,100,0)"
       x1="45.447727"
       y1="92.539597"
       x2="45.447727"
       y2="7.0165396"
       gradientUnits="userSpaceOnUse">
      <stop
         style="stop-color:#000000;stop-opacity:1;"
         offset="0"
         id="stop3055" />
      <stop
         style="stop-color:#000000;stop-opacity:0.58823532;"
         offset="1"
         id="stop3057" />
    </linearGradient>
    <linearGradient
       inkscape:collect="always"
       xlink:href="#ButtonShadow-0"
       id="linearGradient3721"
       gradientUnits="userSpaceOnUse"
       gradientTransform="translate(0,-97)"
       x1="32.251034"
       y1="6.1317081"
       x2="32.251034"
       y2="90.238609" />
    <linearGradient
       id="linearGradient3060"
       gradientTransform="matrix(1.0058652,0,0,0.994169,100,0)"
       x1="45.447727"
       y1="92.539597"
       x2="45.447727"
       y2="7.0165396"
       gradientUnits="userSpaceOnUse">
      <stop
         style="stop-color:#000000;stop-opacity:1;"
         offset="0"
         id="stop3062" />
      <stop
         style="stop-color:#000000;stop-opacity:0.58823532;"
         offset="1"
         id="stop3064" />
    </linearGradient>
    <linearGradient
       y2="90.238609"
       x2="32.251034"
       y1="6.1317081"
       x1="32.251034"
       gradientTransform="matrix(1.0238095,0,0,1.0119048,-1.1428571,-98.071429)"
       gradientUnits="userSpaceOnUse"
       id="linearGradient3071"
       xlink:href="#ButtonShadow-0"
       inkscape:collect="always" />
  </defs>
  <sodipodi:namedview
     id="base"
     pagecolor="#ffffff"
     bordercolor="#666666"
     borderopacity="1.0"
     inkscape:pageopacity="0.0"
     inkscape:pageshadow="2"
     inkscape:zoom="6.4665868"
     inkscape:cx="3.1817033"
     inkscape:cy="59.533581"
     inkscape:document-units="px"
     inkscape:current-layer="layer1"
     showgrid="true"
     showborder="true"
     inkscape:showpageshadow="false"
     inkscape:window-width="1920"
     inkscape:window-height="1023"
     inkscape:window-x="0"
     inkscape:window-y="24"
     inkscape:window-maximized="1">
    <inkscape:grid
       type="xygrid"
       id="grid3732"
       visible="true"
       enabled="true" />
  </sodipodi:namedview>
  <metadata
     id="metadata2413">
    <rdf:RDF>
      <cc:Work
         rdf:about="">
        <dc:format>image/svg+xml</dc:format>
        <dc:type
           rdf:resource="http://purl.org/dc/dcmitype/StillImage" />
      </cc:Work>
    </rdf:RDF>
  </metadata>
  <g
     inkscape:groupmode="layer"
     id="layer2"
     inkscape:label="Blur Shadow"
     style="display:none"
     sodipodi:insensitive="true">
    <rect
       style="opacity:0.9;fill:url(#ButtonShadow);fill-opacity:1;fill-rule:nonzero;stroke:none;filter:url(#filter3218)"
       id="rect3745"
       width="86"
       height="85"
       x="5"
       y="7"
       rx="7"
       ry="7" />
  </g>
  <g
     inkscape:groupmode="layer"
     id="layer5"
     inkscape:label="Shadow"
     style="display:inline"
     sodipodi:insensitive="true">
    <path
       sodipodi:type="inkscape:offset"
       inkscape:radius="0.99097413"
       inkscape:original="M 12 -94.03125 C 7.028367 -94.03125 2.96875 -89.971633 2.96875 -85 L 2.96875 -14 C 2.96875 -9.0283671 7.0283671 -4.96875 12 -4.96875 L 84 -4.96875 C 88.971633 -4.96875 93.03125 -9.028367 93.03125 -14 L 93.03125 -85 C 93.03125 -89.971633 88.971633 -94.03125 84 -94.03125 L 12 -94.03125 z "
       style="opacity:0.07999998;fill:url(#linearGradient3071);fill-opacity:1;fill-rule:nonzero;stroke:none;display:inline"
       id="path3786"
       d="m 12,-95.03125 c -5.5110903,0 -10.03125,4.52016 -10.03125,10.03125 l 0,71 c 0,5.5110902 4.5201598,10.03125 10.03125,10.03125 l 72,0 c 5.51109,0 10.03125,-4.5201597 10.03125,-10.03125 l 0,-71 c 0,-5.51109 -4.52016,-10.03125 -10.03125,-10.03125 l -72,0 z"
       transform="scale(1,-1)" />
    <path
       sodipodi:type="inkscape:offset"
       inkscape:radius="1.0360184"
       inkscape:original="M 12 -93 C 7.5908667 -93 4 -89.409133 4 -85 L 4 -14 C 4 -9.5908667 7.5908667 -6 12 -6 L 84 -6 C 88.409133 -6 92 -9.5908667 92 -14 L 92 -85 C 92 -89.409133 88.409133 -93 84 -93 L 12 -93 z "
       style="opacity:0.1;fill:url(#linearGradient3780);fill-opacity:1;fill-rule:nonzero;stroke:none;display:inline"
       id="path3778"
       d="m 12,-94.03125 c -4.971633,0 -9.03125,4.059617 -9.03125,9.03125 l 0,71 c 0,4.9716329 4.0596171,9.03125 9.03125,9.03125 l 72,0 c 4.971633,0 9.03125,-4.059617 9.03125,-9.03125 l 0,-71 c 0,-4.971633 -4.059617,-9.03125 -9.03125,-9.03125 l -72,0 z"
       transform="scale(1,-1)" />
    <path
       sodipodi:type="inkscape:offset"
       inkscape:radius="0.98962283"
       inkscape:original="M 12 -92 C 8.122 -92 5 -88.878 5 -85 L 5 -14 C 5 -10.122 8.122 -7 12 -7 L 84 -7 C 87.878 -7 91 -10.122 91 -14 L 91 -85 C 91 -88.878 87.878 -92 84 -92 L 12 -92 z "
       style="opacity:0.2;fill:url(#linearGradient3772);fill-opacity:1;fill-rule:nonzero;stroke:none;display:inline"
       id="path3770"
       d="m 12,-93 c -4.4091333,0 -8,3.590867 -8,8 l 0,71 c 0,4.4091333 3.5908667,8 8,8 l 72,0 c 4.409133,0 8,-3.5908667 8,-8 l 0,-71 c 0,-4.409133 -3.590867,-8 -8,-8 l -72,0 z"
       transform="scale(1,-1)" />
    <rect
       style="opacity:0.3;fill:url(#linearGradient3725);fill-opacity:1;fill-rule:nonzero;stroke:none;display:inline"
       id="rect3723"
       width="86"
       height="85"
       x="5"
       y="-92"
       rx="7"
       ry="7"
       transform="scale(1,-1)" />
    <rect
       transform="scale(1,-1)"
       ry="6"
       rx="6"
       y="-91"
       x="6"
       height="84"
       width="84"
       id="rect3716"
       style="opacity:0.45;fill:url(#linearGradient3721);fill-opacity:1;fill-rule:nonzero;stroke:none;display:inline" />
  </g>
  <g
     inkscape:label="Button"
     inkscape:groupmode="layer"
     id="layer1">
    <rect
       style="fill:url(#linearGradient3706);fill-opacity:1;fill-rule:nonzero;stroke:none"
       id="rect2419"
       width="84"
       height="84"
       x="6"
       y="6"
       rx="6"
       ry="6" />
    <path
       style="opacity:0.7;fill:#ffffff;fill-opacity:1;fill-rule:nonzero;stroke:none"
       d="M 12,6 C 8.676,6 6,8.676 6,12 l 0,2 0,68 0,2 c 0,3.324 2.676,6 6,6 l 2,0 68,0 2,0 c 3.324,0 6,-2.676 6,-6 l 0,-2 0,-68 0,-2 C 90,8.676 87.324,6 84,6 L 82,6 14,6 12,6 z m 4,6 64,0 c 2.216,0 4,1.784 4,4 l 0,64 c 0,2.216 -1.784,4 -4,4 l -64,0 c -2.216,0 -4,-1.784 -4,-4 l 0,-64 c 0,-2.216 1.784,-4 4,-4 z"
       id="rect3312" />
    <path
       style="opacity:0.5;fill:url(#linearGradient3230);fill-opacity:1;fill-rule:nonzero;stroke:none"
       d="M 12,6 C 8.676,6 6,8.676 6,12 l 0,72 c 0,2.677766 1.7440348,4.881826 4.15625,5.65625 C 8.2956908,88.928428 7,87.129852 7,85 L 7,13 C 7,10.218152 9.2181517,8 12,8 l 72,0 c 2.781848,0 5,2.218152 5,5 l 0,72 c 0,2.129852 -1.295691,3.928428 -3.15625,4.65625 C 88.255965,88.881826 90,86.677766 90,84 L 90,12 C 90,8.676 87.324,6 84,6 L 12,6 z"
       id="rect3728"
       sodipodi:nodetypes="ccccccccccccccc" />
    <path
       id="path3615"
       d="M 12,90 C 8.676,90 6,87.324 6,84 L 6,82 6,14 6,12 c 0,-0.334721 0.04135,-0.6507 0.09375,-0.96875 0.0487,-0.295596 0.09704,-0.596915 0.1875,-0.875 C 6.29113,10.12587 6.302142,10.09265 6.3125,10.0625 6.411365,9.774729 6.5473802,9.515048 6.6875,9.25 6.8320918,8.976493 7.0031161,8.714385 7.1875,8.46875 7.3718839,8.223115 7.5612765,7.995278 7.78125,7.78125 8.221197,7.353194 8.72416,6.966724 9.28125,6.6875 9.559795,6.547888 9.8547231,6.440553 10.15625,6.34375 9.9000482,6.443972 9.6695391,6.580022 9.4375,6.71875 c -0.00741,0.0044 -0.023866,-0.0045 -0.03125,0 -0.031933,0.0193 -0.062293,0.04251 -0.09375,0.0625 -0.120395,0.0767 -0.2310226,0.163513 -0.34375,0.25 -0.1061728,0.0808 -0.2132809,0.161112 -0.3125,0.25 C 8.4783201,7.442683 8.3087904,7.626638 8.15625,7.8125 8.0486711,7.942755 7.9378561,8.077785 7.84375,8.21875 7.818661,8.25713 7.805304,8.30462 7.78125,8.34375 7.716487,8.446782 7.6510225,8.548267 7.59375,8.65625 7.4927417,8.850956 7.3880752,9.071951 7.3125,9.28125 7.30454,9.30306 7.288911,9.3218 7.28125,9.34375 7.2494249,9.4357 7.2454455,9.530581 7.21875,9.625 7.1884177,9.731618 7.1483606,9.828031 7.125,9.9375 7.0521214,10.279012 7,10.635705 7,11 l 0,2 0,68 0,2 c 0,2.781848 2.2181517,5 5,5 l 2,0 68,0 2,0 c 2.781848,0 5,-2.218152 5,-5 l 0,-2 0,-68 0,-2 C 89,10.635705 88.94788,10.279012 88.875,9.9375 88.83085,9.730607 88.78662,9.539842 88.71875,9.34375 88.71105,9.3218 88.69545,9.30306 88.6875,9.28125 88.62476,9.107511 88.549117,8.913801 88.46875,8.75 88.42717,8.6672 88.38971,8.580046 88.34375,8.5 88.28915,8.40279 88.216976,8.31165 88.15625,8.21875 88.06214,8.077785 87.951329,7.942755 87.84375,7.8125 87.700576,7.63805 87.540609,7.465502 87.375,7.3125 87.36383,7.3023 87.35502,7.29135 87.34375,7.28125 87.205364,7.155694 87.058659,7.046814 86.90625,6.9375 86.803679,6.86435 86.701932,6.784136 86.59375,6.71875 c -0.0074,-0.0045 -0.02384,0.0044 -0.03125,0 -0.232039,-0.138728 -0.462548,-0.274778 -0.71875,-0.375 0.301527,0.0968 0.596455,0.204138 0.875,0.34375 0.55709,0.279224 1.060053,0.665694 1.5,1.09375 0.219973,0.214028 0.409366,0.441865 0.59375,0.6875 0.184384,0.245635 0.355408,0.507743 0.5,0.78125 0.14012,0.265048 0.276135,0.524729 0.375,0.8125 0.01041,0.03078 0.02133,0.06274 0.03125,0.09375 0.09046,0.278085 0.1388,0.579404 0.1875,0.875 C 89.95865,11.3493 90,11.665279 90,12 l 0,2 0,68 0,2 c 0,3.324 -2.676,6 -6,6 l -72,0 z"
       style="opacity:0.4;fill:url(#radialGradient2874);fill-opacity:1;fill-rule:nonzero;stroke:none" />
    <g
       id="g3716"
       transform="translate(100,0)">
      <path
         id="path3703"
         d="m -84,12 c -2.216,0 -4,1.784 -4,4 l 0,64 c 0,2.216 1.784,4 4,4 l 64,0 c 2.216,0 4,-1.784 4,-4 l 0,-64 c 0,-2.216 -1.784,-4 -4,-4 l -64,0 z m 0,3.03125 64,0 c 0.587885,0 0.96875,0.380865 0.96875,0.96875 l 0,64 c 0,0.587885 -0.380865,0.96875 -0.96875,0.96875 l -64,0 c -0.587885,0 -0.96875,-0.380865 -0.96875,-0.96875 l 0,-64 c 0,-0.587885 0.380865,-0.96875 0.96875,-0.96875 z"
         style="opacity:0.05;fill:#1a3854;fill-opacity:1;fill-rule:nonzero;stroke:none" />
      <path
         id="path3662"
         d="m -84,12 c -2.216,0 -4,1.784 -4,4 l 0,64 c 0,2.216 1.784,4 4,4 l 64,0 c 2.216,0 4,-1.784 4,-4 l 0,-64 c 0,-2.216 -1.784,-4 -4,-4 l -64,0 z m 0,1.9375 64,0 c 1.172336,0 2.0625,0.890164 2.0625,2.0625 l 0,64 c 0,1.172336 -0.890164,2.0625 -2.0625,2.0625 l -64,0 c -1.172336,0 -2.0625,-0.890164 -2.0625,-2.0625 l 0,-64 c 0,-1.172336 0.890164,-2.0625 2.0625,-2.0625 z"
         style="opacity:0.1;fill:#1a3854;fill-opacity:1;fill-rule:nonzero;stroke:none" />
      <path
         id="path3636"
         d="m -84,12 c -2.216,0 -4,1.784 -4,4 l 0,64 c 0,2.216 1.784,4 4,4 l 64,0 c 2.216,0 4,-1.784 4,-4 l 0,-64 c 0,-2.216 -1.784,-4 -4,-4 l -64,0 z m 0,1.03125 64,0 c 1.664921,0 2.96875,1.303829 2.96875,2.96875 l 0,64 c 0,1.664921 -1.303829,2.96875 -2.96875,2.96875 l -64,0 c -1.664921,0 -2.96875,-1.303829 -2.96875,-2.96875 l 0,-64 c 0,-1.664921 1.303829,-2.96875 2.96875,-2.96875 z"
         clip-path="none"
         style="opacity:0.22000002;fill:#1a3854;fill-opacity:1;fill-rule:nonzero;stroke:none" />
    </g>
  </g>
  <g
     inkscape:groupmode="layer"
     id="layer3"
     inkscape:label="Highlight"
     sodipodi:insensitive="true">
    <rect
       style="opacity:0.1;fill:url(#linearGradient2908);fill-opacity:1;fill-rule:nonzero;stroke:#ffffff;stroke-width:0.5;stroke-linecap:round;stroke-linejoin:miter;stroke-miterlimit:4;stroke-opacity:1;stroke-dasharray:none;stroke-dashoffset:0;filter:url(#filter3794)"
       id="rect3171"
       width="66"
       height="66"
       x="15"
       y="15"
       rx="12"
       ry="12"
       clip-path="url(#clipPath3613)" />
  </g>
  <g
     inkscape:groupmode="layer"
     id="layer4"
     inkscape:label="Symbol"
     sodipodi:insensitive="true">
    <path
       sodipodi:type="inkscape:offset"
       inkscape:radius="0.89285713"
       inkscape:original="M 48.28125 20.03125 C 44.278336 20.03125 41.0625 23.35059 41.0625 27.40625 C 41.0625 31.461906 44.278335 34.78125 48.28125 34.78125 C 52.284164 34.78125 55.53125 31.467687 55.53125 27.40625 C 55.53125 23.344809 52.284163 20.03125 48.28125 20.03125 z M 25.6875 33.125 C 25.254798 33.118069 24.789561 33.202342 24.3125 33.4375 C 23.313738 33.929811 22.763224 34.934297 22.75 36 C 22.737418 37.103432 23.400015 38.007083 24.28125 38.46875 A 0.98224108 0.98224108 0 0 0 24.4375 38.53125 L 40.46875 43.71875 L 40.375 55.21875 L 34.5 73.75 L 34.5625 73.78125 C 33.905774 75.010589 34.173709 76.576878 35.375 77.375 C 36.651268 78.223037 38.449239 77.993402 39.34375 76.65625 A 0.98224108 0.98224108 0 0 0 39.40625 76.53125 L 48 58.3125 L 56.4375 76.46875 A 0.98224108 0.98224108 0 0 0 56.5 76.5625 C 57.273622 77.911829 59.024019 78.363146 60.375 77.59375 C 61.638236 76.87429 62.026733 75.302544 61.4375 74 L 61.5 73.96875 L 55.75 55.375 L 55.71875 44.03125 L 71.78125 38.46875 A 0.98224108 0.98224108 0 0 0 72.03125 38.34375 C 73.079177 37.611337 73.526651 36.25073 73.0625 35.03125 C 72.601162 33.819078 71.360492 33.106041 70.09375 33.25 A 0.98224108 0.98224108 0 0 0 70.0625 33.25 C 69.670242 33.315003 69.406929 33.405994 69.21875 33.4375 L 48 37 L 26.84375 33.28125 C 26.510237 33.222764 26.120202 33.131931 25.6875 33.125 z "
       style="opacity:0.07999998;fill:#000000;fill-opacity:1;stroke:none;display:inline"
       id="path3648"
       d="m 48.28125,19.125 c -4.496504,0 -8.125,3.753611 -8.125,8.28125 0,4.527636 3.628495,8.28125 8.125,8.28125 4.495645,0 8.15625,-3.743925 8.15625,-8.28125 0,-4.537329 -3.660607,-8.28125 -8.15625,-8.28125 z M 25.6875,32.21875 c -0.558833,-0.009 -1.173585,0.106713 -1.78125,0.40625 -1.314056,0.647726 -2.045548,2.008844 -2.0625,3.375 -0.01672,1.466353 0.888741,2.651455 2.03125,3.25 a 0.89294642,0.89294642 0 0 0 0,0.03125 c 0.0023,0.0011 0.153877,0.06155 0.15625,0.0625 0.0019,7.67e-4 0.08679,0.01789 0.125,0.03125 0.0091,0.0032 0.03078,-1.43e-4 0.03125,0 l 15.375,4.96875 -0.09375,10.78125 -5.8125,18.34375 a 0.89294642,0.89294642 0 0 0 -0.03125,0.375 0.89294642,0.89294642 0 0 0 0,0.0625 c -0.53427,1.507816 -0.180462,3.26837 1.25,4.21875 1.66009,1.103073 4.043066,0.788712 5.21875,-0.96875 A 0.89294642,0.89294642 0 0 0 40.125,77.125 c 0.0011,-0.0018 0.06155,-0.123103 0.0625,-0.125 7.25e-4,-0.0015 0.01608,-0.06044 0.03125,-0.09375 0.0047,-0.01025 -1.91e-4,-0.03079 0,-0.03125 L 48,60.4375 55.625,76.84375 a 0.89294642,0.89294642 0 0 0 0.03125,0.0625 c 8.65e-4,0.0015 0.06155,0.09233 0.0625,0.09375 0.01921,0.0335 0.0424,0.0611 0.0625,0.09375 1.047473,1.701447 3.294928,2.270101 5.03125,1.28125 1.511791,-0.861021 2.017422,-2.644384 1.5625,-4.21875 a 0.89294642,0.89294642 0 0 0 0,-0.0625 c -0.003,-0.0097 0.0031,-0.02155 0,-0.03125 a 0.89294642,0.89294642 0 0 0 -0.03125,-0.34375 l -5.6875,-18.34375 0,-0.0625 L 56.625,44.65625 72.0625,39.3125 c 0.002,-6.71e-4 0.123035,-0.03044 0.125,-0.03125 0.002,-8.13e-4 0.123098,-0.06155 0.125,-0.0625 0.0019,-9.51e-4 0.12317,-0.06142 0.125,-0.0625 0.0018,-0.0011 0.092,-0.09254 0.09375,-0.09375 1.37568,-0.961485 1.985553,-2.739622 1.375,-4.34375 -0.596738,-1.567937 -2.187576,-2.452265 -3.8125,-2.3125 l 0,-0.0625 c -9.48e-4,-1.5e-5 -0.0303,-1.5e-5 -0.03125,0 A 0.89294642,0.89294642 0 0 0 70,32.375 a 0.89294642,0.89294642 0 0 0 -0.09375,0 c -0.461258,0.07644 -0.797914,0.179826 -0.84375,0.1875 L 48,36.09375 27,32.40625 c -0.29525,-0.05178 -0.763484,-0.178706 -1.3125,-0.1875 z" />
    <path
       sodipodi:type="inkscape:offset"
       inkscape:radius="0.98214287"
       inkscape:original="M 48.28125 21 C 44.820717 21 42.03125 23.866581 42.03125 27.40625 C 42.03125 30.945915 44.820717 33.8125 48.28125 33.8125 C 51.741782 33.8125 54.5625 30.945915 54.5625 27.40625 C 54.5625 23.866581 51.741782 21 48.28125 21 z M 70.21875 34.21875 C 69.928795 34.2668 69.664558 34.357771 69.375 34.40625 L 48 38 L 26.6875 34.25 C 26.012252 34.131586 25.36521 34.009244 24.75 34.3125 C 24.13479 34.61575 23.727237 35.31605 23.71875 36 C 23.71095 36.684041 24.142437 37.275456 24.75 37.59375 L 41.4375 43 L 41.34375 55.4375 L 35.4375 74.0625 C 34.870301 74.910353 35.05548 75.99726 35.90625 76.5625 C 36.757058 77.127833 37.963989 76.972965 38.53125 76.125 L 48.03125 56 L 57.34375 76.0625 C 57.847954 76.941918 58.992682 77.252488 59.875 76.75 C 60.757318 76.247487 61.066687 75.129424 60.5625 74.25 L 54.78125 55.5625 L 54.75 43.3125 L 71.46875 37.53125 C 72.152548 37.053333 72.452428 36.153159 72.15625 35.375 C 71.860059 34.596754 71.04852 34.124451 70.21875 34.21875 z "
       style="opacity:0.15;fill:#000000;fill-opacity:1;stroke:none;display:inline"
       id="path3644"
       d="m 48.28125,20.03125 c -4.002914,0 -7.21875,3.31934 -7.21875,7.375 0,4.055656 3.215835,7.375 7.21875,7.375 4.002914,0 7.25,-3.313563 7.25,-7.375 0,-4.061441 -3.247087,-7.375 -7.25,-7.375 z M 25.6875,33.125 c -0.432702,-0.0069 -0.897939,0.07734 -1.375,0.3125 -0.998762,0.492311 -1.549276,1.496797 -1.5625,2.5625 -0.01258,1.103432 0.650015,2.007083 1.53125,2.46875 a 0.98224108,0.98224108 0 0 0 0.15625,0.0625 l 16.03125,5.1875 -0.09375,11.5 L 34.5,73.75 l 0.0625,0.03125 c -0.656726,1.229339 -0.388791,2.795628 0.8125,3.59375 1.276268,0.848037 3.074239,0.618402 3.96875,-0.71875 a 0.98224108,0.98224108 0 0 0 0.0625,-0.125 L 48,58.3125 56.4375,76.46875 A 0.98224108,0.98224108 0 0 0 56.5,76.5625 c 0.773622,1.349329 2.524019,1.800646 3.875,1.03125 C 61.638236,76.87429 62.026733,75.302544 61.4375,74 L 61.5,73.96875 55.75,55.375 55.71875,44.03125 l 16.0625,-5.5625 a 0.98224108,0.98224108 0 0 0 0.25,-0.125 c 1.047927,-0.732413 1.495401,-2.09302 1.03125,-3.3125 C 72.601162,33.819078 71.360492,33.106041 70.09375,33.25 a 0.98224108,0.98224108 0 0 0 -0.03125,0 c -0.392258,0.065 -0.655571,0.155994 -0.84375,0.1875 L 48,37 26.84375,33.28125 C 26.510237,33.222764 26.120202,33.131931 25.6875,33.125 z" />
    <path
       sodipodi:nodetypes="cssscczczssccccscccsccccscc"
       d="m 54.565697,27.412443 c 0,3.539665 -2.80855,6.412438 -6.269082,6.412438 -3.460533,0 -6.269083,-2.872773 -6.269083,-6.412438 0,-3.539669 2.80855,-6.412443 6.269083,-6.412443 3.460532,0 6.269082,2.872774 6.269082,6.412443 z m 15.646767,6.818502 c -0.289955,0.04805 -0.536703,0.127774 -0.826261,0.176253 l -21.386862,3.580705 -21.299023,-3.73504 c -0.675248,-0.118414 -1.324667,-0.258556 -1.939877,0.0447 -0.61521,0.30325 -1.018522,1.02201 -1.027009,1.70596 -0.0078,0.684041 0.419446,1.273956 1.027009,1.59225 L 41.450303,43.01134 41.33615,55.44366 35.446971,74.063268 c -0.567199,0.847853 -0.39432,1.936741 0.45645,2.501981 0.850808,0.565333 2.057328,0.393095 2.624589,-0.45487 l 9.503949,-20.098026 9.324548,20.063294 c 0.504204,0.879418 1.628143,1.184904 2.510461,0.682416 0.882318,-0.502513 1.188855,-1.622675 0.684668,-2.502099 l -5.77986,-18.699713 -0.0082,-12.25415 16.704066,-5.772943 c 0.683798,-0.477917 0.980866,-1.382687 0.684688,-2.160846 -0.296191,-0.778246 -1.110151,-1.231666 -1.939921,-1.137367 l 5.5e-5,0 z"
       style="opacity:0.4;fill:#000000;fill-opacity:1;stroke:none;display:inline"
       id="path2868" />
    <path
       id="path6668"
       style="fill:#ffffff;fill-opacity:1;stroke:none;display:inline"
       d="m 54.565697,26.412443 c 0,3.539665 -2.80855,6.412438 -6.269082,6.412438 -3.460533,0 -6.269083,-2.872773 -6.269083,-6.412438 0,-3.539669 2.80855,-6.412443 6.269083,-6.412443 3.460532,0 6.269082,2.872774 6.269082,6.412443 z m 15.646767,6.818502 c -0.289955,0.04805 -0.536703,0.127774 -0.826261,0.176253 l -21.386862,3.580705 -21.299023,-3.73504 c -0.675248,-0.118414 -1.324667,-0.258556 -1.939877,0.0447 -0.61521,0.30325 -1.018522,1.02201 -1.027009,1.70596 -0.0078,0.684041 0.419446,1.273956 1.027009,1.59225 L 41.450303,42.01134 41.33615,54.44366 35.446971,73.063268 c -0.567199,0.847853 -0.39432,1.936741 0.45645,2.501981 0.850808,0.565333 2.057328,0.393095 2.624589,-0.45487 l 9.503949,-20.098026 9.324548,20.063294 c 0.504204,0.879418 1.628143,1.184904 2.510461,0.682416 0.882318,-0.502513 1.188855,-1.622675 0.684668,-2.502099 l -5.77986,-18.699713 -0.0082,-12.25415 16.704066,-5.772943 c 0.683798,-0.477917 0.980866,-1.382687 0.684688,-2.160846 -0.296191,-0.778246 -1.110151,-1.231666 -1.939921,-1.137367 l 5.5e-5,0 z"
       sodipodi:nodetypes="cssscczczssccccscccsccccscc" />
  </g>
</svg>
