<?xml version="1.0" encoding="UTF-8" standalone="no"?>
<!-- Created with Inkscape (http://www.inkscape.org/) -->

<svg
   xmlns:dc="http://purl.org/dc/elements/1.1/"
   xmlns:cc="http://creativecommons.org/ns#"
   xmlns:rdf="http://www.w3.org/1999/02/22-rdf-syntax-ns#"
   xmlns:svg="http://www.w3.org/2000/svg"
   xmlns="http://www.w3.org/2000/svg"
   xmlns:xlink="http://www.w3.org/1999/xlink"
   xmlns:sodipodi="http://sodipodi.sourceforge.net/DTD/sodipodi-0.dtd"
   xmlns:inkscape="http://www.inkscape.org/namespaces/inkscape"
   width="22"
   height="22"
   id="svg2"
   sodipodi:version="0.32"
   inkscape:version="0.48.0 r9654"
   version="1.0"
   sodipodi:docname="audio-volume-muted-blocked-panel.svg"
   inkscape:output_extension="org.inkscape.output.svg.inkscape"
   style="display:inline">
  <defs
     id="defs4">
    <linearGradient
       id="linearGradient3183">
      <stop
         style="stop-color:#c80000;stop-opacity:1;"
         offset="0"
         id="stop3185" />
      <stop
         style="stop-color:#f3604d;stop-opacity:1;"
         offset="1"
         id="stop3187" />
    </linearGradient>
    <linearGradient
       inkscape:collect="always"
       xlink:href="#linearGradient3183"
       id="linearGradient3460"
       x1="15.521201"
       y1="15"
       x2="15.521201"
       y2="5.9934754"
       gradientUnits="userSpaceOnUse"
       gradientTransform="matrix(0.8888889,0,0,0.8888889,1.1111111,1.6666667)" />
    <linearGradient
       id="linearGradient3295">
      <stop
         style="stop-color:#559829;stop-opacity:1;"
         offset="0"
         id="stop3297" />
      <stop
         style="stop-color:#86c837;stop-opacity:1;"
         offset="1"
         id="stop3299" />
    </linearGradient>
    <linearGradient
       id="linearGradient3287">
      <stop
         style="stop-color:#cd0000;stop-opacity:1;"
         offset="0"
         id="stop3289" />
      <stop
         style="stop-color:#e55300;stop-opacity:1;"
         offset="1"
         id="stop3291" />
    </linearGradient>
    <linearGradient
       id="linearGradient3279">
      <stop
         style="stop-color:#f08e00;stop-opacity:1;"
         offset="0"
         id="stop3281" />
      <stop
         style="stop-color:#ffd200;stop-opacity:1;"
         offset="1"
         id="stop3283" />
    </linearGradient>
    <linearGradient
       id="linearGradient3271">
      <stop
         style="stop-color:#395d93;stop-opacity:1;"
         offset="0"
         id="stop3273" />
      <stop
         style="stop-color:#6e92c7;stop-opacity:1;"
         offset="1"
         id="stop3275" />
    </linearGradient>
    <linearGradient
       inkscape:collect="always"
       id="linearGradient3327">
      <stop
         style="stop-color:#000000;stop-opacity:1;"
         offset="0"
         id="stop3330" />
      <stop
         style="stop-color:#000000;stop-opacity:0;"
         offset="1"
         id="stop3333" />
    </linearGradient>
    <linearGradient
       inkscape:collect="always"
       xlink:href="#linearGradient3327"
       id="linearGradient3335"
       x1="11.375"
       y1="22"
       x2="11.375"
       y2="-9.817296"
       gradientUnits="userSpaceOnUse" />
    <inkscape:perspective
       sodipodi:type="inkscape:persp3d"
       inkscape:vp_x="0 : 11 : 1"
       inkscape:vp_y="0 : 1000 : 0"
       inkscape:vp_z="22 : 11 : 1"
       inkscape:persp3d-origin="11 : 7.3333333 : 1"
       id="perspective102" />
    <linearGradient
       id="linearGradient4081">
      <stop
         style="stop-color:#aaaaaa;stop-opacity:1;"
         offset="0"
         id="stop4083" />
      <stop
         style="stop-color:#f0f0f0;stop-opacity:1;"
         offset="1"
         id="stop4085" />
    </linearGradient>
    <linearGradient
       id="linearGradient4057">
      <stop
         style="stop-color:#816647;stop-opacity:1;"
         offset="0"
         id="stop4059" />
      <stop
         style="stop-color:#a6845d;stop-opacity:1;"
         offset="1"
         id="stop4061" />
    </linearGradient>
    <linearGradient
       id="linearGradient3929">
      <stop
         style="stop-color:#000000;stop-opacity:1;"
         offset="0"
         id="stop3931" />
      <stop
         style="stop-color:#000000;stop-opacity:0;"
         offset="1"
         id="stop3933" />
    </linearGradient>
    <linearGradient
       inkscape:collect="always"
       xlink:href="#linearGradient3929"
       id="linearGradient4051"
       x1="9.494998"
       y1="15.516565"
       x2="9.494998"
       y2="-4.1786065"
       gradientUnits="userSpaceOnUse" />
    <linearGradient
       inkscape:collect="always"
       xlink:href="#linearGradient4057"
       id="linearGradient4063"
       x1="9.17138"
       y1="21.000002"
       x2="9.17138"
       y2="0.97239029"
       gradientUnits="userSpaceOnUse" />
    <linearGradient
       inkscape:collect="always"
       xlink:href="#linearGradient4081"
       id="linearGradient4089"
       x1="6.101758"
       y1="154.58195"
       x2="6.101758"
       y2="36.995476"
       gradientUnits="userSpaceOnUse" />
    <linearGradient
       inkscape:collect="always"
       xlink:href="#linearGradient4081"
       id="linearGradient4103"
       gradientUnits="userSpaceOnUse"
       x1="6.101758"
       y1="154.58195"
       x2="6.101758"
       y2="36.995476" />
    <linearGradient
       inkscape:collect="always"
       xlink:href="#linearGradient4081"
       id="linearGradient4105"
       gradientUnits="userSpaceOnUse"
       x1="6.101758"
       y1="154.58195"
       x2="6.101758"
       y2="36.995476" />
    <linearGradient
       inkscape:collect="always"
       xlink:href="#linearGradient4081"
       id="linearGradient4107"
       gradientUnits="userSpaceOnUse"
       x1="6.101758"
       y1="154.58195"
       x2="6.101758"
       y2="36.995476" />
    <linearGradient
       inkscape:collect="always"
       xlink:href="#linearGradient4081"
       id="linearGradient4109"
       gradientUnits="userSpaceOnUse"
       x1="6.101758"
       y1="154.58195"
       x2="6.101758"
       y2="36.995476" />
    <linearGradient
       inkscape:collect="always"
       xlink:href="#linearGradient4081"
       id="linearGradient4111"
       gradientUnits="userSpaceOnUse"
       x1="6.101758"
       y1="154.58195"
       x2="6.101758"
       y2="36.995476" />
    <linearGradient
       inkscape:collect="always"
       xlink:href="#linearGradient4081"
       id="linearGradient4113"
       gradientUnits="userSpaceOnUse"
       x1="6.101758"
       y1="154.58195"
       x2="6.101758"
       y2="36.995476" />
    <linearGradient
       inkscape:collect="always"
       xlink:href="#linearGradient4081"
       id="linearGradient4115"
       gradientUnits="userSpaceOnUse"
       x1="6.101758"
       y1="154.58195"
       x2="6.101758"
       y2="36.995476" />
    <linearGradient
       inkscape:collect="always"
       xlink:href="#linearGradient4081"
       id="linearGradient4117"
       gradientUnits="userSpaceOnUse"
       x1="6.101758"
       y1="154.58195"
       x2="6.101758"
       y2="36.995476" />
    <linearGradient
       inkscape:collect="always"
       xlink:href="#linearGradient4081"
       id="linearGradient4119"
       gradientUnits="userSpaceOnUse"
       x1="6.101758"
       y1="154.58195"
       x2="6.101758"
       y2="36.995476" />
    <linearGradient
       inkscape:collect="always"
       xlink:href="#linearGradient4081"
       id="linearGradient4121"
       gradientUnits="userSpaceOnUse"
       x1="6.101758"
       y1="154.58195"
       x2="6.101758"
       y2="36.995476" />
    <linearGradient
       inkscape:collect="always"
       xlink:href="#linearGradient4081"
       id="linearGradient4123"
       gradientUnits="userSpaceOnUse"
       x1="6.101758"
       y1="154.58195"
       x2="6.101758"
       y2="36.995476" />
    <linearGradient
       inkscape:collect="always"
       xlink:href="#linearGradient4081"
       id="linearGradient4125"
       gradientUnits="userSpaceOnUse"
       x1="6.101758"
       y1="154.58195"
       x2="6.101758"
       y2="36.995476" />
    <linearGradient
       inkscape:collect="always"
       xlink:href="#linearGradient4081"
       id="linearGradient4127"
       gradientUnits="userSpaceOnUse"
       x1="6.101758"
       y1="154.58195"
       x2="6.101758"
       y2="36.995476" />
    <linearGradient
       inkscape:collect="always"
       xlink:href="#linearGradient4081"
       id="linearGradient4129"
       gradientUnits="userSpaceOnUse"
       x1="6.101758"
       y1="154.58195"
       x2="6.101758"
       y2="36.995476" />
    <linearGradient
       inkscape:collect="always"
       xlink:href="#linearGradient4081"
       id="linearGradient4132"
       gradientUnits="userSpaceOnUse"
       x1="6.101758"
       y1="154.58195"
       x2="6.101758"
       y2="36.995476"
       gradientTransform="matrix(0.1317916,0,0,0.1317916,11.619896,-1.9882468)" />
    <linearGradient
       inkscape:collect="always"
       xlink:href="#linearGradient4081"
       id="linearGradient4141"
       gradientUnits="userSpaceOnUse"
       x1="6.101758"
       y1="154.58195"
       x2="6.101758"
       y2="36.995476"
       gradientTransform="matrix(0.1317916,0,0,0.1317916,11.619896,-1.9882468)" />
    <linearGradient
       inkscape:collect="always"
       xlink:href="#linearGradient4081"
       id="linearGradient4148"
       gradientUnits="userSpaceOnUse"
       x1="6.101758"
       y1="154.58195"
       x2="6.101758"
       y2="36.995476"
       gradientTransform="matrix(0.1317916,0,0,0.1317916,11.619896,-1.9882468)" />
    <linearGradient
       inkscape:collect="always"
       xlink:href="#linearGradient4081"
       id="linearGradient4158"
       gradientUnits="userSpaceOnUse"
       x1="6.101758"
       y1="154.58195"
       x2="6.101758"
       y2="36.995476"
       gradientTransform="matrix(0.1317916,0,0,0.1317916,11.619896,-1.9882468)" />
    <linearGradient
       inkscape:collect="always"
       xlink:href="#linearGradient4081"
       id="linearGradient4180"
       gradientUnits="userSpaceOnUse"
       x1="6.101758"
       y1="154.58195"
       x2="6.101758"
       y2="36.995476" />
    <linearGradient
       inkscape:collect="always"
       xlink:href="#linearGradient4081"
       id="linearGradient4182"
       gradientUnits="userSpaceOnUse"
       gradientTransform="matrix(0.1317916,0,0,0.1317916,11.619896,-1.9882468)"
       x1="6.101758"
       y1="154.58195"
       x2="6.101758"
       y2="36.995476" />
    <linearGradient
       inkscape:collect="always"
       xlink:href="#linearGradient4081"
       id="linearGradient4184"
       gradientUnits="userSpaceOnUse"
       x1="6.101758"
       y1="154.58195"
       x2="6.101758"
       y2="36.995476" />
    <linearGradient
       inkscape:collect="always"
       xlink:href="#linearGradient4081"
       id="linearGradient4186"
       gradientUnits="userSpaceOnUse"
       gradientTransform="matrix(0.1317916,0,0,0.1317916,11.619896,-1.9882468)"
       x1="6.101758"
       y1="154.58195"
       x2="6.101758"
       y2="36.995476" />
    <linearGradient
       inkscape:collect="always"
       xlink:href="#linearGradient4081"
       id="linearGradient2480"
       gradientUnits="userSpaceOnUse"
       gradientTransform="matrix(0.1256322,0,0,0.1256322,11.921746,-1.0005124)"
       x1="6.101758"
       y1="154.58195"
       x2="6.101758"
       y2="36.995476" />
    <linearGradient
       inkscape:collect="always"
       xlink:href="#linearGradient4081"
       id="linearGradient2483"
       gradientUnits="userSpaceOnUse"
       gradientTransform="matrix(0.1256322,0,0,0.1256322,11.921746,-1.0005124)"
       x1="6.101758"
       y1="154.58195"
       x2="6.101758"
       y2="36.995476" />
    <linearGradient
       inkscape:collect="always"
       xlink:href="#linearGradient4081"
       id="linearGradient2489"
       gradientUnits="userSpaceOnUse"
       gradientTransform="matrix(0.1256322,0,0,0.1256322,11.921746,-1.0005124)"
       x1="6.101758"
       y1="154.58195"
       x2="6.101758"
       y2="36.995476" />
    <linearGradient
       inkscape:collect="always"
       xlink:href="#linearGradient4081"
       id="linearGradient2495"
       gradientUnits="userSpaceOnUse"
       gradientTransform="matrix(0.1256322,0,0,0.1256322,11.921746,-1.0005124)"
       x1="6.101758"
       y1="154.58195"
       x2="6.101758"
       y2="36.995476" />
    <linearGradient
       inkscape:collect="always"
       xlink:href="#linearGradient4081"
       id="linearGradient2498"
       gradientUnits="userSpaceOnUse"
       gradientTransform="matrix(0.1256322,0,0,0.1256322,11.921746,-1.0005124)"
       x1="6.101758"
       y1="154.58195"
       x2="6.101758"
       y2="36.995476" />
    <linearGradient
       inkscape:collect="always"
       xlink:href="#linearGradient4081"
       id="linearGradient2501"
       gradientUnits="userSpaceOnUse"
       gradientTransform="matrix(0.1256322,0,0,0.1256322,11.921746,-1.0005124)"
       x1="6.101758"
       y1="154.58195"
       x2="6.101758"
       y2="36.995476" />
    <linearGradient
       inkscape:collect="always"
       xlink:href="#linearGradient4081"
       id="linearGradient2504"
       gradientUnits="userSpaceOnUse"
       gradientTransform="matrix(0.1256322,0,0,0.1256322,11.921746,-1.0005124)"
       x1="6.101758"
       y1="154.58195"
       x2="6.101758"
       y2="36.995476" />
    <linearGradient
       inkscape:collect="always"
       xlink:href="#linearGradient4081"
       id="linearGradient2506"
       gradientUnits="userSpaceOnUse"
       x1="6.101758"
       y1="154.58195"
       x2="6.101758"
       y2="36.995476" />
    <linearGradient
       inkscape:collect="always"
       xlink:href="#linearGradient4081"
       id="linearGradient2508"
       gradientUnits="userSpaceOnUse"
       gradientTransform="matrix(0.1317916,0,0,0.1317916,11.619896,-1.9882468)"
       x1="6.101758"
       y1="154.58195"
       x2="6.101758"
       y2="36.995476" />
    <linearGradient
       inkscape:collect="always"
       xlink:href="#linearGradient4081"
       id="linearGradient2510"
       gradientUnits="userSpaceOnUse"
       gradientTransform="matrix(0.1317916,0,0,0.1317916,11.619896,-1.9882468)"
       x1="6.101758"
       y1="154.58195"
       x2="6.101758"
       y2="36.995476" />
    <clipPath
       clipPathUnits="userSpaceOnUse"
       id="clipPath4974">
      <path
         id="path4976"
         d="M 16.625,2 C 15.93281,2.046173 15.13978,2.350316 14.5,2.875 C 13.716105,3.517873 13.079371,5.1522168 13.25,6.0625 C 13.337976,6.531842 13.692147,7.1029241 14.03125,7.28125 C 14.662734,7.613335 15.813682,7.0624791 16.875,5.9375 C 18.021489,4.722239 18.547995,3.383178 18.15625,2.625 C 17.915497,2.159052 17.31719,1.953827 16.625,2 z M 10.96875,2.71875 C 10.005789,2.719616 9.496306,3.3967078 9.5,4.6875 C 9.502528,5.57142 9.81322,6.3666318 10.21875,6.5625 C 10.520262,6.708131 10.527801,6.6945361 10.90625,6.5625 C 11.533114,6.343793 12.122053,4.8839409 12,3.90625 C 11.900109,3.106091 11.556193,2.7182209 10.96875,2.71875 z M 7.15625,4.03125 C 6.976067,4.0573035 6.795347,4.173262 6.625,4.34375 C 6.281636,4.687396 6.277056,4.8747068 6.28125,5.53125 C 6.286196,6.305553 6.475145,6.7277249 7,7.28125 C 7.392601,7.695296 7.675716,7.7200481 8.03125,7.34375 C 8.416388,6.936117 8.535971,6.296057 8.40625,5.59375 C 8.208416,4.5226825 7.696799,3.9530895 7.15625,4.03125 z M 4.46875,6.375 C 4.281799,6.4054104 4.1133,6.5115553 3.9375,6.6875 C 3.476154,7.14923 3.798831,8.4188978 4.53125,9.0625 C 5.405425,9.830669 6.111327,9.1273309 5.8125,7.78125 C 5.599846,6.8233425 5.029603,6.2837687 4.46875,6.375 z M 12.5,8.0625 C 11.88094,8.0518483 11.187196,8.1034691 10.46875,8.25 C 8.61799,8.627471 7.13709,9.3254488 6.1875,10.28125 C 5.640611,10.831715 5.327697,11.341306 5.0625,12.125 C 4.420581,14.021963 5.609396,16.720678 7.875,18.5625 C 8.719088,19.248703 9.234152,19.555813 10.09375,19.84375 C 10.539486,19.993058 10.892913,20.027742 11.71875,20 C 12.665466,19.968192 12.858002,19.925916 13.46875,19.625 C 14.363786,19.184011 15.378303,18.163965 15.8125,17.28125 C 16.077385,16.74275 16.119821,16.512622 16.09375,16.0625 C 16.049227,15.293922 15.751092,15.084744 14.78125,15.09375 C 13.39673,15.106604 12.815494,15.427682 12.53125,16.40625 C 12.31656,17.145368 12.079212,17.40625 11.59375,17.40625 C 10.824382,17.40625 10.03125,16.794459 10.03125,16.15625 C 10.03125,15.712256 10.746563,15.05048 12.53125,13.84375 C 15.045366,12.14381 15.909739,11.109639 15.78125,9.96875 C 15.64852,8.7901993 14.35718,8.0944552 12.5,8.0625 z"
         style="fill:#ffffff;fill-opacity:1;stroke:none;stroke-width:0.5;stroke-miterlimit:4;stroke-dasharray:none;stroke-opacity:1" />
    </clipPath>
    <clipPath
       clipPathUnits="userSpaceOnUse"
       id="clipPath4995">
      <path
         style="opacity:1;fill:#ffffff;fill-opacity:1;fill-rule:nonzero;stroke:none;stroke-width:1;stroke-linecap:square;stroke-linejoin:miter;stroke-miterlimit:4;stroke-dasharray:none;stroke-dashoffset:0;stroke-opacity:0;display:inline"
         d="M 30,0 L 30,22 L 52,22 L 52,0 L 30,0 z M 46.625,2 C 47.31719,1.953827 47.915497,2.159052 48.15625,2.625 C 48.547995,3.383178 48.021489,4.722239 46.875,5.9375 C 45.813682,7.0624791 44.662734,7.613335 44.03125,7.28125 C 43.692147,7.1029241 43.337976,6.531842 43.25,6.0625 C 43.079371,5.1522168 43.716105,3.517873 44.5,2.875 C 45.13978,2.350316 45.93281,2.046173 46.625,2 z M 40.96875,2.71875 C 41.556193,2.7182209 41.900109,3.106091 42,3.90625 C 42.122053,4.8839409 41.533114,6.343793 40.90625,6.5625 C 40.527801,6.6945361 40.520262,6.708131 40.21875,6.5625 C 39.81322,6.3666318 39.502528,5.57142 39.5,4.6875 C 39.496306,3.3967078 40.005789,2.719616 40.96875,2.71875 z M 37.15625,4.03125 C 37.696799,3.9530895 38.208416,4.5226825 38.40625,5.59375 C 38.535971,6.296057 38.416388,6.936117 38.03125,7.34375 C 37.675716,7.7200481 37.392601,7.695296 37,7.28125 C 36.475145,6.7277249 36.286196,6.305553 36.28125,5.53125 C 36.277056,4.8747068 36.281636,4.687396 36.625,4.34375 C 36.795347,4.173262 36.976067,4.0573035 37.15625,4.03125 z M 34.46875,6.375 C 35.029603,6.2837687 35.599846,6.8233425 35.8125,7.78125 C 36.111327,9.1273309 35.405425,9.830669 34.53125,9.0625 C 33.798831,8.4188978 33.476154,7.14923 33.9375,6.6875 C 34.1133,6.5115553 34.281799,6.4054104 34.46875,6.375 z M 42.5,8.0625 C 44.35718,8.0944552 45.64852,8.7901993 45.78125,9.96875 C 45.909739,11.109639 45.045366,12.14381 42.53125,13.84375 C 40.746563,15.05048 40.03125,15.712256 40.03125,16.15625 C 40.03125,16.794459 40.824382,17.40625 41.59375,17.40625 C 42.079212,17.40625 42.31656,17.145368 42.53125,16.40625 C 42.815494,15.427682 43.39673,15.106604 44.78125,15.09375 C 45.751092,15.084744 46.049227,15.293922 46.09375,16.0625 C 46.119821,16.512622 46.077385,16.74275 45.8125,17.28125 C 45.378303,18.163965 44.363786,19.184011 43.46875,19.625 C 42.858002,19.925916 42.665466,19.968192 41.71875,20 C 40.892913,20.027742 40.539486,19.993058 40.09375,19.84375 C 39.234152,19.555813 38.719088,19.248703 37.875,18.5625 C 35.609396,16.720678 34.420581,14.021963 35.0625,12.125 C 35.327697,11.341306 35.640611,10.831715 36.1875,10.28125 C 37.13709,9.3254488 38.61799,8.627471 40.46875,8.25 C 41.187196,8.1034691 41.88094,8.0518483 42.5,8.0625 z"
         id="path4997" />
    </clipPath>
    <linearGradient
       inkscape:collect="always"
       xlink:href="#linearGradient4081"
       id="linearGradient5065"
       gradientUnits="userSpaceOnUse"
       x1="11.508813"
       y1="6.667244"
       x2="11.508813"
       y2="2.6882501"
       gradientTransform="translate(-30,-30)" />
    <linearGradient
       inkscape:collect="always"
       xlink:href="#linearGradient4081"
       id="linearGradient5068"
       gradientUnits="userSpaceOnUse"
       x1="17.212025"
       y1="7.3808393"
       x2="17.212025"
       y2="1.9877422"
       gradientTransform="translate(-30,-30)" />
    <linearGradient
       inkscape:collect="always"
       xlink:href="#linearGradient4081"
       id="linearGradient5071"
       gradientUnits="userSpaceOnUse"
       x1="7.3737612"
       y1="7.6049061"
       x2="7.3737612"
       y2="4.0347266"
       gradientTransform="translate(-30,-30)" />
    <linearGradient
       inkscape:collect="always"
       xlink:href="#linearGradient4081"
       id="linearGradient5074"
       gradientUnits="userSpaceOnUse"
       x1="4.9496975"
       y1="9.3934212"
       x2="4.9496975"
       y2="6.3640523"
       gradientTransform="translate(-30,-30)" />
    <linearGradient
       inkscape:collect="always"
       xlink:href="#linearGradient4081"
       id="linearGradient5077"
       gradientUnits="userSpaceOnUse"
       x1="13"
       y1="20"
       x2="13"
       y2="7.9960599"
       gradientTransform="translate(-30,-30)" />
    <linearGradient
       inkscape:collect="always"
       xlink:href="#linearGradient4081"
       id="linearGradient3345"
       gradientUnits="userSpaceOnUse"
       x1="6.8391123"
       y1="16.300354"
       x2="6.8391123"
       y2="6.0528178" />
    <linearGradient
       inkscape:collect="always"
       xlink:href="#linearGradient4081"
       id="linearGradient3355"
       gradientUnits="userSpaceOnUse"
       x1="12.316144"
       y1="18.468353"
       x2="12.316144"
       y2="3.4817097" />
    <linearGradient
       inkscape:collect="always"
       xlink:href="#linearGradient4081"
       id="linearGradient3357"
       gradientUnits="userSpaceOnUse"
       x1="18.764908"
       y1="21"
       x2="18.764908"
       y2="0.96705598" />
    <linearGradient
       inkscape:collect="always"
       xlink:href="#linearGradient4081"
       id="linearGradient3522"
       gradientUnits="userSpaceOnUse"
       x1="6.8391123"
       y1="16.300354"
       x2="6.8391123"
       y2="6.0528178"
       gradientTransform="translate(1,0)" />
    <linearGradient
       inkscape:collect="always"
       xlink:href="#StandardGradient"
       id="linearGradient3527"
       gradientUnits="userSpaceOnUse"
       gradientTransform="matrix(1,0,0,-1,1,21.991298)"
       x1="6.8391123"
       y1="16.300354"
       x2="6.8391123"
       y2="6.0528178" />
    <linearGradient
       inkscape:collect="always"
       xlink:href="#linearGradient4081"
       id="linearGradient3552"
       gradientUnits="userSpaceOnUse"
       gradientTransform="translate(1,0)"
       x1="16.5"
       y1="19.542921"
       x2="16.5"
       y2="2.5" />
    <linearGradient
       inkscape:collect="always"
       xlink:href="#linearGradient3183"
       id="linearGradient7136"
       gradientUnits="userSpaceOnUse"
       gradientTransform="matrix(0.8888889,0,0,0.8888889,9.111111,31.666667)"
       x1="30.559713"
       y1="16.125"
       x2="30.559713"
       y2="4.8434386" />
    <linearGradient
       inkscape:collect="always"
       xlink:href="#linearGradient3183"
       id="linearGradient7144"
       gradientUnits="userSpaceOnUse"
       gradientTransform="matrix(0.8888889,0,0,0.8888889,-10.888889,1.6666667)"
       x1="30.559713"
       y1="16.125"
       x2="30.559713"
       y2="4.8434386" />
    <linearGradient
       inkscape:collect="always"
       xlink:href="#linearGradient3183"
       id="linearGradient7163"
       gradientUnits="userSpaceOnUse"
       gradientTransform="matrix(0.8888889,0,0,0.8888889,16.111111,24.666667)"
       x1="22.618816"
       y1="34.125"
       x2="22.618816"
       y2="25.111567" />
    <linearGradient
       inkscape:collect="always"
       xlink:href="#linearGradient3183"
       id="linearGradient7176"
       x1="11"
       y1="11.015625"
       x2="19"
       y2="11.015625"
       gradientUnits="userSpaceOnUse"
       gradientTransform="matrix(0,-1,1,0,3.984375,26.015625)" />
    <linearGradient
       inkscape:collect="always"
       xlink:href="#SpecificGradient"
       id="linearGradient7193"
       gradientUnits="userSpaceOnUse"
       gradientTransform="matrix(0,0.8456457,0.8456457,0,5.6846841,-1.6690618)"
       x1="11"
       y1="11.015625"
       x2="19"
       y2="11.015625" />
    <inkscape:perspective
       id="perspective3931"
       inkscape:persp3d-origin="0.5 : 0.33333333 : 1"
       inkscape:vp_z="1 : 0.5 : 1"
       inkscape:vp_y="0 : 1000 : 0"
       inkscape:vp_x="0 : 0.5 : 1"
       sodipodi:type="inkscape:persp3d" />
    <linearGradient
       inkscape:collect="always"
       xlink:href="#StandardGradient"
       id="linearGradient3833"
       x1="54"
       y1="3.5"
       x2="59"
       y2="3.5"
       gradientUnits="userSpaceOnUse"
       gradientTransform="translate(-53,53)" />
    <linearGradient
       id="StandardGradient"
       gradientTransform="matrix(0.9984539,0,0,0.9984539,-0.0459776,0.05767558)"
       x1="10.710332"
       y1="1.9963325"
       x2="10.710332"
       y2="18.974037"
       gradientUnits="userSpaceOnUse">
      <stop
         style="stop-color:#000000;stop-opacity:0.86274511;"
         offset="0"
         id="stop3277" />
      <stop
         style="stop-color:#000000;stop-opacity:0.47058824;"
         offset="1"
         id="stop3279" />
    </linearGradient>
    <inkscape:perspective
       id="perspective3998"
       inkscape:persp3d-origin="0.5 : 0.33333333 : 1"
       inkscape:vp_z="1 : 0.5 : 1"
       inkscape:vp_y="0 : 1000 : 0"
       inkscape:vp_x="0 : 0.5 : 1"
       sodipodi:type="inkscape:persp3d" />
    <linearGradient
       y2="3.5"
       x2="59"
       y1="3.5"
       x1="54"
       gradientTransform="translate(-45,53)"
       gradientUnits="userSpaceOnUse"
       id="linearGradient3829"
       xlink:href="#SpecificGradient"
       inkscape:collect="always" />
    <linearGradient
       id="SpecificGradient"
       x1="10.761708"
       y1="3.9999998"
       x2="10.761708"
       y2="18.011395"
       gradientUnits="userSpaceOnUse">
      <stop
         style="stop-color:#ad0707;stop-opacity:1;"
         offset="0"
         id="stop3292" />
      <stop
         style="stop-color:#f75535;stop-opacity:1;"
         offset="1"
         id="stop3294" />
    </linearGradient>
    <linearGradient
       y2="3.5"
       x2="59"
       y1="3.5"
       x1="54"
       gradientTransform="translate(-45,53)"
       gradientUnits="userSpaceOnUse"
       id="linearGradient4007"
       xlink:href="#SpecificGradient"
       inkscape:collect="always" />
    <linearGradient
       inkscape:collect="always"
       xlink:href="#StandardGradient"
       id="linearGradient3744"
       gradientUnits="userSpaceOnUse"
       gradientTransform="matrix(1,0,0,-1,1,22.991298)"
       x1="6.8391123"
       y1="16.300354"
       x2="6.8391123"
       y2="6.0528178" />
    <linearGradient
       inkscape:collect="always"
       xlink:href="#StandardGradient"
       id="linearGradient3748"
       gradientUnits="userSpaceOnUse"
       gradientTransform="matrix(1,0,0,-1,1,21.991298)"
       x1="6.8391123"
       y1="16.300354"
       x2="6.8391123"
       y2="6.0528178" />
    <linearGradient
       inkscape:collect="always"
       xlink:href="#StandardGradient"
       id="linearGradient3753"
       gradientUnits="userSpaceOnUse"
       gradientTransform="matrix(1,0,0,-1,-29,21.991298)"
       x1="6.8391123"
       y1="16.300354"
       x2="6.8391123"
       y2="6.0528178" />
    <linearGradient
       inkscape:collect="always"
       xlink:href="#SpecificGradient"
       id="linearGradient3757"
       gradientUnits="userSpaceOnUse"
       gradientTransform="matrix(0,0.8456457,0.8456457,0,-24.315316,-1.6690618)"
       x1="11"
       y1="11.015625"
       x2="19"
       y2="11.015625" />
    <clipPath
       clipPathUnits="userSpaceOnUse"
       id="clipPath3763">
      <path
         style="fill:#ff00ff;fill-opacity:1;stroke:none;display:inline"
         d="m -30,0 0,22 22,0 0,-22 -22,0 z m 7.25,6 c 0.123689,8.56e-5 0.262937,0.058056 0.375,0.15625 0.224127,0.19639 0.376453,0.57679 0.375,0.96875 l 0,1.75 0,4.25 0,1.75 c 0.0032,0.335861 -0.108495,0.66414 -0.28125,0.875 -0.129566,0.158145 -0.305534,0.249975 -0.46875,0.25 -0.0544,8e-6 -0.07095,-0.01227 -0.125,-0.03125 -0.07054,-0.02768 -0.156859,-0.06679 -0.21875,-0.125 l -1.96875,-1.71875 -1.96875,0 c -0.542687,0 -0.96875,-0.431061 -0.96875,-1 l 0,-4.25 c 0,-0.568939 0.426063,-1.03125 0.96875,-1.03125 l 2,0 1.9375,-1.6875 C -22.981818,6.0577135 -22.873689,5.9999144 -22.75,6 z M -16.71875,7.625 -15,9.3125 -13.34375,7.625 -11.5625,9.40625 -13.25,11 l 1.6875,1.625 -1.78125,1.78125 L -15,12.71875 -16.71875,14.40625 -18.4375,12.6875 -16.75,11 -18.4375,9.34375 -16.71875,7.625 z"
         id="path3765" />
    </clipPath>
    <linearGradient
       inkscape:collect="always"
       xlink:href="#SpecificGradient"
       id="linearGradient3775"
       gradientUnits="userSpaceOnUse"
       gradientTransform="matrix(0,0.8456457,0.8456457,0,5.6846841,-0.6690618)"
       x1="11"
       y1="11.015625"
       x2="19"
       y2="11.015625" />
    <linearGradient
       inkscape:collect="always"
       xlink:href="#SpecificGradient"
       id="linearGradient3777"
       gradientUnits="userSpaceOnUse"
       gradientTransform="matrix(0,0.8456457,0.8456457,0,5.6846841,-1.6690618)"
       x1="11"
       y1="11.015625"
       x2="19"
       y2="11.015625" />
    <linearGradient
       inkscape:collect="always"
       xlink:href="#SpecificGradient"
       id="linearGradient3782"
       gradientUnits="userSpaceOnUse"
       gradientTransform="matrix(0,0.8456457,0.8456457,0,5.6846841,-0.6690618)"
       x1="11"
       y1="11.015625"
       x2="19"
       y2="11.015625" />
    <linearGradient
       inkscape:collect="always"
       xlink:href="#SpecificGradient"
       id="linearGradient3786"
       gradientUnits="userSpaceOnUse"
       gradientTransform="matrix(0,0.8456457,0.8456457,0,5.6846841,-1.6690618)"
       x1="11"
       y1="11.015625"
       x2="19"
       y2="11.015625" />
    <linearGradient
       inkscape:collect="always"
       xlink:href="#StandardGradient"
       id="linearGradient4382"
       gradientUnits="userSpaceOnUse"
       gradientTransform="matrix(1,0,0,-1,1,21.991298)"
       x1="6.8391123"
       y1="16.300354"
       x2="6.8391123"
       y2="6.0528178" />
    <linearGradient
       inkscape:collect="always"
       xlink:href="#StandardGradient"
       id="linearGradient4387"
       gradientUnits="userSpaceOnUse"
       gradientTransform="matrix(1,0,0,-1,1,21.991298)"
       x1="6.8391123"
       y1="16.300354"
       x2="6.8391123"
       y2="6.0528178" />
    <linearGradient
       inkscape:collect="always"
       xlink:href="#StandardGradient"
       id="linearGradient4391"
       gradientUnits="userSpaceOnUse"
       gradientTransform="matrix(1,0,0,-1,1,21.991298)"
       x1="6.8391123"
       y1="16.300354"
       x2="6.8391123"
       y2="6.0528178" />
  </defs>
  <sodipodi:namedview
     id="base"
     pagecolor="#ffffff"
     bordercolor="#e7e7e7"
     borderopacity="1"
     inkscape:pageopacity="0.0"
     inkscape:pageshadow="2"
     inkscape:zoom="8.0523605"
     inkscape:cx="-90.763243"
     inkscape:cy="-9.4060224"
     inkscape:document-units="px"
     inkscape:current-layer="layer1"
     showgrid="true"
     inkscape:showpageshadow="false"
     showguides="false"
     inkscape:guide-bbox="true"
     inkscape:window-width="1920"
     inkscape:window-height="1029"
     inkscape:window-x="0"
     inkscape:window-y="25"
     inkscape:window-maximized="1">
    <sodipodi:guide
       orientation="1,0"
       position="0,112"
       id="guide2383" />
    <sodipodi:guide
       orientation="0,1"
       position="26.278146,128"
       id="guide2385" />
    <sodipodi:guide
       orientation="1,0"
       position="128,54.082119"
       id="guide2387" />
    <sodipodi:guide
       orientation="0,1"
       position="78.156291,0"
       id="guide2389" />
    <sodipodi:guide
       orientation="0,1"
       position="60.863576,64.084768"
       id="guide2391" />
    <inkscape:grid
       type="xygrid"
       id="grid3672"
       visible="true"
       enabled="true" />
  </sodipodi:namedview>
  <metadata
     id="metadata7">
    <rdf:RDF>
      <cc:Work
         rdf:about="">
        <dc:format>image/svg+xml</dc:format>
        <dc:type
           rdf:resource="http://purl.org/dc/dcmitype/StillImage" />
      </cc:Work>
    </rdf:RDF>
  </metadata>
  <g
     inkscape:label="Icon"
     inkscape:groupmode="layer"
     id="layer1"
     style="display:inline">
    <path
       style="fill:#ffffff;fill-opacity:1;fill-rule:nonzero;stroke:none;opacity:0.15"
       d="M 7.25 5 C 6.8139947 4.9996983 6.4562191 5.2247106 6.25 5.40625 L 4.59375 6.84375 L 2.96875 6.84375 C 1.8574366 6.84375 1 7.8061992 1 8.875 L 1 13.125 C 1 14.193801 1.895873 15.125 2.96875 15.125 L 4.5625 15.125 L 6.21875 16.5625 C 6.2349559 16.577742 6.2342355 16.579973 6.25 16.59375 C 6.465073 16.781702 6.6470501 16.86585 6.75 16.90625 A 1.0013293 1.0013293 0 0 0 6.78125 16.90625 C 6.7682162 16.901673 7.0449284 17.00003 7.25 17 C 7.788653 16.999917 8.2092067 16.729934 8.5 16.375 C 8.8614956 15.933769 9.0054254 15.439144 9 14.875 L 9 13.125 L 9 8.875 L 9 7.125 C 9.0024233 6.4712416 8.818246 5.8767896 8.28125 5.40625 C 8.0068898 5.1658454 7.6860059 5.0003017 7.25 5 z M 7.25 6 C 7.3736886 6.0000856 7.5129367 6.058056 7.625 6.15625 C 7.849127 6.35264 8.0014529 6.73304 8 7.125 L 8 8.875 L 8 13.125 L 8 14.875 C 8.00323 15.210861 7.8915051 15.53914 7.71875 15.75 C 7.5891835 15.908145 7.4132157 15.999975 7.25 16 C 7.195595 16.000008 7.179047 15.98773 7.125 15.96875 C 7.054464 15.94107 6.968141 15.90196 6.90625 15.84375 L 4.9375 14.125 L 2.96875 14.125 C 2.4260625 14.125 2 13.693939 2 13.125 L 2 8.875 C 2 8.306061 2.4260626 7.84375 2.96875 7.84375 L 4.96875 7.84375 L 6.90625 6.15625 C 7.0181822 6.0577135 7.1263114 5.9999144 7.25 6 z M 13.15625 6.625 A 1.0013293 1.0013293 0 0 0 12.5625 6.90625 L 10.84375 8.625 A 1.0013293 1.0013293 0 0 0 10.875 10.0625 L 11.8125 11 L 10.84375 11.96875 A 1.0013293 1.0013293 0 0 0 10.84375 13.40625 L 12.5625 15.125 A 1.0013293 1.0013293 0 0 0 13.96875 15.125 L 15 14.125 L 15.9375 15.09375 A 1.0013293 1.0013293 0 0 0 17.375 15.125 L 19.15625 13.34375 A 1.0013293 1.0013293 0 0 0 19.125 11.90625 L 18.1875 11 L 19.125 10.125 A 1.0013293 1.0013293 0 0 0 19.15625 8.6875 L 17.375 6.90625 A 1.0013293 1.0013293 0 0 0 15.9375 6.9375 L 15 7.90625 L 13.96875 6.90625 A 1.0013293 1.0013293 0 0 0 13.15625 6.625 z M 13.28125 7.625 L 15 9.3125 L 16.65625 7.625 L 18.4375 9.40625 L 16.75 11 L 18.4375 12.625 L 16.65625 14.40625 L 15 12.71875 L 13.28125 14.40625 L 11.5625 12.6875 L 13.25 11 L 11.5625 9.34375 L 13.28125 7.625 z "
       id="path4389" />
    <path
       sodipodi:nodetypes="csssccccsccsscc"
       id="path7140"
       d="M 15,7 C 12.24,7 10,9.2399998 10,12 C 10,14.76 12.24,17 15,17 C 17.76,17 20,14.76 20,12 C 20,9.2399999 17.76,7.0000002 15,7 z M 15,9 C 15.453289,9 15.86463,9.1322656 16.25,9.3125 L 12.3125,13.25 C 12.132266,12.86463 12,12.453289 12,12 C 11.999999,10.344 13.344,9 15,9 z M 17.6875,10.6875 C 17.882924,11.085687 18,11.526773 18,12 C 18,13.656 16.656,15 15,15 C 14.526773,15 14.085687,14.882924 13.6875,14.6875 L 17.6875,10.6875 z"
       style="opacity:0;fill:#000000;fill-opacity:1;fill-rule:nonzero;stroke:none;stroke-width:1;stroke-linecap:square;stroke-linejoin:round;stroke-miterlimit:4;stroke-dasharray:none;stroke-dashoffset:0;stroke-opacity:1;display:inline" />
    <path
       style="fill:url(#linearGradient3527);fill-opacity:1;fill-rule:nonzero;stroke:none"
       d="m 7.25,15.991298 c -0.054405,8e-6 -0.070953,-0.01227 -0.125,-0.03125 -0.070536,-0.02768 -0.156859,-0.06679 -0.21875,-0.125 l -1.96875,-1.71875 -1.96875,0 c -0.5426875,0 -0.96875,-0.431061 -0.96875,-1 l 0,-4.25 C 2,8.297359 2.4260626,7.835048 2.96875,7.835048 l 2,0 1.9375,-1.6875 c 0.2238644,-0.197073 0.4946233,-0.196388 0.71875,0 0.224127,0.19639 0.3764529,0.57679 0.375,0.96875 l 0,1.75 0,4.25 0,1.75 c 0.00323,0.335861 -0.1084949,0.66414 -0.28125,0.875 -0.1295665,0.158145 -0.3055343,0.249975 -0.46875,0.25 z"
       id="path3532" />
    <path
       style="fill:url(#linearGradient7136);fill-opacity:1;fill-rule:nonzero;stroke:none;display:inline"
       d="m 35,36 c -2.76,0 -5,2.24 -5,5 0,2.76 2.24,5 5,5 2.76,0 5,-2.24 5,-5 0,-2.76 -2.24,-5 -5,-5 z m 0,2 c 0.453289,0 0.86463,0.132266 1.25,0.3125 L 32.3125,42.25 C 32.132266,41.86463 32,41.453289 32,41 c -1e-6,-1.656 1.344,-3 3,-3 z m 2.6875,1.6875 C 37.882924,40.085687 38,40.526773 38,41 c 0,1.656 -1.344,3 -3,3 -0.473227,0 -0.914313,-0.117076 -1.3125,-0.3125 l 4,-4 z"
       id="path2676"
       sodipodi:nodetypes="csssccccsccsscc" />
    <path
       style="opacity:0.5;fill:#000000;fill-opacity:1;fill-rule:nonzero;stroke:none;stroke-width:1;stroke-linecap:square;stroke-linejoin:miter;stroke-miterlimit:4;stroke-dasharray:none;stroke-dashoffset:0;stroke-opacity:0"
       d="M 7.25 6 C 7.1955949 5.999992 7.1790469 6.0122679 7.125 6.03125 C 7.0544641 6.0589339 6.968141 6.0980356 6.90625 6.15625 L 4.9375 7.875 L 2.96875 7.875 C 2.4260625 7.8750001 2 8.306061 2 8.875 L 2 9.875 C 2 9.306061 2.4260625 8.8750001 2.96875 8.875 L 4.9375 8.875 L 6.90625 7.15625 C 6.968141 7.0980356 7.0544641 7.0589339 7.125 7.03125 C 7.1790469 7.0122679 7.1955949 6.999992 7.25 7 C 7.4132157 7.0000246 7.5891835 7.0918554 7.71875 7.25 C 7.8915051 7.4608598 8.0032284 7.7891391 8 8.125 L 8 7.125 C 8.0032284 6.7891391 7.8915051 6.4608598 7.71875 6.25 C 7.5891835 6.0918554 7.4132157 6.0000246 7.25 6 z "
       id="path5353" />
    <path
       style="fill:url(#linearGradient7163);fill-opacity:1;fill-rule:nonzero;stroke:none;display:inline"
       d="m 35,47 c -2.208,0 -4,1.791999 -4,4 0,2.208 1.792,4.000001 4,4 2.208,0 4,-1.792001 4,-4 0,-2.208 -1.792,-3.999999 -4,-4 z m 0,2 c 0.1932,0 0.385727,0.01131 0.5625,0.0625 l -2.5,2.5 C 33.011307,51.385727 33,51.1932 33,51 c 0,-1.103999 0.896,-2 2,-2 z m 1.9375,1.53125 C 36.973978,50.682246 37,50.83785 37,51 c 0,1.104001 -0.896,2 -2,2 -0.16215,0 -0.317754,-0.02602 -0.46875,-0.0625 l 2.40625,-2.40625 z"
       id="path7142"
       sodipodi:nodetypes="csssccccsccsscc" />
    <path
       style="fill:url(#linearGradient7193);fill-opacity:1;fill-rule:evenodd;stroke:none"
       d="m 11.577777,9.3507592 1.717718,-1.717717 1.691292,1.664864 1.664864,-1.664864 1.770572,1.77057 -1.664866,1.6120118 1.664866,1.612012 -1.770572,1.770571 -1.664864,-1.664865 -1.691292,1.664865 -1.717718,-1.717718 1.664866,-1.664865 -1.664866,-1.6648648 z"
       id="path7165" />
    <path
       style="fill:#000000;fill-opacity:1;fill-rule:evenodd;stroke:none;stroke-width:1px;stroke-linecap:butt;stroke-linejoin:miter;stroke-opacity:1;opacity:0"
       d="M 13,7 L 10.9375,9.0625 L 11.4375,9.5625 L 13,8 L 15,10 L 16.9375,8 L 18.53125,9.59375 L 19.0625,9.125 L 16.9375,7 L 15,9 L 13,7 z M 12.921606,11 L 10.9375,13 L 11.4375,13.5 L 12.9375,12 L 12.921606,11 z M 17.094028,11 L 17.0625,12 L 18.53125,13.4375 L 19.0625,12.9375 L 17.094028,11 z"
       id="path7188"
       sodipodi:nodetypes="ccccccccccccccccccccc" />
    <path
       style="fill:#ffffff;fill-opacity:1;fill-rule:nonzero;stroke:none;opacity:0.3"
       d="M 2 13.125 L 2 14.125 C 2 14.693939 2.4260625 15.125 2.96875 15.125 L 4.9375 15.125 L 6.90625 16.84375 C 6.968141 16.90196 7.054464 16.94107 7.125 16.96875 C 7.179047 16.98773 7.195595 17.000008 7.25 17 C 7.4132157 16.999975 7.5891835 16.908145 7.71875 16.75 C 7.8915051 16.53914 8.00323 16.210861 8 15.875 L 8 14.875 C 8.00323 15.210861 7.8915051 15.53914 7.71875 15.75 C 7.5891835 15.908145 7.4132157 15.999975 7.25 16 C 7.195595 16.000008 7.179047 15.98773 7.125 15.96875 C 7.054464 15.94107 6.968141 15.90196 6.90625 15.84375 L 4.9375 14.125 L 2.96875 14.125 C 2.4260625 14.125 2 13.693939 2 13.125 z "
       id="path3742" />
    <path
       style="fill:#550000;fill-opacity:1;fill-rule:evenodd;stroke:none;opacity:0.5"
       d="M 13.28125 7.625 L 11.5625 9.34375 L 12.0625 9.84375 L 13.28125 8.625 L 15 10.3125 L 16.65625 8.625 L 17.9375 9.90625 L 18.4375 9.40625 L 16.65625 7.625 L 15 9.3125 L 13.28125 7.625 z M 12.75 11.5 L 11.5625 12.6875 L 12.0625 13.1875 L 13.25 12 L 12.75 11.5 z M 17.28125 11.5 L 16.75 12 L 17.9375 13.125 L 18.4375 12.625 L 17.28125 11.5 z "
       id="path3771" />
    <path
       style="fill:#ffffff;fill-opacity:1;fill-rule:evenodd;stroke:none;opacity:0.3"
       d="M 12.0625 9.84375 L 11.5625 10.34375 L 12.75 11.5 L 13.25 11 L 12.0625 9.84375 z M 17.9375 9.90625 L 16.75 11 L 17.28125 11.5 L 18.4375 10.40625 L 17.9375 9.90625 z M 15 12.71875 L 13.28125 14.40625 L 12.0625 13.1875 L 11.5625 13.6875 L 13.28125 15.40625 L 15 13.71875 L 16.65625 15.40625 L 18.4375 13.625 L 17.9375 13.125 L 16.65625 14.40625 L 15 12.71875 z "
       id="path3780" />
  </g>
</svg>
