<?xml version="1.0" encoding="UTF-8" standalone="no"?>
<!-- Created with Inkscape (http://www.inkscape.org/) -->

<svg
   xmlns:dc="http://purl.org/dc/elements/1.1/"
   xmlns:cc="http://creativecommons.org/ns#"
   xmlns:rdf="http://www.w3.org/1999/02/22-rdf-syntax-ns#"
   xmlns:svg="http://www.w3.org/2000/svg"
   xmlns="http://www.w3.org/2000/svg"
   xmlns:xlink="http://www.w3.org/1999/xlink"
   xmlns:sodipodi="http://sodipodi.sourceforge.net/DTD/sodipodi-0.dtd"
   xmlns:inkscape="http://www.inkscape.org/namespaces/inkscape"
   width="22"
   height="22"
   id="svg2"
   sodipodi:version="0.32"
   inkscape:version="0.48.0 r9654"
   version="1.0"
   sodipodi:docname="dialog-error.svg"
   inkscape:output_extension="org.inkscape.output.svg.inkscape"
   style="display:inline">
  <defs
     id="defs4">
    <linearGradient
       inkscape:collect="always"
       id="linearGradient3327">
      <stop
         style="stop-color:#000000;stop-opacity:1;"
         offset="0"
         id="stop3330" />
      <stop
         style="stop-color:#000000;stop-opacity:0;"
         offset="1"
         id="stop3333" />
    </linearGradient>
    <linearGradient
       inkscape:collect="always"
       xlink:href="#linearGradient3327"
       id="linearGradient3335"
       x1="11.375"
       y1="22"
       x2="11.375"
       y2="-9.817296"
       gradientUnits="userSpaceOnUse" />
    <linearGradient
       inkscape:collect="always"
       xlink:href="#linearGradient2881"
       id="linearGradient3181"
       x1="-3.0607977"
       y1="27.258198"
       x2="-3.0607977"
       y2="7.2536583"
       gradientUnits="userSpaceOnUse"
       gradientTransform="translate(11.119372,-6.2581977)" />
    <inkscape:perspective
       sodipodi:type="inkscape:persp3d"
       inkscape:vp_x="0 : 11 : 1"
       inkscape:vp_y="0 : 1000 : 0"
       inkscape:vp_z="22 : 11 : 1"
       inkscape:persp3d-origin="11 : 7.3333333 : 1"
       id="perspective2531" />
    <linearGradient
       id="ButtonShadow"
       gradientTransform="scale(0.9883037,1.0118347)"
       x1="9.3550024"
       y1="21.742682"
       x2="9.3550024"
       y2="0.49362123"
       gradientUnits="userSpaceOnUse">
      <stop
         id="stop3277"
         offset="0"
         style="stop-color:#000000;stop-opacity:0.70588237;" />
      <stop
         id="stop3279"
         offset="1"
         style="stop-color:#000000;stop-opacity:0.15686275;" />
    </linearGradient>
    <linearGradient
       inkscape:collect="always"
       id="linearGradient3232">
      <stop
         style="stop-color:#000000;stop-opacity:1;"
         offset="0"
         id="stop3234" />
      <stop
         style="stop-color:#000000;stop-opacity:0;"
         offset="1"
         id="stop3236" />
    </linearGradient>
    <linearGradient
       gradientUnits="userSpaceOnUse"
       y2="-6.0004225"
       x2="11"
       y1="14.805666"
       x1="11"
       id="linearGradient3221"
       xlink:href="#linearGradient3232"
       inkscape:collect="always" />
    <linearGradient
       id="ButtonColor"
       x1="10.31979"
       y1="21"
       x2="10.31979"
       y2="0.99929649"
       gradientUnits="userSpaceOnUse">
      <stop
         style="stop-color:#29669f;stop-opacity:1;"
         offset="0"
         id="stop3189" />
      <stop
         style="stop-color:#88b6e0;stop-opacity:1;"
         offset="1"
         id="stop3191" />
    </linearGradient>
    <linearGradient
       inkscape:collect="always"
       xlink:href="#ButtonShadow"
       id="linearGradient38042"
       gradientUnits="userSpaceOnUse"
       gradientTransform="scale(0.9883037,1.0118347)"
       x1="9.3550024"
       y1="21.742682"
       x2="9.3550024"
       y2="0.49362123" />
    <filter
       inkscape:collect="always"
       id="filter3194"
       x="-0.18000001"
       width="1.36"
       y="-0.18000001"
       height="1.36"
       color-interpolation-filters="sRGB">
      <feGaussianBlur
         inkscape:collect="always"
         stdDeviation="1.2"
         id="feGaussianBlur3196" />
    </filter>
    <clipPath
       clipPathUnits="userSpaceOnUse"
       id="clipPath2849">
      <rect
         ry="2"
         rx="2"
         y="1"
         x="1"
         height="20"
         width="20"
         id="rect2851"
         style="fill:#ffffff;fill-opacity:1;fill-rule:evenodd;stroke:none;display:inline" />
    </clipPath>
    <inkscape:perspective
       id="perspective3826"
       inkscape:persp3d-origin="0.5 : 0.33333333 : 1"
       inkscape:vp_z="1 : 0.5 : 1"
       inkscape:vp_y="0 : 1000 : 0"
       inkscape:vp_x="0 : 0.5 : 1"
       sodipodi:type="inkscape:persp3d" />
    <linearGradient
       inkscape:collect="always"
       xlink:href="#linearGradient3614"
       id="linearGradient3617"
       gradientUnits="userSpaceOnUse"
       x1="48"
       y1="90"
       x2="48"
       y2="5.9877172" />
    <linearGradient
       id="linearGradient3614">
      <stop
         id="stop3616"
         offset="0"
         style="stop-color:#064096;stop-opacity:1;" />
      <stop
         id="stop3618"
         offset="1"
         style="stop-color:#4484e5;stop-opacity:1" />
    </linearGradient>
    <linearGradient
       gradientTransform="translate(-79,-26)"
       y2="5.9877172"
       x2="48"
       y1="90"
       x1="48"
       gradientUnits="userSpaceOnUse"
       id="linearGradient3835"
       xlink:href="#linearGradient3614"
       inkscape:collect="always" />
    <inkscape:perspective
       id="perspective3847"
       inkscape:persp3d-origin="0.5 : 0.33333333 : 1"
       inkscape:vp_z="1 : 0.5 : 1"
       inkscape:vp_y="0 : 1000 : 0"
       inkscape:vp_x="0 : 0.5 : 1"
       sodipodi:type="inkscape:persp3d" />
    <linearGradient
       inkscape:collect="always"
       xlink:href="#linearGradient3771"
       id="linearGradient3777"
       x1="15"
       y1="47.277454"
       x2="106.50636"
       y2="47.024918"
       gradientUnits="userSpaceOnUse" />
    <linearGradient
       inkscape:collect="always"
       id="linearGradient3771">
      <stop
         style="stop-color:#154a99;stop-opacity:1;"
         offset="0"
         id="stop3773" />
      <stop
         style="stop-color:#154a99;stop-opacity:0;"
         offset="1"
         id="stop3775" />
    </linearGradient>
    <linearGradient
       gradientTransform="matrix(0.24242424,0,0,0.24242462,-0.636364,-0.121218)"
       y2="17.246193"
       x2="45.789646"
       y1="78.067055"
       x1="45.789646"
       gradientUnits="userSpaceOnUse"
       id="linearGradient3856"
       xlink:href="#linearGradient3731"
       inkscape:collect="always" />
    <linearGradient
       inkscape:collect="always"
       xlink:href="#linearGradient3614"
       id="linearGradient3661"
       gradientUnits="userSpaceOnUse"
       gradientTransform="translate(-18.880628,-4.2581977)"
       x1="-3.0607977"
       y1="27.258198"
       x2="-3.0607977"
       y2="7.2536583" />
    <linearGradient
       inkscape:collect="always"
       xlink:href="#linearGradient3771"
       id="linearGradient3665"
       gradientUnits="userSpaceOnUse"
       gradientTransform="matrix(0.24242424,0,0,0.24242462,-30.636364,1.878782)"
       x1="15"
       y1="47.277454"
       x2="106.50636"
       y2="47.024918" />
    <clipPath
       clipPathUnits="userSpaceOnUse"
       id="clipPath3676">
      <path
         style="fill:url(#linearGradient3680);fill-opacity:1;fill-rule:evenodd;stroke:none;display:inline"
         d="m -27,3 c -1.108,0 -2,0.892 -2,2 l 0,16 c 0,1.108 0.892,2 2,2 l 16,0 c 1.108,0 2,-0.892 2,-2 L -9,5 C -9,3.892 -9.892,3 -11,3 l -16,0 z m 8,3 c 4.418278,0 8,2.91629 8,6.53125 0,3.61496 -3.581722,6.5625 -8,6.5625 -0.657923,0 -1.294491,-0.06495 -1.90625,-0.1875 -0.82246,0.858473 -2.385922,2.003533 -4.71875,1.75 1.801148,-0.509136 2.19771,-2.016816 2.28125,-2.625 C -25.540778,16.864511 -27,14.833905 -27,12.53125 -27,8.91629 -23.418278,6 -19,6 z"
         id="path3678" />
    </clipPath>
    <linearGradient
       inkscape:collect="always"
       xlink:href="#linearGradient3614"
       id="linearGradient3680"
       gradientUnits="userSpaceOnUse"
       gradientTransform="translate(-18.880628,-4.2581977)"
       x1="-3.0607977"
       y1="27.258198"
       x2="-3.0607977"
       y2="7.2536583" />
    <filter
       inkscape:collect="always"
       id="filter3682"
       x="-0.23010001"
       width="1.4602"
       y="-0.25079018"
       height="1.5015804"
       color-interpolation-filters="sRGB">
      <feGaussianBlur
         inkscape:collect="always"
         stdDeviation="1.534"
         id="feGaussianBlur3684" />
    </filter>
    <inkscape:perspective
       id="perspective3866"
       inkscape:persp3d-origin="0.5 : 0.33333333 : 1"
       inkscape:vp_z="1 : 0.5 : 1"
       inkscape:vp_y="0 : 1000 : 0"
       inkscape:vp_x="0 : 0.5 : 1"
       sodipodi:type="inkscape:persp3d" />
    <linearGradient
       inkscape:collect="always"
       xlink:href="#linearGradient3697"
       id="linearGradient3703"
       x1="46.125015"
       y1="63.048103"
       x2="46.125015"
       y2="24.840103"
       gradientUnits="userSpaceOnUse" />
    <linearGradient
       id="linearGradient3697">
      <stop
         style="stop-color:#dcdcdc;stop-opacity:1;"
         offset="0"
         id="stop3699" />
      <stop
         style="stop-color:#f0f0f0;stop-opacity:1;"
         offset="1"
         id="stop3701" />
    </linearGradient>
    <linearGradient
       inkscape:collect="always"
       xlink:href="#linearGradient3697"
       id="linearGradient3761"
       gradientUnits="userSpaceOnUse"
       x1="46.125015"
       y1="63.048103"
       x2="46.125015"
       y2="24.840103" />
    <linearGradient
       id="linearGradient3875">
      <stop
         style="stop-color:#dcdcdc;stop-opacity:1;"
         offset="0"
         id="stop3877" />
      <stop
         style="stop-color:#f0f0f0;stop-opacity:1;"
         offset="1"
         id="stop3879" />
    </linearGradient>
    <linearGradient
       y2="24.840103"
       x2="46.125015"
       y1="63.048103"
       x1="46.125015"
       gradientUnits="userSpaceOnUse"
       id="linearGradient3883"
       xlink:href="#linearGradient3697"
       inkscape:collect="always" />
    <inkscape:perspective
       id="perspective4213"
       inkscape:persp3d-origin="0.5 : 0.33333333 : 1"
       inkscape:vp_z="1 : 0.5 : 1"
       inkscape:vp_y="0 : 1000 : 0"
       inkscape:vp_x="0 : 0.5 : 1"
       sodipodi:type="inkscape:persp3d" />
    <linearGradient
       inkscape:collect="always"
       xlink:href="#linearGradient3614-7"
       id="linearGradient3617-7"
       gradientUnits="userSpaceOnUse"
       x1="48"
       y1="90"
       x2="48"
       y2="5.9877172" />
    <linearGradient
       id="linearGradient3614-7">
      <stop
         id="stop3616-6"
         offset="0"
         style="stop-color:#418f0d;stop-opacity:1;" />
      <stop
         id="stop3618-7"
         offset="1"
         style="stop-color:#8bdb14;stop-opacity:1;" />
    </linearGradient>
    <linearGradient
       gradientTransform="translate(-78.265018,-32.360424)"
       y2="5.9877172"
       x2="48"
       y1="90"
       x1="48"
       gradientUnits="userSpaceOnUse"
       id="linearGradient4222"
       xlink:href="#linearGradient3614-7"
       inkscape:collect="always" />
    <inkscape:perspective
       id="perspective4232"
       inkscape:persp3d-origin="0.5 : 0.33333333 : 1"
       inkscape:vp_z="1 : 0.5 : 1"
       inkscape:vp_y="0 : 1000 : 0"
       inkscape:vp_x="0 : 0.5 : 1"
       sodipodi:type="inkscape:persp3d" />
    <linearGradient
       inkscape:collect="always"
       xlink:href="#linearGradient3697-0"
       id="linearGradient4190"
       x1="71.671646"
       y1="62.025059"
       x2="71.671646"
       y2="26.413651"
       gradientUnits="userSpaceOnUse"
       gradientTransform="translate(-25,-0.34739)" />
    <linearGradient
       id="linearGradient3697-0">
      <stop
         style="stop-color:#dcdcdc;stop-opacity:1;"
         offset="0"
         id="stop3699-5" />
      <stop
         style="stop-color:#f0f0f0;stop-opacity:1;"
         offset="1"
         id="stop3701-6" />
    </linearGradient>
    <linearGradient
       y2="26.413651"
       x2="71.671646"
       y1="62.025059"
       x1="71.671646"
       gradientTransform="translate(-61.612113,-28.872125)"
       gradientUnits="userSpaceOnUse"
       id="linearGradient4241"
       xlink:href="#linearGradient3697-0"
       inkscape:collect="always" />
    <linearGradient
       inkscape:collect="always"
       xlink:href="#linearGradient3697-0"
       id="linearGradient3700"
       gradientUnits="userSpaceOnUse"
       gradientTransform="matrix(0.24908185,-0.02140634,0.02140634,0.24908185,-8.2754266,1.0033486)"
       x1="71.671646"
       y1="62.025059"
       x2="71.671646"
       y2="26.413651" />
    <inkscape:perspective
       id="perspective2919"
       inkscape:persp3d-origin="0.5 : 0.33333333 : 1"
       inkscape:vp_z="1 : 0.5 : 1"
       inkscape:vp_y="0 : 1000 : 0"
       inkscape:vp_x="0 : 0.5 : 1"
       sodipodi:type="inkscape:persp3d" />
    <linearGradient
       inkscape:collect="always"
       xlink:href="#linearGradient3731"
       id="linearGradient3664"
       gradientUnits="userSpaceOnUse"
       x1="48.082497"
       y1="75.561722"
       x2="46.654823"
       y2="16.972879"
       gradientTransform="translate(-94.526458,-39.885159)" />
    <linearGradient
       id="linearGradient3731">
      <stop
         id="stop3733"
         offset="0"
         style="stop-color:#dcdcdc;stop-opacity:1;" />
      <stop
         style="stop-color:#ebebeb;stop-opacity:1;"
         offset="0.30654153"
         id="stop3757" />
      <stop
         style="stop-color:#ffffff;stop-opacity:1"
         offset="0.70706075"
         id="stop3737" />
      <stop
         id="stop3759"
         offset="0.84501493"
         style="stop-color:#fafafa;stop-opacity:1" />
      <stop
         id="stop3735"
         offset="1"
         style="stop-color:#f0f0f0;stop-opacity:1;" />
    </linearGradient>
    <linearGradient
       inkscape:collect="always"
       xlink:href="#linearGradient3614-8"
       id="linearGradient3617-8"
       gradientUnits="userSpaceOnUse"
       x1="48"
       y1="90"
       x2="48"
       y2="5.9877172" />
    <linearGradient
       id="linearGradient3614-8">
      <stop
         id="stop3616-4"
         offset="0"
         style="stop-color:#65a31b;stop-opacity:1;" />
      <stop
         id="stop3618-3"
         offset="1"
         style="stop-color:#a0de42;stop-opacity:1;" />
    </linearGradient>
    <linearGradient
       gradientTransform="translate(-94.526458,-40.885159)"
       y2="5.9877172"
       x2="48"
       y1="90"
       x1="48"
       gradientUnits="userSpaceOnUse"
       id="linearGradient2936"
       xlink:href="#linearGradient3614-8"
       inkscape:collect="always" />
    <linearGradient
       inkscape:collect="always"
       xlink:href="#linearGradient3731"
       id="linearGradient3712"
       gradientUnits="userSpaceOnUse"
       gradientTransform="matrix(0.24242424,0,0,0.24242462,-0.636364,2.878782)"
       x1="45.789646"
       y1="78.067055"
       x2="45.789646"
       y2="17.246193" />
    <linearGradient
       inkscape:collect="always"
       xlink:href="#linearGradient3731"
       id="linearGradient3714"
       gradientUnits="userSpaceOnUse"
       gradientTransform="matrix(0.24242424,0,0,0.24242462,-0.636364,-0.121218)"
       x1="45.789646"
       y1="78.067055"
       x2="45.789646"
       y2="17.246193" />
    <linearGradient
       inkscape:collect="always"
       xlink:href="#linearGradient3731"
       id="linearGradient3727"
       gradientUnits="userSpaceOnUse"
       gradientTransform="matrix(0.24242424,0,0,0.24242462,-0.636364,-18.121218)"
       x1="45.789646"
       y1="78.067055"
       x2="45.789646"
       y2="17.246193" />
    <linearGradient
       inkscape:collect="always"
       xlink:href="#linearGradient3697-0"
       id="linearGradient3735"
       gradientUnits="userSpaceOnUse"
       gradientTransform="matrix(0.24908185,-0.02140634,0.02140634,0.24908185,-8.2754266,3.5131813)"
       x1="71.671646"
       y1="62.025059"
       x2="71.671646"
       y2="26.413651" />
    <linearGradient
       inkscape:collect="always"
       xlink:href="#linearGradient3731"
       id="linearGradient3743"
       gradientUnits="userSpaceOnUse"
       gradientTransform="matrix(0.24242424,0,0,0.24242462,-0.636364,2.878782)"
       x1="45.789646"
       y1="78.067055"
       x2="45.789646"
       y2="17.246193" />
    <linearGradient
       inkscape:collect="always"
       xlink:href="#linearGradient3731"
       id="linearGradient3745"
       gradientUnits="userSpaceOnUse"
       gradientTransform="matrix(0.24242424,0,0,0.24242462,-0.636364,1.878782)"
       x1="45.789646"
       y1="78.067055"
       x2="45.789646"
       y2="17.246193" />
    <inkscape:perspective
       id="perspective4843"
       inkscape:persp3d-origin="0.5 : 0.33333333 : 1"
       inkscape:vp_z="1 : 0.5 : 1"
       inkscape:vp_y="0 : 1000 : 0"
       inkscape:vp_x="0 : 0.5 : 1"
       sodipodi:type="inkscape:persp3d" />
    <linearGradient
       inkscape:collect="always"
       xlink:href="#linearGradient2881"
       id="linearGradient3617-9"
       gradientUnits="userSpaceOnUse"
       x1="48"
       y1="90"
       x2="48"
       y2="5.9877172" />
    <linearGradient
       id="linearGradient2881">
      <stop
         style="stop-color:#a90c0c;stop-opacity:1;"
         offset="0"
         id="stop2883" />
      <stop
         style="stop-color:#f05530;stop-opacity:1;"
         offset="1"
         id="stop2885" />
    </linearGradient>
    <linearGradient
       gradientTransform="translate(-84.788427,-46.981006)"
       y2="5.9877172"
       x2="48"
       y1="90"
       x1="48"
       gradientUnits="userSpaceOnUse"
       id="linearGradient4852"
       xlink:href="#linearGradient2881"
       inkscape:collect="always" />
    <linearGradient
       inkscape:collect="always"
       xlink:href="#linearGradient3731"
       id="linearGradient3717"
       gradientUnits="userSpaceOnUse"
       gradientTransform="matrix(0.24242424,0,0,0.24242462,-0.636364,1.878782)"
       x1="45.789646"
       y1="78.067055"
       x2="45.789646"
       y2="17.246193" />
    <linearGradient
       inkscape:collect="always"
       xlink:href="#linearGradient3731"
       id="linearGradient3730"
       gradientUnits="userSpaceOnUse"
       gradientTransform="matrix(0.24242424,0,0,0.24242462,-0.636364,1.878782)"
       x1="45.789646"
       y1="78.067055"
       x2="45.789646"
       y2="17.246193" />
    <linearGradient
       inkscape:collect="always"
       xlink:href="#linearGradient3731"
       id="linearGradient3755"
       gradientUnits="userSpaceOnUse"
       gradientTransform="matrix(0.24242424,0,0,0.24242462,-0.636364,2.878782)"
       x1="45.789646"
       y1="78.067055"
       x2="45.789646"
       y2="17.246193" />
    <linearGradient
       inkscape:collect="always"
       xlink:href="#linearGradient3731"
       id="linearGradient3757"
       gradientUnits="userSpaceOnUse"
       gradientTransform="matrix(0.24242424,0,0,0.24242462,-0.636364,-0.121218)"
       x1="45.789646"
       y1="78.067055"
       x2="45.789646"
       y2="17.246193" />
    <linearGradient
       inkscape:collect="always"
       xlink:href="#linearGradient3831"
       id="linearGradient3845"
       x1="11"
       y1="19.5"
       x2="21"
       y2="19.5"
       gradientUnits="userSpaceOnUse"
       spreadMethod="reflect" />
    <linearGradient
       id="linearGradient3831">
      <stop
         style="stop-color:#ffffff;stop-opacity:1;"
         offset="0"
         id="stop3833" />
      <stop
         id="stop3821"
         offset="0.75"
         style="stop-color:#ffffff;stop-opacity:0.49803922;" />
      <stop
         style="stop-color:#ffffff;stop-opacity:0;"
         offset="1"
         id="stop3835" />
    </linearGradient>
    <linearGradient
       y2="16"
       x2="10"
       y1="1"
       x1="10"
       gradientUnits="userSpaceOnUse"
       id="linearGradient3084"
       xlink:href="#linearGradient3823"
       inkscape:collect="always" />
    <linearGradient
       id="linearGradient3823">
      <stop
         id="stop3825"
         offset="0"
         style="stop-color:#ffffff;stop-opacity:1;" />
      <stop
         id="stop3829"
         offset="1"
         style="stop-color:#ffffff;stop-opacity:0;" />
    </linearGradient>
    <linearGradient
       y2="16"
       x2="10"
       y1="1"
       x1="10"
       gradientUnits="userSpaceOnUse"
       id="linearGradient3124"
       xlink:href="#linearGradient3823"
       inkscape:collect="always" />
  </defs>
  <sodipodi:namedview
     id="base"
     pagecolor="#ffffff"
     bordercolor="#e7e7e7"
     borderopacity="1"
     inkscape:pageopacity="0.0"
     inkscape:pageshadow="2"
     inkscape:zoom="17.365065"
     inkscape:cx="-20.453827"
     inkscape:cy="5.6968178"
     inkscape:document-units="px"
     inkscape:current-layer="layer1"
     showgrid="true"
     inkscape:showpageshadow="false"
     showguides="true"
     inkscape:guide-bbox="true"
     inkscape:window-width="1920"
     inkscape:window-height="1026"
     inkscape:window-x="0"
     inkscape:window-y="25"
     inkscape:window-maximized="1"
     inkscape:snap-global="false">
    <sodipodi:guide
       orientation="1,0"
       position="0,112"
       id="guide2383" />
    <sodipodi:guide
       orientation="0,1"
       position="26.278146,128"
       id="guide2385" />
    <sodipodi:guide
       orientation="1,0"
       position="128,54.082119"
       id="guide2387" />
    <sodipodi:guide
       orientation="0,1"
       position="78.156291,0"
       id="guide2389" />
    <sodipodi:guide
       orientation="0,1"
       position="60.863576,64.084768"
       id="guide2391" />
    <inkscape:grid
       type="xygrid"
       id="grid3672"
       visible="true"
       enabled="true"
       empspacing="8"
       snapvisiblegridlinesonly="true" />
  </sodipodi:namedview>
  <metadata
     id="metadata7">
    <rdf:RDF>
      <cc:Work
         rdf:about="">
        <dc:format>image/svg+xml</dc:format>
        <dc:type
           rdf:resource="http://purl.org/dc/dcmitype/StillImage" />
      </cc:Work>
    </rdf:RDF>
  </metadata>
  <g
     inkscape:label="Button"
     inkscape:groupmode="layer"
     id="layer1">
    <g
       style="display:inline"
       id="g3337">
      <rect
         ry="2.5"
         rx="2.5"
         y="0.5"
         x="0.5"
         height="21.5"
         width="21"
         id="rect3371"
         style="opacity:0.3;fill:url(#linearGradient3335);fill-opacity:1;stroke:none;display:inline" />
      <rect
         style="opacity:0.5;fill:#000000;fill-opacity:1;stroke:none;display:inline"
         id="rect2553"
         width="20"
         height="20"
         x="1"
         y="2"
         rx="2.3809524"
         ry="2.3255813" />
    </g>
    <rect
       style="fill:url(#linearGradient3181);fill-opacity:1;fill-rule:evenodd;stroke:none;display:inline"
       id="rect3173"
       width="20"
       height="20"
       x="1"
       y="1"
       rx="2"
       ry="2" />
    <path
       style="opacity:0.3;fill:url(#linearGradient3124);fill-opacity:1;fill-rule:evenodd;stroke:none;display:inline"
       d="M 3,1 C 1.892,1 1,1.892 1,3 l 0,16 c 0,1.108 0.892,2 2,2 l 16,0 c 1.108,0 2,-0.892 2,-2 L 21,3 C 21,1.892 20.108,1 19,1 L 3,1 z m 0,1.03125 16,0 c 0.5497,0 0.96875,0.4190495 0.96875,0.96875 l 0,16 c 0,0.5497 -0.41905,0.96875 -0.96875,0.96875 l -16,0 C 2.4502995,19.96875 2.03125,19.5497 2.03125,19 l 0,-16 C 2.03125,2.4502995 2.4502995,2.03125 3,2.03125 z"
       id="rect3050"
       inkscape:connector-curvature="0" />
    <path
       id="path3235"
       d="M 3,21 C 1.892,21 1,20.108 1,19 l 0,-1 c 0,1.108 0.892,2 2,2 l 16,0 c 1.108,0 2,-0.892 2,-2 l 0,1 c 0,1.108 -0.892,2 -2,2 L 3,21 z"
       style="opacity:0.15;fill:url(#linearGradient3845);fill-opacity:1;fill-rule:evenodd;stroke:none;display:inline"
       inkscape:connector-curvature="0" />
  </g>
  <g
     inkscape:groupmode="layer"
     id="layer4"
     inkscape:label="Bubble"
     style="display:inline"
     transform="translate(0,-2)">
    <path
       sodipodi:type="inkscape:offset"
       inkscape:radius="0.53254139"
       inkscape:original="M 11 6 C 6.3607398 6 2.5 9.0845725 2.5 13.03125 C 2.5 15.407873 3.940401 17.452559 6.0625 18.71875 C 6.0067604 18.978188 5.9670691 19.258745 5.75 19.59375 C 5.4705569 20.025018 5.034995 20.465603 4.25 20.6875 A 0.50224361 0.50224361 0 0 0 4.3125 21.65625 C 6.6671049 21.91215 8.3176124 20.836025 9.25 19.9375 C 9.8188987 20.036915 10.395647 20.09375 11 20.09375 C 15.641628 20.09375 19.5 16.977927 19.5 13.03125 C 19.5 9.0845725 15.63926 6 11 6 z M 11.1875 8.96875 C 11.406515 8.9499343 11.529897 8.9931063 11.65625 9.09375 C 11.803352 9.2088613 11.862314 9.2899081 11.875 9.4375 C 11.887299 9.5806169 11.844167 9.7051105 11.71875 9.84375 C 11.590935 9.9848582 11.503712 10.046074 11.3125 10.0625 C 11.131273 10.07808 11.00287 10.028391 10.84375 9.90625 C 10.696661 9.7911611 10.637685 9.7101118 10.625 9.5625 C 10.612437 9.4163163 10.640225 9.3433965 10.78125 9.1875 C 10.91358 9.0412233 10.992138 8.9855455 11.1875 8.96875 z M 10.40625 12.09375 C 10.791221 12.060671 11.043304 12.132797 11.15625 12.21875 C 11.293 12.31934 11.385672 12.44862 11.40625 12.6875 C 11.407265 12.699311 11.409575 12.846048 11.40625 13.03125 C 11.406582 13.158346 11.374956 13.287925 11.34375 13.4375 L 11.03125 15.125 C 10.999825 15.286157 10.985444 15.471626 10.96875 15.65625 C 10.954815 15.810653 10.918399 15.902659 10.9375 16.125 C 10.962946 16.421073 11.051091 16.739982 11.34375 16.9375 C 11.253051 16.95677 11.199189 16.990939 11.09375 17 C 10.74124 17.030293 10.502915 16.952096 10.34375 16.84375 C 10.178577 16.719813 10.113503 16.636074 10.09375 16.40625 C 10.085702 16.313278 10.086894 16.194174 10.09375 16.0625 C 10.101191 15.90952 10.109136 15.778662 10.125 15.65625 C 10.126214 15.646885 10.123578 15.634473 10.125 15.625 L 10.4375 13.9375 C 10.468293 13.758567 10.484705 13.588046 10.5 13.4375 C 10.515251 13.312746 10.549316 13.179011 10.53125 12.96875 C 10.504683 12.659686 10.399601 12.352023 10.15625 12.15625 C 10.238981 12.140104 10.321153 12.101067 10.40625 12.09375 z "
       style="opacity:0.07999998;fill:#000000;fill-opacity:1;stroke:none;display:inline"
       id="path3698"
       d="m 11,5.46875 c -4.8753126,0 -9.03125,3.2685255 -9.03125,7.5625 0,2.443331 1.4253191,4.518175 3.46875,5.875 -0.033118,0.124 -0.034823,0.267079 -0.125,0.40625 -0.2321251,0.358242 -0.5616964,0.689269 -1.21875,0.875 3.922e-4,-1.32e-4 -0.062886,1.48e-4 -0.0625,0 3.864e-4,-1.48e-4 -0.03163,0.03141 -0.03125,0.03125 3.801e-4,-1.63e-4 -0.031623,1.79e-4 -0.03125,0 3.731e-4,-1.79e-4 -0.031615,0.03144 -0.03125,0.03125 3.654e-4,-1.94e-4 -0.062857,0.03146 -0.0625,0.03125 3.572e-4,-2.09e-4 -0.031598,2.23e-4 -0.03125,0 3.483e-4,-2.23e-4 -0.031589,0.03149 -0.03125,0.03125 3.389e-4,-2.37e-4 -0.031579,0.0315 -0.03125,0.03125 3.289e-4,-2.51e-4 -0.031568,0.03151 -0.03125,0.03125 3.183e-4,-2.64e-4 -0.031557,0.03153 -0.03125,0.03125 3.072e-4,-2.77e-4 -0.031546,0.03154 -0.03125,0.03125 2.956e-4,-2.89e-4 -0.031534,0.03155 -0.03125,0.03125 2.835e-4,-3.01e-4 -0.031521,0.03156 -0.03125,0.03125 2.709e-4,-3.13e-4 -0.031508,0.03157 -0.03125,0.03125 2.579e-4,-3.24e-4 -0.031494,0.03158 -0.03125,0.03125 2.444e-4,-3.34e-4 -2.305e-4,0.03159 0,0.03125 2.305e-4,-3.44e-4 -0.031466,0.0316 -0.03125,0.03125 2.163e-4,-3.53e-4 -0.031452,0.03161 -0.03125,0.03125 2.017e-4,-3.61e-4 -1.867e-4,0.03162 0,0.03125 1.867e-4,-3.69e-4 -0.031421,0.06288 -0.03125,0.0625 1.714e-4,-3.77e-4 -0.031406,0.03163 -0.03125,0.03125 1.558e-4,-3.83e-4 -1.4e-4,0.03164 0,0.03125 1.4e-4,-3.89e-4 -1.24e-4,0.03165 0,0.03125 1.24e-4,-3.95e-4 -0.031358,0.0629 -0.03125,0.0625 1.077e-4,-3.99e-4 -9.12e-5,0.03165 0,0.03125 9.12e-5,-4.04e-4 -7.46e-5,0.03166 0,0.03125 7.46e-5,-4.07e-4 -0.031308,0.06291 -0.03125,0.0625 5.79e-5,-4.1e-4 -4.11e-5,0.03166 0,0.03125 4.11e-5,-4.12e-4 -2.42e-5,0.03166 0,0.03125 2.42e-5,-4.13e-4 -7.2e-6,0.06291 0,0.0625 7.2e-6,-4.14e-4 9.7e-6,0.03166 0,0.03125 -9.7e-6,-4.14e-4 2.66e-5,0.03166 0,0.03125 -2.66e-5,-4.13e-4 4.35e-5,0.06291 0,0.0625 -4.35e-5,-4.11e-4 6.03e-5,0.03166 0,0.03125 -6.03e-5,-4.09e-4 0.031327,0.03166 0.03125,0.03125 -7.71e-5,-4.06e-4 9.36e-5,0.0629 0,0.0625 -9.36e-5,-4.03e-4 1.101e-4,0.03165 0,0.03125 -1.101e-4,-3.99e-4 0.031376,0.03164 0.03125,0.03125 -1.263e-4,-3.94e-4 1.423e-4,0.06289 0,0.0625 -1.423e-4,-3.88e-4 0.031408,0.03163 0.03125,0.03125 -1.581e-4,-3.82e-4 1.737e-4,0.03163 0,0.03125 -1.737e-4,-3.76e-4 0.031439,0.03162 0.03125,0.03125 -1.889e-4,-3.68e-4 2.038e-4,0.06286 0,0.0625 -2.038e-4,-3.6e-4 0.031468,0.0316 0.03125,0.03125 -2.184e-4,-3.51e-4 0.031483,0.03159 0.03125,0.03125 -2.326e-4,-3.42e-4 0.031496,0.03158 0.03125,0.03125 -2.464e-4,-3.32e-4 2.598e-4,0.03157 0,0.03125 -2.598e-4,-3.22e-4 0.031523,0.03156 0.03125,0.03125 -2.728e-4,-3.11e-4 0.031535,0.03155 0.03125,0.03125 -2.853e-4,-3e-4 0.031547,0.03154 0.03125,0.03125 -2.973e-4,-2.88e-4 0.031559,0.03152 0.03125,0.03125 -3.089e-4,-2.75e-4 0.03157,0.03151 0.03125,0.03125 -3.199e-4,-2.62e-4 0.03158,0.0315 0.03125,0.03125 -3.304e-4,-2.49e-4 0.03159,2.35e-4 0.03125,0 -3.403e-4,-2.35e-4 0.0316,0.03147 0.03125,0.03125 -3.496e-4,-2.21e-4 0.062858,0.03146 0.0625,0.03125 -3.584e-4,-2.07e-4 0.031617,0.03144 0.03125,0.03125 -3.666e-4,-1.92e-4 0.031624,1.77e-4 0.03125,0 -3.741e-4,-1.77e-4 0.031631,0.03141 0.03125,0.03125 -3.81e-4,-1.61e-4 0.031637,1.45e-4 0.03125,0 -3.873e-4,-1.45e-4 0.062893,0.03138 0.0625,0.03125 -3.929e-4,-1.29e-4 0.031648,1.13e-4 0.03125,0 -3.979e-4,-1.13e-4 0.031652,9.7e-5 0.03125,0 -4.022e-4,-9.7e-5 0.062906,0.03133 0.0625,0.03125 a 0.53259465,0.53259465 0 0 0 0.03125,0 C 6.6350666,22.446711 8.3691656,21.427183 9.40625,20.5 9.9238636,20.57929 10.449025,20.625 11,20.625 c 4.87995,0 9.03125,-3.299989 9.03125,-7.59375 0,-4.2939745 -4.155938,-7.5625 -9.03125,-7.5625 z M 11.21875,9.5 c 0.132806,-0.011409 0.04149,-0.041622 0.09375,0 -0.09833,0.1085613 0.06131,0.023299 -0.03125,0.03125 -0.03178,0.00273 -0.05881,-0.028586 -0.0625,-0.03125 z" />
    <path
       style="opacity:0.3;fill:#000000;fill-opacity:1;stroke:none;display:inline"
       d="m 11,-13.5 c -4.418278,0 -8,2.930505 -8,6.545465 0,2.302655 1.454487,4.325694 3.651515,5.492433 C 6.567965,-0.853918 6.187512,0.634826 4.386364,1.143962 6.719191,1.397495 8.268449,0.260008 9.090909,-0.598465 9.702668,-0.475919 10.342077,-0.40907 11,-0.40907 c 4.418278,0 8,-2.930505 8,-6.545465 C 19,-10.569495 15.418278,-13.5 11,-13.5 z"
       id="path3729" />
    <path
       id="path3668"
       d="m -19,6 c -4.418278,0 -8,2.930505 -8,6.545465 0,2.302655 1.454487,4.325694 3.651515,5.492433 -0.08354,0.608184 -0.464003,2.096928 -2.265151,2.606064 2.332828,0.253533 3.882085,-0.883954 4.704545,-1.742427 0.611759,0.122546 1.251168,0.189395 1.909091,0.189395 4.418278,0 8,-2.930505 8,-6.545465 C -11,8.930505 -14.581722,6 -19,6 z"
       style="opacity:0.2;fill:#ffffff;fill-opacity:1;stroke:none;display:inline;filter:url(#filter3682)"
       clip-path="url(#clipPath3676)"
       transform="translate(30,0)" />
    <path
       sodipodi:type="inkscape:offset"
       inkscape:radius="0.52212358"
       inkscape:original="M 11 6.5 C 6.581722 6.5 3 9.41629 3 13.03125 C 3 15.333905 4.459222 17.364511 6.65625 18.53125 C 6.5727 19.139434 6.176148 20.647114 4.375 21.15625 C 6.707827 21.409783 8.27129 20.264723 9.09375 19.40625 C 9.705509 19.528796 10.342077 19.59375 11 19.59375 C 15.418278 19.59375 19 16.64621 19 13.03125 C 19 9.41629 15.418278 6.5 11 6.5 z M 9 9 L 11 11 L 13 9 L 15 11 L 13 13 L 15 15 L 13 17 L 11 15 L 9 17 L 7 15 L 9 13 L 7 11 L 9 9 z "
       style="opacity:0.15;fill:#000000;fill-opacity:1;stroke:none;display:inline"
       id="path3728"
       d="m 11,5.96875 c -4.6480302,0 -8.53125,3.1026581 -8.53125,7.0625 0,2.376171 1.4478791,4.448244 3.5625,5.71875 -0.05713,0.255047 -0.103948,0.52189 -0.3125,0.84375 -0.2772492,0.427882 -0.7195919,0.8419 -1.5,1.0625 A 0.52217579,0.52217579 0 0 0 4.3125,21.6875 c 2.3836099,0.259052 4.0386142,-0.843833 4.96875,-1.75 0.5607268,0.09624 1.123834,0.1875 1.71875,0.1875 4.650492,0 8.53125,-3.133908 8.53125,-7.09375 0,-3.9598419 -3.88322,-7.0625 -8.53125,-7.0625 z M 9,9.75 l 1.625,1.625 a 0.52217579,0.52217579 0 0 0 0.75,0 L 13,9.75 14.25,11 12.625,12.625 a 0.52217579,0.52217579 0 0 0 0,0.75 L 14.25,15 13,16.25 11.375,14.625 a 0.52217579,0.52217579 0 0 0 -0.75,0 L 9,16.25 7.75,15 9.375,13.375 a 0.52217579,0.52217579 0 0 0 0,-0.75 L 7.75,11 9,9.75 z" />
    <path
       style="opacity:0.3;fill:#000000;fill-opacity:1;stroke:none;display:inline"
       d="m 11,6.5 c -4.418278,0 -8,2.91629 -8,6.53125 0,2.302655 1.459222,4.333261 3.65625,5.5 -0.08355,0.608184 -0.480102,2.115864 -2.28125,2.625 2.332827,0.253533 3.89629,-0.891527 4.71875,-1.75 0.611759,0.122546 1.248327,0.1875 1.90625,0.1875 4.418278,0 8,-2.94754 8,-6.5625 C 19,9.41629 15.418278,6.5 11,6.5 z M 9,9 l 2,2 2,-2 2,2 -2,2 2,2 -2,2 L 11,15 9,17 7,15 9,13 7,11 9,9 z"
       id="path3721" />
    <path
       style="fill:url(#linearGradient3730);fill-opacity:1;stroke:none;display:inline"
       d="m 11,6 c -4.418278,0 -8,2.91629 -8,6.53125 0,2.302655 1.459222,4.333261 3.65625,5.5 -0.08355,0.608184 -0.480102,2.115864 -2.28125,2.625 2.332827,0.253533 3.89629,-0.891527 4.71875,-1.75 0.611759,0.122546 1.248327,0.1875 1.90625,0.1875 4.418278,0 8,-2.94754 8,-6.5625 C 19,8.91629 15.418278,6 11,6 z m -2,2.5 2,2 2,-2 2,2 -2,2 2,2 -2,2 -2,-2 -2,2 -2,-2 2,-2 -2,-2 2,-2 z"
       id="path3620" />
    <path
       id="path3725"
       d="m 11,-14 c -4.418278,0 -8,2.930505 -8,6.545465 0,2.302655 1.454487,4.325694 3.651515,5.492433 C 6.567965,-1.353918 6.187512,0.134826 4.386364,0.643962 6.719191,0.897495 8.268449,-0.239992 9.090909,-1.098465 9.702668,-0.975919 10.342077,-0.90907 11,-0.90907 c 4.418278,0 8,-2.930505 8,-6.545465 C 19,-11.069495 15.418278,-14 11,-14 z"
       style="fill:url(#linearGradient3727);fill-opacity:1;stroke:none;display:inline" />
    <path
       style="fill:#ffffff;fill-opacity:1;stroke:none;display:inline"
       d="M 11 4 C 6.581722 4 3 6.91629 3 10.53125 C 3 10.64866 3.023758 10.759083 3.03125 10.875 C 3.4409299 7.5759716 6.8578644 5 11 5 C 15.142136 5 18.55907 7.5759716 18.96875 10.875 C 18.976362 10.757927 19 10.64984 19 10.53125 C 19 6.91629 15.418278 4 11 4 z M 7.5 9 L 7 9.5 L 8.5 11 L 9 10.5 L 7.5 9 z M 14.5 9 L 13 10.5 L 13.5 11 L 15 9.5 L 14.5 9 z M 11 12.5 L 9 14.5 L 7.5 13 L 7 13.5 L 9 15.5 L 11 13.5 L 13 15.5 L 15 13.5 L 14.5 13 L 13 14.5 L 11 12.5 z M 6.40625 16.875 C 6.1293774 17.538045 5.5713246 18.318081 4.375 18.65625 C 4.9582068 18.719633 5.4812706 18.71011 5.96875 18.625 C 6.4471791 18.034821 6.6075125 17.386024 6.65625 17.03125 C 6.5673996 16.984066 6.4926393 16.924971 6.40625 16.875 z "
       transform="translate(0,2)"
       id="path3751" />
  </g>
  <g
     inkscape:groupmode="layer"
     id="layer2"
     inkscape:label="Highlight"
     sodipodi:insensitive="true"
     style="display:none">
    <rect
       style="opacity:0.15;fill:#ffffff;fill-opacity:1;fill-rule:nonzero;stroke:none;display:inline;filter:url(#filter3194)"
       id="rect2410"
       width="16"
       height="16"
       x="3"
       y="3"
       rx="2"
       ry="2"
       clip-path="url(#clipPath2849)" />
  </g>
</svg>
