<?xml version="1.0" encoding="UTF-8" standalone="no"?>
<!-- Created with Inkscape (http://www.inkscape.org/) -->

<svg
   xmlns:dc="http://purl.org/dc/elements/1.1/"
   xmlns:cc="http://creativecommons.org/ns#"
   xmlns:rdf="http://www.w3.org/1999/02/22-rdf-syntax-ns#"
   xmlns:svg="http://www.w3.org/2000/svg"
   xmlns="http://www.w3.org/2000/svg"
   xmlns:xlink="http://www.w3.org/1999/xlink"
   xmlns:sodipodi="http://sodipodi.sourceforge.net/DTD/sodipodi-0.dtd"
   xmlns:inkscape="http://www.inkscape.org/namespaces/inkscape"
   width="96"
   height="96"
   id="svg2408"
   sodipodi:version="0.32"
   inkscape:version="0.48.0 r9654"
   version="1.0"
   sodipodi:docname="edit-cut.svg"
   inkscape:output_extension="org.inkscape.output.svg.inkscape">
  <defs
     id="defs2410">
    <linearGradient
       id="linearGradient3637">
      <stop
         style="stop-color:#f0f0f0;stop-opacity:1;"
         offset="0"
         id="stop3639" />
      <stop
         style="stop-color:#aaaaaa;stop-opacity:1;"
         offset="1"
         id="stop3641" />
    </linearGradient>
    <linearGradient
       id="ButtonShadow"
       gradientTransform="scale(1.0058652,0.994169)"
       x1="45.447727"
       y1="92.539597"
       x2="45.447727"
       y2="7.0165396"
       gradientUnits="userSpaceOnUse">
      <stop
         style="stop-color:#000000;stop-opacity:1;"
         offset="0"
         id="stop3750" />
      <stop
         style="stop-color:#000000;stop-opacity:0.58823532;"
         offset="1"
         id="stop3752" />
    </linearGradient>
    <linearGradient
       inkscape:collect="always"
       id="linearGradient3737">
      <stop
         style="stop-color:#ffffff;stop-opacity:1;"
         offset="0"
         id="stop3739" />
      <stop
         style="stop-color:#ffffff;stop-opacity:0;"
         offset="1"
         id="stop3741" />
    </linearGradient>
    <linearGradient
       id="linearGradient3700">
      <stop
         style="stop-color:#2276c5;stop-opacity:1;"
         offset="0"
         id="stop3702" />
      <stop
         style="stop-color:#68baf4;stop-opacity:1;"
         offset="1"
         id="stop3704" />
    </linearGradient>
    <filter
       inkscape:collect="always"
       id="filter3174">
      <feGaussianBlur
         inkscape:collect="always"
         stdDeviation="1.71"
         id="feGaussianBlur3176" />
    </filter>
    <linearGradient
       inkscape:collect="always"
       xlink:href="#linearGradient3737"
       id="linearGradient3188"
       gradientUnits="userSpaceOnUse"
       x1="36.357143"
       y1="6"
       x2="36.357143"
       y2="63.893143" />
    <filter
       inkscape:collect="always"
       id="filter3794"
       x="-0.192"
       width="1.384"
       y="-0.192"
       height="1.384">
      <feGaussianBlur
         inkscape:collect="always"
         stdDeviation="5.28"
         id="feGaussianBlur3796" />
    </filter>
    <linearGradient
       inkscape:collect="always"
       xlink:href="#linearGradient3737"
       id="linearGradient3613"
       x1="48"
       y1="20.220806"
       x2="48"
       y2="138.66119"
       gradientUnits="userSpaceOnUse" />
    <radialGradient
       inkscape:collect="always"
       xlink:href="#linearGradient3737"
       id="radialGradient3619"
       cx="48"
       cy="90.171875"
       fx="48"
       fy="90.171875"
       r="42"
       gradientTransform="matrix(1.1573129,0,0,0.99590774,-7.5510206,0.19713193)"
       gradientUnits="userSpaceOnUse" />
    <clipPath
       clipPathUnits="userSpaceOnUse"
       id="clipPath3613">
      <rect
         ry="6"
         rx="6"
         y="6"
         x="6"
         height="84"
         width="84"
         id="rect3615"
         style="fill:#ffffff;fill-opacity:1;fill-rule:nonzero;stroke:none" />
    </clipPath>
    <linearGradient
       inkscape:collect="always"
       xlink:href="#linearGradient3700"
       id="linearGradient2843"
       gradientUnits="userSpaceOnUse"
       x1="48"
       y1="90"
       x2="48"
       y2="5.9877172"
       gradientTransform="translate(0,100)" />
    <clipPath
       clipPathUnits="userSpaceOnUse"
       id="clipPath3625">
      <path
         style="fill:#ffffff;fill-opacity:1;stroke:none"
         d="M 0,0 0,96 96,96 96,0 0,0 z m 12,6 72,0 c 3.324,0 6,2.676 6,6 l 0,72 c 0,3.324 -2.676,6 -6,6 L 12,90 C 8.676,90 6,87.324 6,84 L 6,12 C 6,8.676 8.676,6 12,6 z"
         id="path3627" />
    </clipPath>
    <linearGradient
       inkscape:collect="always"
       xlink:href="#linearGradient3637"
       id="linearGradient3643"
       x1="44.512066"
       y1="6"
       x2="44.512066"
       y2="90.015434"
       gradientUnits="userSpaceOnUse" />
    <clipPath
       clipPathUnits="userSpaceOnUse"
       id="clipPath3649">
      <rect
         style="fill:#ffffff;fill-opacity:1;fill-rule:nonzero;stroke:none"
         id="rect3651"
         width="76"
         height="76"
         x="10"
         y="10"
         rx="4"
         ry="4" />
    </clipPath>
    <filter
       inkscape:collect="always"
       id="filter3657">
      <feGaussianBlur
         inkscape:collect="always"
         stdDeviation="1.14"
         id="feGaussianBlur3659" />
    </filter>
    <linearGradient
       id="ButtonShadow-0"
       gradientTransform="matrix(1.0058652,0,0,0.994169,100,0)"
       x1="45.447727"
       y1="92.539597"
       x2="45.447727"
       y2="7.0165396"
       gradientUnits="userSpaceOnUse">
      <stop
         style="stop-color:#000000;stop-opacity:1;"
         offset="0"
         id="stop3750-8" />
      <stop
         style="stop-color:#000000;stop-opacity:0.58823532;"
         offset="1"
         id="stop3752-5" />
    </linearGradient>
    <linearGradient
       inkscape:collect="always"
       xlink:href="#ButtonShadow-0"
       id="linearGradient3780"
       gradientUnits="userSpaceOnUse"
       gradientTransform="matrix(1.0238095,0,0,-1.0119048,-1.1428571,98.071429)"
       x1="32.251034"
       y1="6.1317081"
       x2="32.251034"
       y2="90.238609" />
    <linearGradient
       inkscape:collect="always"
       xlink:href="#ButtonShadow-0"
       id="linearGradient3772"
       gradientUnits="userSpaceOnUse"
       gradientTransform="matrix(1.0238095,0,0,-1.0119048,-1.1428571,98.071429)"
       x1="32.251034"
       y1="6.1317081"
       x2="32.251034"
       y2="90.238609" />
    <linearGradient
       inkscape:collect="always"
       xlink:href="#ButtonShadow-0"
       id="linearGradient3725"
       gradientUnits="userSpaceOnUse"
       gradientTransform="matrix(1.0238095,0,0,-1.0119048,-1.1428571,98.071429)"
       x1="32.251034"
       y1="6.1317081"
       x2="32.251034"
       y2="90.238609" />
    <linearGradient
       inkscape:collect="always"
       xlink:href="#ButtonShadow-0"
       id="linearGradient3721"
       gradientUnits="userSpaceOnUse"
       gradientTransform="matrix(1,0,0,-1,0,97)"
       x1="32.251034"
       y1="6.1317081"
       x2="32.251034"
       y2="90.238609" />
    <linearGradient
       y2="90.238609"
       x2="32.251034"
       y1="6.1317081"
       x1="32.251034"
       gradientTransform="matrix(1.0238095,0,0,-1.0119048,-1.1428571,98.071429)"
       gradientUnits="userSpaceOnUse"
       id="linearGradient3199"
       xlink:href="#ButtonShadow-0"
       inkscape:collect="always" />
    <linearGradient
       inkscape:collect="always"
       xlink:href="#linearGradient3737-3"
       id="linearGradient3188-8"
       gradientUnits="userSpaceOnUse"
       x1="36.357143"
       y1="6"
       x2="36.357143"
       y2="63.893143" />
    <linearGradient
       inkscape:collect="always"
       id="linearGradient3737-3">
      <stop
         style="stop-color:#ffffff;stop-opacity:1;"
         offset="0"
         id="stop3739-6" />
      <stop
         style="stop-color:#ffffff;stop-opacity:0;"
         offset="1"
         id="stop3741-1" />
    </linearGradient>
    <radialGradient
       inkscape:collect="always"
       xlink:href="#linearGradient3737-3"
       id="radialGradient3619-3"
       cx="48"
       cy="90.171875"
       fx="48"
       fy="90.171875"
       r="42"
       gradientTransform="matrix(1.1573129,0,0,0.99590774,-7.551021,0.1971319)"
       gradientUnits="userSpaceOnUse" />
    <linearGradient
       inkscape:collect="always"
       xlink:href="#linearGradient3637"
       id="linearGradient3905"
       x1="104"
       y1="8"
       x2="120"
       y2="8"
       gradientUnits="userSpaceOnUse"
       gradientTransform="translate(-104,104)" />
    <linearGradient
       inkscape:collect="always"
       xlink:href="#linearGradient3183-0"
       id="linearGradient3913"
       gradientUnits="userSpaceOnUse"
       gradientTransform="translate(-144,104)"
       x1="104"
       y1="8"
       x2="120"
       y2="8" />
    <linearGradient
       y2="11.015625"
       x2="19"
       y1="11.015625"
       x1="11"
       gradientTransform="matrix(0,-3.0000004,2.9652505,0,33.335916,111.00001)"
       gradientUnits="userSpaceOnUse"
       id="linearGradient2927-4"
       xlink:href="#linearGradient3183-0"
       inkscape:collect="always" />
    <linearGradient
       id="linearGradient3183-0">
      <stop
         style="stop-color:#c80000;stop-opacity:1;"
         offset="0"
         id="stop3185-9" />
      <stop
         style="stop-color:#f3604d;stop-opacity:1;"
         offset="1"
         id="stop3187-6" />
    </linearGradient>
    <linearGradient
       inkscape:collect="always"
       xlink:href="#StandardGradient"
       id="linearGradient2411"
       gradientUnits="userSpaceOnUse"
       gradientTransform="matrix(-0.8695368,0,0,1.0420889,51.503038,1.4217285)"
       x1="46.069901"
       y1="0.92127591"
       x2="46.069901"
       y2="17.478098" />
    <linearGradient
       id="StandardGradient"
       gradientTransform="scale(0.9219544,1.0846523)"
       x1="11.998966"
       y1="0.92195445"
       x2="11.998966"
       y2="19.387045"
       gradientUnits="userSpaceOnUse">
      <stop
         style="stop-color:#000000;stop-opacity:0.86274511;"
         offset="0"
         id="stop3283" />
      <stop
         style="stop-color:#000000;stop-opacity:0.47058824;"
         offset="1"
         id="stop2651" />
    </linearGradient>
    <linearGradient
       y2="17.478098"
       x2="46.069901"
       y1="0.92127591"
       x1="46.069901"
       gradientTransform="matrix(-2.608318,0,0,3.1259164,169.50501,18.283315)"
       gradientUnits="userSpaceOnUse"
       id="linearGradient3038"
       xlink:href="#StandardGradient"
       inkscape:collect="always" />
    <linearGradient
       inkscape:collect="always"
       xlink:href="#StandardGradient"
       id="linearGradient3123"
       gradientUnits="userSpaceOnUse"
       gradientTransform="matrix(-2.608318,0,0,3.1259164,169.50501,18.283315)"
       x1="46.069901"
       y1="0.92127591"
       x2="46.069901"
       y2="17.478098" />
    <linearGradient
       inkscape:collect="always"
       xlink:href="#StandardGradient"
       id="linearGradient3129"
       gradientUnits="userSpaceOnUse"
       gradientTransform="matrix(-2.608318,0,0,3.1259164,169.50501,18.283315)"
       x1="46.069901"
       y1="0.92127591"
       x2="46.069901"
       y2="17.478098" />
    <linearGradient
       inkscape:collect="always"
       xlink:href="#StandardGradient"
       id="linearGradient3134"
       gradientUnits="userSpaceOnUse"
       gradientTransform="matrix(2.669076,0,0,3.1691493,-75.994141,18.59292)"
       x1="46.069901"
       y1="0.92127591"
       x2="46.069901"
       y2="17.478098" />
    <linearGradient
       inkscape:collect="always"
       xlink:href="#StandardGradient"
       id="linearGradient3136"
       gradientUnits="userSpaceOnUse"
       gradientTransform="matrix(-2.669076,0,0,3.1691493,171.99415,18.59292)"
       x1="46.069901"
       y1="0.92127591"
       x2="46.069901"
       y2="17.478098" />
    <linearGradient
       inkscape:collect="always"
       xlink:href="#StandardGradient"
       id="linearGradient3140"
       gradientUnits="userSpaceOnUse"
       gradientTransform="matrix(-2.669076,0,0,3.1691493,171.99415,18.59292)"
       x1="46.069901"
       y1="0.92127591"
       x2="46.069901"
       y2="17.478098" />
    <linearGradient
       inkscape:collect="always"
       xlink:href="#StandardGradient"
       id="linearGradient3144"
       gradientUnits="userSpaceOnUse"
       gradientTransform="matrix(-2.669076,0,0,3.1691493,171.99415,18.59292)"
       x1="46.069901"
       y1="0.92127591"
       x2="46.069901"
       y2="17.478098" />
    <linearGradient
       inkscape:collect="always"
       xlink:href="#linearGradient3637"
       id="linearGradient3916"
       gradientUnits="userSpaceOnUse"
       gradientTransform="matrix(-2.669076,0,0,3.1691493,171.99415,18.59292)"
       x1="46.069901"
       y1="0.92127591"
       x2="46.069901"
       y2="17.478098" />
    <linearGradient
       inkscape:collect="always"
       xlink:href="#linearGradient3637"
       id="linearGradient3922"
       gradientUnits="userSpaceOnUse"
       gradientTransform="matrix(-2.669076,0,0,3.1691493,171.99415,19.59292)"
       x1="46.069901"
       y1="0.92127591"
       x2="46.069901"
       y2="17.478098" />
    <linearGradient
       inkscape:collect="always"
       xlink:href="#linearGradient3637"
       id="linearGradient3924"
       gradientUnits="userSpaceOnUse"
       gradientTransform="matrix(-2.669076,0,0,3.1691493,171.99415,18.59292)"
       x1="46.069901"
       y1="0.92127591"
       x2="46.069901"
       y2="17.478098" />
    <linearGradient
       inkscape:collect="always"
       xlink:href="#linearGradient3637"
       id="linearGradient3929"
       gradientUnits="userSpaceOnUse"
       gradientTransform="matrix(-2.669076,0,0,3.1691493,171.99415,18.59292)"
       x1="46.069901"
       y1="0.92127591"
       x2="46.069901"
       y2="17.478098" />
    <linearGradient
       inkscape:collect="always"
       xlink:href="#linearGradient3637"
       id="linearGradient3933"
       gradientUnits="userSpaceOnUse"
       gradientTransform="matrix(-2.669076,0,0,3.1691493,171.99415,17.59292)"
       x1="46.069901"
       y1="0.92127591"
       x2="46.069901"
       y2="17.478098" />
  </defs>
  <sodipodi:namedview
     id="base"
     pagecolor="#ffffff"
     bordercolor="#666666"
     borderopacity="1.0"
     inkscape:pageopacity="0.0"
     inkscape:pageshadow="2"
     inkscape:zoom="9.1611685"
     inkscape:cx="45.715269"
     inkscape:cy="51.558028"
     inkscape:document-units="px"
     inkscape:current-layer="layer6"
     showgrid="true"
     showborder="true"
     inkscape:showpageshadow="false"
     inkscape:window-width="1920"
     inkscape:window-height="1029"
     inkscape:window-x="0"
     inkscape:window-y="25"
     inkscape:window-maximized="1"
     inkscape:snap-global="false">
    <inkscape:grid
       type="xygrid"
       id="grid3732"
       visible="true"
       enabled="true" />
  </sodipodi:namedview>
  <metadata
     id="metadata2413">
    <rdf:RDF>
      <cc:Work
         rdf:about="">
        <dc:format>image/svg+xml</dc:format>
        <dc:type
           rdf:resource="http://purl.org/dc/dcmitype/StillImage" />
        <dc:title></dc:title>
      </cc:Work>
    </rdf:RDF>
  </metadata>
  <g
     inkscape:groupmode="layer"
     id="layer2"
     inkscape:label="Blur Shadow"
     style="display:none"
     sodipodi:insensitive="true">
    <rect
       style="opacity:0.9;fill:url(#ButtonShadow);fill-opacity:1;fill-rule:nonzero;stroke:none;filter:url(#filter3174)"
       id="rect3745"
       width="86"
       height="85"
       x="5"
       y="7"
       rx="6"
       ry="6"
       clip-path="url(#clipPath3625)" />
  </g>
  <g
     inkscape:groupmode="layer"
     id="layer3"
     inkscape:label="Shadow"
     sodipodi:insensitive="true">
    <path
       style="opacity:0.07999998;fill:url(#linearGradient3199);fill-opacity:1;fill-rule:nonzero;stroke:none;display:inline"
       d="M 12,3.96875 C 6.4889098,3.96875 1.96875,8.4889098 1.96875,14 l 0,71 c 0,5.51109 4.5201597,10.03125 10.03125,10.03125 l 72,0 c 5.51109,0 10.03125,-4.52016 10.03125,-10.03125 l 0,-71 C 94.03125,8.4889097 89.51109,3.96875 84,3.96875 l -72,0 z M 12,6 84,6 c 3.324,0 6,2.676 6,6 l 0,72 c 0,3.324 -2.676,6 -6,6 L 12,90 C 8.676,90 6,87.324 6,84 L 6,12 C 6,8.676 8.676,6 12,6 z"
       id="path3786"
       inkscape:connector-curvature="0" />
    <path
       style="opacity:0.1;fill:url(#linearGradient3780);fill-opacity:1;fill-rule:nonzero;stroke:none;display:inline"
       d="M 12,4.96875 C 7.0283671,4.96875 2.96875,9.0283671 2.96875,14 l 0,71 c 0,4.971633 4.059617,9.03125 9.03125,9.03125 l 72,0 c 4.971633,0 9.03125,-4.059617 9.03125,-9.03125 l 0,-71 C 93.03125,9.028367 88.971633,4.96875 84,4.96875 l -72,0 z M 12,6 84,6 c 3.324,0 6,2.676 6,6 l 0,72 c 0,3.324 -2.676,6 -6,6 L 12,90 C 8.676,90 6,87.324 6,84 L 6,12 C 6,8.676 8.676,6 12,6 z"
       id="path3778"
       inkscape:connector-curvature="0" />
    <path
       style="opacity:0.2;fill:url(#linearGradient3772);fill-opacity:1;fill-rule:nonzero;stroke:none;display:inline"
       d="M 11.1875,6.03125 C 7.159982,6.4419011 4,9.8664375 4,14 l 0,71 c 0,4.409133 3.590867,8 8,8 l 72,0 c 4.409133,0 8,-3.590867 8,-8 L 92,14 C 92,9.8029382 88.741028,6.3539584 84.625,6.03125 87.657886,6.337417 90,8.88375 90,12 l 0,72 c 0,3.324 -2.676,6 -6,6 L 12,90 C 8.676,90 6,87.324 6,84 L 6,12 c 0,-3.11625 2.342114,-5.662583 5.375,-5.96875 -0.06227,0.00488 -0.12563,-0.00631 -0.1875,0 z"
       id="path3770"
       inkscape:connector-curvature="0" />
    <path
       style="opacity:0.3;fill:url(#linearGradient3725);fill-opacity:1;fill-rule:nonzero;stroke:none;display:inline"
       d="M 6.4375,9.75 C 5.5380109,10.927446 5,12.397277 5,14 l 0,71 c 0,3.878 3.122,7 7,7 l 72,0 c 3.878,0 7,-3.122 7,-7 L 91,14 C 91,12.397277 90.461989,10.927446 89.5625,9.75 89.841816,10.444095 90,11.203625 90,12 l 0,72 c 0,3.324 -2.676,6 -6,6 L 12,90 C 8.676,90 6,87.324 6,84 L 6,12 C 6,11.203625 6.1581836,10.444095 6.4375,9.75 z"
       id="rect3723"
       inkscape:connector-curvature="0" />
    <path
       style="opacity:0.45;fill:url(#linearGradient3721);fill-opacity:1;fill-rule:nonzero;stroke:none;display:inline"
       d="m 6,84 0,1 c 0,3.324 2.676,6 6,6 l 72,0 c 3.324,0 6,-2.676 6,-6 l 0,-1 c 0,3.324 -2.676,6 -6,6 L 12,90 C 8.676,90 6,87.324 6,84 z"
       id="rect3716"
       inkscape:connector-curvature="0" />
  </g>
  <g
     inkscape:label="Button with border"
     inkscape:groupmode="layer"
     id="layer1"
     sodipodi:insensitive="true"
     style="display:none">
    <rect
       style="opacity:0.8;fill:#000000;fill-opacity:1;fill-rule:nonzero;stroke:none"
       id="rect2419"
       width="84"
       height="84"
       x="6"
       y="6"
       rx="6"
       ry="6" />
    <path
       style="opacity:0.07999998;fill:#000000;fill-opacity:1;fill-rule:nonzero;stroke:none"
       d="m 14,10 c -2.216,0 -4,1.784 -4,4 l 0,68 c 0,2.216 1.784,4 4,4 l 68,0 c 2.216,0 4,-1.784 4,-4 l 0,-68 c 0,-2.216 -1.784,-4 -4,-4 l -68,0 z m 0,3.0625 68,0 c 0.578769,0 0.9375,0.358731 0.9375,0.9375 l 0,68 c 0,0.578769 -0.358731,0.9375 -0.9375,0.9375 l -68,0 c -0.578769,0 -0.9375,-0.358731 -0.9375,-0.9375 l 0,-68 c 0,-0.578769 0.358731,-0.9375 0.9375,-0.9375 z"
       id="rect3726"
       inkscape:connector-curvature="0" />
    <path
       style="fill:url(#linearGradient3643);fill-opacity:1;fill-rule:nonzero;stroke:none"
       d="M 12,6 C 8.676,6 6,8.676 6,12 l 0,72 c 0,3.324 2.676,6 6,6 l 72,0 c 3.324,0 6,-2.676 6,-6 L 90,12 C 90,8.676 87.324,6 84,6 L 12,6 z m 2,4 68,0 c 2.216,0 4,1.784 4,4 l 0,68 c 0,2.216 -1.784,4 -4,4 l -68,0 c -2.216,0 -4,-1.784 -4,-4 l 0,-68 c 0,-2.216 1.784,-4 4,-4 z"
       id="rect3629"
       inkscape:connector-curvature="0" />
    <path
       style="fill:url(#linearGradient3188);fill-opacity:1;fill-rule:nonzero;stroke:none"
       d="M 12,6 C 8.676,6 6,8.676 6,12 l 0,2 0,68 0,2 c 0,0.334721 0.04135,0.6507 0.09375,0.96875 0.0487,0.295596 0.09704,0.596915 0.1875,0.875 0.00988,0.03038 0.020892,0.0636 0.03125,0.09375 0.098865,0.287771 0.2348802,0.547452 0.375,0.8125 0.1445918,0.273507 0.3156161,0.535615 0.5,0.78125 0.1843839,0.245635 0.3737765,0.473472 0.59375,0.6875 0.439947,0.428056 0.94291,0.814526 1.5,1.09375 0.278545,0.139612 0.5734731,0.246947 0.875,0.34375 -0.2562018,-0.100222 -0.4867109,-0.236272 -0.71875,-0.375 -0.00741,-0.0044 -0.023866,0.0045 -0.03125,0 -0.031933,-0.0193 -0.062293,-0.04251 -0.09375,-0.0625 -0.120395,-0.0767 -0.2310226,-0.163513 -0.34375,-0.25 -0.1061728,-0.0808 -0.2132809,-0.161112 -0.3125,-0.25 C 8.4783201,88.557317 8.3087904,88.373362 8.15625,88.1875 8.0486711,88.057245 7.9378561,87.922215 7.84375,87.78125 7.818661,87.74287 7.805304,87.69538 7.78125,87.65625 7.716487,87.553218 7.6510225,87.451733 7.59375,87.34375 7.4927417,87.149044 7.3880752,86.928049 7.3125,86.71875 7.30454,86.69694 7.288911,86.6782 7.28125,86.65625 7.2494249,86.5643 7.2454455,86.469419 7.21875,86.375 7.1884177,86.268382 7.1483606,86.171969 7.125,86.0625 7.0521214,85.720988 7,85.364295 7,85 L 7,83 7,15 7,13 C 7,10.218152 9.2181517,8 12,8 l 2,0 68,0 2,0 c 2.781848,0 5,2.218152 5,5 l 0,2 0,68 0,2 c 0,0.364295 -0.05212,0.720988 -0.125,1.0625 -0.04415,0.206893 -0.08838,0.397658 -0.15625,0.59375 -0.0077,0.02195 -0.0233,0.04069 -0.03125,0.0625 -0.06274,0.173739 -0.138383,0.367449 -0.21875,0.53125 -0.04158,0.0828 -0.07904,0.169954 -0.125,0.25 -0.0546,0.09721 -0.126774,0.18835 -0.1875,0.28125 -0.09411,0.140965 -0.204921,0.275995 -0.3125,0.40625 -0.143174,0.17445 -0.303141,0.346998 -0.46875,0.5 -0.01117,0.0102 -0.01998,0.02115 -0.03125,0.03125 -0.138386,0.125556 -0.285091,0.234436 -0.4375,0.34375 -0.102571,0.07315 -0.204318,0.153364 -0.3125,0.21875 -0.0074,0.0045 -0.02384,-0.0044 -0.03125,0 -0.232039,0.138728 -0.462548,0.274778 -0.71875,0.375 0.301527,-0.0968 0.596455,-0.204138 0.875,-0.34375 0.55709,-0.279224 1.060053,-0.665694 1.5,-1.09375 0.219973,-0.214028 0.409366,-0.441865 0.59375,-0.6875 0.184384,-0.245635 0.355408,-0.507743 0.5,-0.78125 0.14012,-0.265048 0.276135,-0.524729 0.375,-0.8125 0.01041,-0.03078 0.02133,-0.06274 0.03125,-0.09375 0.09046,-0.278085 0.1388,-0.579404 0.1875,-0.875 C 89.95865,84.6507 90,84.334721 90,84 l 0,-2 0,-68 0,-2 C 90,8.676 87.324,6 84,6 L 12,6 z"
       id="rect3728"
       inkscape:connector-curvature="0" />
    <path
       id="path3615"
       d="M 12,90 C 8.676,90 6,87.324 6,84 L 6,82 6,14 6,12 c 0,-0.334721 0.04135,-0.6507 0.09375,-0.96875 0.0487,-0.295596 0.09704,-0.596915 0.1875,-0.875 C 6.29113,10.12587 6.302142,10.09265 6.3125,10.0625 6.411365,9.774729 6.5473802,9.515048 6.6875,9.25 6.8320918,8.976493 7.0031161,8.714385 7.1875,8.46875 7.3718839,8.223115 7.5612765,7.995278 7.78125,7.78125 8.221197,7.353194 8.72416,6.966724 9.28125,6.6875 9.559795,6.547888 9.8547231,6.440553 10.15625,6.34375 9.9000482,6.443972 9.6695391,6.580022 9.4375,6.71875 c -0.00741,0.0044 -0.023866,-0.0045 -0.03125,0 -0.031933,0.0193 -0.062293,0.04251 -0.09375,0.0625 -0.120395,0.0767 -0.2310226,0.163513 -0.34375,0.25 -0.1061728,0.0808 -0.2132809,0.161112 -0.3125,0.25 C 8.4783201,7.442683 8.3087904,7.626638 8.15625,7.8125 8.0486711,7.942755 7.9378561,8.077785 7.84375,8.21875 7.818661,8.25713 7.805304,8.30462 7.78125,8.34375 7.716487,8.446782 7.6510225,8.548267 7.59375,8.65625 7.4927417,8.850956 7.3880752,9.071951 7.3125,9.28125 7.30454,9.30306 7.288911,9.3218 7.28125,9.34375 7.2494249,9.4357 7.2454455,9.530581 7.21875,9.625 7.1884177,9.731618 7.1483606,9.828031 7.125,9.9375 7.0521214,10.279012 7,10.635705 7,11 l 0,2 0,68 0,2 c 0,2.781848 2.2181517,5 5,5 l 2,0 68,0 2,0 c 2.781848,0 5,-2.218152 5,-5 l 0,-2 0,-68 0,-2 C 89,10.635705 88.94788,10.279012 88.875,9.9375 88.83085,9.730607 88.78662,9.539842 88.71875,9.34375 88.71105,9.3218 88.69545,9.30306 88.6875,9.28125 88.62476,9.107511 88.549117,8.913801 88.46875,8.75 88.42717,8.6672 88.38971,8.580046 88.34375,8.5 88.28915,8.40279 88.216976,8.31165 88.15625,8.21875 88.06214,8.077785 87.951329,7.942755 87.84375,7.8125 87.700576,7.63805 87.540609,7.465502 87.375,7.3125 87.36383,7.3023 87.35502,7.29135 87.34375,7.28125 87.205364,7.155694 87.058659,7.046814 86.90625,6.9375 86.803679,6.86435 86.701932,6.784136 86.59375,6.71875 c -0.0074,-0.0045 -0.02384,0.0044 -0.03125,0 -0.232039,-0.138728 -0.462548,-0.274778 -0.71875,-0.375 0.301527,0.0968 0.596455,0.204138 0.875,0.34375 0.55709,0.279224 1.060053,0.665694 1.5,1.09375 0.219973,0.214028 0.409366,0.441865 0.59375,0.6875 0.184384,0.245635 0.355408,0.507743 0.5,0.78125 0.14012,0.265048 0.276135,0.524729 0.375,0.8125 0.01041,0.03078 0.02133,0.06274 0.03125,0.09375 0.09046,0.278085 0.1388,0.579404 0.1875,0.875 C 89.95865,11.3493 90,11.665279 90,12 l 0,2 0,68 0,2 c 0,3.324 -2.676,6 -6,6 l -72,0 z"
       style="opacity:0.6;fill:url(#radialGradient3619);fill-opacity:1;fill-rule:nonzero;stroke:none"
       inkscape:connector-curvature="0" />
    <rect
       ry="6"
       rx="6"
       y="106"
       x="6"
       height="84"
       width="84"
       id="rect2841"
       style="fill:url(#linearGradient2843);fill-opacity:1;fill-rule:nonzero;stroke:none" />
    <rect
       ry="4"
       rx="4"
       y="110"
       x="10"
       height="76"
       width="76"
       id="rect3634"
       style="fill:#ff0000;fill-opacity:1;fill-rule:nonzero;stroke:none" />
    <path
       style="font-size:medium;font-style:normal;font-variant:normal;font-weight:normal;font-stretch:normal;text-indent:0;text-align:start;text-decoration:none;line-height:normal;letter-spacing:normal;word-spacing:normal;text-transform:none;direction:ltr;block-progression:tb;writing-mode:lr-tb;text-anchor:start;color:#000000;fill:#000000;fill-opacity:1;stroke:none;stroke-width:2;marker:none;visibility:visible;display:inline;overflow:visible;filter:url(#filter3657);enable-background:accumulate;font-family:Abandoned Bitplane;-inkscape-font-specification:Abandoned Bitplane"
       d="m 14,9 c -2.752703,0 -5,2.247297 -5,5 l 0,68 c 0,2.752703 2.247297,5 5,5 l 68,0 c 2.752703,0 5,-2.247297 5,-5 L 87,14 C 87,11.247297 84.752703,9 82,9 L 14,9 z m 0,2 68,0 c 1.679297,0 3,1.320703 3,3 l 0,68 c 0,1.679297 -1.320703,3 -3,3 l -68,0 c -1.679297,0 -3,-1.320703 -3,-3 l 0,-68 c 0,-1.679297 1.320703,-3 3,-3 z"
       clip-path="url(#clipPath3649)"
       id="rect3647"
       transform="translate(-110,0)"
       inkscape:connector-curvature="0" />
    <path
       style="opacity:0.16000001;fill:#000000;fill-opacity:1;fill-rule:nonzero;stroke:none"
       d="m 14.089286,10 c -2.216,0 -4,1.784 -4,4 l 0,68 c 0,2.216 1.784,4 4,4 l 68,0 c 2.216,0 4,-1.784 4,-4 l 0,-68 c 0,-2.216 -1.784,-4 -4,-4 l -68,0 z m 0,2 68,0 c 1.140301,0 2,0.859699 2,2 l 0,68 c 0,1.140301 -0.859699,2 -2,2 l -68,0 c -1.140301,0 -2,-0.859699 -2,-2 l 0,-68 c 0,-1.140301 0.859699,-2 2,-2 z"
       id="path3709"
       inkscape:connector-curvature="0" />
    <path
       style="opacity:0.36000001;fill:#000000;fill-opacity:1;fill-rule:nonzero;stroke:none"
       d="m 14,10 c -2.216,0 -4,1.784 -4,4 l 0,68 c 0,2.216 1.784,4 4,4 l 68,0 c 2.216,0 4,-1.784 4,-4 l 0,-68 c 0,-2.216 -1.784,-4 -4,-4 l -68,0 z m 0,1 68,0 c 1.673848,0 3,1.326152 3,3 l 0,68 c 0,1.673848 -1.326152,3 -3,3 l -68,0 c -1.673848,0 -3,-1.326152 -3,-3 l 0,-68 c 0,-1.673848 1.326152,-3 3,-3 z"
       id="path3707"
       inkscape:connector-curvature="0" />
  </g>
  <g
     inkscape:groupmode="layer"
     id="layer4"
     inkscape:label="Button"
     style="display:inline"
     sodipodi:insensitive="true">
    <rect
       style="opacity:0.6;fill:#000000;fill-opacity:1;fill-rule:nonzero;stroke:none;display:inline"
       id="rect2419-9"
       width="84"
       height="84"
       x="6"
       y="6"
       rx="6"
       ry="6" />
    <path
       style="opacity:0.01000001;fill:url(#linearGradient3188-8);fill-opacity:1;fill-rule:nonzero;stroke:none;display:inline"
       d="M 12,6 C 8.676,6 6,8.676 6,12 l 0,2 0,68 0,2 c 0,0.334721 0.04135,0.6507 0.09375,0.96875 0.0487,0.295596 0.09704,0.596915 0.1875,0.875 0.00988,0.03038 0.020892,0.0636 0.03125,0.09375 0.098865,0.287771 0.2348802,0.547452 0.375,0.8125 0.1445918,0.273507 0.3156161,0.535615 0.5,0.78125 0.1843839,0.245635 0.3737765,0.473472 0.59375,0.6875 0.439947,0.428056 0.94291,0.814526 1.5,1.09375 0.278545,0.139612 0.5734731,0.246947 0.875,0.34375 -0.2562018,-0.100222 -0.4867109,-0.236272 -0.71875,-0.375 -0.00741,-0.0044 -0.023866,0.0045 -0.03125,0 -0.031933,-0.0193 -0.062293,-0.04251 -0.09375,-0.0625 -0.120395,-0.0767 -0.2310226,-0.163513 -0.34375,-0.25 -0.1061728,-0.0808 -0.2132809,-0.161112 -0.3125,-0.25 C 8.4783201,88.557317 8.3087904,88.373362 8.15625,88.1875 8.0486711,88.057245 7.9378561,87.922215 7.84375,87.78125 7.818661,87.74287 7.805304,87.69538 7.78125,87.65625 7.716487,87.553218 7.6510225,87.451733 7.59375,87.34375 7.4927417,87.149044 7.3880752,86.928049 7.3125,86.71875 7.30454,86.69694 7.288911,86.6782 7.28125,86.65625 7.2494249,86.5643 7.2454455,86.469419 7.21875,86.375 7.1884177,86.268382 7.1483606,86.171969 7.125,86.0625 7.0521214,85.720988 7,85.364295 7,85 L 7,83 7,15 7,13 C 7,10.218152 9.2181517,8 12,8 l 2,0 68,0 2,0 c 2.781848,0 5,2.218152 5,5 l 0,2 0,68 0,2 c 0,0.364295 -0.05212,0.720988 -0.125,1.0625 -0.04415,0.206893 -0.08838,0.397658 -0.15625,0.59375 -0.0077,0.02195 -0.0233,0.04069 -0.03125,0.0625 -0.06274,0.173739 -0.138383,0.367449 -0.21875,0.53125 -0.04158,0.0828 -0.07904,0.169954 -0.125,0.25 -0.0546,0.09721 -0.126774,0.18835 -0.1875,0.28125 -0.09411,0.140965 -0.204921,0.275995 -0.3125,0.40625 -0.143174,0.17445 -0.303141,0.346998 -0.46875,0.5 -0.01117,0.0102 -0.01998,0.02115 -0.03125,0.03125 -0.138386,0.125556 -0.285091,0.234436 -0.4375,0.34375 -0.102571,0.07315 -0.204318,0.153364 -0.3125,0.21875 -0.0074,0.0045 -0.02384,-0.0044 -0.03125,0 -0.232039,0.138728 -0.462548,0.274778 -0.71875,0.375 0.301527,-0.0968 0.596455,-0.204138 0.875,-0.34375 0.55709,-0.279224 1.060053,-0.665694 1.5,-1.09375 0.219973,-0.214028 0.409366,-0.441865 0.59375,-0.6875 0.184384,-0.245635 0.355408,-0.507743 0.5,-0.78125 0.14012,-0.265048 0.276135,-0.524729 0.375,-0.8125 0.01041,-0.03078 0.02133,-0.06274 0.03125,-0.09375 0.09046,-0.278085 0.1388,-0.579404 0.1875,-0.875 C 89.95865,84.6507 90,84.334721 90,84 l 0,-2 0,-68 0,-2 C 90,8.676 87.324,6 84,6 L 12,6 z"
       id="rect3728-4"
       inkscape:connector-curvature="0" />
    <path
       id="path3615-6"
       d="M 12,90 C 8.676,90 6,87.324 6,84 L 6,82 6,14 6,12 c 0,-0.334721 0.04135,-0.6507 0.09375,-0.96875 0.0487,-0.295596 0.09704,-0.596915 0.1875,-0.875 C 6.29113,10.12587 6.302142,10.09265 6.3125,10.0625 6.411365,9.774729 6.5473802,9.515048 6.6875,9.25 6.8320918,8.976493 7.0031161,8.714385 7.1875,8.46875 7.3718839,8.223115 7.5612765,7.995278 7.78125,7.78125 8.221197,7.353194 8.72416,6.966724 9.28125,6.6875 9.559795,6.547888 9.8547231,6.440553 10.15625,6.34375 9.9000482,6.443972 9.6695391,6.580022 9.4375,6.71875 c -0.00741,0.0044 -0.023866,-0.0045 -0.03125,0 -0.031933,0.0193 -0.062293,0.04251 -0.09375,0.0625 -0.120395,0.0767 -0.2310226,0.163513 -0.34375,0.25 -0.1061728,0.0808 -0.2132809,0.161112 -0.3125,0.25 C 8.4783201,7.442683 8.3087904,7.626638 8.15625,7.8125 8.0486711,7.942755 7.9378561,8.077785 7.84375,8.21875 7.818661,8.25713 7.805304,8.30462 7.78125,8.34375 7.716487,8.446782 7.6510225,8.548267 7.59375,8.65625 7.4927417,8.850956 7.3880752,9.071951 7.3125,9.28125 7.30454,9.30306 7.288911,9.3218 7.28125,9.34375 7.2494249,9.4357 7.2454455,9.530581 7.21875,9.625 7.1884177,9.731618 7.1483606,9.828031 7.125,9.9375 7.0521214,10.279012 7,10.635705 7,11 l 0,2 0,68 0,2 c 0,2.781848 2.2181517,5 5,5 l 2,0 68,0 2,0 c 2.781848,0 5,-2.218152 5,-5 l 0,-2 0,-68 0,-2 C 89,10.635705 88.94788,10.279012 88.875,9.9375 88.83085,9.730607 88.78662,9.539842 88.71875,9.34375 88.71105,9.3218 88.69545,9.30306 88.6875,9.28125 88.62476,9.107511 88.549117,8.913801 88.46875,8.75 88.42717,8.6672 88.38971,8.580046 88.34375,8.5 88.28915,8.40279 88.216976,8.31165 88.15625,8.21875 88.06214,8.077785 87.951329,7.942755 87.84375,7.8125 87.700576,7.63805 87.540609,7.465502 87.375,7.3125 87.36383,7.3023 87.35502,7.29135 87.34375,7.28125 87.205364,7.155694 87.058659,7.046814 86.90625,6.9375 86.803679,6.86435 86.701932,6.784136 86.59375,6.71875 c -0.0074,-0.0045 -0.02384,0.0044 -0.03125,0 -0.232039,-0.138728 -0.462548,-0.274778 -0.71875,-0.375 0.301527,0.0968 0.596455,0.204138 0.875,0.34375 0.55709,0.279224 1.060053,0.665694 1.5,1.09375 0.219973,0.214028 0.409366,0.441865 0.59375,0.6875 0.184384,0.245635 0.355408,0.507743 0.5,0.78125 0.14012,0.265048 0.276135,0.524729 0.375,0.8125 0.01041,0.03078 0.02133,0.06274 0.03125,0.09375 0.09046,0.278085 0.1388,0.579404 0.1875,0.875 C 89.95865,11.3493 90,11.665279 90,12 l 0,2 0,68 0,2 c 0,3.324 -2.676,6 -6,6 l -72,0 z"
       style="opacity:0.15;fill:url(#radialGradient3619-3);fill-opacity:1;fill-rule:nonzero;stroke:none;display:inline"
       inkscape:connector-curvature="0" />
  </g>
  <g
     inkscape:groupmode="layer"
     id="layer5"
     inkscape:label="Highlight"
     sodipodi:insensitive="true"
     style="display:none">
    <rect
       style="opacity:0.1;fill:url(#linearGradient3613);fill-opacity:1;fill-rule:nonzero;stroke:#ffffff;stroke-width:0.5;stroke-linecap:round;stroke-linejoin:miter;stroke-miterlimit:4;stroke-opacity:1;stroke-dasharray:none;stroke-dashoffset:0;filter:url(#filter3794)"
       id="rect3171"
       width="66"
       height="66"
       x="15"
       y="15"
       rx="12"
       ry="12"
       clip-path="url(#clipPath3613)" />
  </g>
  <g
     inkscape:groupmode="layer"
     id="layer6"
     inkscape:label="Symbol"
     style="display:inline">
    <path
       sodipodi:type="inkscape:offset"
       inkscape:radius="0.94906753"
       inkscape:original="M 33.78125 19.9375 C 33.471386 19.930745 33.313818 20.021434 33.21875 20.0625 C 32.799074 20.243765 32.617643 20.497457 32.46875 20.6875 C 32.319857 20.877543 32.205474 21.0477 32.09375 21.1875 A 1.0484162 1.0484162 0 0 0 31.90625 21.5 C 31.90625 21.5 31.678919 22.149191 31.4375 23.03125 C 31.196081 23.913309 30.922214 25.019 30.9375 26.03125 C 30.970319 28.204689 31.613735 31.549068 32.71875 34.5625 C 34.989927 40.756123 38.128251 47.492213 40.9375 52.46875 A 1.0484162 1.0484162 0 0 0 42.84375 52.25 C 43.372292 50.299621 43.952126 48.243313 44.90625 46.53125 A 1.0484162 1.0484162 0 0 0 44.9375 46.5 A 1.0484162 1.0484162 0 0 0 44.96875 46.46875 L 47.5 42.25 A 1.0484162 1.0484162 0 0 0 47.5 41.1875 L 35.625 21.40625 C 35.22313 20.716621 34.883263 20.240848 34.1875 20.03125 C 34.211017 20.03833 34.091173 19.944256 33.78125 19.9375 z M 61.8125 20.03125 C 61.116735 20.240848 60.77687 20.716623 60.375 21.40625 L 45.21875 46.65625 A 1.0484162 1.0484162 0 0 0 45.21875 46.6875 C 43.787757 49.235954 43.149594 52.714101 42.25 55.40625 C 41.80148 56.748508 41.224574 57.981916 40.875 58.4375 A 1.0484162 1.0484162 0 0 0 40.8125 58.53125 C 40.736706 58.660946 40.755877 58.604387 40.78125 58.59375 C 40.802998 58.584632 40.727936 58.589437 40.59375 58.59375 C 40.571386 58.594469 40.590311 58.59375 40.5625 58.59375 C 37.495785 58.48872 34.386161 60.513285 32.5 63.75 C 31.261858 65.874691 30.780312 68.197316 31.03125 70.28125 C 31.282188 72.365184 32.296693 74.253314 34.09375 75.28125 C 35.88816 76.307672 38.04032 76.262856 39.96875 75.4375 C 41.89718 74.612144 43.670029 73.027645 44.90625 70.90625 C 45.908687 69.186037 46.320624 67.365257 46.34375 65.625 A 1.0484162 1.0484162 0 0 0 46.5 65.03125 C 46.470927 63.843801 46.582441 62.351062 47.09375 61.0625 C 47.70149 59.531071 48.44065 58.392591 51.1875 57.59375 C 51.685963 57.458259 52.123219 57.236452 52.46875 56.71875 C 55.785607 51.945949 60.266544 42.783771 63.28125 34.5625 C 64.386266 31.549068 65.029683 28.20469 65.0625 26.03125 C 65.077786 25.019 64.803919 23.913309 64.5625 23.03125 C 64.321081 22.149191 64.09375 21.5 64.09375 21.5 A 1.0484162 1.0484162 0 0 0 63.90625 21.1875 C 63.750557 20.992683 63.63263 20.771461 63.375 20.5 C 63.246185 20.364269 63.05539 20.211663 62.78125 20.09375 C 62.50711 19.975837 62.11763 19.93938 61.8125 20.03125 z M 53.3125 56.5625 A 1.0484162 1.0484162 0 0 0 52.625 57 C 52.213563 57.554572 51.91925 57.702886 51.3125 57.875 A 1.0484162 1.0484162 0 0 0 50.9375 58.0625 A 1.0484162 1.0484162 0 0 0 50.84375 58.125 C 50.040892 58.392726 49.298235 58.651522 48.8125 59.03125 A 1.0484162 1.0484162 0 0 0 48.53125 60.34375 C 48.673272 60.609477 48.818244 60.840735 48.90625 61.0625 C 49.417563 62.351058 49.529074 63.843797 49.5 65.03125 A 1.0484162 1.0484162 0 0 0 49.65625 65.59375 C 49.673799 67.34308 50.085433 69.175948 51.09375 70.90625 C 52.329971 73.027645 54.10282 74.612144 56.03125 75.4375 C 57.95968 76.262856 60.11184 76.307672 61.90625 75.28125 C 63.703307 74.253314 64.717812 72.365184 64.96875 70.28125 C 65.219688 68.197316 64.738142 65.874691 63.5 63.75 C 61.613839 60.513285 58.504215 58.48872 55.4375 58.59375 C 55.40969 58.59375 55.428614 58.594469 55.40625 58.59375 C 55.272065 58.589437 55.197002 58.584632 55.21875 58.59375 C 55.244123 58.604387 55.263294 58.660947 55.1875 58.53125 A 1.0484162 1.0484162 0 0 0 55.125 58.4375 C 54.938182 58.194028 54.68511 57.73755 54.4375 57.1875 A 1.0484162 1.0484162 0 0 0 53.53125 56.5625 A 1.0484162 1.0484162 0 0 0 53.3125 56.5625 z M 39.84375 64.0625 C 40.079077 64.052905 40.313297 64.09408 40.53125 64.21875 C 40.923342 64.443031 41.199032 64.902089 41.25 65.65625 C 41.300968 66.410411 41.085772 67.392169 40.53125 68.34375 C 39.976089 69.296422 39.227262 69.998374 38.53125 70.34375 C 37.835238 70.689126 37.291084 70.688879 36.90625 70.46875 C 36.518901 70.247182 36.23873 69.79519 36.1875 69.03125 C 36.13627 68.26731 36.3528 67.262239 36.90625 66.3125 C 37.740129 64.881536 39.03242 64.095588 39.84375 64.0625 z M 56.15625 64.0625 C 56.967578 64.095588 58.259871 64.881536 59.09375 66.3125 C 59.6472 67.262239 59.86373 68.26731 59.8125 69.03125 C 59.76127 69.79519 59.481099 70.247182 59.09375 70.46875 C 58.708915 70.68888 58.164762 70.689126 57.46875 70.34375 C 56.772738 69.998374 56.023911 69.296422 55.46875 68.34375 C 54.914227 67.392169 54.699032 66.410411 54.75 65.65625 C 54.800968 64.902089 55.076658 64.443031 55.46875 64.21875 C 55.686706 64.094078 55.920923 64.052905 56.15625 64.0625 z "
       style="opacity:0.1;fill:#000000;fill-opacity:1;stroke:none;display:inline"
       id="path3946"
       d="m 33.8125,19 c -0.501919,-0.01094 -0.990178,0.196756 -0.96875,0.1875 -0.624186,0.269596 -0.998155,0.744348 -1.125,0.90625 -0.160869,0.205329 -0.2683,0.371128 -0.34375,0.46875 -0.0057,0.0073 -0.02604,0.02473 -0.03125,0.03125 -0.03126,0.03928 -0.06128,0.09206 -0.0625,0.09375 -0.0017,0.0023 -0.09226,0.15377 -0.09375,0.15625 -0.0015,0.0025 -0.09248,0.153649 -0.09375,0.15625 -0.0013,0.0026 -0.06147,0.153549 -0.0625,0.15625 A 0.94916244,0.94916244 0 0 0 31,21.1875 c 0,0 -0.218585,0.679735 -0.46875,1.59375 -0.246486,0.90057 -0.549278,2.056194 -0.53125,3.25 0.03542,2.345984 0.67034,5.729022 1.8125,8.84375 2.291893,6.250116 5.471771,13.030197 8.3125,18.0625 0.0012,0.0021 0.06115,0.123028 0.0625,0.125 0.0014,0.002 0.09226,0.123131 0.09375,0.125 0.0015,0.0019 0.09213,0.09199 0.09375,0.09375 0.0016,0.0018 0.092,0.123365 0.09375,0.125 0.0017,0.0016 0.12314,0.09224 0.125,0.09375 0.0019,0.0015 0.09179,0.09238 0.09375,0.09375 0.002,0.0014 0.122943,0.06128 0.125,0.0625 0.0021,0.0012 0.12286,0.06143 0.125,0.0625 0.0021,0.0011 0.154039,0.06159 0.15625,0.0625 0.0022,9.12e-4 0.122729,0.06175 0.125,0.0625 0.0023,7.5e-4 0.122681,0.03066 0.125,0.03125 0.0023,5.85e-4 0.153894,0.03083 0.15625,0.03125 0.0024,4.16e-4 0.122621,0.03101 0.125,0.03125 9.52e-4,9.8e-5 0.03529,-0.0018 0.0625,0 -0.108671,0.371347 -0.229378,0.813979 -0.34375,1.15625 -0.402761,1.205318 -0.961996,2.326867 -1.15625,2.625 -3.356775,0.06301 -6.551679,2.219117 -8.5,5.5625 -1.335734,2.292163 -1.871924,4.814884 -1.59375,7.125 0.279101,2.317817 1.433038,4.4873 3.53125,5.6875 2.088642,1.194726 4.566923,1.139718 6.71875,0.21875 2.138936,-0.915451 4.043551,-2.65269 5.375,-4.9375 1.020611,-1.751401 1.423802,-3.604516 1.5,-5.375 3.41e-4,-6.55e-4 0.02331,-0.01454 0.03125,-0.03125 0.01853,-0.03899 0.03057,-0.09217 0.03125,-0.09375 9.71e-4,-0.0023 0.0617,-0.153924 0.0625,-0.15625 8.01e-4,-0.0023 0.03062,-0.122621 0.03125,-0.125 6.26e-4,-0.0024 0.0308,-0.153831 0.03125,-0.15625 4.48e-4,-0.0024 0.03098,-0.153804 0.03125,-0.15625 2.67e-4,-0.0024 -8.5e-5,-0.122541 0,-0.125 8.5e-5,-0.0025 9.8e-5,-0.153792 0,-0.15625 -0.02714,-1.108628 0.09517,-2.494781 0.53125,-3.59375 0.01016,-0.0256 0.02113,-0.03742 0.03125,-0.0625 0.0055,0.01206 0.02737,0.05272 0.03125,0.0625 0.436079,1.098962 0.558394,2.485117 0.53125,3.59375 a 0.94916244,0.94916244 0 0 0 0,0.03125 c -2.6e-5,0.0023 -1.39e-4,0.122668 0,0.125 1.39e-4,0.0023 -3.03e-4,0.153934 0,0.15625 3.03e-4,0.0023 0.03079,0.122711 0.03125,0.125 4.65e-4,0.0023 0.03063,0.122749 0.03125,0.125 6.25e-4,0.0023 0.03047,0.154049 0.03125,0.15625 7.82e-4,0.0022 0.06157,0.12286 0.0625,0.125 6.55e-4,0.0015 0.0135,0.0568 0.03125,0.09375 4.2e-4,0.01137 0.0308,0.01987 0.03125,0.03125 0.07075,1.781667 0.472674,3.643328 1.5,5.40625 1.331449,2.28481 3.236064,4.022049 5.375,4.9375 2.151827,0.920968 4.630108,0.975976 6.71875,-0.21875 2.098212,-1.2002 3.252149,-3.369683 3.53125,-5.6875 0.278174,-2.310116 -0.258016,-4.832837 -1.59375,-7.125 -1.954324,-3.353684 -5.16316,-5.512664 -8.53125,-5.5625 -0.115309,-0.176649 -0.274471,-0.474671 -0.46875,-0.90625 -9.21e-4,-0.0021 -0.06144,-0.122974 -0.0625,-0.125 -0.0011,-0.002 -0.0613,-0.123052 -0.0625,-0.125 -0.0012,-0.0019 -0.09242,-0.12314 -0.09375,-0.125 -0.0013,-0.0019 -0.06104,-0.09199 -0.0625,-0.09375 -0.0015,-0.0018 -0.09217,-0.123341 -0.09375,-0.125 -0.0016,-0.0017 -0.123313,-0.0922 -0.125,-0.09375 -0.0017,-0.0015 -0.09196,-0.06107 -0.09375,-0.0625 -0.0018,-0.0014 -0.09187,-0.09245 -0.09375,-0.09375 -0.0019,-0.0013 -0.123031,-0.06133 -0.125,-0.0625 -0.002,-0.0012 -0.122955,-0.09272 -0.125,-0.09375 -0.002,-0.001 -0.122889,-0.03037 -0.125,-0.03125 -0.0021,-8.84e-4 -0.122833,-0.06176 -0.125,-0.0625 3.285931,-5.110778 7.25731,-13.19384 10.0625,-20.84375 1.142161,-3.114728 1.777078,-6.497764 1.8125,-8.84375 0.01803,-1.193806 -0.284764,-2.34943 -0.53125,-3.25 C 65.218585,21.867235 65,21.1875 65,21.1875 a 0.94916244,0.94916244 0 0 0 -0.03125,-0.03125 c -0.001,-0.0027 -0.06123,-0.153649 -0.0625,-0.15625 -0.0013,-0.0026 -0.09226,-0.15377 -0.09375,-0.15625 -0.0015,-0.0025 -0.09205,-0.153909 -0.09375,-0.15625 -0.0012,-0.0017 -0.03124,-0.05447 -0.0625,-0.09375 -0.0038,-0.0048 -0.02709,-0.02571 -0.03125,-0.03125 -0.08651,-0.115098 -0.242576,-0.381651 -0.5625,-0.71875 -0.206417,-0.2175 -0.505899,-0.452801 -0.90625,-0.625 -0.508641,-0.218776 -1.040016,-0.26988 -1.625,-0.09375 -0.977374,0.294432 -1.516318,1.06502 -1.9375,1.78125 -0.003,0.0051 -0.02826,-0.0051 -0.03125,0 l 0,0.03125 L 48,40.15625 36.4375,20.9375 c -0.007,-0.01204 -0.02416,-0.01919 -0.03125,-0.03125 -0.341889,-0.581391 -0.825189,-1.133586 -1.5,-1.5 -1.79e-4,-2.09e-4 -0.02196,-0.0221 -0.03125,-0.03125 -0.04751,-0.02479 -0.07511,-0.07145 -0.125,-0.09375 -0.03315,-0.02519 -0.03926,-0.04807 -0.0625,-0.0625 -0.07901,-0.04905 -0.148946,-0.06731 -0.21875,-0.09375 -0.01232,-0.0047 -0.01839,-0.02666 -0.03125,-0.03125 C 34.266048,19.032539 34.060755,19.005412 33.8125,19 z m 6.0625,46 c 0.09929,-0.004 0.145741,0.0074 0.1875,0.03125 0.07404,0.04235 0.21281,0.137206 0.25,0.6875 0.03511,0.519564 -0.128423,1.35773 -0.59375,2.15625 -0.470347,0.807129 -1.113605,1.386742 -1.59375,1.625 -0.519415,0.257745 -0.6996,0.185079 -0.75,0.15625 -0.07569,-0.04329 -0.212554,-0.129112 -0.25,-0.6875 -0.03557,-0.53036 0.132736,-1.396384 0.59375,-2.1875 C 38.413981,65.58821 39.634064,65.009826 39.875,65 z m 16.25,0 c 0.240933,0.0098 1.461019,0.58821 2.15625,1.78125 0.461014,0.791116 0.629316,1.65714 0.59375,2.1875 -0.03745,0.558388 -0.174312,0.644206 -0.25,0.6875 -0.0504,0.02883 -0.230584,0.101495 -0.75,-0.15625 -0.480145,-0.238258 -1.123403,-0.817871 -1.59375,-1.625 -0.465328,-0.798519 -0.628863,-1.636685 -0.59375,-2.15625 0.03719,-0.550294 0.175962,-0.645149 0.25,-0.6875 0.04176,-0.02389 0.08821,-0.0353 0.1875,-0.03125 z" />
    <path
       sodipodi:type="inkscape:offset"
       inkscape:radius="1.0483114"
       inkscape:original="M 33.75 21 C 33.70885 20.999103 33.66498 21.01398 33.625 21.03125 C 33.38513 21.134854 33.19442 21.483165 32.90625 21.84375 C 32.90625 21.84375 31.97581 24.39812 32 26 C 32.0299 27.98013 32.62789 31.29789 33.6875 34.1875 C 35.935708 40.318485 39.069947 47.055005 41.84375 51.96875 C 42.378187 49.996618 42.983556 47.865836 44.03125 46 A 2.4115845 2.4115845 0 0 1 44.0625 45.9375 L 46.59375 41.71875 L 34.71875 21.9375 C 34.37788 21.35255 34.093092 21.09695 33.875 21.03125 C 33.829564 21.01757 33.791146 21.000897 33.75 21 z M 62.125 21.03125 C 61.906907 21.09695 61.622121 21.35255 61.28125 21.9375 L 46.125 47.1875 C 44.841558 49.47318 44.185593 52.95012 43.25 55.75 C 42.782202 57.14995 42.230546 58.3955 41.71875 59.0625 C 41.39998 59.60797 41.024829 59.65625 40.5625 59.65625 C 37.992226 59.55622 35.136671 61.31179 33.40625 64.28125 C 31.145651 68.16051 31.688396 72.69523 34.625 74.375 C 37.561604 76.05477 41.739402 74.25426 44 70.375 C 45.040547 68.58939 45.48363 66.6833 45.375 64.96875 L 45.4375 65.0625 C 45.40615 63.78207 45.53716 62.16893 46.125 60.6875 C 46.799259 58.98845 47.911415 57.46471 50.90625 56.59375 C 51.164143 56.52365 51.444472 56.34866 51.59375 56.125 C 54.802555 51.50768 59.327988 42.32643 62.3125 34.1875 C 63.372111 31.29789 63.970102 27.98013 64 26 C 64.02419 24.39812 63.09375 21.84375 63.09375 21.84375 C 62.709522 21.36297 62.488487 20.92181 62.125 21.03125 z M 53.46875 57.625 C 52.920293 58.364261 52.316288 58.670041 51.59375 58.875 L 51.59375 58.90625 C 50.539129 59.212955 49.906709 59.501371 49.46875 59.84375 C 49.615581 60.118474 49.760952 60.400113 49.875 60.6875 C 50.462847 62.16893 50.59385 63.78207 50.5625 65.0625 L 50.625 64.96875 C 50.51637 66.6833 50.959453 68.58939 52 70.375 C 54.260599 74.25426 58.438396 76.05477 61.375 74.375 C 64.311604 72.69523 64.854348 68.16051 62.59375 64.28125 C 60.863329 61.31179 58.007774 59.55622 55.4375 59.65625 C 54.975172 59.65625 54.600021 59.60797 54.28125 59.0625 C 54.016528 58.7175 53.738633 58.224527 53.46875 57.625 z M 39.8125 63 C 40.256402 62.9819 40.686087 63.09719 41.0625 63.3125 C 42.568153 64.17375 42.736184 66.64641 41.4375 68.875 C 40.138815 71.10358 37.880653 72.23625 36.375 71.375 C 34.869347 70.51375 34.701315 68.00984 36 65.78125 C 36.974014 64.10981 38.480795 63.05431 39.8125 63 z M 56.1875 63 C 57.519204 63.05431 59.025986 64.10981 60 65.78125 C 61.298685 68.00984 61.130653 70.51375 59.625 71.375 C 58.119346 72.23625 55.861185 71.10358 54.5625 68.875 C 53.263815 66.64641 53.431847 64.17375 54.9375 63.3125 C 55.313914 63.09719 55.743598 62.9819 56.1875 63 z "
       style="opacity:0.15;fill:#000000;fill-opacity:1;stroke:none;display:inline"
       id="path3942"
       d="m 33.78125,19.9375 c -0.309864,-0.0068 -0.467432,0.08393 -0.5625,0.125 -0.419676,0.181265 -0.601107,0.434957 -0.75,0.625 -0.148893,0.190043 -0.263276,0.3602 -0.375,0.5 A 1.0484162,1.0484162 0 0 0 31.90625,21.5 c 0,0 -0.227331,0.649191 -0.46875,1.53125 -0.241419,0.882059 -0.515286,1.98775 -0.5,3 0.03282,2.173439 0.676235,5.517818 1.78125,8.53125 2.271177,6.193623 5.409501,12.929713 8.21875,17.90625 A 1.0484162,1.0484162 0 0 0 42.84375,52.25 c 0.528542,-1.950379 1.108376,-4.006687 2.0625,-5.71875 A 1.0484162,1.0484162 0 0 0 44.9375,46.5 1.0484162,1.0484162 0 0 0 44.96875,46.46875 L 47.5,42.25 a 1.0484162,1.0484162 0 0 0 0,-1.0625 L 35.625,21.40625 c -0.40187,-0.689629 -0.741737,-1.165402 -1.4375,-1.375 0.02352,0.0071 -0.09633,-0.08699 -0.40625,-0.09375 z m 28.03125,0.09375 c -0.695765,0.209598 -1.03563,0.685373 -1.4375,1.375 l -15.15625,25.25 a 1.0484162,1.0484162 0 0 0 0,0.03125 c -1.430993,2.548454 -2.069156,6.026601 -2.96875,8.71875 -0.44852,1.342258 -1.025426,2.575666 -1.375,3.03125 a 1.0484162,1.0484162 0 0 0 -0.0625,0.09375 c -0.07579,0.129696 -0.05662,0.07314 -0.03125,0.0625 0.02175,-0.0091 -0.05331,-0.0043 -0.1875,0 -0.02236,7.19e-4 -0.0034,0 -0.03125,0 -3.066715,-0.10503 -6.176339,1.919535 -8.0625,5.15625 -1.238142,2.124691 -1.719688,4.447316 -1.46875,6.53125 0.250938,2.083934 1.265443,3.972064 3.0625,5 1.79441,1.026422 3.94657,0.981606 5.875,0.15625 1.92843,-0.825356 3.701279,-2.409855 4.9375,-4.53125 1.002437,-1.720213 1.414374,-3.540993 1.4375,-5.28125 A 1.0484162,1.0484162 0 0 0 46.5,65.03125 c -0.02907,-1.187449 0.08244,-2.680188 0.59375,-3.96875 0.60774,-1.531429 1.3469,-2.669909 4.09375,-3.46875 0.498463,-0.135491 0.935719,-0.357298 1.28125,-0.875 3.316857,-4.772801 7.797794,-13.934979 10.8125,-22.15625 1.105016,-3.013432 1.748433,-6.35781 1.78125,-8.53125 0.01529,-1.01225 -0.258581,-2.117941 -0.5,-3 C 64.321081,22.149191 64.09375,21.5 64.09375,21.5 a 1.0484162,1.0484162 0 0 0 -0.1875,-0.3125 C 63.750557,20.992683 63.63263,20.771461 63.375,20.5 63.246185,20.364269 63.05539,20.211663 62.78125,20.09375 62.50711,19.975837 62.11763,19.93938 61.8125,20.03125 z M 53.53125,56.5625 A 1.0484162,1.0484162 0 0 0 52.625,57 c -0.411437,0.554572 -0.70575,0.702886 -1.3125,0.875 a 1.0484162,1.0484162 0 0 0 -0.375,0.1875 1.0484162,1.0484162 0 0 0 -0.09375,0.0625 c -0.802858,0.267726 -1.545515,0.526522 -2.03125,0.90625 a 1.0484162,1.0484162 0 0 0 -0.28125,1.3125 c 0.142022,0.265727 0.286994,0.496985 0.375,0.71875 0.511313,1.288558 0.622824,2.781297 0.59375,3.96875 a 1.0484162,1.0484162 0 0 0 0.15625,0.5625 c 0.01755,1.74933 0.429183,3.582198 1.4375,5.3125 1.236221,2.121395 3.00907,3.705894 4.9375,4.53125 1.92843,0.825356 4.08059,0.870172 5.875,-0.15625 1.797057,-1.027936 2.811562,-2.916066 3.0625,-5 C 65.219688,68.197316 64.738142,65.874691 63.5,63.75 c -1.886161,-3.236715 -4.995785,-5.26128 -8.0625,-5.15625 -0.02781,0 -0.0089,7.19e-4 -0.03125,0 -0.134185,-0.0043 -0.209248,-0.0091 -0.1875,0 0.02537,0.01064 0.04454,0.0672 -0.03125,-0.0625 A 1.0484162,1.0484162 0 0 0 55.125,58.4375 c -0.186818,-0.243472 -0.43989,-0.69995 -0.6875,-1.25 a 1.0484162,1.0484162 0 0 0 -0.90625,-0.625 z m -13.6875,7.5 c 0.235327,-0.0096 0.469547,0.03158 0.6875,0.15625 0.392092,0.224281 0.667782,0.683339 0.71875,1.4375 0.05097,0.754161 -0.164228,1.735919 -0.71875,2.6875 -0.555161,0.952672 -1.303988,1.654624 -2,2 -0.696012,0.345376 -1.240166,0.345129 -1.625,0.125 -0.387349,-0.221568 -0.66752,-0.67356 -0.71875,-1.4375 -0.05123,-0.76394 0.1653,-1.769011 0.71875,-2.71875 0.833879,-1.430964 2.12617,-2.216912 2.9375,-2.25 z m 16.3125,0 c 0.811328,0.03309 2.103621,0.819036 2.9375,2.25 0.55345,0.949739 0.76998,1.95481 0.71875,2.71875 -0.05123,0.76394 -0.331401,1.215932 -0.71875,1.4375 -0.384835,0.22013 -0.928988,0.220376 -1.625,-0.125 -0.696012,-0.345376 -1.444839,-1.047328 -2,-2 -0.554523,-0.951581 -0.769718,-1.933339 -0.71875,-2.6875 0.05097,-0.754161 0.326658,-1.213219 0.71875,-1.4375 0.217956,-0.124672 0.452173,-0.165845 0.6875,-0.15625 z" />
    <path
       id="path3936"
       d="m 33.75,21 c -0.04115,-8.97e-4 -0.08502,0.01398 -0.125,0.03125 -0.23987,0.103604 -0.43058,0.451915 -0.71875,0.8125 0,0 -0.93044,2.55437 -0.90625,4.15625 0.0299,1.98013 0.62789,5.29789 1.6875,8.1875 2.248208,6.130985 5.382447,12.867505 8.15625,17.78125 C 42.378187,49.996618 42.983556,47.865836 44.03125,46 A 2.4115845,2.4115845 0 0 1 44.0625,45.9375 L 46.59375,41.71875 34.71875,21.9375 C 34.37788,21.35255 34.093092,21.09695 33.875,21.03125 33.829564,21.01757 33.791146,21.000897 33.75,21 z m 28.375,0.03125 c -0.218093,0.0657 -0.502879,0.3213 -0.84375,0.90625 L 46.125,47.1875 c -1.283442,2.28568 -1.939407,5.76262 -2.875,8.5625 -0.467798,1.39995 -1.019454,2.6455 -1.53125,3.3125 -0.31877,0.54547 -0.693921,0.59375 -1.15625,0.59375 -2.570274,-0.10003 -5.425829,1.65554 -7.15625,4.625 -2.260599,3.87926 -1.717854,8.41398 1.21875,10.09375 2.936604,1.67977 7.114402,-0.12074 9.375,-4 1.040547,-1.78561 1.48363,-3.6917 1.375,-5.40625 l 0.0625,0.09375 c -0.03135,-1.28043 0.09966,-2.89357 0.6875,-4.375 0.674259,-1.69905 1.786415,-3.22279 4.78125,-4.09375 0.257893,-0.0701 0.538222,-0.24509 0.6875,-0.46875 C 54.802555,51.50768 59.327988,42.32643 62.3125,34.1875 63.372111,31.29789 63.970102,27.98013 64,26 64.02419,24.39812 63.09375,21.84375 63.09375,21.84375 62.709522,21.36297 62.488487,20.92181 62.125,21.03125 z M 53.46875,57.625 c -0.548457,0.739261 -1.152462,1.045041 -1.875,1.25 l 0,0.03125 c -1.054621,0.306705 -1.687041,0.595121 -2.125,0.9375 0.146831,0.274724 0.292202,0.556363 0.40625,0.84375 0.587847,1.48143 0.71885,3.09457 0.6875,4.375 l 0.0625,-0.09375 c -0.10863,1.71455 0.334453,3.62064 1.375,5.40625 2.260599,3.87926 6.438396,5.67977 9.375,4 2.936604,-1.67977 3.479348,-6.21449 1.21875,-10.09375 -1.730421,-2.96946 -4.585976,-4.72503 -7.15625,-4.625 -0.462328,0 -0.837479,-0.04828 -1.15625,-0.59375 -0.264722,-0.345 -0.542617,-0.837973 -0.8125,-1.4375 z M 39.8125,63 c 0.443902,-0.0181 0.873587,0.09719 1.25,0.3125 1.505653,0.86125 1.673684,3.33391 0.375,5.5625 -1.298685,2.22858 -3.556847,3.36125 -5.0625,2.5 C 34.869347,70.51375 34.701315,68.00984 36,65.78125 36.974014,64.10981 38.480795,63.05431 39.8125,63 z m 16.375,0 c 1.331704,0.05431 2.838486,1.10981 3.8125,2.78125 1.298685,2.22859 1.130653,4.7325 -0.375,5.59375 -1.505654,0.86125 -3.763815,-0.27142 -5.0625,-2.5 -1.298685,-2.22859 -1.130653,-4.70125 0.375,-5.5625 0.376414,-0.21531 0.806098,-0.3306 1.25,-0.3125 z"
       style="fill:#000000;fill-opacity:1;stroke:none;display:inline;opacity:0.3"
       inkscape:connector-curvature="0" />
    <rect
       style="color:#000000;fill:url(#linearGradient3905);fill-opacity:1;fill-rule:nonzero;stroke:none;stroke-width:2;marker:none;visibility:visible;display:inline;overflow:visible;enable-background:accumulate"
       id="rect3897"
       width="16"
       height="16"
       x="0"
       y="104"
       transform="matrix(0,1,1,0,0,0)" />
    <text
       xml:space="preserve"
       style="font-size:4px;font-style:normal;font-variant:normal;font-weight:normal;font-stretch:normal;text-align:start;line-height:125%;letter-spacing:0px;word-spacing:0px;writing-mode:lr-tb;text-anchor:start;fill:#000000;fill-opacity:1;stroke:none;font-family:Liberation Sans;-inkscape-font-specification:Liberation Sans"
       x="104"
       y="48"
       id="text3907"
       sodipodi:linespacing="125%"><tspan
         sodipodi:role="line"
         id="tspan3909"
         x="104"
         y="48">Shadow opacity : 30, 15, 10, (8)</tspan></text>
    <rect
       transform="matrix(0,-1,1,0,0,0)"
       y="104"
       x="-40"
       height="16"
       width="16"
       id="rect3911"
       style="color:#000000;fill:url(#linearGradient3913);fill-opacity:1;fill-rule:nonzero;stroke:none;stroke-width:2;marker:none;visibility:visible;display:inline;overflow:visible;enable-background:accumulate" />
    <text
       sodipodi:linespacing="125%"
       id="text3951"
       y="32"
       x="124"
       style="font-size:4px;font-style:normal;font-variant:normal;font-weight:normal;font-stretch:normal;text-align:start;line-height:125%;letter-spacing:0px;word-spacing:0px;writing-mode:lr-tb;text-anchor:start;fill:#000000;fill-opacity:1;stroke:none;font-family:Liberation Sans;-inkscape-font-specification:Liberation Sans"
       xml:space="preserve"><tspan
         y="32"
         x="124"
         id="tspan3953"
         sodipodi:role="line">Bevel opacity : 30 / 10</tspan></text>
    <text
       xml:space="preserve"
       style="font-size:4px;font-style:normal;font-variant:normal;font-weight:normal;font-stretch:normal;text-align:start;line-height:125%;letter-spacing:0px;word-spacing:0px;writing-mode:lr-tb;text-anchor:start;fill:#000000;fill-opacity:1;stroke:none;font-family:Liberation Sans;-inkscape-font-specification:Liberation Sans"
       x="124"
       y="8"
       id="text3955"
       sodipodi:linespacing="125%"><tspan
         sodipodi:role="line"
         id="tspan3957"
         x="124"
         y="8">Bevel opacity : 75 / 15</tspan></text>
    <path
       style="fill:url(#linearGradient3916);fill-opacity:1;stroke:none;display:inline"
       d="M 33.75 20 C 33.708854 19.999103 33.664979 20.013982 33.625 20.03125 C 33.38513 20.134854 33.19442 20.483165 32.90625 20.84375 C 32.90625 20.84375 31.97581 23.39812 32 25 C 32.029897 26.98013 32.62789 30.29789 33.6875 33.1875 C 35.935708 39.318485 39.069947 46.055005 41.84375 50.96875 C 42.378187 48.996618 42.983556 46.865836 44.03125 45 A 2.4115845 2.4115845 0 0 1 44.0625 44.9375 L 46.59375 40.71875 L 34.71875 20.9375 C 34.37788 20.35255 34.093092 20.09695 33.875 20.03125 C 33.829564 20.01757 33.791146 20.000897 33.75 20 z M 62.125 20.03125 C 61.906907 20.09695 61.622121 20.35255 61.28125 20.9375 L 46.125 46.1875 C 44.841558 48.47318 44.185593 51.95012 43.25 54.75 C 42.782202 56.14995 42.230546 57.3955 41.71875 58.0625 C 41.39998 58.60797 41.024829 58.65625 40.5625 58.65625 C 37.992226 58.55622 35.136671 60.31179 33.40625 63.28125 C 31.145651 67.16051 31.688396 71.69523 34.625 73.375 C 37.561604 75.05477 41.739402 73.25426 44 69.375 C 45.040547 67.58939 45.48363 65.6833 45.375 63.96875 L 45.4375 64.0625 C 45.40615 62.78207 45.537163 61.16893 46.125 59.6875 C 46.799259 57.98845 47.911415 56.46471 50.90625 55.59375 C 51.164143 55.52365 51.444472 55.34866 51.59375 55.125 C 54.802555 50.50768 59.327988 41.32643 62.3125 33.1875 C 63.372111 30.29789 63.970102 26.98013 64 25 C 64.02419 23.39812 63.09375 20.84375 63.09375 20.84375 C 62.709522 20.36297 62.488487 19.92181 62.125 20.03125 z M 53.46875 56.625 C 52.920293 57.364261 52.316288 57.670041 51.59375 57.875 L 51.59375 57.90625 C 50.539129 58.212955 49.906709 58.501371 49.46875 58.84375 C 49.615581 59.118474 49.760952 59.400113 49.875 59.6875 C 50.462847 61.16893 50.59385 62.78207 50.5625 64.0625 L 50.625 63.96875 C 50.51637 65.6833 50.959453 67.58939 52 69.375 C 54.260599 73.25426 58.438396 75.05477 61.375 73.375 C 64.311604 71.69523 64.854348 67.16051 62.59375 63.28125 C 60.863329 60.31179 58.007774 58.55622 55.4375 58.65625 C 54.975172 58.65625 54.600021 58.60797 54.28125 58.0625 C 54.016528 57.7175 53.738633 57.224527 53.46875 56.625 z M 39.8125 62 C 40.256402 61.9819 40.686087 62.09719 41.0625 62.3125 C 42.568153 63.17375 42.736184 65.64641 41.4375 67.875 C 40.138815 70.10358 37.880653 71.23625 36.375 70.375 C 34.869347 69.51375 34.701315 67.00984 36 64.78125 C 36.974014 63.10981 38.480795 62.05431 39.8125 62 z M 56.1875 62 C 57.519204 62.05431 59.025986 63.10981 60 64.78125 C 61.298685 67.00984 61.130653 69.51375 59.625 70.375 C 58.119346 71.23625 55.861185 70.10358 54.5625 67.875 C 53.263815 65.64641 53.431847 63.17375 54.9375 62.3125 C 55.313914 62.09719 55.743598 61.9819 56.1875 62 z "
       id="path3113" />
    <path
       style="fill:#ffffff;fill-opacity:1;stroke:none;display:inline;opacity:0.75"
       d="M 33.75 20 C 33.708854 19.999103 33.664979 20.013982 33.625 20.03125 C 33.38513 20.134854 33.19442 20.483165 32.90625 20.84375 C 32.90625 20.84375 31.97581 23.39812 32 25 C 32.001632 25.10809 32.02625 25.259226 32.03125 25.375 C 32.193137 23.812943 32.90625 21.84375 32.90625 21.84375 C 33.19442 21.483165 33.38513 21.134854 33.625 21.03125 C 33.66498 21.01398 33.70885 20.999103 33.75 21 C 33.791146 21.000897 33.829564 21.01757 33.875 21.03125 C 34.093092 21.09695 34.37788 21.35255 34.71875 21.9375 L 46.28125 41.21875 L 46.59375 40.71875 L 34.71875 20.9375 C 34.37788 20.35255 34.093092 20.09695 33.875 20.03125 C 33.829564 20.01757 33.791146 20.000897 33.75 20 z M 62.125 20.03125 C 61.906907 20.09695 61.622121 20.35255 61.28125 20.9375 L 46.125 46.1875 C 44.841558 48.47318 44.185593 51.95012 43.25 54.75 C 42.782202 56.14995 42.230546 57.3955 41.71875 58.0625 C 41.39998 58.60797 41.024829 58.65625 40.5625 58.65625 C 37.992226 58.55622 35.136671 60.31179 33.40625 63.28125 C 32.359333 65.077793 31.916344 67.020975 32.03125 68.75 C 32.112128 67.296049 32.558525 65.735973 33.40625 64.28125 C 35.136671 61.31179 37.992226 59.55622 40.5625 59.65625 C 41.024829 59.65625 41.39998 59.60797 41.71875 59.0625 C 42.230546 58.3955 42.782202 57.14995 43.25 55.75 C 44.185593 52.95012 44.841558 49.47318 46.125 47.1875 L 61.28125 21.9375 C 61.622121 21.35255 61.906907 21.09695 62.125 21.03125 C 62.488487 20.92181 62.709522 21.36297 63.09375 21.84375 C 63.09375 21.84375 63.806863 23.812943 63.96875 25.375 C 63.97375 25.259226 63.998368 25.10809 64 25 C 64.02419 23.39812 63.09375 20.84375 63.09375 20.84375 C 62.709522 20.36297 62.488487 19.92181 62.125 20.03125 z M 53.46875 56.625 C 52.920293 57.364261 52.316288 57.670041 51.59375 57.875 L 51.59375 57.90625 C 50.539129 58.212955 49.906709 58.501371 49.46875 58.84375 C 49.600211 59.089717 49.736062 59.337535 49.84375 59.59375 C 50.255817 59.353815 50.802784 59.136279 51.59375 58.90625 L 51.59375 58.875 C 52.316288 58.670041 52.920293 58.364261 53.46875 57.625 C 53.738633 58.224527 54.016528 58.7175 54.28125 59.0625 C 54.600021 59.60797 54.975172 59.65625 55.4375 59.65625 C 58.007774 59.55622 60.863329 61.31179 62.59375 64.28125 C 63.441474 65.735973 63.887872 67.296049 63.96875 68.75 C 64.083656 67.020975 63.640666 65.077793 62.59375 63.28125 C 60.863329 60.31179 58.007774 58.55622 55.4375 58.65625 C 54.975172 58.65625 54.600021 58.60797 54.28125 58.0625 C 54.016528 57.7175 53.738633 57.224527 53.46875 56.625 z M 42.28125 65.40625 C 42.196083 66.204334 41.918485 67.049611 41.4375 67.875 C 40.138815 70.10358 37.880653 71.23625 36.375 70.375 C 35.679153 69.976968 35.267953 69.222911 35.15625 68.3125 C 35.020749 69.665853 35.433967 70.836719 36.375 71.375 C 37.880653 72.23625 40.138815 71.10358 41.4375 68.875 C 42.129139 67.688122 42.402119 66.451304 42.28125 65.40625 z M 53.71875 65.40625 C 53.597881 66.451304 53.870861 67.688122 54.5625 68.875 C 55.861185 71.10358 58.119346 72.23625 59.625 71.375 C 60.566033 70.836719 60.979251 69.665853 60.84375 68.3125 C 60.732047 69.222911 60.320847 69.976968 59.625 70.375 C 58.119346 71.23625 55.861185 70.10358 54.5625 67.875 C 54.081514 67.049611 53.803917 66.204334 53.71875 65.40625 z "
       id="path3918" />
    <path
       style="fill:#000000;fill-opacity:1;stroke:none;display:inline;opacity:0.15"
       d="M 32.03125 24.40625 C 32.01035 24.617494 31.997127 24.809752 32 25 C 32.0299 26.98013 32.62789 30.29789 33.6875 33.1875 C 35.935708 39.318485 39.069947 46.055005 41.84375 50.96875 C 42.378187 48.996618 42.983556 46.865836 44.03125 45 A 2.4115845 2.4115845 0 0 1 44.0625 44.9375 L 46.59375 40.71875 L 46.28125 40.21875 L 44.0625 43.9375 A 2.4115845 2.4115845 0 0 0 44.03125 44 C 42.983556 45.865836 42.378187 47.996618 41.84375 49.96875 C 39.069947 45.055005 35.935708 38.318485 33.6875 32.1875 C 32.690522 29.468692 32.122221 26.412317 32.03125 24.40625 z M 63.96875 24.40625 C 63.87778 26.412317 63.309479 29.468692 62.3125 32.1875 C 59.327988 40.32643 54.802555 49.50768 51.59375 54.125 C 51.444472 54.34866 51.164143 54.52365 50.90625 54.59375 C 47.911415 55.46471 46.799259 56.98845 46.125 58.6875 C 45.53716 60.16893 45.40615 61.78207 45.4375 63.0625 C 45.488676 61.999181 45.68412 60.798573 46.125 59.6875 C 46.799259 57.98845 47.911415 56.46471 50.90625 55.59375 C 51.164143 55.52365 51.444472 55.34866 51.59375 55.125 C 54.802555 50.50768 59.327988 41.32643 62.3125 33.1875 C 63.372111 30.29789 63.970102 26.98013 64 25 C 64.002873 24.809752 63.98965 24.617494 63.96875 24.40625 z M 45.4375 63.0625 L 45.375 62.96875 C 45.395675 63.295077 45.394611 63.630697 45.375 63.96875 L 45.4375 64.0625 C 45.429662 63.742393 45.420441 63.41694 45.4375 63.0625 z M 45.375 63.96875 C 45.291571 65.406855 44.842502 66.929242 44 68.375 C 41.739402 72.25426 37.561604 74.05477 34.625 72.375 C 33.056655 71.477889 32.171625 69.772241 32.03125 67.78125 C 31.905981 70.191739 32.797587 72.3297 34.625 73.375 C 37.561604 75.05477 41.739402 73.25426 44 69.375 C 45.040547 67.58939 45.48363 65.6833 45.375 63.96875 z M 49.84375 58.59375 C 49.706394 58.673728 49.57824 58.758155 49.46875 58.84375 C 49.615581 59.118474 49.760952 59.400113 49.875 59.6875 C 50.315885 60.798573 50.511326 61.999181 50.5625 63.0625 C 50.59385 61.78207 50.462847 60.16893 49.875 58.6875 C 49.863062 58.657417 49.85634 58.623706 49.84375 58.59375 z M 50.5625 63.0625 C 50.579558 63.41694 50.570338 63.742393 50.5625 64.0625 L 50.625 63.96875 C 50.605389 63.630697 50.604325 63.295077 50.625 62.96875 L 50.5625 63.0625 z M 50.625 63.96875 C 50.51637 65.6833 50.959453 67.58939 52 69.375 C 54.260599 73.25426 58.438396 75.05477 61.375 73.375 C 63.202413 72.3297 64.094019 70.191739 63.96875 67.78125 C 63.828375 69.772241 62.943345 71.477889 61.375 72.375 C 58.438396 74.05477 54.260599 72.25426 52 68.375 C 51.157498 66.929242 50.708429 65.406855 50.625 63.96875 z M 39.8125 61 C 38.480795 61.05431 36.974014 62.10981 36 63.78125 C 35.308361 64.968128 35.035381 66.22791 35.15625 67.28125 C 35.241286 66.477473 35.518806 65.606996 36 64.78125 C 36.974014 63.10981 38.480795 62.05431 39.8125 62 C 40.256402 61.9819 40.686087 62.09719 41.0625 62.3125 C 41.758347 62.710532 42.169547 63.471768 42.28125 64.375 C 42.416751 63.030803 42.003533 61.850781 41.0625 61.3125 C 40.686087 61.09719 40.256402 60.9819 39.8125 61 z M 56.1875 61 C 55.743598 60.9819 55.313914 61.09719 54.9375 61.3125 C 53.996467 61.850781 53.583249 63.030803 53.71875 64.375 C 53.830453 63.471768 54.241653 62.710532 54.9375 62.3125 C 55.313914 62.09719 55.743598 61.9819 56.1875 62 C 57.519204 62.05431 59.025986 63.10981 60 64.78125 C 60.481194 65.606996 60.758714 66.477473 60.84375 67.28125 C 60.964619 66.22791 60.691639 64.968128 60 63.78125 C 59.025986 62.10981 57.519204 61.05431 56.1875 61 z "
       id="path3927" />
  </g>
</svg>
