<?xml version="1.0" encoding="UTF-8" standalone="no"?>
<!-- Created with Inkscape (http://www.inkscape.org/) -->

<svg
   xmlns:dc="http://purl.org/dc/elements/1.1/"
   xmlns:cc="http://creativecommons.org/ns#"
   xmlns:rdf="http://www.w3.org/1999/02/22-rdf-syntax-ns#"
   xmlns:svg="http://www.w3.org/2000/svg"
   xmlns="http://www.w3.org/2000/svg"
   xmlns:xlink="http://www.w3.org/1999/xlink"
   xmlns:sodipodi="http://sodipodi.sourceforge.net/DTD/sodipodi-0.dtd"
   xmlns:inkscape="http://www.inkscape.org/namespaces/inkscape"
   width="96"
   height="96"
   id="svg2408"
   sodipodi:version="0.32"
   inkscape:version="0.48.0 r9654"
   version="1.0"
   sodipodi:docname="media-skip-forward.svg"
   inkscape:output_extension="org.inkscape.output.svg.inkscape">
  <defs
     id="defs2410">
    <linearGradient
       id="linearGradient4281">
      <stop
         style="stop-color:#1e1e1e;stop-opacity:1;"
         offset="0"
         id="stop4283" />
      <stop
         style="stop-color:#505050;stop-opacity:1;"
         offset="1"
         id="stop4285" />
    </linearGradient>
    <inkscape:perspective
       sodipodi:type="inkscape:persp3d"
       inkscape:vp_x="0 : 48 : 1"
       inkscape:vp_y="0 : 1000 : 0"
       inkscape:vp_z="96 : 48 : 1"
       inkscape:persp3d-origin="48 : 32 : 1"
       id="perspective48" />
    <linearGradient
       id="ButtonShadow"
       gradientTransform="scale(1.0058652,0.994169)"
       x1="45.447727"
       y1="92.539597"
       x2="45.447727"
       y2="7.0165396"
       gradientUnits="userSpaceOnUse">
      <stop
         style="stop-color:#000000;stop-opacity:1;"
         offset="0"
         id="stop3750" />
      <stop
         style="stop-color:#000000;stop-opacity:0.58823532;"
         offset="1"
         id="stop3752" />
    </linearGradient>
    <linearGradient
       inkscape:collect="always"
       id="linearGradient3737">
      <stop
         style="stop-color:#ffffff;stop-opacity:1;"
         offset="0"
         id="stop3739" />
      <stop
         style="stop-color:#ffffff;stop-opacity:0;"
         offset="1"
         id="stop3741" />
    </linearGradient>
    <linearGradient
       id="linearGradient3700">
      <stop
         style="stop-color:#2276c5;stop-opacity:1;"
         offset="0"
         id="stop3702" />
      <stop
         style="stop-color:#68baf4;stop-opacity:1;"
         offset="1"
         id="stop3704" />
    </linearGradient>
    <filter
       inkscape:collect="always"
       id="filter3174">
      <feGaussianBlur
         inkscape:collect="always"
         stdDeviation="1.71"
         id="feGaussianBlur3176" />
    </filter>
    <linearGradient
       inkscape:collect="always"
       xlink:href="#linearGradient3737"
       id="linearGradient3188"
       gradientUnits="userSpaceOnUse"
       x1="36.357143"
       y1="6"
       x2="36.357143"
       y2="63.893143" />
    <filter
       inkscape:collect="always"
       id="filter3794"
       x="-0.192"
       width="1.384"
       y="-0.192"
       height="1.384">
      <feGaussianBlur
         inkscape:collect="always"
         stdDeviation="5.28"
         id="feGaussianBlur3796" />
    </filter>
    <linearGradient
       inkscape:collect="always"
       xlink:href="#linearGradient3737"
       id="linearGradient3613"
       x1="48"
       y1="20.220806"
       x2="48"
       y2="138.66119"
       gradientUnits="userSpaceOnUse" />
    <radialGradient
       inkscape:collect="always"
       xlink:href="#linearGradient3737"
       id="radialGradient3619"
       cx="48"
       cy="90.171875"
       fx="48"
       fy="90.171875"
       r="42"
       gradientTransform="matrix(1.1573129,0,0,0.99590774,-7.5510206,0.19713193)"
       gradientUnits="userSpaceOnUse" />
    <clipPath
       clipPathUnits="userSpaceOnUse"
       id="clipPath3613">
      <rect
         ry="6"
         rx="6"
         y="6"
         x="6"
         height="84"
         width="84"
         id="rect3615"
         style="fill:#ffffff;fill-opacity:1;fill-rule:nonzero;stroke:none" />
    </clipPath>
    <linearGradient
       inkscape:collect="always"
       xlink:href="#linearGradient4081"
       id="linearGradient3617"
       gradientUnits="userSpaceOnUse"
       x1="48"
       y1="90"
       x2="48"
       y2="5.9877172" />
    <linearGradient
       id="ButtonShadow-0"
       gradientTransform="matrix(1.0058652,0,0,0.994169,100,0)"
       x1="45.447727"
       y1="92.539597"
       x2="45.447727"
       y2="7.0165396"
       gradientUnits="userSpaceOnUse">
      <stop
         style="stop-color:#000000;stop-opacity:1;"
         offset="0"
         id="stop3750-8" />
      <stop
         style="stop-color:#000000;stop-opacity:0.58823532;"
         offset="1"
         id="stop3752-5" />
    </linearGradient>
    <linearGradient
       inkscape:collect="always"
       xlink:href="#ButtonShadow-0"
       id="linearGradient3780"
       gradientUnits="userSpaceOnUse"
       gradientTransform="matrix(1.0238095,0,0,1.0119048,-1.1428571,-98.071429)"
       x1="32.251034"
       y1="6.1317081"
       x2="32.251034"
       y2="90.238609" />
    <linearGradient
       inkscape:collect="always"
       xlink:href="#ButtonShadow-0"
       id="linearGradient3772"
       gradientUnits="userSpaceOnUse"
       gradientTransform="matrix(1.0238095,0,0,1.0119048,-1.1428571,-98.071429)"
       x1="32.251034"
       y1="6.1317081"
       x2="32.251034"
       y2="90.238609" />
    <linearGradient
       inkscape:collect="always"
       xlink:href="#ButtonShadow-0"
       id="linearGradient3725"
       gradientUnits="userSpaceOnUse"
       gradientTransform="matrix(1.0238095,0,0,1.0119048,-1.1428571,-98.071429)"
       x1="32.251034"
       y1="6.1317081"
       x2="32.251034"
       y2="90.238609" />
    <linearGradient
       inkscape:collect="always"
       xlink:href="#ButtonShadow-0"
       id="linearGradient3721"
       gradientUnits="userSpaceOnUse"
       gradientTransform="translate(0,-97)"
       x1="32.251034"
       y1="6.1317081"
       x2="32.251034"
       y2="90.238609" />
    <linearGradient
       y2="90.238609"
       x2="32.251034"
       y1="6.1317081"
       x1="32.251034"
       gradientTransform="matrix(1.0238095,0,0,1.0119048,-1.1428571,-98.071429)"
       gradientUnits="userSpaceOnUse"
       id="linearGradient3026"
       xlink:href="#ButtonShadow-0"
       inkscape:collect="always" />
    <linearGradient
       inkscape:collect="always"
       xlink:href="#linearGradient4081"
       id="linearGradient3722"
       x1="55"
       y1="72"
       x2="55"
       y2="23.989584"
       gradientUnits="userSpaceOnUse" />
    <linearGradient
       id="linearGradient4081">
      <stop
         style="stop-color:#8c8c8c;stop-opacity:1;"
         offset="0"
         id="stop4083" />
      <stop
         style="stop-color:#dcdcdc;stop-opacity:1;"
         offset="1"
         id="stop4085" />
    </linearGradient>
    <clipPath
       clipPathUnits="userSpaceOnUse"
       id="clipPath4194">
      <rect
         ry="6"
         rx="6"
         y="6"
         x="6"
         height="84"
         width="84"
         id="rect4196"
         style="fill:#ff00ff;fill-opacity:1;fill-rule:nonzero;stroke:none" />
    </clipPath>
    <linearGradient
       y2="26.510876"
       x2="56.692215"
       y1="66.530067"
       x1="56.692215"
       gradientUnits="userSpaceOnUse"
       id="linearGradient3038"
       xlink:href="#linearGradient4081-7"
       inkscape:collect="always"
       gradientTransform="translate(0,-80)" />
    <linearGradient
       id="linearGradient4081-7">
      <stop
         style="stop-color:#aaaaaa;stop-opacity:1;"
         offset="0"
         id="stop4083-9" />
      <stop
         style="stop-color:#f0f0f0;stop-opacity:1;"
         offset="1"
         id="stop4085-2" />
    </linearGradient>
    <linearGradient
       inkscape:collect="always"
       xlink:href="#linearGradient4281-6"
       id="linearGradient4287-4"
       x1="48"
       y1="16"
       x2="48"
       y2="80"
       gradientUnits="userSpaceOnUse" />
    <linearGradient
       id="linearGradient4281-6">
      <stop
         style="stop-color:#1e1e1e;stop-opacity:1;"
         offset="0"
         id="stop4283-9" />
      <stop
         style="stop-color:#505050;stop-opacity:1;"
         offset="1"
         id="stop4285-8" />
    </linearGradient>
    <clipPath
       clipPathUnits="userSpaceOnUse"
       id="clipPath4194-1">
      <rect
         ry="6"
         rx="6"
         y="6"
         x="6"
         height="84"
         width="84"
         id="rect4196-1"
         style="fill:#ff00ff;fill-opacity:1;fill-rule:nonzero;stroke:none" />
    </clipPath>
    <linearGradient
       inkscape:collect="always"
       xlink:href="#linearGradient4071-3"
       id="linearGradient4077-0"
       x1="48.233639"
       y1="48.047016"
       x2="126.13924"
       y2="66.232674"
       gradientUnits="userSpaceOnUse" />
    <linearGradient
       inkscape:collect="always"
       id="linearGradient4071-3">
      <stop
         style="stop-color:#000000;stop-opacity:1;"
         offset="0"
         id="stop4073-8" />
      <stop
         style="stop-color:#000000;stop-opacity:0;"
         offset="1"
         id="stop4075-4" />
    </linearGradient>
    <linearGradient
       inkscape:collect="always"
       xlink:href="#linearGradient4047-2"
       id="linearGradient4069-9"
       x1="48.055065"
       y1="48.031517"
       x2="126.67282"
       y2="62.838562"
       gradientUnits="userSpaceOnUse" />
    <linearGradient
       inkscape:collect="always"
       id="linearGradient4047-2">
      <stop
         style="stop-color:#000000;stop-opacity:1;"
         offset="0"
         id="stop4049-0" />
      <stop
         style="stop-color:#000000;stop-opacity:0;"
         offset="1"
         id="stop4051-5" />
    </linearGradient>
    <linearGradient
       inkscape:collect="always"
       xlink:href="#linearGradient4047-2"
       id="linearGradient4061-6"
       x1="47.997307"
       y1="48.028725"
       x2="127.05216"
       y2="60.289631"
       gradientUnits="userSpaceOnUse" />
    <linearGradient
       inkscape:collect="always"
       xlink:href="#linearGradient4047-2"
       id="linearGradient4053-2"
       x1="47.99826"
       y1="48.028797"
       x2="127.41583"
       y2="57.664623"
       gradientUnits="userSpaceOnUse" />
    <linearGradient
       inkscape:collect="always"
       xlink:href="#linearGradient4115-2"
       id="linearGradient4145-0"
       x1="48.233643"
       y1="48.04702"
       x2="126.13924"
       y2="66.232674"
       gradientUnits="userSpaceOnUse" />
    <linearGradient
       inkscape:collect="always"
       id="linearGradient4115-2">
      <stop
         style="stop-color:#ffffff;stop-opacity:1;"
         offset="0"
         id="stop4117-3" />
      <stop
         style="stop-color:#ffffff;stop-opacity:0;"
         offset="1"
         id="stop4119-6" />
    </linearGradient>
    <linearGradient
       inkscape:collect="always"
       xlink:href="#linearGradient4115-2"
       id="linearGradient4137-7"
       x1="48.055069"
       y1="48.031521"
       x2="126.67282"
       y2="62.838566"
       gradientUnits="userSpaceOnUse" />
    <linearGradient
       inkscape:collect="always"
       xlink:href="#linearGradient4115-2"
       id="linearGradient4129-8"
       x1="47.997311"
       y1="48.028728"
       x2="127.05216"
       y2="60.289635"
       gradientUnits="userSpaceOnUse" />
    <linearGradient
       inkscape:collect="always"
       xlink:href="#linearGradient4115-2"
       id="linearGradient4121-6"
       x1="47.998264"
       y1="48.028801"
       x2="127.41583"
       y2="57.664627"
       gradientUnits="userSpaceOnUse" />
    <linearGradient
       inkscape:collect="always"
       xlink:href="#linearGradient4071-3"
       id="linearGradient4089-7"
       gradientUnits="userSpaceOnUse"
       x1="48.233639"
       y1="48.047016"
       x2="126.13924"
       y2="66.232674" />
    <linearGradient
       inkscape:collect="always"
       xlink:href="#linearGradient4047-2"
       id="linearGradient4091-0"
       gradientUnits="userSpaceOnUse"
       x1="48.055065"
       y1="48.031517"
       x2="126.67282"
       y2="62.838562" />
    <linearGradient
       inkscape:collect="always"
       xlink:href="#linearGradient4047-2"
       id="linearGradient4093-5"
       gradientUnits="userSpaceOnUse"
       x1="47.997307"
       y1="48.028725"
       x2="127.05216"
       y2="60.289631" />
    <linearGradient
       inkscape:collect="always"
       xlink:href="#linearGradient4047-2"
       id="linearGradient4095-8"
       gradientUnits="userSpaceOnUse"
       x1="47.99826"
       y1="48.028797"
       x2="127.41583"
       y2="57.664623" />
    <linearGradient
       inkscape:collect="always"
       xlink:href="#linearGradient4071-3"
       id="linearGradient4107-8"
       gradientUnits="userSpaceOnUse"
       x1="48.233639"
       y1="48.047016"
       x2="126.13924"
       y2="66.232674" />
    <linearGradient
       inkscape:collect="always"
       xlink:href="#linearGradient4047-2"
       id="linearGradient4109-3"
       gradientUnits="userSpaceOnUse"
       x1="48.055065"
       y1="48.031517"
       x2="126.67282"
       y2="62.838562" />
    <linearGradient
       inkscape:collect="always"
       xlink:href="#linearGradient4047-2"
       id="linearGradient4111-3"
       gradientUnits="userSpaceOnUse"
       x1="47.997307"
       y1="48.028725"
       x2="127.05216"
       y2="60.289631" />
    <linearGradient
       inkscape:collect="always"
       xlink:href="#linearGradient4047-2"
       id="linearGradient4113-5"
       gradientUnits="userSpaceOnUse"
       x1="47.99826"
       y1="48.028797"
       x2="127.41583"
       y2="57.664623" />
    <linearGradient
       inkscape:collect="always"
       xlink:href="#linearGradient4115-2"
       id="linearGradient4157-8"
       gradientUnits="userSpaceOnUse"
       x1="48.233643"
       y1="48.04702"
       x2="126.13924"
       y2="66.232674" />
    <linearGradient
       inkscape:collect="always"
       xlink:href="#linearGradient4115-2"
       id="linearGradient4159-8"
       gradientUnits="userSpaceOnUse"
       x1="48.055069"
       y1="48.031521"
       x2="126.67282"
       y2="62.838566" />
    <linearGradient
       inkscape:collect="always"
       xlink:href="#linearGradient4115-2"
       id="linearGradient4161-2"
       gradientUnits="userSpaceOnUse"
       x1="47.997311"
       y1="48.028728"
       x2="127.05216"
       y2="60.289635" />
    <linearGradient
       inkscape:collect="always"
       xlink:href="#linearGradient4115-2"
       id="linearGradient4163-3"
       gradientUnits="userSpaceOnUse"
       x1="47.998264"
       y1="48.028801"
       x2="127.41583"
       y2="57.664627" />
    <radialGradient
       inkscape:collect="always"
       xlink:href="#linearGradient3737-6"
       id="radialGradient3619-8"
       cx="48"
       cy="90.171875"
       fx="48"
       fy="90.171875"
       r="42"
       gradientTransform="matrix(1.1573129,0,0,0.99590774,-7.551021,0.1971319)"
       gradientUnits="userSpaceOnUse" />
    <linearGradient
       inkscape:collect="always"
       id="linearGradient3737-6">
      <stop
         style="stop-color:#ffffff;stop-opacity:1;"
         offset="0"
         id="stop3739-9" />
      <stop
         style="stop-color:#ffffff;stop-opacity:0;"
         offset="1"
         id="stop3741-6" />
    </linearGradient>
    <linearGradient
       inkscape:collect="always"
       xlink:href="#linearGradient3737-6"
       id="linearGradient3188-1"
       gradientUnits="userSpaceOnUse"
       x1="36.357143"
       y1="6"
       x2="36.357143"
       y2="63.893143" />
    <linearGradient
       y2="63.893143"
       x2="36.357143"
       y1="6"
       x1="36.357143"
       gradientUnits="userSpaceOnUse"
       id="linearGradient3047"
       xlink:href="#linearGradient3737-6"
       inkscape:collect="always" />
    <radialGradient
       inkscape:collect="always"
       xlink:href="#linearGradient3796"
       id="radialGradient3814"
       gradientUnits="userSpaceOnUse"
       gradientTransform="matrix(1,0,0,0.98495914,-30,0.71591078)"
       cx="48.410488"
       cy="47.59774"
       fx="48.410488"
       fy="47.59774"
       r="30.640047" />
    <linearGradient
       id="linearGradient3796">
      <stop
         id="stop3798"
         offset="0"
         style="stop-color:#ffffff;stop-opacity:0;" />
      <stop
         id="stop3800"
         offset="1"
         style="stop-color:#ffffff;stop-opacity:1;" />
    </linearGradient>
    <radialGradient
       inkscape:collect="always"
       xlink:href="#linearGradient3780-6"
       id="radialGradient3816"
       gradientUnits="userSpaceOnUse"
       gradientTransform="matrix(1,0,0,1.013812,-30,-0.66140908)"
       cx="48.265148"
       cy="47.886696"
       fx="48.265148"
       fy="47.886696"
       r="28.878813" />
    <linearGradient
       id="linearGradient3780-6">
      <stop
         style="stop-color:#000000;stop-opacity:0;"
         offset="0"
         id="stop3782" />
      <stop
         style="stop-color:#000000;stop-opacity:1;"
         offset="1"
         id="stop3784" />
    </linearGradient>
    <radialGradient
       r="28.878813"
       fy="47.886696"
       fx="48.265148"
       cy="47.886696"
       cx="48.265148"
       gradientTransform="matrix(1,0,0,1.013812,-30,-0.66140908)"
       gradientUnits="userSpaceOnUse"
       id="radialGradient3147"
       xlink:href="#linearGradient3780-6"
       inkscape:collect="always" />
    <radialGradient
       inkscape:collect="always"
       xlink:href="#linearGradient3796-9"
       id="radialGradient3814-9"
       gradientUnits="userSpaceOnUse"
       gradientTransform="matrix(1,0,0,0.98495914,-30,0.71591078)"
       cx="48.410488"
       cy="47.59774"
       fx="48.410488"
       fy="47.59774"
       r="30.640047" />
    <linearGradient
       id="linearGradient3796-9">
      <stop
         id="stop3798-4"
         offset="0"
         style="stop-color:#ffffff;stop-opacity:0;" />
      <stop
         id="stop3800-9"
         offset="1"
         style="stop-color:#ffffff;stop-opacity:1;" />
    </linearGradient>
    <radialGradient
       r="28.878813"
       fy="47.886696"
       fx="48.265148"
       cy="47.886696"
       cx="48.265148"
       gradientTransform="matrix(1,0,0,1.013812,-30,-0.66140908)"
       gradientUnits="userSpaceOnUse"
       id="radialGradient3147-9"
       xlink:href="#linearGradient3780-6-5"
       inkscape:collect="always" />
    <linearGradient
       id="linearGradient3780-6-5">
      <stop
         style="stop-color:#000000;stop-opacity:0;"
         offset="0"
         id="stop3782-4" />
      <stop
         style="stop-color:#000000;stop-opacity:1;"
         offset="1"
         id="stop3784-9" />
    </linearGradient>
    <radialGradient
       r="28.878813"
       fy="47.886696"
       fx="48.265148"
       cy="47.886696"
       cx="48.265148"
       gradientTransform="matrix(1,0,0,1.013812,-30,-0.66140908)"
       gradientUnits="userSpaceOnUse"
       id="radialGradient5008"
       xlink:href="#linearGradient3780-6-5"
       inkscape:collect="always" />
    <linearGradient
       inkscape:collect="always"
       xlink:href="#linearGradient4281-6"
       id="linearGradient4068"
       gradientUnits="userSpaceOnUse"
       x1="24.508066"
       y1="35.527863"
       x2="55.491936"
       y2="35.527863" />
    <linearGradient
       inkscape:collect="always"
       xlink:href="#linearGradient4281-6"
       id="linearGradient4076"
       gradientUnits="userSpaceOnUse"
       x1="24.508066"
       y1="35.527863"
       x2="55.491936"
       y2="35.527863" />
    <linearGradient
       inkscape:collect="always"
       xlink:href="#linearGradient4281-6"
       id="linearGradient4134"
       gradientUnits="userSpaceOnUse"
       x1="24.508066"
       y1="35.527863"
       x2="55.491936"
       y2="35.527863"
       gradientTransform="matrix(0,0.85741265,-0.77885807,0,61.673082,14.00776)" />
    <linearGradient
       inkscape:collect="always"
       xlink:href="#linearGradient4281-6"
       id="linearGradient4138"
       gradientUnits="userSpaceOnUse"
       x1="24.508066"
       y1="35.527863"
       x2="55.491936"
       y2="35.527863" />
    <linearGradient
       inkscape:collect="always"
       xlink:href="#linearGradient4281-6-2"
       id="linearGradient3158"
       gradientUnits="userSpaceOnUse"
       gradientTransform="translate(4,-4)"
       x1="38"
       y1="36"
       x2="38"
       y2="68" />
    <linearGradient
       id="linearGradient4281-6-2">
      <stop
         style="stop-color:#1e1e1e;stop-opacity:1;"
         offset="0"
         id="stop4283-9-1" />
      <stop
         style="stop-color:#505050;stop-opacity:1;"
         offset="1"
         id="stop4285-8-5" />
    </linearGradient>
    <linearGradient
       y2="68"
       x2="38"
       y1="36"
       x1="38"
       gradientTransform="translate(36,-4)"
       gradientUnits="userSpaceOnUse"
       id="linearGradient3162"
       xlink:href="#linearGradient4281-6-2"
       inkscape:collect="always" />
    <linearGradient
       inkscape:collect="always"
       xlink:href="#linearGradient4281-6"
       id="linearGradient4167"
       gradientUnits="userSpaceOnUse"
       x1="24.508066"
       y1="35.527863"
       x2="55.491936"
       y2="35.527863" />
    <linearGradient
       inkscape:collect="always"
       xlink:href="#linearGradient4281-6"
       id="linearGradient4169"
       gradientUnits="userSpaceOnUse"
       x1="24.508066"
       y1="35.527863"
       x2="55.491936"
       y2="35.527863" />
    <linearGradient
       inkscape:collect="always"
       xlink:href="#linearGradient4281-6-2"
       id="linearGradient4171"
       gradientUnits="userSpaceOnUse"
       gradientTransform="translate(36,66)"
       x1="38"
       y1="36"
       x2="38"
       y2="68" />
    <linearGradient
       inkscape:collect="always"
       xlink:href="#linearGradient4281-6-2"
       id="linearGradient4173"
       gradientUnits="userSpaceOnUse"
       gradientTransform="translate(38,-4)"
       x1="38"
       y1="36"
       x2="38"
       y2="68" />
    <linearGradient
       inkscape:collect="always"
       xlink:href="#linearGradient4281-6"
       id="linearGradient4178"
       gradientUnits="userSpaceOnUse"
       gradientTransform="matrix(0,0.85741265,-0.77885807,0,61.673082,15.00776)"
       x1="24.508066"
       y1="35.527863"
       x2="55.491936"
       y2="35.527863" />
    <linearGradient
       inkscape:collect="always"
       xlink:href="#linearGradient4281-6"
       id="linearGradient4182"
       gradientUnits="userSpaceOnUse"
       gradientTransform="matrix(0,0.85741265,-0.77885807,0,61.673082,14.00776)"
       x1="24.508066"
       y1="35.527863"
       x2="55.491936"
       y2="35.527863" />
    <linearGradient
       inkscape:collect="always"
       xlink:href="#linearGradient4281-6"
       id="linearGradient4189"
       gradientUnits="userSpaceOnUse"
       gradientTransform="matrix(0,0.85741265,-0.77885807,0,61.673082,15.00776)"
       x1="24.508066"
       y1="35.527863"
       x2="55.491936"
       y2="35.527863" />
    <linearGradient
       inkscape:collect="always"
       xlink:href="#linearGradient4281-6"
       id="linearGradient4191"
       gradientUnits="userSpaceOnUse"
       gradientTransform="matrix(0,0.85741265,-0.77885807,0,61.673082,14.00776)"
       x1="24.508066"
       y1="35.527863"
       x2="55.491936"
       y2="35.527863" />
  </defs>
  <sodipodi:namedview
     id="base"
     pagecolor="#ffffff"
     bordercolor="#666666"
     borderopacity="1.0"
     inkscape:pageopacity="0.0"
     inkscape:pageshadow="2"
     inkscape:zoom="5.8802312"
     inkscape:cx="63.265621"
     inkscape:cy="23.34426"
     inkscape:document-units="px"
     inkscape:current-layer="layer4"
     showgrid="true"
     showborder="true"
     inkscape:showpageshadow="false"
     inkscape:window-width="1920"
     inkscape:window-height="1029"
     inkscape:window-x="0"
     inkscape:window-y="25"
     inkscape:window-maximized="1">
    <inkscape:grid
       type="xygrid"
       id="grid3732"
       visible="true"
       enabled="true" />
  </sodipodi:namedview>
  <metadata
     id="metadata2413">
    <rdf:RDF>
      <cc:Work
         rdf:about="">
        <dc:format>image/svg+xml</dc:format>
        <dc:type
           rdf:resource="http://purl.org/dc/dcmitype/StillImage" />
        <dc:title></dc:title>
      </cc:Work>
    </rdf:RDF>
  </metadata>
  <g
     inkscape:groupmode="layer"
     id="layer2"
     inkscape:label="Blur Shadow"
     style="display:none"
     sodipodi:insensitive="true">
    <rect
       style="opacity:0.9;fill:url(#ButtonShadow);fill-opacity:1;fill-rule:nonzero;stroke:none;filter:url(#filter3174)"
       id="rect3745"
       width="86"
       height="85"
       x="5"
       y="7"
       rx="6"
       ry="6" />
  </g>
  <g
     inkscape:groupmode="layer"
     id="layer3"
     inkscape:label="Shadow"
     sodipodi:insensitive="true">
    <path
       sodipodi:type="inkscape:offset"
       inkscape:radius="0.99097413"
       inkscape:original="M 12 -94.03125 C 7.028367 -94.03125 2.96875 -89.971633 2.96875 -85 L 2.96875 -14 C 2.96875 -9.0283671 7.0283671 -4.96875 12 -4.96875 L 84 -4.96875 C 88.971633 -4.96875 93.03125 -9.028367 93.03125 -14 L 93.03125 -85 C 93.03125 -89.971633 88.971633 -94.03125 84 -94.03125 L 12 -94.03125 z "
       style="opacity:0.07999998;fill:url(#linearGradient3026);fill-opacity:1;fill-rule:nonzero;stroke:none;display:inline"
       id="path3786"
       d="m 12,-95.03125 c -5.5110903,0 -10.03125,4.52016 -10.03125,10.03125 l 0,71 c 0,5.5110902 4.5201598,10.03125 10.03125,10.03125 l 72,0 c 5.51109,0 10.03125,-4.5201597 10.03125,-10.03125 l 0,-71 c 0,-5.51109 -4.52016,-10.03125 -10.03125,-10.03125 l -72,0 z"
       transform="scale(1,-1)" />
    <path
       sodipodi:type="inkscape:offset"
       inkscape:radius="1.0360184"
       inkscape:original="M 12 -93 C 7.5908667 -93 4 -89.409133 4 -85 L 4 -14 C 4 -9.5908667 7.5908667 -6 12 -6 L 84 -6 C 88.409133 -6 92 -9.5908667 92 -14 L 92 -85 C 92 -89.409133 88.409133 -93 84 -93 L 12 -93 z "
       style="opacity:0.1;fill:url(#linearGradient3780);fill-opacity:1;fill-rule:nonzero;stroke:none;display:inline"
       id="path3778"
       d="m 12,-94.03125 c -4.971633,0 -9.03125,4.059617 -9.03125,9.03125 l 0,71 c 0,4.9716329 4.0596171,9.03125 9.03125,9.03125 l 72,0 c 4.971633,0 9.03125,-4.059617 9.03125,-9.03125 l 0,-71 c 0,-4.971633 -4.059617,-9.03125 -9.03125,-9.03125 l -72,0 z"
       transform="scale(1,-1)" />
    <path
       sodipodi:type="inkscape:offset"
       inkscape:radius="0.98962283"
       inkscape:original="M 12 -92 C 8.122 -92 5 -88.878 5 -85 L 5 -14 C 5 -10.122 8.122 -7 12 -7 L 84 -7 C 87.878 -7 91 -10.122 91 -14 L 91 -85 C 91 -88.878 87.878 -92 84 -92 L 12 -92 z "
       style="opacity:0.2;fill:url(#linearGradient3772);fill-opacity:1;fill-rule:nonzero;stroke:none;display:inline"
       id="path3770"
       d="m 12,-93 c -4.4091333,0 -8,3.590867 -8,8 l 0,71 c 0,4.4091333 3.5908667,8 8,8 l 72,0 c 4.409133,0 8,-3.5908667 8,-8 l 0,-71 c 0,-4.409133 -3.590867,-8 -8,-8 l -72,0 z"
       transform="scale(1,-1)" />
    <rect
       style="opacity:0.3;fill:url(#linearGradient3725);fill-opacity:1;fill-rule:nonzero;stroke:none;display:inline"
       id="rect3723"
       width="86"
       height="85"
       x="5"
       y="-92"
       rx="7"
       ry="7"
       transform="scale(1,-1)" />
    <rect
       transform="scale(1,-1)"
       ry="6"
       rx="6"
       y="-91"
       x="6"
       height="84"
       width="84"
       id="rect3716"
       style="opacity:0.45;fill:url(#linearGradient3721);fill-opacity:1;fill-rule:nonzero;stroke:none;display:inline" />
  </g>
  <g
     inkscape:label="Button"
     inkscape:groupmode="layer"
     id="layer1"
     style="opacity:0.9"
     sodipodi:insensitive="true">
    <rect
       style="fill:url(#linearGradient3617);fill-opacity:1;fill-rule:nonzero;stroke:none"
       id="rect2419"
       width="84"
       height="84"
       x="6"
       y="6"
       rx="6"
       ry="6" />
  </g>
  <g
     inkscape:groupmode="layer"
     id="layer5"
     inkscape:label="Highlight"
     style="display:none"
     sodipodi:insensitive="true">
    <rect
       style="opacity:0.3;fill:url(#linearGradient3613);fill-opacity:1;fill-rule:nonzero;stroke:#ffffff;stroke-width:0.5;stroke-linecap:round;stroke-linejoin:miter;stroke-miterlimit:4;stroke-opacity:1;stroke-dasharray:none;stroke-dashoffset:0;filter:url(#filter3794)"
       id="rect3171"
       width="66"
       height="66"
       x="15"
       y="15"
       rx="12"
       ry="12"
       clip-path="url(#clipPath3613)" />
  </g>
  <g
     inkscape:groupmode="layer"
     id="layer7"
     inkscape:label="Calque"
     style="display:inline"
     sodipodi:insensitive="true">
    <g
       id="g4165"
       clip-path="url(#clipPath4194-1)">
      <g
         style="opacity:0.9"
         transform="matrix(0.1413721,0.99271966,-1.1651755,0.12044784,96.937266,-5.1946837)"
         inkscape:transform-center-y="30.567075"
         inkscape:transform-center-x="0.33129085"
         id="g4011">
        <path
           sodipodi:end="0.46793338"
           sodipodi:start="0"
           d="m 108.8959,48 a 60.895905,60.895905 0 0 1 -6.54616,27.466658 L 48,48 z"
           sodipodi:ry="60.895905"
           sodipodi:rx="60.895905"
           sodipodi:cy="48"
           sodipodi:cx="48"
           id="path4009"
           style="opacity:0.05;color:#000000;fill:url(#linearGradient4077-0);fill-opacity:1;fill-rule:nonzero;stroke:none;stroke-width:2;marker:none;visibility:visible;display:inline;overflow:visible;enable-background:accumulate"
           sodipodi:type="arc"
           inkscape:transform-center-x="-30.208857"
           inkscape:transform-center-y="3.2334227"
           transform="matrix(0.99411049,-0.1083712,0.1083712,0.99411049,-5.1582185,5.4918915)" />
        <path
           transform="matrix(0.99786084,-0.06537382,0.06537382,0.99786084,-3.0940115,3.2415713)"
           inkscape:transform-center-y="5.7561286"
           inkscape:transform-center-x="-30.389206"
           sodipodi:type="arc"
           style="opacity:0.07000002;color:#000000;fill:url(#linearGradient4069-9);fill-opacity:1;fill-rule:nonzero;stroke:none;stroke-width:2;marker:none;visibility:visible;display:inline;overflow:visible;enable-background:accumulate"
           id="path4007"
           sodipodi:cx="48"
           sodipodi:cy="48"
           sodipodi:rx="60.895905"
           sodipodi:ry="60.895905"
           d="m 108.8959,48 a 60.895905,60.895905 0 0 1 -4.45721,22.86887 L 48,48 z"
           sodipodi:start="0"
           sodipodi:end="0.38497975" />
        <path
           sodipodi:end="0.32200852"
           sodipodi:start="0"
           d="m 108.8959,48 a 60.895905,60.895905 0 0 1 -3.12994,19.271878 L 48,48 z"
           sodipodi:ry="60.895905"
           sodipodi:rx="60.895905"
           sodipodi:cy="48"
           sodipodi:cx="48"
           id="path4005"
           style="opacity:0.1;color:#000000;fill:url(#linearGradient4061-6);fill-opacity:1;fill-rule:nonzero;stroke:none;stroke-width:2;marker:none;visibility:visible;display:inline;overflow:visible;enable-background:accumulate"
           sodipodi:type="arc"
           inkscape:transform-center-x="-30.447953"
           inkscape:transform-center-y="7.6655702"
           transform="matrix(0.99945136,-0.0331207,0.0331207,0.99945136,-1.5634586,1.6161281)" />
        <path
           sodipodi:type="arc"
           style="opacity:0.1;color:#000000;fill:url(#linearGradient4053-2);fill-opacity:1;fill-rule:nonzero;stroke:none;stroke-width:2;marker:none;visibility:visible;display:inline;overflow:visible;enable-background:accumulate"
           id="path4003"
           sodipodi:cx="48"
           sodipodi:cy="48"
           sodipodi:rx="60.895905"
           sodipodi:ry="60.895905"
           d="m 108.8959,48 a 60.895905,60.895905 0 0 1 -2.07497,15.76102 L 48,48 z"
           sodipodi:start="0"
           sodipodi:end="0.26179939" />
      </g>
      <g
         style="display:inline"
         id="g3802"
         transform="matrix(1.8327427,0,0,1.8327427,14.258316,-39.234412)">
        <path
           id="path2875"
           d="m 19.196345,49.867051 c -3.738265,2.562962 -5.605177,-4.899096 -1.154974,-4.811997 4.387142,-0.236076 3.979146,6.80144 -0.14484,6.614579 -3.173748,0.242635 -5.09871,-3.898691 -3.103604,-6.28528 2.027686,-2.980787 7.171211,-1.684158 7.738852,1.817453 0.968958,3.636165 -3.157198,7.038605 -6.567267,5.522909 -3.946222,-1.269714 -4.48984,-7.147021 -1.107149,-9.366244 3.569732,-2.795822 9.391656,0.237279 9.205832,4.758257 0.256767,4.350812 -4.689261,7.672183 -8.648236,5.934817 -4.719427,-1.551169 -5.691985,-8.420221 -1.909414,-11.472668 3.658906,-3.435008 10.362961,-1.458224 11.674531,3.358788 1.593108,4.559419 -2.064292,9.921397 -6.919377,10.009261 -4.934051,0.46502 -9.383474,-4.338798 -8.522574,-9.226302 0.480479,-5.045837 6.04397,-8.597229 10.838865,-7.042849 5.1784,1.246192 7.964231,7.581112 5.661928,12.315394 -2.070284,5.179524 -9.065521,7.066028 -13.621189,4.001758 C 7.424311,52.974618 6.691724,45.101154 10.86947,40.924263 15.165407,36.095492 23.773883,37.139042 26.998584,42.664618 30.58674,48.101276 27.744117,56.314514 21.553387,58.35975 15.46747,60.756196 7.906078,56.617317 6.81501,50.123425 5.34029,43.713067 10.328048,36.760898 16.940044,36.314613 23.487404,35.466926 29.995015,40.908568 30.123743,47.552814 30.647278,54.136819 25.107934,60.440072 18.464686,60.577977 11.669268,61.115926 5.164462,55.397447 5.024582,48.540282 4.472186,41.532358 10.370345,34.824958 17.442071,34.683103 24.66497,34.112562 31.571299,40.201404 31.717502,47.482327 32.261527,54.5531 26.639293,61.392472 19.567107,62.088193 12.506556,63.107347 5.157505,58.125948 3.75402,51.076328 1.988348,43.843498 6.54485,35.711895 13.76939,33.696801 21.164576,31.301406 29.973677,35.569118 32.454424,42.989908 35.283072,50.44745 31.339725,59.682116 23.876503,62.614561 16.252559,65.960228 6.418708,62.163433 3.166022,54.460386 -0.460677,46.73027 3.193552,36.558153 10.997688,33.021039 18.82455,29.10366 29.333904,32.601966 33.163654,40.497601 37.380936,48.411784 34.052463,59.257606 26.075805,63.388192 18.084772,67.914672 6.904432,64.770022 2.465338,56.722662 -2.3791,48.665231 0.567179,37.152082 8.674015,32.396769 16.646023,27.323544 28.235397,29.850105 33.441397,37.715231 39.06385,45.591587 37.04047,57.558366 29.289653,63.288465 21.671547,69.341197 9.63076,68.020226 3.297684,60.713708 -3.239068,53.668826 -3.050394,41.865619 3.303584,34.770507 9.272825,27.629169 20.397635,26.076583 28.315846,30.782782 36.185506,35.070105 40.094,45.001749 37.640404,53.557449 35.536967,62.211074 27.24013,68.797901 18.324149,68.819371 8.97298,69.194434 -0.191259,62.643413 -2.500705,53.506455 -5.341332,43.680473 -0.124703,32.229448 9.356333,28.223707 19.155827,23.693354 31.93586,27.784588 37.162944,37.26447 42.789387,46.72108 39.87111,60.054899 30.865902,66.353962 22.019424,72.970624 8.507105,71.477204 1.102802,63.362119 -6.341386,55.695116 -6.885903,42.806473 -0.631601,34.262885 5.0606,25.930536 16.515151,22.560296 25.92533,25.974441 35.26606,28.979358 41.9654,38.384321 41.762522,48.19335 41.906082,58.482225 34.780338,68.44676 24.805876,71.241542 13.885322,74.667794 0.953279,69.321177 -4.070078,58.967248 -9.666937,48.284333 -5.970775,33.868505 4.097694,27.218693 13.975245,20.253564 28.655611,22.05766 36.761841,30.94387 44.881854,39.331612 45.633312,53.326287 39.026242,62.823852 33.154466,71.852547 21.238489,76.018338 10.949015,73.085142 0.615493,70.524097 -7.504412,61.056765 -8.311604,50.418275 -9.559429,38.880739 -2.469393,26.941601 8.508072,22.946112 20.270481,18.274573 34.934134,23.160118 41.359271,34.112802 48.322248,45.22282 45.613647,61.051693 35.510744,69.352771 26.493267,77.160606 12.387989,77.789013 2.485316,71.256878 -6.825165,65.484188 -11.784926,53.82063 -9.779737,43.088463 -8.135633,32.303809 0.28228,22.917795 10.906023,20.332233 22.733464,17.16242 36.299386,22.381522 42.685854,32.892291 49.471849,43.486021 48.065091,58.327124 39.734958,67.674972 32.529312,76.136853 20.262656,79.496936 9.6632,76.384758 -0.916474,73.578219 -9.49146,64.441103 -11.417262,53.637295 c -2.468307,-12.1985 3.355421,-25.652156 14.214149,-31.8639 11.254823,-6.788152 26.723545,-4.953857 36.275015,3.999132 8.648345,7.755808 11.835188,20.655975 8.326714,31.654229 -2.022046,6.678916 -6.325835,12.653212 -12.119166,16.565345"
           style="opacity:0.2;fill:none;stroke:url(#radialGradient3814-9);stroke-width:0.47875074;stroke-linecap:butt;stroke-linejoin:miter;stroke-miterlimit:4;stroke-opacity:1;stroke-dasharray:none"
           inkscape:connector-curvature="0" />
        <path
           style="opacity:0.1;fill:none;stroke:url(#radialGradient5008);stroke-width:0.47875074;stroke-linecap:butt;stroke-linejoin:miter;stroke-miterlimit:4;stroke-opacity:1;stroke-dasharray:none"
           d="m 16.908938,49.337251 c -3.885859,-1.858917 1.368699,-6.941434 3.411713,-3.237252 2.27904,3.498707 -3.707115,6.507095 -5.513003,3.024002 -1.707843,-2.496891 0.785978,-6.049192 3.698336,-5.541192 3.416899,0.252456 4.793862,5.102047 2.181575,7.233199 -2.532331,2.525401 -7.29345,0.746141 -7.666384,-2.780808 -0.830168,-3.851348 3.748869,-7.091646 7.182845,-5.362045 3.99743,1.609549 4.267549,7.842669 0.458223,9.838071 -3.458953,2.278819 -8.542946,-0.213769 -8.994268,-4.297839 -0.965935,-4.621489 4.225535,-8.686104 8.535322,-7.023322 4.565892,1.379208 6.124601,7.836419 2.783172,11.204943 -2.995629,3.47784 -9.146812,3.015559 -11.526228,-0.938725 -2.727361,-3.840055 -0.887875,-9.784956 3.543912,-11.3989 4.381333,-2.002293 9.948059,0.889201 10.947213,5.574331 1.435048,4.854329 -2.455147,10.157563 -7.445769,10.512333 -5.246827,0.757312 -10.12361,-4.103745 -9.76636,-9.309468 0.01802,-5.709742 6.150207,-10.054138 11.57326,-8.600431 6.015751,1.241214 9.24753,8.822414 6.232018,14.102269 -2.769616,5.536748 -10.880373,7.099984 -15.505506,2.976515 -4.864393,-3.870308 -5.050974,-12.060578 -0.224597,-16.04446 4.575316,-4.259956 12.667493,-3.458359 16.17678,1.771651 3.80895,4.986067 2.422534,12.928076 -2.98489,16.19134 C 18.83607,60.791052 11.015878,59.227103 7.745554,53.82483 4.073662,48.48741 5.689263,40.416158 11.266632,37.042537 c 5.505428,-3.784787 13.828761,-2.11756 17.305945,3.635501 3.901854,5.673775 2.172224,14.2515 -3.750918,17.831693 C 19.260525,62.317493 10.959688,60.940083 7.026422,55.449838 2.83248,50.122863 3.440245,41.707002 8.57556,37.201902 c 5.113999,-4.890263 13.971988,-5.004077 19.06357,-0.0154 5.485683,4.948417 6.159129,14.226849 1.230226,19.794981 -4.793832,5.87194 -14.268338,7.014588 -20.228373,2.265378 C 2.264469,54.561726 0.716478,44.663639 5.510874,38.326026 c 4.638949,-6.658312 14.747644,-8.484394 21.367356,-3.741925 6.943491,4.580474 9.058149,14.892702 4.379458,21.796791 -4.509806,7.231865 -15.018202,9.646206 -22.208356,5.043756 -7.522829,-4.426155 -10.247414,-15.12259 -5.7334,-22.600306 4.329687,-7.816124 15.205716,-10.862146 22.971917,-6.449418 7.96379,4.150685 11.391467,14.890068 7.391869,22.912398 C 29.868774,63.65776 19.057936,67.678948 10.658608,64.02246 2.056799,60.628514 -2.577656,50.090481 0.426598,41.405945 3.118724,32.678099 12.923095,27.224564 21.782139,29.08272 c 8.714266,1.519526 15.278557,9.938154 15.167759,18.691695 0.21089,8.514533 -6.106135,16.450934 -14.313894,18.4971 C 14.514038,68.652416 5.15011,64.953633 0.895634,57.625429 -3.856667,50.107065 -2.819578,39.451315 3.603229,33.20866 10.34073,26.20139 22.24448,25.053527 30.046749,30.9535 38.432132,36.86629 41.137786,49.329185 35.819171,58.136192 30.709482,67.260839 18.348245,71.19508 8.88455,66.77652 -0.765119,62.639525 -5.956898,50.808382 -2.796187,40.857932 -0.023226,31.087582 10.326114,24.514791 20.329971,25.602598 29.892861,26.328142 38.109875,34.154427 39.771483,43.521972 41.736908,52.637894 37.17956,62.621059 29.009762,67.11528 20.609649,72.122662 9.022168,70.992831 1.982115,64.111296 -6.027249,56.751141 -7.771885,43.566581 -1.63707,34.511911 4.495996,24.82888 18.117434,21.02072 28.375069,26.147736 38.801504,30.967779 44.292627,43.907928 40.830785,54.802542 37.785762,65.471629 26.624431,72.740326 15.667763,71.815494 5.446409,71.27305 -3.644656,63.445025 -6.119946,53.58231 -8.92247,43.860185 -4.98883,32.678169 3.383683,26.958442 c 8.903096,-6.509618 22.098819,-6.347498 30.603741,0.789 9.43435,7.461299 12.381322,21.851982 6.419813,32.344931 C 34.571809,71.10276 20.256636,76.395216 8.623553,72.024532 -2.087777,68.312834 -9.307712,57.001931 -8.637065,45.747378 -8.31008,35.341121 -1.067145,25.716465 8.718892,22.266986 18.376544,18.495371 30.101898,20.963649 37.278284,28.479002 45.50753,36.70744 47.658333,50.353127 42.042169,60.604252 36.547576,71.223635 23.664019,77.118205 12.011791,74.70404 1.623111,72.794391 -6.971449,64.294867 -9.446729,54.091965 -12.164166,44.050584 -8.718564,32.650926 -0.741539,25.931955 8.125603,18.103718 21.966122,16.503896 32.238726,22.489513 43.173969,28.527234 49.014857,42.130599 46.184819,54.246468 43.910973,65.050114 34.807761,73.80318 24.08837,76.141804 17.630379,77.651323 10.668065,76.947994 4.695209,74.03875"
           id="path3650"
           inkscape:connector-curvature="0" />
      </g>
      <g
         transform="matrix(1.062807,-0.13087531,-0.74010065,3.227468,32.525111,-100.66774)"
         inkscape:transform-center-y="16.240454"
         inkscape:transform-center-x="-34.606346"
         id="g4027"
         style="opacity:0.9;fill:#ffffff">
        <path
           sodipodi:end="0.46793338"
           sodipodi:start="0"
           d="m 108.8959,48 a 60.895905,60.895905 0 0 1 -6.54616,27.466658 L 48,48 z"
           sodipodi:ry="60.895905"
           sodipodi:rx="60.895905"
           sodipodi:cy="48"
           sodipodi:cx="48"
           id="path4029"
           style="opacity:0.2;color:#000000;fill:url(#linearGradient4145-0);fill-opacity:1;fill-rule:nonzero;stroke:none;stroke-width:2;marker:none;visibility:visible;display:inline;overflow:visible;enable-background:accumulate"
           sodipodi:type="arc"
           inkscape:transform-center-x="-30.208857"
           inkscape:transform-center-y="3.2334227"
           transform="matrix(0.99411049,-0.1083712,0.1083712,0.99411049,-5.1582185,5.4918915)" />
        <path
           transform="matrix(0.99786084,-0.06537382,0.06537382,0.99786084,-3.0940115,3.2415713)"
           inkscape:transform-center-y="5.7561286"
           inkscape:transform-center-x="-30.389206"
           sodipodi:type="arc"
           style="opacity:0.4;color:#000000;fill:url(#linearGradient4137-7);fill-opacity:1;fill-rule:nonzero;stroke:none;stroke-width:2;marker:none;visibility:visible;display:inline;overflow:visible;enable-background:accumulate"
           id="path4031"
           sodipodi:cx="48"
           sodipodi:cy="48"
           sodipodi:rx="60.895905"
           sodipodi:ry="60.895905"
           d="m 108.8959,48 a 60.895905,60.895905 0 0 1 -4.45721,22.86887 L 48,48 z"
           sodipodi:start="0"
           sodipodi:end="0.38497975" />
        <path
           sodipodi:end="0.32200852"
           sodipodi:start="0"
           d="m 108.8959,48 a 60.895905,60.895905 0 0 1 -3.12994,19.271878 L 48,48 z"
           sodipodi:ry="60.895905"
           sodipodi:rx="60.895905"
           sodipodi:cy="48"
           sodipodi:cx="48"
           id="path4033"
           style="opacity:0.6;color:#000000;fill:url(#linearGradient4129-8);fill-opacity:1;fill-rule:nonzero;stroke:none;stroke-width:2;marker:none;visibility:visible;display:inline;overflow:visible;enable-background:accumulate"
           sodipodi:type="arc"
           inkscape:transform-center-x="-30.447953"
           inkscape:transform-center-y="7.6655702"
           transform="matrix(0.99945136,-0.0331207,0.0331207,0.99945136,-1.5634586,1.6161281)" />
        <path
           sodipodi:type="arc"
           style="opacity:0.8;color:#000000;fill:url(#linearGradient4121-6);fill-opacity:1;fill-rule:nonzero;stroke:none;stroke-width:2;marker:none;visibility:visible;display:inline;overflow:visible;enable-background:accumulate"
           id="path4035"
           sodipodi:cx="48"
           sodipodi:cy="48"
           sodipodi:rx="60.895905"
           sodipodi:ry="60.895905"
           d="m 108.8959,48 a 60.895905,60.895905 0 0 1 -2.07497,15.76102 L 48,48 z"
           sodipodi:start="0"
           sodipodi:end="0.26179939" />
      </g>
      <g
         id="g4079"
         inkscape:transform-center-x="26.014377"
         inkscape:transform-center-y="25.855951"
         transform="matrix(-0.61678932,0.78712829,-0.78712829,-0.61678932,115.00148,40.011929)"
         style="opacity:0.5">
        <path
           transform="matrix(0.99411049,-0.1083712,0.1083712,0.99411049,-5.1582185,5.4918915)"
           inkscape:transform-center-y="3.2334227"
           inkscape:transform-center-x="-30.208857"
           sodipodi:type="arc"
           style="opacity:0.05;color:#000000;fill:url(#linearGradient4089-7);fill-opacity:1;fill-rule:nonzero;stroke:none;stroke-width:2;marker:none;visibility:visible;display:inline;overflow:visible;enable-background:accumulate"
           id="path4081"
           sodipodi:cx="48"
           sodipodi:cy="48"
           sodipodi:rx="60.895905"
           sodipodi:ry="60.895905"
           d="m 108.8959,48 a 60.895905,60.895905 0 0 1 -6.54616,27.466658 L 48,48 z"
           sodipodi:start="0"
           sodipodi:end="0.46793338" />
        <path
           sodipodi:end="0.38497975"
           sodipodi:start="0"
           d="m 108.8959,48 a 60.895905,60.895905 0 0 1 -4.45721,22.86887 L 48,48 z"
           sodipodi:ry="60.895905"
           sodipodi:rx="60.895905"
           sodipodi:cy="48"
           sodipodi:cx="48"
           id="path4083"
           style="opacity:0.07000002;color:#000000;fill:url(#linearGradient4091-0);fill-opacity:1;fill-rule:nonzero;stroke:none;stroke-width:2;marker:none;visibility:visible;display:inline;overflow:visible;enable-background:accumulate"
           sodipodi:type="arc"
           inkscape:transform-center-x="-30.389206"
           inkscape:transform-center-y="5.7561286"
           transform="matrix(0.99786084,-0.06537382,0.06537382,0.99786084,-3.0940115,3.2415713)" />
        <path
           transform="matrix(0.99945136,-0.0331207,0.0331207,0.99945136,-1.5634586,1.6161281)"
           inkscape:transform-center-y="7.6655702"
           inkscape:transform-center-x="-30.447953"
           sodipodi:type="arc"
           style="opacity:0.1;color:#000000;fill:url(#linearGradient4093-5);fill-opacity:1;fill-rule:nonzero;stroke:none;stroke-width:2;marker:none;visibility:visible;display:inline;overflow:visible;enable-background:accumulate"
           id="path4085"
           sodipodi:cx="48"
           sodipodi:cy="48"
           sodipodi:rx="60.895905"
           sodipodi:ry="60.895905"
           d="m 108.8959,48 a 60.895905,60.895905 0 0 1 -3.12994,19.271878 L 48,48 z"
           sodipodi:start="0"
           sodipodi:end="0.32200852" />
        <path
           sodipodi:end="0.26179939"
           sodipodi:start="0"
           d="m 108.8959,48 a 60.895905,60.895905 0 0 1 -2.07497,15.76102 L 48,48 z"
           sodipodi:ry="60.895905"
           sodipodi:rx="60.895905"
           sodipodi:cy="48"
           sodipodi:cx="48"
           id="path4087"
           style="opacity:0.1;color:#000000;fill:url(#linearGradient4095-8);fill-opacity:1;fill-rule:nonzero;stroke:none;stroke-width:2;marker:none;visibility:visible;display:inline;overflow:visible;enable-background:accumulate"
           sodipodi:type="arc" />
      </g>
      <g
         id="g4097"
         inkscape:transform-center-x="-16.093513"
         inkscape:transform-center-y="-33.641891"
         transform="matrix(-0.06817198,-1.0460056,2.710673,0.60162586,-79.095447,69.080129)"
         style="opacity:0.8">
        <path
           transform="matrix(0.99411049,-0.1083712,0.1083712,0.99411049,-5.1582185,5.4918915)"
           inkscape:transform-center-y="3.2334227"
           inkscape:transform-center-x="-30.208857"
           sodipodi:type="arc"
           style="opacity:0.05;color:#000000;fill:url(#linearGradient4107-8);fill-opacity:1;fill-rule:nonzero;stroke:none;stroke-width:2;marker:none;visibility:visible;display:inline;overflow:visible;enable-background:accumulate"
           id="path4099"
           sodipodi:cx="48"
           sodipodi:cy="48"
           sodipodi:rx="60.895905"
           sodipodi:ry="60.895905"
           d="m 108.8959,48 a 60.895905,60.895905 0 0 1 -6.54616,27.466658 L 48,48 z"
           sodipodi:start="0"
           sodipodi:end="0.46793338" />
        <path
           sodipodi:end="0.38497975"
           sodipodi:start="0"
           d="m 108.8959,48 a 60.895905,60.895905 0 0 1 -4.45721,22.86887 L 48,48 z"
           sodipodi:ry="60.895905"
           sodipodi:rx="60.895905"
           sodipodi:cy="48"
           sodipodi:cx="48"
           id="path4101"
           style="opacity:0.07000002;color:#000000;fill:url(#linearGradient4109-3);fill-opacity:1;fill-rule:nonzero;stroke:none;stroke-width:2;marker:none;visibility:visible;display:inline;overflow:visible;enable-background:accumulate"
           sodipodi:type="arc"
           inkscape:transform-center-x="-30.389206"
           inkscape:transform-center-y="5.7561286"
           transform="matrix(0.99786084,-0.06537382,0.06537382,0.99786084,-3.0940115,3.2415713)" />
        <path
           transform="matrix(0.99945136,-0.0331207,0.0331207,0.99945136,-1.5634586,1.6161281)"
           inkscape:transform-center-y="7.6655702"
           inkscape:transform-center-x="-30.447953"
           sodipodi:type="arc"
           style="opacity:0.1;color:#000000;fill:url(#linearGradient4111-3);fill-opacity:1;fill-rule:nonzero;stroke:none;stroke-width:2;marker:none;visibility:visible;display:inline;overflow:visible;enable-background:accumulate"
           id="path4103"
           sodipodi:cx="48"
           sodipodi:cy="48"
           sodipodi:rx="60.895905"
           sodipodi:ry="60.895905"
           d="m 108.8959,48 a 60.895905,60.895905 0 0 1 -3.12994,19.271878 L 48,48 z"
           sodipodi:start="0"
           sodipodi:end="0.32200852" />
        <path
           sodipodi:end="0.26179939"
           sodipodi:start="0"
           d="m 108.8959,48 a 60.895905,60.895905 0 0 1 -2.07497,15.76102 L 48,48 z"
           sodipodi:ry="60.895905"
           sodipodi:rx="60.895905"
           sodipodi:cy="48"
           sodipodi:cx="48"
           id="path4105"
           style="opacity:0.1;color:#000000;fill:url(#linearGradient4113-5);fill-opacity:1;fill-rule:nonzero;stroke:none;stroke-width:2;marker:none;visibility:visible;display:inline;overflow:visible;enable-background:accumulate"
           sodipodi:type="arc" />
      </g>
      <g
         style="opacity:0.9;fill:#ffffff"
         id="g4147"
         inkscape:transform-center-x="34.606347"
         inkscape:transform-center-y="-16.240455"
         transform="matrix(-1.062807,0.1308753,0.74010064,-3.227468,62.996694,196.66774)">
        <path
           transform="matrix(0.99411049,-0.1083712,0.1083712,0.99411049,-5.1582185,5.4918915)"
           inkscape:transform-center-y="3.2334227"
           inkscape:transform-center-x="-30.208857"
           sodipodi:type="arc"
           style="opacity:0.2;color:#000000;fill:url(#linearGradient4157-8);fill-opacity:1;fill-rule:nonzero;stroke:none;stroke-width:2;marker:none;visibility:visible;display:inline;overflow:visible;enable-background:accumulate"
           id="path4149"
           sodipodi:cx="48"
           sodipodi:cy="48"
           sodipodi:rx="60.895905"
           sodipodi:ry="60.895905"
           d="m 108.8959,48 a 60.895905,60.895905 0 0 1 -6.54616,27.466658 L 48,48 z"
           sodipodi:start="0"
           sodipodi:end="0.46793338" />
        <path
           sodipodi:end="0.38497975"
           sodipodi:start="0"
           d="m 108.8959,48 a 60.895905,60.895905 0 0 1 -4.45721,22.86887 L 48,48 z"
           sodipodi:ry="60.895905"
           sodipodi:rx="60.895905"
           sodipodi:cy="48"
           sodipodi:cx="48"
           id="path4151"
           style="opacity:0.4;color:#000000;fill:url(#linearGradient4159-8);fill-opacity:1;fill-rule:nonzero;stroke:none;stroke-width:2;marker:none;visibility:visible;display:inline;overflow:visible;enable-background:accumulate"
           sodipodi:type="arc"
           inkscape:transform-center-x="-30.389206"
           inkscape:transform-center-y="5.7561286"
           transform="matrix(0.99786084,-0.06537382,0.06537382,0.99786084,-3.0940115,3.2415713)" />
        <path
           transform="matrix(0.99945136,-0.0331207,0.0331207,0.99945136,-1.5634586,1.6161281)"
           inkscape:transform-center-y="7.6655702"
           inkscape:transform-center-x="-30.447953"
           sodipodi:type="arc"
           style="opacity:0.6;color:#000000;fill:url(#linearGradient4161-2);fill-opacity:1;fill-rule:nonzero;stroke:none;stroke-width:2;marker:none;visibility:visible;display:inline;overflow:visible;enable-background:accumulate"
           id="path4153"
           sodipodi:cx="48"
           sodipodi:cy="48"
           sodipodi:rx="60.895905"
           sodipodi:ry="60.895905"
           d="m 108.8959,48 a 60.895905,60.895905 0 0 1 -3.12994,19.271878 L 48,48 z"
           sodipodi:start="0"
           sodipodi:end="0.32200852" />
        <path
           sodipodi:end="0.26179939"
           sodipodi:start="0"
           d="m 108.8959,48 a 60.895905,60.895905 0 0 1 -2.07497,15.76102 L 48,48 z"
           sodipodi:ry="60.895905"
           sodipodi:rx="60.895905"
           sodipodi:cy="48"
           sodipodi:cx="48"
           id="path4155"
           style="opacity:0.8;color:#000000;fill:url(#linearGradient4163-3);fill-opacity:1;fill-rule:nonzero;stroke:none;stroke-width:2;marker:none;visibility:visible;display:inline;overflow:visible;enable-background:accumulate"
           sodipodi:type="arc" />
      </g>
    </g>
  </g>
  <g
     inkscape:groupmode="layer"
     id="layer6"
     inkscape:label="Highlight borders"
     style="display:inline"
     sodipodi:insensitive="true">
    <path
       id="path3615"
       d="M 12,90 C 8.676,90 6,87.324 6,84 L 6,82 6,14 6,12 c 0,-0.334721 0.04135,-0.6507 0.09375,-0.96875 0.0487,-0.295596 0.09704,-0.596915 0.1875,-0.875 C 6.29113,10.12587 6.302142,10.09265 6.3125,10.0625 6.411365,9.774729 6.5473802,9.515048 6.6875,9.25 6.8320918,8.976493 7.0031161,8.714385 7.1875,8.46875 7.3718839,8.223115 7.5612765,7.995278 7.78125,7.78125 8.221197,7.353194 8.72416,6.966724 9.28125,6.6875 9.559795,6.547888 9.8547231,6.440553 10.15625,6.34375 9.9000482,6.443972 9.6695391,6.580022 9.4375,6.71875 c -0.00741,0.0044 -0.023866,-0.0045 -0.03125,0 -0.031933,0.0193 -0.062293,0.04251 -0.09375,0.0625 -0.120395,0.0767 -0.2310226,0.163513 -0.34375,0.25 -0.1061728,0.0808 -0.2132809,0.161112 -0.3125,0.25 C 8.4783201,7.442683 8.3087904,7.626638 8.15625,7.8125 8.0486711,7.942755 7.9378561,8.077785 7.84375,8.21875 7.818661,8.25713 7.805304,8.30462 7.78125,8.34375 7.716487,8.446782 7.6510225,8.548267 7.59375,8.65625 7.4927417,8.850956 7.3880752,9.071951 7.3125,9.28125 7.30454,9.30306 7.288911,9.3218 7.28125,9.34375 7.2494249,9.4357 7.2454455,9.530581 7.21875,9.625 7.1884177,9.731618 7.1483606,9.828031 7.125,9.9375 7.0521214,10.279012 7,10.635705 7,11 l 0,2 0,68 0,2 c 0,2.781848 2.2181517,5 5,5 l 2,0 68,0 2,0 c 2.781848,0 5,-2.218152 5,-5 l 0,-2 0,-68 0,-2 C 89,10.635705 88.94788,10.279012 88.875,9.9375 88.83085,9.730607 88.78662,9.539842 88.71875,9.34375 88.71105,9.3218 88.69545,9.30306 88.6875,9.28125 88.62476,9.107511 88.549117,8.913801 88.46875,8.75 88.42717,8.6672 88.38971,8.580046 88.34375,8.5 88.28915,8.40279 88.216976,8.31165 88.15625,8.21875 88.06214,8.077785 87.951329,7.942755 87.84375,7.8125 87.700576,7.63805 87.540609,7.465502 87.375,7.3125 87.36383,7.3023 87.35502,7.29135 87.34375,7.28125 87.205364,7.155694 87.058659,7.046814 86.90625,6.9375 86.803679,6.86435 86.701932,6.784136 86.59375,6.71875 c -0.0074,-0.0045 -0.02384,0.0044 -0.03125,0 -0.232039,-0.138728 -0.462548,-0.274778 -0.71875,-0.375 0.301527,0.0968 0.596455,0.204138 0.875,0.34375 0.55709,0.279224 1.060053,0.665694 1.5,1.09375 0.219973,0.214028 0.409366,0.441865 0.59375,0.6875 0.184384,0.245635 0.355408,0.507743 0.5,0.78125 0.14012,0.265048 0.276135,0.524729 0.375,0.8125 0.01041,0.03078 0.02133,0.06274 0.03125,0.09375 0.09046,0.278085 0.1388,0.579404 0.1875,0.875 C 89.95865,11.3493 90,11.665279 90,12 l 0,2 0,68 0,2 c 0,3.324 -2.676,6 -6,6 l -72,0 z"
       style="opacity:0.25;fill:url(#radialGradient3619);fill-opacity:1;fill-rule:nonzero;stroke:none;display:none"
       inkscape:connector-curvature="0" />
    <path
       style="opacity:0.5;fill:url(#linearGradient3188);fill-opacity:1;fill-rule:nonzero;stroke:none;display:none"
       d="M 12,6 C 8.676,6 6,8.676 6,12 l 0,2 0,68 0,2 c 0,0.334721 0.04135,0.6507 0.09375,0.96875 0.0487,0.295596 0.09704,0.596915 0.1875,0.875 0.0099,0.03038 0.02089,0.0636 0.03125,0.09375 0.09886,0.287771 0.23488,0.547452 0.375,0.8125 0.144592,0.273507 0.315616,0.535615 0.5,0.78125 0.184384,0.245635 0.373776,0.473472 0.59375,0.6875 0.439947,0.428056 0.94291,0.814526 1.5,1.09375 0.278545,0.139612 0.573473,0.246947 0.875,0.34375 -0.256202,-0.100222 -0.486711,-0.236272 -0.71875,-0.375 -0.0074,-0.0044 -0.02387,0.0045 -0.03125,0 -0.03193,-0.0193 -0.06229,-0.04251 -0.09375,-0.0625 -0.120395,-0.0767 -0.231023,-0.163513 -0.34375,-0.25 -0.106173,-0.0808 -0.213281,-0.161112 -0.3125,-0.25 C 8.47832,88.557317 8.30879,88.373362 8.15625,88.1875 8.048671,88.057245 7.937856,87.922215 7.84375,87.78125 7.81866,87.74287 7.8053,87.69538 7.78125,87.65625 7.71649,87.553218 7.651022,87.451733 7.59375,87.34375 7.492742,87.149044 7.388075,86.928049 7.3125,86.71875 7.3045,86.69694 7.28891,86.6782 7.28125,86.65625 7.24942,86.5643 7.24545,86.469419 7.21875,86.375 7.188418,86.268382 7.148361,86.171969 7.125,86.0625 7.052121,85.720988 7,85.364295 7,85 L 7,83 7,15 7,13 C 7,10.218152 9.218152,8 12,8 l 2,0 68,0 2,0 c 2.78185,0 5,2.218152 5,5 l 0,2 0,68 0,2 c 0,0.364295 -0.0521,0.720988 -0.125,1.0625 -0.0442,0.206893 -0.0884,0.397658 -0.15625,0.59375 -0.008,0.02195 -0.0233,0.04069 -0.0312,0.0625 -0.0627,0.173739 -0.13838,0.367449 -0.21875,0.53125 -0.0416,0.0828 -0.079,0.169954 -0.125,0.25 -0.0546,0.09721 -0.12677,0.18835 -0.1875,0.28125 -0.0941,0.140965 -0.20492,0.275995 -0.3125,0.40625 -0.14317,0.17445 -0.30314,0.346998 -0.46875,0.5 -0.0112,0.0102 -0.02,0.02115 -0.0312,0.03125 -0.13839,0.125556 -0.28509,0.234436 -0.4375,0.34375 -0.10257,0.07315 -0.20432,0.153364 -0.3125,0.21875 -0.007,0.0045 -0.0238,-0.0044 -0.0312,0 -0.23204,0.138728 -0.46255,0.274778 -0.71875,0.375 0.30153,-0.0968 0.59646,-0.204138 0.875,-0.34375 0.55709,-0.279224 1.06005,-0.665694 1.5,-1.09375 0.21997,-0.214028 0.40937,-0.441865 0.59375,-0.6875 0.18438,-0.245635 0.35541,-0.507743 0.5,-0.78125 0.14012,-0.265048 0.27613,-0.524729 0.375,-0.8125 0.0104,-0.03078 0.0213,-0.06274 0.0312,-0.09375 0.0905,-0.278085 0.1388,-0.579404 0.1875,-0.875 C 89.95865,84.6507 90,84.334721 90,84 l 0,-2 0,-68 0,-2 C 90,8.676 87.324,6 84,6 L 12,6 z"
       id="rect3728"
       inkscape:connector-curvature="0" />
    <path
       inkscape:connector-curvature="0"
       style="opacity:0.5;fill:url(#linearGradient3047);fill-opacity:1;fill-rule:nonzero;stroke:none"
       d="M 12,6 C 8.676,6 6,8.676 6,12 l 0,2 0,68 0,2 c 0,0.334721 0.04135,0.6507 0.09375,0.96875 0.0487,0.295596 0.09704,0.596915 0.1875,0.875 0.00988,0.03038 0.020892,0.0636 0.03125,0.09375 0.098865,0.287771 0.2348802,0.547452 0.375,0.8125 0.1445918,0.273507 0.3156161,0.535615 0.5,0.78125 0.1843839,0.245635 0.3737765,0.473472 0.59375,0.6875 0.439947,0.428056 0.94291,0.814526 1.5,1.09375 0.278545,0.139612 0.5734731,0.246947 0.875,0.34375 -0.2562018,-0.100222 -0.4867109,-0.236272 -0.71875,-0.375 -0.00741,-0.0044 -0.023866,0.0045 -0.03125,0 -0.031933,-0.0193 -0.062293,-0.04251 -0.09375,-0.0625 -0.120395,-0.0767 -0.2310226,-0.163513 -0.34375,-0.25 -0.1061728,-0.0808 -0.2132809,-0.161112 -0.3125,-0.25 C 8.4783201,88.557317 8.3087904,88.373362 8.15625,88.1875 8.0486711,88.057245 7.9378561,87.922215 7.84375,87.78125 7.818661,87.74287 7.805304,87.69538 7.78125,87.65625 7.716487,87.553218 7.6510225,87.451733 7.59375,87.34375 7.4927417,87.149044 7.3880752,86.928049 7.3125,86.71875 7.30454,86.69694 7.288911,86.6782 7.28125,86.65625 7.2494249,86.5643 7.2454455,86.469419 7.21875,86.375 7.1884177,86.268382 7.1483606,86.171969 7.125,86.0625 7.0521214,85.720988 7,85.364295 7,85 L 7,83 7,15 7,13 C 7,10.218152 9.2181517,8 12,8 l 2,0 68,0 2,0 c 2.781848,0 5,2.218152 5,5 l 0,2 0,68 0,2 c 0,0.364295 -0.05212,0.720988 -0.125,1.0625 -0.04415,0.206893 -0.08838,0.397658 -0.15625,0.59375 -0.0077,0.02195 -0.0233,0.04069 -0.03125,0.0625 -0.06274,0.173739 -0.138383,0.367449 -0.21875,0.53125 -0.04158,0.0828 -0.07904,0.169954 -0.125,0.25 -0.0546,0.09721 -0.126774,0.18835 -0.1875,0.28125 -0.09411,0.140965 -0.204921,0.275995 -0.3125,0.40625 -0.143174,0.17445 -0.303141,0.346998 -0.46875,0.5 -0.01117,0.0102 -0.01998,0.02115 -0.03125,0.03125 -0.138386,0.125556 -0.285091,0.234436 -0.4375,0.34375 -0.102571,0.07315 -0.204318,0.153364 -0.3125,0.21875 -0.0074,0.0045 -0.02384,-0.0044 -0.03125,0 -0.232039,0.138728 -0.462548,0.274778 -0.71875,0.375 0.301527,-0.0968 0.596455,-0.204138 0.875,-0.34375 0.55709,-0.279224 1.060053,-0.665694 1.5,-1.09375 0.219973,-0.214028 0.409366,-0.441865 0.59375,-0.6875 0.184384,-0.245635 0.355408,-0.507743 0.5,-0.78125 0.14012,-0.265048 0.276135,-0.524729 0.375,-0.8125 0.01041,-0.03078 0.02133,-0.06274 0.03125,-0.09375 0.09046,-0.278085 0.1388,-0.579404 0.1875,-0.875 C 89.95865,84.6507 90,84.334721 90,84 l 0,-2 0,-68 0,-2 C 90,8.676 87.324,6 84,6 L 12,6 z"
       id="rect3728-1" />
    <path
       inkscape:connector-curvature="0"
       id="path3615-9"
       d="M 12,90 C 8.676,90 6,87.324 6,84 L 6,82 6,14 6,12 c 0,-0.334721 0.04135,-0.6507 0.09375,-0.96875 0.0487,-0.295596 0.09704,-0.596915 0.1875,-0.875 C 6.29113,10.12587 6.302142,10.09265 6.3125,10.0625 6.411365,9.774729 6.5473802,9.515048 6.6875,9.25 6.8320918,8.976493 7.0031161,8.714385 7.1875,8.46875 7.3718839,8.223115 7.5612765,7.995278 7.78125,7.78125 8.221197,7.353194 8.72416,6.966724 9.28125,6.6875 9.559795,6.547888 9.8547231,6.440553 10.15625,6.34375 9.9000482,6.443972 9.6695391,6.580022 9.4375,6.71875 c -0.00741,0.0044 -0.023866,-0.0045 -0.03125,0 -0.031933,0.0193 -0.062293,0.04251 -0.09375,0.0625 -0.120395,0.0767 -0.2310226,0.163513 -0.34375,0.25 -0.1061728,0.0808 -0.2132809,0.161112 -0.3125,0.25 C 8.4783201,7.442683 8.3087904,7.626638 8.15625,7.8125 8.0486711,7.942755 7.9378561,8.077785 7.84375,8.21875 7.818661,8.25713 7.805304,8.30462 7.78125,8.34375 7.716487,8.446782 7.6510225,8.548267 7.59375,8.65625 7.4927417,8.850956 7.3880752,9.071951 7.3125,9.28125 7.30454,9.30306 7.288911,9.3218 7.28125,9.34375 7.2494249,9.4357 7.2454455,9.530581 7.21875,9.625 7.1884177,9.731618 7.1483606,9.828031 7.125,9.9375 7.0521214,10.279012 7,10.635705 7,11 l 0,2 0,68 0,2 c 0,2.781848 2.2181517,5 5,5 l 2,0 68,0 2,0 c 2.781848,0 5,-2.218152 5,-5 l 0,-2 0,-68 0,-2 C 89,10.635705 88.94788,10.279012 88.875,9.9375 88.83085,9.730607 88.78662,9.539842 88.71875,9.34375 88.71105,9.3218 88.69545,9.30306 88.6875,9.28125 88.62476,9.107511 88.549117,8.913801 88.46875,8.75 88.42717,8.6672 88.38971,8.580046 88.34375,8.5 88.28915,8.40279 88.216976,8.31165 88.15625,8.21875 88.06214,8.077785 87.951329,7.942755 87.84375,7.8125 87.700576,7.63805 87.540609,7.465502 87.375,7.3125 87.36383,7.3023 87.35502,7.29135 87.34375,7.28125 87.205364,7.155694 87.058659,7.046814 86.90625,6.9375 86.803679,6.86435 86.701932,6.784136 86.59375,6.71875 c -0.0074,-0.0045 -0.02384,0.0044 -0.03125,0 -0.232039,-0.138728 -0.462548,-0.274778 -0.71875,-0.375 0.301527,0.0968 0.596455,0.204138 0.875,0.34375 0.55709,0.279224 1.060053,0.665694 1.5,1.09375 0.219973,0.214028 0.409366,0.441865 0.59375,0.6875 0.184384,0.245635 0.355408,0.507743 0.5,0.78125 0.14012,0.265048 0.276135,0.524729 0.375,0.8125 0.01041,0.03078 0.02133,0.06274 0.03125,0.09375 0.09046,0.278085 0.1388,0.579404 0.1875,0.875 C 89.95865,11.3493 90,11.665279 90,12 l 0,2 0,68 0,2 c 0,3.324 -2.676,6 -6,6 l -72,0 z"
       style="opacity:0.2;fill:url(#radialGradient3619-8);fill-opacity:1;fill-rule:nonzero;stroke:none" />
  </g>
  <g
     inkscape:groupmode="layer"
     id="layer4"
     inkscape:label="Symbol"
     style="display:inline">
    <path
       style="color:#000000;fill:url(#linearGradient4134);fill-opacity:1;fill-rule:nonzero;stroke:none;stroke-width:2;marker:none;visibility:visible;display:inline;overflow:visible;enable-background:accumulate"
       d="M 68 32 C 66.892 32 66 32.892 66 34 L 66 46.0625 L 46.34375 33.53125 A 1.5495303 1.7058139 0 0 0 44 35 L 44 46.0625 L 24.34375 33.53125 A 1.5495303 1.7058139 0 0 0 22 35 L 22 61.59375 A 1.5495303 1.7058139 0 0 0 24.34375 63.0625 L 44 50.5625 L 44 61.59375 A 1.5495303 1.7058139 0 0 0 46.34375 63.0625 L 66 50.5625 L 66 62 C 66 63.108 66.892 64 68 64 L 72 64 C 73.108 64 74 63.108 74 62 L 74 34 C 74 32.892 73.108 32 72 32 L 68 32 z "
       id="path4132" />
    <path
       sodipodi:type="inkscape:offset"
       inkscape:radius="1.9892911"
       inkscape:original="M 40 22.125 L 24.5 48.9375 L 55.5 48.9375 L 40 22.125 z "
       style="color:#000000;fill:url(#linearGradient4167);fill-opacity:1;fill-rule:nonzero;stroke:none;stroke-width:2;marker:none;visibility:visible;display:inline;overflow:visible;enable-background:accumulate"
       id="path4161"
       d="m 39.90625,20.125 a 1.98949,1.98949 0 0 0 -1.625,1 l -15.5,26.8125 a 1.98949,1.98949 0 0 0 1.71875,3 l 31,0 a 1.98949,1.98949 0 0 0 1.71875,-3 l -15.5,-26.8125 a 1.98949,1.98949 0 0 0 -1.8125,-1 z"
       transform="matrix(0,0.85741265,-0.77885807,0,63.673082,84.00776)" />
    <path
       transform="matrix(0,0.85741265,-0.77885807,0,83.673082,84.00776)"
       d="m 39.90625,20.125 a 1.98949,1.98949 0 0 0 -1.625,1 l -15.5,26.8125 a 1.98949,1.98949 0 0 0 1.71875,3 l 31,0 a 1.98949,1.98949 0 0 0 1.71875,-3 l -15.5,-26.8125 a 1.98949,1.98949 0 0 0 -1.8125,-1 z"
       id="path4163"
       style="color:#000000;fill:url(#linearGradient4169);fill-opacity:1;fill-rule:nonzero;stroke:none;stroke-width:2;marker:none;visibility:visible;display:inline;overflow:visible;enable-background:accumulate"
       inkscape:original="M 40 22.125 L 24.5 48.9375 L 55.5 48.9375 L 40 22.125 z "
       inkscape:radius="1.9892911"
       sodipodi:type="inkscape:offset" />
    <path
       sodipodi:nodetypes="sssssssss"
       inkscape:connector-curvature="0"
       id="path4165"
       d="m 66,102 c -1.108,0 -2,0.892 -2,2 l 0,28 c 0,1.108 0.892,2 2,2 l 4,0 c 1.108,0 2,-0.892 2,-2 l 0,-28 c 0,-1.108 -0.892,-2 -2,-2 z"
       style="color:#000000;fill:url(#linearGradient4171);fill-opacity:1;fill-rule:nonzero;stroke:none;stroke-width:2;marker:none;visibility:visible;display:inline;overflow:visible;enable-background:accumulate" />
    <path
       style="color:#000000;fill:#ffffff;fill-opacity:1;fill-rule:nonzero;stroke:none;stroke-width:2;marker:none;visibility:visible;display:inline;overflow:visible;enable-background:accumulate;opacity:0.6"
       d="M 44 50.5625 L 24.34375 63.0625 A 1.5495303 1.7058139 0 0 1 22 61.75 L 22 62.59375 A 1.5495303 1.7058139 0 0 0 24.34375 64.0625 L 44 51.5625 L 44 50.5625 z M 66 50.5625 L 46.34375 63.0625 A 1.5495303 1.7058139 0 0 1 44 61.75 L 44 62.59375 A 1.5495303 1.7058139 0 0 0 46.34375 64.0625 L 66 51.5625 L 66 50.5625 z M 66 62 L 66 63 C 66 64.108 66.892 65 68 65 L 72 65 C 73.108 65 74 64.108 74 63 L 74 62 C 74 63.108 73.108 64 72 64 L 68 64 C 66.892 64 66 63.108 66 62 z "
       id="path4176" />
    <path
       style="color:#000000;fill:#000000;fill-opacity:1;fill-rule:nonzero;stroke:none;stroke-width:2;marker:none;visibility:visible;display:inline;overflow:visible;enable-background:accumulate;opacity:0.1"
       d="M 68 32 C 66.892 32 66 32.892 66 34 L 66 46.0625 L 46.34375 33.53125 A 1.5495303 1.7058139 0 0 0 44 35 L 44 46.0625 L 24.34375 33.53125 A 1.5495303 1.7058139 0 0 0 22 35 L 22 61.59375 A 1.5495303 1.7058139 0 0 0 24.34375 63.0625 L 44 50.5625 L 44 61.59375 A 1.5495303 1.7058139 0 0 0 46.34375 63.0625 L 66 50.5625 L 66 62 C 66 63.108 66.892 64 68 64 L 72 64 C 73.108 64 74 63.108 74 62 L 74 34 C 74 32.892 73.108 32 72 32 L 68 32 z M 67.96875 33.96875 C 67.970052 33.967448 67.973957 33.96875 68 33.96875 L 72 33.96875 C 72.052085 33.96875 72.03125 33.947915 72.03125 34 L 72.03125 62 C 72.03125 62.052085 72.052085 62.03125 72 62.03125 L 68 62.03125 C 67.947915 62.03125 67.96875 62.052085 67.96875 62 L 67.96875 50.5625 A 1.9676083 1.9676083 0 0 0 64.9375 48.90625 L 45.96875 60.96875 L 45.96875 50.5625 A 1.9676083 1.9676083 0 0 0 42.9375 48.90625 L 23.96875 60.96875 L 23.96875 35.625 L 42.9375 47.71875 A 1.9676083 1.9676083 0 0 0 45.96875 46.0625 L 45.96875 35.625 L 64.9375 47.71875 A 1.9676083 1.9676083 0 0 0 67.96875 46.0625 L 67.96875 34 C 67.96875 33.973957 67.967448 33.970052 67.96875 33.96875 z "
       id="path4198" />
    <path
       style="color:#000000;fill:#000000;fill-opacity:1;fill-rule:nonzero;stroke:none;stroke-width:2;marker:none;visibility:visible;display:inline;overflow:visible;enable-background:accumulate;opacity:0.2"
       d="M 68 32 C 66.892 32 66 32.892 66 34 L 66 46.0625 L 46.34375 33.53125 A 1.5495303 1.7058139 0 0 0 44 35 L 44 46.0625 L 24.34375 33.53125 A 1.5495303 1.7058139 0 0 0 22 35 L 22 61.59375 A 1.5495303 1.7058139 0 0 0 24.34375 63.0625 L 44 50.5625 L 44 61.59375 A 1.5495303 1.7058139 0 0 0 46.34375 63.0625 L 66 50.5625 L 66 62 C 66 63.108 66.892 64 68 64 L 72 64 C 73.108 64 74 63.108 74 62 L 74 34 C 74 32.892 73.108 32 72 32 L 68 32 z M 68 32.9375 L 72 32.9375 C 72.602997 32.9375 73.0625 33.397003 73.0625 34 L 73.0625 62 C 73.0625 62.602997 72.602997 63.0625 72 63.0625 L 68 63.0625 C 67.397003 63.0625 66.9375 62.602997 66.9375 62 L 66.9375 50.5625 A 0.94103006 0.94103006 0 0 0 65.5 49.78125 L 45.84375 62.28125 A 0.94103006 0.94103006 0 0 0 45.8125 62.28125 C 45.765204 62.31233 45.830624 62.253491 45.78125 62.28125 C 45.731876 62.309009 45.801236 62.288239 45.75 62.3125 C 45.698764 62.336761 45.771613 62.32315 45.71875 62.34375 C 45.665887 62.36435 45.741734 62.326953 45.6875 62.34375 C 45.633266 62.360547 45.711582 62.330877 45.65625 62.34375 C 45.600918 62.356623 45.681142 62.334896 45.625 62.34375 C 45.568858 62.352604 45.650403 62.370232 45.59375 62.375 C 45.537097 62.379768 45.619356 62.374354 45.5625 62.375 C 45.505644 62.375646 45.588 62.37848 45.53125 62.375 C 45.4745 62.37152 45.556335 62.35133 45.5 62.34375 C 45.443665 62.33617 45.493117 62.355373 45.4375 62.34375 C 45.381883 62.332127 45.460858 62.35933 45.40625 62.34375 C 45.351642 62.32817 45.42832 62.363174 45.375 62.34375 C 45.32168 62.324326 45.395522 62.335631 45.34375 62.3125 C 45.291978 62.289369 45.362481 62.339182 45.3125 62.3125 C 45.262519 62.285818 45.329219 62.31131 45.28125 62.28125 C 45.233281 62.25119 45.295756 62.283252 45.25 62.25 C 45.227122 62.233374 45.215423 62.241312 45.21875 62.25 C 45.175388 62.213752 45.228309 62.257791 45.1875 62.21875 C 45.146691 62.179709 45.194364 62.229126 45.15625 62.1875 C 45.118136 62.145874 45.160296 62.169 45.125 62.125 C 45.089704 62.081 45.126121 62.139913 45.09375 62.09375 C 45.061379 62.047587 45.091854 62.110613 45.0625 62.0625 C 45.033146 62.014387 45.057508 62.049852 45.03125 62 C 45.004992 61.950148 45.054344 62.020131 45.03125 61.96875 C 45.008156 61.917369 45.019875 61.958952 45 61.90625 C 44.980125 61.853548 44.985359 61.928815 44.96875 61.875 C 44.952141 61.821185 44.982056 61.867222 44.96875 61.8125 C 44.955444 61.757778 44.978724 61.805425 44.96875 61.75 C 44.958776 61.694575 44.94412 61.774674 44.9375 61.71875 C 44.93088 61.662826 44.940753 61.71247 44.9375 61.65625 C 44.934247 61.60003 44.937379 61.650064 44.9375 61.59375 L 44.9375 50.5625 A 0.94103006 0.94103006 0 0 0 43.5 49.78125 L 23.84375 62.28125 A 0.94103006 0.94103006 0 0 0 23.8125 62.28125 C 23.765204 62.31233 23.830624 62.253491 23.78125 62.28125 C 23.731876 62.309009 23.801236 62.288239 23.75 62.3125 C 23.698764 62.336761 23.771613 62.32315 23.71875 62.34375 C 23.665887 62.36435 23.741734 62.326953 23.6875 62.34375 C 23.633266 62.360547 23.711582 62.330877 23.65625 62.34375 C 23.600918 62.356623 23.681142 62.334896 23.625 62.34375 C 23.568858 62.352604 23.650403 62.370232 23.59375 62.375 C 23.537097 62.379768 23.619356 62.374354 23.5625 62.375 C 23.505644 62.375646 23.588 62.37848 23.53125 62.375 C 23.4745 62.37152 23.556335 62.35133 23.5 62.34375 C 23.443665 62.33617 23.493117 62.355373 23.4375 62.34375 C 23.381883 62.332127 23.460858 62.35933 23.40625 62.34375 C 23.351642 62.32817 23.42832 62.363174 23.375 62.34375 C 23.32168 62.324326 23.395522 62.335631 23.34375 62.3125 C 23.291978 62.289369 23.362481 62.339182 23.3125 62.3125 C 23.262519 62.285818 23.329219 62.31131 23.28125 62.28125 C 23.233281 62.25119 23.295756 62.283252 23.25 62.25 C 23.227122 62.233374 23.215423 62.241312 23.21875 62.25 C 23.175388 62.213752 23.228309 62.257791 23.1875 62.21875 C 23.146691 62.179709 23.194364 62.229126 23.15625 62.1875 C 23.118136 62.145874 23.160296 62.169 23.125 62.125 C 23.089704 62.081 23.126121 62.139913 23.09375 62.09375 C 23.061379 62.047587 23.091854 62.110613 23.0625 62.0625 C 23.033146 62.014387 23.057508 62.049852 23.03125 62 C 23.004992 61.950148 23.054344 62.020131 23.03125 61.96875 C 23.008156 61.917369 23.019875 61.958952 23 61.90625 C 22.980125 61.853548 22.985359 61.928815 22.96875 61.875 C 22.952141 61.821185 22.982056 61.867222 22.96875 61.8125 C 22.955444 61.757778 22.978724 61.805425 22.96875 61.75 C 22.958776 61.694575 22.94412 61.774674 22.9375 61.71875 C 22.93088 61.662826 22.940753 61.71247 22.9375 61.65625 C 22.934247 61.60003 22.937379 61.650064 22.9375 61.59375 L 22.9375 35 C 22.937379 34.943686 22.934247 34.99372 22.9375 34.9375 C 22.940753 34.88128 22.93088 34.930924 22.9375 34.875 C 22.94412 34.819076 22.958776 34.899175 22.96875 34.84375 C 22.978724 34.788325 22.955444 34.835972 22.96875 34.78125 C 22.982056 34.726528 22.952141 34.772565 22.96875 34.71875 C 22.985359 34.664935 22.980125 34.740202 23 34.6875 C 23.019875 34.634798 23.008156 34.676381 23.03125 34.625 C 23.054344 34.573619 23.004992 34.643602 23.03125 34.59375 C 23.057508 34.543898 23.033146 34.579363 23.0625 34.53125 C 23.091854 34.483137 23.061379 34.546163 23.09375 34.5 C 23.126121 34.453837 23.089704 34.51275 23.125 34.46875 C 23.160296 34.42475 23.118136 34.447876 23.15625 34.40625 C 23.194364 34.364624 23.146691 34.414041 23.1875 34.375 C 23.228309 34.335959 23.175388 34.379998 23.21875 34.34375 C 23.215423 34.352438 23.227122 34.360376 23.25 34.34375 C 23.295756 34.310498 23.233281 34.34256 23.28125 34.3125 C 23.329219 34.28244 23.262519 34.307932 23.3125 34.28125 C 23.362481 34.254568 23.291978 34.304381 23.34375 34.28125 C 23.395522 34.258119 23.32168 34.269424 23.375 34.25 C 23.42832 34.230576 23.351642 34.26558 23.40625 34.25 C 23.460858 34.23442 23.381883 34.261623 23.4375 34.25 C 23.493117 34.238377 23.443665 34.25758 23.5 34.25 C 23.556335 34.24242 23.4745 34.22223 23.53125 34.21875 C 23.588 34.21527 23.505644 34.218104 23.5625 34.21875 C 23.619356 34.219396 23.537097 34.213982 23.59375 34.21875 C 23.650403 34.223518 23.568858 34.241146 23.625 34.25 C 23.681142 34.258854 23.600918 34.237127 23.65625 34.25 C 23.711582 34.262873 23.633266 34.233203 23.6875 34.25 C 23.741734 34.266797 23.665887 34.2294 23.71875 34.25 C 23.771613 34.2706 23.698764 34.256989 23.75 34.28125 C 23.801236 34.305511 23.731876 34.284741 23.78125 34.3125 C 23.830624 34.340259 23.765204 34.28142 23.8125 34.3125 A 0.94103006 0.94103006 0 0 0 23.84375 34.3125 L 43.5 46.84375 A 0.94103006 0.94103006 0 0 0 44.9375 46.0625 L 44.9375 35 C 44.937379 34.943686 44.934247 34.99372 44.9375 34.9375 C 44.940753 34.88128 44.93088 34.930924 44.9375 34.875 C 44.94412 34.819076 44.958776 34.899175 44.96875 34.84375 C 44.978724 34.788325 44.955444 34.835972 44.96875 34.78125 C 44.982056 34.726528 44.952141 34.772565 44.96875 34.71875 C 44.985359 34.664935 44.980125 34.740202 45 34.6875 C 45.019875 34.634798 45.008156 34.676381 45.03125 34.625 C 45.054344 34.573619 45.004992 34.643602 45.03125 34.59375 C 45.057508 34.543898 45.033146 34.579363 45.0625 34.53125 C 45.091854 34.483137 45.061379 34.546163 45.09375 34.5 C 45.126121 34.453837 45.089704 34.51275 45.125 34.46875 C 45.160296 34.42475 45.118136 34.447876 45.15625 34.40625 C 45.194364 34.364624 45.146691 34.414041 45.1875 34.375 C 45.228309 34.335959 45.175388 34.379998 45.21875 34.34375 C 45.215423 34.352438 45.227122 34.360376 45.25 34.34375 C 45.295756 34.310498 45.233281 34.34256 45.28125 34.3125 C 45.329219 34.28244 45.262519 34.307932 45.3125 34.28125 C 45.362481 34.254568 45.291978 34.304381 45.34375 34.28125 C 45.395522 34.258119 45.32168 34.269424 45.375 34.25 C 45.42832 34.230576 45.351642 34.26558 45.40625 34.25 C 45.460858 34.23442 45.381883 34.261623 45.4375 34.25 C 45.493117 34.238377 45.443665 34.25758 45.5 34.25 C 45.556335 34.24242 45.4745 34.22223 45.53125 34.21875 C 45.588 34.21527 45.505644 34.218104 45.5625 34.21875 C 45.619356 34.219396 45.537097 34.213982 45.59375 34.21875 C 45.650403 34.223518 45.568858 34.241146 45.625 34.25 C 45.681142 34.258854 45.600918 34.237127 45.65625 34.25 C 45.711582 34.262873 45.633266 34.233203 45.6875 34.25 C 45.741734 34.266797 45.665887 34.2294 45.71875 34.25 C 45.771613 34.2706 45.698764 34.256989 45.75 34.28125 C 45.801236 34.305511 45.731876 34.284741 45.78125 34.3125 C 45.830624 34.340259 45.765204 34.28142 45.8125 34.3125 A 0.94103006 0.94103006 0 0 0 45.84375 34.3125 L 65.5 46.84375 A 0.94103006 0.94103006 0 0 0 66.9375 46.0625 L 66.9375 34 C 66.9375 33.397003 67.397003 32.9375 68 32.9375 z "
       id="path4194" />
    <path
       style="color:#000000;fill:#000000;fill-opacity:1;fill-rule:nonzero;stroke:none;stroke-width:2;marker:none;visibility:visible;display:inline;overflow:visible;enable-background:accumulate;opacity:0.6"
       d="M 68 32 C 66.892 32 66 32.892 66 34 L 66 35 C 66 33.892 66.892 33 68 33 L 72 33 C 73.108 33 74 33.892 74 35 L 74 34 C 74 32.892 73.108 32 72 32 L 68 32 z M 23.46875 33.28125 A 1.5495303 1.7058139 0 0 0 22 35 L 22 35.8125 A 1.5495303 1.7058139 0 0 1 24.34375 34.53125 L 44 47.0625 L 44 46.0625 L 24.34375 33.53125 A 1.5495303 1.7058139 0 0 0 23.46875 33.28125 z M 45.46875 33.28125 A 1.5495303 1.7058139 0 0 0 44 35 L 44 35.8125 A 1.5495303 1.7058139 0 0 1 46.34375 34.53125 L 66 47.0625 L 66 46.0625 L 46.34375 33.53125 A 1.5495303 1.7058139 0 0 0 45.46875 33.28125 z "
       id="path4185" />
  </g>
</svg>
