<?xml version="1.0" encoding="UTF-8" standalone="no"?>
<!-- Generator: Adobe Illustrator 19.1.0, SVG Export Plug-In . SVG Version: 6.00 Build 0)  -->

<svg
   xmlns:dc="http://purl.org/dc/elements/1.1/"
   xmlns:cc="http://creativecommons.org/ns#"
   xmlns:rdf="http://www.w3.org/1999/02/22-rdf-syntax-ns#"
   xmlns:svg="http://www.w3.org/2000/svg"
   xmlns="http://www.w3.org/2000/svg"
   xmlns:sodipodi="http://sodipodi.sourceforge.net/DTD/sodipodi-0.dtd"
   xmlns:inkscape="http://www.inkscape.org/namespaces/inkscape"
   version="1.1"
   id="Layer_1"
   x="0px"
   y="0px"
   width="1800"
   height="1800"
   viewBox="0 0 1800 1800"
   xml:space="preserve"
   inkscape:version="0.91 r13725"
   sodipodi:docname="qt.svg"><metadata
     id="metadata19"><rdf:RDF><cc:Work
         rdf:about=""><dc:format>image/svg+xml</dc:format><dc:type
           rdf:resource="http://purl.org/dc/dcmitype/StillImage" /><dc:title></dc:title></cc:Work></rdf:RDF></metadata><defs
     id="defs17" /><sodipodi:namedview
     pagecolor="#ffffff"
     bordercolor="#666666"
     borderopacity="1"
     objecttolerance="10"
     gridtolerance="10"
     guidetolerance="10"
     inkscape:pageopacity="0"
     inkscape:pageshadow="2"
     inkscape:window-width="652"
     inkscape:window-height="480"
     id="namedview15"
     showgrid="false"
     inkscape:zoom="0.13111111"
     inkscape:cx="556.52542"
     inkscape:cy="900"
     inkscape:window-x="0"
     inkscape:window-y="23"
     inkscape:window-maximized="0"
     inkscape:current-layer="Layer_1" /><style
     type="text/css"
     id="style3">
	.st0{fill:#80C342;}
	.st1{fill:#FFFFFF;}
	.st2{fill:none;}
</style><g
     id="g5"
     transform="translate(211,0.48886504)"><path
       class="st0"
       d="M 250.5,4.1 C 117.3,-17.9 5,80.4 5,223.6 L 5,1798 1224.5,1592.7 C 1308.6,1578.1 1373,1479 1373,1371.9 L 1373,188.4 250.5,4.1 Z"
       id="path7"
       inkscape:connector-curvature="0"
       style="fill:#80c342" /><path
       class="st1"
       d="m 1144,1166.6 c -14.3,0 -23.3,-4.5 -30.2,-13.6 -7.7,-10 -9.8,-32.2 -9.8,-66.7 l 0,-396.9 103,5.1 0,-108.6 -103,-7.9 0,-173.1 -100.3,-10.6 -40.9,173.9 -65,-4.7 0,116.4 45.8,2.4 0,439.9 c 0,57.6 14.6,99.6 38,125.7 20,22.6 50.9,33.7 89.2,33.7 5.7,0 11.8,-0.3 17.9,-0.8 42.4,-3.6 83.9,-15.1 129.6,-34.4 l 0,-99.8 c -22.9,11.8 -49,18.5 -70.8,19.8 -1.3,0.2 -2.1,0.2 -3.5,0.2"
       id="path9"
       inkscape:connector-curvature="0"
       style="fill:#ffffff" /><path
       class="st1"
       d="m 819.7,1167.3 c -35.3,83.1 -89,137.6 -162.6,162.8 7.4,38.1 18.6,63.7 33.6,77.3 11.6,10.4 29.4,15.6 53.3,15.6 6.9,0 14.3,-0.5 22.2,-1.3 l 0,112.3 -51.1,6.7 c -15.1,2 -29.3,2.9 -42.8,2.9 -44.7,0 -80.9,-10.9 -108.1,-32.8 -36,-28.9 -62.6,-84.7 -79.6,-167.3 -78.3,-16.7 -139.3,-66.4 -181.5,-149.9 -42.9,-84.8 -64.7,-208.9 -64.7,-371.2 0,-175 29.9,-304.2 88.6,-386.1 49.6,-69.1 118.8,-103.1 205.8,-103.1 13.9,0 28.3,0.9 43.2,2.6 102.4,11.8 176.6,60.1 224.9,143.8 47.4,81.9 70.7,199.3 70.7,353.4 -0.1,141.2 -17.3,252.3 -51.9,334.3 z m -154,-32.1 c 20.2,-51.8 30.1,-153.5 30.1,-305.1 0,-136.1 -9.8,-229.7 -29.9,-281.1 -20,-51.6 -50,-79.5 -90.1,-83 -3.1,-0.3 -6.1,-0.4 -9.1,-0.4 -37.2,0 -65.8,21.7 -85.7,65.3 -21.6,47.5 -32.5,146 -32.5,295 0,144 10.6,246.2 32,306.2 20.2,57.1 50.4,85.5 90,85.5 1.8,0 3.5,-0.1 5.3,-0.2 39.7,-2.5 69.6,-29.9 89.9,-82.2"
       id="path11"
       inkscape:connector-curvature="0"
       style="fill:#ffffff" /></g><rect
     class="st2"
     width="1380"
     height="1800"
     id="rect13"
     x="0"
     y="0"
     style="fill:none" /></svg>