<?xml version="1.0" encoding="UTF-8" standalone="no"?>
<!-- Created with Inkscape (http://www.inkscape.org/) -->

<svg
   xmlns:dc="http://purl.org/dc/elements/1.1/"
   xmlns:cc="http://creativecommons.org/ns#"
   xmlns:rdf="http://www.w3.org/1999/02/22-rdf-syntax-ns#"
   xmlns:svg="http://www.w3.org/2000/svg"
   xmlns="http://www.w3.org/2000/svg"
   xmlns:xlink="http://www.w3.org/1999/xlink"
   xmlns:sodipodi="http://sodipodi.sourceforge.net/DTD/sodipodi-0.dtd"
   xmlns:inkscape="http://www.inkscape.org/namespaces/inkscape"
   width="128"
   height="128"
   id="svg5041"
   version="1.1"
   inkscape:version="0.48.4 r9939"
   sodipodi:docname="play.svg"
   inkscape:export-filename="/home/tadej/workspace/tanoprojects/tano/data/logo/16x16/logo.png"
   inkscape:export-xdpi="11.25"
   inkscape:export-ydpi="11.25">
  <defs
     id="defs5043">
    <linearGradient
       inkscape:collect="always"
       xlink:href="#linearGradient4081-1"
       id="linearGradient6405"
       gradientUnits="userSpaceOnUse"
       x1="48"
       y1="72"
       x2="48"
       y2="24" />
    <linearGradient
       id="linearGradient4081-1">
      <stop
         id="stop4083-0"
         style="stop-color:#aaaaaa;stop-opacity:1"
         offset="0" />
      <stop
         id="stop4085-1"
         style="stop-color:#f0f0f0;stop-opacity:1"
         offset="1" />
    </linearGradient>
  </defs>
  <sodipodi:namedview
     id="base"
     pagecolor="#ffffff"
     bordercolor="#666666"
     borderopacity="1.0"
     inkscape:pageopacity="0.0"
     inkscape:pageshadow="2"
     inkscape:zoom="1.979899"
     inkscape:cx="112.33649"
     inkscape:cy="-15.658677"
     inkscape:document-units="px"
     inkscape:current-layer="layer1"
     showgrid="true"
     inkscape:snap-global="true"
     inkscape:snap-bbox="true"
     inkscape:window-width="1858"
     inkscape:window-height="1028"
     inkscape:window-x="60"
     inkscape:window-y="29"
     inkscape:window-maximized="1">
    <inkscape:grid
       type="xygrid"
       id="grid5082"
       empspacing="5"
       visible="true"
       enabled="true"
       snapvisiblegridlinesonly="true" />
  </sodipodi:namedview>
  <metadata
     id="metadata5046">
    <rdf:RDF>
      <cc:Work
         rdf:about="">
        <dc:format>image/svg+xml</dc:format>
        <dc:type
           rdf:resource="http://purl.org/dc/dcmitype/StillImage" />
        <dc:title></dc:title>
      </cc:Work>
    </rdf:RDF>
  </metadata>
  <g
     inkscape:label="Layer 1"
     inkscape:groupmode="layer"
     id="layer1"
     transform="translate(0,-924.36218)">
    <g
       id="g6394"
       transform="matrix(2.3676301,0,0,2.3676301,-82.038164,853.30433)">
      <rect
         width="28"
         height="28"
         rx="2"
         ry="2"
         x="49.826084"
         y="42.86956"
         id="rect2419"
         style="fill:#3c3c3c;fill-opacity:1;fill-rule:nonzero;stroke:none;display:inline" />
      <g
         transform="translate(13.681158,8.0434782)"
         style="display:inline"
         id="layer3">
        <path
           inkscape:connector-curvature="0"
           style="opacity:0.08999999;fill:#000000;fill-opacity:1;stroke:none"
           id="path3781"
           d="M 48,21.96875 C 33.094795,21.96875 20.96875,34.094795 20.96875,49 20.96875,63.905205 33.094795,76.03125 48,76.03125 62.905205,76.03125 75.03125,63.905205 75.03125,49 75.03125,34.094795 62.905205,21.96875 48,21.96875 z M 43.03125,42.375 54.0625,49 l -11.03125,6.625 0,-13.25 z" />
        <path
           inkscape:connector-curvature="0"
           style="opacity:0.1;fill:#000000;fill-opacity:1;stroke:none"
           id="path3777"
           d="M 48,23.0625 C 33.691976,23.0625 22.0625,34.691976 22.0625,49 22.0625,63.308024 33.691976,74.9375 48,74.9375 62.308024,74.9375 73.9375,63.308024 73.9375,49 73.9375,34.691976 62.308024,23.0625 48,23.0625 z m -6.0625,17.375 14.25,8.5625 -14.25,8.5625 0,-17.125 z" />
        <path
           inkscape:connector-curvature="0"
           style="opacity:0.15;fill:#000000;fill-opacity:1;stroke:none"
           id="path3773"
           d="M 48,24.0625 C 34.240407,24.0625 23.0625,35.240407 23.0625,49 23.0625,62.759593 34.240407,73.9375 48,73.9375 61.759593,73.9375 72.9375,62.759593 72.9375,49 72.9375,35.240407 61.759593,24.0625 48,24.0625 z M 40.9375,38.65625 58.1875,49 l -17.25,10.34375 0,-20.6875 z" />
        <path
           inkscape:connector-curvature="0"
           style="opacity:0.3;fill:#000000;fill-opacity:1;stroke:none"
           id="path3767"
           d="M 48,25 C 34.745166,25 24,35.745166 24,49 24,62.254834 34.745166,73 48,73 61.254834,73 72,62.254834 72,49 72,35.745166 61.254834,25 48,25 z M 40,37 60,49 40,61 40,37 z" />
        <path
           inkscape:connector-curvature="0"
           style="fill:url(#linearGradient6405);fill-opacity:1;stroke:none"
           id="path2949"
           d="M 48,24 C 34.745166,24 24,34.745166 24,48 24,61.254834 34.745166,72 48,72 61.254834,72 72,61.254834 72,48 72,34.745166 61.254834,24 48,24 z M 40,36 60,48 40,60 40,36 z" />
        <path
           inkscape:connector-curvature="0"
           style="opacity:0.75;fill:#ffffff;fill-opacity:1;stroke:none"
           id="path3749"
           d="m 48,24 c -13.254834,0 -24,10.745166 -24,24 0,0.165582 -0.0033,0.335217 0,0.5 C 24.263839,35.473936 34.910748,25 48,25 61.089252,25 71.736161,35.473936 72,48.5 72.003338,48.335217 72,48.165582 72,48 72,34.745166 61.254834,24 48,24 z M 59.15625,48.5 40,60 40,61 60,49 59.15625,48.5 z" />
        <path
           inkscape:connector-curvature="0"
           style="opacity:0.15;fill:#000000;fill-opacity:1;stroke:none"
           id="path3758"
           d="M 40,35 40,36 59.15625,47.5 60,47 40,35 z M 24,47.5 c -0.0033,0.164783 0,0.334418 0,0.5 0,13.254834 10.745166,24 24,24 13.254834,0 24,-10.745166 24,-24 0,-0.165582 0.0033,-0.335217 0,-0.5 C 71.736161,60.526064 61.089252,71 48,71 34.910748,71 24.263839,60.526064 24,47.5 z" />
      </g>
    </g>
  </g>
</svg>
