<?xml version="1.0" encoding="UTF-8" standalone="no"?>
<!-- Created with Inkscape (http://www.inkscape.org/) -->

<svg
   xmlns:dc="http://purl.org/dc/elements/1.1/"
   xmlns:cc="http://creativecommons.org/ns#"
   xmlns:rdf="http://www.w3.org/1999/02/22-rdf-syntax-ns#"
   xmlns:svg="http://www.w3.org/2000/svg"
   xmlns="http://www.w3.org/2000/svg"
   xmlns:xlink="http://www.w3.org/1999/xlink"
   xmlns:sodipodi="http://sodipodi.sourceforge.net/DTD/sodipodi-0.dtd"
   xmlns:inkscape="http://www.inkscape.org/namespaces/inkscape"
   width="16"
   height="16"
   id="svg2"
   sodipodi:version="0.32"
   inkscape:version="0.48.0 r9654"
   version="1.0"
   sodipodi:docname="dialog-apply.svg"
   inkscape:output_extension="org.inkscape.output.svg.inkscape">
  <defs
     id="defs4">
    <inkscape:perspective
       sodipodi:type="inkscape:persp3d"
       inkscape:vp_x="0 : 8 : 1"
       inkscape:vp_y="0 : 1000 : 0"
       inkscape:vp_z="16 : 8 : 1"
       inkscape:persp3d-origin="8 : 5.3333333 : 1"
       id="perspective18" />
    <linearGradient
       id="StandardGradient"
       gradientTransform="scale(1.1467263,0.8720476)"
       x1="7.1904788"
       y1="6.9551144"
       x2="7.1904788"
       y2="18.319494"
       gradientUnits="userSpaceOnUse">
      <stop
         style="stop-color:#000000;stop-opacity:0.86274511;"
         offset="0"
         id="stop3280" />
      <stop
         style="stop-color:#000000;stop-opacity:0.47058824;"
         offset="1"
         id="stop3282" />
    </linearGradient>
    <inkscape:perspective
       id="perspective2849"
       inkscape:persp3d-origin="0.5 : 0.33333333 : 1"
       inkscape:vp_z="1 : 0.5 : 1"
       inkscape:vp_y="0 : 1000 : 0"
       inkscape:vp_x="0 : 0.5 : 1"
       sodipodi:type="inkscape:persp3d" />
    <linearGradient
       inkscape:collect="always"
       xlink:href="#StandardGradient"
       id="linearGradient3627"
       gradientUnits="userSpaceOnUse"
       gradientTransform="matrix(1.1467263,0,0,0.8720476,-20,0)"
       x1="7.1904788"
       y1="6.9551144"
       x2="7.1904788"
       y2="18.319494" />
    <clipPath
       clipPathUnits="userSpaceOnUse"
       id="clipPath3634">
      <path
         style="fill:#ff00ff;fill-opacity:1;stroke:none;display:inline"
         d="m -19.535739,2.999982 0,16 16.0000003,0 0,-16 -16.0000003,0 z m 12.0000003,3.0625 2.03125,0 0,4.625 c 0,1.550514 -1.261986,2.34375 -2.8125,2.34375 l -4.2187503,0 0,2.9375 -6,-3.96875 6,-4.09375 0,3.0625 3.0312503,0 c 1.792454,0 1.96875,-0.332819 1.96875,-2.1875 l 0,-2.71875 z"
         id="path3636" />
    </clipPath>
    <filter
       inkscape:collect="always"
       id="filter3642">
      <feGaussianBlur
         inkscape:collect="always"
         stdDeviation="0.34411632"
         id="feGaussianBlur3644" />
    </filter>
    <linearGradient
       inkscape:collect="always"
       xlink:href="#StandardGradient"
       id="linearGradient4993"
       gradientUnits="userSpaceOnUse"
       gradientTransform="scale(1.1467263,0.8720476)"
       x1="7.1904788"
       y1="6.9551144"
       x2="7.1904788"
       y2="18.319494" />
    <linearGradient
       inkscape:collect="always"
       xlink:href="#StandardGradient"
       id="linearGradient4997"
       gradientUnits="userSpaceOnUse"
       gradientTransform="matrix(1.1467263,0,0,0.8720476,-0.4642613,-2.999982)"
       x1="7.1904788"
       y1="6.9551144"
       x2="7.1904788"
       y2="18.319494" />
  </defs>
  <sodipodi:namedview
     id="base"
     pagecolor="#ffffff"
     bordercolor="#9a9a9a"
     borderopacity="1"
     inkscape:pageopacity="0.0"
     inkscape:pageshadow="2"
     inkscape:zoom="17.578558"
     inkscape:cx="-10.232603"
     inkscape:cy="6.1321827"
     inkscape:document-units="px"
     inkscape:current-layer="layer3"
     showgrid="true"
     inkscape:showpageshadow="false"
     showguides="true"
     inkscape:guide-bbox="true"
     inkscape:window-width="1920"
     inkscape:window-height="1029"
     inkscape:window-x="0"
     inkscape:window-y="25"
     inkscape:window-maximized="1">
    <sodipodi:guide
       orientation="1,0"
       position="0,112"
       id="guide2383" />
    <sodipodi:guide
       orientation="0,1"
       position="26.278146,128"
       id="guide2385" />
    <sodipodi:guide
       orientation="1,0"
       position="128,54.082119"
       id="guide2387" />
    <sodipodi:guide
       orientation="0,1"
       position="78.156291,0"
       id="guide2389" />
    <inkscape:grid
       type="xygrid"
       id="grid3672"
       visible="true"
       enabled="true" />
  </sodipodi:namedview>
  <metadata
     id="metadata7">
    <rdf:RDF>
      <cc:Work
         rdf:about="">
        <dc:format>image/svg+xml</dc:format>
        <dc:type
           rdf:resource="http://purl.org/dc/dcmitype/StillImage" />
      </cc:Work>
    </rdf:RDF>
  </metadata>
  <g
     inkscape:groupmode="layer"
     id="layer3"
     inkscape:label="Cross"
     style="display:inline"
     transform="translate(-0.4642613,-2.999982)">
    <path
       style="fill:#ffffff;fill-opacity:1;stroke:none;display:inline;opacity:0.15"
       d="M 11.90625 1.96875 A 1.0809704 1.0809704 0 0 0 10.90625 3.0625 L 10.90625 5.78125 C 10.90625 6.4081329 10.848024 6.7348773 10.84375 6.84375 C 10.717173 6.872111 10.445915 6.875 10.03125 6.875 L 8.09375 6.875 L 8.09375 4.90625 A 1.0809704 1.0809704 0 0 0 6.40625 4 L 0.40625 8.09375 A 1.0809704 1.0809704 0 0 0 0.40625 9.90625 L 6.40625 13.875 A 1.0809704 1.0809704 0 0 0 8.09375 12.96875 L 8.09375 11.125 L 11.21875 11.125 C 12.178328 11.125 13.12425 10.890509 13.875 10.3125 C 14.62575 9.734491 15.125 8.756 15.125 7.6875 L 15.125 3.0625 A 1.0809704 1.0809704 0 0 0 14.03125 1.96875 L 12 1.96875 A 1.0809704 1.0809704 0 0 0 11.90625 1.96875 z M 12 3.0625 L 14.03125 3.0625 L 14.03125 7.6875 C 14.03125 9.238014 12.769264 10.03125 11.21875 10.03125 L 7 10.03125 L 7 12.96875 L 1 9 L 7 4.90625 L 7 7.96875 L 10.03125 7.96875 C 11.823704 7.96875 12 7.635931 12 5.78125 L 12 3.0625 z "
       transform="translate(0.4642613,2.999982)"
       id="path4995" />
    <path
       style="opacity:1;fill:url(#StandardGradient);fill-opacity:1;stroke:none;stroke-width:0.99999994000000003;stroke-linecap:round;stroke-linejoin:miter;stroke-miterlimit:4;stroke-dasharray:none;stroke-opacity:1;display:inline"
       d="M 12.464261,6.0651908 L 12.464261,8.774395 C 12.464261,10.629076 12.281708,10.975028 10.489254,10.975028 L 7.4642613,10.975028 L 7.4642613,7.899782 L 1.4642613,11.999982 L 7.4642613,15.975028 L 7.4642613,13.028556 L 11.69675,13.028556 C 13.247264,13.028556 14.495512,12.249058 14.495512,10.698544 L 14.495512,6.0651908 L 12.464261,6.0651908 z"
       id="Symbol"
       sodipodi:nodetypes="cccccccccccc"
       inkscape:label="#path3281" />
    <path
       style="opacity:0.5;fill:#000000;fill-opacity:1;stroke:none;stroke-width:0.99999994000000003;stroke-linecap:round;stroke-linejoin:miter;stroke-miterlimit:4;stroke-dasharray:none;stroke-opacity:1;display:inline"
       d="M 12 3.0625 L 12 4.09375 L 14.03125 4.09375 L 14.03125 3.0625 L 12 3.0625 z M 7 4.90625 L 1 9 L 1.78125 9.5 L 7 5.9375 L 7 4.90625 z M 12 5.78125 C 12 7.6359309 11.823704 7.96875 10.03125 7.96875 L 7 7.96875 L 7 9 L 10.03125 9 C 11.823704 9 12 8.667181 12 6.8125 L 12 5.78125 z "
       transform="translate(0.4642613,2.999982)"
       id="BevelShadow"
       inkscape:label="#path3172" />
    <path
       style="opacity:0.3;fill:#ffffff;fill-opacity:1;stroke:none;stroke-width:0.99999994000000003;stroke-linecap:round;stroke-linejoin:miter;stroke-miterlimit:4;stroke-dasharray:none;stroke-opacity:1;display:inline"
       d="M 14.03125 7.6875 C 14.03125 9.238014 12.769264 10.03125 11.21875 10.03125 L 7 10.03125 L 7 11.0625 L 11.21875 11.0625 C 12.769264 11.0625 14.03125 10.269264 14.03125 8.71875 L 14.03125 7.6875 z M 11.4375 7.78125 C 11.143944 7.9375588 10.70342 7.96875 10.03125 7.96875 C 10.70342 7.96875 11.142844 7.9398673 11.4375 7.78125 z M 1 9 L 1 10.03125 L 7 14 L 7 12.96875 L 1 9 z "
       transform="translate(0.4642613,2.999982)"
       id="BevelHighlight"
       inkscape:label="#path3179" />
  </g>
</svg>
