<?xml version="1.0" encoding="UTF-8" standalone="no"?>
<!-- Created with Inkscape (http://www.inkscape.org/) -->

<svg
   xmlns:dc="http://purl.org/dc/elements/1.1/"
   xmlns:cc="http://creativecommons.org/ns#"
   xmlns:rdf="http://www.w3.org/1999/02/22-rdf-syntax-ns#"
   xmlns:svg="http://www.w3.org/2000/svg"
   xmlns="http://www.w3.org/2000/svg"
   xmlns:xlink="http://www.w3.org/1999/xlink"
   xmlns:sodipodi="http://sodipodi.sourceforge.net/DTD/sodipodi-0.dtd"
   xmlns:inkscape="http://www.inkscape.org/namespaces/inkscape"
   width="16"
   height="16"
   id="svg2"
   sodipodi:version="0.32"
   inkscape:version="0.48.1 r9760"
   version="1.0"
   sodipodi:docname="document-page-setup.svg"
   inkscape:output_extension="org.inkscape.output.svg.inkscape"
   inkscape:export-filename="/home/matt/.icons/Sirocco/scalable/mimetypes/text-plain.png"
   inkscape:export-xdpi="90"
   inkscape:export-ydpi="90"
   sodipodi:modified="true"
   style="display:inline">
  <sodipodi:namedview
     id="base"
     pagecolor="#ffffff"
     bordercolor="#666666"
     borderopacity="1.0"
     inkscape:pageopacity="0.0"
     inkscape:pageshadow="2"
     inkscape:zoom="24.785767"
     inkscape:cx="-4.0017018"
     inkscape:cy="6.5964472"
     inkscape:document-units="px"
     inkscape:current-layer="layer1"
     width="128px"
     height="128px"
     inkscape:showpageshadow="false"
     inkscape:window-width="1920"
     inkscape:window-height="1030"
     inkscape:window-x="0"
     inkscape:window-y="25"
     showguides="true"
     inkscape:guide-bbox="true"
     showgrid="true"
     inkscape:window-maximized="1"
     inkscape:snap-global="false">
    <sodipodi:guide
       id="guide2226"
       position="32.637397,117.99844"
       orientation="horizontal" />
    <sodipodi:guide
       id="guide2230"
       position="110,57.402344"
       orientation="vertical" />
    <sodipodi:guide
       id="guide2232"
       position="33.760911"
       orientation="horizontal" />
    <sodipodi:guide
       id="guide2231"
       position="46.774696"
       orientation="horizontal" />
    <inkscape:grid
       enabled="true"
       visible="true"
       id="grid3231"
       type="xygrid" />
    <sodipodi:guide
       orientation="1,0"
       position="100,67.625"
       id="guide2713" />
  </sodipodi:namedview>
  <defs
     id="defs4">
    <inkscape:perspective
       sodipodi:type="inkscape:persp3d"
       inkscape:vp_x="0 : 11 : 1"
       inkscape:vp_y="0 : 1000 : 0"
       inkscape:vp_z="22 : 11 : 1"
       inkscape:persp3d-origin="11 : 7.3333333 : 1"
       id="perspective19" />
    <linearGradient
       id="StandardGradient"
       gradientTransform="scale(0.9219544,1.0846523)"
       x1="11.998966"
       y1="0.92195445"
       x2="11.998966"
       y2="19.387045"
       gradientUnits="userSpaceOnUse">
      <stop
         style="stop-color:#000000;stop-opacity:0.86274511;"
         offset="0"
         id="stop3283" />
      <stop
         style="stop-color:#000000;stop-opacity:0.47058824;"
         offset="1"
         id="stop2651" />
    </linearGradient>
    <linearGradient
       inkscape:collect="always"
       xlink:href="#StandardGradient"
       id="linearGradient2549"
       gradientUnits="userSpaceOnUse"
       gradientTransform="matrix(0.9247229,0,0,1.0872097,-2.0600562,0.9976422)"
       x1="11.998966"
       y1="0.92195445"
       x2="11.998966"
       y2="17.478098" />
    <linearGradient
       inkscape:collect="always"
       xlink:href="#StandardGradient"
       id="linearGradient2418"
       gradientUnits="userSpaceOnUse"
       gradientTransform="matrix(0.9247229,0,0,1.0872097,-4.0600562,-3.0023583)"
       x1="11.998966"
       y1="0.92195445"
       x2="11.998966"
       y2="17.478098" />
    <linearGradient
       inkscape:collect="always"
       xlink:href="#StandardGradient"
       id="linearGradient2422"
       gradientUnits="userSpaceOnUse"
       gradientTransform="matrix(0.9247229,0,0,1.0872097,-5.0600562,-1.0023583)"
       x1="11.998966"
       y1="0.92195445"
       x2="11.998966"
       y2="17.478098" />
    <linearGradient
       inkscape:collect="always"
       xlink:href="#StandardGradient"
       id="linearGradient2403"
       gradientUnits="userSpaceOnUse"
       gradientTransform="matrix(0.9247229,0,0,1.0872097,-4.0600562,-3.0023583)"
       x1="11.998966"
       y1="0.92195445"
       x2="11.998966"
       y2="17.478098" />
    <linearGradient
       inkscape:collect="always"
       xlink:href="#StandardGradient"
       id="linearGradient2406"
       gradientUnits="userSpaceOnUse"
       gradientTransform="matrix(0.9247229,0,0,1.0872097,-4.0600562,-3.0023583)"
       x1="11.998966"
       y1="0.92195445"
       x2="11.998966"
       y2="17.478098" />
    <linearGradient
       inkscape:collect="always"
       xlink:href="#StandardGradient"
       id="linearGradient2409"
       gradientUnits="userSpaceOnUse"
       gradientTransform="matrix(0.9247229,0,0,1.0872097,-5.0600562,-3.0023583)"
       x1="11.998966"
       y1="3.6800685"
       x2="11.998966"
       y2="15.638639" />
    <linearGradient
       inkscape:collect="always"
       xlink:href="#StandardGradient"
       id="linearGradient2407"
       gradientUnits="userSpaceOnUse"
       gradientTransform="matrix(0.9247229,0,0,1.0872097,-6.0600562,-2.0023583)"
       x1="11.998966"
       y1="3.6800685"
       x2="11.998966"
       y2="15.638639" />
    <inkscape:perspective
       id="perspective3648"
       inkscape:persp3d-origin="0.5 : 0.33333333 : 1"
       inkscape:vp_z="1 : 0.5 : 1"
       inkscape:vp_y="0 : 1000 : 0"
       inkscape:vp_x="0 : 0.5 : 1"
       sodipodi:type="inkscape:persp3d" />
    <linearGradient
       inkscape:collect="always"
       xlink:href="#StandardGradient"
       id="linearGradient3634"
       gradientUnits="userSpaceOnUse"
       gradientTransform="matrix(0.9247229,0,0,1.0872097,-26.060056,-2.0023583)"
       x1="11.998966"
       y1="3.6800685"
       x2="11.998966"
       y2="15.638639" />
    <clipPath
       clipPathUnits="userSpaceOnUse"
       id="clipPath3641">
      <path
         style="fill:#ff00ff;fill-opacity:1;stroke:none;display:inline"
         d="m -20,0 0,16 16,0 0,-16 -16,0 z m 4.5,1 7,0 C -7.669,1 -7,1.669 -7,2.5 l 0,9 c 0,0.831 -0.669,1.5 -1.5,1.5 l -3.5,0 0,-2 2.5,0 c 0.277,0 0.5,-0.223 0.5,-0.5 l 0,-7 C -9,3.223 -9.223,3 -9.5,3 l -5,0 C -14.777,3 -15,3.223 -15,3.5 l 0,4.5 -2,0 0,-5.5 C -17,1.669 -16.331,1 -15.5,1 z m -1.5,8 2,0 0,2 2,0 0,2 -2,0 0,2 -2,0 0,-2 -2,0 0,-2 2,0 0,-2 z"
         id="path3643" />
    </clipPath>
    <linearGradient
       inkscape:collect="always"
       xlink:href="#StandardGradient"
       id="linearGradient2855"
       gradientUnits="userSpaceOnUse"
       gradientTransform="matrix(0.9247229,0,0,-1.0872097,-6.0600562,16.002358)"
       x1="11.998966"
       y1="3.6800685"
       x2="11.998966"
       y2="15.638639" />
    <linearGradient
       inkscape:collect="always"
       xlink:href="#StandardGradient"
       id="linearGradient2858"
       gradientUnits="userSpaceOnUse"
       gradientTransform="matrix(0.9247229,0,0,1.0872097,-6.0600562,-2.0023583)"
       x1="11.998966"
       y1="3.6800685"
       x2="11.998966"
       y2="15.638639" />
    <linearGradient
       inkscape:collect="always"
       xlink:href="#StandardGradient"
       id="linearGradient2861"
       gradientUnits="userSpaceOnUse"
       gradientTransform="matrix(0.9247229,0,0,1.0872097,-7.0600562,-2.0023583)"
       x1="11.998966"
       y1="3.6800685"
       x2="11.998966"
       y2="15.638639" />
    <linearGradient
       inkscape:collect="always"
       xlink:href="#StandardGradient"
       id="linearGradient2878"
       gradientUnits="userSpaceOnUse"
       gradientTransform="matrix(0.9247229,0,0,1.0872097,-7.0600562,-2.0023583)"
       x1="11.998966"
       y1="3.6800685"
       x2="11.998966"
       y2="15.638639" />
    <linearGradient
       inkscape:collect="always"
       xlink:href="#StandardGradient"
       id="linearGradient2882"
       gradientUnits="userSpaceOnUse"
       gradientTransform="matrix(0.9247229,0,0,1.0872097,-7.0600562,-2.0023583)"
       x1="11.998966"
       y1="3.6800685"
       x2="11.998966"
       y2="15.638639" />
    <linearGradient
       inkscape:collect="always"
       xlink:href="#StandardGradient"
       id="linearGradient2885"
       gradientUnits="userSpaceOnUse"
       gradientTransform="matrix(0.9247229,0,0,1.0872097,-27.060056,-2.0023583)"
       x1="11.998966"
       y1="2.8287227"
       x2="11.998966"
       y2="15.638639" />
    <linearGradient
       inkscape:collect="always"
       xlink:href="#StandardGradient"
       id="linearGradient2891"
       gradientUnits="userSpaceOnUse"
       gradientTransform="matrix(0.9247229,0,0,1.0872097,-7.0600562,-1.0023583)"
       x1="11.998966"
       y1="2.8287227"
       x2="11.998966"
       y2="15.638639" />
    <linearGradient
       inkscape:collect="always"
       xlink:href="#StandardGradient"
       id="linearGradient2893"
       gradientUnits="userSpaceOnUse"
       gradientTransform="matrix(0.9247229,0,0,1.0872097,-7.0600562,-2.0023583)"
       x1="11.998966"
       y1="2.8287227"
       x2="11.998966"
       y2="15.638639" />
    <linearGradient
       inkscape:collect="always"
       xlink:href="#StandardGradient"
       id="linearGradient3670"
       gradientUnits="userSpaceOnUse"
       gradientTransform="matrix(0.9247229,0,0,1.0872097,-7.0600562,-1.0023583)"
       x1="11.998966"
       y1="2.8287227"
       x2="11.998966"
       y2="15.638639" />
    <linearGradient
       inkscape:collect="always"
       xlink:href="#StandardGradient"
       id="linearGradient3674"
       gradientUnits="userSpaceOnUse"
       gradientTransform="matrix(0.9247229,0,0,1.0872097,-7.0600562,-2.0023583)"
       x1="11.998966"
       y1="2.8287227"
       x2="11.998966"
       y2="15.638639" />
    <linearGradient
       inkscape:collect="always"
       xlink:href="#StandardGradient"
       id="linearGradient3679"
       gradientUnits="userSpaceOnUse"
       gradientTransform="matrix(0.9247229,0,0,1.0872097,-27.060056,-2.0023583)"
       x1="11.998966"
       y1="2.8287227"
       x2="11.998966"
       y2="15.638639" />
    <clipPath
       clipPathUnits="userSpaceOnUse"
       id="clipPath3686">
      <path
         style="fill:#ff00ff;fill-opacity:1;stroke:none;display:inline"
         d="m -20,0 0,16 16,0 0,-16 -16,0 z m 3.5,1 0.5,0 0,11.5 c 0,0.277 0.223,0.5 0.5,0.5 l 7,0 2.5,0 0,0.5 c 0,0.727125 -0.502744,1.329338 -1.1875,1.46875 C -7.285322,14.98867 -7.396125,15 -7.5,15 l -9,0 c -0.831,0 -1.5,-0.669 -1.5,-1.5 l 0,-11 C -18,1.669 -17.331,1 -16.5,1 z m 1.5,0 9,11 -9,0 0,-11 z M -13.71875,1 -7.5,1 C -6.669,1 -6,1.669 -6,2.5 L -6,10.40625 -8,7.96875 -8,3.5 C -8,3.223 -8.223,3 -8.5,3 l -3.5625,0 -1.65625,-2 z M -13,6.5 l 0,3.5 3,0 -3,-3.5 z"
         id="path3688" />
    </clipPath>
    <linearGradient
       inkscape:collect="always"
       xlink:href="#StandardGradient"
       id="linearGradient5575"
       gradientUnits="userSpaceOnUse"
       gradientTransform="matrix(0.9247229,0,0,1.0872097,-7.0600562,-2.0023583)"
       x1="11.998966"
       y1="2.8287227"
       x2="11.998966"
       y2="15.638639" />
    <linearGradient
       inkscape:collect="always"
       xlink:href="#StandardGradient"
       id="linearGradient5579"
       gradientUnits="userSpaceOnUse"
       gradientTransform="matrix(0.9247229,0,0,1.0872097,-7.0600562,-2.0023583)"
       x1="11.998966"
       y1="2.8287227"
       x2="11.998966"
       y2="15.638639" />
    <linearGradient
       id="StandardGradient-5"
       gradientTransform="scale(0.9219544,1.0846523)"
       x1="11.998966"
       y1="0.92195445"
       x2="11.998966"
       y2="19.387045"
       gradientUnits="userSpaceOnUse">
      <stop
         style="stop-color:#000000;stop-opacity:0.23529412;"
         offset="0"
         id="stop3283-0" />
      <stop
         style="stop-color:#000000;stop-opacity:0.54901963;"
         offset="1"
         id="stop2651-4" />
    </linearGradient>
    <linearGradient
       id="linearGradient4174"
       gradientTransform="scale(0.9219544,1.0846523)"
       x1="11.998966"
       y1="0.92195445"
       x2="11.998966"
       y2="19.387045"
       gradientUnits="userSpaceOnUse">
      <stop
         style="stop-color:#000000;stop-opacity:0.23529412;"
         offset="0"
         id="stop4176" />
      <stop
         style="stop-color:#000000;stop-opacity:0.54901963;"
         offset="1"
         id="stop4178" />
    </linearGradient>
    <linearGradient
       inkscape:collect="always"
       xlink:href="#StandardGradient"
       id="linearGradient3823"
       x1="7.0360126"
       y1="1.0216564"
       x2="7.0360126"
       y2="15.022227"
       gradientUnits="userSpaceOnUse" />
  </defs>
  <metadata
     id="metadata7">
    <rdf:RDF>
      <cc:Work
         rdf:about="">
        <dc:format>image/svg+xml</dc:format>
        <dc:type
           rdf:resource="http://purl.org/dc/dcmitype/StillImage" />
      </cc:Work>
    </rdf:RDF>
  </metadata>
  <g
     style="display:inline"
     inkscape:label="Calque 1"
     id="layer1"
     inkscape:groupmode="layer">
    <path
       inkscape:connector-curvature="0"
       style="opacity:0.15;fill:#ffffff;fill-opacity:1;stroke:none;display:inline"
       d="M 3.5000001,-0.03125042 C 2.2589111,-0.04298931 1.1592845,0.84386722 1,2.1249996 a 1.0395846,1.0395846 0 0 0 0,0.0625 c -0.06993,0.9826065 -0.0158006,1.902824 -0.03125,2.75 a 1.0395846,1.0395846 0 0 0 0,0.03125 c 0.005297,2.881826 -0.0186616,5.7576744 0,8.6562504 a 1.0395846,1.0395846 0 0 0 0,0.09375 c 0.0992198,1.260507 1.11229986,2.258009 2.40625006,2.3125 a 1.0395846,1.0395846 0 0 0 0.03125,0 c 3.0644142,0.0074 6.126485,0.0023 9.1874999,0 1.449693,-0.0095 2.470855,-1.252032 2.4375,-2.59375 -2.56e-4,-0.01031 3.81e-4,-0.02094 0,-0.03125 -0.0052,-3.6666452 0.01862,-7.3516524 0,-11.0312504 a 1.0395846,1.0395846 0 0 0 0,-0.09375 C 14.93169,0.9720949 13.856613,-0.06442373 12.5,-0.03125042 c -0.0107,2.6172e-4 -0.02051,-3.9822e-4 -0.03125,0 l -8.9687499,0 z m 0,1.03125002 8.9999999,0 c 0.774267,-0.028718 1.442223,0.6152376 1.5,1.375 0.01863,3.6819886 -0.0053,7.3800749 0,11.0625004 0.02939,0.795373 -0.584077,1.557135 -1.40625,1.5625 -3.0616482,0.0023 -6.1259165,0.0074 -9.1874999,0 -0.7346282,-0.03094 -1.349287,-0.651331 -1.40625,-1.375 -0.018596,-2.888394 0.00531,-5.7674203 0,-8.6562504 0.016373,-0.8978388 -0.032402,-1.8243538 0.03125,-2.71875 0.089575,-0.7204527 0.7527252,-1.2567726 1.46875,-1.25 z m 1,2 c -0.2688541,-0.00647 -0.5064901,0.231237 -0.5,0.5 l 0,8.4375004 C 4.0086701,12.31495 3.9090531,12.894158 4.4062501,13 6.637025,13.02357 8.8621326,12.9933 11.09375,13 11.463698,13.03206 12.0034,12.995 12,12.5 l 0,-8.4375004 c -0.0087,-0.3774494 0.09095,-0.9566612 -0.40625,-1.0625 -2.3659948,-0.023581 -4.7269125,0.00672 -7.0937499,0 z m 0.5,1 L 11,12 l -5.9999999,0 0,-8.0000004 z m 1.34375,0.03125 c 1.5441673,-0.00414 3.0916921,-0.00957 4.6249999,0 3.01e-4,0.017471 -3.72e-4,0.012745 0,0.03125 3.72e-4,0.018505 -4.48e-4,0.011763 0,0.03125 l 0,6.1250004 -4.6249999,-6.1875004 z"
       id="path4152" />
    <path
       inkscape:connector-curvature="0"
       style="fill:url(#linearGradient3823);fill-opacity:1;stroke:none;display:inline"
       d="m 3.5000001,0.9999996 c -0.7160248,-0.00677 -1.3791754,0.5295473 -1.46875,1.25 -0.063652,0.8943962 -0.014877,1.8209112 -0.03125,2.71875 0.00531,2.8888301 -0.018596,5.7678564 0,8.6562504 0.056963,0.723669 0.6716218,1.344063 1.40625,1.375 3.0615834,0.0074 6.1258517,0.0023 9.1874999,0 C 13.415923,14.9946 14.029386,14.232873 14,13.4375 13.9947,9.7550745 14.01863,6.0569882 14,2.3749996 13.94222,1.6152372 13.274267,0.9712813 12.5,0.9999996 l -8.9999999,0 z m 1,2 c 2.3668374,0.00672 4.7277551,-0.023581 7.0937499,0 0.497197,0.1058388 0.397582,0.6850506 0.40625,1.0625 L 12,12.5 C 12.0034,12.99499 11.463698,13.032064 11.09375,13 8.8621326,12.9933 6.637025,13.02357 4.4062501,13 3.909053,12.894158 4.0086683,12.31495 4.0000001,11.9375 l 0,-8.4375004 c -0.00649,-0.268763 0.2311459,-0.5064681 0.5,-0.5 z m 0.5,1 0,8.0000004 L 11,12 5.0000001,3.9999996 z"
       id="path4102" />
    <path
       inkscape:connector-curvature="0"
       style="opacity:0.5;fill:#000000;fill-opacity:1;stroke:none;display:inline"
       d="m 3.5000001,0.9999996 c -0.7160248,-0.00677 -1.3791754,0.5295473 -1.46875,1.25 -0.054972,0.7724331 -0.029603,1.5625658 -0.03125,2.34375 -0.00219,-0.4556581 -5.762e-4,-0.8965519 0.03125,-1.34375 0.089575,-0.7204527 0.7527252,-1.2567726 1.46875,-1.25 l 8.9999999,0 c 0.774267,-0.028718 1.442223,0.6152376 1.5,1.375 -10e-4,-0.3330747 0.0017,-0.6671649 0,-1 -0.05778,-0.7597624 -0.725733,-1.4037183 -1.5,-1.375 l -8.9999999,0 z m 1.5,3 0,1 L 10.25,12 11,12 5.0000001,3.9999996 z m -1,7.9375004 0,1 C 4.0086701,13.31495 3.9090531,13.894158 4.4062501,14 6.637025,14.02357 8.8621326,13.9933 11.09375,14 11.463698,14.03206 12.0034,13.995 12,13.5 l 0,-1 c 0.0034,0.49499 -0.536302,0.532064 -0.90625,0.5 -0.03128,-9.4e-5 -0.06247,8e-5 -0.09375,0 -2.0020372,-0.0051 -3.9993738,0.01321 -5.9999999,0 -0.1979786,-0.0013 -0.3956905,0.0021 -0.59375,0 -0.4971971,-0.105842 -0.3975818,-0.68505 -0.40625,-1.0625 z"
       id="path4117" />
    <path
       inkscape:connector-curvature="0"
       style="opacity:0.3;fill:#ffffff;fill-opacity:1;stroke:none;display:inline"
       d="m 4.5000001,2.9999996 c -0.2688541,-0.00647 -0.5064901,0.231237 -0.5,0.5 l 0,1 c -0.00649,-0.268763 0.2311459,-0.5064681 0.5,-0.5 0.1668255,4.736e-4 0.3332294,-1.376e-4 0.5,0 2.199287,0.00181 4.3945213,-0.021919 6.5937499,0 0.497197,0.1058388 0.397582,0.6850506 0.40625,1.0625 l 0,-1 c -0.0087,-0.3774494 0.09095,-0.9566612 -0.40625,-1.0625 -2.3659948,-0.023581 -4.7269125,0.00672 -7.0937499,0 z m 0.5,9.0000004 0,1 C 7.0006262,13.01321 8.9979628,12.9949 11,13 L 10.25,12 5.0000001,12 z M 14,13.4375 c 0.02939,0.795373 -0.584077,1.557135 -1.40625,1.5625 -3.0616482,0.0023 -6.1259165,0.0074 -9.1874999,0 -0.7346282,-0.03094 -1.349287,-0.651331 -1.40625,-1.375 0.00112,0.333457 -0.00215,0.666323 0,1 0.056963,0.723669 0.6716218,1.344063 1.40625,1.375 3.0615834,0.0074 6.1258517,0.0023 9.1874999,0 0.822173,-0.0054 1.435636,-0.767127 1.40625,-1.5625 -4.83e-4,-0.332875 5.7e-5,-0.666893 0,-1 z"
       id="path4139" />
  </g>
</svg>
