<?xml version="1.0" encoding="UTF-8" standalone="no"?>
<!-- Created with Inkscape (http://www.inkscape.org/) -->

<svg
   xmlns:dc="http://purl.org/dc/elements/1.1/"
   xmlns:cc="http://creativecommons.org/ns#"
   xmlns:rdf="http://www.w3.org/1999/02/22-rdf-syntax-ns#"
   xmlns:svg="http://www.w3.org/2000/svg"
   xmlns="http://www.w3.org/2000/svg"
   xmlns:xlink="http://www.w3.org/1999/xlink"
   xmlns:sodipodi="http://sodipodi.sourceforge.net/DTD/sodipodi-0.dtd"
   xmlns:inkscape="http://www.inkscape.org/namespaces/inkscape"
   width="16"
   height="16"
   id="svg2"
   sodipodi:version="0.32"
   inkscape:version="0.48.0 r9654"
   version="1.0"
   sodipodi:docname="document-save-as.svg"
   inkscape:output_extension="org.inkscape.output.svg.inkscape"
   inkscape:export-filename="/home/matt/.icons/Sirocco/scalable/mimetypes/text-plain.png"
   inkscape:export-xdpi="90"
   inkscape:export-ydpi="90"
   sodipodi:modified="true"
   style="display:inline">
  <sodipodi:namedview
     id="base"
     pagecolor="#ffffff"
     bordercolor="#666666"
     borderopacity="1.0"
     inkscape:pageopacity="0.0"
     inkscape:pageshadow="2"
     inkscape:zoom="24.859835"
     inkscape:cx="2.3715823"
     inkscape:cy="5.1778783"
     inkscape:document-units="px"
     inkscape:current-layer="layer1"
     width="128px"
     height="128px"
     inkscape:showpageshadow="false"
     inkscape:window-width="1920"
     inkscape:window-height="1029"
     inkscape:window-x="0"
     inkscape:window-y="25"
     showguides="true"
     inkscape:guide-bbox="true"
     showgrid="true"
     inkscape:window-maximized="1">
    <sodipodi:guide
       id="guide2226"
       position="32.637397,117.99844"
       orientation="horizontal" />
    <sodipodi:guide
       id="guide2230"
       position="110,57.402344"
       orientation="vertical" />
    <sodipodi:guide
       id="guide2232"
       position="33.760911"
       orientation="horizontal" />
    <sodipodi:guide
       id="guide2231"
       position="46.774696"
       orientation="horizontal" />
    <inkscape:grid
       enabled="true"
       visible="true"
       id="grid3231"
       type="xygrid" />
    <sodipodi:guide
       orientation="1,0"
       position="100,67.625"
       id="guide2713" />
  </sodipodi:namedview>
  <defs
     id="defs4">
    <inkscape:perspective
       sodipodi:type="inkscape:persp3d"
       inkscape:vp_x="0 : 11 : 1"
       inkscape:vp_y="0 : 1000 : 0"
       inkscape:vp_z="22 : 11 : 1"
       inkscape:persp3d-origin="11 : 7.3333333 : 1"
       id="perspective19" />
    <linearGradient
       id="StandardGradient"
       gradientTransform="scale(0.9219544,1.0846523)"
       x1="11.998966"
       y1="0.92195445"
       x2="11.998966"
       y2="19.387045"
       gradientUnits="userSpaceOnUse">
      <stop
         style="stop-color:#000000;stop-opacity:0.86274511;"
         offset="0"
         id="stop3283" />
      <stop
         style="stop-color:#000000;stop-opacity:0.47058824;"
         offset="1"
         id="stop2651" />
    </linearGradient>
    <linearGradient
       inkscape:collect="always"
       xlink:href="#StandardGradient"
       id="linearGradient2549"
       gradientUnits="userSpaceOnUse"
       gradientTransform="matrix(0.9247229,0,0,1.0872097,-2.0600562,0.9976422)"
       x1="11.998966"
       y1="0.92195445"
       x2="11.998966"
       y2="17.478098" />
    <linearGradient
       inkscape:collect="always"
       xlink:href="#StandardGradient"
       id="linearGradient2418"
       gradientUnits="userSpaceOnUse"
       gradientTransform="matrix(0.9247229,0,0,1.0872097,-4.0600562,-3.0023583)"
       x1="11.998966"
       y1="0.92195445"
       x2="11.998966"
       y2="17.478098" />
    <linearGradient
       inkscape:collect="always"
       xlink:href="#StandardGradient"
       id="linearGradient2422"
       gradientUnits="userSpaceOnUse"
       gradientTransform="matrix(0.9247229,0,0,1.0872097,-5.0600562,-1.0023583)"
       x1="11.998966"
       y1="0.92195445"
       x2="11.998966"
       y2="17.478098" />
    <linearGradient
       inkscape:collect="always"
       xlink:href="#StandardGradient"
       id="linearGradient2403"
       gradientUnits="userSpaceOnUse"
       gradientTransform="matrix(0.9247229,0,0,1.0872097,-4.0600562,-3.0023583)"
       x1="11.998966"
       y1="0.92195445"
       x2="11.998966"
       y2="17.478098" />
    <linearGradient
       inkscape:collect="always"
       xlink:href="#StandardGradient"
       id="linearGradient2406"
       gradientUnits="userSpaceOnUse"
       gradientTransform="matrix(0.9247229,0,0,1.0872097,-4.0600562,-3.0023583)"
       x1="11.998966"
       y1="0.92195445"
       x2="11.998966"
       y2="17.478098" />
    <linearGradient
       inkscape:collect="always"
       xlink:href="#StandardGradient"
       id="linearGradient2409"
       gradientUnits="userSpaceOnUse"
       gradientTransform="matrix(0.9247229,0,0,1.0872097,-5.0600562,-3.0023583)"
       x1="11.998966"
       y1="3.6800685"
       x2="11.998966"
       y2="15.638639" />
    <linearGradient
       inkscape:collect="always"
       xlink:href="#StandardGradient"
       id="linearGradient2407"
       gradientUnits="userSpaceOnUse"
       gradientTransform="matrix(0.9247229,0,0,1.0872097,-6.0600562,-2.0023583)"
       x1="11.998966"
       y1="3.6800685"
       x2="11.998966"
       y2="15.638639" />
    <linearGradient
       inkscape:collect="always"
       xlink:href="#StandardGradient"
       id="linearGradient2400"
       gradientUnits="userSpaceOnUse"
       gradientTransform="matrix(-0.9247229,0,0,1.0872097,22.060056,-2.0023583)"
       x1="11.998966"
       y1="3.6800685"
       x2="11.998966"
       y2="15.638639" />
    <linearGradient
       inkscape:collect="always"
       xlink:href="#StandardGradient"
       id="linearGradient2404"
       gradientUnits="userSpaceOnUse"
       gradientTransform="matrix(0.9247229,0,0,1.0872097,-8.0600562,-3.0023583)"
       x1="11.998966"
       y1="3.6800685"
       x2="11.998966"
       y2="15.638639" />
    <linearGradient
       inkscape:collect="always"
       xlink:href="#StandardGradient"
       id="linearGradient2421"
       gradientUnits="userSpaceOnUse"
       gradientTransform="matrix(0.9247229,0,0,1.0872097,-8.0600562,-2.0023583)"
       x1="11.998966"
       y1="3.6800685"
       x2="11.998966"
       y2="15.638639" />
    <linearGradient
       inkscape:collect="always"
       xlink:href="#StandardGradient"
       id="linearGradient2423"
       gradientUnits="userSpaceOnUse"
       gradientTransform="matrix(0.9247229,0,0,1.0872097,-8.0600562,-3.0023583)"
       x1="11.998966"
       y1="3.6800685"
       x2="11.998966"
       y2="15.638639" />
    <inkscape:perspective
       id="perspective3648"
       inkscape:persp3d-origin="0.5 : 0.33333333 : 1"
       inkscape:vp_z="1 : 0.5 : 1"
       inkscape:vp_y="0 : 1000 : 0"
       inkscape:vp_x="0 : 0.5 : 1"
       sodipodi:type="inkscape:persp3d" />
    <linearGradient
       inkscape:collect="always"
       xlink:href="#StandardGradient"
       id="linearGradient2866"
       gradientUnits="userSpaceOnUse"
       gradientTransform="matrix(0.9247229,0,0,1.0872097,-8.0600562,-2.0023583)"
       x1="11.998966"
       y1="3.6800685"
       x2="11.998966"
       y2="15.638639" />
    <linearGradient
       inkscape:collect="always"
       xlink:href="#StandardGradient"
       id="linearGradient2870"
       gradientUnits="userSpaceOnUse"
       gradientTransform="matrix(0.9247229,0,0,1.0872097,-8.0600562,-3.0023583)"
       x1="11.998966"
       y1="3.6800685"
       x2="11.998966"
       y2="15.638639" />
    <linearGradient
       inkscape:collect="always"
       xlink:href="#StandardGradient"
       id="linearGradient3647"
       gradientUnits="userSpaceOnUse"
       gradientTransform="matrix(0.9247229,0,0,1.0872097,-28.060056,-3.0023583)"
       x1="11.998966"
       y1="3.6800685"
       x2="11.998966"
       y2="15.638639" />
    <clipPath
       clipPathUnits="userSpaceOnUse"
       id="clipPath3654">
      <path
         style="fill:#ff00ff;fill-opacity:1;stroke:none;display:inline"
         d="m -20,0 0,13 c 0,-0.54901 0.440347,-1 1,-1 0.559653,0 1.03125,0.45099 1.03125,1 0,0.549009 -0.471597,1 -1.03125,1 -0.559653,0 -1,-0.45099 -1,-1 l 0,3 16,0 0,-4 -3.5,3 -3.5,-3 2,0 0,-3 3,0 0,3 2,0 0,-12 -16,0 z m 2.5,1 6,0 c 0.831,0 1.5,0.669 1.5,1.5 l 0,7 c 0,0.831 -0.669,1.5 -1.5,1.5 l -2.5,0 -3.5,0 C -18.331,11 -19,10.331 -19,9.5 l 0,-7 C -19,1.669 -18.331,1 -17.5,1 z m 1,2 C -16.777,3 -17,3.223 -17,3.5 l 0,5 c 0,0.277 0.223,0.5 0.5,0.5 l 2.5,0 1.5,0 c 0.277,0 0.5,-0.223 0.5,-0.5 l 0,-5 C -12,3.223 -12.223,3 -12.5,3 l -4,0 z m 7.5,1 3,0 0,1 -3,0 0,-1 z m 0,2 3,0 0,2 -3,0 0,-2 z m -7,6 c 0.559653,0 1.03125,0.45099 1.03125,1 0,0.549009 -0.471597,1 -1.03125,1 -0.559653,0 -1,-0.45099 -1,-1 0,-0.54901 0.440347,-1 1,-1 z m 3,0 c 0.559653,0 1.03125,0.45099 1.03125,1 0,0.549009 -0.471596,1 -1.03125,1 -0.559653,0 -1,-0.45099 -1,-1 0,-0.54901 0.440347,-1 1,-1 z"
         id="path3656" />
    </clipPath>
    <filter
       inkscape:collect="always"
       id="filter3658">
      <feGaussianBlur
         inkscape:collect="always"
         stdDeviation="0.45008126"
         id="feGaussianBlur3660" />
    </filter>
    <linearGradient
       inkscape:collect="always"
       xlink:href="#StandardGradient"
       id="linearGradient5013"
       gradientUnits="userSpaceOnUse"
       gradientTransform="matrix(0.9247229,0,0,1.0872097,-8.0600562,-3.0023583)"
       x1="11.998966"
       y1="3.6800685"
       x2="11.998966"
       y2="15.638639" />
    <linearGradient
       inkscape:collect="always"
       xlink:href="#StandardGradient"
       id="linearGradient5017"
       gradientUnits="userSpaceOnUse"
       gradientTransform="matrix(0.9247229,0,0,1.0872097,-8.0600562,-3.0023583)"
       x1="11.998966"
       y1="3.6800685"
       x2="11.998966"
       y2="15.638639" />
  </defs>
  <metadata
     id="metadata7">
    <rdf:RDF>
      <cc:Work
         rdf:about="">
        <dc:format>image/svg+xml</dc:format>
        <dc:type
           rdf:resource="http://purl.org/dc/dcmitype/StillImage" />
      </cc:Work>
    </rdf:RDF>
  </metadata>
  <g
     style="display:inline"
     inkscape:label="Calque 1"
     id="layer1"
     inkscape:groupmode="layer">
    <path
       style="fill:#ffffff;fill-opacity:1;stroke:none;display:inline;opacity:0.15"
       d="M 2.5 0 C 1.1292712 0 0 1.1292712 0 2.5 L 0 9.5 C 0 10.135658 0.25778432 10.711683 0.65625 11.15625 C -0.25605644 11.345316 -1 12.047621 -1 13 C -1 14.086741 -0.099907754 15 1 15 C 1.6238886 15 2.1534625 14.700559 2.53125 14.25 C 2.9004344 14.687843 3.3894267 15 4 15 C 4.6238886 15 5.1534625 14.700559 5.53125 14.25 C 5.9004344 14.687843 6.3894267 15 7 15 C 8.0055486 15 8.7957346 14.235815 8.9375 13.25 L 11.84375 15.75 A 1.0057388 1.0057388 0 0 0 13.15625 15.75 L 16.65625 12.75 A 1.0057388 1.0057388 0 0 0 16 11 L 15 11 L 15 9 A 1.0057388 1.0057388 0 0 0 14.875 8.53125 A 1.0057388 1.0057388 0 0 0 14.875 8.5 A 1.0057388 1.0057388 0 0 0 15 8 L 15 6 A 1.0057388 1.0057388 0 0 0 14.875 5.53125 A 1.0057388 1.0057388 0 0 0 14.875 5.5 A 1.0057388 1.0057388 0 0 0 15 5 L 15 4 A 1.0057388 1.0057388 0 0 0 14 3 L 11 3 L 11 2.5 C 11 1.1292712 9.8707288 0 8.5 0 L 2.5 0 z M 2.5 1 L 8.5 1 C 9.331 1 10 1.669 10 2.5 L 10 9.5 C 10 10.331 9.331 11 8.5 11 L 6 11 L 2.5 11 C 1.669 11 1 10.331 1 9.5 L 1 2.5 C 1 1.669 1.669 1 2.5 1 z M 3.5 3 C 3.223 3 3 3.223 3 3.5 L 3 8.5 C 3 8.777 3.223 9 3.5 9 L 6 9 L 7.5 9 C 7.777 9 8 8.777 8 8.5 L 8 3.5 C 8 3.223 7.777 3 7.5 3 L 3.5 3 z M 4 4 L 7 4 L 7 8 L 6 8 L 4 8 L 4 4 z M 11 4 L 14 4 L 14 5 L 11 5 L 11 4 z M 11 6 L 14 6 L 14 8 L 11 8 L 11 6 z M 11 9 L 14 9 L 14 12 L 16 12 L 12.5 15 L 9 12 L 11 12 L 11 9 z M 1 12 C 1.559653 12 2.03125 12.45099 2.03125 13 C 2.03125 13.549009 1.559653 14 1 14 C 0.440347 14 0 13.54901 0 13 C 0 12.45099 0.440347 12 1 12 z M 4 12 C 4.559653 12 5.03125 12.45099 5.03125 13 C 5.03125 13.549009 4.559653 14 4 14 C 3.4403471 14 3 13.54901 3 13 C 3 12.45099 3.440347 12 4 12 z M 7 12 C 7.5596525 12 8.03125 12.45099 8.03125 13 C 8.03125 13.549009 7.559653 14 7 14 C 6.4403466 14 6 13.54901 6 13 C 6 12.45099 6.440347 12 7 12 z "
       id="path5015" />
    <path
       style="fill:url(#linearGradient2404);fill-opacity:1;stroke:none;stroke-width:1.00000024000000010;stroke-linecap:round;stroke-linejoin:miter;stroke-miterlimit:4;stroke-dasharray:none;stroke-opacity:1;display:inline"
       d="M 2.5,1 C 1.669,1 1,1.669 1,2.5 l 0,7 C 1,10.331 1.669,11 2.5,11 L 6,11 8.5,11 C 9.331,11 10,10.331 10,9.5 l 0,-7 C 10,1.669 9.331,1 8.5,1 l -6,0 z m 1,2 4,0 C 7.777,3 8,3.223 8,3.5 l 0,5 C 8,8.777 7.777,9 7.5,9 L 6,9 3.5,9 C 3.223,9 3,8.777 3,8.5 l 0,-5 C 3,3.223 3.223,3 3.5,3 z m 7.5,1 0,1 3,0 0,-1 -3,0 z m 0,2 0,2 3,0 0,-2 -3,0 z m 0,3 0,3 L 8.9945825,12 12.5,15 16,12 14,12 14,9 11,9 z M 0.99458255,12 c -0.559653,0 -1,0.45099 -1,1 0,0.54901 0.440347,1 1,1 0.55965295,0 1.03124995,-0.450991 1.03124995,-1 0,-0.54901 -0.471597,-1 -1.03124995,-1 z m 2.99999995,0 c -0.559653,0 -1,0.45099 -1,1 0,0.54901 0.4403471,1 1,1 0.559653,0 1.03125,-0.450991 1.03125,-1 0,-0.54901 -0.471597,-1 -1.03125,-1 z m 3,0 c -0.559653,0 -1,0.45099 -1,1 0,0.54901 0.4403466,1 1,1 0.559653,0 1.03125,-0.450991 1.03125,-1 0,-0.54901 -0.4715975,-1 -1.03125,-1 z"
       id="Symbol"
       sodipodi:nodetypes="cccccccccccccccccccccccccccccccccccccccsssccsssccsssc" />
    <path
       style="opacity:0.5;fill:#000000;fill-opacity:1;stroke:none;stroke-width:1.00000024;stroke-linecap:round;stroke-linejoin:miter;stroke-miterlimit:4;stroke-dasharray:none;stroke-opacity:1;display:inline"
       d="M 2.5,1 C 1.669,1 1,1.669 1,2.5 l 0,1 C 1,2.669 1.669,2 2.5,2 l 6,0 C 9.331,2 10,2.669 10,3.5 l 0,-1 C 10,1.669 9.331,1 8.5,1 l -6,0 z m 8.5,3 0,1 3,0 0,-1 -3,0 z m 0,2 0,1 3,0 0,-1 -3,0 z m -8,2.5 0,1 C 3,9.777 3.223,10 3.5,10 L 6,10 7.5,10 C 7.777,10 8,9.777 8,9.5 l 0,-1 C 8,8.777 7.777,9 7.5,9 L 6,9 3.5,9 C 3.223,9 3,8.777 3,8.5 z m 8,0.5 0,1 3,0 0,-1 -3,0 z M 0.99458255,12 c -0.559653,0 -1,0.45099 -1,1 0,0.177783 0.0728334,0.355528 0.15625,0.5 0.1773453,-0.28938 0.4747171,-0.5 0.84375,-0.5 0.36903285,0 0.69765465,0.21062 0.87499995,0.5 0.083417,-0.144472 0.15625,-0.322217 0.15625,-0.5 0,-0.54901 -0.471597,-1 -1.03124995,-1 z m 2.99999995,0 c -0.559653,0 -1,0.45099 -1,1 0,0.177783 0.072833,0.355528 0.15625,0.5 0.1773453,-0.28938 0.4747171,-0.5 0.84375,-0.5 0.3690329,0 0.6976547,0.21062 0.875,0.5 0.083417,-0.144472 0.15625,-0.322217 0.15625,-0.5 0,-0.54901 -0.471597,-1 -1.03125,-1 z m 3,0 c -0.559653,0 -1,0.45099 -1,1 0,0.177783 0.072833,0.355528 0.15625,0.5 0.1773453,-0.28938 0.4747171,-0.5 0.84375,-0.5 0.3690329,0 0.6976547,0.21062 0.875,0.5 0.083417,-0.144472 0.15625,-0.322217 0.15625,-0.5 0,-0.54901 -0.471597,-1 -1.03125,-1 z M 9,12 10.15625,13 11,13 11,12 9,12 z m 5,0 0,1 0.84375,0 L 16,12 14,12 z"
       id="BevelShadow"
       sodipodi:nodetypes="ccccccccccccccccccccccccccccccccccccscscsccscscsccscscsccccccccccc" />
    <path
       style="fill:#ffffff;fill-opacity:1;stroke:none;display:inline;opacity:0.3"
       d="M 3.5 3 C 3.223 3 3 3.223 3 3.5 L 3 4.5 C 3 4.223 3.223 4 3.5 4 L 7.5 4 C 7.777 4 8 4.223 8 4.5 L 8 3.5 C 8 3.223 7.777 3 7.5 3 L 3.5 3 z M 11 5 L 11 6 L 14 6 L 14 5 L 11 5 z M 11 8 L 11 9 L 14 9 L 14 8 L 11 8 z M 1 9.5 L 1 10.5 C 1 11.331 1.669 12 2.5 12 L 4 12 L 6 12 L 7 12 L 8.5 12 C 9.331 12 10 11.331 10 10.5 L 10 9.5 C 10 10.331 9.331 11 8.5 11 L 6 11 L 2.5 11 C 1.669 11 1 10.331 1 9.5 z M 9 13 L 12.5 16 L 16 13 L 14.84375 13 L 12.5 15 L 10.15625 13 L 9 13 z M 0.15625 13.5 C 0.064318289 13.65175 0 13.810269 0 14 C 0 14.54901 0.440347 15 1 15 C 1.559653 15 2.03125 14.549009 2.03125 14 C 2.03125 13.810269 1.9405665 13.65175 1.84375 13.5 C 1.6604166 13.787356 1.3662435 14 1 14 C 0.63375649 14 0.33033345 13.787356 0.15625 13.5 z M 3.15625 13.5 C 3.0643183 13.65175 3 13.810269 3 14 C 3 14.54901 3.4403471 15 4 15 C 4.559653 15 5.03125 14.549009 5.03125 14 C 5.03125 13.810269 4.9405665 13.65175 4.84375 13.5 C 4.6604166 13.787356 4.3662435 14 4 14 C 3.6337566 14 3.3303335 13.787356 3.15625 13.5 z M 6.15625 13.5 C 6.0643183 13.65175 6 13.810269 6 14 C 6 14.54901 6.4403466 15 7 15 C 7.559653 15 8.03125 14.549009 8.03125 14 C 8.03125 13.810269 7.9405666 13.65175 7.84375 13.5 C 7.6604166 13.787356 7.3662435 14 7 14 C 6.6337562 14 6.3303334 13.787356 6.15625 13.5 z "
       id="path2864" />
  </g>
</svg>
