<?xml version="1.0" encoding="UTF-8" standalone="no"?>
<!-- Created with Inkscape (http://www.inkscape.org/) -->

<svg
   xmlns:dc="http://purl.org/dc/elements/1.1/"
   xmlns:cc="http://creativecommons.org/ns#"
   xmlns:rdf="http://www.w3.org/1999/02/22-rdf-syntax-ns#"
   xmlns:svg="http://www.w3.org/2000/svg"
   xmlns="http://www.w3.org/2000/svg"
   xmlns:xlink="http://www.w3.org/1999/xlink"
   xmlns:sodipodi="http://sodipodi.sourceforge.net/DTD/sodipodi-0.dtd"
   xmlns:inkscape="http://www.inkscape.org/namespaces/inkscape"
   width="16"
   height="16"
   id="svg2"
   sodipodi:version="0.32"
   inkscape:version="0.48.0 r9654"
   version="1.0"
   sodipodi:docname="document-send.svg"
   inkscape:output_extension="org.inkscape.output.svg.inkscape"
   inkscape:export-filename="/home/matt/.icons/Sirocco/scalable/mimetypes/text-plain.png"
   inkscape:export-xdpi="90"
   inkscape:export-ydpi="90"
   sodipodi:modified="true"
   style="display:inline">
  <sodipodi:namedview
     id="base"
     pagecolor="#ffffff"
     bordercolor="#666666"
     borderopacity="1.0"
     inkscape:pageopacity="0.0"
     inkscape:pageshadow="2"
     inkscape:zoom="17.578558"
     inkscape:cx="-12.078737"
     inkscape:cy="0.27254259"
     inkscape:document-units="px"
     inkscape:current-layer="layer1"
     width="128px"
     height="128px"
     inkscape:showpageshadow="false"
     inkscape:window-width="1920"
     inkscape:window-height="1029"
     inkscape:window-x="0"
     inkscape:window-y="25"
     showguides="true"
     inkscape:guide-bbox="true"
     showgrid="true"
     inkscape:window-maximized="1">
    <sodipodi:guide
       id="guide2226"
       position="32.637397,117.99844"
       orientation="horizontal" />
    <sodipodi:guide
       id="guide2230"
       position="110,57.402344"
       orientation="vertical" />
    <sodipodi:guide
       id="guide2232"
       position="33.760911"
       orientation="horizontal" />
    <sodipodi:guide
       id="guide2231"
       position="46.774696"
       orientation="horizontal" />
    <inkscape:grid
       enabled="true"
       visible="true"
       id="grid3231"
       type="xygrid" />
    <sodipodi:guide
       orientation="1,0"
       position="100,67.625"
       id="guide2713" />
  </sodipodi:namedview>
  <defs
     id="defs4">
    <inkscape:perspective
       sodipodi:type="inkscape:persp3d"
       inkscape:vp_x="0 : 11 : 1"
       inkscape:vp_y="0 : 1000 : 0"
       inkscape:vp_z="22 : 11 : 1"
       inkscape:persp3d-origin="11 : 7.3333333 : 1"
       id="perspective19" />
    <linearGradient
       id="StandardGradient"
       gradientTransform="scale(0.9219544,1.0846523)"
       x1="11.998966"
       y1="0.92195445"
       x2="11.998966"
       y2="19.387045"
       gradientUnits="userSpaceOnUse">
      <stop
         style="stop-color:#000000;stop-opacity:0.86274511;"
         offset="0"
         id="stop3283" />
      <stop
         style="stop-color:#000000;stop-opacity:0.47058824;"
         offset="1"
         id="stop2651" />
    </linearGradient>
    <linearGradient
       inkscape:collect="always"
       xlink:href="#StandardGradient"
       id="linearGradient2549"
       gradientUnits="userSpaceOnUse"
       gradientTransform="matrix(0.9247229,0,0,1.0872097,-2.0600562,0.9976422)"
       x1="11.998966"
       y1="0.92195445"
       x2="11.998966"
       y2="17.478098" />
    <linearGradient
       inkscape:collect="always"
       xlink:href="#StandardGradient"
       id="linearGradient2418"
       gradientUnits="userSpaceOnUse"
       gradientTransform="matrix(0.9247229,0,0,1.0872097,-4.0600562,-3.0023583)"
       x1="11.998966"
       y1="0.92195445"
       x2="11.998966"
       y2="17.478098" />
    <linearGradient
       inkscape:collect="always"
       xlink:href="#StandardGradient"
       id="linearGradient2422"
       gradientUnits="userSpaceOnUse"
       gradientTransform="matrix(0.9247229,0,0,1.0872097,-5.0600562,-1.0023583)"
       x1="11.998966"
       y1="0.92195445"
       x2="11.998966"
       y2="17.478098" />
    <linearGradient
       inkscape:collect="always"
       xlink:href="#StandardGradient"
       id="linearGradient2403"
       gradientUnits="userSpaceOnUse"
       gradientTransform="matrix(0.9247229,0,0,1.0872097,-4.0600562,-3.0023583)"
       x1="11.998966"
       y1="0.92195445"
       x2="11.998966"
       y2="17.478098" />
    <linearGradient
       inkscape:collect="always"
       xlink:href="#StandardGradient"
       id="linearGradient2406"
       gradientUnits="userSpaceOnUse"
       gradientTransform="matrix(0.9247229,0,0,1.0872097,-4.0600562,-3.0023583)"
       x1="11.998966"
       y1="0.92195445"
       x2="11.998966"
       y2="17.478098" />
    <linearGradient
       inkscape:collect="always"
       xlink:href="#StandardGradient"
       id="linearGradient2409"
       gradientUnits="userSpaceOnUse"
       gradientTransform="matrix(0.9247229,0,0,1.0872097,-5.0600562,-3.0023583)"
       x1="11.998966"
       y1="3.6800685"
       x2="11.998966"
       y2="15.638639" />
    <inkscape:perspective
       id="perspective3648"
       inkscape:persp3d-origin="0.5 : 0.33333333 : 1"
       inkscape:vp_z="1 : 0.5 : 1"
       inkscape:vp_y="0 : 1000 : 0"
       inkscape:vp_x="0 : 0.5 : 1"
       sodipodi:type="inkscape:persp3d" />
    <linearGradient
       inkscape:collect="always"
       xlink:href="#StandardGradient"
       id="linearGradient3634"
       gradientUnits="userSpaceOnUse"
       gradientTransform="matrix(0.9247229,0,0,1.0872097,-26.060056,-2.0023583)"
       x1="11.998966"
       y1="3.6800685"
       x2="11.998966"
       y2="15.638639" />
    <clipPath
       clipPathUnits="userSpaceOnUse"
       id="clipPath3641">
      <path
         style="fill:#ff00ff;fill-opacity:1;stroke:none;display:inline"
         d="m -20,0 0,16 16,0 0,-16 -16,0 z m 4.5,1 7,0 C -7.669,1 -7,1.669 -7,2.5 l 0,9 c 0,0.831 -0.669,1.5 -1.5,1.5 l -3.5,0 0,-2 2.5,0 c 0.277,0 0.5,-0.223 0.5,-0.5 l 0,-7 C -9,3.223 -9.223,3 -9.5,3 l -5,0 C -14.777,3 -15,3.223 -15,3.5 l 0,4.5 -2,0 0,-5.5 C -17,1.669 -16.331,1 -15.5,1 z m -1.5,8 2,0 0,2 2,0 0,2 -2,0 0,2 -2,0 0,-2 -2,0 0,-2 2,0 0,-2 z"
         id="path3643" />
    </clipPath>
    <linearGradient
       inkscape:collect="always"
       xlink:href="#StandardGradient"
       id="linearGradient2860"
       gradientUnits="userSpaceOnUse"
       gradientTransform="matrix(0.9247229,0,0,1.0872097,-4.0600562,-1.0023583)"
       x1="11.998966"
       y1="3.6800685"
       x2="11.998966"
       y2="15.638639" />
    <linearGradient
       inkscape:collect="always"
       xlink:href="#StandardGradient"
       id="linearGradient3652"
       gradientUnits="userSpaceOnUse"
       gradientTransform="matrix(0.9247229,0,0,1.0872097,-4.0600562,-0.0023583)"
       x1="11.998966"
       y1="3.6800685"
       x2="11.998966"
       y2="15.638639" />
    <linearGradient
       inkscape:collect="always"
       xlink:href="#StandardGradient"
       id="linearGradient3656"
       gradientUnits="userSpaceOnUse"
       gradientTransform="matrix(0.9247229,0,0,1.0872097,-4.0600562,-1.0023583)"
       x1="11.998966"
       y1="3.6800685"
       x2="11.998966"
       y2="15.638639" />
    <linearGradient
       inkscape:collect="always"
       xlink:href="#StandardGradient"
       id="linearGradient3661"
       gradientUnits="userSpaceOnUse"
       gradientTransform="matrix(0.9247229,0,0,1.0872097,-24.060056,-1.0023583)"
       x1="11.998966"
       y1="3.6800685"
       x2="11.998966"
       y2="15.638639" />
    <clipPath
       clipPathUnits="userSpaceOnUse"
       id="clipPath3669">
      <path
         style="fill:#ff00ff;fill-opacity:1;stroke:none;display:inline"
         d="m -20,0 0,8 4,0 0,1 -4,0 0,7 16,0 0,-16 -16,0 z m 6.5,2 3.5,0 3.5,0 C -5.669,2 -5,2.669 -5,3.5 l 0,3.5 0,5.5 c 0,0.831 -0.669,1.5 -1.5,1.5 l -3.5,0 -3.5,0 C -14.331,14 -15,13.331 -15,12.5 L -15,9 -15,3.5 C -15,2.669 -14.331,2 -13.5,2 z m 1,2 C -12.777,4 -13,4.223 -13,4.5 l 0,4.5 0,2.5 c 0,0.277 0.223,0.5 0.5,0.5 l 2.5,0 2.5,0 C -7.223,12 -7,11.777 -7,11.5 L -7,7 -7,4.5 C -7,4.223 -7.223,4 -7.5,4 l -2.5,0 -2.5,0 z m -5.5,1 2,0 0,1 -2,0 0,-1 z m -1,6 3,0 0,1 -3,0 0,-1 z"
         id="path3671" />
    </clipPath>
    <filter
       inkscape:collect="always"
       id="filter3673">
      <feGaussianBlur
         inkscape:collect="always"
         stdDeviation="0.405"
         id="feGaussianBlur3675" />
    </filter>
    <linearGradient
       inkscape:collect="always"
       xlink:href="#StandardGradient"
       id="linearGradient3986"
       gradientUnits="userSpaceOnUse"
       gradientTransform="matrix(0.9247229,0,0,1.0872097,-4.0600562,-1.0023583)"
       x1="11.998966"
       y1="3.6800685"
       x2="11.998966"
       y2="15.638639" />
    <linearGradient
       inkscape:collect="always"
       xlink:href="#StandardGradient"
       id="linearGradient3990"
       gradientUnits="userSpaceOnUse"
       gradientTransform="matrix(0.9247229,0,0,1.0872097,-4.0600562,-1.0023583)"
       x1="11.998966"
       y1="3.6800685"
       x2="11.998966"
       y2="15.638639" />
  </defs>
  <metadata
     id="metadata7">
    <rdf:RDF>
      <cc:Work
         rdf:about="">
        <dc:format>image/svg+xml</dc:format>
        <dc:type
           rdf:resource="http://purl.org/dc/dcmitype/StillImage" />
      </cc:Work>
    </rdf:RDF>
  </metadata>
  <g
     style="display:inline"
     inkscape:label="Calque 1"
     id="layer1"
     inkscape:groupmode="layer">
    <path
       style="fill:#ffffff;fill-opacity:1;stroke:none;display:inline;opacity:0.15"
       d="M 6.5 0.96875 C 5.1185824 0.96875 3.96875 2.1185824 3.96875 3.5 L 3.96875 3.96875 L 2 3.96875 A 1.0256564 1.0256564 0 0 0 0.96875 5 L 0.96875 6 A 1.0256564 1.0256564 0 0 0 1.625 6.96875 L 0 6.96875 A 1.0256564 1.0256564 0 0 0 -1.03125 8 L -1.03125 9 A 1.0256564 1.0256564 0 0 0 0 10.03125 L 0.6875 10.03125 A 1.0256564 1.0256564 0 0 0 -0.03125 11 L -0.03125 12 A 1.0256564 1.0256564 0 0 0 1 13.03125 L 4 13.03125 A 1.0256564 1.0256564 0 0 0 4.1875 13 C 4.4494205 14.113333 5.3136061 15.03125 6.5 15.03125 L 10 15.03125 L 13.5 15.03125 C 14.881418 15.03125 16.03125 13.881418 16.03125 12.5 L 16.03125 7 L 16.03125 3.5 C 16.03125 2.1185824 14.881418 0.96875 13.5 0.96875 L 10 0.96875 L 6.5 0.96875 z M 6.5 2 L 10 2 L 13.5 2 C 14.331 2 15 2.669 15 3.5 L 15 7 L 15 12.5 C 15 13.331 14.331 14 13.5 14 L 10 14 L 6.5 14 C 5.669 14 5 13.331 5 12.5 L 5 9 L 5 3.5 C 5 2.669 5.669 2 6.5 2 z M 7.5 4 C 7.223 4 7 4.223 7 4.5 L 7 9 L 7 11.5 C 7 11.777 7.223 12 7.5 12 L 10 12 L 12.5 12 C 12.777 12 13 11.777 13 11.5 L 13 7 L 13 4.5 C 13 4.223 12.777 4 12.5 4 L 10 4 L 7.5 4 z M 2 5 L 4 5 L 4 6 L 2 6 L 2 5 z M 8.03125 5.03125 L 10 5.03125 L 11.96875 5.03125 L 11.96875 7 L 11.96875 10.96875 L 10 10.96875 L 8.03125 10.96875 L 8.03125 9 L 8.03125 5.03125 z M 0 8 L 4 8 L 4 9 L 0 9 L 0 8 z M 1 11 L 4 11 L 4 12 L 1 12 L 1 11 z "
       id="path3988" />
    <path
       style="fill:url(#linearGradient2860);fill-opacity:1;stroke:none;display:inline"
       d="M 6.5 2 C 5.669 2 5 2.669 5 3.5 L 5 9 L 5 12.5 C 5 13.331 5.669 14 6.5 14 L 10 14 L 13.5 14 C 14.331 14 15 13.331 15 12.5 L 15 7 L 15 3.5 C 15 2.669 14.331 2 13.5 2 L 10 2 L 6.5 2 z M 7.5 4 L 10 4 L 12.5 4 C 12.777 4 13 4.223 13 4.5 L 13 7 L 13 11.5 C 13 11.777 12.777 12 12.5 12 L 10 12 L 7.5 12 C 7.223 12 7 11.777 7 11.5 L 7 9 L 7 4.5 C 7 4.223 7.223 4 7.5 4 z M 2 5 L 2 6 L 4 6 L 4 5 L 2 5 z M 0 8 L 0 9 L 4 9 L 4 8 L 0 8 z M 1 11 L 1 12 L 4 12 L 4 11 L 1 11 z "
       id="path2851" />
    <path
       style="fill:#000000;fill-opacity:1;stroke:none;display:inline;opacity:0.5"
       d="M 6.5 2 C 5.669 2 5 2.669 5 3.5 L 5 4.5 C 5 3.669 5.669 3 6.5 3 L 10 3 L 13.5 3 C 14.331 3 15 3.669 15 4.5 L 15 3.5 C 15 2.669 14.331 2 13.5 2 L 10 2 L 6.5 2 z M 2 5 L 2 6 L 4 6 L 4 5 L 2 5 z M 0 8 L 0 9 L 4 9 L 4 8 L 0 8 z M 1 11 L 1 12 L 4 12 L 4 11 L 1 11 z M 7 11.5 L 7 12.5 C 7 12.777 7.223 13 7.5 13 L 10 13 L 12.5 13 C 12.777 13 13 12.777 13 12.5 L 13 11.5 C 13 11.777 12.777 12 12.5 12 L 10 12 L 7.5 12 C 7.223 12 7 11.777 7 11.5 z "
       id="path2869" />
    <path
       style="fill:#ffffff;fill-opacity:1;stroke:none;display:inline;opacity:0.3"
       d="M 7.5 4 C 7.223 4 7 4.223 7 4.5 L 7 5.5 C 7 5.223 7.223 5 7.5 5 L 10 5 L 12.5 5 C 12.777 5 13 5.223 13 5.5 L 13 4.5 C 13 4.223 12.777 4 12.5 4 L 10 4 L 7.5 4 z M 2 6 L 2 7 L 4 7 L 4 6 L 2 6 z M 0 9 L 0 10 L 4 10 L 4 9 L 0 9 z M 1 12 L 1 13 L 4 13 L 4 12 L 1 12 z M 5 12.5 L 5 13.5 C 5 14.331 5.669 15 6.5 15 L 10 15 L 13.5 15 C 14.331 15 15 14.331 15 13.5 L 15 12.5 C 15 13.331 14.331 14 13.5 14 L 10 14 L 6.5 14 C 5.669 14 5 13.331 5 12.5 z "
       id="path3650" />
  </g>
</svg>
