<?xml version="1.0" encoding="UTF-8" standalone="no"?>
<!-- Created with Inkscape (http://www.inkscape.org/) -->

<svg
   xmlns:dc="http://purl.org/dc/elements/1.1/"
   xmlns:cc="http://creativecommons.org/ns#"
   xmlns:rdf="http://www.w3.org/1999/02/22-rdf-syntax-ns#"
   xmlns:svg="http://www.w3.org/2000/svg"
   xmlns="http://www.w3.org/2000/svg"
   xmlns:xlink="http://www.w3.org/1999/xlink"
   xmlns:sodipodi="http://sodipodi.sourceforge.net/DTD/sodipodi-0.dtd"
   xmlns:inkscape="http://www.inkscape.org/namespaces/inkscape"
   width="16"
   height="16"
   id="svg2"
   sodipodi:version="0.32"
   inkscape:version="0.48.0 r9654"
   version="1.0"
   sodipodi:docname="edit-cut.svg"
   inkscape:output_extension="org.inkscape.output.svg.inkscape"
   inkscape:export-filename="/home/matt/.icons/Sirocco/scalable/mimetypes/text-plain.png"
   inkscape:export-xdpi="90"
   inkscape:export-ydpi="90"
   sodipodi:modified="true"
   style="display:inline">
  <sodipodi:namedview
     id="base"
     pagecolor="#ffffff"
     bordercolor="#666666"
     borderopacity="1.0"
     inkscape:pageopacity="0.0"
     inkscape:pageshadow="2"
     inkscape:zoom="20.16507"
     inkscape:cx="2.1434285"
     inkscape:cy="2.1115314"
     inkscape:document-units="px"
     inkscape:current-layer="layer1"
     width="128px"
     height="128px"
     inkscape:showpageshadow="false"
     inkscape:window-width="1920"
     inkscape:window-height="1029"
     inkscape:window-x="0"
     inkscape:window-y="25"
     showguides="true"
     inkscape:guide-bbox="true"
     showgrid="true"
     inkscape:window-maximized="1">
    <sodipodi:guide
       id="guide2226"
       position="32.637397,117.99844"
       orientation="horizontal" />
    <sodipodi:guide
       id="guide2230"
       position="110,57.402344"
       orientation="vertical" />
    <sodipodi:guide
       id="guide2232"
       position="33.760911"
       orientation="horizontal" />
    <sodipodi:guide
       id="guide2231"
       position="46.774696"
       orientation="horizontal" />
    <inkscape:grid
       enabled="true"
       visible="true"
       id="grid3231"
       type="xygrid" />
    <sodipodi:guide
       orientation="1,0"
       position="100,67.625"
       id="guide2713" />
  </sodipodi:namedview>
  <defs
     id="defs4">
    <inkscape:perspective
       sodipodi:type="inkscape:persp3d"
       inkscape:vp_x="0 : 11 : 1"
       inkscape:vp_y="0 : 1000 : 0"
       inkscape:vp_z="22 : 11 : 1"
       inkscape:persp3d-origin="11 : 7.3333333 : 1"
       id="perspective19" />
    <linearGradient
       id="StandardGradient"
       gradientTransform="scale(0.9219544,1.0846523)"
       x1="11.998966"
       y1="0.92195445"
       x2="11.998966"
       y2="19.387045"
       gradientUnits="userSpaceOnUse">
      <stop
         style="stop-color:#000000;stop-opacity:0.86274511;"
         offset="0"
         id="stop3283" />
      <stop
         style="stop-color:#000000;stop-opacity:0.47058824;"
         offset="1"
         id="stop2651" />
    </linearGradient>
    <linearGradient
       inkscape:collect="always"
       xlink:href="#StandardGradient"
       id="linearGradient2452"
       gradientUnits="userSpaceOnUse"
       gradientTransform="matrix(0.9247229,0,0,1.0872097,-32.060056,0.9976422)"
       x1="11.998966"
       y1="0.92195445"
       x2="11.998966"
       y2="17.478098" />
    <linearGradient
       inkscape:collect="always"
       xlink:href="#StandardGradient"
       id="linearGradient3213"
       gradientUnits="userSpaceOnUse"
       gradientTransform="matrix(0.9247229,0,0,1.0872097,-32.060056,0.9976422)"
       x1="11.998966"
       y1="0.92195445"
       x2="11.998966"
       y2="17.478098" />
    <linearGradient
       inkscape:collect="always"
       xlink:href="#StandardGradient"
       id="linearGradient3216"
       gradientUnits="userSpaceOnUse"
       gradientTransform="matrix(0.770446,0,0,0.8456331,-27.876096,0.2203649)"
       x1="46.069901"
       y1="0.92127591"
       x2="46.069901"
       y2="17.478098" />
    <linearGradient
       inkscape:collect="always"
       xlink:href="#StandardGradient"
       id="linearGradient2399"
       gradientUnits="userSpaceOnUse"
       gradientTransform="matrix(0.770446,0,0,0.8456331,-27.876096,0.2203649)"
       x1="46.069901"
       y1="0.92127591"
       x2="46.069901"
       y2="17.478098" />
    <linearGradient
       inkscape:collect="always"
       xlink:href="#StandardGradient"
       id="linearGradient2406"
       gradientUnits="userSpaceOnUse"
       gradientTransform="matrix(0.770446,0,0,0.8456331,-27.876096,0.2203649)"
       x1="46.069901"
       y1="0.92127591"
       x2="46.069901"
       y2="17.478098" />
    <linearGradient
       inkscape:collect="always"
       xlink:href="#StandardGradient"
       id="linearGradient2409"
       gradientUnits="userSpaceOnUse"
       gradientTransform="matrix(0.770446,0,0,0.8456331,-27.876096,0.2203649)"
       x1="46.069901"
       y1="0.92127591"
       x2="46.069901"
       y2="17.478098" />
    <linearGradient
       inkscape:collect="always"
       xlink:href="#StandardGradient"
       id="linearGradient2400"
       gradientUnits="userSpaceOnUse"
       gradientTransform="matrix(0.7478908,0,0,0.8275629,-26.835441,0.3907149)"
       x1="46.069901"
       y1="0.92127591"
       x2="46.069901"
       y2="17.478098" />
    <linearGradient
       inkscape:collect="always"
       xlink:href="#StandardGradient"
       id="linearGradient2404"
       gradientUnits="userSpaceOnUse"
       gradientTransform="matrix(-0.7478908,0,0,0.8275629,42.835442,0.3907149)"
       x1="46.069901"
       y1="0.92127591"
       x2="46.069901"
       y2="17.478098" />
    <linearGradient
       inkscape:collect="always"
       xlink:href="#StandardGradient"
       id="linearGradient2408"
       gradientUnits="userSpaceOnUse"
       gradientTransform="matrix(0.770446,0,0,0.8456331,-27.876096,0.2203649)"
       x1="46.069901"
       y1="0.92127591"
       x2="46.069901"
       y2="17.478098" />
    <linearGradient
       inkscape:collect="always"
       xlink:href="#StandardGradient"
       id="linearGradient2412"
       gradientUnits="userSpaceOnUse"
       gradientTransform="matrix(0.770446,0,0,0.8456331,-27.876096,0.2203649)"
       x1="46.069901"
       y1="0.92127591"
       x2="46.069901"
       y2="17.478098" />
    <linearGradient
       inkscape:collect="always"
       xlink:href="#StandardGradient"
       id="linearGradient2420"
       gradientUnits="userSpaceOnUse"
       gradientTransform="matrix(0.7478908,0,0,0.8275629,-26.835441,0.3907149)"
       x1="46.069901"
       y1="0.92127591"
       x2="46.069901"
       y2="17.478098" />
    <inkscape:perspective
       id="perspective3648"
       inkscape:persp3d-origin="0.5 : 0.33333333 : 1"
       inkscape:vp_z="1 : 0.5 : 1"
       inkscape:vp_y="0 : 1000 : 0"
       inkscape:vp_x="0 : 0.5 : 1"
       sodipodi:type="inkscape:persp3d" />
    <linearGradient
       inkscape:collect="always"
       xlink:href="#StandardGradient"
       id="linearGradient3638"
       gradientUnits="userSpaceOnUse"
       gradientTransform="matrix(0.7478908,0,0,0.8275629,-46.835441,0.3907149)"
       x1="46.069901"
       y1="0.92127591"
       x2="46.069901"
       y2="17.478098" />
    <clipPath
       clipPathUnits="userSpaceOnUse"
       id="clipPath3647">
      <path
         style="fill:#ff00ff;fill-opacity:1;stroke:none;display:inline"
         d="m -20,0 0,16 16,0 0,-16 -16,0 z m 3.875,1 c 0.01009,-0.001039 0.02116,-0.001039 0.03125,0 0.01009,-0.001039 0.02116,-0.001039 0.03125,0 0.01009,-0.001039 0.02116,-0.001039 0.03125,0 0.001,0.010168 0.001,0.021082 0,0.03125 0.01009,-0.00104 0.02116,-0.00104 0.03125,0 0.01152,0.00867 0.02265,0.019635 0.03125,0.03125 l 3.34375,5.15625 -0.53125,0.84375 c -1.47e-4,0.010194 -1.47e-4,0.021057 0,0.03125 -0.316554,0.5253727 -0.501841,1.0500078 -0.65625,1.5625 -0.978575,-1.5140011 -2.27405,-3.7572751 -3.0625,-5.28125 -0.255792,-0.4955577 -0.07373,-1.0760161 0.15625,-1.53125 0.229978,-0.4552339 0.5,-0.78125 0.5,-0.78125 0.0086,-0.011614 0.01973,-0.02258 0.03125,-0.03125 C -16.16988,1.016494 -16.14729,1.00536 -16.125,1 z m 8.15625,0 c 0.010085,-0.001039 0.021164,-0.001039 0.03125,0 0.010085,-0.001039 0.021165,-0.001039 0.03125,0 0.010085,-0.001039 0.021165,-0.001039 0.03125,0 0.022285,0.00536 0.044875,0.016494 0.0625,0.03125 0.011521,0.00867 0.022653,0.019636 0.03125,0.03125 0,0 0.270022,0.3260161 0.5,0.78125 0.229978,0.4552339 0.412041,1.0356923 0.15625,1.53125 -1.051266,2.0319666 -3.02185,5.314021 -3.90625,6.5 -0.0086,0.011615 -0.01973,0.02258 -0.03125,0.03125 -0.01763,0.014756 -0.04021,0.02589 -0.0625,0.03125 -0.881386,0.238877 -1.299486,0.680876 -1.5,1.15625 -0.19097,0.452737 -0.17671,0.929241 -0.15625,1.28125 -0.0072,-0.01022 -0.0055,9e-4 0,0.03125 5.29e-4,0.0086 -5.42e-4,0.02285 0,0.03125 0.0049,0.01097 -0.0033,0.01586 0,0.03125 0.0011,0.0051 0.03049,-0.0056 0.03125,0 10e-4,0.01017 10e-4,0.02108 0,0.03125 1.3e-5,1.8e-4 4.7e-5,0.0311 0,0.03125 -5e-5,1.5e-4 -0.03115,0.06238 -0.03125,0.0625 0.0229,0.42947 -0.08425,0.877769 -0.34375,1.28125 -0.288067,0.447902 -0.672773,0.783358 -1.15625,0.96875 -0.481101,0.184483 -1.123204,0.231109 -1.75,-0.09375 -0.626226,-0.324563 -0.90565,-0.842347 -0.96875,-1.3125 -0.06417,-0.478102 0.08602,-0.988183 0.375,-1.4375 0.288067,-0.447902 0.672773,-0.783357 1.15625,-0.96875 0.38492,-0.1476 0.831382,-0.16899 1.3125,-0.03125 0.0019,1.06e-4 0.02685,-5.99e-4 0.03125,0 0.0065,-3.65e-4 0.02109,1.51e-4 0.03125,0 0.0041,2.59e-4 0.02505,-9.17e-4 0.03125,0 0.21982,0.05495 0.367384,-0.01729 0.53125,-0.21875 0.163866,-0.201456 0.304927,-0.532009 0.4375,-0.90625 0.265146,-0.7484818 0.475572,-1.6908126 0.8125,-2.25 l 4.25,-6.5625 C -8.022653,1.050885 -8.01152,1.03992 -8,1.03125 c 0.010085,-0.00104 0.021165,-0.00104 0.03125,0 C -7.96978,1.021082 -7.96978,1.010168 -7.96875,1 z M -10.5,10.75 c 0.0079,0.01058 0.02315,0.02135 0.03125,0.03125 0.163866,0.20146 0.31143,0.2737 0.53125,0.21875 0.00621,-9.17e-4 0.02719,2.59e-4 0.03125,0 0.010158,1.51e-4 0.02475,-3.65e-4 0.03125,0 0.00438,-5.99e-4 0.02938,1.06e-4 0.03125,0 0.481118,-0.13774 0.92758,-0.11635 1.3125,0.03125 0.483476,0.185393 0.868183,0.520848 1.15625,0.96875 0.288976,0.449317 0.439166,0.959398 0.375,1.4375 -0.063099,0.470153 -0.342524,0.987937 -0.96875,1.3125 -0.626795,0.324859 -1.268899,0.278233 -1.75,0.09375 -0.483477,-0.185392 -0.868183,-0.520848 -1.15625,-0.96875 -0.2595,-0.403481 -0.36665,-0.85178 -0.34375,-1.28125 -10e-5,-1.2e-4 -0.0312,-0.06235 -0.03125,-0.0625 -4.7e-5,-1.5e-4 -1.3e-5,-0.03107 0,-0.03125 -10e-4,-0.01017 -10e-4,-0.02108 0,-0.03125 7.6e-4,-0.0056 0.03015,0.0051 0.03125,0 0.0033,-0.01539 -0.0049,-0.02028 0,-0.03125 5.41e-4,-0.0084 -5.29e-4,-0.02265 0,-0.03125 0.0055,-0.03035 0.0072,-0.04147 0,-0.03125 0.02003,-0.344563 0.02208,-0.805791 -0.15625,-1.25 0.108271,-0.06626 0.281256,-0.11975 0.53125,-0.1875 0.13842,-0.0333 0.233173,-0.10879 0.34375,-0.1875 z m -4.25,1.3125 c -0.30691,-0.01389 -0.643177,0.169113 -0.84375,0.5 -0.13429,0.221535 -0.1875,0.41936 -0.15625,0.625 0.03125,0.20564 0.140634,0.40549 0.3125,0.5 0.344592,0.189492 0.888447,-0.02695 1.15625,-0.46875 0.13499,-0.222698 0.18712,-0.428231 0.15625,-0.625 -0.03087,-0.196769 -0.138266,-0.37294 -0.3125,-0.46875 -0.0784,-0.04312 -0.208324,-0.0578 -0.3125,-0.0625 z m 5.5,0 c -0.104176,0.0047 -0.234096,0.01938 -0.3125,0.0625 -0.174234,0.09581 -0.281632,0.271981 -0.3125,0.46875 -0.030868,0.196769 0.021258,0.402302 0.15625,0.625 0.267802,0.4418 0.811658,0.658242 1.15625,0.46875 0.171866,-0.09451 0.28125,-0.29436 0.3125,-0.5 0.03125,-0.20564 -0.021963,-0.403465 -0.15625,-0.625 -0.200573,-0.330887 -0.53684,-0.51389 -0.84375,-0.5 z"
         id="path3649" />
    </clipPath>
    <filter
       inkscape:collect="always"
       id="filter3651">
      <feGaussianBlur
         inkscape:collect="always"
         stdDeviation="0.36027613"
         id="feGaussianBlur3653" />
    </filter>
    <linearGradient
       inkscape:collect="always"
       xlink:href="#StandardGradient"
       id="linearGradient4979"
       gradientUnits="userSpaceOnUse"
       gradientTransform="matrix(0.7478908,0,0,0.8275629,-26.835441,0.3907149)"
       x1="46.069901"
       y1="0.92127591"
       x2="46.069901"
       y2="17.478098" />
    <linearGradient
       inkscape:collect="always"
       xlink:href="#StandardGradient"
       id="linearGradient4983"
       gradientUnits="userSpaceOnUse"
       gradientTransform="matrix(0.7478908,0,0,0.8275629,-26.835441,0.3907149)"
       x1="46.069901"
       y1="0.92127591"
       x2="46.069901"
       y2="17.478098" />
  </defs>
  <metadata
     id="metadata7">
    <rdf:RDF>
      <cc:Work
         rdf:about="">
        <dc:format>image/svg+xml</dc:format>
        <dc:type
           rdf:resource="http://purl.org/dc/dcmitype/StillImage" />
      </cc:Work>
    </rdf:RDF>
  </metadata>
  <g
     style="display:inline"
     inkscape:label="Calque 1"
     id="layer1"
     inkscape:groupmode="layer">
    <path
       style="fill:#ffffff;fill-opacity:1;stroke:none;display:inline;opacity:0.15"
       d="M 3.65625 -0.03125 A 1.041509 1.041509 0 0 0 3.625 0 C 3.4543793 0.041037792 3.329628 0.076248671 3.1875 0.1875 C 3.175092 0.19721242 3.1687557 0.20828002 3.15625 0.21875 C 3.0910282 0.27083698 3.0265251 0.33355828 2.96875 0.40625 C 2.9591208 0.41836529 2.9472329 0.42435147 2.9375 0.4375 C 2.9135169 0.4664939 2.6206502 0.82688586 2.34375 1.375 C 2.0528626 1.9508015 1.6873029 2.8746934 2.1875 3.84375 C 2.9982243 5.4107785 4.3068049 7.6627899 5.3125 9.21875 A 1.041509 1.041509 0 0 0 5.875 9.65625 C 5.8041213 9.8270024 5.7490784 9.9419234 5.71875 10 C 5.1814303 9.9168724 4.6364329 9.8783707 4.15625 10.0625 C 3.4530911 10.332132 2.8882816 10.833779 2.5 11.4375 C 2.1058596 12.050333 1.8630968 12.775279 1.96875 13.5625 C 2.0723555 14.334469 2.5843959 15.212957 3.5 15.6875 C 4.4209152 16.164797 5.3781869 16.08689 6.09375 15.8125 C 6.7969116 15.542869 7.3617189 15.041221 7.75 14.4375 C 7.9364868 14.14754 7.9158595 13.816207 8 13.5 C 8.0841405 13.816207 8.0635136 14.14754 8.25 14.4375 C 8.6382808 15.041221 9.2030876 15.542868 9.90625 15.8125 C 10.621814 16.08689 11.579085 16.164797 12.5 15.6875 C 13.415604 15.212957 13.927645 14.334468 14.03125 13.5625 C 14.136903 12.775281 13.894141 12.050334 13.5 11.4375 C 13.111718 10.833779 12.546908 10.332132 11.84375 10.0625 C 11.344384 9.8710151 10.777487 9.9024085 10.21875 10 A 1.041509 1.041509 0 0 0 10.1875 10 L 10.1875 9.96875 C 10.138016 9.9659713 10.17167 9.9690415 10.15625 9.96875 C 10.160151 9.9631718 10.15233 9.9431172 10.15625 9.9375 C 11.196278 8.4472138 12.81958 5.762941 13.8125 3.84375 C 14.312695 2.8746958 13.947142 1.950806 13.65625 1.375 C 13.37935 0.82688523 13.086483 0.46649392 13.0625 0.4375 C 13.052787 0.42438317 13.040862 0.41834226 13.03125 0.40625 C 12.973576 0.33369645 12.909092 0.27093028 12.84375 0.21875 C 12.831242 0.20827796 12.82491 0.19721382 12.8125 0.1875 C 12.670349 0.076232626 12.545532 0.041027848 12.375 0 A 1.041509 1.041509 0 0 0 12.21875 -0.03125 C 12.206279 -0.03253413 12.199366 -0.030332764 12.1875 -0.03125 C 12.175029 -0.03253413 12.168116 -0.030332764 12.15625 -0.03125 C 12.093897 -0.037670652 12.057313 -0.034001708 12 -0.03125 C 11.988537 -0.030699658 11.980616 -0.032167236 11.96875 -0.03125 C 11.956884 -0.030332764 11.949971 -0.03253413 11.9375 -0.03125 A 1.041509 1.041509 0 0 0 11.78125 0 A 1.041509 1.041509 0 0 0 11.71875 0 A 1.041509 1.041509 0 0 0 11.28125 0.28125 C 11.235807 0.3230871 11.199723 0.38079844 11.15625 0.4375 C 11.15142 0.44380017 11.129861 0.43093439 11.125 0.4375 A 1.041509 1.041509 0 0 0 11.09375 0.5 A 1.041509 1.041509 0 0 0 11.09375 0.53125 L 8 5.28125 L 4.90625 0.5 A 1.041509 1.041509 0 0 0 4.875 0.4375 C 4.8604078 0.41778648 4.8269117 0.42371881 4.8125 0.40625 A 1.041509 1.041509 0 0 0 4.625 0.1875 A 1.041509 1.041509 0 0 0 4.0625 -0.03125 C 4.0500104 -0.032536727 4.0431246 -0.030330946 4.03125 -0.03125 C 4.0187604 -0.032536727 4.0118746 -0.030330946 4 -0.03125 C 3.9375522 -0.037683637 3.9010682 -0.034006788 3.84375 -0.03125 C 3.8322864 -0.030698642 3.8243731 -0.032168889 3.8125 -0.03125 C 3.8006269 -0.030331111 3.7937375 -0.032536392 3.78125 -0.03125 A 1.041509 1.041509 0 0 0 3.65625 -0.03125 z M 3.875 1 C 3.8850856 0.99896066 3.8961646 0.99896071 3.90625 1 C 3.9163355 0.99896066 3.9274146 0.99896071 3.9375 1 C 3.9475855 0.99896066 3.9586646 0.99896071 3.96875 1 C 3.9697809 1.0101675 3.9697809 1.0210824 3.96875 1.03125 C 3.9788354 1.0302107 3.9899146 1.0302107 4 1.03125 C 4.0115208 1.0399172 4.0226528 1.0508855 4.03125 1.0625 L 7.375 6.21875 L 6.84375 7.0625 C 6.8436028 7.0726936 6.8436026 7.0835565 6.84375 7.09375 C 6.5271962 7.6191227 6.3419088 8.1437578 6.1875 8.65625 C 5.2089251 7.1422489 3.9134499 4.8989749 3.125 3.375 C 2.8692084 2.8794423 3.0512718 2.2989839 3.28125 1.84375 C 3.5112283 1.3885161 3.78125 1.0625 3.78125 1.0625 C 3.7898472 1.0508856 3.8009794 1.0399172 3.8125 1.03125 C 3.8301253 1.0164939 3.8527153 1.0053615 3.875 1 z M 12.03125 1 C 12.041335 0.99896071 12.052414 0.99896066 12.0625 1 C 12.072585 0.99896071 12.083665 0.99896066 12.09375 1 C 12.103835 0.99896071 12.114915 0.99896066 12.125 1 C 12.147285 1.0053615 12.169875 1.0164939 12.1875 1.03125 C 12.199021 1.0399172 12.210153 1.0508856 12.21875 1.0625 C 12.21875 1.0625 12.488772 1.3885161 12.71875 1.84375 C 12.948728 2.2989839 13.130791 2.8794423 12.875 3.375 C 11.823734 5.4069666 9.8531495 8.689021 8.96875 9.875 C 8.9601528 9.8866145 8.9490202 9.8975828 8.9375 9.90625 C 8.9198746 9.9210061 8.8972849 9.9321383 8.875 9.9375 C 7.9936139 10.176377 7.5755139 10.618376 7.375 11.09375 C 7.1840341 11.546487 7.1982878 12.022991 7.21875 12.375 C 7.2115896 12.364784 7.2132158 12.3759 7.21875 12.40625 C 7.2192794 12.414877 7.2182081 12.429051 7.21875 12.4375 C 7.223655 12.448469 7.215484 12.453358 7.21875 12.46875 C 7.2198386 12.473881 7.2492426 12.463105 7.25 12.46875 C 7.2510309 12.478918 7.2510309 12.489832 7.25 12.5 C 7.250013 12.500184 7.2500468 12.5311 7.25 12.53125 C 7.2499532 12.531401 7.2188525 12.59363 7.21875 12.59375 C 7.2416509 13.02322 7.1344973 13.471519 6.875 13.875 C 6.5869334 14.322902 6.2022267 14.658358 5.71875 14.84375 C 5.2376488 15.028233 4.5955457 15.074859 3.96875 14.75 C 3.3425241 14.425437 3.063099 13.907653 3 13.4375 C 2.9358337 12.959398 3.0860242 12.449317 3.375 12 C 3.6630669 11.552098 4.0477735 11.216643 4.53125 11.03125 C 4.9161697 10.88365 5.3626321 10.86226 5.84375 11 C 5.8456238 11.000106 5.8706193 10.999401 5.875 11 C 5.8814976 10.999635 5.8960926 11.000151 5.90625 11 C 5.910307 11.000259 5.9312884 10.999083 5.9375 11 C 6.1573198 11.054945 6.3048838 10.982706 6.46875 10.78125 C 6.632616 10.579794 6.773677 10.249241 6.90625 9.875 C 7.1713962 9.1265182 7.3818216 8.1841874 7.71875 7.625 L 11.96875 1.0625 C 11.977347 1.0508855 11.98848 1.0399172 12 1.03125 C 12.010085 1.0302107 12.021165 1.0302107 12.03125 1.03125 C 12.030219 1.0210824 12.030219 1.0101675 12.03125 1 z M 9.5 10.75 C 9.5078981 10.760583 9.5231841 10.771334 9.53125 10.78125 C 9.6951161 10.982706 9.8426802 11.054945 10.0625 11 C 10.068712 10.999083 10.089693 11.000259 10.09375 11 C 10.103908 11.000151 10.118502 10.999635 10.125 11 C 10.129381 10.999401 10.154376 11.000106 10.15625 11 C 10.637368 10.86226 11.08383 10.88365 11.46875 11.03125 C 11.952226 11.216643 12.336933 11.552098 12.625 12 C 12.913976 12.449317 13.064166 12.959398 13 13.4375 C 12.936901 13.907653 12.657476 14.425437 12.03125 14.75 C 11.404455 15.074859 10.762351 15.028233 10.28125 14.84375 C 9.7977728 14.658358 9.4130666 14.322902 9.125 13.875 C 8.8655027 13.471519 8.7583491 13.02322 8.78125 12.59375 C 8.781147 12.59363 8.7500468 12.531401 8.75 12.53125 L 8.59375 12.59375 L 8.28125 12.5625 C 8.2820857 12.556889 8.2812488 12.531538 8.28125 12.53125 L 8.40625 12.53125 L 8.75 12.53125 C 8.7499532 12.5311 8.749987 12.500184 8.75 12.5 C 8.748969 12.489832 8.7489691 12.478918 8.75 12.46875 C 8.7507574 12.463105 8.7801614 12.473881 8.78125 12.46875 C 8.7845155 12.453358 8.776345 12.448469 8.78125 12.4375 C 8.7817914 12.429051 8.7807206 12.414877 8.78125 12.40625 C 8.7867837 12.3759 8.7884104 12.364784 8.78125 12.375 C 8.8012788 12.030437 8.8033292 11.569209 8.625 11.125 C 8.7332712 11.058735 8.9062562 11.005254 9.15625 10.9375 C 9.2946704 10.904198 9.3894228 10.828712 9.5 10.75 z M 5.25 12.0625 C 4.9430901 12.048615 4.6068231 12.231613 4.40625 12.5625 C 4.2719635 12.784035 4.2187504 12.98186 4.25 13.1875 C 4.2812498 13.39314 4.3906342 13.59299 4.5625 13.6875 C 4.9070917 13.876992 5.4509472 13.660548 5.71875 13.21875 C 5.8537421 12.996052 5.9058676 12.790519 5.875 12.59375 C 5.8441322 12.396981 5.7367344 12.220812 5.5625 12.125 C 5.4840963 12.081885 5.3541762 12.067213 5.25 12.0625 z M 10.75 12.0625 C 10.645824 12.067213 10.515904 12.081885 10.4375 12.125 C 10.263266 12.220812 10.155868 12.396981 10.125 12.59375 C 10.094132 12.790519 10.146258 12.996052 10.28125 13.21875 C 10.549052 13.660548 11.092908 13.876992 11.4375 13.6875 C 11.609366 13.59299 11.71875 13.39314 11.75 13.1875 C 11.78125 12.98186 11.728037 12.784035 11.59375 12.5625 C 11.393177 12.231613 11.05691 12.048615 10.75 12.0625 z M 4.90625 12.71875 C 4.9393181 12.718362 4.9947849 12.744014 5.0625 12.78125 C 5.2703136 12.895528 5.2733261 12.979107 5.28125 13.03125 C 5.2847629 13.054367 5.2565202 13.07398 5.25 13.09375 C 5.2337399 13.097662 5.2341988 13.095863 5.1875 13.09375 C 5.2330851 13.095807 5.3223004 13.174133 5.0625 13.03125 C 5.0109032 13.002877 5.0007176 12.975068 4.96875 12.9375 C 4.9627561 12.930456 4.9741069 12.913385 4.96875 12.90625 C 4.9252992 12.848377 4.8503197 12.791879 4.84375 12.75 C 4.8625126 12.745567 4.8731819 12.719138 4.90625 12.71875 z M 11.0625 12.75 C 11.089133 12.749426 11.10237 12.746874 11.125 12.75 L 11.15625 12.75 C 11.149681 12.791871 11.074699 12.848379 11.03125 12.90625 C 11.025893 12.913385 11.037244 12.930456 11.03125 12.9375 C 10.999284 12.975067 10.989093 13.002879 10.9375 13.03125 C 10.677599 13.174196 10.766764 13.095818 10.8125 13.09375 C 10.765794 13.095864 10.76626 13.097662 10.75 13.09375 C 10.748204 13.090193 10.732511 13.116452 10.71875 13.09375 C 10.713511 13.075498 10.715739 13.051063 10.71875 13.03125 C 10.726674 12.979109 10.729686 12.895528 10.9375 12.78125 C 10.995838 12.74917 11.035867 12.750574 11.0625 12.75 z "
       id="path4981" />
    <path
       style="fill:url(#linearGradient2420);fill-opacity:1;stroke:none;stroke-width:1.00000024000000010;stroke-linecap:round;stroke-linejoin:miter;stroke-miterlimit:4;stroke-dasharray:none;stroke-opacity:1;display:inline"
       d="M 3.875 1 C 3.8527153 1.0053615 3.8301253 1.0164939 3.8125 1.03125 C 3.8009794 1.0399172 3.7898472 1.0508856 3.78125 1.0625 C 3.78125 1.0625 3.5112283 1.3885161 3.28125 1.84375 C 3.0512718 2.2989839 2.8692084 2.8794423 3.125 3.375 C 3.9134499 4.8989749 5.2089251 7.1422489 6.1875 8.65625 C 6.3419088 8.1437578 6.5271962 7.6191227 6.84375 7.09375 C 6.8436026 7.0835565 6.8436028 7.0726936 6.84375 7.0625 L 7.375 6.21875 L 4.03125 1.0625 C 4.0226528 1.0508855 4.0115208 1.0399172 4 1.03125 C 3.9899146 1.0302107 3.9788354 1.0302107 3.96875 1.03125 C 3.9697809 1.0210824 3.9697809 1.0101675 3.96875 1 C 3.9586646 0.99896071 3.9475855 0.99896066 3.9375 1 C 3.9274146 0.99896071 3.9163355 0.99896066 3.90625 1 C 3.8961646 0.99896071 3.8850856 0.99896066 3.875 1 z M 12.03125 1 C 12.030219 1.0101675 12.030219 1.0210824 12.03125 1.03125 C 12.021165 1.0302107 12.010085 1.0302107 12 1.03125 C 11.98848 1.0399172 11.977347 1.0508855 11.96875 1.0625 L 7.71875 7.625 C 7.3818216 8.1841874 7.1713962 9.1265182 6.90625 9.875 C 6.773677 10.249241 6.632616 10.579794 6.46875 10.78125 C 6.3048838 10.982706 6.1573198 11.054945 5.9375 11 C 5.9312884 10.999083 5.910307 11.000259 5.90625 11 C 5.8960926 11.000151 5.8814976 10.999635 5.875 11 C 5.8706193 10.999401 5.8456238 11.000106 5.84375 11 C 5.3626321 10.86226 4.9161697 10.88365 4.53125 11.03125 C 4.0477735 11.216643 3.6630669 11.552098 3.375 12 C 3.0860242 12.449317 2.9358337 12.959398 3 13.4375 C 3.063099 13.907653 3.3425241 14.425437 3.96875 14.75 C 4.5955457 15.074859 5.2376488 15.028233 5.71875 14.84375 C 6.2022267 14.658358 6.5869334 14.322902 6.875 13.875 C 7.1344973 13.471519 7.2416509 13.02322 7.21875 12.59375 C 7.2188525 12.59363 7.2499532 12.531401 7.25 12.53125 C 7.2500468 12.5311 7.250013 12.500184 7.25 12.5 C 7.2510309 12.489832 7.2510309 12.478918 7.25 12.46875 C 7.2492426 12.463105 7.2198386 12.473881 7.21875 12.46875 C 7.215484 12.453358 7.223655 12.448469 7.21875 12.4375 C 7.2182081 12.429051 7.2192794 12.414877 7.21875 12.40625 C 7.2132158 12.3759 7.2115896 12.364784 7.21875 12.375 C 7.1982878 12.022991 7.1840341 11.546487 7.375 11.09375 C 7.5755139 10.618376 7.9936139 10.176377 8.875 9.9375 C 8.8972849 9.9321383 8.9198746 9.9210061 8.9375 9.90625 C 8.9490202 9.8975828 8.9601528 9.8866145 8.96875 9.875 C 9.8531495 8.689021 11.823734 5.4069666 12.875 3.375 C 13.130791 2.8794423 12.948728 2.2989839 12.71875 1.84375 C 12.488772 1.3885161 12.21875 1.0625 12.21875 1.0625 C 12.210153 1.0508856 12.199021 1.0399172 12.1875 1.03125 C 12.169875 1.0164939 12.147285 1.0053615 12.125 1 C 12.114915 0.99896066 12.103835 0.99896071 12.09375 1 C 12.083665 0.99896066 12.072585 0.99896071 12.0625 1 C 12.052414 0.99896066 12.041335 0.99896071 12.03125 1 z M 9.5 10.75 C 9.3894228 10.828712 9.2946704 10.904198 9.15625 10.9375 C 8.9062562 11.005254 8.7332712 11.058735 8.625 11.125 C 8.8033292 11.569209 8.8012788 12.030437 8.78125 12.375 C 8.7884104 12.364784 8.7867837 12.3759 8.78125 12.40625 C 8.7807206 12.414877 8.7817914 12.429051 8.78125 12.4375 C 8.776345 12.448469 8.7845155 12.453358 8.78125 12.46875 C 8.7801614 12.473881 8.7507574 12.463105 8.75 12.46875 C 8.7489691 12.478918 8.748969 12.489832 8.75 12.5 C 8.749987 12.500184 8.7499532 12.5311 8.75 12.53125 C 8.7500468 12.531401 8.781147 12.59363 8.78125 12.59375 C 8.7583491 13.02322 8.8655027 13.471519 9.125 13.875 C 9.4130666 14.322902 9.7977728 14.658358 10.28125 14.84375 C 10.762351 15.028233 11.404455 15.074859 12.03125 14.75 C 12.657476 14.425437 12.936901 13.907653 13 13.4375 C 13.064166 12.959398 12.913976 12.449317 12.625 12 C 12.336933 11.552098 11.952226 11.216643 11.46875 11.03125 C 11.08383 10.88365 10.637368 10.86226 10.15625 11 C 10.154376 11.000106 10.129381 10.999401 10.125 11 C 10.118502 10.999635 10.103908 11.000151 10.09375 11 C 10.089693 11.000259 10.068712 10.999083 10.0625 11 C 9.8426802 11.054945 9.6951161 10.982706 9.53125 10.78125 C 9.5231841 10.771334 9.5078981 10.760583 9.5 10.75 z M 5.25 12.0625 C 5.3541762 12.067213 5.4840963 12.081885 5.5625 12.125 C 5.7367344 12.220812 5.8441322 12.396981 5.875 12.59375 C 5.9058676 12.790519 5.8537421 12.996052 5.71875 13.21875 C 5.4509472 13.660548 4.9070917 13.876992 4.5625 13.6875 C 4.3906342 13.59299 4.2812498 13.39314 4.25 13.1875 C 4.2187504 12.98186 4.2719635 12.784035 4.40625 12.5625 C 4.6068231 12.231613 4.9430901 12.048615 5.25 12.0625 z M 10.75 12.0625 C 11.05691 12.048615 11.393177 12.231613 11.59375 12.5625 C 11.728037 12.784035 11.78125 12.98186 11.75 13.1875 C 11.71875 13.39314 11.609366 13.59299 11.4375 13.6875 C 11.092908 13.876992 10.549052 13.660548 10.28125 13.21875 C 10.146258 12.996052 10.094132 12.790519 10.125 12.59375 C 10.155868 12.396981 10.263266 12.220812 10.4375 12.125 C 10.515904 12.081885 10.645824 12.067213 10.75 12.0625 z "
       id="path2397" />
    <path
       style="opacity:0.5;fill:#000000;fill-opacity:1;stroke:none;stroke-width:1.00000024;stroke-linecap:round;stroke-linejoin:miter;stroke-miterlimit:4;stroke-dasharray:none;stroke-opacity:1;display:inline"
       d="M 3.875,1 C 3.8527153,1.0053615 3.8301253,1.0164939 3.8125,1.03125 C 3.8009794,1.0399172 3.7898472,1.0508856 3.78125,1.0625 C 3.78125,1.0625 3.5112283,1.3885161 3.28125,1.84375 C 3.0613333,2.2790674 2.8850717,2.8319037 3.09375,3.3125 C 3.1444275,3.1515197 3.2091,2.9865685 3.28125,2.84375 C 3.5112283,2.3885161 3.78125,2.0624999 3.78125,2.0625 C 3.7898472,2.0508856 3.8009794,2.0399171 3.8125,2.03125 C 3.8301253,2.0164939 3.8527153,2.0053614 3.875,2 C 3.8850856,1.9989606 3.8961646,1.9989606 3.90625,2 C 3.9163355,1.9989606 3.9274146,1.9989606 3.9375,2 C 3.9475855,1.9989606 3.9586646,1.9989606 3.96875,2 C 3.9697809,2.0101675 3.9697809,2.0210823 3.96875,2.03125 C 3.9788354,2.0302107 3.9899146,2.0302106 4,2.03125 C 4.0115208,2.0399172 4.0226528,2.0508854 4.03125,2.0625 L 7.0625,6.71875 L 7.375,6.21875 L 4.03125,1.0625 C 4.0226528,1.0508855 4.0115208,1.0399172 4,1.03125 C 3.9899146,1.0302107 3.9788354,1.0302107 3.96875,1.03125 C 3.9697809,1.0210824 3.9697809,1.0101675 3.96875,1 C 3.9586646,0.99896071 3.9475855,0.99896066 3.9375,1 C 3.9274146,0.99896071 3.9163355,0.99896066 3.90625,1 C 3.8961646,0.99896071 3.8850856,0.99896066 3.875,1 z M 12.03125,1 C 12.030219,1.0101675 12.030219,1.0210824 12.03125,1.03125 C 12.021165,1.0302107 12.010085,1.0302107 12,1.03125 C 11.98848,1.0399172 11.977347,1.0508855 11.96875,1.0625 L 7.71875,7.625 C 7.3818216,8.1841874 7.1713962,9.1265182 6.90625,9.875 C 6.773677,10.249241 6.632616,10.579794 6.46875,10.78125 C 6.3048838,10.982706 6.1573198,11.054945 5.9375,11 C 5.9312884,10.999083 5.910307,11.000259 5.90625,11 C 5.8960926,11.000151 5.8814976,10.999635 5.875,11 C 5.8706193,10.999401 5.8456238,11.000106 5.84375,11 C 5.3626321,10.86226 4.9161697,10.88365 4.53125,11.03125 C 4.0477735,11.216643 3.6630669,11.552098 3.375,12 C 3.0860242,12.449317 2.9358337,12.959398 3,13.4375 C 3.0114064,13.522489 3.0361849,13.600821 3.0625,13.6875 C 3.1288608,13.453457 3.2359304,13.216234 3.375,13 C 3.6630669,12.552098 4.0477735,12.216643 4.53125,12.03125 C 4.9161697,11.88365 5.3626321,11.86226 5.84375,12 C 5.8456238,12.000106 5.8706193,11.999401 5.875,12 C 5.8814976,11.999635 5.8960926,12.000151 5.90625,12 C 5.910307,12.000259 5.9312884,11.999083 5.9375,12 C 6.1573198,12.054945 6.3048838,11.982706 6.46875,11.78125 C 6.632616,11.579794 6.773677,11.249241 6.90625,10.875 C 7.1713962,10.126518 7.3818216,9.1841873 7.71875,8.625 L 11.96875,2.0625 C 11.977347,2.0508855 11.98848,2.0399171 12,2.03125 C 12.010085,2.0302107 12.021165,2.0302106 12.03125,2.03125 C 12.030219,2.0210824 12.030219,2.0101674 12.03125,2 C 12.041335,1.9989607 12.052414,1.9989605 12.0625,2 C 12.072585,1.9989607 12.083665,1.9989605 12.09375,2 C 12.103835,1.9989607 12.114915,1.9989605 12.125,2 C 12.147285,2.0053615 12.169875,2.0164938 12.1875,2.03125 C 12.199021,2.0399172 12.210153,2.0508855 12.21875,2.0625 C 12.21875,2.0625 12.488772,2.388516 12.71875,2.84375 C 12.7909,2.9865685 12.855573,3.1515197 12.90625,3.3125 C 13.114928,2.8319037 12.938666,2.2790674 12.71875,1.84375 C 12.488772,1.3885161 12.21875,1.0625 12.21875,1.0625 C 12.210153,1.0508856 12.199021,1.0399172 12.1875,1.03125 C 12.169875,1.0164939 12.147285,1.0053615 12.125,1 C 12.114915,0.99896066 12.103835,0.99896071 12.09375,1 C 12.083665,0.99896066 12.072585,0.99896071 12.0625,1 C 12.052414,0.99896066 12.041335,0.99896071 12.03125,1 z M 9.5,10.75 C 9.3894228,10.828712 9.2946704,10.904198 9.15625,10.9375 C 8.9062562,11.005254 8.7332712,11.058735 8.625,11.125 C 8.7564005,11.452312 8.7807488,11.770189 8.78125,12.0625 C 8.8850746,12.019675 8.9808697,11.985032 9.15625,11.9375 C 9.2946704,11.904198 9.3894228,11.828712 9.5,11.75 C 9.5078981,11.760583 9.5231841,11.771334 9.53125,11.78125 C 9.6951161,11.982706 9.8426802,12.054945 10.0625,12 C 10.068712,11.999083 10.089693,12.000259 10.09375,12 C 10.103908,12.000151 10.118502,11.999635 10.125,12 C 10.129381,11.999401 10.154376,12.000106 10.15625,12 C 10.637368,11.86226 11.08383,11.88365 11.46875,12.03125 C 11.952226,12.216643 12.336933,12.552098 12.625,13 C 12.76407,13.216234 12.871139,13.453457 12.9375,13.6875 C 12.963815,13.600821 12.988594,13.522489 13,13.4375 C 13.064166,12.959398 12.913976,12.449317 12.625,12 C 12.336933,11.552098 11.952226,11.216643 11.46875,11.03125 C 11.08383,10.88365 10.637368,10.86226 10.15625,11 C 10.154376,11.000106 10.129381,10.999401 10.125,11 C 10.118502,10.999635 10.103908,11.000151 10.09375,11 C 10.089693,11.000259 10.068712,10.999083 10.0625,11 C 9.8426802,11.054945 9.6951161,10.982706 9.53125,10.78125 C 9.5231841,10.771334 9.5078981,10.760583 9.5,10.75 z M 5.6875,13.25 C 5.4122349,13.665875 4.8969916,13.871438 4.5625,13.6875 C 4.5072574,13.657122 4.4480621,13.611339 4.40625,13.5625 C 4.2719635,13.784035 4.2187504,13.98186 4.25,14.1875 C 4.2812498,14.39314 4.3906342,14.59299 4.5625,14.6875 C 4.9070917,14.876992 5.4509472,14.660548 5.71875,14.21875 C 5.8537421,13.996052 5.9058676,13.790519 5.875,13.59375 C 5.8529516,13.453201 5.7841077,13.347752 5.6875,13.25 z M 10.3125,13.25 C 10.215892,13.347752 10.147048,13.453201 10.125,13.59375 C 10.094132,13.790519 10.146258,13.996052 10.28125,14.21875 C 10.549053,14.660548 11.092908,14.876992 11.4375,14.6875 C 11.609366,14.59299 11.71875,14.39314 11.75,14.1875 C 11.781249,13.98186 11.728036,13.784035 11.59375,13.5625 C 11.551938,13.611339 11.492742,13.657122 11.4375,13.6875 C 11.103008,13.871438 10.587765,13.665875 10.3125,13.25 z"
       id="BevelShadow"
       sodipodi:nodetypes="cscscscsssssssccccsssssccssccssssssssscssssssssccssssssscscscssssccsccssssssssscssssssssccscssssccsssscsc" />
    <path
       style="opacity:0.3;fill:#ffffff;fill-opacity:1;stroke:none;stroke-width:1.00000024000000010;stroke-linecap:round;stroke-linejoin:miter;stroke-miterlimit:4;stroke-dasharray:none;stroke-opacity:1;display:inline"
       d="M 3.09375,3.3125 C 2.9828929,3.6646445 2.9494567,4.0349114 3.125,4.375 C 3.9134499,5.8989748 5.2089251,8.1422489 6.1875,9.65625 C 6.3419088,9.1437577 6.5271962,8.6191227 6.84375,8.09375 C 6.8436026,8.0835564 6.8436028,8.0726936 6.84375,8.0625 L 7.375,7.21875 L 7.0625,6.71875 L 6.84375,7.0625 C 6.8436028,7.0726936 6.8436026,7.0835565 6.84375,7.09375 C 6.5271962,7.6191227 6.3419088,8.1437578 6.1875,8.65625 C 5.2089251,7.1422489 3.9134499,4.8989749 3.125,3.375 C 3.1138091,3.3533194 3.1032974,3.3344881 3.09375,3.3125 z M 12.90625,3.3125 C 12.896703,3.3344881 12.886191,3.3533194 12.875,3.375 C 11.823734,5.4069666 9.8531495,8.689021 8.96875,9.875 C 8.9601528,9.8866145 8.9490202,9.8975828 8.9375,9.90625 C 8.9198746,9.9210061 8.8972849,9.9321383 8.875,9.9375 C 7.9936139,10.176377 7.5755139,10.618376 7.375,11.09375 C 7.1840341,11.546487 7.1982878,12.022991 7.21875,12.375 C 7.2115896,12.364784 7.2132158,12.3759 7.21875,12.40625 C 7.2192794,12.414877 7.2182081,12.429051 7.21875,12.4375 C 7.223655,12.448469 7.215484,12.453358 7.21875,12.46875 C 7.2198386,12.473881 7.2492426,12.463105 7.25,12.46875 C 7.2752823,12.342433 7.3219619,12.219491 7.375,12.09375 C 7.5755139,11.618376 7.9936139,11.176377 8.875,10.9375 C 8.8972849,10.932138 8.9198746,10.921006 8.9375,10.90625 C 8.9490202,10.897583 8.9601528,10.886615 8.96875,10.875 C 9.8531495,9.6890209 11.823734,6.4069666 12.875,4.375 C 13.050543,4.0349113 13.017107,3.6646445 12.90625,3.3125 z M 5.25,12.0625 C 4.9430901,12.048615 4.6068231,12.231613 4.40625,12.5625 C 4.2719635,12.784035 4.2187504,12.98186 4.25,13.1875 C 4.2700892,13.319697 4.3257388,13.430286 4.40625,13.53125 C 4.6080975,13.21316 4.9494088,13.048901 5.25,13.0625 C 5.3541762,13.067213 5.4840963,13.081885 5.5625,13.125 C 5.6122813,13.152375 5.6488569,13.210899 5.6875,13.25 C 5.6958117,13.237442 5.7109006,13.231699 5.71875,13.21875 C 5.8537421,12.996052 5.9058676,12.790519 5.875,12.59375 C 5.8441322,12.396981 5.7367344,12.220812 5.5625,12.125 C 5.4840963,12.081885 5.3541762,12.067213 5.25,12.0625 z M 8.78125,12.0625 C 8.737079,12.080719 8.6573148,12.105222 8.625,12.125 C 8.7141646,12.347104 8.7619751,12.598596 8.78125,12.8125 C 8.7771724,12.736531 8.7772423,12.668907 8.78125,12.59375 C 8.781147,12.59363 8.7500468,12.531401 8.75,12.53125 C 8.7499532,12.5311 8.749987,12.500184 8.75,12.5 C 8.748969,12.489832 8.7489691,12.478918 8.75,12.46875 C 8.7507574,12.463105 8.7801614,12.473881 8.78125,12.46875 C 8.7845155,12.453358 8.776345,12.448469 8.78125,12.4375 C 8.7817914,12.429051 8.7807206,12.414877 8.78125,12.40625 C 8.7867837,12.3759 8.7884104,12.364784 8.78125,12.375 C 8.7865207,12.284326 8.781429,12.166897 8.78125,12.0625 z M 7.25,12.53125 C 7.2499532,12.531401 7.2188525,12.59363 7.21875,12.59375 C 7.2221851,12.658171 7.2212425,12.716197 7.21875,12.78125 C 7.2251398,12.702151 7.2355993,12.612748 7.25,12.53125 z M 7.21875,12.90625 C 7.1861104,13.23243 7.069623,13.572389 6.875,13.875 C 6.5869334,14.322902 6.2022267,14.658358 5.71875,14.84375 C 5.2376488,15.028233 4.5955457,15.074859 3.96875,14.75 C 3.4689736,14.490974 3.1868255,14.101482 3.0625,13.71875 C 2.9968512,13.962198 2.9679168,14.198449 3,14.4375 C 3.063099,14.907653 3.3425241,15.425437 3.96875,15.75 C 4.5955457,16.074859 5.2376488,16.028233 5.71875,15.84375 C 6.2022267,15.658358 6.5869334,15.322902 6.875,14.875 C 7.1344973,14.471519 7.2416509,14.02322 7.21875,13.59375 C 7.2188525,13.59363 7.2499532,13.531401 7.25,13.53125 C 7.2500468,13.5311 7.250013,13.500184 7.25,13.5 C 7.2510309,13.489832 7.2510309,13.478918 7.25,13.46875 C 7.2492426,13.463105 7.2198386,13.473881 7.21875,13.46875 C 7.215484,13.453358 7.223655,13.448469 7.21875,13.4375 C 7.2182081,13.429051 7.2192794,13.414877 7.21875,13.40625 C 7.2132158,13.3759 7.2115896,13.364784 7.21875,13.375 C 7.2106728,13.236049 7.2126519,13.074879 7.21875,12.90625 z M 8.78125,12.90625 C 8.7908949,13.080656 8.7895953,13.231432 8.78125,13.375 C 8.7884104,13.364784 8.7867837,13.3759 8.78125,13.40625 C 8.7807206,13.414877 8.7817914,13.429051 8.78125,13.4375 C 8.776345,13.448469 8.7845155,13.453358 8.78125,13.46875 C 8.7801614,13.473881 8.7507574,13.463105 8.75,13.46875 C 8.7489691,13.478918 8.748969,13.489832 8.75,13.5 C 8.749987,13.500184 8.7499532,13.5311 8.75,13.53125 C 8.7500468,13.531401 8.781147,13.59363 8.78125,13.59375 C 8.7583491,14.02322 8.8655027,14.471519 9.125,14.875 C 9.4130666,15.322902 9.7977728,15.658358 10.28125,15.84375 C 10.762351,16.028233 11.404455,16.074859 12.03125,15.75 C 12.657476,15.425437 12.936901,14.907653 13,14.4375 C 13.032083,14.198449 13.003149,13.962198 12.9375,13.71875 C 12.813175,14.101482 12.531027,14.490974 12.03125,14.75 C 11.404455,15.074859 10.762351,15.028233 10.28125,14.84375 C 9.7977728,14.658358 9.4130666,14.322902 9.125,13.875 C 8.930377,13.572389 8.8138896,13.23243 8.78125,12.90625 z"
       id="BevelHighlight"
       sodipodi:nodetypes="cscsccccscsccsssssssssssssssccsscssssssccssssssssssccssccssscssssssssssssccsssssssssssscsssc" />
  </g>
</svg>
