<?xml version="1.0" encoding="UTF-8" standalone="no"?>
<!-- Created with Inkscape (http://www.inkscape.org/) -->

<svg
   xmlns:dc="http://purl.org/dc/elements/1.1/"
   xmlns:cc="http://creativecommons.org/ns#"
   xmlns:rdf="http://www.w3.org/1999/02/22-rdf-syntax-ns#"
   xmlns:svg="http://www.w3.org/2000/svg"
   xmlns="http://www.w3.org/2000/svg"
   xmlns:xlink="http://www.w3.org/1999/xlink"
   xmlns:sodipodi="http://sodipodi.sourceforge.net/DTD/sodipodi-0.dtd"
   xmlns:inkscape="http://www.inkscape.org/namespaces/inkscape"
   width="16"
   height="16"
   id="svg2"
   sodipodi:version="0.32"
   inkscape:version="0.48.0 r9654"
   version="1.0"
   sodipodi:docname="edit-find-replace.svg"
   inkscape:output_extension="org.inkscape.output.svg.inkscape"
   inkscape:export-filename="/home/matt/.icons/Sirocco/scalable/mimetypes/text-plain.png"
   inkscape:export-xdpi="90"
   inkscape:export-ydpi="90"
   sodipodi:modified="true"
   style="display:inline">
  <sodipodi:namedview
     id="base"
     pagecolor="#ffffff"
     bordercolor="#666666"
     borderopacity="1.0"
     inkscape:pageopacity="0.0"
     inkscape:pageshadow="2"
     inkscape:zoom="17.631088"
     inkscape:cx="-15.658231"
     inkscape:cy="5.786842"
     inkscape:document-units="px"
     inkscape:current-layer="layer1"
     width="128px"
     height="128px"
     inkscape:showpageshadow="false"
     inkscape:window-width="1920"
     inkscape:window-height="1029"
     inkscape:window-x="0"
     inkscape:window-y="25"
     showguides="true"
     inkscape:guide-bbox="true"
     showgrid="true"
     inkscape:window-maximized="1">
    <sodipodi:guide
       id="guide2226"
       position="32.637397,117.99844"
       orientation="horizontal" />
    <sodipodi:guide
       id="guide2230"
       position="110,57.402344"
       orientation="vertical" />
    <sodipodi:guide
       id="guide2232"
       position="33.760911"
       orientation="horizontal" />
    <sodipodi:guide
       id="guide2231"
       position="46.774696"
       orientation="horizontal" />
    <inkscape:grid
       enabled="true"
       visible="true"
       id="grid3231"
       type="xygrid" />
    <sodipodi:guide
       orientation="1,0"
       position="100,67.625"
       id="guide2713" />
  </sodipodi:namedview>
  <defs
     id="defs4">
    <inkscape:perspective
       sodipodi:type="inkscape:persp3d"
       inkscape:vp_x="0 : 11 : 1"
       inkscape:vp_y="0 : 1000 : 0"
       inkscape:vp_z="22 : 11 : 1"
       inkscape:persp3d-origin="11 : 7.3333333 : 1"
       id="perspective19" />
    <linearGradient
       id="StandardGradient"
       gradientTransform="matrix(0.8222562,0,0,0.8222562,-1.5084521,-0.5995615)"
       x1="10.710332"
       y1="1.9963325"
       x2="10.710332"
       y2="18.974037"
       gradientUnits="userSpaceOnUse">
      <stop
         style="stop-color:#000000;stop-opacity:0.86274511;"
         offset="0"
         id="stop3277" />
      <stop
         style="stop-color:#000000;stop-opacity:0.47058824;"
         offset="1"
         id="stop3279" />
    </linearGradient>
    <inkscape:perspective
       id="perspective3648"
       inkscape:persp3d-origin="0.5 : 0.33333333 : 1"
       inkscape:vp_z="1 : 0.5 : 1"
       inkscape:vp_y="0 : 1000 : 0"
       inkscape:vp_x="0 : 0.5 : 1"
       sodipodi:type="inkscape:persp3d" />
    <linearGradient
       inkscape:collect="always"
       xlink:href="#StandardGradient"
       id="linearGradient3627"
       gradientUnits="userSpaceOnUse"
       gradientTransform="matrix(0.8222562,0,0,0.8222562,-21.508452,-0.5995615)"
       x1="10.710332"
       y1="1.9963325"
       x2="10.710332"
       y2="18.974037" />
    <clipPath
       clipPathUnits="userSpaceOnUse"
       id="clipPath3634">
      <path
         style="fill:#ff00ff;fill-opacity:1;stroke:none;display:inline"
         d="m -20,0 0,16 16,0 0,-16 -16,0 z m 5.9375,1 c 1.26517,-1e-8 2.535395,0.4764293 3.5,1.4375 1.681841,1.6756779 1.906787,4.247112 0.65625,6.15625 0.016338,0.324513 0.069521,0.876549 0.28125,1.0625 0.288287,0.25319 0.966874,-0.1105763 1.40625,0.375 l 3.03125,3.0625 c 0,0 0.594502,0.564957 -0.28125,1.4375 -0.875752,0.872544 -1.4375,0.28125 -1.4375,0.28125 L -9.9375,11.71875 c -0.487362,-0.437765 -0.120877,-1.087768 -0.375,-1.375 -0.186635,-0.21095 -0.736795,-0.26497 -1.0625,-0.28125 -1.916159,1.245955 -4.50566,1.019429 -6.1875,-0.65625 -1.92921,-1.922141 -1.92921,-5.0466083 0,-6.96875 C -16.597895,1.4764293 -15.327671,1 -14.0625,1 z m 0.03125,1.65625 c -0.909438,10e-8 -1.747343,0.3432779 -2.34375,0.9375 -0.596407,0.5942221 -0.96875,1.4376438 -0.96875,2.34375 0,1.8122134 1.493624,3.2812515 3.3125,3.28125 1.818878,0 3.28125,-1.4690367 3.28125,-3.28125 0,-1.8122125 -1.462373,-3.28125 -3.28125,-3.28125 z M -18,13 c 0.552,0 1,0.448 1,1 0,0.552 -0.448,1 -1,1 -0.552,0 -1,-0.448 -1,-1 0,-0.552 0.448,-1 1,-1 z m 3,0 c 0.552,0 1,0.448 1,1 0,0.552 -0.448,1 -1,1 -0.552,0 -1,-0.448 -1,-1 0,-0.552 0.448,-1 1,-1 z m 3,0 c 0.552,0 1,0.448 1,1 0,0.552 -0.448,1 -1,1 -0.552,0 -1,-0.448 -1,-1 0,-0.552 0.448,-1 1,-1 z"
         id="path3636" />
    </clipPath>
    <filter
       inkscape:collect="always"
       id="filter3638">
      <feGaussianBlur
         inkscape:collect="always"
         stdDeviation="0.42041012"
         id="feGaussianBlur3640" />
    </filter>
    <linearGradient
       inkscape:collect="always"
       xlink:href="#StandardGradient"
       id="linearGradient4449"
       gradientUnits="userSpaceOnUse"
       gradientTransform="matrix(0.8222562,0,0,0.8222562,-1.5084521,-0.5995615)"
       x1="10.710332"
       y1="1.9963325"
       x2="10.710332"
       y2="18.974037" />
    <linearGradient
       inkscape:collect="always"
       xlink:href="#StandardGradient"
       id="linearGradient4453"
       gradientUnits="userSpaceOnUse"
       gradientTransform="matrix(0.8222562,0,0,0.8222562,-1.5084521,-0.5995615)"
       x1="10.710332"
       y1="1.9963325"
       x2="10.710332"
       y2="18.974037" />
  </defs>
  <metadata
     id="metadata7">
    <rdf:RDF>
      <cc:Work
         rdf:about="">
        <dc:format>image/svg+xml</dc:format>
        <dc:type
           rdf:resource="http://purl.org/dc/dcmitype/StillImage" />
      </cc:Work>
    </rdf:RDF>
  </metadata>
  <g
     style="display:inline"
     inkscape:label="Calque 1"
     id="layer1"
     inkscape:groupmode="layer">
    <path
       style="fill:#ffffff;fill-opacity:1;stroke:none;opacity:0.15"
       d="M 5.9375 0.03125 C 4.4265265 0.03125 2.9044438 0.59978628 1.75 1.75 C -0.55502675 4.0465814 -0.55502693 7.7971692 1.75 10.09375 C 3.6451768 11.981984 6.4990298 12.288837 8.75 11.0625 C 8.7823596 11.065685 8.8125903 11.058556 8.84375 11.0625 C 8.855696 11.39956 8.9263845 11.975587 9.375 12.40625 C 9.3876317 12.418376 9.3930584 12.425651 9.40625 12.4375 L 12.40625 15.5 C 12.425594 15.51948 12.79099 15.883028 13.34375 15.96875 C 13.911346 16.056773 14.628385 15.806952 15.21875 15.21875 C 15.809949 14.629717 16.057685 13.912265 15.96875 13.34375 C 15.88214 12.790095 15.51948 12.42554 15.5 12.40625 L 12.5 9.375 C 12.487941 9.3616733 12.481074 9.3564988 12.46875 9.34375 C 12.022282 8.8818966 11.430863 8.82091 11.09375 8.8125 C 11.089821 8.7812887 11.096926 8.7511765 11.09375 8.71875 C 12.324771 6.4757599 12.019373 3.6374311 10.125 1.75 C 8.9705561 0.59978635 7.4484735 0.031249988 5.9375 0.03125 z M 5.9375 1 C 7.2026705 0.99999999 8.4728947 1.4764293 9.4375 2.4375 C 11.119341 4.1131779 11.344287 6.684612 10.09375 8.59375 C 10.110088 8.918263 10.163271 9.470299 10.375 9.65625 C 10.663287 9.90944 11.341874 9.5456737 11.78125 10.03125 L 14.8125 13.09375 C 14.8125 13.09375 15.407002 13.658707 14.53125 14.53125 C 13.655498 15.403794 13.09375 14.8125 13.09375 14.8125 L 10.0625 11.71875 C 9.575138 11.280985 9.9416228 10.630982 9.6875 10.34375 C 9.500865 10.132797 8.9507053 10.078777 8.625 10.0625 C 6.7088406 11.308455 4.1193403 11.081929 2.4375 9.40625 C 0.50828991 7.484109 0.50828989 4.3596417 2.4375 2.4375 C 3.4021052 1.4764293 4.6723295 1 5.9375 1 z M 5.96875 2.65625 C 5.0593116 2.6562501 4.2214074 2.9995279 3.625 3.59375 C 3.0285928 4.1879721 2.6562502 5.0313938 2.65625 5.9375 C 2.65625 7.7497134 4.1498744 9.2187515 5.96875 9.21875 C 7.7876277 9.21875 9.2499998 7.7497133 9.25 5.9375 C 9.25 4.1252875 7.7876271 2.65625 5.96875 2.65625 z M 5.96875 3.625 C 7.260437 3.625 8.28125 4.6520159 8.28125 5.9375 C 8.2812499 7.2229855 7.260438 8.25 5.96875 8.25 C 4.6770656 8.2500011 3.625 7.2117288 3.625 5.9375 C 3.6250001 5.29962 3.8999101 4.6923283 4.3125 4.28125 C 4.7176537 3.8775808 5.3056942 3.6250001 5.96875 3.625 z M 2 12.03125 C 0.91824303 12.03125 0.03125 12.918243 0.03125 14 C 0.03125 15.081757 0.91824303 15.96875 2 15.96875 C 2.6258441 15.96875 3.1356624 15.65015 3.5 15.1875 C 3.8643376 15.65015 4.3741559 15.96875 5 15.96875 C 5.6258441 15.96875 6.1356624 15.65015 6.5 15.1875 C 6.8643376 15.65015 7.3741559 15.96875 8 15.96875 C 9.081757 15.96875 9.9687502 15.081757 9.96875 14 C 9.96875 12.918243 9.081757 12.03125 8 12.03125 C 7.3741559 12.03125 6.8643376 12.34985 6.5 12.8125 C 6.1356624 12.34985 5.6258441 12.03125 5 12.03125 C 4.3741559 12.03125 3.8643376 12.34985 3.5 12.8125 C 3.1356624 12.34985 2.6258441 12.03125 2 12.03125 z M 2 13 C 2.5520001 13 3 13.448 3 14 C 3.0000001 14.552 2.552 15 2 15 C 1.4480001 15 1 14.552 1 14 C 1 13.448 1.448 13 2 13 z M 5 13 C 5.5520001 13 6 13.448 6 14 C 6.0000001 14.552 5.552 15 5 15 C 4.4480001 15 4 14.552 4 14 C 4.0000001 13.448 4.448 13 5 13 z M 8 13 C 8.5520001 13 9 13.448 9 14 C 9.0000001 14.552 8.552 15 8 15 C 7.4480001 15 7 14.552 7 14 C 7.0000001 13.448 7.448 13 8 13 z "
       id="path4451" />
    <path
       style="opacity:1;fill:url(#StandardGradient);fill-opacity:1;stroke:none;stroke-width:1;stroke-linecap:butt;stroke-linejoin:round;stroke-miterlimit:4;stroke-dasharray:none;stroke-dashoffset:0;stroke-opacity:1"
       d="M 5.9375 1 C 4.6723295 1 3.4021052 1.4764293 2.4375 2.4375 C 0.50828989 4.3596417 0.50828991 7.484109 2.4375 9.40625 C 4.1193403 11.081929 6.7088406 11.308455 8.625 10.0625 C 8.9507053 10.078777 9.500865 10.132797 9.6875 10.34375 C 9.9416228 10.630982 9.575138 11.280985 10.0625 11.71875 L 13.09375 14.8125 C 13.09375 14.8125 13.655498 15.403794 14.53125 14.53125 C 15.407002 13.658707 14.8125 13.09375 14.8125 13.09375 L 11.78125 10.03125 C 11.341874 9.5456737 10.663287 9.90944 10.375 9.65625 C 10.163271 9.470299 10.110088 8.918263 10.09375 8.59375 C 11.344287 6.684612 11.119341 4.1131779 9.4375 2.4375 C 8.4728947 1.4764293 7.2026705 0.99999999 5.9375 1 z M 5.96875 2.65625 C 7.7876271 2.65625 9.25 4.1252875 9.25 5.9375 C 9.2499998 7.7497133 7.7876277 9.21875 5.96875 9.21875 C 4.1498744 9.2187515 2.65625 7.7497134 2.65625 5.9375 C 2.6562502 5.0313938 3.0285928 4.1879721 3.625 3.59375 C 4.2214074 2.9995279 5.0593116 2.6562501 5.96875 2.65625 z M 2 13 C 1.448 13 1 13.448 1 14 C 1 14.552 1.4480001 15 2 15 C 2.552 15 3.0000001 14.552 3 14 C 3 13.448 2.5520001 13 2 13 z M 5 13 C 4.448 13 4.0000001 13.448 4 14 C 4 14.552 4.4480001 15 5 15 C 5.552 15 6.0000001 14.552 6 14 C 6 13.448 5.5520001 13 5 13 z M 8 13 C 7.448 13 7.0000001 13.448 7 14 C 7 14.552 7.4480001 15 8 15 C 8.552 15 9.0000001 14.552 9 14 C 9 13.448 8.5520001 13 8 13 z "
       id="Symbol" />
    <path
       style="opacity:0.5;fill:#000000;fill-opacity:1;stroke:none;stroke-width:1;stroke-linecap:butt;stroke-linejoin:round;stroke-miterlimit:4;stroke-dasharray:none;stroke-dashoffset:0;stroke-opacity:1"
       d="M 5.9375 1 C 4.6723295 1 3.4021052 1.4764293 2.4375 2.4375 C 1.3439626 3.5270308 0.91633408 5.0145431 1.0625 6.4375 C 1.1711549 5.3444192 1.5976969 4.2742261 2.4375 3.4375 C 4.3667103 1.5153587 7.5082895 1.5153586 9.4375 3.4375 C 10.253529 4.2505384 10.716035 5.2844911 10.84375 6.34375 C 10.965624 4.943372 10.513562 3.5096191 9.4375 2.4375 C 8.4728947 1.4764293 7.2026705 0.99999999 5.9375 1 z M 2.6875 6.4375 C 2.664108 6.5963634 2.65625 6.7731754 2.65625 6.9375 C 2.65625 8.7497134 4.1498744 10.218751 5.96875 10.21875 C 7.7876277 10.21875 9.2499998 8.7497132 9.25 6.9375 C 9.25 6.7731754 9.2421746 6.5953627 9.21875 6.4375 C 8.9743559 8.0097083 7.6149365 9.21875 5.96875 9.21875 C 4.3225654 9.2187513 2.9318943 8.0097086 2.6875 6.4375 z M 10.21875 9.375 C 10.175339 9.4496924 10.141451 9.5209265 10.09375 9.59375 C 10.110088 9.918263 10.163271 10.470299 10.375 10.65625 C 10.663287 10.90944 11.341874 10.545674 11.78125 11.03125 L 14.8125 14.09375 C 14.8125 14.09375 14.834455 14.114861 14.84375 14.125 C 15.206477 13.493031 14.8125 13.09375 14.8125 13.09375 L 11.78125 10.03125 C 11.341874 9.5456737 10.663287 9.90944 10.375 9.65625 C 10.308291 9.5976627 10.256672 9.4837946 10.21875 9.375 z M 2 13 C 1.448 13 1 13.448 1 14 C 1 14.187223 1.0665983 14.350127 1.15625 14.5 C 1.3309235 14.207994 1.6352229 14 2 14 C 2.3647771 14 2.6690765 14.207994 2.84375 14.5 C 2.9334017 14.350127 3 14.187223 3 14 C 3 13.448 2.5520001 13 2 13 z M 5 13 C 4.448 13 4 13.448 4 14 C 4 14.187223 4.0665983 14.350127 4.15625 14.5 C 4.3309235 14.207994 4.6352229 14 5 14 C 5.3647771 14 5.6690765 14.207994 5.84375 14.5 C 5.9334017 14.350127 6 14.187223 6 14 C 6 13.448 5.5520001 13 5 13 z M 8 13 C 7.448 13 7 13.448 7 14 C 7 14.187223 7.0665983 14.350127 7.15625 14.5 C 7.3309235 14.207994 7.6352229 14 8 14 C 8.3647771 14 8.6690765 14.207994 8.84375 14.5 C 8.9334017 14.350127 9 14.187223 9 14 C 9 13.448 8.5520001 13 8 13 z "
       id="BevelShadow" />
    <path
       style="opacity:0.3;fill:#ffffff;fill-opacity:1;stroke:none;stroke-width:1;stroke-linecap:butt;stroke-linejoin:round;stroke-miterlimit:4;stroke-dasharray:none;stroke-dashoffset:0;stroke-opacity:1"
       d="M 5.96875 2.65625 C 5.0593116 2.6562501 4.2214074 2.9995279 3.625 3.59375 C 3.0285928 4.1879721 2.6562502 5.0313938 2.65625 5.9375 C 2.65625 6.0881784 2.6677454 6.229696 2.6875 6.375 C 2.8029804 5.6820845 3.1503596 5.0666515 3.625 4.59375 C 4.2214074 3.9995281 5.0593116 3.6562501 5.96875 3.65625 C 7.6008077 3.6562501 8.9576776 4.8230607 9.21875 6.375 C 9.2385046 6.229696 9.25 6.0881784 9.25 5.9375 C 9.25 4.1252875 7.7876271 2.65625 5.96875 2.65625 z M 10.875 6.03125 C 10.855313 6.9282854 10.604787 7.8135734 10.09375 8.59375 C 10.10494 8.8160192 10.13631 9.13849 10.21875 9.375 C 10.761217 8.4416445 10.908046 7.5642419 10.90625 6.34375 C 10.906105 6.2452928 10.880365 6.1343335 10.875 6.03125 z M 1.03125 6.125 C 1.0274893 6.2304105 0.99980737 6.3326009 1 6.4375 C 1.0026034 7.8552276 1.348093 9.3208347 2.4375 10.40625 C 4.1193403 12.081929 6.7088406 12.308455 8.625 11.0625 C 8.9507053 11.078777 9.500865 11.132797 9.6875 11.34375 C 9.9416228 11.630982 9.575138 12.280985 10.0625 12.71875 L 13.09375 15.8125 C 13.09375 15.8125 13.655498 16.403794 14.53125 15.53125 C 14.992985 15.071208 15 14.720312 15 14.46875 C 15.000336 14.208378 15.000074 13.947764 15 13.6875 C 14.977661 13.913789 14.859657 14.204047 14.53125 14.53125 C 13.655498 15.403794 13.09375 14.8125 13.09375 14.8125 L 10.0625 11.71875 C 9.575138 11.280985 9.9416228 10.630982 9.6875 10.34375 C 9.500865 10.132797 8.9507053 10.078777 8.625 10.0625 C 6.7088406 11.308455 4.1193403 11.081929 2.4375 9.40625 C 1.5214436 8.4935502 1.0773552 7.3213717 1.03125 6.125 z M 1 14 C 1 14.400988 1 14.63037 1 15 C 1 15.552 1.4480001 16 2 16 C 2.552 16 3.0000001 15.552 3 15 C 3 14.606933 3 14.36963 3 14 C 3.0000001 14.552 2.552 15 2 15 C 1.4480001 15 1 14.552 1 14 z M 4 14 C 4 14.400988 4 14.63037 4 15 C 4 15.552 4.4480001 16 5 16 C 5.552 16 6.0000001 15.552 6 15 C 6 14.606933 6 14.36963 6 14 C 6.0000001 14.552 5.552 15 5 15 C 4.4480001 15 4 14.552 4 14 z M 7 14 C 7 14.400988 7 14.63037 7 15 C 7 15.552 7.4480001 16 8 16 C 8.552 16 9.0000001 15.552 9 15 C 9 14.606933 9 14.36963 9 14 C 9.0000001 14.552 8.552 15 8 15 C 7.4480001 15 7 14.552 7 14 z "
       id="BevelHighlight" />
  </g>
</svg>
