<?xml version="1.0" encoding="UTF-8" standalone="no"?>
<!-- Created with Inkscape (http://www.inkscape.org/) -->

<svg
   xmlns:dc="http://purl.org/dc/elements/1.1/"
   xmlns:cc="http://creativecommons.org/ns#"
   xmlns:rdf="http://www.w3.org/1999/02/22-rdf-syntax-ns#"
   xmlns:svg="http://www.w3.org/2000/svg"
   xmlns="http://www.w3.org/2000/svg"
   xmlns:xlink="http://www.w3.org/1999/xlink"
   xmlns:sodipodi="http://sodipodi.sourceforge.net/DTD/sodipodi-0.dtd"
   xmlns:inkscape="http://www.inkscape.org/namespaces/inkscape"
   width="16"
   height="16"
   id="svg2"
   sodipodi:version="0.32"
   inkscape:version="0.48.0 r9654"
   version="1.0"
   sodipodi:docname="edit-find.svg"
   inkscape:output_extension="org.inkscape.output.svg.inkscape"
   inkscape:export-filename="/home/matt/.icons/Sirocco/scalable/mimetypes/text-plain.png"
   inkscape:export-xdpi="90"
   inkscape:export-ydpi="90"
   sodipodi:modified="true"
   style="display:inline">
  <sodipodi:namedview
     id="base"
     pagecolor="#ffffff"
     bordercolor="#666666"
     borderopacity="1.0"
     inkscape:pageopacity="0.0"
     inkscape:pageshadow="2"
     inkscape:zoom="17.578558"
     inkscape:cx="-8.2493837"
     inkscape:cy="5.7328537"
     inkscape:document-units="px"
     inkscape:current-layer="layer1"
     width="128px"
     height="128px"
     inkscape:showpageshadow="false"
     inkscape:window-width="1920"
     inkscape:window-height="1029"
     inkscape:window-x="0"
     inkscape:window-y="25"
     showguides="true"
     inkscape:guide-bbox="true"
     showgrid="true"
     inkscape:window-maximized="1">
    <sodipodi:guide
       id="guide2226"
       position="32.637397,117.99844"
       orientation="horizontal" />
    <sodipodi:guide
       id="guide2230"
       position="110,57.402344"
       orientation="vertical" />
    <sodipodi:guide
       id="guide2232"
       position="33.760911"
       orientation="horizontal" />
    <sodipodi:guide
       id="guide2231"
       position="46.774696"
       orientation="horizontal" />
    <inkscape:grid
       enabled="true"
       visible="true"
       id="grid3231"
       type="xygrid" />
    <sodipodi:guide
       orientation="1,0"
       position="100,67.625"
       id="guide2713" />
  </sodipodi:namedview>
  <defs
     id="defs4">
    <inkscape:perspective
       sodipodi:type="inkscape:persp3d"
       inkscape:vp_x="0 : 11 : 1"
       inkscape:vp_y="0 : 1000 : 0"
       inkscape:vp_z="22 : 11 : 1"
       inkscape:persp3d-origin="11 : 7.3333333 : 1"
       id="perspective19" />
    <linearGradient
       id="StandardGradient"
       gradientTransform="matrix(0.8222562,0,0,0.8222562,-1.5084521,-0.5995615)"
       x1="10.710332"
       y1="1.9963325"
       x2="10.710332"
       y2="18.974037"
       gradientUnits="userSpaceOnUse">
      <stop
         style="stop-color:#000000;stop-opacity:0.86274511;"
         offset="0"
         id="stop3277" />
      <stop
         style="stop-color:#000000;stop-opacity:0.47058824;"
         offset="1"
         id="stop3279" />
    </linearGradient>
    <linearGradient
       inkscape:collect="always"
       xlink:href="#StandardGradient"
       id="linearGradient3620"
       gradientUnits="userSpaceOnUse"
       gradientTransform="matrix(0.8222562,0,0,0.8222562,-21.508452,-0.5995615)"
       x1="10.710332"
       y1="1.9963325"
       x2="10.710332"
       y2="18.974037" />
    <clipPath
       clipPathUnits="userSpaceOnUse"
       id="clipPath3627">
      <path
         style="fill:#ff00ff;fill-opacity:1;stroke:none"
         d="m -20,0 0,16 16,0 0,-16 -16,0 z m 5.9375,1 c 1.26517,-1e-8 2.535394,0.4764293 3.5,1.4375 1.681841,1.6756779 1.906787,4.247112 0.65625,6.15625 0.016338,0.324513 0.069521,0.876549 0.28125,1.0625 0.288287,0.25319 0.966874,-0.1105761 1.40625,0.375 l 3.03125,3.0625 c 0,0 0.594502,0.564957 -0.28125,1.4375 -0.875752,0.872544 -1.4375,0.28125 -1.4375,0.28125 L -9.9375,11.71875 c -0.487362,-0.437765 -0.120877,-1.087768 -0.375,-1.375 -0.186635,-0.210952 -0.736795,-0.26497 -1.0625,-0.28125 -1.916159,1.245955 -4.50566,1.019429 -6.1875,-0.65625 -1.92921,-1.922141 -1.929211,-5.0466084 0,-6.96875 C -16.597895,1.4764293 -15.32767,1 -14.0625,1 z m 0.03125,1.65625 c -0.909438,10e-8 -1.747342,0.343278 -2.34375,0.9375 -0.596407,0.5942221 -0.96875,1.4376439 -0.96875,2.34375 0,1.8122134 1.493625,3.281251 3.3125,3.28125 1.818878,0 3.28125,-1.4690366 3.28125,-3.28125 0,-1.8122125 -1.462373,-3.28125 -3.28125,-3.28125 z"
         id="path3629" />
    </clipPath>
    <filter
       inkscape:collect="always"
       id="filter3636">
      <feGaussianBlur
         inkscape:collect="always"
         stdDeviation="0.42"
         id="feGaussianBlur3638" />
    </filter>
    <linearGradient
       inkscape:collect="always"
       xlink:href="#StandardGradient"
       id="linearGradient4460"
       gradientUnits="userSpaceOnUse"
       gradientTransform="matrix(0.8222562,0,0,0.8222562,-1.5084521,-0.5995615)"
       x1="10.710332"
       y1="1.9963325"
       x2="10.710332"
       y2="18.974037" />
    <linearGradient
       inkscape:collect="always"
       xlink:href="#StandardGradient"
       id="linearGradient4464"
       gradientUnits="userSpaceOnUse"
       gradientTransform="matrix(0.8222562,0,0,0.8222562,-1.5084521,-0.5995615)"
       x1="10.710332"
       y1="1.9963325"
       x2="10.710332"
       y2="18.974037" />
  </defs>
  <metadata
     id="metadata7">
    <rdf:RDF>
      <cc:Work
         rdf:about="">
        <dc:format>image/svg+xml</dc:format>
        <dc:type
           rdf:resource="http://purl.org/dc/dcmitype/StillImage" />
      </cc:Work>
    </rdf:RDF>
  </metadata>
  <g
     style="display:inline"
     inkscape:label="Calque 1"
     id="layer1"
     inkscape:groupmode="layer">
    <path
       style="fill:#ffffff;fill-opacity:1;stroke:none;opacity:0.15"
       d="M 5.9375 0.03125 C 4.4295434 0.03125 2.9021138 0.60210768 1.75 1.75 C -0.55041427 4.0419856 -0.55041431 7.801765 1.75 10.09375 C 3.6438116 11.980624 6.5023724 12.260644 8.75 11.03125 C 8.7837539 11.034557 8.8112623 11.058364 8.84375 11.0625 C 8.8556099 11.39828 8.9292841 11.978392 9.375 12.40625 L 9.40625 12.4375 L 12.40625 15.46875 L 12.4375 15.46875 C 12.456561 15.48795 12.794682 15.8836 13.34375 15.96875 C 13.907447 16.056168 14.630257 15.805087 15.21875 15.21875 C 15.808067 14.631592 16.057074 13.90836 15.96875 13.34375 C 15.882718 12.793793 15.487951 12.456509 15.46875 12.4375 C 15.468238 12.436994 15.46875 12.40625 15.46875 12.40625 L 15.5 12.40625 L 12.5 9.375 C 12.48802 9.3617604 12.480993 9.3564154 12.46875 9.34375 C 12.025219 8.8849162 11.429719 8.820856 11.09375 8.8125 C 11.089629 8.7799594 11.065797 8.7525726 11.0625 8.71875 C 12.296587 6.479107 12.018017 3.6360798 10.125 1.75 C 8.9728862 0.60210775 7.4454566 0.031249988 5.9375 0.03125 z M 5.9375 1 C 7.2026705 0.99999999 8.4728948 1.4764293 9.4375 2.4375 C 11.119341 4.1131779 11.344287 6.684612 10.09375 8.59375 C 10.110088 8.918263 10.163271 9.470299 10.375 9.65625 C 10.663287 9.90944 11.341874 9.5456739 11.78125 10.03125 L 14.8125 13.09375 C 14.8125 13.09375 15.407002 13.658707 14.53125 14.53125 C 13.655498 15.403794 13.09375 14.8125 13.09375 14.8125 L 10.0625 11.71875 C 9.575138 11.280985 9.941623 10.630982 9.6875 10.34375 C 9.500865 10.132797 8.950705 10.078777 8.625 10.0625 C 6.7088406 11.308455 4.1193402 11.081929 2.4375 9.40625 C 0.50828991 7.484109 0.50828981 4.3596416 2.4375 2.4375 C 3.4021052 1.4764293 4.6723295 1 5.9375 1 z M 5.96875 2.65625 C 5.0593116 2.6562501 4.2214074 2.999528 3.625 3.59375 C 3.0285928 4.1879721 2.6562501 5.0313939 2.65625 5.9375 C 2.65625 7.7497134 4.1498742 9.218751 5.96875 9.21875 C 7.7876277 9.21875 9.25 7.7497134 9.25 5.9375 C 9.25 4.1252875 7.7876269 2.65625 5.96875 2.65625 z M 5.96875 3.625 C 7.2669072 3.625 8.28125 4.6455511 8.28125 5.9375 C 8.28125 7.2294503 7.2669086 8.25 5.96875 8.25 C 4.6705945 8.2500007 3.625 7.2183319 3.625 5.9375 C 3.6250001 5.2963281 3.897654 4.6945761 4.3125 4.28125 C 4.7200011 3.8752421 5.3026703 3.6250001 5.96875 3.625 z "
       id="path4462" />
    <path
       style="opacity:1;fill:url(#StandardGradient);fill-opacity:1;stroke:none;stroke-width:1;stroke-linecap:butt;stroke-linejoin:round;stroke-miterlimit:4;stroke-dasharray:none;stroke-dashoffset:0;stroke-opacity:1"
       d="M 2.4469076,2.4416061 C 0.51769741,4.3637477 0.51769751,7.4837459 2.4469076,9.4058869 C 4.1287478,11.081566 6.7197156,11.304744 8.635875,10.058789 C 8.96158,10.075066 9.486801,10.119878 9.673436,10.330831 C 9.927559,10.618063 9.568335,11.28955 10.055697,11.727315 L 13.086738,14.798547 C 13.086738,14.798547 13.649011,15.399048 14.524763,14.526504 C 15.400515,13.653961 14.797806,13.093749 14.797806,13.093749 L 11.766764,10.022517 C 11.327388,9.5369409 10.653432,9.8948469 10.365145,9.6416569 C 10.153416,9.4557059 10.10844,8.9324089 10.092102,8.6078959 C 11.342639,6.6987579 11.118641,4.117284 9.4368,2.4416061 C 7.5075895,0.51946465 4.3761179,0.51946475 2.4469076,2.4416061 z M 3.6300924,3.5841834 C 4.2264998,2.9899614 5.0506181,2.6411038 5.9600565,2.6411037 C 7.7789334,2.6411037 9.254771,4.111534 9.254771,5.9237465 C 9.254771,7.7359599 7.7789342,9.2063899 5.9600565,9.2063899 C 4.1411807,9.2063909 2.6653417,7.7359599 2.6653417,5.9237465 C 2.6653418,5.0176404 3.0336852,4.1784055 3.6300924,3.5841834 z"
       id="Symbol"
       sodipodi:nodetypes="cscsccsccscsccssssc"
       inkscape:label="#path3766" />
    <path
       style="opacity:0.50000000000000000;fill:#000000;fill-opacity:1;stroke:none;stroke-width:1;stroke-linecap:butt;stroke-linejoin:round;stroke-miterlimit:4;stroke-dasharray:none;stroke-dashoffset:0;stroke-opacity:1"
       d="M 5.9375 1 C 4.6723295 1 3.4021052 1.4764293 2.4375 2.4375 C 1.3439626 3.5270308 0.91633408 5.0145431 1.0625 6.4375 C 1.1711549 5.3444192 1.5976969 4.2742261 2.4375 3.4375 C 4.3667103 1.5153587 7.5082895 1.5153586 9.4375 3.4375 C 10.253529 4.2505384 10.716035 5.2844911 10.84375 6.34375 C 10.965624 4.943372 10.513562 3.5096191 9.4375 2.4375 C 8.4728947 1.4764293 7.2026705 0.99999999 5.9375 1 z M 2.6875 6.4375 C 2.664108 6.5963634 2.65625 6.7731754 2.65625 6.9375 C 2.65625 8.7497134 4.1498744 10.218751 5.96875 10.21875 C 7.7876277 10.21875 9.2499998 8.7497132 9.25 6.9375 C 9.25 6.7731754 9.2421746 6.5953627 9.21875 6.4375 C 8.9743559 8.0097083 7.6149365 9.21875 5.96875 9.21875 C 4.3225654 9.2187513 2.9318943 8.0097086 2.6875 6.4375 z M 10.21875 9.375 C 10.175339 9.4496924 10.141451 9.5209265 10.09375 9.59375 C 10.110088 9.918263 10.163271 10.470299 10.375 10.65625 C 10.663287 10.90944 11.341874 10.545674 11.78125 11.03125 L 14.8125 14.09375 C 14.8125 14.09375 14.834455 14.114861 14.84375 14.125 C 15.206477 13.493031 14.8125 13.09375 14.8125 13.09375 L 11.78125 10.03125 C 11.341874 9.5456737 10.663287 9.90944 10.375 9.65625 C 10.308291 9.5976627 10.256672 9.4837946 10.21875 9.375 z "
       id="BevelShadow"
       inkscape:label="#path2391" />
    <path
       style="opacity:0.3;fill:#ffffff;fill-opacity:1;stroke:none;stroke-width:1;stroke-linecap:butt;stroke-linejoin:round;stroke-miterlimit:4;stroke-dasharray:none;stroke-dashoffset:0;stroke-opacity:1"
       d="M 5 1.09375 C 4.3758598 1.213114 3.7677488 1.4528684 3.21875 1.8125 C 3.7668012 1.4520985 4.3768074 1.2138838 5 1.09375 z M 6.875 1.09375 C 7.4981926 1.2138838 8.1081987 1.4520985 8.65625 1.8125 C 8.1072511 1.4528684 7.4991402 1.213114 6.875 1.09375 z M 5.96875 2.65625 C 5.0593116 2.6562501 4.2214074 2.9995279 3.625 3.59375 C 3.0285928 4.1879721 2.6562502 5.0313938 2.65625 5.9375 C 2.65625 6.0881784 2.6677454 6.229696 2.6875 6.375 C 2.8029804 5.6820845 3.1503596 5.0666515 3.625 4.59375 C 4.2214074 3.9995281 5.0593116 3.6562501 5.96875 3.65625 C 7.6008077 3.6562501 8.9576776 4.8230607 9.21875 6.375 C 9.2385046 6.229696 9.25 6.0881784 9.25 5.9375 C 9.25 4.1252875 7.7876271 2.65625 5.96875 2.65625 z M 10.875 6.03125 C 10.855313 6.9282854 10.604787 7.8135734 10.09375 8.59375 C 10.10494 8.8160192 10.13631 9.13849 10.21875 9.375 C 10.761217 8.4416445 10.908046 7.5642419 10.90625 6.34375 C 10.906105 6.2452928 10.880365 6.1343335 10.875 6.03125 z M 1.03125 6.125 C 1.0274893 6.2304105 0.99980737 6.3326009 1 6.4375 C 1.0026034 7.8552276 1.348093 9.3208347 2.4375 10.40625 C 4.1193403 12.081929 6.7088406 12.308455 8.625 11.0625 C 8.9507053 11.078777 9.500865 11.132797 9.6875 11.34375 C 9.9416228 11.630982 9.575138 12.280985 10.0625 12.71875 L 13.09375 15.8125 C 13.09375 15.8125 13.655498 16.403794 14.53125 15.53125 C 14.992985 15.071208 15 14.720312 15 14.46875 C 15.000336 14.208378 15.000074 13.947764 15 13.6875 C 14.977661 13.913789 14.859657 14.204047 14.53125 14.53125 C 13.655498 15.403794 13.09375 14.8125 13.09375 14.8125 L 10.0625 11.71875 C 9.575138 11.280985 9.9416228 10.630982 9.6875 10.34375 C 9.500865 10.132797 8.9507053 10.078777 8.625 10.0625 C 6.7088406 11.308455 4.1193403 11.081929 2.4375 9.40625 C 1.5214436 8.4935502 1.0773552 7.3213717 1.03125 6.125 z "
       id="BevelHighlight"
       inkscape:label="#path3168" />
  </g>
</svg>
