<?xml version="1.0" encoding="UTF-8" standalone="no"?>
<!-- Created with Inkscape (http://www.inkscape.org/) -->

<svg
   xmlns:dc="http://purl.org/dc/elements/1.1/"
   xmlns:cc="http://creativecommons.org/ns#"
   xmlns:rdf="http://www.w3.org/1999/02/22-rdf-syntax-ns#"
   xmlns:svg="http://www.w3.org/2000/svg"
   xmlns="http://www.w3.org/2000/svg"
   xmlns:xlink="http://www.w3.org/1999/xlink"
   xmlns:sodipodi="http://sodipodi.sourceforge.net/DTD/sodipodi-0.dtd"
   xmlns:inkscape="http://www.inkscape.org/namespaces/inkscape"
   width="16"
   height="16"
   id="svg2"
   sodipodi:version="0.32"
   inkscape:version="0.48.0 r9654"
   version="1.0"
   sodipodi:docname="media-playlist-repeat.svg"
   inkscape:output_extension="org.inkscape.output.svg.inkscape">
  <defs
     id="defs4">
    <inkscape:perspective
       sodipodi:type="inkscape:persp3d"
       inkscape:vp_x="0 : 8 : 1"
       inkscape:vp_y="0 : 1000 : 0"
       inkscape:vp_z="16 : 8 : 1"
       inkscape:persp3d-origin="8 : 5.3333333 : 1"
       id="perspective18" />
    <linearGradient
       id="StandardGradient"
       gradientTransform="matrix(1.3125184,0,0,1.6041891,-4.7238894,-9.9478739)"
       x1="9.2393684"
       y1="7.4479208"
       x2="9.2393684"
       y2="14.326297"
       gradientUnits="userSpaceOnUse">
      <stop
         style="stop-color:#000000;stop-opacity:0.86274511;"
         offset="0"
         id="stop3389" />
      <stop
         style="stop-color:#000000;stop-opacity:0.47058824;"
         offset="1"
         id="stop3391" />
    </linearGradient>
    <linearGradient
       inkscape:collect="always"
       xlink:href="#StandardGradient"
       id="linearGradient2396"
       gradientUnits="userSpaceOnUse"
       gradientTransform="matrix(1.3125184,0,0,1.6041891,7.2761106,-9.9478739)"
       x1="9.2393684"
       y1="7.4479208"
       x2="9.2393684"
       y2="14.326297" />
    <inkscape:perspective
       id="perspective3648"
       inkscape:persp3d-origin="0.5 : 0.33333333 : 1"
       inkscape:vp_z="1 : 0.5 : 1"
       inkscape:vp_y="0 : 1000 : 0"
       inkscape:vp_x="0 : 0.5 : 1"
       sodipodi:type="inkscape:persp3d" />
    <linearGradient
       inkscape:collect="always"
       xlink:href="#StandardGradient"
       id="linearGradient3627"
       gradientUnits="userSpaceOnUse"
       gradientTransform="matrix(1.3125184,0,0,1.6041891,-12.723889,-9.9478739)"
       x1="9.2393684"
       y1="7.4479208"
       x2="9.2393684"
       y2="14.326297" />
    <clipPath
       clipPathUnits="userSpaceOnUse"
       id="clipPath3634">
      <path
         style="fill:#ff00ff;fill-opacity:1;stroke:none;display:inline"
         d="m -20,0 0,16 16,0 0,-16 -16,0 z m 4,3 3,0 0,10 -3,0 0,-10 z m 5,0 3,0 0,10 -3,0 0,-10 z"
         id="path3636" />
    </clipPath>
    <linearGradient
       inkscape:collect="always"
       xlink:href="#StandardGradient"
       id="linearGradient4538"
       gradientUnits="userSpaceOnUse"
       gradientTransform="matrix(1.3125184,0,0,1.6041891,7.2761106,-9.9478739)"
       x1="9.2393684"
       y1="7.4479208"
       x2="9.2393684"
       y2="14.326297" />
    <linearGradient
       inkscape:collect="always"
       xlink:href="#StandardGradient"
       id="linearGradient4542"
       gradientUnits="userSpaceOnUse"
       gradientTransform="matrix(1.3125184,0,0,1.6041891,7.2761106,-9.9478739)"
       x1="9.2393684"
       y1="7.4479208"
       x2="9.2393684"
       y2="14.326297" />
    <linearGradient
       id="StandardGradient-5"
       gradientTransform="scale(1.1094004,0.9013878)"
       x1="9.3966265"
       y1="5.5470023"
       x2="9.3966265"
       y2="19.983326"
       gradientUnits="userSpaceOnUse">
      <stop
         style="stop-color:#000000;stop-opacity:0.86274511;"
         offset="0"
         id="stop3389-5" />
      <stop
         style="stop-color:#000000;stop-opacity:0.47058824;"
         offset="1"
         id="stop3391-9" />
    </linearGradient>
    <linearGradient
       y2="19.983326"
       x2="9.3966265"
       y1="6.6564026"
       x1="9.3966265"
       gradientTransform="matrix(1.1094004,0,0,0.9013878,-4,-3)"
       gradientUnits="userSpaceOnUse"
       id="linearGradient3018"
       xlink:href="#StandardGradient-5"
       inkscape:collect="always" />
    <linearGradient
       inkscape:collect="always"
       xlink:href="#StandardGradient-5"
       id="linearGradient3042"
       gradientUnits="userSpaceOnUse"
       gradientTransform="matrix(1.1094004,0,0,0.9013878,-4,-2)"
       x1="9.3966265"
       y1="6.6564026"
       x2="9.3966265"
       y2="19.983326" />
    <linearGradient
       inkscape:collect="always"
       xlink:href="#StandardGradient-5"
       id="linearGradient3044"
       gradientUnits="userSpaceOnUse"
       gradientTransform="matrix(1.1094004,0,0,0.9013878,-4,-3)"
       x1="9.3966265"
       y1="6.6564026"
       x2="9.3966265"
       y2="19.983326" />
    <linearGradient
       inkscape:collect="always"
       xlink:href="#StandardGradient-5"
       id="linearGradient3817"
       gradientUnits="userSpaceOnUse"
       gradientTransform="matrix(1.1094004,0,0,0.9013878,-4,-2)"
       x1="9.3966265"
       y1="6.6564026"
       x2="9.3966265"
       y2="19.983326" />
    <linearGradient
       inkscape:collect="always"
       xlink:href="#StandardGradient-5"
       id="linearGradient3821"
       gradientUnits="userSpaceOnUse"
       gradientTransform="matrix(1.1094004,0,0,0.9013878,-4,-3)"
       x1="9.3966265"
       y1="6.6564026"
       x2="9.3966265"
       y2="19.983326" />
    <linearGradient
       inkscape:collect="always"
       xlink:href="#StandardGradient-5"
       id="linearGradient3828"
       gradientUnits="userSpaceOnUse"
       gradientTransform="matrix(1.1094004,0,0,0.9013878,-4,-3)"
       x1="9.3966265"
       y1="6.6564026"
       x2="9.3966265"
       y2="19.983326" />
    <linearGradient
       inkscape:collect="always"
       xlink:href="#StandardGradient-5"
       id="linearGradient3832"
       gradientUnits="userSpaceOnUse"
       gradientTransform="matrix(1.1094004,0,0,0.9013878,-4,-3)"
       x1="9.3966265"
       y1="6.6564026"
       x2="9.3966265"
       y2="19.983326" />
  </defs>
  <sodipodi:namedview
     id="base"
     pagecolor="#ffffff"
     bordercolor="#e7e7e7"
     borderopacity="1"
     inkscape:pageopacity="0.0"
     inkscape:pageshadow="2"
     inkscape:zoom="24.711919"
     inkscape:cx="-1.4585211"
     inkscape:cy="6.3085737"
     inkscape:document-units="px"
     inkscape:current-layer="layer1"
     showgrid="true"
     inkscape:showpageshadow="false"
     showguides="true"
     inkscape:guide-bbox="true"
     inkscape:window-width="1920"
     inkscape:window-height="1029"
     inkscape:window-x="0"
     inkscape:window-y="25"
     inkscape:window-maximized="1">
    <sodipodi:guide
       orientation="1,0"
       position="0,112"
       id="guide2383" />
    <sodipodi:guide
       orientation="0,1"
       position="78.156291,0"
       id="guide2389" />
    <inkscape:grid
       type="xygrid"
       id="grid3672"
       visible="true"
       enabled="true" />
    <sodipodi:guide
       orientation="1,0"
       position="22.008699,4.1542523"
       id="guide2950" />
    <sodipodi:guide
       orientation="0,1"
       position="11.22532,22.008699"
       id="guide2952" />
  </sodipodi:namedview>
  <metadata
     id="metadata7">
    <rdf:RDF>
      <cc:Work
         rdf:about="">
        <dc:format>image/svg+xml</dc:format>
        <dc:type
           rdf:resource="http://purl.org/dc/dcmitype/StillImage" />
        <dc:title></dc:title>
      </cc:Work>
    </rdf:RDF>
  </metadata>
  <g
     inkscape:label="Calque 1"
     inkscape:groupmode="layer"
     id="layer1">
    <path
       style="fill:#ffffff;fill-opacity:1;fill-rule:nonzero;stroke:none;opacity:0.15"
       d="M 3.5 2 C 1.5716064 2 0 3.5716064 0 5.5 L 0 10.5 C 0 12.428394 1.5716064 14 3.5 14 L 5.03125 14 A 1.0125678 1.0125678 0 0 0 6.03125 12.875 C 6.0235734 12.818055 6.0045053 12.805962 6 12.78125 C 6 12.735201 5.9953061 12.706934 6 12.71875 L 6 12.1875 A 1.0125678 1.0125678 0 0 0 6.40625 12.8125 L 10.40625 15.8125 A 1.0125678 1.0125678 0 0 0 12 15 L 12 14 L 12.5 14 C 14.428394 14 16 12.428394 16 10.5 L 16 5.5 C 16 3.5716064 14.428394 2 12.5 2 L 3.5 2 z M 3.5 3 L 12.5 3 C 13.885 3 15 4.115 15 5.5 L 15 10.5 C 15 11.885 13.885 13 12.5 13 L 11 13 L 11 15 L 7 12 L 11 9 L 11 11 L 11.5 11 C 12.331 11 13 10.331 13 9.5 L 13 6.5 C 13 5.669 12.331 5 11.5 5 L 4.5 5 C 3.669 5 3 5.669 3 6.5 L 3 9.5 C 3 10.331 3.669 11 4.5 11 L 5 11 L 5 12.78125 C 5 12.862323 5.0208 12.922482 5.03125 13 L 3.5 13 C 2.115 13 1 11.885 1 10.5 L 1 5.5 C 1 4.115 2.115 3 3.5 3 z M 4.5 6 L 11.5 6 C 11.787606 6 12 6.2123936 12 6.5 L 12 8.8125 A 1.0125678 1.0125678 0 0 0 10.40625 8.1875 L 6.40625 11.1875 A 1.0125678 1.0125678 0 0 0 6 11.75 L 6 11 A 1.0125678 1.0125678 0 0 0 5 10 L 4.5 10 C 4.2123936 10 4 9.7876064 4 9.5 L 4 6.5 C 4 6.2123936 4.2123936 6 4.5 6 z "
       id="path3830" />
    <path
       inkscape:connector-curvature="0"
       style="fill:url(#linearGradient3018);fill-opacity:1;fill-rule:nonzero;stroke:none"
       d="M 3.5,3 C 2.115,3 1,4.115 1,5.5 l 0,5 C 1,11.885 2.115,13 3.5,13 l 1.53125,0 C 5.0208,12.922482 5,12.862323 5,12.78125 L 5,11 4.5,11 C 3.669,11 3,10.331 3,9.5 l 0,-3 C 3,5.669 3.669,5 4.5,5 l 7,0 C 12.331,5 13,5.669 13,6.5 l 0,3 c 0,0.831 -0.669,1.5 -1.5,1.5 l -0.5,0 0,-2 -4,3 4,3 0,-2 1.5,0 c 1.385,0 2.5,-1.115 2.5,-2.5 l 0,-5 C 15,4.115 13.885,3 12.5,3 z"
       id="Symbol"
       inkscape:label="#rect2395"
       sodipodi:nodetypes="sssscscsssssssscccccsssss" />
    <path
       style="fill:#000000;fill-opacity:1;fill-rule:nonzero;stroke:none;opacity:0.5"
       d="M 3.5 3 C 2.115 3 1 4.115 1 5.5 L 1 6.5 C 1 5.115 2.115 4 3.5 4 L 12.5 4 C 13.885 4 15 5.115 15 6.5 L 15 5.5 C 15 4.115 13.885 3 12.5 3 L 3.5 3 z M 11 9 L 7 12 L 7.65625 12.5 L 11 10 L 11 9 z M 3 9.5 L 3 10.5 C 3 11.331 3.669 12 4.5 12 L 5 12 L 5 11 L 4.5 11 C 3.669 11 3 10.331 3 9.5 z M 13 9.5 C 13 10.331 12.331 11 11.5 11 L 11 11 L 11 12 L 11.5 12 C 12.331 12 13 11.331 13 10.5 L 13 9.5 z M 5 12.78125 L 5 13 L 5.03125 13 C 5.0208 12.922482 5 12.862323 5 12.78125 z "
       id="path3038" />
    <path
       style="fill:#ffffff;fill-opacity:1;fill-rule:nonzero;stroke:none;opacity:0.3"
       d="M 4.5 5 C 3.669 5 3 5.669 3 6.5 L 3 7.5 C 3 6.669 3.669 6 4.5 6 L 11.5 6 C 12.331 6 13 6.669 13 7.5 L 13 6.5 C 13 5.669 12.331 5 11.5 5 L 4.5 5 z M 1 10.5 L 1 11.5 C 1 12.885 2.115 14 3.5 14 L 5.03125 14 C 5.0208 13.922482 5 13.862323 5 13.78125 L 5 13 L 3.5 13 C 2.115 13 1 11.885 1 10.5 z M 15 10.5 C 15 11.885 13.885 13 12.5 13 L 11 13 L 11 14 L 12.5 14 C 13.885 14 15 12.885 15 11.5 L 15 10.5 z M 7.65625 12.5 L 7 13 L 11 16 L 11 15 L 7.65625 12.5 z "
       id="path3815" />
  </g>
</svg>
