<?xml version="1.0" encoding="UTF-8" standalone="no"?>
<!-- Created with Inkscape (http://www.inkscape.org/) -->

<svg
   xmlns:dc="http://purl.org/dc/elements/1.1/"
   xmlns:cc="http://creativecommons.org/ns#"
   xmlns:rdf="http://www.w3.org/1999/02/22-rdf-syntax-ns#"
   xmlns:svg="http://www.w3.org/2000/svg"
   xmlns="http://www.w3.org/2000/svg"
   xmlns:xlink="http://www.w3.org/1999/xlink"
   xmlns:sodipodi="http://sodipodi.sourceforge.net/DTD/sodipodi-0.dtd"
   xmlns:inkscape="http://www.inkscape.org/namespaces/inkscape"
   width="16"
   height="16"
   id="svg2"
   sodipodi:version="0.32"
   inkscape:version="0.48.0 r9654"
   version="1.0"
   sodipodi:docname="media-playlist-shuffle.svg"
   inkscape:output_extension="org.inkscape.output.svg.inkscape">
  <defs
     id="defs4">
    <inkscape:perspective
       sodipodi:type="inkscape:persp3d"
       inkscape:vp_x="0 : 8 : 1"
       inkscape:vp_y="0 : 1000 : 0"
       inkscape:vp_z="16 : 8 : 1"
       inkscape:persp3d-origin="8 : 5.3333333 : 1"
       id="perspective18" />
    <linearGradient
       id="StandardGradient"
       gradientTransform="matrix(1.3125184,0,0,1.6041891,-4.7238894,-9.9478739)"
       x1="9.2393684"
       y1="7.4479208"
       x2="9.2393684"
       y2="14.326297"
       gradientUnits="userSpaceOnUse">
      <stop
         style="stop-color:#000000;stop-opacity:0.86274511;"
         offset="0"
         id="stop3389" />
      <stop
         style="stop-color:#000000;stop-opacity:0.47058824;"
         offset="1"
         id="stop3391" />
    </linearGradient>
    <linearGradient
       inkscape:collect="always"
       xlink:href="#StandardGradient"
       id="linearGradient2396"
       gradientUnits="userSpaceOnUse"
       gradientTransform="matrix(1.3125184,0,0,1.6041891,7.2761106,-9.9478739)"
       x1="9.2393684"
       y1="7.4479208"
       x2="9.2393684"
       y2="14.326297" />
    <inkscape:perspective
       id="perspective3648"
       inkscape:persp3d-origin="0.5 : 0.33333333 : 1"
       inkscape:vp_z="1 : 0.5 : 1"
       inkscape:vp_y="0 : 1000 : 0"
       inkscape:vp_x="0 : 0.5 : 1"
       sodipodi:type="inkscape:persp3d" />
    <linearGradient
       inkscape:collect="always"
       xlink:href="#StandardGradient"
       id="linearGradient3627"
       gradientUnits="userSpaceOnUse"
       gradientTransform="matrix(1.3125184,0,0,1.6041891,-12.723889,-9.9478739)"
       x1="9.2393684"
       y1="7.4479208"
       x2="9.2393684"
       y2="14.326297" />
    <clipPath
       clipPathUnits="userSpaceOnUse"
       id="clipPath3634">
      <path
         style="fill:#ff00ff;fill-opacity:1;stroke:none;display:inline"
         d="m -20,0 0,16 16,0 0,-16 -16,0 z m 4,3 3,0 0,10 -3,0 0,-10 z m 5,0 3,0 0,10 -3,0 0,-10 z"
         id="path3636" />
    </clipPath>
    <linearGradient
       inkscape:collect="always"
       xlink:href="#StandardGradient"
       id="linearGradient4538"
       gradientUnits="userSpaceOnUse"
       gradientTransform="matrix(1.3125184,0,0,1.6041891,7.2761106,-9.9478739)"
       x1="9.2393684"
       y1="7.4479208"
       x2="9.2393684"
       y2="14.326297" />
    <linearGradient
       inkscape:collect="always"
       xlink:href="#StandardGradient"
       id="linearGradient4542"
       gradientUnits="userSpaceOnUse"
       gradientTransform="matrix(1.3125184,0,0,1.6041891,7.2761106,-9.9478739)"
       x1="9.2393684"
       y1="7.4479208"
       x2="9.2393684"
       y2="14.326297" />
    <linearGradient
       id="StandardGradient-8"
       gradientTransform="scale(1.1766968,0.8498366)"
       x1="7.9406605"
       y1="5.9202557"
       x2="7.9406605"
       y2="18.79122"
       gradientUnits="userSpaceOnUse">
      <stop
         style="stop-color:#000000;stop-opacity:0.86274511;"
         offset="0"
         id="stop3389-6" />
      <stop
         style="stop-color:#000000;stop-opacity:0.47058824;"
         offset="1"
         id="stop3391-6" />
    </linearGradient>
    <linearGradient
       y2="18.79122"
       x2="7.9406605"
       y1="5.9202557"
       x1="7.9406605"
       gradientTransform="matrix(1.1766968,0,0,0.8498366,-2,-2)"
       gradientUnits="userSpaceOnUse"
       id="linearGradient3016"
       xlink:href="#StandardGradient-8"
       inkscape:collect="always" />
    <linearGradient
       inkscape:collect="always"
       xlink:href="#StandardGradient-8"
       id="linearGradient3044"
       gradientUnits="userSpaceOnUse"
       gradientTransform="matrix(1.1766968,0,0,0.8498366,-3,-3)"
       x1="7.9406605"
       y1="5.9202557"
       x2="7.9406605"
       y2="18.79122" />
    <linearGradient
       inkscape:collect="always"
       xlink:href="#StandardGradient-8"
       id="linearGradient3048"
       gradientUnits="userSpaceOnUse"
       gradientTransform="matrix(1.1766968,0,0,-0.8498366,-3,19)"
       x1="7.9406605"
       y1="5.9202557"
       x2="7.9406605"
       y2="18.79122" />
    <linearGradient
       inkscape:collect="always"
       xlink:href="#StandardGradient-8"
       id="linearGradient3052"
       gradientUnits="userSpaceOnUse"
       gradientTransform="matrix(1.1766968,0,0,-0.8498366,-3,19)"
       x1="7.9406605"
       y1="5.9202557"
       x2="7.9406605"
       y2="18.79122" />
    <linearGradient
       inkscape:collect="always"
       xlink:href="#StandardGradient-8"
       id="linearGradient3056"
       gradientUnits="userSpaceOnUse"
       gradientTransform="matrix(1.1766968,0,0,-0.8498366,-3,19)"
       x1="7.9406605"
       y1="5.9202557"
       x2="7.9406605"
       y2="18.79122" />
    <linearGradient
       inkscape:collect="always"
       xlink:href="#StandardGradient-8"
       id="linearGradient3060"
       gradientUnits="userSpaceOnUse"
       gradientTransform="matrix(1.1766968,0,0,0.8498366,-3,-3)"
       x1="7.9406605"
       y1="5.9202557"
       x2="7.9406605"
       y2="18.79122" />
    <linearGradient
       inkscape:collect="always"
       xlink:href="#StandardGradient-8"
       id="linearGradient3064"
       gradientUnits="userSpaceOnUse"
       gradientTransform="matrix(1.1766968,0,0,0.8498366,-3,-3)"
       x1="7.9406605"
       y1="5.9202557"
       x2="7.9406605"
       y2="18.79122" />
    <linearGradient
       inkscape:collect="always"
       xlink:href="#StandardGradient-8"
       id="linearGradient3072"
       gradientUnits="userSpaceOnUse"
       gradientTransform="matrix(1.1766968,0,0,0.8498366,-3,-3)"
       x1="7.9406605"
       y1="5.9202557"
       x2="7.9406605"
       y2="18.79122" />
    <linearGradient
       inkscape:collect="always"
       xlink:href="#StandardGradient-8"
       id="linearGradient3075"
       gradientUnits="userSpaceOnUse"
       gradientTransform="matrix(1.1766968,0,0,-0.8498366,-3,19)"
       x1="7.9406605"
       y1="5.9202557"
       x2="7.9406605"
       y2="18.79122" />
    <linearGradient
       inkscape:collect="always"
       xlink:href="#StandardGradient-8"
       id="linearGradient3078"
       gradientUnits="userSpaceOnUse"
       gradientTransform="matrix(1.1766968,0,0,0.8498366,-3,-3)"
       x1="7.9406605"
       y1="5.9202557"
       x2="7.9406605"
       y2="18.79122" />
    <linearGradient
       inkscape:collect="always"
       xlink:href="#StandardGradient-8"
       id="linearGradient3081"
       gradientUnits="userSpaceOnUse"
       gradientTransform="matrix(1.1766968,0,0,0.8498366,-3,-3)"
       x1="7.9406605"
       y1="5.9202557"
       x2="7.9406605"
       y2="19.981956" />
    <linearGradient
       inkscape:collect="always"
       xlink:href="#StandardGradient-8"
       id="linearGradient3087"
       gradientUnits="userSpaceOnUse"
       gradientTransform="matrix(1.1766968,0,0,0.8498366,-3,-2)"
       x1="7.9406605"
       y1="5.9202557"
       x2="7.9406605"
       y2="19.981956" />
    <linearGradient
       inkscape:collect="always"
       xlink:href="#StandardGradient-8"
       id="linearGradient3089"
       gradientUnits="userSpaceOnUse"
       gradientTransform="matrix(1.1766968,0,0,0.8498366,-3,-3)"
       x1="7.9406605"
       y1="5.9202557"
       x2="7.9406605"
       y2="19.981956" />
    <linearGradient
       inkscape:collect="always"
       xlink:href="#StandardGradient-8"
       id="linearGradient3862"
       gradientUnits="userSpaceOnUse"
       gradientTransform="matrix(1.1766968,0,0,0.8498366,-3,-2)"
       x1="7.9406605"
       y1="5.9202557"
       x2="7.9406605"
       y2="19.981956" />
    <linearGradient
       inkscape:collect="always"
       xlink:href="#StandardGradient-8"
       id="linearGradient3866"
       gradientUnits="userSpaceOnUse"
       gradientTransform="matrix(1.1766968,0,0,0.8498366,-3,-3)"
       x1="7.9406605"
       y1="5.9202557"
       x2="7.9406605"
       y2="19.981956" />
    <linearGradient
       inkscape:collect="always"
       xlink:href="#StandardGradient-8"
       id="linearGradient3873"
       gradientUnits="userSpaceOnUse"
       gradientTransform="matrix(1.1766968,0,0,0.8498366,-3,-3)"
       x1="7.9406605"
       y1="5.9202557"
       x2="7.9406605"
       y2="19.981956" />
    <linearGradient
       inkscape:collect="always"
       xlink:href="#StandardGradient-8"
       id="linearGradient3877"
       gradientUnits="userSpaceOnUse"
       gradientTransform="matrix(1.1766968,0,0,0.8498366,-3,-3)"
       x1="7.9406605"
       y1="5.9202557"
       x2="7.9406605"
       y2="19.981956" />
  </defs>
  <sodipodi:namedview
     id="base"
     pagecolor="#ffffff"
     bordercolor="#e7e7e7"
     borderopacity="1"
     inkscape:pageopacity="0.0"
     inkscape:pageshadow="2"
     inkscape:zoom="24.711919"
     inkscape:cx="-1.4585211"
     inkscape:cy="6.3085737"
     inkscape:document-units="px"
     inkscape:current-layer="layer1"
     showgrid="true"
     inkscape:showpageshadow="false"
     showguides="true"
     inkscape:guide-bbox="true"
     inkscape:window-width="1920"
     inkscape:window-height="1029"
     inkscape:window-x="0"
     inkscape:window-y="25"
     inkscape:window-maximized="1"
     inkscape:snap-global="true">
    <sodipodi:guide
       orientation="1,0"
       position="0,112"
       id="guide2383" />
    <sodipodi:guide
       orientation="0,1"
       position="78.156291,0"
       id="guide2389" />
    <inkscape:grid
       type="xygrid"
       id="grid3672"
       visible="true"
       enabled="true" />
    <sodipodi:guide
       orientation="1,0"
       position="22.008699,4.1542523"
       id="guide2950" />
    <sodipodi:guide
       orientation="0,1"
       position="11.22532,22.008699"
       id="guide2952" />
  </sodipodi:namedview>
  <metadata
     id="metadata7">
    <rdf:RDF>
      <cc:Work
         rdf:about="">
        <dc:format>image/svg+xml</dc:format>
        <dc:type
           rdf:resource="http://purl.org/dc/dcmitype/StillImage" />
        <dc:title></dc:title>
      </cc:Work>
    </rdf:RDF>
  </metadata>
  <g
     inkscape:label="Calque 1"
     inkscape:groupmode="layer"
     id="layer1">
    <path
       style="fill:#ffffff;fill-opacity:1;fill-rule:nonzero;stroke:none;opacity:0.15"
       d="M 10.84375 1.03125 A 0.96196924 0.96196924 0 0 0 10.03125 2 L 10.03125 3.03125 L 9.96875 3.03125 C 7.9569188 3.03125 6.5853743 3.8514399 5.625 4.8125 C 5.4891868 4.9484102 5.4059492 5.0808381 5.28125 5.21875 A 0.96196924 0.96196924 0 0 0 5.125 5.0625 C 4.2929568 4.4801816 3.2116602 4.03125 1.96875 4.03125 L 1 4.03125 A 0.96196924 0.96196924 0 0 0 0.03125 5 L 0.03125 7 A 0.96196924 0.96196924 0 0 0 1 7.96875 L 1.96875 7.96875 C 2.0123203 7.96875 2.0240203 7.9979092 2.0625 8 C 2.0224422 8.0013564 2.0137962 8.03125 1.96875 8.03125 L 1 8.03125 A 0.96196924 0.96196924 0 0 0 0.03125 9 L 0.03125 11 A 0.96196924 0.96196924 0 0 0 1 11.96875 L 1.96875 11.96875 C 3.2977468 11.96875 4.4038992 11.449402 5.28125 10.78125 A 0.96196924 0.96196924 0 0 0 5.34375 10.90625 C 6.3257112 11.973464 7.7551158 12.96875 9.96875 12.96875 L 10.03125 12.96875 L 10.03125 14 A 0.96196924 0.96196924 0 0 0 11.5625 14.78125 L 15.5625 11.78125 A 0.96196924 0.96196924 0 0 0 15.5625 10.21875 L 12.59375 8 L 15.5625 5.78125 A 0.96196924 0.96196924 0 0 0 15.5625 4.21875 L 11.5625 1.21875 A 0.96196924 0.96196924 0 0 0 10.9375 1.03125 A 0.96196924 0.96196924 0 0 0 10.84375 1.03125 z M 11 2 L 15 5 L 11 8 L 15 11 L 11 14 L 11 12 L 9.96875 12 C 8.0067358 12 6.9643279 11.230124 6.0625 10.25 C 6.5865486 9.7318264 7.0231839 9.2453484 7.40625 8.78125 C 8.0925133 9.4760923 8.8449703 10 9.96875 10 L 11 10 L 11 8 L 11 6 L 9.96875 6 C 7.6024917 6 6.8240228 8.2078687 5.03125 9.8125 C 4.2683973 10.495296 3.2252602 11 1.96875 11 L 1 11 L 1 9 L 1.96875 9 C 2.7308302 9 3.2083271 8.7490184 3.71875 8.3125 C 5.8310276 6.5060606 6.3947226 4 9.96875 4 L 11 4 L 11 2 z M 1 5 L 1.96875 5 C 2.9915493 5 3.8585498 5.3510795 4.5625 5.84375 C 4.1166542 6.3778221 3.6997199 6.8965985 3.21875 7.34375 C 2.8663177 7.1355749 2.4826298 7 1.96875 7 L 1 7 L 1 5 z M 9.96875 6.96875 L 10.03125 6.96875 L 10.03125 7.90625 A 0.96196924 0.96196924 0 0 0 10.03125 8 A 0.96196924 0.96196924 0 0 0 10.03125 8.09375 L 10.03125 9.03125 L 9.96875 9.03125 C 9.1439214 9.03125 8.702862 8.7104765 8.09375 8.09375 A 0.96196924 0.96196924 0 0 0 7.96875 7.96875 C 8.6023656 7.3013916 9.0847837 6.96875 9.96875 6.96875 z "
       id="path3875" />
    <path
       style="fill:url(#linearGradient3081);fill-opacity:1;fill-rule:nonzero;stroke:none"
       d="M 11 2 L 11 4 L 9.96875 4 C 6.3947226 4 5.8310276 6.5060606 3.71875 8.3125 C 3.2083271 8.7490184 2.7308302 9 1.96875 9 L 1 9 L 1 11 L 1.96875 11 C 3.2252602 11 4.2683973 10.495296 5.03125 9.8125 C 6.8240228 8.2078687 7.6024917 6 9.96875 6 L 11 6 L 11 8 L 15 5 L 11 2 z M 11 8 L 11 10 L 9.96875 10 C 8.8449703 10 8.0925133 9.4760923 7.40625 8.78125 C 7.0231839 9.2453484 6.5865486 9.7318264 6.0625 10.25 C 6.9643279 11.230124 8.0067358 12 9.96875 12 L 11 12 L 11 14 L 15 11 L 11 8 z M 1 5 L 1 7 L 1.96875 7 C 2.4826298 7 2.8663177 7.1355749 3.21875 7.34375 C 3.6997199 6.8965985 4.1166542 6.3778221 4.5625 5.84375 C 3.8585498 5.3510795 2.9915493 5 1.96875 5 L 1 5 z "
       id="path3042" />
    <path
       style="opacity:0.5;fill:#000000;fill-opacity:1;fill-rule:nonzero;stroke:none"
       d="M 11,2 11,3 14.34375,5.5 15,5 z M 9.96875,4 C 6.3947226,4 5.8310276,6.5060606 3.71875,8.3125 3.2083271,8.7490184 2.7308302,9 1.96875,9 L 1,9 1,10 1.96875,10 C 2.7308302,10 3.2083271,9.7490184 3.71875,9.3125 5.8310276,7.5060606 6.3947226,5 9.96875,5 L 11,5 11,4 z M 1,5 1,6 1.96875,6 C 2.7358495,6 3.4112334,6.1934135 4,6.5 4.1855254,6.2835637 4.3736638,6.0699541 4.5625,5.84375 3.8585498,5.3510795 2.9915493,5 1.96875,5 z m 10,3 0,1 3.34375,2.5 L 15,11 z M 7.40625,8.78125 C 7.0231839,9.2453484 6.5865486,9.7318264 6.0625,10.25 c 0.1553494,0.168837 0.3323254,0.315252 0.5,0.46875 C 6.8654142,10.396221 7.1576904,10.082389 7.40625,9.78125 8.0925133,10.476092 8.8449703,11 9.96875,11 L 11,11 11,10 9.96875,10 C 8.8449703,10 8.0925133,9.4760923 7.40625,8.78125 z"
       id="path3083"
       inkscape:connector-curvature="0"
       sodipodi:nodetypes="cccccsssccsssccsccsccsccccccccccsccsc" />
    <path
       style="fill:#ffffff;fill-opacity:1;fill-rule:nonzero;stroke:none;opacity:0.3"
       d="M 14.34375 5.5 L 11 8 L 11.65625 8.5 L 15 6 L 14.34375 5.5 z M 9.96875 6 C 7.6024917 6 6.8240228 8.2078687 5.03125 9.8125 C 4.2683973 10.495296 3.2252602 11 1.96875 11 L 1 11 L 1 12 L 1.96875 12 C 3.2252602 12 4.2683973 11.495296 5.03125 10.8125 C 6.8240228 9.2078687 7.6024917 7 9.96875 7 L 11 7 L 11 6 L 9.96875 6 z M 4 6.5 C 3.7474964 6.7945739 3.496007 7.0859877 3.21875 7.34375 C 2.8663177 7.1355749 2.4826298 7 1.96875 7 L 1 7 L 1 8 L 1.96875 8 C 2.4826298 8 2.8663177 8.1355749 3.21875 8.34375 C 3.6997199 7.8965985 4.1166542 7.3778221 4.5625 6.84375 C 4.3865124 6.7205824 4.1962555 6.6021955 4 6.5 z M 6.5625 10.71875 C 6.3985799 10.893285 6.2465098 11.068053 6.0625 11.25 C 6.9643279 12.230124 8.0067358 13 9.96875 13 L 11 13 L 11 12 L 9.96875 12 C 8.3447136 12 7.3682027 11.456334 6.5625 10.71875 z M 14.34375 11.5 L 11 14 L 11 15 L 15 12 L 14.34375 11.5 z "
       id="path3860" />
  </g>
</svg>
