<?xml version="1.0" encoding="UTF-8" standalone="no"?>
<!-- Created with Inkscape (http://www.inkscape.org/) -->

<svg
   xmlns:dc="http://purl.org/dc/elements/1.1/"
   xmlns:cc="http://creativecommons.org/ns#"
   xmlns:rdf="http://www.w3.org/1999/02/22-rdf-syntax-ns#"
   xmlns:svg="http://www.w3.org/2000/svg"
   xmlns="http://www.w3.org/2000/svg"
   xmlns:xlink="http://www.w3.org/1999/xlink"
   xmlns:sodipodi="http://sodipodi.sourceforge.net/DTD/sodipodi-0.dtd"
   xmlns:inkscape="http://www.inkscape.org/namespaces/inkscape"
   width="24"
   height="24"
   id="svg2"
   sodipodi:version="0.32"
   inkscape:version="0.48.1 r9760"
   version="1.0"
   sodipodi:docname="folder-recent.svg"
   inkscape:output_extension="org.inkscape.output.svg.inkscape"
   style="display:inline">
  <defs
     id="defs4">
    <linearGradient
       inkscape:collect="always"
       xlink:href="#linearGradient3831-1"
       id="linearGradient3845-9"
       x1="11"
       y1="19.5"
       x2="21"
       y2="19.5"
       gradientUnits="userSpaceOnUse"
       spreadMethod="reflect"
       gradientTransform="translate(1,-1)" />
    <linearGradient
       id="linearGradient3831-1">
      <stop
         style="stop-color:#ffffff;stop-opacity:1;"
         offset="0"
         id="stop3833-2" />
      <stop
         id="stop3821-4"
         offset="0.75"
         style="stop-color:#ffffff;stop-opacity:0.49803922;" />
      <stop
         style="stop-color:#ffffff;stop-opacity:0;"
         offset="1"
         id="stop3835-9" />
    </linearGradient>
    <linearGradient
       y2="16"
       x2="10"
       y1="5"
       x1="10"
       gradientUnits="userSpaceOnUse"
       id="linearGradient3078-0"
       xlink:href="#linearGradient3823-1"
       inkscape:collect="always"
       gradientTransform="translate(1,-1)" />
    <linearGradient
       id="linearGradient3823-1">
      <stop
         id="stop3825-4"
         offset="0"
         style="stop-color:#ffffff;stop-opacity:1;" />
      <stop
         id="stop3829-4"
         offset="1"
         style="stop-color:#ffffff;stop-opacity:0;" />
    </linearGradient>
    <linearGradient
       inkscape:collect="always"
       xlink:href="#linearGradient3187-2"
       id="linearGradient3668-3"
       x1="10.871767"
       y1="24.123091"
       x2="10.871767"
       y2="6.1230297"
       gradientUnits="userSpaceOnUse"
       gradientTransform="translate(-0.7400389,-4.1230297)" />
    <linearGradient
       id="linearGradient3187-2">
      <stop
         style="stop-color:#c29656;stop-opacity:1;"
         offset="0"
         id="stop3189-5" />
      <stop
         style="stop-color:#ddbf8b;stop-opacity:1;"
         offset="1"
         id="stop3191-1" />
    </linearGradient>
    <linearGradient
       gradientUnits="userSpaceOnUse"
       y2="20.137329"
       x2="11.794092"
       y1="3.2126782"
       x1="11.794092"
       gradientTransform="scale(1.0598527,0.9435274)"
       id="linearGradient3317-6">
      <stop
         id="stop3319-8"
         offset="0"
         style="stop-color:#c6953a;stop-opacity:1" />
      <stop
         id="stop3321-0"
         offset="1"
         style="stop-color:#ab7a1f;stop-opacity:1" />
    </linearGradient>
    <linearGradient
       y2="85.821426"
       x2="48.035713"
       y1="25.910715"
       x1="48.035713"
       gradientTransform="matrix(0.2195263,0,0,0.2195263,1.3370719,0.1776143)"
       gradientUnits="userSpaceOnUse"
       id="linearGradient3861"
       xlink:href="#linearGradient3317-6"
       inkscape:collect="always" />
    <linearGradient
       inkscape:collect="always"
       id="linearGradient3327">
      <stop
         style="stop-color:#000000;stop-opacity:1;"
         offset="0"
         id="stop3330" />
      <stop
         style="stop-color:#000000;stop-opacity:0;"
         offset="1"
         id="stop3333" />
    </linearGradient>
    <linearGradient
       y2="-11"
       x2="11.375"
       y1="20"
       x1="11.375"
       gradientTransform="translate(1,3)"
       gradientUnits="userSpaceOnUse"
       id="linearGradient3842"
       xlink:href="#linearGradient3327"
       inkscape:collect="always" />
  </defs>
  <sodipodi:namedview
     id="base"
     pagecolor="#7e7e7e"
     bordercolor="#e40000"
     borderopacity="1"
     inkscape:pageopacity="1"
     inkscape:pageshadow="2"
     inkscape:zoom="18.602289"
     inkscape:cx="23.172517"
     inkscape:cy="11.875841"
     inkscape:document-units="px"
     inkscape:current-layer="layer4"
     showgrid="true"
     inkscape:showpageshadow="false"
     showguides="true"
     inkscape:guide-bbox="true"
     inkscape:window-width="1920"
     inkscape:window-height="1030"
     inkscape:window-x="0"
     inkscape:window-y="25"
     inkscape:window-maximized="1"
     borderlayer="true">
    <sodipodi:guide
       orientation="1,0"
       position="0,112"
       id="guide2383" />
    <sodipodi:guide
       orientation="0,1"
       position="26.278146,128"
       id="guide2385" />
    <sodipodi:guide
       orientation="1,0"
       position="128,54.082119"
       id="guide2387" />
    <sodipodi:guide
       orientation="0,1"
       position="78.156291,0"
       id="guide2389" />
    <inkscape:grid
       type="xygrid"
       id="grid3672"
       visible="true"
       enabled="true"
       empspacing="8"
       snapvisiblegridlinesonly="true" />
  </sodipodi:namedview>
  <metadata
     id="metadata7">
    <rdf:RDF>
      <cc:Work
         rdf:about="">
        <dc:format>image/svg+xml</dc:format>
        <dc:type
           rdf:resource="http://purl.org/dc/dcmitype/StillImage" />
        <dc:title></dc:title>
      </cc:Work>
    </rdf:RDF>
  </metadata>
  <g
     inkscape:groupmode="layer"
     id="layer2"
     inkscape:label="Button"
     transform="translate(0,2)"
     sodipodi:insensitive="true">
    <path
       style="opacity:0.3;fill:url(#linearGradient3842);fill-opacity:1;stroke:none;display:inline"
       d="m 4.5,1.5 c -1.0969971,0 -2,0.9030029 -2,2 l 0,0.5 c -0.6114808,0.4549066 -1,1.175925 -1,2 l 0,14.5 C 1.5,21.885 2.615,23 4,23 l 16,0 c 1.385,0 2.5,-1.115 2.5,-2.5 L 22.5,6 C 22.5,5.134375 22.071045,4.3858887 21.40625,3.9375 21.160346,3.1111944 20.401594,2.5 19.5,2.5 l -7.375,0 C 11.775318,1.9321758 11.212848,1.5 10.5,1.5 l -6,0 z"
       transform="translate(0,-2)"
       id="rect3371"
       inkscape:connector-curvature="0" />
    <rect
       ry="2"
       rx="2"
       y="5"
       x="2"
       height="16"
       width="20"
       id="rect5478"
       style="opacity:0.4;fill:#000000;fill-opacity:1;fill-rule:nonzero;stroke:none" />
    <rect
       style="fill:url(#linearGradient3861);fill-opacity:1;fill-rule:nonzero;stroke:none;display:inline"
       id="rect3352"
       width="16.464474"
       height="13.759596"
       x="3.6499383"
       y="5.2580805"
       rx="1.3171579"
       ry="1.3171579" />
    <path
       inkscape:connector-curvature="0"
       style="color:#000000;fill:#c4995a;fill-opacity:1;fill-rule:nonzero;stroke:none;stroke-width:2;marker:none;visibility:visible;display:inline;overflow:visible;enable-background:accumulate"
       d="M 4.5,0 C 3.669,0 3,0.669 3,1.5 l 0,1 0,1 0,2 C 3,6.331 3.669,7 4.5,7 l 15,0 C 20.331,7 21,6.331 21,5.5 l 0,-3 C 21,1.669 20.331,1 19.5,1 L 11.90625,1 C 11.702994,0.4129833 11.157875,0 10.5,0 l -6,0 z"
       id="rect3043" />
    <path
       style="opacity:0.1;color:#000000;fill:#000000;fill-opacity:1;fill-rule:nonzero;stroke:none;stroke-width:2;marker:none;visibility:visible;display:inline;overflow:visible;enable-background:accumulate"
       d="M 4,1 C 3.648898,1 3.317465,1.0923738 3.03125,1.25 3.018314,1.3295389 3,1.4166943 3,1.5 l 0,1 0,1 0,2 C 3,6.331 3.669,7 4.5,7 l 15,0 C 20.331,7 21,6.331 21,5.5 l 0,-3 C 21,1.669 20.331,1 19.5,1 L 11.90625,1 4,1 z"
       id="path3050"
       inkscape:connector-curvature="0" />
    <rect
       style="fill:url(#linearGradient3668-3);fill-opacity:1;fill-rule:nonzero;stroke:none;display:inline"
       id="rect3660"
       width="20"
       height="17.999996"
       x="2"
       y="2"
       rx="2"
       ry="2" />
    <path
       style="opacity:0.2;fill:url(#linearGradient3078-0);fill-opacity:1;fill-rule:evenodd;stroke:none;display:inline"
       d="M 4,2 C 2.892,2 2,2.892 2,4 l 0,14 c 0,1.108 0.892,2 2,2 l 16,0 c 1.108,0 2,-0.892 2,-2 L 22,4 C 22,2.892 21.108,2 20,2 z m 0,1.03125 16,0 c 0.5497,0 0.96875,0.4190495 0.96875,0.96875 l 0,14 c 0,0.5497 -0.41905,0.96875 -0.96875,0.96875 l -16,0 C 3.4502995,18.96875 3.03125,18.5497 3.03125,18 l 0,-14 C 3.03125,3.4502995 3.4502995,3.03125 4,3.03125 z"
       id="rect3050"
       inkscape:connector-curvature="0"
       sodipodi:nodetypes="ssssssssssssssssss" />
    <path
       id="path3235"
       d="M 4,20 C 2.892,20 2,19.108 2,18 l 0,-1 c 0,1.108 0.892,2 2,2 l 16,0 c 1.108,0 2,-0.892 2,-2 l 0,1 c 0,1.108 -0.892,2 -2,2 z"
       style="opacity:0.2;fill:url(#linearGradient3845-9);fill-opacity:1;fill-rule:evenodd;stroke:none;display:inline"
       inkscape:connector-curvature="0"
       sodipodi:nodetypes="sscsscsss" />
    <rect
       style="color:#000000;fill:#bd8e48;fill-opacity:1;fill-rule:nonzero;stroke:none;stroke-width:2;marker:none;visibility:visible;display:inline;overflow:visible;enable-background:accumulate"
       id="rect3884"
       width="8"
       height="8"
       x="32"
       y="0"
       transform="translate(0,-2)" />
  </g>
  <g
     inkscape:groupmode="layer"
     id="layer4"
     inkscape:label="Symbol"
     transform="translate(0,2)">
    <path
       sodipodi:type="inkscape:offset"
       inkscape:radius="0.95392311"
       inkscape:original="M 11.71875 7 C 8.4153701 7 5.7354253 9.6692903 5.71875 12.96875 L 4.09375 12.96875 L 6.65625 17.03125 L 9.25 12.96875 L 7.71875 12.96875 C 7.7357555 10.77418 9.520169 9 11.71875 9 C 13.927889 9 15.71875 10.790861 15.71875 13 C 15.71875 15.209139 13.927889 17 11.71875 17 C 10.98882 17 10.307838 16.779016 9.71875 16.4375 L 8.71875 18.1875 C 9.601284 18.698032 10.625863 19 11.71875 19 C 15.032458 19 17.71875 16.313708 17.71875 13 C 17.71875 9.6862915 15.032458 7 11.71875 7 z M 11 10 L 11 13 L 11 14 L 14.25 14 L 14.25 13 L 12 13 L 12 10 L 11 10 z M 7.46875 17.21875 C 7.609506 17.360616 7.751984 17.497689 7.90625 17.625 C 7.754251 17.499711 7.606709 17.357325 7.46875 17.21875 z "
       style="opacity:0.15;color:#000000;fill:#ffffff;fill-opacity:1;fill-rule:nonzero;stroke:none;stroke-width:3;marker:none;visibility:visible;display:inline;overflow:visible;enable-background:accumulate"
       id="path3864"
       d="M 11.71875,6.03125 C 8.2444032,6.03125 5.4440412,8.6626996 4.9375,12 l -0.84375,0 a 0.9540185,0.9540185 0 0 0 -0.8125,1.46875 l 2.5625,4.0625 a 0.9540185,0.9540185 0 0 0 1.03125,0.4375 c 0.1281675,0.12666 0.2810898,0.277169 0.4375,0.40625 L 7.90625,17.625 7.875,17.71875 A 0.9540185,0.9540185 0 0 0 8.25,19 c 1.018409,0.589134 2.200148,0.96875 3.46875,0.96875 3.829246,0 6.96875,-3.139504 6.96875,-6.96875 0,-3.8292469 -3.139504,-6.96875 -6.96875,-6.96875 z m 1.25,4.1875 c 0.794808,0.355704 1.369514,1.060859 1.625,1.90625 A 0.9540185,0.9540185 0 0 0 14.25,12.03125 l -1.28125,0 0,-1.8125 z m -2.9375,0.3125 0,1.875 A 0.9540185,0.9540185 0 0 0 9.25,12 l -0.375,0 c 0.2149988,-0.624339 0.6214678,-1.10516 1.15625,-1.46875 z m 0,3 0,0.46875 A 0.9540185,0.9540185 0 0 0 11,14.96875 l 3,0 c -0.556781,0.646172 -1.35291,1.0625 -2.28125,1.0625 -0.537399,0 -1.063655,-0.135168 -1.53125,-0.40625 A 0.9540185,0.9540185 0 0 0 8.875,15.96875 l -0.46875,0.8125 c -0.086877,-0.07763 -0.1565124,-0.156095 -0.25,-0.25 A 0.9540185,0.9540185 0 0 0 8.125,16.5 l 1.90625,-2.96875 z"
       transform="translate(1,-2)" />
    <path
       inkscape:connector-curvature="0"
       style="opacity:0.90000000000000002;color:#000000;fill:#bd8e48;fill-opacity:1;fill-rule:nonzero;stroke:none;stroke-width:3;marker:none;visibility:visible;display:inline;overflow:visible;enable-background:accumulate"
       d="m 12.71875,5 c -3.3033799,0 -5.9833247,2.6692903 -6,5.96875 l -1.625,0 2.5625,4.0625 2.59375,-4.0625 -1.53125,0 C 8.735756,8.77418 10.520169,7 12.71875,7 c 2.209139,0 4,1.790861 4,4 0,2.209139 -1.790861,4 -4,4 -0.72993,0 -1.410912,-0.220984 -2,-0.5625 l -1,1.75 c 0.882534,0.510532 1.907113,0.8125 3,0.8125 3.313708,0 6,-2.686292 6,-6 0,-3.3137085 -2.686292,-6 -6,-6 z M 12,8 l 0,3 0,1 3.25,0 0,-1 -2.25,0 0,-3 -1,0 z m -3.53125,7.21875 c 0.140756,0.141866 0.283234,0.278939 0.4375,0.40625 -0.151999,-0.125289 -0.299541,-0.267675 -0.4375,-0.40625 z"
       id="path3057" />
    <path
       inkscape:connector-curvature="0"
       style="opacity:0.2;color:#000000;fill:#000000;fill-opacity:1;fill-rule:nonzero;stroke:none;stroke-width:3;marker:none;visibility:visible;display:inline;overflow:visible;enable-background:accumulate"
       d="m 12.71875,5 c -3.3033799,0 -5.9833247,2.6692903 -6,5.96875 l -1.625,0 2.5625,4.0625 2.59375,-4.0625 -1.53125,0 C 8.735756,8.77418 10.520169,7 12.71875,7 c 2.209139,0 4,1.790861 4,4 0,2.209139 -1.790861,4 -4,4 -0.72993,0 -1.410912,-0.220984 -2,-0.5625 l -1,1.75 c 0.882534,0.510532 1.907113,0.8125 3,0.8125 3.313708,0 6,-2.686292 6,-6 0,-3.3137085 -2.686292,-6 -6,-6 z m 0,0.5 c 3.044086,0 5.5,2.455914 5.5,5.5 0,3.044085 -2.455915,5.5 -5.5,5.5 -0.824091,0 -1.578067,-0.234435 -2.28125,-0.5625 l 0.5,-0.875 c 0.546554,0.247037 1.133094,0.4375 1.78125,0.4375 2.478761,0 4.5,-2.021239 4.5,-4.5 0,-2.478761 -2.021239,-4.5 -4.5,-4.5 -2.466975,0 -4.4809153,2.005852 -4.5,4.46875 a 0.4989441,0.4989441 0 0 0 0.5,0.5 l 0.625,0 -1.65625,2.625 -1.65625,-2.625 0.6875,0 a 0.4989441,0.4989441 0 0 0 0.5,-0.5 C 7.234067,7.9380672 9.6841238,5.5 12.71875,5.5 z M 12,8 l 0,3 0,1 3.25,0 0,-1 -2.25,0 0,-3 -1,0 z m 0.5,3.15625 A 0.4989441,0.4989441 0 0 0 12.84375,11.5 l -0.34375,0 0,-0.34375 z m -4.03125,4.0625 c 0.140756,0.141866 0.283234,0.278939 0.4375,0.40625 -0.151999,-0.125289 -0.299541,-0.267675 -0.4375,-0.40625 z"
       id="path3848" />
    <path
       inkscape:connector-curvature="0"
       style="opacity:0.2;color:#000000;fill:#000000;fill-opacity:1;fill-rule:nonzero;stroke:none;stroke-width:3;marker:none;visibility:visible;display:inline;overflow:visible;enable-background:accumulate"
       d="m 12.71875,5 c -3.3033799,0 -5.9833247,2.6692903 -6,5.96875 l -1.625,0 0.625,1 1,0 C 6.735425,8.66929 9.4153701,6 12.71875,6 c 3.106601,0 5.66149,2.349463 5.96875,5.375 0.0075,-0.122591 0.03125,-0.250529 0.03125,-0.375 0,-3.3137085 -2.686292,-6 -6,-6 z m 0,3 C 12.475221,8 12.231527,8.052054 12,8.09375 L 12,9 13,9 13,8.03125 C 12.906134,8.024662 12.814291,8 12.71875,8 z M 8.875,10.96875 c -0.08546,0.320179 -0.1535653,0.653539 -0.15625,1 l 0.90625,0 0.625,-1 -1.375,0 z M 13,11 l 0,1 2.25,0 0,-1 -2.25,0 z m 3.65625,0.5 c -0.247066,1.972046 -1.898481,3.5 -3.9375,3.5 -0.72993,0 -1.410912,-0.220984 -2,-0.5625 l -1,1.75 c 0.1404031,0.08122 0.290204,0.148463 0.4375,0.21875 l 0.5625,-0.96875 c 0.589088,0.341516 1.27007,0.5625 2,0.5625 2.209139,0 4,-1.790861 4,-4 0,-0.17012 -0.04189,-0.335468 -0.0625,-0.5 z m -8.1875,3.71875 c 0.140756,0.141866 0.283234,0.278939 0.4375,0.40625 -0.151999,-0.125289 -0.299541,-0.267675 -0.4375,-0.40625 z m 0,1 c 0.137959,0.138575 0.285501,0.280961 0.4375,0.40625 -0.154266,-0.127311 -0.296744,-0.264384 -0.4375,-0.40625 z"
       id="path3855" />
    <path
       style="opacity:0.15;color:#000000;fill:#ffffff;fill-opacity:1;fill-rule:nonzero;stroke:none;stroke-width:3;marker:none;visibility:visible;display:inline;overflow:visible;enable-background:accumulate"
       d="M 12.71875 9 C 10.520169 9 8.735756 10.77418 8.71875 12.96875 L 8.875 12.96875 C 9.2709054 11.485481 10.471289 10.369056 12 10.09375 L 12 10 L 12.71875 10 L 13 10 L 13 10.03125 C 14.909391 10.165266 16.420761 11.620357 16.65625 13.5 C 16.676863 13.335468 16.71875 13.17012 16.71875 13 C 16.71875 10.790861 14.927889 9 12.71875 9 z M 18.6875 13.625 C 18.38024 16.650536 15.825351 19 12.71875 19 C 11.799731 19 10.934817 18.777769 10.15625 18.40625 L 9.71875 19.1875 C 10.601284 19.698032 11.625863 20 12.71875 20 C 16.032458 20 18.71875 17.313708 18.71875 14 C 18.71875 13.875529 18.694971 13.747591 18.6875 13.625 z M 5.09375 13.96875 L 7.65625 18.03125 L 10.25 13.96875 L 9.625 13.96875 L 7.65625 17.03125 L 5.71875 13.96875 L 5.09375 13.96875 z M 12 14 L 12 15 L 15.25 15 L 15.25 14 L 13 14 L 12 14 z M 8.46875 17.21875 C 8.606709 17.357325 8.754251 17.499711 8.90625 17.625 C 8.751984 17.497689 8.609506 17.360616 8.46875 17.21875 z M 8.46875 18.21875 C 8.609506 18.360616 8.751984 18.497689 8.90625 18.625 C 8.754251 18.499711 8.606709 18.357325 8.46875 18.21875 z "
       transform="translate(0,-2)"
       id="path4203" />
  </g>
</svg>
