<?xml version="1.0" encoding="UTF-8" standalone="no"?>
<!-- Created with Inkscape (http://www.inkscape.org/) -->

<svg
   xmlns:dc="http://purl.org/dc/elements/1.1/"
   xmlns:cc="http://creativecommons.org/ns#"
   xmlns:rdf="http://www.w3.org/1999/02/22-rdf-syntax-ns#"
   xmlns:svg="http://www.w3.org/2000/svg"
   xmlns="http://www.w3.org/2000/svg"
   xmlns:xlink="http://www.w3.org/1999/xlink"
   xmlns:sodipodi="http://sodipodi.sourceforge.net/DTD/sodipodi-0.dtd"
   xmlns:inkscape="http://www.inkscape.org/namespaces/inkscape"
   width="22"
   height="22"
   id="svg2"
   sodipodi:version="0.32"
   inkscape:version="0.48.0 r9654"
   version="1.0"
   sodipodi:docname="edit-cut.svg"
   inkscape:output_extension="org.inkscape.output.svg.inkscape"
   inkscape:export-filename="/home/matt/.icons/Sirocco/scalable/mimetypes/text-plain.png"
   inkscape:export-xdpi="90"
   inkscape:export-ydpi="90"
   sodipodi:modified="true"
   style="display:inline">
  <sodipodi:namedview
     id="base"
     pagecolor="#ffffff"
     bordercolor="#666666"
     borderopacity="1.0"
     inkscape:pageopacity="0.0"
     inkscape:pageshadow="2"
     inkscape:zoom="9.5155601"
     inkscape:cx="-27.351837"
     inkscape:cy="-0.32894614"
     inkscape:document-units="px"
     inkscape:current-layer="layer1"
     width="128px"
     height="128px"
     inkscape:showpageshadow="false"
     inkscape:window-width="1920"
     inkscape:window-height="1029"
     inkscape:window-x="0"
     inkscape:window-y="25"
     showguides="true"
     inkscape:guide-bbox="true"
     showgrid="true"
     inkscape:window-maximized="1">
    <sodipodi:guide
       id="guide2226"
       position="32.637397,117.99844"
       orientation="horizontal" />
    <sodipodi:guide
       id="guide2230"
       position="110,57.402344"
       orientation="vertical" />
    <sodipodi:guide
       id="guide2232"
       position="33.760911"
       orientation="horizontal" />
    <sodipodi:guide
       id="guide2231"
       position="46.774696"
       orientation="horizontal" />
    <inkscape:grid
       enabled="true"
       visible="true"
       id="grid3231"
       type="xygrid" />
    <sodipodi:guide
       orientation="1,0"
       position="100,67.625"
       id="guide2713" />
  </sodipodi:namedview>
  <defs
     id="defs4">
    <inkscape:perspective
       sodipodi:type="inkscape:persp3d"
       inkscape:vp_x="0 : 11 : 1"
       inkscape:vp_y="0 : 1000 : 0"
       inkscape:vp_z="22 : 11 : 1"
       inkscape:persp3d-origin="11 : 7.3333333 : 1"
       id="perspective19" />
    <linearGradient
       id="StandardGradient"
       gradientTransform="scale(0.9219544,1.0846523)"
       x1="11.998966"
       y1="0.92195445"
       x2="11.998966"
       y2="19.387045"
       gradientUnits="userSpaceOnUse">
      <stop
         style="stop-color:#000000;stop-opacity:0.86274511;"
         offset="0"
         id="stop3283" />
      <stop
         style="stop-color:#000000;stop-opacity:0.47058824;"
         offset="1"
         id="stop2651" />
    </linearGradient>
    <linearGradient
       inkscape:collect="always"
       xlink:href="#StandardGradient"
       id="linearGradient2452"
       gradientUnits="userSpaceOnUse"
       gradientTransform="matrix(0.9247229,0,0,1.0872097,-32.060056,0.9976422)"
       x1="11.998966"
       y1="0.92195445"
       x2="11.998966"
       y2="17.478098" />
    <linearGradient
       inkscape:collect="always"
       xlink:href="#StandardGradient"
       id="linearGradient3213"
       gradientUnits="userSpaceOnUse"
       gradientTransform="matrix(0.9247229,0,0,1.0872097,-32.060056,0.9976422)"
       x1="11.998966"
       y1="0.92195445"
       x2="11.998966"
       y2="17.478098" />
    <linearGradient
       inkscape:collect="always"
       xlink:href="#StandardGradient"
       id="linearGradient3216"
       gradientUnits="userSpaceOnUse"
       gradientTransform="matrix(0.9247229,0,0,1.0872097,-32.060056,0.9976422)"
       x1="46.069901"
       y1="0.92127591"
       x2="46.069901"
       y2="17.478098" />
    <linearGradient
       inkscape:collect="always"
       xlink:href="#StandardGradient"
       id="linearGradient2396"
       gradientUnits="userSpaceOnUse"
       gradientTransform="matrix(0.9247229,0,0,1.0872097,-32.060056,0.9976422)"
       x1="46.069901"
       y1="0.92127591"
       x2="46.069901"
       y2="17.478098" />
    <linearGradient
       inkscape:collect="always"
       xlink:href="#StandardGradient"
       id="linearGradient2400"
       gradientUnits="userSpaceOnUse"
       gradientTransform="matrix(-0.8695368,0,0,1.0420889,51.503038,1.4217285)"
       x1="46.069901"
       y1="0.92127591"
       x2="46.069901"
       y2="17.478098" />
    <linearGradient
       inkscape:collect="always"
       xlink:href="#StandardGradient"
       id="linearGradient2404"
       gradientUnits="userSpaceOnUse"
       gradientTransform="matrix(0.9247229,0,0,1.0872097,-32.060056,0.9976422)"
       x1="46.069901"
       y1="0.92127591"
       x2="46.069901"
       y2="17.478098" />
    <linearGradient
       inkscape:collect="always"
       xlink:href="#StandardGradient"
       id="linearGradient2408"
       gradientUnits="userSpaceOnUse"
       gradientTransform="matrix(0.9247229,0,0,1.0872097,-32.060056,0.9976422)"
       x1="46.069901"
       y1="0.92127591"
       x2="46.069901"
       y2="17.478098" />
    <linearGradient
       inkscape:collect="always"
       xlink:href="#StandardGradient"
       id="linearGradient2411"
       gradientUnits="userSpaceOnUse"
       gradientTransform="matrix(-0.8695368,0,0,1.0420889,51.503038,1.4217285)"
       x1="46.069901"
       y1="0.92127591"
       x2="46.069901"
       y2="17.478098" />
    <inkscape:perspective
       id="perspective2850"
       inkscape:persp3d-origin="0.5 : 0.33333333 : 1"
       inkscape:vp_z="1 : 0.5 : 1"
       inkscape:vp_y="0 : 1000 : 0"
       inkscape:vp_x="0 : 0.5 : 1"
       sodipodi:type="inkscape:persp3d" />
    <linearGradient
       inkscape:collect="always"
       xlink:href="#StandardGradient"
       id="linearGradient3635"
       gradientUnits="userSpaceOnUse"
       gradientTransform="matrix(-0.8695368,0,0,1.0420889,21.503038,1.4217285)"
       x1="46.069901"
       y1="0.92127591"
       x2="46.069901"
       y2="17.478098" />
    <clipPath
       clipPathUnits="userSpaceOnUse"
       id="clipPath3648">
      <path
         style="fill:#ff00ff;fill-opacity:1;stroke:none;display:inline"
         d="m -30,0 0,22 22,0 0,-22 -22,0 z m 6.15625,2 c 0.07225,-0.021043 0.14471,0.00323 0.21875,0.03125 0.08884,0.030436 0.1444,0.071411 0.1875,0.15625 l 3.8125,6.40625 -0.8125,1.34375 c -1.35e-4,0.00998 -1.35e-4,0.02127 0,0.03125 -0.377014,0.677689 -0.57215,1.373324 -0.75,2.03125 -1.149179,-1.913191 -2.712525,-4.7743819 -3.65625,-6.75 -0.336903,-0.7069144 -0.08601,-1.4715398 0.1875,-2.0625 0.273508,-0.5909603 0.625,-1.03125 0.625,-1.03125 C -23.98291,2.092586 -23.916,2.021043 -23.84375,2 z m 9.6875,0 c 0.07225,0.021043 0.139159,0.092586 0.1875,0.15625 0,0 0.351493,0.4402897 0.625,1.03125 0.27351,0.5909602 0.524403,1.3555856 0.1875,2.0625 -1.22733,2.5693242 -3.517129,6.669217 -4.5625,8.1875 -0.04863,0.07354 -0.13473,0.13321 -0.21875,0.15625 -0.975663,0.286393 -1.342838,0.785062 -1.5625,1.34375 -0.21525,0.547514 -0.24359,1.154935 -0.21875,1.59375 -0.005,-0.0016 0.0018,0.02455 0,0.03125 0.0041,0.0097 0.02605,0.02034 0.03125,0.0625 1.5e-5,2.32e-4 4.3e-5,0.124811 0,0.125 -10e-6,6e-5 -0.02485,0.01611 -0.03125,0.03125 0.0011,0.02023 -6.5e-4,0.04227 0,0.0625 -0.0064,0.01514 -0.03122,0.03121 -0.03125,0.03125 0.01101,0.548255 -0.07265,1.084596 -0.375,1.59375 -0.348214,0.586396 -0.826605,1.058792 -1.4375,1.3125 -0.604793,0.251175 -1.463787,0.34758 -2.25,-0.09375 -0.782565,-0.439283 -1.07801,-1.149867 -1.15625,-1.78125 -0.0796,-0.642333 0.05036,-1.338178 0.40625,-1.9375 0.351305,-0.5916 0.837306,-1.031985 1.4375,-1.28125 0.45956,-0.19086 1.043194,-0.252453 1.625,-0.09375 0.0092,-2.24e-4 0.0053,-0.02882 0.09375,0 0.0094,0.0012 0.01765,-0.0034 0.03125,0 0.0136,0.0034 0.01216,-0.0066 0.03125,0 0.06677,0.0132 0.13632,0.02357 0.1875,0 0.05971,-0.0275 0.13538,-0.07784 0.21875,-0.1875 0.166734,-0.219325 0.3476,-0.633416 0.5,-1.09375 0.3048,-0.920668 0.519378,-2.060916 0.9375,-2.8125 l 4.9375,-8.3125 c 0.04309,-0.084839 0.09866,-0.125814 0.1875,-0.15625 C -14.30096,2.00323 -14.2285,1.978957 -14.15625,2 z m -2.9375,12.3125 c 0.01549,0.02304 0.01596,0.07364 0.03125,0.09375 0.08337,0.10966 0.15904,0.16 0.21875,0.1875 0.05118,0.02357 0.12073,0.0132 0.1875,0 0.01909,-0.0066 0.01765,0.0034 0.03125,0 0.0136,-0.0034 0.02185,0.0012 0.03125,0 0.08845,-0.02882 0.08455,-2.24e-4 0.09375,0 0.581807,-0.158703 1.16544,-0.09711 1.625,0.09375 0.600194,0.249265 1.086195,0.68965 1.4375,1.28125 0.35589,0.599322 0.48585,1.295167 0.40625,1.9375 -0.07824,0.631383 -0.373685,1.341967 -1.15625,1.78125 -0.786213,0.44133 -1.645207,0.344925 -2.25,0.09375 -0.610895,-0.253708 -1.089286,-0.726104 -1.4375,-1.3125 -0.30235,-0.509154 -0.38601,-1.045495 -0.375,-1.59375 -3e-5,-4e-5 -0.02485,-0.01611 -0.03125,-0.03125 6.5e-4,-0.02023 -0.0011,-0.04227 0,-0.0625 -0.0064,-0.01514 -0.03124,-0.03119 -0.03125,-0.03125 -4.3e-5,-1.89e-4 -1.5e-5,-0.124768 0,-0.125 0.0052,-0.04216 0.02715,-0.0528 0.03125,-0.0625 -0.0018,-0.0067 0.005,-0.03285 0,-0.03125 0.02152,-0.380109 -0.01366,-0.891645 -0.15625,-1.375 0.09939,-0.232025 0.211318,-0.354781 0.8125,-0.53125 0.208724,-0.05723 0.375277,-0.167985 0.53125,-0.3125 z m -4.625,1.84375 c -0.104309,0.006 -0.197701,0.01482 -0.3125,0.0625 -0.256569,0.106554 -0.589574,0.374593 -0.8125,0.75 -0.22176,0.373445 -0.31228,0.812082 -0.28125,1.0625 0.03227,0.26041 0.18951,0.31746 0.125,0.28125 -0.04051,-0.02275 0.05564,0.07543 0.3125,-0.03125 0.240347,-0.09982 0.554548,-0.399481 0.78125,-0.78125 0.22554,-0.379804 0.34384,-0.747087 0.3125,-1 -0.01751,-0.141327 -0.06475,-0.25631 -0.09375,-0.3125 -0.0087,-0.01686 -0.02255,-0.02175 -0.03125,-0.03125 z m 5.40625,0 c -0.0032,6.1e-4 0.003,0.03047 0,0.03125 -0.029,0.05619 -0.07624,0.171173 -0.09375,0.3125 -0.03134,0.252913 0.08696,0.620196 0.3125,1 0.226702,0.381769 0.540903,0.68143 0.78125,0.78125 0.25686,0.10668 0.35301,0.0085 0.3125,0.03125 -0.06451,0.03621 0.09273,-0.02084 0.125,-0.28125 0.03103,-0.250418 -0.05949,-0.689055 -0.28125,-1.0625 -0.222926,-0.375407 -0.555931,-0.643446 -0.8125,-0.75 -0.114798,-0.04768 -0.208191,-0.0565 -0.3125,-0.0625 -0.0061,0.0037 -0.0109,-0.01143 -0.03125,0 z"
         id="path3650" />
    </clipPath>
    <filter
       inkscape:collect="always"
       id="filter3652">
      <feGaussianBlur
         inkscape:collect="always"
         stdDeviation="0.4502034"
         id="feGaussianBlur3654" />
    </filter>
    <linearGradient
       inkscape:collect="always"
       xlink:href="#StandardGradient"
       id="linearGradient3940"
       gradientUnits="userSpaceOnUse"
       gradientTransform="matrix(-0.8695368,0,0,1.0420889,51.503038,1.4217285)"
       x1="46.069901"
       y1="0.92127591"
       x2="46.069901"
       y2="17.478098" />
    <linearGradient
       inkscape:collect="always"
       xlink:href="#StandardGradient"
       id="linearGradient3944"
       gradientUnits="userSpaceOnUse"
       gradientTransform="matrix(-0.8695368,0,0,1.0420889,51.503038,1.4217285)"
       x1="46.069901"
       y1="0.92127591"
       x2="46.069901"
       y2="17.478098" />
  </defs>
  <metadata
     id="metadata7">
    <rdf:RDF>
      <cc:Work
         rdf:about="">
        <dc:format>image/svg+xml</dc:format>
        <dc:type
           rdf:resource="http://purl.org/dc/dcmitype/StillImage" />
      </cc:Work>
    </rdf:RDF>
  </metadata>
  <g
     style="display:inline"
     inkscape:label="Calque 1"
     id="layer1"
     inkscape:groupmode="layer">
    <path
       style="fill:#ffffff;fill-opacity:1;stroke:none;display:inline;opacity:0.15"
       d="M 6.1875 0.9375 C 6.0961486 0.94111595 5.9863079 0.96758291 5.875 1 C 5.3806004 1.1439892 5.2545416 1.3630989 5.15625 1.5 C 5.15625 1.5 5.1565207 1.5309134 5.15625 1.53125 C 5.1414652 1.5496363 4.7030809 2.0411249 4.375 2.75 C 4.0592571 3.4322169 3.6680514 4.5319848 4.21875 5.6875 C 5.1869427 7.7143391 6.735557 10.582242 7.90625 12.53125 A 1.0510153 1.0510153 0 0 0 8.53125 13.03125 C 8.4382641 13.290174 8.3717698 13.444373 8.3125 13.5625 C 8.3903263 13.5454 8.4689859 13.531244 8.46875 13.53125 L 8.46875 13.59375 C 8.4281899 13.599928 8.2835001 13.603478 8.3125 13.59375 C 8.308674 13.6013 8.2844618 13.61875 8.28125 13.625 C 8.2267224 13.618449 8.1791415 13.629026 8.125 13.625 C 8.1142954 13.629753 8.1039675 13.620348 8.09375 13.625 C 7.5298185 13.588183 6.9443348 13.521235 6.46875 13.71875 C 5.6492277 14.059104 4.9829091 14.676903 4.53125 15.4375 C 4.0503705 16.247306 3.891845 17.158449 4 18.03125 C 4.1061117 18.887563 4.5815616 19.972945 5.6875 20.59375 C 6.815588 21.226987 8.0014081 21.099831 8.84375 20.75 C 9.7019055 20.393604 10.343796 19.736676 10.78125 19 C 10.953583 18.70979 10.918336 18.422621 11 18.125 C 11.081664 18.422622 11.046414 18.709789 11.21875 19 C 11.656204 19.736677 12.298095 20.393604 13.15625 20.75 C 13.998592 21.099831 15.184412 21.226987 16.3125 20.59375 C 17.418438 19.972946 17.893889 18.887566 18 18.03125 C 18.108161 17.158442 17.949629 16.247304 17.46875 15.4375 C 17.017091 14.676903 16.350773 14.059104 15.53125 13.71875 C 15.055667 13.521237 14.470181 13.588183 13.90625 13.625 C 13.89603 13.620345 13.885704 13.629754 13.875 13.625 C 13.81003 13.629832 13.753015 13.616524 13.6875 13.625 A 1.0510153 1.0510153 0 0 0 13.6875 13.59375 C 13.716494 13.603476 13.571812 13.599928 13.53125 13.59375 L 13.53125 13.53125 C 13.531058 13.531245 13.598622 13.549871 13.65625 13.5625 A 1.0510153 1.0510153 0 0 0 13.46875 13.4375 C 14.663594 11.603996 16.610743 8.1378701 17.78125 5.6875 C 18.331947 4.5319867 17.940748 3.4322215 17.625 2.75 C 17.300673 2.0492344 16.898587 1.5606822 16.875 1.53125 C 16.872185 1.5275428 16.846587 1.5351243 16.84375 1.53125 C 16.841741 1.5285057 16.845778 1.5028243 16.84375 1.5 C 16.745461 1.363103 16.619404 1.1439884 16.125 1 C 15.679722 0.87031169 15.391557 1.0190307 15.28125 1.0625 C 15.2758 1.0645165 15.255606 1.0602624 15.25 1.0625 C 15.032919 1.1491383 14.725481 1.4036141 14.5625 1.65625 L 14.53125 1.65625 L 14.5 1.71875 L 11 7.59375 L 7.5 1.71875 L 7.46875 1.65625 L 7.4375 1.65625 C 7.2745227 1.403622 6.9670894 1.1491401 6.75 1.0625 C 6.7465017 1.0611759 6.7228152 1.064102 6.71875 1.0625 C 6.6359941 1.0298876 6.4615542 0.92665214 6.1875 0.9375 z M 6.15625 2 C 6.2285026 1.9789573 6.3009601 2.0032273 6.375 2.03125 C 6.4638421 2.0616858 6.5194049 2.1026609 6.5625 2.1875 L 10.375 8.59375 L 9.5625 9.9375 C 9.5623649 9.9474843 9.5623647 9.9587661 9.5625 9.96875 C 9.1854865 10.646439 8.99035 11.342074 8.8125 12 C 7.6633208 10.086809 6.0999751 7.2256181 5.15625 5.25 C 4.8193468 4.5430856 5.0702424 3.7784602 5.34375 3.1875 C 5.6172577 2.5965397 5.96875 2.15625 5.96875 2.15625 C 6.0170904 2.0925856 6.0839974 2.0210427 6.15625 2 z M 15.84375 2 C 15.916003 2.0210427 15.982909 2.0925856 16.03125 2.15625 C 16.03125 2.15625 16.382743 2.5965397 16.65625 3.1875 C 16.929758 3.7784602 17.180653 4.5430856 16.84375 5.25 C 15.61642 7.8193242 13.326621 11.919217 12.28125 13.4375 C 12.232618 13.511045 12.146523 13.57071 12.0625 13.59375 C 11.086837 13.880143 10.719662 14.378812 10.5 14.9375 C 10.284732 15.485014 10.256412 16.092435 10.28125 16.53125 C 10.276219 16.529657 10.28305 16.555807 10.28125 16.5625 C 10.285341 16.572228 10.307277 16.582841 10.3125 16.625 C 10.312515 16.625232 10.312543 16.749811 10.3125 16.75 C 10.312487 16.750058 10.287626 16.766108 10.28125 16.78125 C 10.282359 16.80148 10.2806 16.823518 10.28125 16.84375 C 10.274867 16.858888 10.250029 16.874956 10.25 16.875 C 10.26101 17.423255 10.177347 17.959596 9.875 18.46875 C 9.5267856 19.055146 9.0483955 19.527542 8.4375 19.78125 C 7.8327071 20.032425 6.9737128 20.12883 6.1875 19.6875 C 5.4049351 19.248217 5.1094891 18.537633 5.03125 17.90625 C 4.9516539 17.263917 5.0816104 16.568072 5.4375 15.96875 C 5.7888048 15.37715 6.2748061 14.936765 6.875 14.6875 C 7.3345596 14.496641 7.9181937 14.435047 8.5 14.59375 C 8.5091664 14.593526 8.5052983 14.564933 8.59375 14.59375 C 8.6030959 14.594943 8.611403 14.590318 8.625 14.59375 C 8.6385967 14.597181 8.6371587 14.587174 8.65625 14.59375 C 8.7230237 14.606949 8.7925703 14.617321 8.84375 14.59375 C 8.9034594 14.56625 8.9791329 14.515912 9.0625 14.40625 C 9.2292342 14.186925 9.4101 13.772834 9.5625 13.3125 C 9.8672996 12.391832 10.081878 11.251584 10.5 10.5 L 15.4375 2.1875 C 15.480595 2.1026609 15.536158 2.0616858 15.625 2.03125 C 15.69904 2.0032273 15.771497 1.9789573 15.84375 2 z M 8.71875 13.5625 L 8.71875 13.59375 C 8.688965 13.583989 8.6268656 13.573213 8.53125 13.59375 C 8.6024704 13.58309 8.6210422 13.567008 8.71875 13.5625 z M 8.875 13.5625 L 8.875 13.59375 C 8.8562867 13.587482 8.8026868 13.600572 8.78125 13.59375 C 8.8275251 13.584604 8.8818926 13.563862 8.875 13.5625 z M 12.90625 14.3125 C 12.921737 14.335536 12.922211 14.386139 12.9375 14.40625 C 13.020868 14.515912 13.096541 14.56625 13.15625 14.59375 C 13.207429 14.617321 13.276976 14.606949 13.34375 14.59375 C 13.362842 14.587174 13.361403 14.597181 13.375 14.59375 C 13.388597 14.590318 13.396904 14.594943 13.40625 14.59375 C 13.494702 14.564933 13.490834 14.593526 13.5 14.59375 C 14.081807 14.435047 14.66544 14.496641 15.125 14.6875 C 15.725194 14.936765 16.211195 15.37715 16.5625 15.96875 C 16.91839 16.568072 17.048346 17.263917 16.96875 17.90625 C 16.890512 18.537633 16.595065 19.248217 15.8125 19.6875 C 15.026287 20.12883 14.167293 20.032425 13.5625 19.78125 C 12.951605 19.527542 12.473214 19.055146 12.125 18.46875 C 11.822653 17.959596 11.73899 17.423255 11.75 16.875 C 11.749971 16.874956 11.725133 16.858888 11.71875 16.84375 C 11.7194 16.823518 11.717641 16.80148 11.71875 16.78125 C 11.712374 16.766108 11.687513 16.750058 11.6875 16.75 L 11.59375 16.78125 L 11.375 16.75 L 11.6875 16.75 C 11.687457 16.749811 11.687485 16.625232 11.6875 16.625 C 11.692723 16.582841 11.714659 16.572228 11.71875 16.5625 C 11.71695 16.555807 11.723781 16.529657 11.71875 16.53125 C 11.740265 16.151141 11.705093 15.639605 11.5625 15.15625 C 11.661886 14.924225 11.773818 14.801469 12.375 14.625 C 12.583724 14.567767 12.750277 14.457015 12.90625 14.3125 z M 8.28125 16.15625 C 8.1769408 16.162243 8.0835487 16.171071 7.96875 16.21875 C 7.7121814 16.325304 7.3791759 16.593343 7.15625 16.96875 C 7.09338 17.074624 7.0419941 17.170671 7 17.28125 C 7.025232 17.276347 7.0418252 17.284035 7.0625 17.28125 C 7.1152005 17.274152 7.1358437 17.267674 7.21875 17.28125 C 7.2259686 17.282432 7.2429342 17.28011 7.25 17.28125 C 7.25 17.28125 7.1276017 17.697959 7.0625 18 C 7.0345878 18.1295 7 18.3125 7 18.3125 C 6.9999261 18.31247 7.1274571 18.153762 7.21875 18 C 7.3766013 17.734135 7.5483815 17.428753 7.5625 17.4375 C 7.5847839 17.451305 7.6130306 17.460364 7.625 17.46875 C 7.6715575 17.505012 7.7191416 17.562877 7.71875 17.5625 C 7.7362934 17.580363 7.7647314 17.6052 7.78125 17.625 C 7.7959898 17.641354 7.8125374 17.656298 7.8125 17.65625 C 7.85224 17.713368 7.8608648 17.760413 7.875 17.8125 C 7.9558453 17.714677 8.024606 17.61644 8.09375 17.5 C 8.319286 17.120196 8.4375902 16.752913 8.40625 16.5 C 8.3887373 16.358673 8.3414962 16.243695 8.3125 16.1875 C 8.303801 16.170642 8.2899197 16.165729 8.28125 16.15625 z M 13.6875 16.15625 C 13.684332 16.156858 13.690528 16.186721 13.6875 16.1875 C 13.658503 16.243695 13.611263 16.358673 13.59375 16.5 C 13.56241 16.752913 13.680714 17.120196 13.90625 17.5 C 13.975394 17.61644 14.044155 17.714677 14.125 17.8125 C 14.139134 17.760414 14.147758 17.71337 14.1875 17.65625 C 14.187463 17.656298 14.204011 17.641352 14.21875 17.625 C 14.23527 17.605199 14.263705 17.580364 14.28125 17.5625 C 14.280858 17.562877 14.328446 17.505007 14.375 17.46875 C 14.38697 17.460364 14.415216 17.451305 14.4375 17.4375 C 14.442743 17.434252 14.454381 17.41369 14.46875 17.40625 C 14.502654 17.386184 14.504517 17.388197 14.53125 17.375 C 14.55658 17.362421 14.593827 17.343719 14.59375 17.34375 C 14.59375 17.34375 14.757593 17.71199 14.875 18 C 14.93034 18.135755 15 18.3125 15 18.3125 C 15 18.3125 14.940926 18.137886 14.90625 18 C 14.830503 17.698797 14.71875 17.3125 14.71875 17.3125 C 14.71875 17.3125 14.816485 17.290045 14.875 17.28125 C 14.901474 17.281904 14.916419 17.278411 14.9375 17.28125 C 14.958176 17.284035 14.974769 17.276347 15 17.28125 C 14.958006 17.170671 14.90662 17.074624 14.84375 16.96875 C 14.620824 16.593343 14.287819 16.325304 14.03125 16.21875 C 13.916452 16.171071 13.823059 16.162243 13.71875 16.15625 C 13.712668 16.159974 13.707855 16.144824 13.6875 16.15625 z M 10.34375 16.8125 L 10.5 16.875 L 10.375 16.875 L 10.34375 16.8125 z M 10.5 17.0625 L 10.75 17.21875 A 1.0510153 1.0510153 0 0 0 10.75 17.25 C 10.774108 17.307031 10.790487 17.271591 10.8125 17.3125 C 10.81455 17.341394 10.80988 17.377146 10.8125 17.40625 C 10.790438 17.422359 10.760431 17.429881 10.75 17.4375 L 10.5 17.0625 z M 10.84375 17.4375 C 10.849714 17.498268 10.866344 17.563497 10.875 17.625 L 10.78125 17.46875 A 1.0510153 1.0510153 0 0 0 10.84375 17.4375 z "
       id="path3942" />
    <path
       style="fill:url(#linearGradient2411);fill-opacity:1;stroke:none;stroke-width:1.00000024000000010;stroke-linecap:round;stroke-linejoin:miter;stroke-miterlimit:4;stroke-dasharray:none;stroke-opacity:1;display:inline"
       d="M 6.15625 2 C 6.0839974 2.0210427 6.0170904 2.0925856 5.96875 2.15625 C 5.96875 2.15625 5.6172577 2.5965397 5.34375 3.1875 C 5.0702424 3.7784602 4.8193468 4.5430856 5.15625 5.25 C 6.0999751 7.2256181 7.6633208 10.086809 8.8125 12 C 8.99035 11.342074 9.1854865 10.646439 9.5625 9.96875 C 9.5623647 9.9587661 9.5623649 9.9474843 9.5625 9.9375 L 10.375 8.59375 L 6.5625 2.1875 C 6.5194049 2.1026609 6.4638421 2.0616858 6.375 2.03125 C 6.3009601 2.0032273 6.2285026 1.9789573 6.15625 2 z M 15.84375 2 C 15.771497 1.9789573 15.69904 2.0032273 15.625 2.03125 C 15.536158 2.0616858 15.480595 2.1026609 15.4375 2.1875 L 10.5 10.5 C 10.081878 11.251584 9.8672996 12.391832 9.5625 13.3125 C 9.4101 13.772834 9.2292342 14.186925 9.0625 14.40625 C 8.9791329 14.515912 8.9034594 14.56625 8.84375 14.59375 C 8.7925703 14.617321 8.7230237 14.606949 8.65625 14.59375 C 8.6371587 14.587174 8.6385967 14.597181 8.625 14.59375 C 8.611403 14.590318 8.6030959 14.594943 8.59375 14.59375 C 8.5052983 14.564933 8.5091664 14.593526 8.5 14.59375 C 7.9181937 14.435047 7.3345596 14.496641 6.875 14.6875 C 6.2748061 14.936765 5.7888048 15.37715 5.4375 15.96875 C 5.0816104 16.568072 4.9516539 17.263917 5.03125 17.90625 C 5.1094891 18.537633 5.4049351 19.248217 6.1875 19.6875 C 6.9737128 20.12883 7.8327071 20.032425 8.4375 19.78125 C 9.0483955 19.527542 9.5267856 19.055146 9.875 18.46875 C 10.177347 17.959596 10.26101 17.423255 10.25 16.875 C 10.250029 16.874956 10.274867 16.858888 10.28125 16.84375 C 10.2806 16.823518 10.282359 16.80148 10.28125 16.78125 C 10.287626 16.766108 10.312487 16.750058 10.3125 16.75 C 10.312543 16.749811 10.312515 16.625232 10.3125 16.625 C 10.307277 16.582841 10.285341 16.572228 10.28125 16.5625 C 10.28305 16.555807 10.276219 16.529657 10.28125 16.53125 C 10.256412 16.092435 10.284732 15.485014 10.5 14.9375 C 10.719662 14.378812 11.086837 13.880143 12.0625 13.59375 C 12.146523 13.57071 12.232618 13.511045 12.28125 13.4375 C 13.326621 11.919217 15.61642 7.8193242 16.84375 5.25 C 17.180653 4.5430856 16.929758 3.7784602 16.65625 3.1875 C 16.382743 2.5965397 16.03125 2.15625 16.03125 2.15625 C 15.982909 2.0925856 15.916003 2.0210427 15.84375 2 z M 12.90625 14.3125 C 12.750277 14.457015 12.583724 14.567767 12.375 14.625 C 11.773818 14.801469 11.661886 14.924225 11.5625 15.15625 C 11.705093 15.639605 11.740265 16.151141 11.71875 16.53125 C 11.723781 16.529657 11.71695 16.555807 11.71875 16.5625 C 11.714659 16.572228 11.692723 16.582841 11.6875 16.625 C 11.687485 16.625232 11.687457 16.749811 11.6875 16.75 C 11.687513 16.750058 11.712374 16.766108 11.71875 16.78125 C 11.717641 16.80148 11.7194 16.823518 11.71875 16.84375 C 11.725133 16.858888 11.749971 16.874956 11.75 16.875 C 11.73899 17.423255 11.822653 17.959596 12.125 18.46875 C 12.473214 19.055146 12.951605 19.527542 13.5625 19.78125 C 14.167293 20.032425 15.026287 20.12883 15.8125 19.6875 C 16.595065 19.248217 16.890512 18.537633 16.96875 17.90625 C 17.048346 17.263917 16.91839 16.568072 16.5625 15.96875 C 16.211195 15.37715 15.725194 14.936765 15.125 14.6875 C 14.66544 14.496641 14.081807 14.435047 13.5 14.59375 C 13.490834 14.593526 13.494702 14.564933 13.40625 14.59375 C 13.396904 14.594943 13.388597 14.590318 13.375 14.59375 C 13.361403 14.597181 13.362842 14.587174 13.34375 14.59375 C 13.276976 14.606949 13.207429 14.617321 13.15625 14.59375 C 13.096541 14.56625 13.020868 14.515912 12.9375 14.40625 C 12.922211 14.386139 12.921737 14.335536 12.90625 14.3125 z M 8.28125 16.15625 C 8.2899197 16.165729 8.303801 16.170642 8.3125 16.1875 C 8.3414962 16.243695 8.3887373 16.358673 8.40625 16.5 C 8.4375902 16.752913 8.319286 17.120196 8.09375 17.5 C 7.8670483 17.881769 7.5528473 18.181431 7.3125 18.28125 C 7.0556357 18.387929 6.9594914 18.289761 7 18.3125 C 7.0645071 18.348708 6.9072702 18.291663 6.875 18.03125 C 6.8439686 17.780832 6.9344904 17.342195 7.15625 16.96875 C 7.3791759 16.593343 7.7121814 16.325304 7.96875 16.21875 C 8.0835487 16.171071 8.1769408 16.162243 8.28125 16.15625 z M 13.6875 16.15625 C 13.707855 16.144824 13.712668 16.159974 13.71875 16.15625 C 13.823059 16.162243 13.916452 16.171071 14.03125 16.21875 C 14.287819 16.325304 14.620824 16.593343 14.84375 16.96875 C 15.06551 17.342195 15.156031 17.780832 15.125 18.03125 C 15.09273 18.291663 14.935493 18.348708 15 18.3125 C 15.040509 18.289761 14.944365 18.387929 14.6875 18.28125 C 14.447153 18.181431 14.132952 17.881769 13.90625 17.5 C 13.680714 17.120196 13.56241 16.752913 13.59375 16.5 C 13.611263 16.358673 13.658503 16.243695 13.6875 16.1875 C 13.690528 16.186721 13.684332 16.156858 13.6875 16.15625 z "
       id="path2398" />
    <path
       style="opacity:0.5;fill:#000000;fill-opacity:1;stroke:none;stroke-width:1.00000024;stroke-linecap:round;stroke-linejoin:miter;stroke-miterlimit:4;stroke-dasharray:none;stroke-opacity:1;display:inline"
       d="M 6.15625,2 C 6.0839974,2.0210427 6.0170904,2.0925856 5.96875,2.15625 C 5.96875,2.15625 5.6172577,2.5965397 5.34375,3.1875 C 5.1020355,3.7097658 4.9100289,4.3661645 5.09375,5 C 5.1593407,4.7153912 5.2316567,4.4296968 5.34375,4.1875 C 5.6172577,3.5965397 5.96875,3.15625 5.96875,3.15625 C 6.0170904,3.0925856 6.0839974,3.0210427 6.15625,3 C 6.2285026,2.9789573 6.3009601,3.0032273 6.375,3.03125 C 6.4638421,3.0616858 6.5194049,3.1026609 6.5625,3.1875 L 10.0625,9.09375 L 10.375,8.59375 L 6.5625,2.1875 C 6.5194049,2.1026609 6.4638421,2.0616858 6.375,2.03125 C 6.3009601,2.0032273 6.2285026,1.9789573 6.15625,2 z M 15.84375,2 C 15.771497,1.9789573 15.69904,2.0032273 15.625,2.03125 C 15.536158,2.0616858 15.480595,2.1026609 15.4375,2.1875 L 10.5,10.5 C 10.081878,11.251584 9.8672996,12.391832 9.5625,13.3125 C 9.4101,13.772834 9.2292342,14.186925 9.0625,14.40625 C 8.9791329,14.515912 8.9034594,14.56625 8.84375,14.59375 C 8.7925703,14.617321 8.7230237,14.606949 8.65625,14.59375 C 8.6371587,14.587174 8.6385967,14.597181 8.625,14.59375 C 8.611403,14.590318 8.6030959,14.594943 8.59375,14.59375 C 8.5052983,14.564933 8.5091664,14.593526 8.5,14.59375 C 7.9181937,14.435047 7.3345596,14.496641 6.875,14.6875 C 6.2748061,14.936765 5.7888048,15.37715 5.4375,15.96875 C 5.0816104,16.568072 4.9516539,17.263917 5.03125,17.90625 C 5.0352623,17.938629 5.0573089,17.967252 5.0625,18 C 5.1265466,17.649948 5.2486048,17.286851 5.4375,16.96875 C 5.7888048,16.37715 6.2748061,15.936765 6.875,15.6875 C 7.3345596,15.496641 7.9181937,15.435047 8.5,15.59375 C 8.5091664,15.593526 8.5052983,15.564933 8.59375,15.59375 C 8.6030959,15.594943 8.611403,15.590318 8.625,15.59375 C 8.6385967,15.597181 8.6371587,15.587174 8.65625,15.59375 C 8.7230237,15.606949 8.7925703,15.617321 8.84375,15.59375 C 8.9034594,15.56625 8.9791329,15.515912 9.0625,15.40625 C 9.2292342,15.186925 9.4101,14.772834 9.5625,14.3125 C 9.8672996,13.391832 10.081878,12.251584 10.5,11.5 L 15.4375,3.1875 C 15.480595,3.1026609 15.536158,3.0616858 15.625,3.03125 C 15.69904,3.0032273 15.771497,2.9789573 15.84375,3 C 15.916003,3.0210427 15.982909,3.0925856 16.03125,3.15625 C 16.03125,3.15625 16.382743,3.5965397 16.65625,4.1875 C 16.768343,4.4296968 16.840659,4.7153912 16.90625,5 C 17.089971,4.3661645 16.897965,3.7097658 16.65625,3.1875 C 16.382743,2.5965397 16.03125,2.15625 16.03125,2.15625 C 15.982909,2.0925856 15.916003,2.0210427 15.84375,2 z M 12.90625,14.3125 C 12.750277,14.457015 12.583724,14.567767 12.375,14.625 C 11.773818,14.801469 11.661886,14.924225 11.5625,15.15625 C 11.643959,15.432375 11.666696,15.703988 11.6875,15.96875 C 11.793224,15.845242 11.961687,15.746323 12.375,15.625 C 12.583724,15.567767 12.750277,15.457015 12.90625,15.3125 C 12.921737,15.335536 12.922211,15.386139 12.9375,15.40625 C 13.020868,15.515912 13.096541,15.56625 13.15625,15.59375 C 13.207429,15.617321 13.276976,15.606949 13.34375,15.59375 C 13.362842,15.587174 13.361403,15.597181 13.375,15.59375 C 13.388597,15.590318 13.396904,15.594943 13.40625,15.59375 C 13.494702,15.564933 13.490834,15.593526 13.5,15.59375 C 14.081807,15.435047 14.66544,15.496641 15.125,15.6875 C 15.725194,15.936765 16.211195,16.377149 16.5625,16.96875 C 16.751395,17.286852 16.873453,17.649948 16.9375,18 C 16.942691,17.967252 16.964738,17.938629 16.96875,17.90625 C 17.048346,17.263917 16.91839,16.568072 16.5625,15.96875 C 16.211195,15.37715 15.725194,14.936765 15.125,14.6875 C 14.66544,14.496641 14.081807,14.435047 13.5,14.59375 C 13.490834,14.593526 13.494702,14.564933 13.40625,14.59375 C 13.396904,14.594943 13.388597,14.590318 13.375,14.59375 C 13.361403,14.597181 13.362842,14.587174 13.34375,14.59375 C 13.276976,14.606949 13.207429,14.617321 13.15625,14.59375 C 13.096541,14.56625 13.020868,14.515912 12.9375,14.40625 C 12.922211,14.386139 12.921737,14.335536 12.90625,14.3125 z M 8.25,17.15625 C 8.2022251,17.267442 8.1629221,17.383514 8.09375,17.5 C 7.8670483,17.881769 7.5528473,18.181431 7.3125,18.28125 C 7.0556357,18.387929 6.9594914,18.289761 7,18.3125 C 6.896981,18.588177 6.853059,18.854189 6.875,19.03125 C 6.9072702,19.291663 7.0645071,19.348707 7,19.3125 C 6.9594914,19.289761 7.0556357,19.387928 7.3125,19.28125 C 7.5528473,19.181431 7.8670483,18.881768 8.09375,18.5 C 8.319286,18.120196 8.4375902,17.752912 8.40625,17.5 C 8.3887373,17.358673 8.3414962,17.243694 8.3125,17.1875 C 8.303801,17.170642 8.2899197,17.165728 8.28125,17.15625 C 8.2712203,17.156826 8.2598566,17.155589 8.25,17.15625 z M 13.6875,17.15625 C 13.684332,17.156858 13.690528,17.18672 13.6875,17.1875 C 13.658503,17.243695 13.611263,17.358672 13.59375,17.5 C 13.56241,17.752913 13.680714,18.120195 13.90625,18.5 C 14.132952,18.881769 14.447153,19.18143 14.6875,19.28125 C 14.944365,19.387929 15.040509,19.28976 15,19.3125 C 14.935493,19.348708 15.09273,19.291662 15.125,19.03125 C 15.146941,18.85419 15.103019,18.588178 15,18.3125 C 15.040509,18.289761 14.944365,18.387929 14.6875,18.28125 C 14.447153,18.181431 14.132952,17.881769 13.90625,17.5 C 13.837078,17.383514 13.797775,17.267442 13.75,17.15625 C 13.740143,17.155589 13.72878,17.156826 13.71875,17.15625 C 13.712668,17.159974 13.707855,17.144823 13.6875,17.15625 z"
       id="BevelShadow"
       sodipodi:nodetypes="ccscscssccccsccsccssssssssssssssssssssccsscscscccsccssssssssssssssssssssccsscsssssssccsssssscssssc" />
    <path
       style="opacity:0.3;fill:#ffffff;fill-opacity:1;stroke:none;stroke-width:1.00000024000000010;stroke-linecap:round;stroke-linejoin:miter;stroke-miterlimit:4;stroke-dasharray:none;stroke-opacity:1;display:inline"
       d="M 5.09375,5 C 4.9992994,5.4098367 4.9574219,5.8328046 5.15625,6.25 C 6.0999751,8.2256181 7.6633208,11.086809 8.8125,13 C 8.99035,12.342074 9.1854865,11.646439 9.5625,10.96875 C 9.5623647,10.958766 9.5623649,10.947484 9.5625,10.9375 L 10.375,9.59375 L 10.0625,9.09375 L 9.5625,9.9375 C 9.5623649,9.9474843 9.5623647,9.9587661 9.5625,9.96875 C 9.1854865,10.646439 8.99035,11.342074 8.8125,12 C 7.6633208,10.086809 6.0999751,7.2256181 5.15625,5.25 C 5.1170877,5.1678268 5.1179151,5.0833694 5.09375,5 z M 16.90625,5 C 16.882085,5.0833694 16.882912,5.1678268 16.84375,5.25 C 15.61642,7.8193242 13.326621,11.919217 12.28125,13.4375 C 12.232618,13.511045 12.146523,13.57071 12.0625,13.59375 C 11.086837,13.880143 10.719662,14.378812 10.5,14.9375 C 10.284732,15.485014 10.256412,16.092435 10.28125,16.53125 C 10.276219,16.529657 10.28305,16.555807 10.28125,16.5625 C 10.285341,16.572228 10.307277,16.582841 10.3125,16.625 C 10.312515,16.625232 10.312543,16.749811 10.3125,16.75 C 10.344417,16.484248 10.39641,16.200971 10.5,15.9375 C 10.719662,15.378812 11.086837,14.880143 12.0625,14.59375 C 12.146523,14.57071 12.232618,14.511045 12.28125,14.4375 C 13.326621,12.919217 15.61642,8.8193242 16.84375,6.25 C 17.042578,5.8328046 17.0007,5.4098367 16.90625,5 z M 11.6875,15.96875 C 11.639444,16.02489 11.593558,16.083742 11.5625,16.15625 C 11.705093,16.639604 11.740265,17.151141 11.71875,17.53125 C 11.723781,17.529656 11.71695,17.555807 11.71875,17.5625 C 11.714659,17.572227 11.692723,17.582841 11.6875,17.625 C 11.687485,17.625231 11.687457,17.749811 11.6875,17.75 C 11.687513,17.750057 11.712374,17.766108 11.71875,17.78125 C 11.717641,17.801479 11.7194,17.823518 11.71875,17.84375 C 11.725133,17.858887 11.749971,17.874956 11.75,17.875 C 11.73899,18.423254 11.822653,18.959596 12.125,19.46875 C 12.473214,20.055145 12.951605,20.527542 13.5625,20.78125 C 14.167293,21.032424 15.026287,21.12883 15.8125,20.6875 C 16.595065,20.248216 16.890512,19.537633 16.96875,18.90625 C 17.006099,18.604847 16.994121,18.309466 16.9375,18 C 16.841465,18.605836 16.554933,19.270744 15.8125,19.6875 C 15.026287,20.12883 14.167293,20.032425 13.5625,19.78125 C 12.951605,19.527542 12.473214,19.055146 12.125,18.46875 C 11.822653,17.959596 11.73899,17.423255 11.75,16.875 C 11.749971,16.874956 11.725133,16.858888 11.71875,16.84375 C 11.7194,16.823518 11.717641,16.80148 11.71875,16.78125 C 11.712374,16.766108 11.687513,16.750058 11.6875,16.75 C 11.687457,16.749811 11.687485,16.625232 11.6875,16.625 C 11.692723,16.582841 11.714659,16.572228 11.71875,16.5625 C 11.71695,16.555807 11.723781,16.529657 11.71875,16.53125 C 11.727974,16.368285 11.703113,16.167453 11.6875,15.96875 z M 8.28125,16.15625 C 8.1769408,16.162243 8.0835487,16.171071 7.96875,16.21875 C 7.7121814,16.325304 7.3791759,16.593343 7.15625,16.96875 C 6.9344904,17.342195 6.8439686,17.780832 6.875,18.03125 C 6.9072702,18.291663 7.0645071,18.348708 7,18.3125 C 7.0426818,18.198284 7.0912875,18.078147 7.15625,17.96875 C 7.3791759,17.593342 7.7121814,17.325304 7.96875,17.21875 C 8.0725104,17.175655 8.157348,17.16246 8.25,17.15625 C 8.3579953,16.904899 8.4279781,16.675344 8.40625,16.5 C 8.3887373,16.358673 8.3414962,16.243695 8.3125,16.1875 C 8.303801,16.170642 8.2899197,16.165729 8.28125,16.15625 z M 13.6875,16.15625 C 13.684332,16.156858 13.690528,16.186721 13.6875,16.1875 C 13.658503,16.243695 13.611263,16.358673 13.59375,16.5 C 13.572022,16.675344 13.642005,16.904899 13.75,17.15625 C 13.842652,17.16246 13.92749,17.175656 14.03125,17.21875 C 14.287819,17.325303 14.620824,17.593343 14.84375,17.96875 C 14.908713,18.078147 14.957318,18.198284 15,18.3125 C 14.935493,18.348708 15.09273,18.291663 15.125,18.03125 C 15.156031,17.780832 15.06551,17.342195 14.84375,16.96875 C 14.620824,16.593343 14.287819,16.325304 14.03125,16.21875 C 13.916452,16.171071 13.823059,16.162243 13.71875,16.15625 C 13.712668,16.159974 13.707855,16.144824 13.6875,16.15625 z M 10.28125,16.78125 C 10.282359,16.80148 10.2806,16.823518 10.28125,16.84375 C 10.274867,16.858888 10.250029,16.874956 10.25,16.875 C 10.26101,17.423255 10.177347,17.959596 9.875,18.46875 C 9.5267856,19.055146 9.0483955,19.527542 8.4375,19.78125 C 7.8327071,20.032425 6.9737128,20.12883 6.1875,19.6875 C 5.4450666,19.270744 5.1585355,18.605836 5.0625,18 C 5.0058791,18.309466 4.9939011,18.604848 5.03125,18.90625 C 5.1094891,19.537632 5.4049351,20.248217 6.1875,20.6875 C 6.9737128,21.128829 7.8327071,21.032425 8.4375,20.78125 C 9.0483955,20.527541 9.5267856,20.055146 9.875,19.46875 C 10.177347,18.959595 10.26101,18.423255 10.25,17.875 C 10.250029,17.874955 10.274867,17.858888 10.28125,17.84375 C 10.2806,17.823517 10.282359,17.80148 10.28125,17.78125 C 10.287626,17.766107 10.312487,17.750058 10.3125,17.75 C 10.312543,17.74981 10.312515,17.625232 10.3125,17.625 C 10.307277,17.58284 10.285341,17.572228 10.28125,17.5625 C 10.28305,17.555806 10.276219,17.529657 10.28125,17.53125 C 10.268831,17.311842 10.281616,17.056396 10.3125,16.78125 C 10.305486,16.787163 10.284438,16.773679 10.28125,16.78125 z"
       id="BevelHighlight"
       sodipodi:nodetypes="cscsccccscsccsssssssssssscccssssssssssscssssssssssccsssssscssccsscsssssssccssssscssssssssssssc" />
  </g>
</svg>
