<?xml version="1.0" encoding="UTF-8" standalone="no"?>
<!-- Created with Inkscape (http://www.inkscape.org/) -->

<svg
   xmlns:dc="http://purl.org/dc/elements/1.1/"
   xmlns:cc="http://creativecommons.org/ns#"
   xmlns:rdf="http://www.w3.org/1999/02/22-rdf-syntax-ns#"
   xmlns:svg="http://www.w3.org/2000/svg"
   xmlns="http://www.w3.org/2000/svg"
   xmlns:xlink="http://www.w3.org/1999/xlink"
   xmlns:sodipodi="http://sodipodi.sourceforge.net/DTD/sodipodi-0.dtd"
   xmlns:inkscape="http://www.inkscape.org/namespaces/inkscape"
   width="22"
   height="22"
   id="svg2"
   sodipodi:version="0.32"
   inkscape:version="0.48.0 r9654"
   version="1.0"
   sodipodi:docname="edit-paste.svg"
   inkscape:output_extension="org.inkscape.output.svg.inkscape"
   inkscape:export-filename="/home/matt/.icons/Sirocco/scalable/mimetypes/text-plain.png"
   inkscape:export-xdpi="90"
   inkscape:export-ydpi="90"
   sodipodi:modified="true"
   style="display:inline">
  <sodipodi:namedview
     id="base"
     pagecolor="#ffffff"
     bordercolor="#666666"
     borderopacity="1.0"
     inkscape:pageopacity="0.0"
     inkscape:pageshadow="2"
     inkscape:zoom="12.122406"
     inkscape:cx="0.78413021"
     inkscape:cy="6.6372008"
     inkscape:document-units="px"
     inkscape:current-layer="layer1"
     width="128px"
     height="128px"
     inkscape:showpageshadow="false"
     inkscape:window-width="1920"
     inkscape:window-height="1026"
     inkscape:window-x="0"
     inkscape:window-y="25"
     showguides="true"
     inkscape:guide-bbox="true"
     showgrid="true"
     inkscape:window-maximized="1">
    <sodipodi:guide
       id="guide2226"
       position="32.637397,117.99844"
       orientation="horizontal" />
    <sodipodi:guide
       id="guide2230"
       position="110,57.402344"
       orientation="vertical" />
    <sodipodi:guide
       id="guide2232"
       position="33.760911"
       orientation="horizontal" />
    <sodipodi:guide
       id="guide2231"
       position="46.774696"
       orientation="horizontal" />
    <inkscape:grid
       enabled="true"
       visible="true"
       id="grid3231"
       type="xygrid" />
    <sodipodi:guide
       orientation="1,0"
       position="100,67.625"
       id="guide2713" />
  </sodipodi:namedview>
  <defs
     id="defs4">
    <inkscape:perspective
       sodipodi:type="inkscape:persp3d"
       inkscape:vp_x="0 : 11 : 1"
       inkscape:vp_y="0 : 1000 : 0"
       inkscape:vp_z="22 : 11 : 1"
       inkscape:persp3d-origin="11 : 7.3333333 : 1"
       id="perspective19" />
    <linearGradient
       id="StandardGradient"
       gradientTransform="scale(0.9219544,1.0846523)"
       x1="11.998966"
       y1="0.92195445"
       x2="11.998966"
       y2="19.387045"
       gradientUnits="userSpaceOnUse">
      <stop
         style="stop-color:#000000;stop-opacity:0.86274511;"
         offset="0"
         id="stop3283" />
      <stop
         style="stop-color:#000000;stop-opacity:0.47058824;"
         offset="1"
         id="stop2651" />
    </linearGradient>
    <linearGradient
       inkscape:collect="always"
       xlink:href="#StandardGradient"
       id="linearGradient2452"
       gradientUnits="userSpaceOnUse"
       gradientTransform="matrix(0.9247229,0,0,1.0872097,-6.00562e-2,5.997642)"
       x1="11.998966"
       y1="0.92195445"
       x2="11.998966"
       y2="17.478098" />
    <linearGradient
       inkscape:collect="always"
       xlink:href="#StandardGradient"
       id="linearGradient3900"
       gradientUnits="userSpaceOnUse"
       gradientTransform="matrix(0.9247229,0,0,1.0872097,-1.0600562,4.997642)"
       x1="11.998966"
       y1="0.92195445"
       x2="11.998966"
       y2="17.478098" />
    <linearGradient
       inkscape:collect="always"
       xlink:href="#StandardGradient"
       id="linearGradient3906"
       gradientUnits="userSpaceOnUse"
       gradientTransform="matrix(0.9247229,0,0,1.0872097,-6.00562e-2,5.997642)"
       x1="11.998966"
       y1="0.92195445"
       x2="11.998966"
       y2="17.478098" />
    <linearGradient
       inkscape:collect="always"
       xlink:href="#StandardGradient"
       id="linearGradient3340"
       gradientUnits="userSpaceOnUse"
       gradientTransform="matrix(0.9247229,0,0,1.0872097,-6.00562e-2,5.997642)"
       x1="11.998966"
       y1="-4.5990243"
       x2="11.998966"
       y2="13.799045" />
    <linearGradient
       inkscape:collect="always"
       xlink:href="#StandardGradient"
       id="linearGradient2402"
       gradientUnits="userSpaceOnUse"
       gradientTransform="matrix(0.9247229,0,0,1.0872097,-6.00562e-2,5.997642)"
       x1="11.998966"
       y1="-4.5990243"
       x2="11.998966"
       y2="13.799045" />
    <linearGradient
       inkscape:collect="always"
       xlink:href="#StandardGradient"
       id="linearGradient2410"
       gradientUnits="userSpaceOnUse"
       gradientTransform="matrix(0.9247229,0,0,1.0872097,-6.00562e-2,5.997642)"
       x1="11.998966"
       y1="-4.5990243"
       x2="11.998966"
       y2="13.799045" />
    <linearGradient
       inkscape:collect="always"
       xlink:href="#StandardGradient"
       id="linearGradient2413"
       gradientUnits="userSpaceOnUse"
       gradientTransform="matrix(0.9247229,0,0,1.0872097,-6.00562e-2,5.997642)"
       x1="11.998966"
       y1="-4.5990243"
       x2="11.998966"
       y2="13.799045" />
    <inkscape:perspective
       id="perspective2850"
       inkscape:persp3d-origin="0.5 : 0.33333333 : 1"
       inkscape:vp_z="1 : 0.5 : 1"
       inkscape:vp_y="0 : 1000 : 0"
       inkscape:vp_x="0 : 0.5 : 1"
       sodipodi:type="inkscape:persp3d" />
    <linearGradient
       inkscape:collect="always"
       xlink:href="#StandardGradient"
       id="linearGradient3634"
       gradientUnits="userSpaceOnUse"
       gradientTransform="matrix(0.9247229,0,0,1.0872097,-30.060056,5.997642)"
       x1="11.998966"
       y1="-4.5990243"
       x2="11.998966"
       y2="13.799045" />
    <clipPath
       clipPathUnits="userSpaceOnUse"
       id="clipPath3641">
      <path
         style="fill:#ff00ff;fill-opacity:1;stroke:none;display:inline"
         d="m -30,0 0,22 22,0 0,-22 -22,0 z m 8,1 6,0 0,1 1,0 0,1 1.5,0 c 0.831,0 1.5,0.669 1.5,1.5 l 0,2.59375 c 0.587017,0.2032563 1,0.748375 1,1.40625 l 0,1.5 0,9 0,0.5 c 0,0.831 -0.669,1.5 -1.5,1.5 l -9,0 c -0.831,0 -1.5,-0.669 -1.5,-1.5 l 0,-0.5 -1.5,0 c -0.831,0 -1.5,-0.669 -1.5,-1.5 l 0,-13 C -26,3.669 -25.331,3 -24.5,3 l 1.5,0 0,-1 1,0 0,-1 z m 1,2.03125 0,2 4.03125,0 -0.03125,-2 -4,0 z M -20.5,9 C -20.776999,9 -21,9.223 -21,9.5 l 0,9 c 0,0.277 0.223001,0.5 0.5,0.5 l 7,0 c 0.277,0 0.5,-0.223 0.5,-0.5 l 0,-9 C -13,9.223 -13.223,9 -13.5,9 l -7,0 z"
         id="path3643" />
    </clipPath>
    <filter
       inkscape:collect="always"
       id="filter3649">
      <feGaussianBlur
         inkscape:collect="always"
         stdDeviation="0.525"
         id="feGaussianBlur3651" />
    </filter>
    <linearGradient
       inkscape:collect="always"
       xlink:href="#StandardGradient"
       id="linearGradient3022"
       gradientUnits="userSpaceOnUse"
       gradientTransform="matrix(0.9247229,0,0,1.0872097,-0.0600562,5.997642)"
       x1="11.998966"
       y1="-4.5990243"
       x2="11.998966"
       y2="13.799045" />
  </defs>
  <metadata
     id="metadata7">
    <rdf:RDF>
      <cc:Work
         rdf:about="">
        <dc:format>image/svg+xml</dc:format>
        <dc:type
           rdf:resource="http://purl.org/dc/dcmitype/StillImage" />
      </cc:Work>
    </rdf:RDF>
  </metadata>
  <g
     style="display:inline"
     inkscape:label="Calque 1"
     id="layer1"
     inkscape:groupmode="layer">
    <path
       style="fill:#ffffff;fill-opacity:1;stroke:none;display:inline;opacity:0.15"
       d="M 7.90625 -0.03125 A 1.0204701 1.0204701 0 0 0 6.96875 0.96875 A 1.0204701 1.0204701 0 0 0 6.96875 1 A 1.0204701 1.0204701 0 0 0 5.96875 1.96875 L 5.5 1.96875 C 4.1213656 1.96875 2.96875 3.1213656 2.96875 4.5 L 2.96875 17.5 C 2.96875 18.878634 4.1213656 20.03125 5.5 20.03125 L 6.1875 20.03125 C 6.4594268 21.128011 7.3262685 22.03125 8.5 22.03125 L 17.5 22.03125 C 18.878634 22.03125 20.03125 20.878634 20.03125 19.5 L 20.03125 19 L 20.03125 10 L 20.03125 8.5 C 20.03125 7.7305986 19.58749 7.1191528 19.03125 6.65625 L 19.03125 4.5 C 19.03125 3.1213656 17.878634 1.96875 16.5 1.96875 L 16.03125 1.96875 A 1.0204701 1.0204701 0 0 0 15.03125 0.96875 A 1.0204701 1.0204701 0 0 0 15 0.96875 A 1.0204701 1.0204701 0 0 0 14 -0.03125 L 8 -0.03125 A 1.0204701 1.0204701 0 0 0 7.90625 -0.03125 z M 8 1 L 14 1 L 14 2 L 15 2 L 15 3 L 16.5 3 C 17.331 3 18 3.669 18 4.5 L 18 7.09375 C 18.587017 7.2970063 19 7.842125 19 8.5 L 19 10 L 19 19 L 19 19.5 C 19 20.331 18.331 21 17.5 21 L 8.5 21 C 7.669 21 7 20.331 7 19.5 L 7 19 L 5.5 19 C 4.669 19 4 18.331 4 17.5 L 4 4.5 C 4 3.669 4.669 3 5.5 3 L 7 3 L 7 2 L 8 2 L 8 1 z M 9 3.03125 L 9 5.03125 L 13.03125 5.03125 L 13 3.03125 L 9 3.03125 z M 9.5 9 C 9.223 9 9 9.223 9 9.5 L 9 18.5 C 9 18.777 9.223 19 9.5 19 L 16.5 19 C 16.777 19 17 18.777 17 18.5 L 17 9.5 C 17 9.223 16.777 9 16.5 9 L 9.5 9 z M 10.03125 10.03125 L 15.96875 10.03125 L 15.96875 17.96875 L 10.03125 17.96875 L 10.03125 10.03125 z "
       id="path3024" />
    <path
       style="fill:url(#linearGradient2413);fill-opacity:1;stroke:none;stroke-width:1.00000024000000010;stroke-linecap:round;stroke-linejoin:miter;stroke-miterlimit:4;stroke-dasharray:none;stroke-opacity:1;display:inline"
       d="M 8,1 L 8,2 L 7,2 L 7,3 L 5.5,3 C 4.669,3 4,3.669 4,4.5 L 4,17.5 C 4,18.331 4.669,19 5.5,19 L 6.9945825,19 L 6.9945825,19.5 C 6.9945825,20.331 7.6635825,21 8.4945825,21 L 17.5,21 C 18.331,21 19,20.331 19,19.5 L 19,19 L 19,10 L 19,8.5 C 19,7.842125 18.587017,7.2970063 18,7.09375 L 18,4.5 C 18,3.669 17.331,3 16.5,3 L 15,3 L 15,2 L 14,2 L 14,1 L 8,1 z M 9,3.03125 L 13,3.03125 L 13.03125,5.03125 L 9,5.03125 L 9,3.03125 z M 9.4945825,9 L 16.5,9 C 16.777,9 17,9.223 17,9.5 L 17,18.5 C 17,18.777 16.777,19 16.5,19 L 9.4945825,19 C 9.2175825,19 8.9945825,18.777 8.9945825,18.5 L 8.9945825,9.5 C 8.9945825,9.223 9.2175825,9 9.4945825,9 z"
       id="Symbol"
       sodipodi:nodetypes="cccccccccccccccccccccccccccccccccccccc" />
    <path
       style="opacity:0.5;fill:#000000;fill-opacity:1;stroke:none;stroke-width:1.00000024;stroke-linecap:round;stroke-linejoin:miter;stroke-miterlimit:4;stroke-dasharray:none;stroke-opacity:1;display:inline"
       d="M 8,1 L 8,2 L 14,2 L 14,1 L 8,1 z M 14,2 L 14,3 L 15,3 L 15,2 L 14,2 z M 15,3 L 15,4 L 16.5,4 C 17.331,4 18,4.669 18,5.5 L 18,4.5 C 18,3.669 17.331,3 16.5,3 L 15,3 z M 8,2 L 7,2 L 7,3 L 8,3 L 8,2 z M 7,3 L 5.5,3 C 4.669,3 4,3.669 4,4.5 L 4,5.5 C 4,4.669 4.669,4 5.5,4 L 7,4 L 7,3 z M 9,5.03125 L 9,6.03125 L 13.03125,6.03125 L 13.03125,5.03125 L 13,5.03125 L 9,5.03125 z M 18,7.09375 L 18,8.09375 C 18.587017,8.2970063 19,8.842125 19,9.5 L 19,8.5 C 19,7.842125 18.587017,7.2970063 18,7.09375 z M 8.9945825,18.5 L 8.9945825,19.5 C 8.9945825,19.777 9.2175825,20 9.4945825,20 L 16.5,20 C 16.777,20 17,19.777 17,19.5 L 17,18.5 C 17,18.777 16.777,19 16.5,19 L 9.4945825,19 C 9.2175825,19 8.9945825,18.777 8.9945825,18.5 z"
       id="BevelShadow"
       sodipodi:nodetypes="ccccccccccccccccccccccccccccccccccccccccccccccccc" />
    <path
       style="opacity:0.3;fill:#ffffff;fill-opacity:1;stroke:none;stroke-width:1.00000024000000010;stroke-linecap:round;stroke-linejoin:miter;stroke-miterlimit:4;stroke-dasharray:none;stroke-opacity:1;display:inline"
       d="M 9,3.03125 L 9,4.03125 L 13,4.03125 L 13,3.03125 L 9,3.03125 z M 13,4.03125 L 13,5.03125 L 13.03125,5.03125 L 13,4.03125 z M 9.5,9 C 9.223,9 9,9.223 9,9.5 L 9,10.5 C 9,10.223 9.223,10 9.5,10 L 16.5,10 C 16.777,10 17,10.223 17,10.5 L 17,9.5 C 17,9.223 16.777,9 16.5,9 L 9.5,9 z M 4,17.5 L 4,18.5 C 4,19.331 4.669,20 5.5,20 L 5.71875,20 L 6,20 L 7,20 L 7,20.5 C 7,21.331 8.669,22 9.5,22 L 17.5,22 C 18.331,22 19,21.331 19,20.5 L 19,20 L 19,19.5 C 19,20.331 18.331,21 17.5,21 L 8.5,21 C 7.669,21 7,20.331 7,19.5 L 7,19 L 6,19 L 5.71875,19 L 5.5,19 C 4.669,19 4,18.331 4,17.5 z"
       id="BevelHighlight"
       sodipodi:nodetypes="cccccccccccccccccccccccccccccccccccccc" />
  </g>
</svg>
