<?xml version="1.0" encoding="UTF-8" standalone="no"?>
<!-- Created with Inkscape (http://www.inkscape.org/) -->

<svg
   xmlns:dc="http://purl.org/dc/elements/1.1/"
   xmlns:cc="http://creativecommons.org/ns#"
   xmlns:rdf="http://www.w3.org/1999/02/22-rdf-syntax-ns#"
   xmlns:svg="http://www.w3.org/2000/svg"
   xmlns="http://www.w3.org/2000/svg"
   xmlns:xlink="http://www.w3.org/1999/xlink"
   xmlns:sodipodi="http://sodipodi.sourceforge.net/DTD/sodipodi-0.dtd"
   xmlns:inkscape="http://www.inkscape.org/namespaces/inkscape"
   width="22"
   height="22"
   id="svg2"
   sodipodi:version="0.32"
   inkscape:version="0.48.0 r9654"
   version="1.0"
   sodipodi:docname="go-jump.svg"
   inkscape:output_extension="org.inkscape.output.svg.inkscape">
  <defs
     id="defs4">
    <inkscape:perspective
       sodipodi:type="inkscape:persp3d"
       inkscape:vp_x="0 : 11 : 1"
       inkscape:vp_y="0 : 1000 : 0"
       inkscape:vp_z="22 : 11 : 1"
       inkscape:persp3d-origin="11 : 7.3333333 : 1"
       id="perspective18" />
    <linearGradient
       id="StandardGradient"
       gradientTransform="scale(1.1310246,0.8841541)"
       x1="11.162445"
       y1="5.6551228"
       x2="11.162445"
       y2="18.097509"
       gradientUnits="userSpaceOnUse">
      <stop
         style="stop-color:#000000;stop-opacity:0.86274511;"
         offset="0"
         id="stop3280" />
      <stop
         style="stop-color:#000000;stop-opacity:0.47058824;"
         offset="1"
         id="stop3282" />
    </linearGradient>
    <inkscape:perspective
       id="perspective2850"
       inkscape:persp3d-origin="0.5 : 0.33333333 : 1"
       inkscape:vp_z="1 : 0.5 : 1"
       inkscape:vp_y="0 : 1000 : 0"
       inkscape:vp_x="0 : 0.5 : 1"
       sodipodi:type="inkscape:persp3d" />
    <linearGradient
       inkscape:collect="always"
       xlink:href="#StandardGradient"
       id="linearGradient3627"
       gradientUnits="userSpaceOnUse"
       gradientTransform="matrix(1.1310246,0,0,0.8841541,-30,0)"
       x1="11.162445"
       y1="5.6551228"
       x2="11.162445"
       y2="18.097509" />
    <linearGradient
       inkscape:collect="always"
       xlink:href="#StandardGradient"
       id="linearGradient3634"
       gradientUnits="userSpaceOnUse"
       gradientTransform="matrix(1.1310246,0,0,0.8841541,-30,20)"
       x1="11.162445"
       y1="5.6551228"
       x2="11.162445"
       y2="18.097509" />
    <clipPath
       clipPathUnits="userSpaceOnUse"
       id="clipPath3637">
      <path
         style="fill:#ff00ff;fill-opacity:1;stroke:none;display:inline"
         d="m -30,0 0,22 22,0 0,-22 -22,0 z m 15.03125,5 3.03125,0 0,5 c 0,1.662 -1.337999,3 -3,3 l -5,0 0,3 L -26,11.5625 -19.9375,7 l 0,2.96875 2.96875,0 c 1.671127,0 2,-0.360122 2,-2.03125 l 0,-2.9375 z"
         id="path3639" />
    </clipPath>
    <linearGradient
       inkscape:collect="always"
       xlink:href="#StandardGradient"
       id="linearGradient2853"
       gradientUnits="userSpaceOnUse"
       gradientTransform="matrix(1.1310246,0,0,-0.8841541,0,9)"
       x1="11.162445"
       y1="5.6551228"
       x2="11.162445"
       y2="18.097509" />
    <linearGradient
       inkscape:collect="always"
       xlink:href="#StandardGradient"
       id="linearGradient2855"
       gradientUnits="userSpaceOnUse"
       gradientTransform="scale(1.1310246,0.8841541)"
       x1="11.162445"
       y1="5.6551228"
       x2="11.162445"
       y2="18.097509" />
    <linearGradient
       inkscape:collect="always"
       xlink:href="#StandardGradient"
       id="linearGradient2858"
       gradientUnits="userSpaceOnUse"
       gradientTransform="matrix(1.1310246,0,0,0.8841541,3,4)"
       x1="11.162445"
       y1="5.6551228"
       x2="11.162445"
       y2="18.097509" />
    <linearGradient
       inkscape:collect="always"
       xlink:href="#StandardGradient"
       id="linearGradient3640"
       gradientUnits="userSpaceOnUse"
       gradientTransform="matrix(1.6965369,0,0,1.3262312,2.5,-1.5)"
       x1="11.162445"
       y1="5.6551228"
       x2="11.162445"
       y2="18.097509" />
    <linearGradient
       inkscape:collect="always"
       xlink:href="#StandardGradient"
       id="linearGradient3642"
       gradientUnits="userSpaceOnUse"
       gradientTransform="matrix(1.1310246,0,0,0.8841541,3,4)"
       x1="11.162445"
       y1="5.6551228"
       x2="11.162445"
       y2="18.097509" />
    <linearGradient
       inkscape:collect="always"
       xlink:href="#StandardGradient"
       id="linearGradient3652"
       gradientUnits="userSpaceOnUse"
       gradientTransform="matrix(1.1310246,0,0,0.8841541,3,5)"
       x1="11.162445"
       y1="5.6551228"
       x2="11.162445"
       y2="18.097509" />
    <linearGradient
       inkscape:collect="always"
       xlink:href="#StandardGradient"
       id="linearGradient3656"
       gradientUnits="userSpaceOnUse"
       gradientTransform="matrix(1.1310246,0,0,0.8841541,3,4)"
       x1="11.162445"
       y1="5.6551228"
       x2="11.162445"
       y2="18.097509" />
    <linearGradient
       inkscape:collect="always"
       xlink:href="#StandardGradient"
       id="linearGradient3661"
       gradientUnits="userSpaceOnUse"
       gradientTransform="matrix(1.1310246,0,0,0.8841541,-27,4)"
       x1="11.162445"
       y1="5.6551228"
       x2="11.162445"
       y2="18.097509" />
    <clipPath
       clipPathUnits="userSpaceOnUse"
       id="clipPath3668">
      <path
         style="fill:#ff00ff;fill-opacity:1;stroke:none;display:inline"
         d="m -30,0 0,22 22,0 0,-22 -22,0 z m 13.0625,3 3,0 c 1.662001,0 3,1.338 3,3 l 0,7 c 0,1.662 -1.337999,3 -3,3 l -3,0 0,3 -6.0625,-4 6.0625,-4 0,2.96875 1.96875,0 c 1.671127,0 2,-0.360122 2,-2.03125 l 0,-4.875 c 0,-1.6711282 -0.328873,-2.03125 -2,-2.03125 l -1.96875,0 0,-2.03125 z M -26,13.5 c 0.828427,0 1.5,0.671573 1.5,1.5 0,0.828428 -0.671573,1.5 -1.5,1.5 -0.828427,0 -1.5,-0.671572 -1.5,-1.5 0,-0.828427 0.671573,-1.5 1.5,-1.5 z"
         id="path3670" />
    </clipPath>
    <filter
       inkscape:collect="always"
       id="filter3672">
      <feGaussianBlur
         inkscape:collect="always"
         stdDeviation="0.4884375"
         id="feGaussianBlur3674" />
    </filter>
    <linearGradient
       inkscape:collect="always"
       xlink:href="#StandardGradient"
       id="linearGradient3989"
       gradientUnits="userSpaceOnUse"
       gradientTransform="matrix(1.1310246,0,0,0.8841541,3,4)"
       x1="11.162445"
       y1="5.6551228"
       x2="11.162445"
       y2="18.097509" />
    <linearGradient
       inkscape:collect="always"
       xlink:href="#StandardGradient"
       id="linearGradient3993"
       gradientUnits="userSpaceOnUse"
       gradientTransform="matrix(1.1310246,0,0,0.8841541,3,4)"
       x1="11.162445"
       y1="5.6551228"
       x2="11.162445"
       y2="18.097509" />
    <linearGradient
       inkscape:collect="always"
       xlink:href="#StandardGradient"
       id="linearGradient4000"
       gradientUnits="userSpaceOnUse"
       gradientTransform="matrix(1.1310246,0,0,0.8841541,3,4)"
       x1="11.162445"
       y1="5.6551228"
       x2="11.162445"
       y2="18.097509" />
  </defs>
  <sodipodi:namedview
     id="base"
     pagecolor="#ffffff"
     bordercolor="#9a9a9a"
     borderopacity="1"
     inkscape:pageopacity="0.0"
     inkscape:pageshadow="2"
     inkscape:zoom="16.540628"
     inkscape:cx="-10.154053"
     inkscape:cy="6.4966956"
     inkscape:document-units="px"
     inkscape:current-layer="layer3"
     showgrid="true"
     inkscape:showpageshadow="false"
     showguides="true"
     inkscape:guide-bbox="true"
     inkscape:window-width="1920"
     inkscape:window-height="1029"
     inkscape:window-x="0"
     inkscape:window-y="25"
     inkscape:window-maximized="1">
    <sodipodi:guide
       orientation="1,0"
       position="0,112"
       id="guide2383" />
    <sodipodi:guide
       orientation="0,1"
       position="26.278146,128"
       id="guide2385" />
    <sodipodi:guide
       orientation="1,0"
       position="128,54.082119"
       id="guide2387" />
    <sodipodi:guide
       orientation="0,1"
       position="78.156291,0"
       id="guide2389" />
    <inkscape:grid
       type="xygrid"
       id="grid3672"
       visible="true"
       enabled="true" />
  </sodipodi:namedview>
  <metadata
     id="metadata7">
    <rdf:RDF>
      <cc:Work
         rdf:about="">
        <dc:format>image/svg+xml</dc:format>
        <dc:type
           rdf:resource="http://purl.org/dc/dcmitype/StillImage" />
      </cc:Work>
    </rdf:RDF>
  </metadata>
  <g
     inkscape:groupmode="layer"
     id="layer3"
     inkscape:label="Cross"
     style="display:inline">
    <path
       style="fill:#ffffff;fill-opacity:1;stroke:none;display:inline;opacity:0.15"
       d="M 12.875 2 A 0.99718534 0.99718534 0 0 0 12.0625 3 L 12.0625 5.03125 A 0.99718534 0.99718534 0 0 0 13.0625 6.03125 L 15.03125 6.03125 C 15.795191 6.03125 15.974712 6.1632103 15.9375 6.125 C 15.900288 6.0867897 16.03125 6.2923437 16.03125 7.0625 L 16.03125 11.9375 C 16.03125 12.707656 15.900288 12.91321 15.9375 12.875 C 15.974712 12.83679 15.795191 12.96875 15.03125 12.96875 L 14.0625 12.96875 L 14.0625 11 A 0.99718534 0.99718534 0 0 0 12.5 10.15625 L 6.4375 14.15625 A 0.99718534 0.99718534 0 0 0 6.21875 14.375 C 5.9089937 13.347554 5.1212386 12.5 4 12.5 C 2.6327077 12.5 1.5 13.632708 1.5 15 C 1.5 16.367293 2.6327085 17.5 4 17.5 C 5.1212379 17.5 5.9089935 16.652446 6.21875 15.625 A 0.99718534 0.99718534 0 0 0 6.4375 15.84375 L 12.5 19.84375 A 0.99718534 0.99718534 0 0 0 14.0625 19 L 14.0625 17 L 16.0625 17 C 18.259639 17 20.0625 15.197138 20.0625 13 L 20.0625 6 C 20.0625 3.8028618 18.259639 2 16.0625 2 L 13.0625 2 A 0.99718534 0.99718534 0 0 0 12.96875 2 A 0.99718534 0.99718534 0 0 0 12.875 2 z M 13.0625 3 L 16.0625 3 C 17.724501 3 19.0625 4.338 19.0625 6 L 19.0625 13 C 19.0625 14.662 17.724501 16 16.0625 16 L 13.0625 16 L 13.0625 19 L 7 15 L 13.0625 11 L 13.0625 13.96875 L 15.03125 13.96875 C 16.702377 13.96875 17.03125 13.608628 17.03125 11.9375 L 17.03125 7.0625 C 17.03125 5.3913718 16.702377 5.03125 15.03125 5.03125 L 13.0625 5.03125 L 13.0625 3 z M 4 13.5 C 4.828427 13.5 5.5 14.171573 5.5 15 C 5.5 15.828428 4.828427 16.5 4 16.5 C 3.1715729 16.5 2.5 15.828428 2.5 15 C 2.5 14.171573 3.1715729 13.5 4 13.5 z "
       id="path3991" />
    <path
       style="fill:url(#linearGradient3642);fill-opacity:1;stroke:none;display:inline"
       d="M 13.0625 3 L 13.0625 5.03125 L 15.03125 5.03125 C 16.702377 5.03125 17.03125 5.3913718 17.03125 7.0625 L 17.03125 11.9375 C 17.03125 13.608628 16.702377 13.96875 15.03125 13.96875 L 13.0625 13.96875 L 13.0625 11 L 7 15 L 13.0625 19 L 13.0625 16 L 16.0625 16 C 17.724501 16 19.0625 14.662 19.0625 13 L 19.0625 6 C 19.0625 4.338 17.724501 3 16.0625 3 L 13.0625 3 z M 4 13.5 C 3.1715729 13.5 2.5 14.171573 2.5 15 C 2.5 15.828428 3.1715729 16.5 4 16.5 C 4.828427 16.5 5.5 15.828428 5.5 15 C 5.5 14.171573 4.828427 13.5 4 13.5 z "
       id="path3638" />
    <path
       style="fill:#000000;fill-opacity:1;stroke:none;display:inline;opacity:0.5"
       d="M 13.0625 3 L 13.0625 4 L 16.0625 4 C 17.724501 4 19.0625 5.338 19.0625 7 L 19.0625 6 C 19.0625 4.338 17.724501 3 16.0625 3 L 13.0625 3 z M 13.0625 11 L 7 15 L 7.75 15.5 L 13.0625 12 L 13.0625 11 z M 17.03125 11.9375 C 17.03125 13.608628 16.702377 13.96875 15.03125 13.96875 L 13.0625 13.96875 L 13.0625 14.96875 L 15.03125 14.96875 C 16.702377 14.96875 17.03125 14.608628 17.03125 12.9375 L 17.03125 11.9375 z M 4 13.5 C 3.1715729 13.5 2.5 14.171573 2.5 15 C 2.5 15.172589 2.540108 15.345681 2.59375 15.5 C 2.7975898 14.913588 3.3441619 14.5 4 14.5 C 4.655838 14.5 5.2024102 14.913588 5.40625 15.5 C 5.4598921 15.345681 5.5 15.172589 5.5 15 C 5.5 14.171573 4.828427 13.5 4 13.5 z "
       id="path3645" />
    <path
       style="fill:#ffffff;fill-opacity:1;stroke:none;display:inline;opacity:0.3"
       d="M 13.0625 5.03125 L 13.0625 6.03125 L 15.03125 6.03125 C 16.702377 6.03125 17.03125 6.3913718 17.03125 8.0625 L 17.03125 7.0625 C 17.03125 5.3913718 16.702377 5.03125 15.03125 5.03125 L 13.0625 5.03125 z M 19.0625 13 C 19.0625 14.662 17.724501 16 16.0625 16 L 13.0625 16 L 13.0625 17 L 16.0625 17 C 17.724501 17 19.0625 15.662 19.0625 14 L 19.0625 13 z M 2.59375 15.5 C 2.540108 15.654319 2.5 15.827411 2.5 16 C 2.5 16.828428 3.1715729 17.5 4 17.5 C 4.828427 17.5 5.5 16.828428 5.5 16 C 5.5 15.827411 5.4598921 15.654319 5.40625 15.5 C 5.2024102 16.086412 4.655838 16.5 4 16.5 C 3.3441619 16.5 2.7975898 16.086412 2.59375 15.5 z M 7.75 15.5 L 7 16 L 13.0625 20 L 13.0625 19 L 7.75 15.5 z "
       id="path3650" />
  </g>
</svg>
