<?xml version="1.0" encoding="UTF-8" standalone="no"?>
<!-- Created with Inkscape (http://www.inkscape.org/) -->

<svg
   xmlns:dc="http://purl.org/dc/elements/1.1/"
   xmlns:cc="http://creativecommons.org/ns#"
   xmlns:rdf="http://www.w3.org/1999/02/22-rdf-syntax-ns#"
   xmlns:svg="http://www.w3.org/2000/svg"
   xmlns="http://www.w3.org/2000/svg"
   xmlns:xlink="http://www.w3.org/1999/xlink"
   xmlns:sodipodi="http://sodipodi.sourceforge.net/DTD/sodipodi-0.dtd"
   xmlns:inkscape="http://www.inkscape.org/namespaces/inkscape"
   width="22"
   height="22"
   id="svg2"
   sodipodi:version="0.32"
   inkscape:version="0.48.0 r9654"
   version="1.0"
   sodipodi:docname="go-last.svg"
   inkscape:output_extension="org.inkscape.output.svg.inkscape">
  <defs
     id="defs4">
    <inkscape:perspective
       sodipodi:type="inkscape:persp3d"
       inkscape:vp_x="0 : 11 : 1"
       inkscape:vp_y="0 : 1000 : 0"
       inkscape:vp_z="22 : 11 : 1"
       inkscape:persp3d-origin="11 : 7.3333333 : 1"
       id="perspective18" />
    <linearGradient
       id="StandardGradient"
       gradientTransform="matrix(-1.0765258,0,0,0.9227364,22.008013,0.1584665)"
       x1="10.005832"
       y1="4.1631975"
       x2="10.005832"
       y2="17.168188"
       gradientUnits="userSpaceOnUse">
      <stop
         id="stop3318"
         offset="0"
         style="stop-color:#000000;stop-opacity:0.86274511;" />
      <stop
         id="stop3320"
         offset="1"
         style="stop-color:#000000;stop-opacity:0.47058824;" />
    </linearGradient>
    <inkscape:perspective
       id="perspective2850"
       inkscape:persp3d-origin="0.5 : 0.33333333 : 1"
       inkscape:vp_z="1 : 0.5 : 1"
       inkscape:vp_y="0 : 1000 : 0"
       inkscape:vp_x="0 : 0.5 : 1"
       sodipodi:type="inkscape:persp3d" />
    <linearGradient
       inkscape:collect="always"
       xlink:href="#StandardGradient"
       id="linearGradient2855"
       gradientUnits="userSpaceOnUse"
       gradientTransform="matrix(-1.0765258,0,0,0.9227364,-7.991987,0.1584665)"
       x1="10.005832"
       y1="4.1631975"
       x2="10.005832"
       y2="17.168188" />
    <clipPath
       clipPathUnits="userSpaceOnUse"
       id="clipPath2862">
      <path
         style="fill:#ff00ff;fill-opacity:1;stroke:none;display:inline"
         d="m -30,0 0,22 22,0 0,-22 -22,0 z m 9.03125,4 8.96875,6 -8.96875,6 0,-2.9375 -5.03125,0 0,-6.03125 5.03125,0 0,-3.03125 z"
         id="path2864" />
    </clipPath>
    <linearGradient
       inkscape:collect="always"
       xlink:href="#StandardGradient"
       id="linearGradient2841"
       gradientUnits="userSpaceOnUse"
       gradientTransform="matrix(-1.0765258,0,0,0.9227364,21.008013,0.1584665)"
       x1="10.005832"
       y1="4.1631975"
       x2="10.005832"
       y2="17.168188" />
    <linearGradient
       inkscape:collect="always"
       xlink:href="#StandardGradient"
       id="linearGradient2856"
       gradientUnits="userSpaceOnUse"
       gradientTransform="matrix(-1.0765258,0,0,0.9227364,-8.991987,0.1584665)"
       x1="10.005832"
       y1="4.1631975"
       x2="10.005832"
       y2="17.168188" />
    <clipPath
       clipPathUnits="userSpaceOnUse"
       id="clipPath2863">
      <path
         style="fill:#ff00ff;fill-opacity:1;stroke:none;display:inline"
         d="m -30,0 0,22 22,0 0,-22 -22,0 z m 8.03125,4 8.96875,6 0,-6 2,0 0,12 -2,0 0,-6 -8.96875,6 0,-2.9375 -5.03125,0 0,-6.03125 5.03125,0 0,-3.03125 z"
         id="path2865" />
    </clipPath>
    <filter
       inkscape:collect="always"
       id="filter3643">
      <feGaussianBlur
         inkscape:collect="always"
         stdDeviation="0.42"
         id="feGaussianBlur3645" />
    </filter>
    <linearGradient
       inkscape:collect="always"
       xlink:href="#StandardGradient"
       id="linearGradient3978"
       gradientUnits="userSpaceOnUse"
       gradientTransform="matrix(-1.0765258,0,0,0.9227364,21.008013,0.1584665)"
       x1="10.005832"
       y1="4.1631975"
       x2="10.005832"
       y2="17.168188" />
    <linearGradient
       inkscape:collect="always"
       xlink:href="#StandardGradient"
       id="linearGradient3982"
       gradientUnits="userSpaceOnUse"
       gradientTransform="matrix(-1.0765258,0,0,0.9227364,21.008013,0.1584665)"
       x1="10.005832"
       y1="4.1631975"
       x2="10.005832"
       y2="17.168188" />
  </defs>
  <sodipodi:namedview
     id="base"
     pagecolor="#ffffff"
     bordercolor="#9a9a9a"
     borderopacity="1"
     inkscape:pageopacity="0.0"
     inkscape:pageshadow="2"
     inkscape:zoom="23.322286"
     inkscape:cx="-2.5316068"
     inkscape:cy="7.221112"
     inkscape:document-units="px"
     inkscape:current-layer="layer1"
     showgrid="true"
     inkscape:showpageshadow="false"
     showguides="true"
     inkscape:guide-bbox="true"
     inkscape:window-width="1920"
     inkscape:window-height="1029"
     inkscape:window-x="0"
     inkscape:window-y="25"
     inkscape:window-maximized="1">
    <sodipodi:guide
       orientation="1,0"
       position="0,112"
       id="guide2383" />
    <sodipodi:guide
       orientation="0,1"
       position="26.278146,128"
       id="guide2385" />
    <sodipodi:guide
       orientation="1,0"
       position="128,54.082119"
       id="guide2387" />
    <sodipodi:guide
       orientation="0,1"
       position="78.156291,0"
       id="guide2389" />
    <inkscape:grid
       type="xygrid"
       id="grid3672"
       visible="true"
       enabled="true" />
  </sodipodi:namedview>
  <metadata
     id="metadata7">
    <rdf:RDF>
      <cc:Work
         rdf:about="">
        <dc:format>image/svg+xml</dc:format>
        <dc:type
           rdf:resource="http://purl.org/dc/dcmitype/StillImage" />
      </cc:Work>
    </rdf:RDF>
  </metadata>
  <g
     inkscape:groupmode="layer"
     id="layer1"
     inkscape:label="Calque 1"
     style="display:inline">
    <path
       style="fill:#ffffff;fill-opacity:1;stroke:none;display:inline;opacity:0.15"
       d="M 7.90625 3 A 1.0038356 1.0038356 0 0 0 7.03125 4 L 7.03125 6.03125 L 3 6.03125 A 1.0038356 1.0038356 0 0 0 2 7.03125 L 2 13.0625 A 1.0038356 1.0038356 0 0 0 3 14.0625 L 7.03125 14.0625 L 7.03125 16 A 1.0038356 1.0038356 0 0 0 8.59375 16.84375 L 16 11.875 L 16 16 A 1.0038356 1.0038356 0 0 0 17 17 L 19 17 A 1.0038356 1.0038356 0 0 0 20 16 L 20 4 A 1.0038356 1.0038356 0 0 0 19 3 L 17 3 A 1.0038356 1.0038356 0 0 0 16 4 L 16 8.125 L 8.59375 3.15625 A 1.0038356 1.0038356 0 0 0 7.90625 3 z M 8.03125 4 L 17 10 L 17 4 L 19 4 L 19 16 L 17 16 L 17 10 L 8.03125 16 L 8.03125 13.0625 L 3 13.0625 L 3 7.03125 L 8.03125 7.03125 L 8.03125 4 z "
       id="path3980" />
    <path
       style="opacity:0.3;fill:#ffffff;fill-opacity:1;stroke:none;display:inline"
       d="M 17 10 L 8.03125 16 L 8.03125 17 L 17 11 L 17 10 z M 3 13.0625 L 3 14.0625 L 8.03125 14.0625 L 8.03125 13.0625 L 3 13.0625 z M 17 16 L 17 17 L 19 17 L 19 16 L 17 16 z "
       id="BevelHighlight" />
    <path
       style="fill:url(#linearGradient2841);fill-opacity:1;stroke:none;display:inline"
       d="M 8.03125 4 L 8.03125 7.03125 L 3 7.03125 L 3 13.0625 L 8.03125 13.0625 L 8.03125 16 L 17 10 L 8.03125 4 z M 17 10 L 17 16 L 19 16 L 19 4 L 17 4 L 17 10 z "
       id="Symbol" />
    <path
       style="opacity:0.5;fill:#000000;fill-opacity:1;stroke:none;display:inline"
       d="M 8.03125 4 L 8.03125 5 L 16.25 10.5 L 17 10 L 8.03125 4 z M 17 4 L 17 5 L 19 5 L 19 4 L 17 4 z M 3 7.03125 L 3 8.03125 L 8.03125 8.03125 L 8.03125 7.03125 L 3 7.03125 z "
       id="BevelShadow" />
  </g>
</svg>
