<?xml version="1.0" encoding="UTF-8" standalone="no"?>
<!-- Created with Inkscape (http://www.inkscape.org/) -->

<svg
   xmlns:dc="http://purl.org/dc/elements/1.1/"
   xmlns:cc="http://creativecommons.org/ns#"
   xmlns:rdf="http://www.w3.org/1999/02/22-rdf-syntax-ns#"
   xmlns:svg="http://www.w3.org/2000/svg"
   xmlns="http://www.w3.org/2000/svg"
   xmlns:xlink="http://www.w3.org/1999/xlink"
   xmlns:sodipodi="http://sodipodi.sourceforge.net/DTD/sodipodi-0.dtd"
   xmlns:inkscape="http://www.inkscape.org/namespaces/inkscape"
   width="22"
   height="22"
   id="svg2"
   sodipodi:version="0.32"
   inkscape:version="0.48.0 r9654"
   version="1.0"
   sodipodi:docname="media-playback-stop.svg"
   inkscape:output_extension="org.inkscape.output.svg.inkscape">
  <defs
     id="defs4">
    <inkscape:perspective
       sodipodi:type="inkscape:persp3d"
       inkscape:vp_x="0 : 11 : 1"
       inkscape:vp_y="0 : 1000 : 0"
       inkscape:vp_z="22 : 11 : 1"
       inkscape:persp3d-origin="11 : 7.3333333 : 1"
       id="perspective18" />
    <linearGradient
       id="StandardGradient"
       gradientTransform="matrix(1.6041892,0,0,1.8958598,-4.6625321,-10.120214)"
       x1="9.2363071"
       y1="7.4479208"
       x2="9.2363071"
       y2="14.311561"
       gradientUnits="userSpaceOnUse">
      <stop
         style="stop-color:#000000;stop-opacity:0.86274511;"
         offset="0"
         id="stop3389" />
      <stop
         style="stop-color:#000000;stop-opacity:0.47058824;"
         offset="1"
         id="stop3391" />
    </linearGradient>
    <linearGradient
       inkscape:collect="always"
       xlink:href="#StandardGradient"
       id="linearGradient2415"
       gradientUnits="userSpaceOnUse"
       gradientTransform="matrix(1.6041892,0,0,1.8958598,15.337468,-10.120214)"
       x1="9.2363071"
       y1="7.4479208"
       x2="9.2363071"
       y2="14.311561" />
    <inkscape:perspective
       id="perspective2850"
       inkscape:persp3d-origin="0.5 : 0.33333333 : 1"
       inkscape:vp_z="1 : 0.5 : 1"
       inkscape:vp_y="0 : 1000 : 0"
       inkscape:vp_x="0 : 0.5 : 1"
       sodipodi:type="inkscape:persp3d" />
    <linearGradient
       inkscape:collect="always"
       xlink:href="#StandardGradient"
       id="linearGradient3627"
       gradientUnits="userSpaceOnUse"
       gradientTransform="matrix(1.6041892,0,0,1.8958598,-14.662532,-10.120214)"
       x1="9.2363071"
       y1="7.4479208"
       x2="9.2363071"
       y2="14.311561" />
    <clipPath
       clipPathUnits="userSpaceOnUse"
       id="clipPath3634">
      <path
         style="fill:#ff00ff;fill-opacity:1;stroke:none;display:inline"
         d="m -30,0 0,22 22,0 0,-22 -22,0 z m 6,5 4,0 0,12 -4,0 0,-12 z m 6,0 4,0 0,12 -4,0 0,-12 z"
         id="path3636" />
    </clipPath>
    <linearGradient
       inkscape:collect="always"
       xlink:href="#StandardGradient"
       id="linearGradient2851"
       gradientUnits="userSpaceOnUse"
       gradientTransform="matrix(1.925027,0,0,1.8958598,16.204962,-10.120214)"
       x1="9.2363071"
       y1="7.4479208"
       x2="9.2363071"
       y2="14.311561" />
    <linearGradient
       inkscape:collect="always"
       xlink:href="#StandardGradient"
       id="linearGradient2855"
       gradientUnits="userSpaceOnUse"
       gradientTransform="matrix(1.925027,0,0,1.8958598,-13.795038,-10.120214)"
       x1="9.2363071"
       y1="7.4479208"
       x2="9.2363071"
       y2="14.311561" />
    <clipPath
       clipPathUnits="userSpaceOnUse"
       id="clipPath2862">
      <path
         style="fill:#ff00ff;fill-opacity:1;stroke:none;display:inline"
         d="m -30,0 0,22 22,0 0,-22 -22,0 z m 5,5 3.59375,0 1.21875,0 2.375,0 1.21875,0 3.59375,0 0,12 -3.59375,0 -1.21875,0 -2.375,0 -1.21875,0 L -25,17 -25,5 z"
         id="path2864" />
    </clipPath>
    <filter
       inkscape:collect="always"
       id="filter3639">
      <feGaussianBlur
         inkscape:collect="always"
         stdDeviation="0.36"
         id="feGaussianBlur3641" />
    </filter>
    <linearGradient
       inkscape:collect="always"
       xlink:href="#StandardGradient"
       id="linearGradient3982"
       gradientUnits="userSpaceOnUse"
       gradientTransform="matrix(1.925027,0,0,1.8958598,16.204962,-10.120214)"
       x1="9.2363071"
       y1="7.4479208"
       x2="9.2363071"
       y2="14.311561" />
    <linearGradient
       inkscape:collect="always"
       xlink:href="#StandardGradient"
       id="linearGradient3986"
       gradientUnits="userSpaceOnUse"
       gradientTransform="matrix(1.925027,0,0,1.8958598,16.204962,-10.120214)"
       x1="9.2363071"
       y1="7.4479208"
       x2="9.2363071"
       y2="14.311561" />
  </defs>
  <sodipodi:namedview
     id="base"
     pagecolor="#ffffff"
     bordercolor="#e7e7e7"
     borderopacity="1"
     inkscape:pageopacity="0.0"
     inkscape:pageshadow="2"
     inkscape:zoom="16.491346"
     inkscape:cx="-7.1944029"
     inkscape:cy="12.73696"
     inkscape:document-units="px"
     inkscape:current-layer="layer1"
     showgrid="true"
     inkscape:showpageshadow="false"
     showguides="false"
     inkscape:guide-bbox="true"
     inkscape:window-width="1920"
     inkscape:window-height="1029"
     inkscape:window-x="0"
     inkscape:window-y="25"
     inkscape:window-maximized="1">
    <sodipodi:guide
       orientation="1,0"
       position="0,112"
       id="guide2383" />
    <sodipodi:guide
       orientation="0,1"
       position="78.156291,0"
       id="guide2389" />
    <inkscape:grid
       type="xygrid"
       id="grid3672"
       visible="true"
       enabled="true"
       empspacing="8"
       snapvisiblegridlinesonly="true" />
    <sodipodi:guide
       orientation="1,0"
       position="22.008699,4.1542523"
       id="guide2950" />
    <sodipodi:guide
       orientation="0,1"
       position="11.22532,22.008699"
       id="guide2952" />
  </sodipodi:namedview>
  <metadata
     id="metadata7">
    <rdf:RDF>
      <cc:Work
         rdf:about="">
        <dc:format>image/svg+xml</dc:format>
        <dc:type
           rdf:resource="http://purl.org/dc/dcmitype/StillImage" />
      </cc:Work>
    </rdf:RDF>
  </metadata>
  <g
     inkscape:label="Calque 1"
     inkscape:groupmode="layer"
     id="layer1">
    <path
       style="fill:#ffffff;fill-opacity:1;fill-rule:nonzero;stroke:none;opacity:0.15"
       d="M 4.8125 3.96875 A 1.0309468 1.0309468 0 0 0 3.96875 5 L 3.96875 17 A 1.0309468 1.0309468 0 0 0 5 18.03125 L 8.59375 18.03125 L 9.8125 18.03125 L 12.1875 18.03125 L 13.40625 18.03125 L 17 18.03125 A 1.0309468 1.0309468 0 0 0 18.03125 17 L 18.03125 5 A 1.0309468 1.0309468 0 0 0 17 3.96875 L 13.40625 3.96875 L 12.1875 3.96875 L 9.8125 3.96875 L 8.59375 3.96875 L 5 3.96875 A 1.0309468 1.0309468 0 0 0 4.90625 3.96875 A 1.0309468 1.0309468 0 0 0 4.8125 3.96875 z M 5 5 L 8.59375 5 L 9.8125 5 L 12.1875 5 L 13.40625 5 L 17 5 L 17 17 L 13.40625 17 L 12.1875 17 L 9.8125 17 L 8.59375 17 L 5 17 L 5 5 z "
       id="path3984" />
    <path
       style="fill:url(#linearGradient2851);fill-opacity:1;fill-rule:nonzero;stroke:none"
       d="m 5,5 0,12 3.6,0 1.2,0 2.4,0 1.2,0 L 17,17 17,5 13.4,5 12.2,5 9.8,5 8.6,5 5,5 z"
       id="Symbol" />
    <path
       style="opacity:0.5;fill:#000000;fill-opacity:1;fill-rule:nonzero;stroke:none"
       d="M 5,5 5,6 6.2,6 9.8,6 12.2,6 15.8,6 17,6 17,5 15.8,5 12.2,5 9.8,5 6.2,5 5,5 z"
       id="BevelShadow" />
    <path
       style="opacity:0.3;fill:#ffffff;fill-opacity:1;fill-rule:nonzero;stroke:none"
       d="m 5,17 0,1 1.2,0 3.6,0 2.4,0 3.6,0 1.2,0 0,-1 -1.2,0 -3.6,0 -2.4,0 -3.6,0 -1.2,0 z"
       id="BevelHighlight" />
  </g>
</svg>
