<?xml version="1.0" encoding="UTF-8" standalone="no"?>
<!-- Created with Inkscape (http://www.inkscape.org/) -->

<svg
   xmlns:dc="http://purl.org/dc/elements/1.1/"
   xmlns:cc="http://creativecommons.org/ns#"
   xmlns:rdf="http://www.w3.org/1999/02/22-rdf-syntax-ns#"
   xmlns:svg="http://www.w3.org/2000/svg"
   xmlns="http://www.w3.org/2000/svg"
   xmlns:xlink="http://www.w3.org/1999/xlink"
   xmlns:sodipodi="http://sodipodi.sourceforge.net/DTD/sodipodi-0.dtd"
   xmlns:inkscape="http://www.inkscape.org/namespaces/inkscape"
   width="22"
   height="22"
   id="svg2"
   sodipodi:version="0.32"
   inkscape:version="0.48.0 r9654"
   version="1.0"
   sodipodi:docname="media-skip-backward.svg"
   inkscape:output_extension="org.inkscape.output.svg.inkscape">
  <defs
     id="defs4">
    <inkscape:perspective
       sodipodi:type="inkscape:persp3d"
       inkscape:vp_x="0 : 11 : 1"
       inkscape:vp_y="0 : 1000 : 0"
       inkscape:vp_z="22 : 11 : 1"
       inkscape:persp3d-origin="11 : 7.3333333 : 1"
       id="perspective18" />
    <linearGradient
       id="StandardGradient"
       gradientTransform="scale(1.3333333,0.75)"
       x1="7.0229712"
       y1="8"
       x2="7.0229712"
       y2="20.052326"
       gradientUnits="userSpaceOnUse">
      <stop
         style="stop-color:#000000;stop-opacity:0.86274511;"
         offset="0"
         id="stop3389" />
      <stop
         style="stop-color:#000000;stop-opacity:0.47058824;"
         offset="1"
         id="stop3391" />
    </linearGradient>
    <inkscape:perspective
       id="perspective2850"
       inkscape:persp3d-origin="0.5 : 0.33333333 : 1"
       inkscape:vp_z="1 : 0.5 : 1"
       inkscape:vp_y="0 : 1000 : 0"
       inkscape:vp_x="0 : 0.5 : 1"
       sodipodi:type="inkscape:persp3d" />
    <linearGradient
       inkscape:collect="always"
       xlink:href="#StandardGradient"
       id="linearGradient3627"
       gradientUnits="userSpaceOnUse"
       gradientTransform="matrix(1.3333333,0,0,0.75,-30,0)"
       x1="7.0229712"
       y1="8"
       x2="7.0229712"
       y2="20.052326" />
    <clipPath
       clipPathUnits="userSpaceOnUse"
       id="clipPath3634">
      <path
         style="fill:#ff00ff;fill-opacity:1;stroke:none;display:inline"
         d="m -30,0 0,22 22,0 0,-22 -22,0 z m 3,6 2,0 0,3.9375 L -18,6 -18,9.9375 -11,6 l 0,9 -7,-3.9375 0,3.9375 -7,-3.9375 0,3.9375 -2,0 0,-9 z"
         id="path3636" />
    </clipPath>
    <filter
       inkscape:collect="always"
       id="filter3638">
      <feGaussianBlur
         inkscape:collect="always"
         stdDeviation="0.375"
         id="feGaussianBlur3640" />
    </filter>
    <linearGradient
       inkscape:collect="always"
       xlink:href="#StandardGradient"
       id="linearGradient4459"
       gradientUnits="userSpaceOnUse"
       gradientTransform="scale(1.3333333,0.75)"
       x1="7.0229712"
       y1="8"
       x2="7.0229712"
       y2="20.052326" />
    <linearGradient
       inkscape:collect="always"
       xlink:href="#StandardGradient"
       id="linearGradient4463"
       gradientUnits="userSpaceOnUse"
       gradientTransform="scale(1.3333333,0.75)"
       x1="7.0229712"
       y1="8"
       x2="7.0229712"
       y2="20.052326" />
  </defs>
  <sodipodi:namedview
     id="base"
     pagecolor="#ffffff"
     bordercolor="#e7e7e7"
     borderopacity="1"
     inkscape:pageopacity="0.0"
     inkscape:pageshadow="2"
     inkscape:zoom="11.69599"
     inkscape:cx="-40.253996"
     inkscape:cy="7.1670396"
     inkscape:document-units="px"
     inkscape:current-layer="layer1"
     showgrid="true"
     inkscape:showpageshadow="false"
     showguides="true"
     inkscape:guide-bbox="true"
     inkscape:window-width="1920"
     inkscape:window-height="1029"
     inkscape:window-x="0"
     inkscape:window-y="25"
     inkscape:window-maximized="1">
    <sodipodi:guide
       orientation="1,0"
       position="0,112"
       id="guide2383" />
    <sodipodi:guide
       orientation="0,1"
       position="78.156291,0"
       id="guide2389" />
    <inkscape:grid
       type="xygrid"
       id="grid3672"
       visible="true"
       enabled="true" />
    <sodipodi:guide
       orientation="1,0"
       position="22.008699,4.1542523"
       id="guide2950" />
    <sodipodi:guide
       orientation="0,1"
       position="11.22532,22.008699"
       id="guide2952" />
  </sodipodi:namedview>
  <metadata
     id="metadata7">
    <rdf:RDF>
      <cc:Work
         rdf:about="">
        <dc:format>image/svg+xml</dc:format>
        <dc:type
           rdf:resource="http://purl.org/dc/dcmitype/StillImage" />
      </cc:Work>
    </rdf:RDF>
  </metadata>
  <g
     inkscape:label="Calque 1"
     inkscape:groupmode="layer"
     id="layer1">
    <path
       style="fill:#ffffff;fill-opacity:1;fill-rule:nonzero;stroke:none;opacity:0.15"
       d="M 2.8125 4.96875 A 1.029652 1.029652 0 0 0 1.96875 6 L 1.96875 15 A 1.029652 1.029652 0 0 0 3 16.03125 L 5 16.03125 A 1.029652 1.029652 0 0 0 6.03125 15 L 6.03125 12.84375 L 11.5 15.90625 A 1.029652 1.029652 0 0 0 13.03125 15 L 13.03125 12.84375 L 18.5 15.90625 A 1.029652 1.029652 0 0 0 20.03125 15 L 20.03125 6 A 1.029652 1.029652 0 0 0 18.5 5.09375 L 13.03125 8.15625 L 13.03125 6 A 1.029652 1.029652 0 0 0 11.5 5.09375 L 6.03125 8.15625 L 6.03125 6 A 1.029652 1.029652 0 0 0 5 4.96875 L 3 4.96875 A 1.029652 1.029652 0 0 0 2.90625 4.96875 A 1.029652 1.029652 0 0 0 2.8125 4.96875 z M 3 6 L 5 6 L 5 9.9375 L 12 6 L 12 9.9375 L 19 6 L 19 15 L 12 11.0625 L 12 15 L 5 11.0625 L 5 15 L 3 15 L 3 6 z "
       id="path4461" />
    <path
       style="opacity:1;fill:url(#StandardGradient);fill-opacity:1;fill-rule:nonzero;stroke:none;stroke-width:1.25000000000000000;stroke-linecap:round;stroke-linejoin:round;stroke-miterlimit:4;stroke-dasharray:none;stroke-dashoffset:0;stroke-opacity:1"
       d="M 3,6 L 3,15 L 5,15 L 5,11.0625 L 12,15 L 12,11.0625 L 19,15 L 19,6 L 12,9.9375 L 12,6 L 5,9.9375 L 5,6 L 3,6 z"
       id="Symbol"
       inkscape:label="#path2392" />
    <path
       style="opacity:0.5;fill:#000000;fill-opacity:1;fill-rule:nonzero;stroke:none;stroke-width:1.25000000000000000;stroke-linecap:round;stroke-linejoin:round;stroke-miterlimit:4;stroke-dasharray:none;stroke-dashoffset:0;stroke-opacity:1"
       d="M 3 6 L 3 7 L 5 7 L 5 6 L 3 6 z M 12 6 L 5 9.9375 L 5 10.9375 L 12 7 L 12 6 z M 19 6 L 12 9.9375 L 12 10.9375 L 19 7 L 19 6 z "
       id="BevelShadow"
       inkscape:label="#path3177" />
    <path
       style="opacity:0.3;fill:#ffffff;fill-opacity:1;fill-rule:nonzero;stroke:none;stroke-width:1.25000000000000000;stroke-linecap:round;stroke-linejoin:round;stroke-miterlimit:4;stroke-dasharray:none;stroke-dashoffset:0;stroke-opacity:1"
       d="M 5 11.0625 L 5 12.0625 L 12 16 L 12 15 L 5 11.0625 z M 12 11.0625 L 12 12.0625 L 19 16 L 19 15 L 12 11.0625 z M 3 15 L 3 16 L 5 16 L 5 15 L 3 15 z "
       id="BevelHighlight"
       inkscape:label="#path3184" />
  </g>
</svg>
