<?xml version="1.0" encoding="UTF-8" standalone="no"?>
<!-- Created with Inkscape (http://www.inkscape.org/) -->

<svg
   xmlns:dc="http://purl.org/dc/elements/1.1/"
   xmlns:cc="http://creativecommons.org/ns#"
   xmlns:rdf="http://www.w3.org/1999/02/22-rdf-syntax-ns#"
   xmlns:svg="http://www.w3.org/2000/svg"
   xmlns="http://www.w3.org/2000/svg"
   xmlns:xlink="http://www.w3.org/1999/xlink"
   xmlns:sodipodi="http://sodipodi.sourceforge.net/DTD/sodipodi-0.dtd"
   xmlns:inkscape="http://www.inkscape.org/namespaces/inkscape"
   width="22"
   height="22"
   id="svg2"
   sodipodi:version="0.32"
   inkscape:version="0.48.0 r9654"
   version="1.0"
   sodipodi:docname="view-fullscreen.svg"
   inkscape:output_extension="org.inkscape.output.svg.inkscape">
  <defs
     id="defs4">
    <marker
       inkscape:stockid="TriangleOutM"
       orient="auto"
       refY="0.0"
       refX="0.0"
       id="TriangleOutM"
       style="overflow:visible">
      <path
         id="path3841"
         d="M 5.77,0.0 L -2.88,5.0 L -2.88,-5.0 L 5.77,0.0 z "
         style="fill-rule:evenodd;stroke:#000000;stroke-width:1.0pt;marker-start:none"
         transform="scale(0.4)" />
    </marker>
    <marker
       inkscape:stockid="Arrow2Mend"
       orient="auto"
       refY="0.0"
       refX="0.0"
       id="Arrow2Mend"
       style="overflow:visible;">
      <path
         id="path3722"
         style="font-size:12.0;fill-rule:evenodd;stroke-width:0.62500000;stroke-linejoin:round;"
         d="M 8.7185878,4.0337352 L -2.2072895,0.016013256 L 8.7185884,-4.0017078 C 6.9730900,-1.6296469 6.9831476,1.6157441 8.7185878,4.0337352 z "
         transform="scale(0.6) rotate(180) translate(0,0)" />
    </marker>
    <marker
       inkscape:stockid="Arrow1Send"
       orient="auto"
       refY="0.0"
       refX="0.0"
       id="Arrow1Send"
       style="overflow:visible;">
      <path
         id="path3710"
         d="M 0.0,0.0 L 5.0,-5.0 L -12.5,0.0 L 5.0,5.0 L 0.0,0.0 z "
         style="fill-rule:evenodd;stroke:#000000;stroke-width:1.0pt;marker-start:none;"
         transform="scale(0.2) rotate(180) translate(6,0)" />
    </marker>
    <inkscape:perspective
       sodipodi:type="inkscape:persp3d"
       inkscape:vp_x="0 : 11 : 1"
       inkscape:vp_y="0 : 1000 : 0"
       inkscape:vp_z="22 : 11 : 1"
       inkscape:persp3d-origin="11 : 7.3333333 : 1"
       id="perspective18" />
    <linearGradient
       id="StandardGradient"
       gradientTransform="matrix(1.0765258,0,0,0.9227364,-20.008013,0.1584665)"
       x1="10.005832"
       y1="4.1631975"
       x2="10.005832"
       y2="17.168188"
       gradientUnits="userSpaceOnUse">
      <stop
         id="stop3337"
         offset="0"
         style="stop-color:#000000;stop-opacity:0.86274511;" />
      <stop
         id="stop3339"
         offset="1"
         style="stop-color:#000000;stop-opacity:0.47058824;" />
    </linearGradient>
    <linearGradient
       inkscape:collect="always"
       xlink:href="#StandardGradient"
       id="linearGradient2409"
       gradientUnits="userSpaceOnUse"
       gradientTransform="matrix(1.0765258,0,0,0.9227364,-21.008013,-0.8102835)"
       x1="24.8104"
       y1="4.163197"
       x2="24.8104"
       y2="21.401461" />
    <linearGradient
       inkscape:collect="always"
       xlink:href="#StandardGradient"
       id="linearGradient2415"
       gradientUnits="userSpaceOnUse"
       gradientTransform="matrix(1.0765258,0,0,0.9227364,-21.008013,-0.8102835)"
       x1="24.8104"
       y1="1.9618642"
       x2="24.8104"
       y2="23.640337" />
    <linearGradient
       inkscape:collect="always"
       xlink:href="#StandardGradient"
       id="linearGradient2424"
       gradientUnits="userSpaceOnUse"
       gradientTransform="matrix(1.0765258,0,0,0.9227364,-21.008013,-0.8102835)"
       x1="24.8104"
       y1="1.9618642"
       x2="24.8104"
       y2="23.640337" />
    <linearGradient
       inkscape:collect="always"
       xlink:href="#StandardGradient"
       id="linearGradient2427"
       gradientUnits="userSpaceOnUse"
       gradientTransform="matrix(1.0765258,0,0,0.9227364,-21.008013,-0.8102835)"
       x1="24.8104"
       y1="1.9618642"
       x2="24.8104"
       y2="23.640337" />
    <inkscape:perspective
       id="perspective2850"
       inkscape:persp3d-origin="0.5 : 0.33333333 : 1"
       inkscape:vp_z="1 : 0.5 : 1"
       inkscape:vp_y="0 : 1000 : 0"
       inkscape:vp_x="0 : 0.5 : 1"
       sodipodi:type="inkscape:persp3d" />
    <linearGradient
       inkscape:collect="always"
       xlink:href="#StandardGradient"
       id="linearGradient3654"
       gradientUnits="userSpaceOnUse"
       gradientTransform="matrix(1.0765258,0,0,0.9227364,-51.008013,-0.8102835)"
       x1="24.8104"
       y1="1.9618642"
       x2="24.8104"
       y2="23.640337" />
    <clipPath
       clipPathUnits="userSpaceOnUse"
       id="clipPath3661">
      <path
         style="fill:#ff00ff;fill-opacity:1;stroke:none;display:inline"
         d="m -30,0 0,22 22,0 0,-22 -22,0 z m 11,1 3,4 -6,0 3,-4 z m -4,5 8,0 c 0.554,0 1,0.446 1,1 l 0,9 -10,0 0,-9 c 0,-0.554 0.446,-1 1,-1 z m 3.5,1 c -0.276,0 -0.5,0.2240002 -0.5,0.5 0,0.276 0.224,0.5000002 0.5,0.5 0.276,0 0.5,-0.2239998 0.5,-0.5 0,-0.276 -0.224,-0.4999998 -0.5,-0.5 z m 2,0 c -0.276,0 -0.5,0.2240002 -0.5,0.5 0,0.276 0.224,0.5000002 0.5,0.5 0.276,0 0.5,-0.2239998 0.5,-0.5 0,-0.276 -0.224,-0.4999998 -0.5,-0.5 z m 2,0 c -0.276,0 -0.5,0.2240002 -0.5,0.5 0,0.276 0.224,0.5000002 0.5,0.5 0.276,0 0.5,-0.2239998 0.5,-0.5 0,-0.276 -0.224,-0.4999998 -0.5,-0.5 z m -9.5,1 0,6 -4,-3 4,-3 z m 12,0 4,3 -4,3 0,-6 z m -9,1 0,5 6,0 0,-5 -6,0 z m 0,8 6,0 -3,4 -3,-4 z"
         id="path3663" />
    </clipPath>
    <filter
       inkscape:collect="always"
       id="filter3665">
      <feGaussianBlur
         inkscape:collect="always"
         stdDeviation="0.6"
         id="feGaussianBlur3667" />
    </filter>
    <linearGradient
       inkscape:collect="always"
       xlink:href="#StandardGradient"
       id="linearGradient4040"
       gradientUnits="userSpaceOnUse"
       gradientTransform="matrix(1.0765258,0,0,0.9227364,-21.008013,-0.8102835)"
       x1="24.8104"
       y1="1.9618642"
       x2="24.8104"
       y2="23.640337" />
    <linearGradient
       inkscape:collect="always"
       xlink:href="#StandardGradient"
       id="linearGradient4044"
       gradientUnits="userSpaceOnUse"
       gradientTransform="matrix(1.0765258,0,0,0.9227364,-21.008013,-0.8102835)"
       x1="24.8104"
       y1="1.9618642"
       x2="24.8104"
       y2="23.640337" />
  </defs>
  <sodipodi:namedview
     id="base"
     pagecolor="#ffffff"
     bordercolor="#9a9a9a"
     borderopacity="1"
     inkscape:pageopacity="0.0"
     inkscape:pageshadow="2"
     inkscape:zoom="16.491346"
     inkscape:cx="-14.430346"
     inkscape:cy="5.4931121"
     inkscape:document-units="px"
     inkscape:current-layer="layer1"
     showgrid="true"
     inkscape:showpageshadow="false"
     showguides="true"
     inkscape:guide-bbox="true"
     inkscape:window-width="1920"
     inkscape:window-height="1029"
     inkscape:window-x="0"
     inkscape:window-y="25"
     inkscape:window-maximized="1">
    <sodipodi:guide
       orientation="1,0"
       position="0,112"
       id="guide2383" />
    <sodipodi:guide
       orientation="0,1"
       position="26.278146,128"
       id="guide2385" />
    <sodipodi:guide
       orientation="1,0"
       position="128,54.082119"
       id="guide2387" />
    <sodipodi:guide
       orientation="0,1"
       position="78.156291,0"
       id="guide2389" />
    <inkscape:grid
       type="xygrid"
       id="grid3672"
       visible="true"
       enabled="true" />
  </sodipodi:namedview>
  <metadata
     id="metadata7">
    <rdf:RDF>
      <cc:Work
         rdf:about="">
        <dc:format>image/svg+xml</dc:format>
        <dc:type
           rdf:resource="http://purl.org/dc/dcmitype/StillImage" />
      </cc:Work>
    </rdf:RDF>
  </metadata>
  <g
     inkscape:label="Calque 1"
     inkscape:groupmode="layer"
     id="layer1"
     style="display:inline">
    <path
       style="fill:#ffffff;fill-opacity:1;stroke:none;display:inline;opacity:0.15"
       d="M 10.84375 0 A 0.98721165 0.98721165 0 0 0 10.21875 0.40625 L 7.21875 4.40625 A 0.98721165 0.98721165 0 0 0 7 5 C 5.9162138 5 5 5.9162138 5 7 A 0.98721165 0.98721165 0 0 0 4.40625 7.21875 L 0.40625 10.21875 A 0.98721165 0.98721165 0 0 0 0.40625 11.78125 L 4.40625 14.78125 A 0.98721165 0.98721165 0 0 0 5 15 L 5 16 A 0.98721165 0.98721165 0 0 0 6 17 L 7 17 A 0.98721165 0.98721165 0 0 0 7.21875 17.59375 L 10.21875 21.59375 A 0.98721165 0.98721165 0 0 0 11.78125 21.59375 L 14.78125 17.59375 A 0.98721165 0.98721165 0 0 0 15 17 L 16 17 A 0.98721165 0.98721165 0 0 0 17 16 L 17 15 A 0.98721165 0.98721165 0 0 0 17.59375 14.78125 L 21.59375 11.78125 A 0.98721165 0.98721165 0 0 0 21.59375 10.21875 L 17.59375 7.21875 A 0.98721165 0.98721165 0 0 0 17 7 C 17 5.9162138 16.083786 5 15 5 A 0.98721165 0.98721165 0 0 0 14.78125 4.40625 L 11.78125 0.40625 A 0.98721165 0.98721165 0 0 0 10.9375 0 A 0.98721165 0.98721165 0 0 0 10.84375 0 z M 11 1 L 14 5 L 8 5 L 11 1 z M 7 6 L 15 6 C 15.554 6 16 6.446 16 7 L 16 16 L 6 16 L 6 7 C 6 6.446 6.446 6 7 6 z M 5 8 L 5 14 L 1 11 L 5 8 z M 17 8 L 21 11 L 17 14 L 17 8 z M 8 9 L 8 14 L 14 14 L 14 9 L 8 9 z M 9 10 L 13 10 L 13 13 L 9 13 L 9 10 z M 8 17 L 14 17 L 11 21 L 8 17 z "
       id="path4042" />
    <path
       style="opacity:1;fill:url(#linearGradient2427);fill-opacity:1;stroke:none;stroke-width:0.99999970000000005;stroke-linecap:round;stroke-linejoin:miter;stroke-miterlimit:4;stroke-dasharray:none;stroke-opacity:1;display:inline"
       d="M 11 1 L 8 5 L 14 5 L 11 1 z M 7 6 C 6.446 6 6 6.446 6 7 L 6 16 L 16 16 L 16 7 C 16 6.446 15.554 6 15 6 L 7 6 z M 10.5 7 C 10.776 7.0000002 11 7.224 11 7.5 C 11 7.7760002 10.776 8 10.5 8 C 10.224 8.0000002 10 7.776 10 7.5 C 10 7.2240002 10.224 7 10.5 7 z M 12.5 7 C 12.776 7.0000002 13 7.224 13 7.5 C 13 7.7760002 12.776 8 12.5 8 C 12.224 8.0000002 12 7.776 12 7.5 C 12 7.2240002 12.224 7 12.5 7 z M 14.5 7 C 14.776 7.0000002 15 7.224 15 7.5 C 15 7.7760002 14.776 8 14.5 8 C 14.224 8.0000002 14 7.776 14 7.5 C 14 7.2240002 14.224 7 14.5 7 z M 5 8 L 1 11 L 5 14 L 5 8 z M 17 8 L 17 14 L 21 11 L 17 8 z M 8 9 L 14 9 L 14 14 L 8 14 L 8 9 z M 8 17 L 11 21 L 14 17 L 8 17 z "
       id="Symbol" />
    <path
       style="opacity:0.5;fill:#000000;fill-opacity:1;stroke:none;stroke-width:0.9999997;stroke-linecap:round;stroke-linejoin:miter;stroke-miterlimit:4;stroke-dasharray:none;stroke-opacity:1;display:inline"
       d="M 11,1 L 8,5 L 8.75,5 L 11,2 L 13.25,5 L 14,5 L 11,1 z M 7,6 C 6.446,6 6,6.446 6,7 L 6,8 C 6,7.446 6.446,7 7,7 L 10.5,7 L 12.5,7 L 14.5,7 L 15,7 C 15.554,7 16,7.446 16,8 L 16,7 C 16,6.446 15.554,6 15,6 L 14,6 L 8,6 L 7,6 z M 5,8 L 1,11 L 1.65625,11.5 L 5,9 L 5,8 z M 10.5,8 C 10.224,8 10,8.2240002 10,8.5 C 10,8.776 10.224,9.0000002 10.5,9 C 10.776,9 11,8.7760002 11,8.5 C 11,8.224 10.776,8.0000002 10.5,8 z M 12.5,8 C 12.224,8 12,8.2240002 12,8.5 C 12,8.776 12.224,9.0000002 12.5,9 C 12.776,9 13,8.7760002 13,8.5 C 13,8.224 12.776,8.0000002 12.5,8 z M 14.5,8 C 14.224,8 14,8.2240002 14,8.5 C 14,8.776 14.224,9.0000002 14.5,9 C 14.776,9 15,8.7760002 15,8.5 C 15,8.224 14.776,8.0000002 14.5,8 z M 17,8 L 17,9 L 20.34375,11.5 L 21,11 L 17,8 z M 8,14 L 8,15 L 14,15 L 14,14 L 8,14 z M 8,17 L 8.75,18 L 13.25,18 L 14,17 L 8,17 z"
       id="BevelShadow"
       sodipodi:nodetypes="cccccccccccccccccccccccccccsssccsssccssscccccccccccccccc" />
    <path
       style="opacity:0.3;fill:#ffffff;fill-opacity:1;stroke:none;stroke-width:0.99999970000000005;stroke-linecap:round;stroke-linejoin:miter;stroke-miterlimit:4;stroke-dasharray:none;stroke-opacity:1;display:inline"
       d="M 8,5 L 8,6 L 14,6 L 14,5 L 8,5 z M 10.5,7 C 10.224,7 10,7.2240002 10,7.5 C 10,7.776 10.224,8.0000002 10.5,8 C 10.776,8 11,7.7760002 11,7.5 C 11,7.224 10.776,7.0000002 10.5,7 z M 12.5,7 C 12.224,7 12,7.2240002 12,7.5 C 12,7.776 12.224,8.0000002 12.5,8 C 12.776,8 13,7.7760002 13,7.5 C 13,7.224 12.776,7.0000002 12.5,7 z M 14.5,7 C 14.224,7 14,7.2240002 14,7.5 C 14,7.776 14.224,8.0000002 14.5,8 C 14.776,8 15,7.7760002 15,7.5 C 15,7.224 14.776,7.0000002 14.5,7 z M 8,9 L 8,10 L 14,10 L 14,9 L 8,9 z M 1,11 L 1,12 L 5,15 L 5,14 L 1,11 z M 21,11 L 17,14 L 17,15 L 21,12 L 21,11 z M 6,16 L 6,17 L 8,17 L 14,17 L 16,17 L 16,16 L 6,16 z M 14,17 L 11,21 L 8,17 L 8,18 L 11,22 L 14,18 L 14,17 z"
       id="BevelHighlight"
       sodipodi:nodetypes="ccccccsssccsssccssscccccccccccccccccccccccccccccc" />
  </g>
</svg>
