<?xml version="1.0" encoding="UTF-8" standalone="no"?>
<!-- Created with Inkscape (http://www.inkscape.org/) -->

<svg
   xmlns:dc="http://purl.org/dc/elements/1.1/"
   xmlns:cc="http://creativecommons.org/ns#"
   xmlns:rdf="http://www.w3.org/1999/02/22-rdf-syntax-ns#"
   xmlns:svg="http://www.w3.org/2000/svg"
   xmlns="http://www.w3.org/2000/svg"
   xmlns:xlink="http://www.w3.org/1999/xlink"
   xmlns:sodipodi="http://sodipodi.sourceforge.net/DTD/sodipodi-0.dtd"
   xmlns:inkscape="http://www.inkscape.org/namespaces/inkscape"
   width="22"
   height="22"
   id="svg2"
   sodipodi:version="0.32"
   inkscape:version="0.48.0 r9654"
   version="1.0"
   sodipodi:docname="evolution-calendar.svg"
   inkscape:output_extension="org.inkscape.output.svg.inkscape"
   style="display:inline">
  <defs
     id="defs4">
    <linearGradient
       id="linearGradient3699">
      <stop
         style="stop-color:#c83737;stop-opacity:1;"
         offset="0"
         id="stop3701" />
      <stop
         style="stop-color:#d42b2b;stop-opacity:1;"
         offset="1"
         id="stop3703" />
    </linearGradient>
    <linearGradient
       id="linearGradient3224">
      <stop
         id="stop3226"
         offset="0"
         style="stop-color:#ffffff;stop-opacity:0;" />
      <stop
         style="stop-color:#c1c1c1;stop-opacity:1;"
         offset="0.78711796"
         id="stop3228" />
      <stop
         id="stop3230"
         offset="1"
         style="stop-color:#ffffff;stop-opacity:1;" />
    </linearGradient>
    <linearGradient
       id="linearGradient3191">
      <stop
         style="stop-color:#ffffff;stop-opacity:0;"
         offset="0"
         id="stop3193" />
      <stop
         id="stop3195"
         offset="0.63073665"
         style="stop-color:#c1c1c1;stop-opacity:1;" />
      <stop
         style="stop-color:#ffffff;stop-opacity:1;"
         offset="1"
         id="stop3197" />
    </linearGradient>
    <linearGradient
       id="linearGradient3255">
      <stop
         id="stop3257"
         offset="0"
         style="stop-color:#ffffff;stop-opacity:0;" />
      <stop
         style="stop-color:#c8c8c8;stop-opacity:1;"
         offset="0.69662797"
         id="stop3259" />
      <stop
         id="stop3261"
         offset="1"
         style="stop-color:#ffffff;stop-opacity:1;" />
    </linearGradient>
    <linearGradient
       inkscape:collect="always"
       xlink:href="#linearGradient3255"
       id="linearGradient3185"
       x1="59.387539"
       y1="44.471016"
       x2="110.98586"
       y2="112.4099"
       gradientUnits="userSpaceOnUse"
       gradientTransform="translate(-75.042403,-68.855124)" />
    <linearGradient
       inkscape:collect="always"
       id="linearGradient3327">
      <stop
         style="stop-color:#000000;stop-opacity:1;"
         offset="0"
         id="stop3330" />
      <stop
         style="stop-color:#000000;stop-opacity:0;"
         offset="1"
         id="stop3333" />
    </linearGradient>
    <linearGradient
       inkscape:collect="always"
       xlink:href="#ButtonColor"
       id="linearGradient3181"
       x1="-3.0607977"
       y1="27.258198"
       x2="-3.0607977"
       y2="7.2536583"
       gradientUnits="userSpaceOnUse"
       gradientTransform="translate(11.119372,-6.2581977)" />
    <filter
       inkscape:collect="always"
       id="filter8716"
       x="-0.26983512"
       width="1.5396702"
       y="-0.54066074"
       height="2.0813215">
      <feGaussianBlur
         inkscape:collect="always"
         stdDeviation="2.0210388"
         id="feGaussianBlur8718" />
    </filter>
    <inkscape:perspective
       sodipodi:type="inkscape:persp3d"
       inkscape:vp_x="0 : 11 : 1"
       inkscape:vp_y="0 : 1000 : 0"
       inkscape:vp_z="22 : 11 : 1"
       inkscape:persp3d-origin="11 : 7.3333333 : 1"
       id="perspective2531" />
    <linearGradient
       id="ButtonShadow"
       gradientTransform="scale(0.9883037,1.0118347)"
       x1="9.3550024"
       y1="21.742682"
       x2="9.3550024"
       y2="0.49362123"
       gradientUnits="userSpaceOnUse">
      <stop
         id="stop3277"
         offset="0"
         style="stop-color:#000000;stop-opacity:0.70588237;" />
      <stop
         id="stop3279"
         offset="1"
         style="stop-color:#000000;stop-opacity:0.15686275;" />
    </linearGradient>
    <linearGradient
       inkscape:collect="always"
       id="linearGradient3232">
      <stop
         style="stop-color:#000000;stop-opacity:1;"
         offset="0"
         id="stop3234" />
      <stop
         style="stop-color:#000000;stop-opacity:0;"
         offset="1"
         id="stop3236" />
    </linearGradient>
    <linearGradient
       gradientUnits="userSpaceOnUse"
       y2="-6.0004225"
       x2="11"
       y1="14.805666"
       x1="11"
       id="linearGradient3221"
       xlink:href="#linearGradient3232"
       inkscape:collect="always" />
    <linearGradient
       id="ButtonColor"
       x1="10.31979"
       y1="21"
       x2="10.31979"
       y2="0.99929649"
       gradientUnits="userSpaceOnUse">
      <stop
         style="stop-color:#dcdcdc;stop-opacity:1;"
         offset="0"
         id="stop3189" />
      <stop
         style="stop-color:#f0f0f0;stop-opacity:1;"
         offset="1"
         id="stop3191" />
    </linearGradient>
    <linearGradient
       inkscape:collect="always"
       xlink:href="#ButtonShadow"
       id="linearGradient38042"
       gradientUnits="userSpaceOnUse"
       gradientTransform="scale(0.9883037,1.0118347)"
       x1="9.3550024"
       y1="21.742682"
       x2="9.3550024"
       y2="0.49362123" />
    <linearGradient
       inkscape:collect="always"
       xlink:href="#linearGradient3224"
       id="linearGradient4114"
       x1="10.212276"
       y1="10.212276"
       x2="19"
       y2="19"
       gradientUnits="userSpaceOnUse"
       gradientTransform="translate(-30,0)" />
    <filter
       inkscape:collect="always"
       id="filter4131">
      <feGaussianBlur
         inkscape:collect="always"
         stdDeviation="0.36030058"
         id="feGaussianBlur4133" />
    </filter>
    <linearGradient
       inkscape:collect="always"
       xlink:href="#linearGradient3191"
       id="linearGradient3203"
       gradientUnits="userSpaceOnUse"
       x1="10.735387"
       y1="10.735387"
       x2="19"
       y2="19" />
    <linearGradient
       inkscape:collect="always"
       xlink:href="#ButtonColor"
       id="linearGradient2871"
       gradientUnits="userSpaceOnUse"
       gradientTransform="translate(-18.880628,-6.2581977)"
       x1="-3.0607977"
       y1="27.258198"
       x2="-3.0607977"
       y2="7.2536583" />
    <clipPath
       clipPathUnits="userSpaceOnUse"
       id="clipPath2873">
      <rect
         ry="2.2681565"
         rx="2.2681565"
         y="-0.3893252"
         x="0.86592203"
         height="22.681564"
         width="22.681564"
         id="rect2875"
         style="fill:url(#linearGradient2877);fill-opacity:1;fill-rule:evenodd;stroke:none;display:inline" />
    </clipPath>
    <linearGradient
       inkscape:collect="always"
       xlink:href="#ButtonColor"
       id="linearGradient2877"
       gradientUnits="userSpaceOnUse"
       gradientTransform="matrix(1.1340782,0,0,1.1340782,12.342081,-8.6206891)"
       x1="-3.0607977"
       y1="27.258198"
       x2="-3.0607977"
       y2="7.2536583" />
    <linearGradient
       inkscape:collect="always"
       xlink:href="#linearGradient3327"
       id="linearGradient3684"
       gradientUnits="userSpaceOnUse"
       x1="11.375"
       y1="22"
       x2="11.375"
       y2="-9.817296" />
    <linearGradient
       inkscape:collect="always"
       xlink:href="#linearGradient3699"
       id="linearGradient3705"
       x1="9.4363956"
       y1="7.9139795"
       x2="9.4363956"
       y2="1.0161854"
       gradientUnits="userSpaceOnUse" />
    <linearGradient
       y2="16"
       x2="10"
       y1="1"
       x1="10"
       gradientUnits="userSpaceOnUse"
       id="linearGradient3078"
       xlink:href="#linearGradient3823"
       inkscape:collect="always"
       gradientTransform="translate(1,-1)" />
    <linearGradient
       id="linearGradient3823">
      <stop
         id="stop3825"
         offset="0"
         style="stop-color:#ffffff;stop-opacity:1;" />
      <stop
         id="stop3829"
         offset="1"
         style="stop-color:#ffffff;stop-opacity:0;" />
    </linearGradient>
    <linearGradient
       inkscape:collect="always"
       xlink:href="#linearGradient3831"
       id="linearGradient3845"
       x1="11"
       y1="19.5"
       x2="21"
       y2="19.5"
       gradientUnits="userSpaceOnUse"
       spreadMethod="reflect" />
    <linearGradient
       id="linearGradient3831">
      <stop
         style="stop-color:#ffffff;stop-opacity:1;"
         offset="0"
         id="stop3833" />
      <stop
         id="stop3821"
         offset="0.75"
         style="stop-color:#ffffff;stop-opacity:0.49803922;" />
      <stop
         style="stop-color:#ffffff;stop-opacity:0;"
         offset="1"
         id="stop3835" />
    </linearGradient>
    <linearGradient
       y2="16"
       x2="10"
       y1="1"
       x1="10"
       gradientUnits="userSpaceOnUse"
       id="linearGradient3859"
       xlink:href="#linearGradient3823"
       inkscape:collect="always"
       gradientTransform="translate(-30,0)" />
    <linearGradient
       inkscape:collect="always"
       xlink:href="#linearGradient3823"
       id="linearGradient3856"
       x1="9.3317194"
       y1="1.1979771"
       x2="9.3317194"
       y2="15.185047"
       gradientUnits="userSpaceOnUse" />
  </defs>
  <sodipodi:namedview
     id="base"
     pagecolor="#ffffff"
     bordercolor="#e7e7e7"
     borderopacity="1"
     inkscape:pageopacity="0.0"
     inkscape:pageshadow="2"
     inkscape:zoom="24.484742"
     inkscape:cx="-0.53264076"
     inkscape:cy="14.447207"
     inkscape:document-units="px"
     inkscape:current-layer="layer1"
     showgrid="true"
     inkscape:showpageshadow="false"
     showguides="true"
     inkscape:guide-bbox="true"
     inkscape:window-width="1920"
     inkscape:window-height="1026"
     inkscape:window-x="0"
     inkscape:window-y="25"
     inkscape:window-maximized="1"
     inkscape:snap-global="false">
    <sodipodi:guide
       orientation="1,0"
       position="0,112"
       id="guide2383" />
    <sodipodi:guide
       orientation="0,1"
       position="26.278146,128"
       id="guide2385" />
    <sodipodi:guide
       orientation="1,0"
       position="128,54.082119"
       id="guide2387" />
    <sodipodi:guide
       orientation="0,1"
       position="78.156291,0"
       id="guide2389" />
    <sodipodi:guide
       orientation="0,1"
       position="60.863576,64.084768"
       id="guide2391" />
    <inkscape:grid
       type="xygrid"
       id="grid3672"
       visible="true"
       enabled="true" />
  </sodipodi:namedview>
  <metadata
     id="metadata7">
    <rdf:RDF>
      <cc:Work
         rdf:about="">
        <dc:format>image/svg+xml</dc:format>
        <dc:type
           rdf:resource="http://purl.org/dc/dcmitype/StillImage" />
      </cc:Work>
    </rdf:RDF>
  </metadata>
  <g
     inkscape:label="Button"
     inkscape:groupmode="layer"
     id="layer1">
    <rect
       style="opacity:0.3;fill:url(#linearGradient3684);fill-opacity:1;stroke:none;display:inline"
       id="rect3371"
       width="21"
       height="21.5"
       x="0.5"
       y="0.5"
       rx="2.5"
       ry="2.5" />
    <path
       style="opacity:0.5;fill:#000000;fill-opacity:1;stroke:none;display:inline"
       d="M 3.375 2 C 2.0559524 2 1 3.024128 1 4.3125 L 1 19.6875 C 1 20.975872 2.0559524 22 3.375 22 L 18.625 22 C 19.944048 22 21 20.975872 21 19.6875 L 21 4.3125 C 21 3.024128 19.944048 2 18.625 2 L 18 2 C 18 2.8284271 17.328427 3.5 16.5 3.5 C 15.671573 3.5 15 2.8284271 15 2 L 7 2 C 7 2.8284271 6.3284272 3.5 5.5 3.5 C 4.6715728 3.5 4 2.8284271 4 2 L 3.375 2 z "
       id="rect2553" />
    <path
       style="opacity:1;fill:url(#linearGradient3181);fill-opacity:1;fill-rule:evenodd;stroke:none;stroke-width:0.25000000000000000;stroke-linecap:round;stroke-linejoin:miter;stroke-miterlimit:4;stroke-dasharray:none;stroke-dashoffset:0;stroke-opacity:1;display:inline"
       d="M 3 1 C 1.892 1 1 1.892 1 3 L 1 19 C 1 20.108 1.892 21 3 21 L 19 21 C 20.108 21 21 20.108 21 19 L 21 3 C 21 1.892 20.108 1 19 1 L 16.5 1 C 17.328427 1 18 1.6715729 18 2.5 C 18 3.3284271 17.328427 4 16.5 4 C 15.671573 4 15 3.3284271 15 2.5 C 15 1.6715729 15.671573 1 16.5 1 L 5.5 1 C 6.3284272 1 7 1.6715729 7 2.5 C 7 3.3284271 6.3284272 4 5.5 4 C 4.6715728 4 4 3.3284271 4 2.5 C 4 1.6715729 4.6715728 1 5.5 1 L 3 1 z "
       id="rect3173" />
    <path
       style="opacity:0.8;fill:#606060;fill-opacity:1;fill-rule:evenodd;stroke:none;display:inline;filter:url(#filter4131)"
       d="m -9,3 c 0,5.4683048 0.06708,11.880898 -1.9375,16.0625 C -14.560486,20.374269 -21.314288,21 -27,21 c 5.685712,0 13.314585,0.249409 17.0625,-0.8125 C -8.874478,16.255759 -9,8.4683048 -9,3 z"
       id="path4120" />
    <path
       style="fill:url(#linearGradient4114);fill-opacity:1;fill-rule:evenodd;stroke:none;display:inline"
       d="m -27,1 16,0 c 1.108,0 2,0.892 2,2 0,5.4683048 0.06704,11.881975 -1.937535,16.063577 C -14.56052,20.375347 -21.314288,21 -27,21 c -1.107213,-0.04174 -2,-0.892 -2,-2 l 0,-16 c 0,-1.108 0.892,-2 2,-2 z"
       id="rect4105"
       sodipodi:nodetypes="cccccccc" />
    <path
       style="fill:url(#linearGradient3705);fill-opacity:1;fill-rule:evenodd;stroke:none;stroke-width:0.25000000000000000;stroke-linecap:round;stroke-linejoin:miter;stroke-miterlimit:4;stroke-dashoffset:0;stroke-opacity:1;display:inline"
       d="M 3 1 C 1.892 1 1 1.892 1 3 L 1 7.9375 L 20.96875 7.9375 C 20.990819 6.5558067 21 4.3164465 21 3 C 21 1.892 20.108 1 19 1 L 16.5 1 C 17.328427 1 18 1.6715729 18 2.5 C 18 3.3284271 17.328427 4 16.5 4 C 15.671573 4 15 3.3284271 15 2.5 C 15 1.6715729 15.671573 1 16.5 1 L 5.5 1 C 6.3284272 1 7 1.6715729 7 2.5 C 7 3.3284271 6.3284272 4 5.5 4 C 4.6715728 4 4 3.3284271 4 2.5 C 4 1.6715729 4.6715728 1 5.5 1 L 3 1 z "
       id="path3199" />
    <rect
       style="opacity:0.2;fill:#ffffff;fill-opacity:1;stroke:none;display:inline;filter:url(#filter8716)"
       id="rect3200"
       width="17.975767"
       height="8.9714174"
       x="2"
       y="1.9800392"
       rx="2"
       ry="2"
       transform="matrix(0.8817734,0,0,0.8817734,0.236453,1.3432966)"
       clip-path="url(#clipPath2873)" />
    <path
       id="path3666"
       style="font-size:11.3234024px;font-style:normal;font-variant:normal;font-weight:bold;font-stretch:normal;text-align:start;line-height:125%;writing-mode:lr-tb;text-anchor:start;opacity:0.7;fill:#000000;fill-opacity:1;stroke:none;font-family:Liberation Sans;-inkscape-font-specification:Abandoned Bitplane Bold"
       d="m 10.783697,13.991471 c -8e-6,0.744576 -0.0856,1.373039 -0.256777,1.885391 -0.171192,0.50867 -0.409462,0.921502 -0.7148124,1.238497 -0.3007362,0.313311 -0.6592985,0.54 -1.0756883,0.680067 C 8.3246455,17.931809 7.8735508,18 7.3831339,18 6.8927091,18 6.4416144,17.931809 6.0298486,17.795426 5.6180776,17.659045 5.2641418,17.434199 4.96804,17.120888 4.6719353,16.803893 4.4406049,16.391061 4.2740476,15.882391 4.1074888,15.370039 4.0242098,14.739733 4.0242103,13.991471 c -5e-7,-0.785114 0.080966,-1.43385 0.2428974,-1.94621 C 4.433665,11.529227 4.6673087,11.118238 4.96804,10.812293 5.2687684,10.506362 5.6273308,10.292574 6.0437284,10.170928 6.4647475,10.045612 6.929722,9.9829502 7.4386533,9.9829423 c 0.476537,7.9e-6 0.9183786,0.06267 1.3255257,0.1879857 0.4117632,0.121646 0.7656989,0.335434 1.0618085,0.641365 0.3007235,0.305945 0.5343665,0.716934 0.7009325,1.232968 0.171177,0.51236 0.256769,1.161096 0.256777,1.94621 m -1.9570587,0 c -5.4e-6,-0.54921 -0.025451,-1.002588 -0.076339,-1.360135 C 8.6994011,12.270113 8.6184354,11.984448 8.5074017,11.77434 8.396358,11.560558 8.2506197,11.411275 8.0701865,11.326491 7.8943706,11.241719 7.6792333,11.19933 7.4247735,11.199323 c -0.272974,7e-6 -0.5019913,0.04424 -0.6870526,0.132697 -0.1850678,0.08478 -0.3354327,0.234067 -0.451095,0.447849 -0.1110413,0.213794 -0.1920072,0.501302 -0.2428975,0.862525 -0.046268,0.357547 -0.069401,0.807239 -0.069399,1.349077 -2.5e-6,0.534474 0.025444,0.98048 0.076339,1.338019 0.05089,0.357545 0.1318559,0.645053 0.2428974,0.862525 0.1110362,0.21379 0.2567741,0.364916 0.4372153,0.453378 0.1804346,0.08847 0.402512,0.132698 0.6662328,0.132697 0.2544598,1e-6 0.4719104,-0.04423 0.6523529,-0.132697 0.1804333,-0.08846 0.3284848,-0.239588 0.4441552,-0.453378 0.1156603,-0.217472 0.1989393,-0.50498 0.2498373,-0.862525 0.055515,-0.357539 0.083274,-0.803545 0.083279,-1.338019" />
    <path
       id="path3668"
       style="font-size:11.3234024px;font-style:normal;font-variant:normal;font-weight:bold;font-stretch:normal;text-align:start;line-height:125%;writing-mode:lr-tb;text-anchor:start;opacity:0.7;fill:#000000;fill-opacity:1;stroke:none;font-family:Liberation Sans;-inkscape-font-specification:Abandoned Bitplane Bold"
       d="m 12.09147,18.066098 0,-1.568246 1.906889,0 0,-4.547333 -1.868804,0.636585 0,-1.22191 1.951739,-1.354482 1.970437,0 0,6.48714 1.903221,0 0,1.568246 -5.863482,0"
       sodipodi:nodetypes="cccccccccccc" />
    <path
       style="font-size:5.70094347px;font-style:normal;font-variant:normal;font-weight:bold;font-stretch:normal;text-align:start;line-height:125%;writing-mode:lr-tb;text-anchor:start;fill:#008080;fill-opacity:1;stroke:none;font-family:Liberation Sans;-inkscape-font-specification:Abandoned Bitplane Bold"
       d="m 26.34375,3.0625 0,0.65625 0.78125,0 0,2.03125 C 27.124998,5.9541363 27.08536,6.10926 27,6.21875 26.91649,6.3282411 26.788307,6.4062506 26.625,6.40625 26.55262,6.406251 26.467489,6.395414 26.40625,6.375 26.345008,6.3527315 26.298249,6.296395 26.25,6.25 26.203604,6.2017505 26.158403,6.167982 26.125,6.09375 26.091595,6.0176642 26.081057,5.9219918 26.0625,5.8125 L 25.25,5.90625 c 0.03712,0.2022804 0.08388,0.3883559 0.15625,0.53125 0.07423,0.1410393 0.168047,0.254673 0.28125,0.34375 0.113202,0.089077 0.25222,0.146673 0.40625,0.1875 0.154028,0.040827 0.334536,0.0625 0.53125,0.0625 0.213413,-1e-7 0.39919,-0.034365 0.5625,-0.09375 0.165162,-0.061241 0.294901,-0.1386533 0.40625,-0.25 0.1132,-0.1132019 0.192468,-0.2466527 0.25,-0.40625 C 27.90128,6.1197984 27.9375,5.9485694 27.9375,5.75 l 0,-2.6875 -1.59375,0 z m 3.90625,0 -1.4375,3.90625 0.84375,0 0.34375,-1 1.46875,0 0.375,1 0.8125,0 -1.4375,-3.90625 -0.96875,0 z m 3.3125,0 0,3.90625 0.71875,0 0,-2.3125 c -1e-4,-0.074229 0.0056,-0.137093 0,-0.21875 C 34.27754,4.3558485 34.2574,4.289272 34.25,4.21875 34.2426,4.137099 34.22805,4.050407 34.21875,3.96875 l 1.71875,3 0.96875,0 0,-3.90625 -0.75,0 0,2.28125 c 0,0.09279 0.02755,0.190319 0.03125,0.28125 0.0056,0.090934 -0.0074,0.177626 0,0.25 0.0074,0.085367 0.02195,0.140808 0.03125,0.21875 L 34.5,3.0625 l -0.9375,0 z M 30.75,3.65625 c 0.0019,0.00372 -0.0093,0.027243 0,0.0625 0.01113,0.035263 0.0164,0.10058 0.03125,0.15625 0.0167,0.053821 0.04208,0.089445 0.0625,0.15625 l 0.0625,0.21875 0.40625,1.125 -1.125,0 0.375,-1.125 C 30.58476,4.1850507 30.60459,4.096205 30.625,4.03125 30.64726,3.9644451 30.67265,3.928821 30.6875,3.875 30.7042,3.8211861 30.70945,3.754013 30.71875,3.71875 30.72805,3.683493 30.7481,3.66182 30.75,3.65625 z"
       id="path3656" />
    <path
       id="path3655"
       d="M 5.5,-9 C 4.6715728,-9 4,-8.3284271 4,-7.5 4,-6.6715729 4.6715728,-6 5.5,-6 6.3284272,-6 7,-6.6715729 7,-7.5 7,-8.3284271 6.3284272,-9 5.5,-9 z m 11,0 C 15.671573,-9 15,-8.3284271 15,-7.5 15,-6.6715729 15.671573,-6 16.5,-6 17.328427,-6 18,-6.6715729 18,-7.5 18,-8.3284271 17.328427,-9 16.5,-9 z"
       style="fill:#ffff00;fill-opacity:1;stroke:none" />
    <path
       style="opacity:0.6;fill:url(#linearGradient3859);fill-opacity:1;fill-rule:evenodd;stroke:none;display:inline"
       d="m -27,1 c -1.108,0 -2,0.892 -2,2 l 0,16 c 0,1.108 0.892,2 2,2 l 16,0 c 1.108,0 2,-0.892 2,-2 L -9,3 C -9,1.892 -9.892,1 -11,1 l -16,0 z m 0,1.03125 16,0 c 0.5497,0 0.96875,0.4190495 0.96875,0.96875 l 0,16 c 0,0.5497 -0.41905,0.96875 -0.96875,0.96875 l -16,0 c -0.5497,0 -0.96875,-0.41905 -0.96875,-0.96875 l 0,-16 c 0,-0.5497005 0.41905,-0.96875 0.96875,-0.96875 z"
       id="rect3050"
       inkscape:connector-curvature="0" />
    <path
       id="path3235"
       d="M 3,21 C 1.892,21 1,20.108 1,19 l 0,-1 c 0,1.108 0.892,2 2,2 l 16,0 c 1.108,0 2,-0.892 2,-2 l 0,1 c 0,1.108 -0.892,2 -2,2 L 3,21 z"
       style="opacity:0.35;fill:url(#linearGradient3845);fill-opacity:1;fill-rule:evenodd;stroke:none;display:inline"
       inkscape:connector-curvature="0" />
    <path
       style="opacity:0.25;fill:url(#linearGradient3856);fill-opacity:1;fill-rule:evenodd;stroke:none;stroke-width:0.25000000000000000;stroke-linecap:round;stroke-linejoin:miter;stroke-miterlimit:4;stroke-dasharray:none;stroke-dashoffset:0;stroke-opacity:1;display:inline"
       d="M 3 1 C 1.892 1 1 1.892 1 3 L 1 19 C 1 20.108 1.892 21 3 21 L 19 21 C 20.108 21 21 20.108 21 19 L 21 3 C 21 1.892 20.108 1 19 1 L 16.5 1 C 17.328427 1 18 1.6715729 18 2.5 C 18 3.3284271 17.328427 4 16.5 4 C 15.671573 4 15 3.3284271 15 2.5 C 15 1.6715729 15.671573 1 16.5 1 L 5.5 1 C 6.3284272 1 7 1.6715729 7 2.5 C 7 3.3284271 6.3284272 4 5.5 4 C 4.6715728 4 4 3.3284271 4 2.5 C 4 1.6715729 4.6715728 1 5.5 1 L 3 1 z M 3 2 L 3.21875 2 C 3.1750906 2.1830558 3 2.3045924 3 2.5 C 3 3.8634452 4.1365547 5 5.5 5 C 6.8634453 5 8 3.8634452 8 2.5 C 8 2.3045924 7.8249094 2.1830558 7.78125 2 L 14.21875 2 C 14.175091 2.1830558 14 2.3045924 14 2.5 C 14 3.8634454 15.136555 5 16.5 5 C 17.863445 5 19 3.8634454 19 2.5 C 19 2.3045924 18.824909 2.1830558 18.78125 2 L 19 2 C 19.576682 2 20 2.4233183 20 3 L 20 19 C 20 19.576682 19.576682 20 19 20 L 3 20 C 2.4233183 20 2 19.576682 2 19 L 2 3 C 2 2.4233183 2.4233183 2 3 2 z "
       id="path3843" />
  </g>
</svg>
