<?xml version="1.0" encoding="UTF-8" standalone="no"?>
<!-- Created with Inkscape (http://www.inkscape.org/) -->

<svg
   xmlns:dc="http://purl.org/dc/elements/1.1/"
   xmlns:cc="http://creativecommons.org/ns#"
   xmlns:rdf="http://www.w3.org/1999/02/22-rdf-syntax-ns#"
   xmlns:svg="http://www.w3.org/2000/svg"
   xmlns="http://www.w3.org/2000/svg"
   xmlns:xlink="http://www.w3.org/1999/xlink"
   xmlns:sodipodi="http://sodipodi.sourceforge.net/DTD/sodipodi-0.dtd"
   xmlns:inkscape="http://www.inkscape.org/namespaces/inkscape"
   width="16"
   height="16"
   id="svg2"
   sodipodi:version="0.32"
   inkscape:version="0.48.0 r9654"
   version="1.0"
   sodipodi:docname="preferences-desktop-locale.svg"
   inkscape:output_extension="org.inkscape.output.svg.inkscape"
   style="display:inline">
  <defs
     id="defs4">
    <inkscape:perspective
       sodipodi:type="inkscape:persp3d"
       inkscape:vp_x="0 : 8 : 1"
       inkscape:vp_y="0 : 1000 : 0"
       inkscape:vp_z="16 : 8 : 1"
       inkscape:persp3d-origin="8 : 5.3333333 : 1"
       id="perspective35" />
    <linearGradient
       inkscape:collect="always"
       id="linearGradient3327">
      <stop
         style="stop-color:#000000;stop-opacity:1;"
         offset="0"
         id="stop3330" />
      <stop
         style="stop-color:#000000;stop-opacity:0;"
         offset="1"
         id="stop3333" />
    </linearGradient>
    <linearGradient
       id="ButtonColor"
       x1="10.31979"
       y1="21"
       x2="10.31979"
       y2="0.99929649"
       gradientUnits="userSpaceOnUse">
      <stop
         style="stop-color:#29669f;stop-opacity:1;"
         offset="0"
         id="stop3189" />
      <stop
         style="stop-color:#88b6e0;stop-opacity:1;"
         offset="1"
         id="stop3191" />
    </linearGradient>
    <linearGradient
       inkscape:collect="always"
       xlink:href="#ButtonColor-1"
       id="linearGradient3204"
       x1="1"
       y1="9"
       x2="15"
       y2="9"
       gradientUnits="userSpaceOnUse"
       gradientTransform="translate(-17,-2)" />
    <linearGradient
       inkscape:collect="always"
       xlink:href="#linearGradient3327"
       id="linearGradient3629"
       x1="0"
       y1="8"
       x2="29.017237"
       y2="8"
       gradientUnits="userSpaceOnUse"
       gradientTransform="matrix(0,-1,1,0,0,16)" />
    <linearGradient
       inkscape:collect="always"
       xlink:href="#SVGID_1_-4"
       id="linearGradient3765"
       gradientUnits="userSpaceOnUse"
       gradientTransform="matrix(0.09341072,0,0,0.04108075,-26.756456,8.0246654)"
       x1="383.28857"
       y1="0"
       x2="383.28857"
       y2="218.48047" />
    <linearGradient
       id="SVGID_1_-4"
       gradientUnits="userSpaceOnUse"
       x1="383.28857"
       y1="0"
       x2="383.28857"
       y2="218.48047">
      <stop
         offset="0.005618"
         style="stop-color:#ED2828"
         id="stop3143-2" />
      <stop
         offset="0.5"
         style="stop-color:#EF3B39"
         id="stop3145-1" />
      <stop
         offset="0.994382"
         style="stop-color:#C02126"
         id="stop3147-3" />
    </linearGradient>
    <linearGradient
       y2="180.6748"
       x2="175.30762"
       y1="73.254395"
       x1="175.30762"
       gradientUnits="userSpaceOnUse"
       id="linearGradient3749-5">
      <stop
         id="stop3751-8"
         style="stop-color:#000000;stop-opacity:1;"
         offset="0" />
      <stop
         id="stop3753-7"
         style="stop-color:#000000;stop-opacity:0.4728682;"
         offset="0.99438202" />
    </linearGradient>
    <linearGradient
       inkscape:collect="always"
       xlink:href="#linearGradient3749-5"
       id="linearGradient3754"
       gradientUnits="userSpaceOnUse"
       gradientTransform="matrix(0.04164302,0,0,0.03408859,1.9444673,0.78644322)"
       x1="175.30762"
       y1="73.254395"
       x2="175.30762"
       y2="180.6748" />
    <linearGradient
       inkscape:collect="always"
       xlink:href="#linearGradient3749-5"
       id="linearGradient3756"
       gradientUnits="userSpaceOnUse"
       gradientTransform="matrix(0.04998763,0,0,0.03408859,2.4795353,0.78644322)"
       x1="175.30762"
       y1="73.254395"
       x2="175.30762"
       y2="180.6748" />
    <linearGradient
       y2="180.6748"
       x2="175.30762"
       y1="73.254395"
       x1="175.30762"
       gradientTransform="matrix(0.04859283,0,0,0.03408859,3.115962,0.78644322)"
       gradientUnits="userSpaceOnUse"
       id="linearGradient3809"
       xlink:href="#linearGradient3749-5"
       inkscape:collect="always" />
    <inkscape:perspective
       id="perspective3729"
       inkscape:persp3d-origin="0.5 : 0.33333333 : 1"
       inkscape:vp_z="1 : 0.5 : 1"
       inkscape:vp_y="0 : 1000 : 0"
       inkscape:vp_x="0 : 0.5 : 1"
       sodipodi:type="inkscape:persp3d" />
    <linearGradient
       inkscape:collect="always"
       xlink:href="#linearGradient3696"
       id="linearGradient4163"
       x1="6"
       y1="48"
       x2="90"
       y2="48"
       gradientUnits="userSpaceOnUse"
       gradientTransform="translate(-96,0)" />
    <linearGradient
       id="linearGradient3696">
      <stop
         id="stop3698"
         offset="0"
         style="stop-color:#2458a6;stop-opacity:1;" />
      <stop
         id="stop3700"
         offset="1"
         style="stop-color:#598ad4;stop-opacity:1;" />
    </linearGradient>
    <linearGradient
       y2="48"
       x2="90"
       y1="48"
       x1="6"
       gradientTransform="translate(-52.867199,-57.252856)"
       gradientUnits="userSpaceOnUse"
       id="linearGradient3738"
       xlink:href="#linearGradient3696"
       inkscape:collect="always" />
    <inkscape:perspective
       id="perspective3703"
       inkscape:persp3d-origin="0.5 : 0.33333333 : 1"
       inkscape:vp_z="1 : 0.5 : 1"
       inkscape:vp_y="0 : 1000 : 0"
       inkscape:vp_x="0 : 0.5 : 1"
       sodipodi:type="inkscape:persp3d" />
    <linearGradient
       gradientTransform="matrix(0.19388162,0,0,0.19388162,-1.4007219,-1.9461429)"
       inkscape:collect="always"
       xlink:href="#linearGradient4099"
       id="linearGradient4113"
       x1="22.111456"
       y1="62.983868"
       x2="40"
       y2="32"
       gradientUnits="userSpaceOnUse" />
    <linearGradient
       id="linearGradient4099">
      <stop
         style="stop-color:#9ede27;stop-opacity:1;"
         offset="0"
         id="stop4101" />
      <stop
         style="stop-color:#c8f16b;stop-opacity:1;"
         offset="1"
         id="stop4103" />
    </linearGradient>
    <linearGradient
       gradientTransform="matrix(0.19388162,0,0,0.19388162,-1.5256152,-1.9461429)"
       inkscape:collect="always"
       xlink:href="#linearGradient4099"
       id="linearGradient4105"
       x1="38"
       y1="74"
       x2="70"
       y2="49"
       gradientUnits="userSpaceOnUse" />
    <linearGradient
       id="linearGradient3712">
      <stop
         style="stop-color:#9ede27;stop-opacity:1;"
         offset="0"
         id="stop3714" />
      <stop
         style="stop-color:#c8f16b;stop-opacity:1;"
         offset="1"
         id="stop3716" />
    </linearGradient>
    <linearGradient
       inkscape:collect="always"
       xlink:href="#linearGradient3799-3"
       id="linearGradient3746"
       gradientUnits="userSpaceOnUse"
       x1="56.037025"
       y1="49.333305"
       x2="56.037025"
       y2="13.593002"
       gradientTransform="matrix(0.26518093,0,0,0.26518093,-0.34872536,-3.7081516)" />
    <linearGradient
       id="linearGradient3799-3">
      <stop
         style="stop-color:#1a1a1a;stop-opacity:1;"
         offset="0"
         id="stop3801-3" />
      <stop
         style="stop-color:#000000;stop-opacity:1;"
         offset="1"
         id="stop3803-2" />
    </linearGradient>
    <linearGradient
       y2="13.593002"
       x2="56.037025"
       y1="49.333305"
       x1="56.037025"
       gradientTransform="matrix(0.19388162,0,0,0.19388162,-1.3401963,-1.8843368)"
       gradientUnits="userSpaceOnUse"
       id="linearGradient3726"
       xlink:href="#linearGradient3799-3"
       inkscape:collect="always" />
    <inkscape:perspective
       id="perspective3736"
       inkscape:persp3d-origin="0.5 : 0.33333333 : 1"
       inkscape:vp_z="1 : 0.5 : 1"
       inkscape:vp_y="0 : 1000 : 0"
       inkscape:vp_x="0 : 0.5 : 1"
       sodipodi:type="inkscape:persp3d" />
    <radialGradient
       inkscape:collect="always"
       xlink:href="#linearGradient3784-2"
       id="radialGradient3758"
       gradientUnits="userSpaceOnUse"
       gradientTransform="matrix(1.0456205,0.08243661,-0.05194947,0.90987799,0.84943041,1.3399685)"
       cx="49.580967"
       cy="67.04126"
       fx="49.580967"
       fy="67.04126"
       r="10" />
    <linearGradient
       id="linearGradient3784-2">
      <stop
         id="stop3786-4"
         offset="0"
         style="stop-color:#a0a0a0;stop-opacity:1;" />
      <stop
         id="stop3790-2"
         offset="1"
         style="stop-color:#1a1a1a;stop-opacity:1;" />
    </linearGradient>
    <radialGradient
       r="10"
       fy="67.04126"
       fx="49.580967"
       cy="67.04126"
       cx="49.580967"
       gradientTransform="matrix(1.0456205,0.08243661,-0.05194947,0.90987799,0.84943041,1.3399685)"
       gradientUnits="userSpaceOnUse"
       id="radialGradient3745"
       xlink:href="#linearGradient3784-2"
       inkscape:collect="always" />
    <radialGradient
       inkscape:collect="always"
       xlink:href="#linearGradient3784-2"
       id="radialGradient3698"
       cx="10.116978"
       cy="6.5340972"
       fx="10.116978"
       fy="6.5340972"
       r="2.6487656"
       gradientTransform="matrix(0.60548597,-0.18291744,0.13322228,0.44098703,0.81853832,7.6996387)"
       gradientUnits="userSpaceOnUse" />
    <linearGradient
       inkscape:collect="always"
       xlink:href="#linearGradient6746"
       id="linearGradient4354"
       gradientUnits="userSpaceOnUse"
       gradientTransform="matrix(0,0.1724138,-0.1724138,0,22.034483,-0.034483)"
       x1="42.774391"
       y1="116.78658"
       x2="68.841461"
       y2="9.1256237" />
    <linearGradient
       id="linearGradient6746">
      <stop
         id="stop6748"
         offset="0"
         style="stop-color:#1d3462;stop-opacity:1;" />
      <stop
         style="stop-color:#5e83cd;stop-opacity:0.50588238;"
         offset="0.28121248"
         id="stop6750" />
      <stop
         id="stop6752"
         offset="0.45118788"
         style="stop-color:#28509d;stop-opacity:1;" />
      <stop
         id="stop6754"
         offset="0.58596319"
         style="stop-color:#1f4286;stop-opacity:1" />
      <stop
         style="stop-color:#2b55a8;stop-opacity:1;"
         offset="0.76171201"
         id="stop6756" />
      <stop
         style="stop-color:#9cb5e7;stop-opacity:0.9765625;"
         offset="1"
         id="stop6758" />
    </linearGradient>
    <linearGradient
       y2="30.226376"
       x2="64.104561"
       y1="116.78658"
       x1="42.774391"
       gradientTransform="matrix(0,0.1724138,-0.1724138,0,21.034483,-5.034483)"
       gradientUnits="userSpaceOnUse"
       id="linearGradient4125"
       xlink:href="#linearGradient6746"
       inkscape:collect="always" />
    <linearGradient
       inkscape:collect="always"
       xlink:href="#ButtonColor-1"
       id="linearGradient3181"
       x1="-3.0607977"
       y1="27.258198"
       x2="-3.0607977"
       y2="7.2536583"
       gradientUnits="userSpaceOnUse"
       gradientTransform="translate(11.119372,-6.2581977)" />
    <linearGradient
       id="ButtonColor-1"
       x1="10.31979"
       y1="21"
       x2="10.31979"
       y2="0.99929649"
       gradientUnits="userSpaceOnUse">
      <stop
         style="stop-color:#2a6cce;stop-opacity:1"
         offset="0"
         id="stop3189-0" />
      <stop
         style="stop-color:#5b92e5;stop-opacity:1"
         offset="1"
         id="stop3191-9" />
    </linearGradient>
    <linearGradient
       y2="7.2536583"
       x2="-3.0607977"
       y1="27.258198"
       x1="-3.0607977"
       gradientTransform="translate(-4.2611502,-12.469365)"
       gradientUnits="userSpaceOnUse"
       id="linearGradient4142"
       xlink:href="#ButtonColor-1"
       inkscape:collect="always" />
  </defs>
  <sodipodi:namedview
     id="base"
     pagecolor="#ffffff"
     bordercolor="#e7e7e7"
     borderopacity="1"
     inkscape:pageopacity="0.0"
     inkscape:pageshadow="2"
     inkscape:zoom="27.681929"
     inkscape:cx="-10.859823"
     inkscape:cy="6.5043864"
     inkscape:document-units="px"
     inkscape:current-layer="layer1"
     showgrid="true"
     inkscape:showpageshadow="false"
     showguides="false"
     inkscape:guide-bbox="true"
     inkscape:window-width="1920"
     inkscape:window-height="1029"
     inkscape:window-x="0"
     inkscape:window-y="25"
     inkscape:window-maximized="1"
     inkscape:snap-global="false">
    <sodipodi:guide
       orientation="1,0"
       position="0,112"
       id="guide2383" />
    <sodipodi:guide
       orientation="0,1"
       position="26.278146,128"
       id="guide2385" />
    <sodipodi:guide
       orientation="1,0"
       position="128,54.082119"
       id="guide2387" />
    <sodipodi:guide
       orientation="0,1"
       position="78.156291,0"
       id="guide2389" />
    <sodipodi:guide
       orientation="0,1"
       position="60.863576,64.084768"
       id="guide2391" />
    <inkscape:grid
       type="xygrid"
       id="grid3672"
       visible="true"
       enabled="true" />
  </sodipodi:namedview>
  <metadata
     id="metadata7">
    <rdf:RDF>
      <cc:Work
         rdf:about="">
        <dc:format>image/svg+xml</dc:format>
        <dc:type
           rdf:resource="http://purl.org/dc/dcmitype/StillImage" />
        <dc:title />
      </cc:Work>
    </rdf:RDF>
  </metadata>
  <g
     inkscape:label="Button"
     inkscape:groupmode="layer"
     id="layer1">
    <rect
       ry="2"
       rx="2"
       y="0"
       x="-16"
       height="16"
       width="16"
       id="rect3196"
       style="fill:url(#linearGradient3204);fill-opacity:1.0;fill-rule:nonzero;stroke:none"
       transform="matrix(0,-1,1,0,0,0)" />
    <path
       style="opacity:0.4;fill:url(#linearGradient4125);fill-opacity:1;stroke:none;display:inline"
       d="M 2,0 C 0.892,0 0,0.892 0,2 l 0,12 c 0,1.108 0.892,2 2,2 l 12,0 c 1.108,0 2,-0.892 2,-2 L 16,2 C 16,0.892 15.108,0 14,0 z"
       id="path3534"
       inkscape:connector-curvature="0"
       sodipodi:nodetypes="sssssssss" />
    <path
       style="opacity:0.4;fill:url(#linearGradient3629);fill-opacity:1;fill-rule:nonzero;stroke:none"
       d="m 0,14 c 0,1.108 0.892,2 2,2 l 12,0 c 1.108,0 2,-0.892 2,-2 L 16,2 C 16,0.892 15.108,0 14,0 L 2,0 C 0.892,0 0,0.892 0,2 l 0,12 z m 0.96875,0 0,-12 C 0.96875,1.416801 1.4168007,0.96875 2,0.96875 l 12,0 c 0.583199,0 1.03125,0.448051 1.03125,1.03125 l 0,12 c 0,0.583199 -0.448051,1.03125 -1.03125,1.03125 l -12,0 C 1.4168007,15.03125 0.96875,14.583199 0.96875,14 z"
       id="rect2835" />
    <path
       style="fill:#ffffff;fill-opacity:1;fill-rule:nonzero;stroke:none;opacity:0.2"
       d="M 2 0.96875 C 1.4168007 0.96875 0.96875 1.4168007 0.96875 2 L 0.96875 3 C 0.96875 2.4168007 1.4168007 1.96875 2 1.96875 L 14 1.96875 C 14.583199 1.96875 15.03125 2.4168007 15.03125 3 L 15.03125 2 C 15.03125 1.4168007 14.583199 0.96875 14 0.96875 L 2 0.96875 z "
       id="path2843" />
    <path
       id="path2906"
       style="fill:#ffffff;display:inline"
       d="m 13.166337,9.946431 c -0.29488,0.193001 -0.593774,0.371991 -0.877134,0.591422 v -0.02695 C 12.723221,9.78958 12.511055,8.798666 12.778468,8.0048345 l 0.09973,-0.2659248 c -0.0558,0.4945236 0.158994,0.9134238 0.143912,1.4096423 -0.01509,0.299757 -0.112915,0.565544 -0.270319,0.804901 h 0.02667 C 12.991111,9.674175 13.157162,9.377149 13.405687,9.11112 13.791446,8.7391302 14.183639,8.3576952 14.234285,7.8414811 14.365292,8.7032556 13.881736,9.458549 13.16633,9.94643 l 0,0 z m -1.356678,2.100884 c -0.746679,0.281942 -1.497856,-0.06413 -2.2132971,-0.179751 l -0.1377544,-0.0175 v -0.0044 c 0.3421019,-0.07763 0.6741715,-0.179474 0.9464615,-0.4253 0.401049,-0.385499 0.757922,-0.782294 1.203287,-1.086065 -0.330269,0.423467 -0.365279,1.026218 -0.910863,1.298474 -0.135021,0.08835 -0.305432,0.103989 -0.444777,0.170894 0.198709,0.0043 0.380639,-0.06691 0.577411,-0.08683 0.731597,-0.114853 1.568532,0.003 2.081771,-0.620256 -0.190545,0.434277 -0.667736,0.797931 -1.102239,0.950698 l 0,0 z m -0.712673,0.687178 C 10.431948,12.982671 9.7378869,12.723146 9.2184552,12.329257 9.0081587,12.195586 8.822768,12.003103 8.5507549,12.020124 c -0.098663,-0.0019 -0.1937962,0.003 -0.2776524,0.02719 0.5046242,0.234825 0.973374,0.558557 1.4019604,0.972579 -0.072231,0.08247 -0.1657741,0.159617 -0.2538857,0.230743 -0.4130185,-0.445019 -0.8704223,-0.873363 -1.3825537,-1.123548 -0.1002885,0.013 -0.1956996,0.07334 -0.2861283,0.12191 -0.4169277,0.263607 -0.8291867,0.602698 -1.1391501,1.017828 l -0.26634,-0.21995 C 6.7720977,12.616875 7.2423006,12.282142 7.7566809,12.043028 7.2512265,11.882926 6.921302,12.306358 6.5376187,12.521742 6.0905244,12.833919 5.4475234,12.980529 4.9071976,12.765146 4.6166068,12.654929 4.3350801,12.492613 4.1246788,12.228799 c 0.4252307,0.292943 1.0585453,0.323661 1.5421367,0.133394 0.6489166,-0.281458 1.323225,-0.638262 2.1055015,-0.467643 0.1220827,0.0021 0.2407061,0.123708 0.3560436,0.02021 0.5814233,-0.150967 1.2396797,-0.04719 1.7402568,0.218566 l 0.5159366,0.206804 c 0.479544,0.177329 1.09954,0.128275 1.510587,-0.163907 -0.211335,0.263054 -0.500023,0.451523 -0.798155,0.55828 l 0,0 z M 3.086751,11.169922 c 0.590176,0.671213 1.5545215,0.44725 2.3406732,0.622918 0.1110469,0.01515 0.2126844,0.05963 0.3303738,0.04158 -0.093716,-0.05929 -0.2237549,-0.05286 -0.3260495,-0.106756 -0.6162252,-0.21649 -0.7066197,-0.88362 -1.041145,-1.333483 0.4273758,0.283811 0.7866704,0.666595 1.1809399,1.037496 0.2833951,0.248247 0.6245275,0.362823 0.9839604,0.435886 -0.086381,0.03156 -0.1996078,0.0229 -0.2923202,0.04719 -0.6457341,0.158784 -1.3631469,0.41831 -2.0479375,0.185975 C 3.7700541,11.960553 3.3107479,11.608523 3.086751,11.169922 l 0,0 z M 2.1407401,9.616507 c 0.3680816,0.832681 1.2899455,0.901661 1.9080391,1.408708 0.1137452,0.100806 0.232922,0.18653 0.3613354,0.246344 l 0.00661,-0.0067 C 4.2748172,11.136539 4.110668,10.990413 4.0113136,10.824119 3.6495631,10.32112 3.7768,9.616507 3.5057552,9.075524 3.7520305,9.370127 3.975993,9.676355 4.1246783,10.010568 4.3458388,10.556152 4.4303522,11.172378 4.9421031,11.584792 4.3882857,11.402273 3.7394729,11.453265 3.2506579,11.112253 2.71694,10.784232 2.2406134,10.227855 2.1407401,9.616507 l 0,0 z M 1.7464018,7.9319462 c 0.053241,0.7335685 0.8420901,1.1211958 1.2077501,1.7284958 0.08652,0.124261 0.161589,0.261739 0.2772025,0.365763 C 3.2132967,9.948053 3.1403719,9.882294 3.113596,9.802243 2.9856668,9.547526 2.9390342,9.243997 2.9697883,8.936144 3.0052129,8.5614557 3.162374,8.2137494 3.1023877,7.8196536 3.4236978,8.5124355 3.326108,9.37715 3.5057552,10.127843 3.552803,10.292026 3.6478332,10.438637 3.7101026,10.595555 3.049943,10.145936 2.1497694,9.718144 1.8568954,8.8941128 1.7334635,8.6099903 1.7196951,8.2582377 1.7464018,7.9319462 l 0,0 z M 1.7682309,6.5802151 C 1.8059733,6.4164811 1.8348248,6.2470392 1.9060885,6.0967969 1.7710677,6.788887 2.2365661,7.287561 2.3892646,7.8874586 c 0.063896,0.2243769 0.079532,0.4653594 0.1708951,0.675899 0.00851,0.00462 0.015913,-0.00432 0.021171,-0.011036 C 2.3539782,7.915064 2.6821727,7.3228819 3.0119585,6.8239309 3.0921476,6.688737 3.1383655,6.5381834 3.1782526,6.3827864 3.2132962,6.6711976 3.1403716,7.0033359 3.0984786,7.3027828 3.0182891,7.6838019 2.8985937,8.0451386 2.7943961,8.4148451 2.7258306,8.6458648 2.7438542,8.9064972 2.7790705,9.148552 l -0.033038,-0.0264 C 2.5042551,8.6763077 2.0255071,8.3285681 1.8833253,7.8414819 1.7663281,7.4531632 1.6885603,7.0033359 1.7682307,6.5802151 l 0,0 z M 2.0232239,5.8357497 C 2.0100086,5.3122368 2.2272946,4.8848955 2.5334874,4.4948294 2.5423776,4.4903832 2.5487084,4.4814937 2.5601596,4.483638 2.223109,4.9958215 2.5019379,5.6409672 2.4865775,6.2233422 L 2.442124,6.8196066 c 0.0066,0.00432 0.0066,0.022244 0.022244,0.01536 C 2.484294,6.7685116 2.488619,6.6974897 2.501937,6.6291316 2.5813308,6.1481694 2.9990204,5.8068983 3.3638502,5.4745178 3.4417558,5.3875827 3.5106329,5.2993157 3.5506582,5.1972978 3.5208727,5.4367755 3.4458034,5.6783117 3.3464493,5.8997835 3.0625006,6.4535314 2.5379498,6.9078906 2.442124,7.5418634 2.3956295,6.9343207 1.9819878,6.4800997 2.0232239,5.8357497 l 0,0 z M 2.9116703,4.0692179 C 3.0701806,3.8721697 3.2711378,3.7352291 3.4972796,3.6774051 3.0581763,3.9790483 3.086751,4.5196163 2.9475442,4.968994 2.9031599,5.1351666 2.8260843,5.288263 2.7876849,5.4586043 l 0.011174,0.00889 C 2.8719217,5.2749272 3.0003351,5.0929793 3.1606095,4.9358528 3.4724754,4.6479605 3.9338228,4.4685378 4.0866595,4.042667 4.0796717,4.6344688 3.5859787,5.0997252 3.113596,5.4323304 2.9187966,5.6032251 2.7309507,5.7979901 2.6236739,6.0176801 2.6131575,5.868372 2.6457451,5.7184581 2.6351249,5.5585124 2.5837525,5.041901 2.5464254,4.4522441 2.9116703,4.0692179 l 0,0 z M 4.5525815,3.2347612 C 4.2581204,3.4929032 4.0538947,3.8193703 3.8354474,4.1238023 3.6396297,4.3662537 3.3891454,4.5261274 3.1671664,4.7346195 3.2870012,4.486198 3.291377,4.1894551 3.4613465,3.9612563 3.7032041,3.5393023 4.1516941,3.3908528 4.5525815,3.2347612 l 0,0 z m 7.5878325,0.2450594 c 0.324839,0.290729 0.47176,0.6671651 0.566617,1.0571964 l 0.05365,0.1238642 C 12.289203,4.3217899 11.860893,3.8659603 11.559821,3.3845485 L 11.192119,3.0125578 c 0.323248,0.1370619 0.671749,0.218877 0.948295,0.4672628 l 0,0 z m 1.15316,1.0682492 c 0.103022,0.4657927 -0.04746,0.9194254 0.04719,1.3896979 l -0.0035,0.00404 C 13.08383,5.4435214 12.545857,5.2083506 12.1757,4.8095322 11.961182,4.5728739 11.867916,4.2844455 11.81426,3.9790483 c 0.212097,0.5113357 0.784422,0.624009 1.112997,1.054896 0.10994,0.099337 0.145814,0.2369527 0.216698,0.3496082 l 0.01159,-0.011191 C 12.96659,4.968994 12.903283,4.5150497 12.771445,4.0848546 c -0.066,-0.1864105 -0.197014,-0.3695691 -0.372786,-0.4871027 0.431319,0.088146 0.805143,0.5384404 0.894915,0.9503179 l 0,0 z m 0.276545,0.1020354 c 0.392229,0.531556 0.478196,1.3786451 0.192517,1.9883667 C 13.656155,6.8968552 13.580948,7.1721894 13.539123,7.4581791 13.519164,7.4088461 13.514597,7.342531 13.496782,7.287561 13.340761,6.6907434 12.776323,6.2654088 12.544196,5.7027181 12.47058,5.5187117 12.407826,5.3285823 12.373024,5.128836 c 0.248041,0.4587528 0.859318,0.695705 1.025924,1.2012638 0.06825,0.1278597 0.06441,0.2876156 0.106758,0.4250926 0.0089,0 0.01778,-0.00661 0.01778,-0.015637 -0.07334,-0.5207799 -0.05096,-1.0658276 0.01972,-1.5801387 -0.0041,-0.2785862 -0.03127,-0.5488182 -0.186048,-0.7644607 0.09925,0.057824 0.143947,0.1688883 0.212961,0.2551488 l 0,0 z m 0.367149,3.4498988 c -0.232611,0.3309969 -0.514,0.6391269 -0.728899,0.97552 0.02398,-0.2663399 0.05552,-0.5938426 -0.04823,-0.8461377 -0.179786,-0.5433006 -0.337743,-1.0949386 -0.3887,-1.6912029 l 0.007,-0.2280099 c 0.135298,0.6089257 0.733465,1.0275143 0.695723,1.7105417 0.0137,0.1655325 -0.0375,0.3062615 -0.0685,0.4518335 l 0.01027,0.010763 0.02695,-0.0302 c 0.0887,-0.335044 0.133464,-0.6873503 0.271391,-0.9999432 0.19601,-0.4498272 0.440764,-0.9038058 0.341029,-1.4469335 0.298131,0.6403371 0.207807,1.4958847 -0.11807,2.0937743 l 0,0 z m -1.712756,3.186915 c -0.381677,0.102209 -0.788953,0.135073 -1.15963,0.26148 0.627814,-0.538302 0.591975,-1.371225 1.010842,-2.005231 0.133428,-0.179509 0.243715,-0.367667 0.39925,-0.538008 -0.254787,0.511093 -0.144292,1.174193 -0.436993,1.670169 -0.112673,0.197013 -0.273813,0.388147 -0.452008,0.542886 0.05822,-0.0022 0.10918,-0.05258 0.16038,-0.08624 0.475427,-0.474424 1.096529,-0.607093 1.610806,-0.99254 0.206007,-0.164149 0.394684,-0.379255 0.485251,-0.611901 -0.09731,0.787121 -0.880386,1.524875 -1.617898,1.759388 l 0,0 z"
       inkscape:transform-center-y="1.1752003"
       inkscape:connector-curvature="0" />
    <g
       transform="matrix(0.7574541,0,0,0.7574541,-0.33664118,-0.56945581)"
       style="display:inline"
       id="g3889">
      <path
         transform="matrix(0.95,0,0,0.95,0.55000001,-1.4)"
         d="m 16,12 c 0,2.761424 -2.238576,5 -5,5 -2.7614237,0 -5,-2.238576 -5,-5 0,-2.7614237 2.2385763,-5 5,-5 2.761424,0 5,2.2385763 5,5 z"
         sodipodi:ry="5"
         sodipodi:rx="5"
         sodipodi:cy="12"
         sodipodi:cx="11"
         id="path3877"
         style="fill:#ffffff;fill-opacity:0.25480766;stroke:#ffffff;stroke-width:0.69484848;stroke-miterlimit:4;stroke-dasharray:none"
         sodipodi:type="arc" />
      <path
         style="fill:#ffffff"
         d="m 14.39042,12.308517 c 0.0029,0.02654 -0.0062,0.09187 0.0062,0.106863 0.01282,0.02035 0.06067,0.01602 0.0814,0.0089 0.05664,-0.02129 0.112993,-0.09612 0.139154,-0.152215 0.01841,-0.02848 0.03079,-0.06183 0.02676,-0.09914 l -0.03962,-0.120023 c -0.0099,-0.04209 -0.0232,-0.116089 -0.0681,-0.133564 0.0042,-0.01114 0.01841,-0.02856 0.01673,-0.04452 -0.01038,-0.04743 -0.08963,-0.03497 -0.117946,-1.22e-4 -0.01426,0.01741 -0.01023,0.05462 -0.0133,0.07636 -7.98e-4,0.04312 -0.01287,0.130168 -0.03003,0.16933 -0.01718,0.03909 -0.06531,0.09178 -0.06595,0.134882 0.0034,0.03188 0.03762,0.05031 0.06471,0.05333 l 0,0 z m -2.637218,-0.33299 0.01408,0.03095 c 6.18e-4,0.0053 0.007,0.01548 0.01238,0.01502 0.0359,0.03443 0.08621,-0.04536 0.02617,-0.05603 -0.0054,4.58e-4 -0.01655,-0.004 -0.02135,0.0019 -0.01053,9.93e-4 -0.02121,0.0019 -0.03127,0.0082 l 0,0 z m 0.03978,-0.07878 c -0.0243,0.02361 -0.03313,0.04056 0.0063,0.05849 l -0.0063,-0.05849 0,0 z m -0.640457,-0.469109 c -0.039,0.03567 -0.03605,0.01399 -0.05602,0.02654 -0.01486,0.01198 -0.0024,0.02701 -0.0161,0.04975 -0.0042,0.01114 -0.01965,0.01789 -0.01841,0.02856 -0.0036,0.01642 0.01346,0.02562 0.03001,0.0295 0.02183,0.0034 0.0856,-0.0023 0.105545,-0.01478 0.01967,-0.01789 0.01192,-0.03871 0.02091,-0.05565 0.0048,-0.0058 0.01424,-0.01739 0.01904,-0.0232 0.0023,-0.02708 -0.0548,-0.05959 -0.08497,-0.0407 l 0,0 z m 1.537837,-0.164837 0.0057,0.05316 -0.0062,0.04357 c 0.05788,-0.01061 0.0935,-0.02988 0.144867,-0.05062 0.01533,-0.0067 0.04597,-0.02026 0.05787,-0.01059 0.01706,0.0093 0.008,0.02614 0.0039,0.03729 -0.0083,0.02221 -0.04146,0.06285 -0.05572,0.08027 -0.04318,0.04681 -0.106922,0.05254 -0.160802,0.100372 -0.02896,0.02947 -0.03666,0.05702 -0.06578,0.08651 -0.02892,0.0294 -0.04968,0.03668 -0.06455,0.04875 -0.01422,0.01741 -0.0023,0.02708 -0.03247,0.04589 l 0.01718,-0.03909 c -0.01642,-0.004 -0.03778,-0.002 -0.05016,-0.01709 -0.007,-0.0154 -0.0087,-0.03143 -0.0052,-0.04783 0.0073,-0.03289 0.01394,-0.119484 0.033,-0.14271 0.0048,-0.0058 0.04613,-0.02027 0.06143,-0.027 l -0.0071,0.0329 c 0.01594,-0.0014 0.04242,-0.0038 0.05244,-0.01006 0.02604,-0.0078 0.05216,-0.06384 0.06578,-0.08651 l -0.07209,0.02794 c 0.01254,-0.03335 0.04813,-0.100992 0.07785,-0.125136 l 0,0 z m -1.425622,0.160104 c -0.01082,0.04938 0.01935,0.03049 0.0376,0.05039 0.01176,0.0097 0.01348,0.02562 0.01518,0.04163 l -0.04194,0.0091 -0.01843,0.02848 -0.02369,0.02902 0.07197,0.02043 c -0.03605,0.01394 -0.05788,0.01052 -0.08095,0.0449 l 0.09022,-0.0081 c 0.05897,8.1e-5 0.103249,0.01223 0.158807,-0.01967 l -0.01176,-0.0097 0.01609,-0.04983 -0.04008,-0.02323 -0.0141,-0.03095 -0.06748,-0.07994 -0.02243,-0.0088 c 0.01904,-0.0232 0.05742,-0.0643 0.0026,-0.07545 l -0.02708,-0.0029 0.02369,-0.02902 c -0.03251,-0.0024 -0.05959,-0.0053 -0.0839,0.01833 -0.02848,0.03475 -0.02926,0.07778 0.01564,0.09526 l 0,0 z m -0.03141,-0.690284 -0.0013,0.03768 -0.01238,-0.015 0.0015,0.0643 c 0.0094,0.03683 0.05077,0.02237 0.06021,0.01074 0.01007,-0.0062 0.013,-0.02808 0.01193,-0.03869 -0.0011,-0.01061 -0.0076,-0.02081 -0.01346,-0.02562 -0.0113,-0.0044 -0.01658,-0.004 -0.02724,-0.003 l -0.0034,-0.03187 -0.01594,0.0014 0,0 z m -4.3776557,0.339041 c -0.0021,0.08078 0.019171,0.07884 0.037205,0.147104 0.00937,0.03676 -0.00541,0.04882 0.023844,0.12142 0.014079,0.03104 0.022747,0.06245 0.056337,0.07553 -0.00967,-0.09047 -0.02075,-0.143169 -0.051085,-0.226426 -0.021668,-0.05178 -0.038224,-0.05564 -0.055718,-0.118645 l -0.010584,9.93e-4 0,0 z M 14.19447,10.187524 c -0.02536,0.013 -0.03435,0.02993 -0.03143,0.05648 -0.0024,0.02716 0.02105,0.04651 0.04705,0.03879 0.03607,-0.01394 0.04226,-0.105864 -0.01561,-0.09526 l 0,0 z m -5.0215462,-0.01162 c -0.013081,0.0281 -0.015557,0.05518 0.013301,0.07407 -0.00286,-0.02655 0.00487,-0.05418 -0.013301,-0.07407 l 0,0 z m 1.5689302,0.02586 0.01772,0.01454 c 0.039,-0.03574 0.04737,-0.05803 0.07585,-0.09278 0.02366,-0.02902 0.03962,-0.03041 0.0544,-0.04247 0.0094,-0.01162 0.0083,-0.02229 0.01183,-0.03871 0.0084,-0.02229 0.02376,-0.02902 0.01981,-0.06625 0.0019,-0.03241 -0.01925,-0.07887 -0.05585,-0.07022 l -0.0082,-0.02612 c -0.01594,0.0014 -0.04194,0.0091 -0.05671,0.02117 -0.01478,0.01211 -0.0072,0.03292 -0.0267,0.05079 -0.02369,0.02896 -0.06501,0.04341 -0.07507,0.04968 -0.01539,0.0068 -0.0083,0.02229 -0.03328,0.04064 -0.03483,0.0246 -0.05782,0.01053 -0.07849,0.0178 -0.026,0.0077 -0.06453,0.04875 -0.08404,0.06662 -0.02848,0.03475 -0.03675,0.05704 -0.04867,0.09574 -0.0042,0.01107 -0.01308,0.028 -0.0066,0.03823 0.0064,0.01015 0.02237,0.0087 0.03249,0.0024 0.02067,-0.0072 0.06616,-0.03273 0.08274,-0.02886 0.01586,-0.0014 0.02234,0.0088 0.03357,0.01308 0.0165,0.0039 0.0271,0.0029 0.03831,0.0072 0.01114,0.0044 0.02353,0.01942 0.03529,0.02909 0.02826,0.01354 0.05674,-0.0212 0.06508,-0.04341 0.0042,-0.01114 0.0083,-0.02229 0.0066,-0.03823 l 0,0 z m 0.03087,-0.4111551 6.18e-4,0.0053 -0.006,-0.0048 0.0053,-4.99e-4 0,0 z m 0.04705,0.03876 c 0.01408,0.031 0.06592,0.06392 0.09534,0.08819 0.01005,-0.0062 0.01478,-0.01208 0.01896,-0.02318 0.01308,-0.02806 0.0073,-0.0813 -0.02097,-0.09488 -0.01701,-0.0092 -0.03777,-0.002 -0.05308,0.0048 -6.17e-4,-0.0053 -0.0076,-0.02079 -0.01346,-0.025662 -0.0418,-0.039223 -0.0941,0.072932 -0.02678,0.050765 l 0,0 z m -0.222169,-0.071381 c 0.03582,0.034389 0.03645,0.039682 0.08428,0.035389 -0.0073,0.03289 -0.04985,0.08509 -0.08468,0.06137 -0.0229,-0.01408 -0.02523,-0.03536 -0.03637,-0.03974 -0.01709,-0.0092 -0.01841,0.02852 -0.02786,0.0401 -0.0226,0.03965 -0.06035,0.03768 -0.06406,0.102489 l 0.02011,-0.01262 c 0.02043,0.04118 0.05836,-0.0052 0.08382,-0.01821 -0.0047,0.0058 -0.01424,0.01745 -0.01835,0.02851 -0.0037,0.01647 0.01402,0.03103 0.02942,0.02422 0.01531,-0.0068 0.03373,-0.03529 0.04845,-0.04737 0.01485,-0.01202 0.02011,-0.0125 0.03551,-0.01931 0.01478,-0.01203 0.03429,-0.0299 0.04915,-0.04198 0.04442,-0.0362 0.04665,-0.01493 0.06221,-0.07008 -0.0013,-0.01062 0.0035,-0.01643 0.0024,-0.027079 -0.02113,-0.046472 -0.09726,-0.00739 -0.103229,-0.012182 l -0.03305,-0.00782 c -0.01114,-0.00437 -0.03187,0.00287 -0.04773,0.00431 l 0,0 z m 0.245459,-0.011263 -0.02654,0.00236 0.007,0.015477 c 0.03133,-0.00817 0.05254,-0.010105 0.05386,-0.047829 -0.02656,0.00239 -0.03189,0.00285 -0.03437,0.029996 l 0,0 z m -1.6731569,0.1017107 -0.024624,0.120463 0.011004,0.0527 0.022127,0.105465 c 0.01362,-0.02267 0.038065,-0.09472 0.040541,-0.121801 l 0.00605,-0.04358 c 0.00186,-0.03237 0.00604,-0.04348 -0.00805,-0.07447 l -0.034369,0.02993 -0.0021,-0.06964 -0.010585,9.04e-4 0,0 z M 10.898081,9.709503 c -0.0034,-0.031932 0.0024,-0.02706 0.02955,-0.024144 l -3.69e-4,-0.053702 c -0.01539,0.00675 -0.03661,0.00869 -0.05146,0.02073 -0.02369,0.028977 -0.02073,0.055638 0.02229,0.057116 l 0,0 z m -0.157867,-0.071774 0.0182,0.019851 c 0.03661,-0.00866 0.04837,9.939e-4 0.0814,0.00881 l -0.01292,-0.02035 0.01362,-0.022707 c 0.03189,-0.00281 0.03437,-0.029956 0.02091,-0.055598 -0.0059,-0.00485 -0.01711,-0.00921 -0.02299,-0.014079 -0.05719,-0.032432 -0.0626,0.016396 -0.07623,0.039102 l -0.02199,0.044974 0,0 z m 0.137517,-0.017734 c 0.01061,-9.577e-4 0.02129,-0.0019 0.03133,-0.00815 0.01951,-0.017894 0.0085,-0.070656 -0.0087,-0.079842 -0.01648,-0.00389 -0.02536,0.013001 -0.02421,0.023646 l -0.0036,0.016495 0.0029,0.026581 0.0023,0.021268 0,0 z M 9.1702046,9.751721 c 0.018952,-0.023186 0.025542,-0.061409 0.028018,-0.08851 -0.035448,0.019351 -0.032033,0.051245 -0.028018,0.08851 l 0,0 z M 9.3584075,9.4070684 c 0.00511,0.04791 -9.216e-4,0.091425 -0.017634,0.1359002 -0.021369,0.050306 -0.072913,0.119404 -0.083736,0.1686915 l -0.012302,-0.015018 c -0.023146,0.03433 -0.025782,0.1098188 -0.011063,0.1460848 0.028937,-0.02945 0.035588,-0.06768 0.053381,-0.1015105 0.035068,-0.072972 0.08188,-0.1362593 0.099833,-0.2184981 0.0031,-0.021768 0.00743,-0.081281 -0.00557,-0.1015906 -0.00643,-0.010185 -0.011763,-0.00969 -0.022907,-0.014059 l 0,0 z m 4.8369795,0.1409325 c 0.02788,-0.040141 0.03531,-0.1213411 0.04597,-0.1707285 0.02524,-0.1150706 0.07849,-0.1681926 0.06298,-0.3119009 -0.0034,-0.031913 -0.01561,-0.0953 -0.05384,-0.102649 -0.05959,-0.00538 -0.03515,0.073013 -0.03871,0.089448 0.0017,0.015996 -0.0024,0.0271 -0.0067,0.038243 -0.02612,0.056057 -0.0139,0.1194442 -0.01298,0.1784573 l -0.0113,0.1944535 0.01454,0.084675 0,0 z M 13.335173,8.6311307 c 0.0011,0.010624 0.007,0.015497 0.01346,0.025642 0.0059,0.00487 0.01178,0.00971 0.01765,0.014558 0.03419,0.018413 0.05201,-0.015397 0.03899,-0.035767 -0.0063,-0.010164 -0.02816,-0.01358 -0.03882,-0.012601 -0.01054,9.577e-4 -0.02121,0.0019 -0.03127,0.00817 l 0,0 z m 0.794591,-0.092803 c 0.0051,0.04791 0.02432,0.1268135 0.0449,0.1679328 l 0.04689,0.087132 0.0554,0.1669742 c 0.02848,-0.034789 0.01334,-0.076427 0.0041,-0.1131935 -0.02396,-0.073073 -0.05851,-0.145206 -0.08727,-0.2124473 -0.01997,-0.035827 -0.0345,-0.072173 -0.06395,-0.096398 l 0,0 z m -0.293609,-0.086473 -0.0043,0.059472 -0.07261,-0.025742 c -0.0012,0.037784 0.01566,0.09536 0.04569,0.124876 l 0.05831,0.043137 c 0.04706,0.038783 0.09474,0.082878 0.136998,0.1274123 0.03714,0.045054 0.03882,0.061031 0.05168,0.08134 0.01178,0.00967 0.02353,0.019392 0.03886,0.012622 0.01006,-0.00627 0.01254,-0.033351 0.0167,-0.044495 l 0.01782,-0.033831 c 0.0078,-0.02754 -0.0127,-0.068679 -0.02617,-0.094361 L 14.063983,8.624859 C 14.049323,8.588554 14.040493,8.5571 14.015893,8.527084 13.974113,8.487842 13.942243,8.490698 13.898106,8.478515 l -0.06191,-0.02666 0,0 z m -1.477784,0.073472 c -0.0031,0.021788 -0.005,0.05422 -0.03095,0.061909 -0.0052,4.785e-4 -0.02708,-0.00294 -0.03299,-0.00781 l -0.02025,0.06095 c -0.0089,0.016895 -0.02571,0.061389 -0.02384,0.077386 -0.0024,0.02704 0.03467,0.023705 0.05356,5.398e-4 0.01965,-0.017874 0.02213,-0.044974 0.03575,-0.06768 0.02196,-0.044954 0.06267,-0.064765 0.06762,-0.118905 l -0.04889,-0.00639 0,0 z m 1.646336,-0.2014633 c 0.01582,0.046971 0.02693,0.051344 0.0528,0.092004 0.01346,0.025662 0.0099,0.042098 0.04114,0.03393 -0.01869,-0.025182 -0.07085,-0.1118552 -0.09394,-0.1259344 l 0,0 z m -2.227361,0.2858185 c -0.05959,-0.00538 -0.02027,0.06095 -0.02802,0.08849 -0.013,0.028059 -0.07273,0.071035 -0.10167,0.052124 -0.01534,0.00677 -0.03127,0.0082 -0.04783,0.00429 -0.01642,-0.00391 -0.02818,-0.01358 -0.04412,-0.012142 l -0.08466,0.06133 c -0.01486,0.012063 -0.03483,0.024604 -0.05618,0.026501 -0.01579,0.00144 -0.03714,0.00332 -0.04659,0.014978 -0.01486,0.012022 -7.77e-4,0.043017 0.0063,0.058494 l 0.02522,0.035369 c -0.052,0.015398 -0.04799,0.052623 -0.04288,0.1005717 0.003,0.026581 0.01316,0.1223799 0.02075,0.1431894 0.0082,0.026162 0.04302,0.049886 0.07057,0.058114 0.01718,0.00927 0.04425,0.012162 0.06019,0.010764 l 0.0037,-0.064844 0.01596,-0.0014 0.0164,0.052283 c 0.0052,-5.194e-4 0.01594,-0.00144 0.0212,-0.00194 l 0.06608,0.015597 c 0.0059,0.00483 0.0059,0.00483 0.01176,0.00967 0.007,0.015477 -0.0061,0.043536 -0.0043,0.059513 0.0093,0.036746 0.04767,0.044075 0.07956,0.0412 -7.77e-4,0.043037 0.0034,0.031933 9.04e-4,0.059013 0.0029,0.026621 -0.013,0.028058 0.01981,0.084195 0.0065,0.010145 0.01997,0.035827 0.0359,0.034389 0.01594,-0.00142 0.04907,-0.042018 0.08451,-0.06131 0.0082,0.026101 0.0088,0.031454 0.03171,0.045533 l -0.0078,0.02754 0.06035,-0.037644 c -0.01795,0.082199 -0.05214,0.063766 -0.08945,0.1154698 -0.01316,0.028079 -0.005,0.0542 -0.0127,0.08176 l 0.0059,0.00483 0.02011,-0.012541 0.01534,-0.00673 c 0.04719,-0.00965 0.01053,0.04739 0.0116,0.058035 0.0017,0.015996 0.013,0.02031 0.02414,0.024723 l -0.02493,0.018313 0.0147,0.03633 -0.09564,0.0086 c -0.04721,0.0096 -0.08638,0.04536 -0.125994,0.07577 l 0.0013,0.01064 0.01642,0.0039 -0.09162,0.04585 c 0.0277,0.0082 0.06377,-0.0057 0.09039,-0.0081 0.026,-0.0078 0.02121,-0.0019 0.05262,-0.01013 l 0.01701,0.0093 -0.0031,0.02175 0.116708,0.03785 c 0.0277,0.0083 0.04783,-0.0042 0.06501,0.005 0.0229,0.01408 0.01516,0.04162 0.05354,0.04889 0.04412,0.01216 0.0791,-0.01244 0.11563,-0.02111 l -0.0432,0.04689 0.01997,0.03582 0.05201,-0.0154 c -0.03854,0.04102 -0.03668,0.0087 -0.110976,0.01531 0.01703,0.0092 0.06764,0.0315 0.07895,0.0359 0.0277,0.0083 0.0424,-0.0039 0.0814,0.0089 0.03297,0.0078 0.07305,0.03103 0.08374,-0.01835 0.0065,0.01023 0.013,0.02036 0.01888,0.02524 0.01706,0.0092 0.02772,0.0083 0.0443,0.01214 0.02181,0.0034 0.07349,0.03637 0.07118,0.06347 -0.0048,0.0058 -0.0096,0.0116 -0.01422,0.01741 -0.0071,-0.01556 -0.0141,-0.03095 -0.02648,-0.04597 -0.03048,-0.03491 -0.07725,-0.01997 -0.11561,-0.02732 l -0.07725,-0.01989 -0.05957,-0.0054 c -0.03235,-0.0024 -0.05062,-0.02229 -0.0825,-0.01944 -0.01069,9.04e-4 -0.026,0.0077 -0.02477,0.01833 0.0011,0.01061 0.01284,0.02037 0.01873,0.02516 0.03419,0.01841 0.02181,0.0034 0.07367,0.03637 0.02878,0.01889 0.03884,0.01262 0.06654,0.02089 l 0.02832,0.01362 c 0.02183,0.0034 0.026,-0.0078 0.04783,-0.0043 0.01053,-9.04e-4 0.03236,0.0024 0.04364,0.0069 l -0.09222,0.04048 -0.07074,-0.0097 c 0.01408,0.03095 0.01997,0.03582 -0.0037,0.06476 l -0.013,-0.02027 c -0.01424,0.01734 -0.013,0.02802 -0.02724,0.04541 l -0.02369,0.02896 c -0.0042,0.01114 -0.01841,0.02856 -0.02909,0.02947 -0.01594,0.0014 -0.03405,-0.01841 -0.04597,-0.02808 -0.0229,-0.0141 -0.03357,-0.01316 -0.05957,-0.0054 0.01949,0.03049 0.02955,0.02422 0.05772,0.03777 0.02307,0.01408 0.08188,0.06253 0.100152,0.08242 -0.0054,4.58e-4 -0.01068,9.04e-4 -0.01485,0.01208 -0.0094,0.0116 9.03e-4,0.05904 0.0133,0.07397 0.01176,0.0097 0.02307,0.01408 0.03884,0.0127 l -0.06329,0.05943 c 0.0277,0.0082 0.03777,0.0019 0.06129,0.02135 l -0.0531,0.0047 -0.07009,-0.05276 -0.07305,-0.03112 c 0.02724,0.0029 0.07026,0.0045 0.09564,-0.0086 0.04551,-0.02554 0.02384,-0.0773 -0.01145,-0.106404 -0.0229,-0.0141 -0.03886,-0.01262 -0.06594,-0.01556 -0.02183,-0.0034 -0.0554,-0.01655 -0.07677,-0.01464 l -0.05788,0.01061 0.0037,-0.01648 c -0.01658,-0.0039 -0.02244,-0.0088 -0.0373,0.0033 -0.01765,-0.01456 -0.01811,-0.01981 -0.03994,-0.02323 l 0.0028,0.02654 -0.02414,-0.02468 -0.0023,0.02708 c -0.013,-0.02035 -0.01363,-0.02561 -0.03591,-0.03435 l 0.01795,0.06818 -0.0089,0.01693 c -0.02955,0.02414 -0.02926,0.07786 -0.0257,0.109819 0.0068,0.06384 -0.0074,0.08126 -0.01284,0.130088 -0.0014,0.03769 0.01099,0.0527 7.77e-4,0.107403 -0.003,0.02175 -0.02323,0.08266 -0.03219,0.09961 l -0.02368,0.02894 -0.01779,0.03381 c -0.0089,0.01696 -0.02368,0.02902 -0.03265,0.04597 -0.0084,0.02221 0.0034,0.03196 0.0099,0.04209 0.0088,0.03141 -0.01361,0.02267 0.02337,0.06778 l -0.01889,0.02315 0.02121,-0.0019 c -0.01193,0.03871 0.01222,0.06346 0.04875,0.0548 0.026,-0.0078 0.05448,-0.0425 0.06222,-0.07012 l 0.01069,-9.03e-4 0.07149,0.117167 c 0.01238,0.01502 0.01531,0.04164 0.03714,0.04503 0.02183,0.0034 0.03003,-0.01879 0.039,-0.03574 0.0094,-0.0116 0.01952,-0.01787 0.02894,-0.02947 0.01316,-0.02802 -0.01268,-0.06872 -0.01021,-0.09582 0.0029,-0.02173 0.0178,-0.03381 0.02027,-0.06089 -0.004,-0.03722 -0.03173,-0.04551 -0.04999,-0.0654 -0.01827,-0.01981 -0.02043,-0.04108 -0.02337,-0.0677 -0.0063,-0.05859 0.02383,-0.07738 0.0294,-0.126214 0.0019,-0.03244 -0.0164,-0.05224 -0.01873,-0.07359 -0.0017,-0.01596 0.0019,-0.03235 0.01782,-0.03383 0.03666,-0.0087 0.04116,0.03397 0.04409,0.06053 l -0.005,0.05416 c -0.003,0.02183 -0.0119,0.03871 -0.0089,0.0653 0.0076,0.02083 0.01997,0.03585 0.02692,0.05133 0.01238,0.015 0.01409,0.03103 0.02586,0.0407 0.01114,0.0043 0.01701,0.0091 0.0277,0.0082 0.01114,0.0044 0.02229,0.0088 0.03297,0.0078 0.026,-0.0078 0.05277,-0.05851 0.07753,-0.07677 0.01485,-0.01214 0.03668,-0.0087 0.05262,-0.01015 -0.0089,0.01696 -0.03265,0.04597 -0.04209,0.05752 -0.02011,0.01252 -0.05679,0.02119 -0.05866,0.05362 -0.0113,0.04404 0.04705,0.03876 0.04582,0.07644 -0.0024,0.0271 -0.04364,-0.0068 -0.05618,0.02655 -0.01779,0.03383 0.0057,0.05326 0.01392,0.0794 0.0017,0.01596 -0.0071,0.03282 -0.01082,0.0493 -0.02244,0.03962 -0.04132,0.01446 -0.07151,0.03328 -0.02538,0.01308 -0.05324,0.05316 -0.07925,0.06091 -0.02057,0.0072 -0.03838,-0.0074 -0.05432,-0.006 -0.02121,0.0019 -0.039,0.03582 -0.07428,0.0067 -0.03591,-0.03443 0.005,-0.05416 -0.0039,-0.08565 l -0.02167,-0.05178 c -0.03018,0.01881 -0.05973,0.04303 -0.04983,0.08514 0.0147,0.0362 0.04998,0.06531 0.03158,0.09378 -0.01486,0.01208 -0.04676,0.01493 -0.07151,0.03329 -0.03018,0.01887 -0.06159,0.07537 -0.07166,0.08172 -0.01485,0.01206 -0.03079,0.01346 -0.04549,0.02552 l -0.0534,0.05316 c -0.0047,0.0058 -0.0047,0.0058 -0.0095,0.01162 l -0.06654,-0.02091 0.004,0.03722 c -0.02662,0.0024 -0.02662,0.0024 -0.04845,-9.94e-4 -0.0164,-0.004 -0.04891,-0.0063 -0.05725,0.01586 -0.0089,0.01696 0.03529,0.0291 0.04659,0.03343 0.06762,0.03158 0.08094,0.105565 0.05201,0.135122 -0.01951,0.01779 -0.0531,0.0047 -0.07491,0.0014 -0.04907,-0.0063 -0.126294,-0.02632 -0.174583,-0.02732 -0.06379,0.0057 -0.04333,0.04681 -0.05572,0.08019 -0.0032,0.02181 -0.02323,0.03435 -0.02678,0.05077 -0.0048,0.0058 -0.0042,0.01114 -0.0036,0.01648 -6.01e-4,-0.0053 0.01749,0.06291 0.01688,0.05757 0.0076,0.02081 0.0449,0.01749 0.06672,0.02089 0.02754,0.0082 0.03467,0.02376 0.05755,0.03785 0.02244,0.0087 0.03251,0.0024 0.05324,-0.0048 0.04769,-0.0043 0.09318,0.01849 0.164078,-0.02013 0.01532,-0.0067 0.03018,-0.01879 0.03435,-0.02993 0.01424,-0.01734 0.0071,-0.0329 0.02662,-0.05077 0.0243,-0.02368 0.07151,-0.03329 0.09642,-0.05163 0.01951,-0.01787 0.0054,-0.04883 0.04148,-0.06283 0.026,-0.0077 0.0548,0.01122 0.09087,-0.0028 0.03125,-0.0082 0.06501,-0.04341 0.09642,-0.05161 0.03187,-0.0029 0.05168,0.03295 0.09596,0.04511 l 0.175662,0.0379 c 0.0054,-4.58e-4 0.01655,0.004 0.02244,0.0089 0.04705,0.03871 -0.02075,0.05556 -0.04675,0.06331 -0.02073,0.0072 -0.026,0.0077 -0.04735,0.0096 0.0061,0.0048 0.0065,0.01015 0.01238,0.01502 0.02244,0.0088 0.07661,0.01464 0.09626,-0.0033 0.0095,-0.0116 0.0084,-0.02229 0.0067,-0.03823 0.02057,-0.0072 0.03064,-0.01346 0.039,-0.03575 -0.0017,-0.01594 -0.0089,-0.03141 0.0061,-0.0435 0.0095,-0.0116 0.03064,-0.01354 0.04673,-0.01502 -0.02477,-0.02993 -0.04488,-0.01741 -0.07738,-0.01989 -0.0164,-0.0039 -0.0229,-0.01408 -0.03946,-0.01794 -0.01594,0.0014 -0.03064,0.01354 -0.05308,0.0048 -0.01655,-0.004 -0.03421,-0.01849 -0.0506,-0.02237 -0.01719,-0.0092 -0.06083,-0.01602 -0.05836,-0.04312 0.0042,-0.01114 0.0089,-0.01693 0.01949,-0.01787 0.0048,-0.0058 0.01006,-0.0062 0.01548,-0.0068 l 0.0076,0.02091 c 0.05666,-0.02121 0.03823,0.0072 0.08729,0.01362 0.04412,0.01214 0.09612,-0.0033 0.140992,0.01424 0.02772,0.0082 0.01873,0.02514 0.04288,0.04983 0.02942,0.0243 0.07136,0.0151 0.108481,0.01176 -0.0046,0.0058 -0.01003,0.0063 -0.0094,0.0116 -0.0089,0.01696 0.0028,0.02662 0.01409,0.03095 0.0399,0.02331 0.09921,-0.02498 0.04845,-0.04727 l 0.08156,-0.03955 c -0.03946,-0.01795 -0.05899,-8.2e-5 -0.110837,-0.03305 0.02664,-0.0024 0.03187,-0.0029 0.05141,-0.02075 l 0.0031,-0.02181 0.08636,-0.04536 c -0.02736,0.04543 0.0034,0.03195 0.01378,0.0794 0.02664,-0.0024 0.05959,0.0053 0.08623,0.003 0.02073,-0.0072 0.07737,-0.02848 0.09222,-0.04056 0.0147,-0.01206 0.01841,-0.02848 0.03311,-0.04054 l 0.06147,-0.02702 c 0.02493,-0.01833 0.04382,-0.04154 0.06283,-0.06476 0.0094,-0.0116 0.01889,-0.0232 0.03547,-0.01927 0.02229,0.0088 0.028,0.06199 0.03031,0.08328 0.0071,0.01548 0.0147,0.0362 0.01642,0.05222 -0.0033,0.07012 -0.07692,0.08212 -0.121341,0.118326 -0.02955,0.02414 -0.05217,0.06377 -0.08296,0.0773 -0.03962,0.03041 -0.153095,0.07283 -0.205098,0.08823 l -0.110358,0.02065 c -0.02536,0.01308 -0.05492,0.03722 -0.06326,0.05943 -0.0084,0.02229 0.0051,0.04791 -0.02029,0.06091 -0.02541,0.01308 -0.131087,0.02785 -0.158186,0.025 -0.04364,-0.0069 -0.02894,-0.01897 -0.0927,-0.01325 -0.05836,0.0052 -0.1215,0.01634 -0.181692,0.0056 0.0094,-0.0116 0.02848,-0.03483 0.03203,-0.05122 0.0042,-0.01115 -0.0017,-0.01602 -0.0029,-0.02663 -4.79e-4,-0.0052 -0.0017,-0.01594 -0.0076,-0.02081 -0.01238,-0.01502 -0.0548,-0.01122 -0.07073,-0.0098 -0.03668,0.0087 -0.03018,0.01881 -0.08853,0.02407 l -0.196092,0.02299 c -0.0955,0.0085 -0.171807,0.04767 -0.208952,0.051 -0.02662,0.0024 -0.08621,-0.003 -0.113912,-0.0113 -0.02243,-0.0088 -0.04595,-0.02816 -0.07136,-0.01508 -0.026,0.0078 -0.03435,0.02993 -0.06499,0.0434 -0.03082,0.01356 -0.08915,0.01881 -0.124137,0.04341 -0.03483,0.02462 -0.01663,0.0445 -0.05742,0.06425 -0.02067,0.0072 -0.09025,0.0081 -0.116848,0.01051 -0.05897,-4.1e-5 -0.08855,0.02409 -0.139994,0.04481 l -0.05674,0.02121 c -0.02065,0.0072 -0.0626,0.01633 -0.07149,0.03328 -0.0089,0.01688 0.004,0.03722 0.0057,0.05324 0.0017,0.01594 -0.0019,0.03235 -0.0055,0.04882 -0.02778,0.0401 -0.09935,0.07337 -0.08767,0.131487 0.0093,0.03676 0.03111,0.04016 0.07227,0.07405 0.0541,0.05426 0.09456,0.131247 0.152834,0.174364 0.07531,0.05238 0.184269,0.117846 0.277432,0.136339 l 0.161742,0.007 c 0.08667,0.0083 0.153234,0.02925 0.24424,0.0264 l 0.199966,-0.03405 c 0.04256,-0.0038 0.105704,-0.01486 0.149959,-0.0027 0.04427,0.01214 0.05295,0.04364 0.132644,0.03645 l 0.110977,-0.01531 c 0.026,-0.0077 0.04673,-0.01493 0.07491,-0.0014 0.0684,0.03684 -0.04752,0.106323 0.0054,0.149978 0.02942,0.02422 0.126754,0.03158 0.165756,0.04417 0.0271,0.003 0.112514,0.04899 0.130807,0.06888 0.01175,0.0097 0.01282,0.02035 0.02521,0.03536 0.01222,0.01502 0.0401,0.02323 0.04178,0.03924 0.0017,0.01594 -0.03264,0.04589 -0.04209,0.0575 -0.02908,0.02947 -0.08542,0.104386 -0.05368,0.149899 0.01238,0.015 0.04597,0.02808 0.06315,0.03729 l 0.154933,0.04519 c 0.06714,0.02624 0.07289,0.07948 0.113593,0.108041 0.02879,0.01896 0.07661,0.01462 0.114391,0.01663 l 0.159725,0.03938 c 0.05556,0.01658 0.03235,0.05085 0.07597,0.05765 0.09211,0.008 0.233457,-0.07467 0.308506,-0.124357 l 0.152456,-0.07816 c 0.06099,-0.03233 0.115909,-0.06956 0.170868,-0.106703 0.104167,-0.07916 0.189441,-0.183569 0.241125,-0.301036 0.01782,-0.03381 0.06826,-0.113613 0.07138,-0.135341 0.0071,-0.03289 -0.02712,-0.05133 -0.01394,-0.07932 0.01717,-0.03924 0.08651,-0.0938 0.103087,-0.138216 0.01378,-0.02275 0.0097,-0.05997 -0.01334,-0.07405 -0.02229,-0.0088 -0.03714,0.0033 -0.0814,-0.0089 0.03343,-0.08893 0.09394,-0.174983 0.144268,-0.254764 0.0232,-0.03427 0.06466,-0.09712 0.06547,-0.140134 1.64e-4,-0.04837 -0.04306,-0.04993 -0.06115,-0.06974 -0.01765,-0.01454 -0.01361,-0.02569 -0.02477,-0.03009 -0.02229,-0.0087 -0.05788,0.01061 -0.07968,0.0072 -0.01597,0.0014 -0.02772,-0.0083 -0.03886,-0.0126 -0.01718,-0.0092 -0.03778,-0.002 -0.05372,-6.18e-4 -0.02396,-0.07305 0.026,-0.206476 0.05049,-0.27851 0.04765,-0.154713 0.111436,-0.310942 0.08835,-0.4754 l -0.02444,-0.126754 c -0.007,-0.01556 -0.01981,-0.03582 -0.04054,-0.02864 -0.03127,0.0082 -0.05884,0.10201 -0.07182,0.130009 l -0.07181,0.130088 c -0.01841,0.02848 -0.03036,0.06719 -0.05464,0.09085 -0.01953,0.01789 -0.05032,0.03135 -0.07569,0.04435 -0.0082,-0.02608 -0.02353,-0.01935 -0.04425,-0.01208 l -0.0963,0.05163 c -0.02009,0.01254 -0.05971,0.04295 -0.08636,0.04536 -0.02121,0.0019 -0.03359,-0.01308 -0.06483,-0.005 -0.02121,0.0019 -0.05727,0.01594 -0.07385,0.01198 -0.02181,-0.0034 -0.04533,-0.02275 -0.06719,-0.02614 -0.01637,-0.004 -0.04781,0.0042 -0.06315,0.01099 -0.05313,0.0048 -0.13624,-0.02005 -0.191159,-0.0312 0.01007,-0.0062 0.02073,-0.0072 0.01965,-0.01787 0.0078,-0.02754 -0.03467,-0.07211 0.01734,-0.08753 0.0052,-4.59e-4 0.01594,-0.0014 0.02121,-0.0019 l 0.09083,-0.0028 0.05268,-0.01006 c 0.02708,0.003 0.03419,0.01843 0.07133,0.0151 l 0.130488,-0.0332 c 0.05324,-0.0048 0.07473,0.04706 0.129849,0.0098 0.0449,-0.03087 0.08715,-0.136819 0.103248,-0.186585 l 0.04641,-0.117007 0.01797,-0.08218 c 0.02025,-0.06099 0.03866,-0.08947 0.03123,-0.158646 l -0.01082,-0.101151 c -0.0046,-0.04256 -0.0133,-0.07405 -0.05712,-0.03249 -0.03387,0.03529 -0.04581,0.07397 -0.09997,0.0681 -0.01437,0.06578 -0.0052,0.150897 -0.0709,0.189061 -0.02493,0.01833 -0.0526,0.01005 -0.07844,0.01779 -0.01549,0.0067 -0.03562,0.01935 -0.04677,0.01493 -0.01594,0.0014 -0.02768,-0.0083 -0.0294,-0.02422 0.003,-0.02175 0.03902,-0.03574 0.05448,-0.0425 0.05141,-0.02073 0.0774,-0.02848 0.11531,-0.07483 0.02305,-0.03435 0.02552,-0.06145 0.04394,-0.08993 0.01889,-0.0232 0.03547,-0.01933 0.05436,-0.04248 0.01422,-0.01741 0.04038,-0.07351 0.054,-0.0962 l 0.06498,-0.193914 c 0.03143,-0.05658 0.08408,-0.06664 0.09785,-0.137757 l 0.0082,0.02616 c 0.0562,-0.02654 0.05572,-0.08024 0.04473,-0.132944 0.03188,-0.0029 0.09674,0.002 0.12274,-0.0057 l 0.120543,-0.07529 c 0.0302,-0.01889 0.07988,-0.05557 0.08699,-0.08847 0.0083,-0.02221 -0.02617,-0.09432 -0.03854,-0.109339 -0.0063,-0.01015 -0.01222,-0.01502 -0.02353,-0.01935 -0.02772,-0.0083 -0.06423,4.09e-4 -0.0842,-0.03544 -0.02476,-0.03001 -0.05216,-0.135021 -0.07258,-0.176201 -0.04397,-0.108884 -0.04689,-0.08713 -0.0675,-0.128276 -0.01346,-0.02564 -0.01099,-0.05275 -0.01394,-0.07936 -0.0076,-0.02077 -0.01993,-0.03579 -0.02101,-0.04647 -0.0023,-0.021268 0.0125,-0.033351 0.02676,-0.050725 0.02244,-0.039661 0.01901,-0.071575 0.04333,-0.09526 0.01949,-0.017874 0.03666,-0.00863 0.04549,-0.025563 0.03267,-0.045893 -0.04625,-0.081799 -0.01965,-0.1325648 0.01362,-0.022727 0.05216,-0.063766 0.07877,-0.066182 0.02061,-0.00719 0.03778,0.00198 0.05836,-0.00521 0.02013,-0.012581 0.02153,-0.050306 0.02988,-0.072553 0.02073,-0.055599 0.05324,-0.053122 0.06115,-0.1290303 0.0024,-0.0271 0.0037,-0.064864 -0.0091,-0.085175 -0.02477,-0.030056 -0.05959,-0.00541 -0.06794,0.016836 -0.01841,0.028478 -0.01437,0.065783 -0.01099,0.097696 -0.0019,0.032392 -0.008,0.075908 -0.02632,0.1044261 -0.02244,0.039662 -0.06842,0.011543 -0.0814,-0.00876 -0.0063,-0.010185 -0.0022,-0.021288 -0.0034,-0.031972 7.61e-4,-0.043057 -0.01162,-0.058035 -7.96e-4,-0.107362 0.003,-0.021788 0.0232,-0.082698 0.01689,-0.092863 -0.0019,-0.015977 -0.05064,-0.070657 -0.06287,-0.085713 -0.02412,-0.024684 -0.06762,-0.079903 -0.107841,-0.054779 -0.03547,0.019272 -0.02804,0.08849 -0.03467,0.1266735 -0.0036,0.016436 -0.01086,0.049328 -0.0268,0.050765 -0.0099,0.00627 -0.02768,-0.00829 -0.0393,-0.017954 -0.03003,-0.029556 -0.04829,-0.049407 -0.05341,-0.097316 0.01642,0.00388 0.06067,0.016056 0.06375,-0.00573 -0.0023,-0.021268 -0.02752,-0.056636 -0.04889,-0.054699 -0.02181,-0.00342 -0.02476,0.018333 -0.05372,-5.4e-4 -0.02353,-0.01939 -0.07569,-0.106062 -0.100452,-0.1360975 C 13.502819,8.793462 13.456359,8.76003 13.41087,8.737244 13.38331,8.729014 13.293682,8.694028 13.268799,8.7124 c -0.01006,0.00627 -0.0084,0.022207 -0.01254,0.033311 -0.0059,-0.00479 -0.01178,-0.00967 -0.02229,-0.00873 -0.03838,-0.00729 -0.04968,0.036706 -0.05217,0.063806 0.0011,0.010624 0.0034,0.031953 -0.01194,0.038683 -0.01546,0.00673 -0.02724,-0.00294 -0.03902,-0.012641 -0.02879,-0.018892 -0.0294,-0.024225 -0.06826,-0.036846 0.0076,0.020809 0.01518,0.041639 0.02803,0.061949 0.03123,0.040201 0.05244,0.038263 0.04749,0.092484 -0.04473,-0.017494 -0.09534,-0.039781 -0.125975,-0.07469 l 0.04134,-0.014459 -0.0011,-0.010604 c -0.01701,-0.00925 -0.07537,-0.052362 -0.07768,-0.073632 -0.0017,-0.015977 0.01949,-0.017914 0.01782,-0.03387 0.0037,-0.016436 -0.01346,-0.025642 -0.0052,-0.047889 0.01422,-0.017414 0.04501,-0.030914 0.0427,-0.052203 -0.0013,-0.010644 -0.01298,-0.02031 -0.02412,-0.024684 -0.02293,-0.014079 -0.06362,-0.042637 -0.08791,-0.018992 -0.01949,0.017874 -0.0048,0.05416 -0.01562,0.1034876 -0.01658,-0.00385 -0.0449,-0.017474 -0.06131,-0.021349 -0.02181,-0.00342 -0.04721,0.00959 -0.07553,-0.00396 -0.03899,-0.012641 -0.05292,-0.043636 -0.08651,-0.056757 -0.06191,-0.026661 -0.113912,-0.011223 -0.171787,-6.584e-4 -0.02648,0.00236 -0.06905,0.00619 -0.09442,0.019192 -0.02013,0.012581 -0.02912,0.029477 -0.03795,0.046392 -0.02365,0.029017 -0.07042,0.043916 -0.06575,0.086472 0.0093,0.036806 0.04178,0.039283 0.05352,0.048908 l 0.03391,0.066862 c -0.03655,0.00863 -0.05372,-5.399e-4 -0.08543,0.00229 l -0.125835,0.02738 c -0.06438,4.377e-4 -0.08436,-0.035388 -0.123818,-0.053342 -0.02229,-0.00875 -0.03823,-0.00733 -0.0554,-0.016536 -0.01765,-0.014499 -0.01935,-0.030475 -0.02524,-0.035369 -0.01238,-0.014957 -0.06654,-0.020889 -0.08248,-0.019451 0.0011,0.010684 0.0017,0.015977 -0.0078,0.02754 -0.0089,0.016955 -0.05448,0.042538 -0.07569,0.044434 -0.01005,0.00627 -0.02662,0.00239 -0.03777,-0.00198 l 0.003,-0.021788 c 0.0024,-0.02704 -0.01348,-0.025622 -0.03405,-0.018413 -0.03143,0.00819 -0.05031,0.031374 -0.07522,0.049727 0.0089,-0.016914 0.01734,-0.039162 0.03158,-0.056537 0.01951,-0.017874 0.04551,-0.025622 0.0709,-0.038624 l 0.08032,-0.050186 c 0.02011,-0.012541 0.05092,-0.026081 0.06562,-0.038143 0.04442,-0.036227 0.0537,-0.1498597 0.04209,-0.2079342 -0.08218,0.034189 -0.06037,0.037605 -0.115929,0.069477 -0.02011,0.012542 -0.03079,0.01352 -0.04612,0.02025 -0.01472,0.012102 -0.01843,0.028558 -0.02199,0.044954 l 0,0 z m 0.563691,-0.1956319 0.05232,0.038304 0.0399,0.071614 c 0.03067,-0.0135 0.03483,-0.024604 0.0556,-0.031833 0.01003,-0.00627 0.07613,0.00929 0.06079,-0.032313 -0.0059,-0.00487 -0.01175,-0.00971 -0.01761,-0.014538 l -0.0035,0.016436 c -0.01765,-0.014538 -0.04118,-0.03393 -0.06362,-0.042677 -0.02244,-0.00871 -0.09738,-0.00735 -0.123818,-0.005 l 0,0 z m 0.179855,0.02686 c 0.0743,-0.00665 0.06143,-0.02702 0.104007,-0.030814 0.02057,-0.00727 0.05352,5.604e-4 0.07537,0.00396 l -0.003,0.021747 c 0.04473,0.017494 0.04194,-0.00913 0.07493,-0.00136 0.03359,0.013121 0.05415,0.0543 0.109558,0.070776 0.02229,0.00879 0.03359,0.013121 0.05372,5.807e-4 0.01282,0.020351 0.01825,0.019891 0.03946,0.017954 0.0024,-0.02708 0.01777,-0.03385 0.01066,-0.049328 -0.007,-0.015517 -0.06299,-0.037345 -0.06778,0.016855 -0.01889,-0.025223 -0.0089,-0.031493 -0.01578,-0.046931 -0.01889,-0.025223 -0.05664,-0.0272 -0.08268,-0.019491 -0.01099,-0.052742 -0.004,-0.037266 -0.07753,-0.073632 -0.02305,-0.014059 -0.07365,-0.036387 -0.100892,-0.039322 -0.03235,-0.00248 -0.0407,0.019771 -0.0661,0.032812 -0.01422,0.017414 -0.03079,0.0135 -0.04549,0.025583 -0.01426,0.017374 -0.01082,0.049328 -0.0085,0.070616 l 0,0 z m 1.122427,-0.2350735 0.06719,0.07461 c 0.02524,0.035328 0.05044,0.070696 0.08048,0.1002127 0.02353,0.019392 0.05712,0.032512 0.08839,0.024344 0.02073,-0.00725 0.08339,-0.071974 0.03219,-0.099633 -0.01706,-0.00919 -0.04257,0.00383 -0.05836,0.00525 0.0013,-0.037725 -0.0011,-0.059013 -0.01038,-0.095799 -0.0011,-0.010644 -0.0034,-0.031913 -0.02417,-0.024684 -0.02536,0.01304 0.0045,0.090926 -0.03559,0.06766 l -0.01701,-0.00921 -0.01765,-0.014538 c -0.01901,0.023166 0.0034,0.031913 0.02169,0.051763 0.02353,0.019432 0.04162,0.039282 0.04518,0.071195 -0.05772,-0.037844 -0.06111,-0.069718 -0.09826,-0.1147509 -0.02401,-0.024724 -0.04166,-0.039283 -0.07369,-0.036427 l 0,0 z m 0.230461,-0.052882 c 0.01454,0.036286 0.07149,0.1171673 0.110517,0.1297689 -0.02648,-0.045973 -0.06051,-0.1127938 -0.110517,-0.1297689 l 0,0 z M 9.9412896,8.5433998 c 0.015937,-0.00142 0.037225,-0.00333 0.04781,-0.00429 l 0.1385364,0.041299 c 0.03838,0.00731 0.07615,0.00931 0.101371,0.044635 -0.06904,0.00623 -0.05432,-0.00587 -0.10912,-0.017055 -0.04891,-0.00635 -0.06377,0.00573 -0.10153,0.00371 -0.021829,-0.00342 -0.032971,-0.00777 -0.049527,-0.011643 l -0.1422307,0.023486 c -0.037764,-0.00198 -0.045972,-0.028099 -0.068419,-0.036846 -0.022906,-0.014079 -0.043636,-0.00685 -0.063766,0.00573 -0.035907,0.01398 -0.070876,0.038583 -0.1057844,0.063227 -0.065085,0.043416 -0.1401337,0.093163 -0.1869648,0.15647 -0.032572,0.045892 -0.024444,0.072053 -0.057036,0.117946 C 9.3115171,8.9706498 9.2352103,9.0097318 9.183666,9.0788699 9.146301,9.1305739 9.149696,9.1624869 9.135537,9.179901 9.126007,9.191464 9.060387,9.229628 9.044991,9.236358 9.029674,9.243088 9.013737,9.244528 9.003671,9.250837 8.988892,9.262899 8.979986,9.279814 8.971019,9.296749 L 8.918396,9.355183 C 8.904776,9.37789 8.849517,9.4634435 8.846502,9.4852317 8.845182,9.5229557 8.906015,9.5390127 8.873902,9.590237 8.869172,9.596007 8.864452,9.60182 8.859722,9.607651 8.824833,9.632254 8.815468,9.595469 8.788387,9.592534 8.755336,9.584744 8.706208,9.626763 8.6767915,9.602539 8.6585375,9.582688 8.6663465,9.555149 8.6641095,9.53384 c -0.0082,-0.026121 -0.019971,-0.035808 -0.02756,-0.056617 -0.013541,-0.025702 -0.00277,-0.07503 -0.0404,-0.1253755 -0.019331,-0.030475 -0.041699,-0.039222 -0.058953,-1.96e-5 l -0.012541,0.033311 c -0.021049,-0.046432 -0.00915,-0.085134 -0.047531,-0.092484 -0.048888,-0.00631 -0.063826,0.054141 -0.092304,0.088909 -0.071055,0.086992 -0.082877,0.077306 -0.1372977,0.1197637 l -0.072193,0.076348 -0.045033,0.030914 c -0.024225,0.023665 -0.040321,0.073472 -0.052783,0.1068226 l -0.052083,0.2142457 c -0.011383,0.04396 -0.030495,0.1156091 -0.077146,0.1304671 -0.015338,0.0067 -0.063766,0.0057 -0.080262,0.0019 -0.017095,-0.0092 -0.029396,-0.02421 -0.045892,-0.02816 -0.015937,0.0014 -0.058494,0.0052 -0.097956,-0.0127 -0.023525,-0.01933 -0.054639,-0.05957 -0.077086,-0.06824 -0.022367,-0.0089 -0.043636,-0.0069 -0.064844,-0.005 -0.026621,0.0023 -0.063766,0.0057 -0.085594,0.0023 C 7.4412528,9.933705 7.4054848,9.850935 7.3844361,9.804459 7.3768661,9.783649 7.3627681,9.752655 7.3456731,9.74345 7.3221481,9.724058 7.2937501,9.758847 7.2660501,9.7506 7.2442221,9.74717 7.1959331,9.697798 7.1676951,9.684178 c -0.00589,-0.00485 -0.023605,-0.019351 -0.03359,-0.013081 -0.010604,9.216e-4 -0.0137,0.022747 -0.017814,0.03381 -7.607e-4,0.043076 0.011084,0.052743 0.035687,0.082798 0.00587,0.0048 0.024144,0.0247 0.00929,0.03677 -0.024763,0.01833 -0.060511,-0.064425 -0.08837,-0.0243 -0.00419,0.01114 -0.00358,0.01646 -0.00837,0.02221 L 7.0539241,9.823379 7.0282421,9.734351 7.0242821,9.697085 6.9885341,9.614327 6.9447391,9.655865 6.9342751,9.608435 6.9196561,9.572149 C 6.9114561,9.546027 6.8902601,9.547924 6.8701291,9.560446 6.8305081,9.590901 6.8031081,9.636335 6.7783441,9.654667 6.7481691,9.673519 6.7251821,9.659437 6.7045331,9.666669 6.6791501,9.67971 6.6613371,9.71352 6.6535281,9.741119 l -0.04086,0.2185784 c -0.035368,0.1697696 -0.057954,0.2093916 -0.038463,0.3903246 l 0.021509,0.100153 0.02021,0.137897 0.018034,0.06824 0.010664,-9.94e-4 c -0.00743,-0.06918 -0.00525,-0.198348 0.014399,-0.264571 0.019192,-0.07151 0.049847,-0.08506 0.051385,-0.171187 l 0.012701,0.0688 c 0.029017,-0.02958 0.026761,-0.05085 0.067481,-0.07058 0.01354,0.02561 0.019412,0.03049 0.028158,0.06199 0.0082,0.02606 0.010444,0.04735 0.023984,0.07305 0.01348,0.0256 0.024624,0.03001 0.037545,0.05036 0.012382,0.01494 0.02051,0.0411 0.028078,0.06191 0.014719,0.0363 0.026322,0.09442 0.070497,0.106563 0.017274,-0.03917 0.012162,-0.08705 0.012781,-0.130149 0.00417,-0.01114 0.00611,-0.04349 0.016096,-0.04976 0.026002,-0.0078 0.036527,0.0397 0.038223,0.05564 0.015178,0.04164 0.026241,0.09442 0.051464,0.12969 0.026381,0.04605 0.047131,0.03879 0.08164,0.110895 l 0.00781,-0.02754 c 0.014639,0.03628 -0.00378,0.06484 0.036306,0.08807 -0.00231,-0.02129 -0.00665,-0.112214 0.00216,-0.129169 0.00419,-0.01114 0.02013,-0.01254 0.030815,-0.01346 l 0.024763,0.180454 c 0.00224,0.02129 0.010365,0.04745 0.022747,0.06247 0.030016,0.02955 0.064925,0.0049 0.078385,0.03056 l 0.020969,0.0948 c 0.018034,0.06826 0.043196,0.151997 0.071196,0.213906 0.021128,0.04649 0.049227,0.108479 0.085134,0.142849 0.012382,0.01502 0.030575,0.03491 0.051225,0.02762 0.020749,-0.0072 0.012542,-0.03335 0.016097,-0.04975 0.0031,-0.02175 0.013081,-0.02802 0.016716,-0.0445 0.00248,-0.0271 -0.00635,-0.05859 0.00727,-0.08126 -0.00711,0.03289 0.00403,0.03722 0.00751,0.06918 0.00457,0.04256 0.015018,0.09001 0.030256,0.131567 0.022766,0.06253 0.039702,0.120023 0.077865,0.175741 0.025303,0.03536 0.083577,0.07846 0.1188651,0.107562 0.048288,0.04937 0.095879,0.09348 0.1541529,0.136579 l 0.069497,0.04753 0.057715,0.03785 c 0.051245,0.02762 0.056657,-0.02129 0.088529,-0.02409 0.016556,0.0039 0.07475,0.04697 0.092404,0.06153 0.089468,0.08334 0.060051,0.05913 0.1218008,0.134183 l 0.1392949,0.148661 c 0.035907,0.03437 0.080481,0.100292 0.1294695,0.106562 l 0.048988,0.0064 c 0.054799,0.01122 0.1160891,0.03257 0.1733448,0.01663 0.021289,-0.0019 0.036067,-0.01394 0.045573,-0.02554 0.014179,-0.01741 0.022527,-0.03962 0.043815,-0.04156 0.021808,0.0034 0.072513,0.0257 0.094861,0.0345 0.056576,0.0271 0.1366785,0.07367 0.1968102,0.08436 0.060191,0.01076 0.1033878,-0.03612 0.093482,-0.07823 -0.015178,-0.04164 -0.078784,-0.08428 -0.1127537,-0.151058 -0.032892,-0.05612 -0.055638,-0.118565 -0.093263,-0.168951 l -0.086352,-0.105086 -0.051704,-0.08134 -0.025223,-0.03534 c -0.00649,-0.01015 -0.015777,-0.04691 -0.017494,-0.06293 l -0.059113,-0.150518 c -0.026941,-0.0513 -0.080182,-0.04651 -0.1146912,-0.118626 0.024684,0.03001 0.071814,0.0688 0.1053247,0.08188 -0.015157,-0.04164 -0.049148,-0.108422 -0.07445,-0.143789 l -0.05408,-0.05424 c 0.029396,0.02421 0.052922,0.04364 0.091306,0.0509 l 0.011304,-0.04404 c 0.016716,-0.0445 0.032033,-0.05122 0.031653,-0.104925 -0.00441,-0.09093 -0.088389,-0.223111 -0.1003721,-0.334847 -0.0052,-0.04791 0.00557,-0.0972 0.011063,-0.146025 l 0.00147,-0.08613 c -0.00172,-0.01596 0.00772,-0.02764 0.010824,-0.0493 l -9.938e-4,-0.05903 c 0.00719,-0.03289 0.011363,-0.04404 0.00797,-0.07601 l -0.025702,-0.08899 -0.00154,-0.06438 -0.00921,-0.08512 c -0.00689,-0.06384 0.027459,-0.0938 0.033511,-0.137298 0.0031,-0.02181 -0.024464,-0.07847 -0.036306,-0.08813 -0.017095,-0.0092 -0.053621,-5.4e-4 -0.04062,-0.02856 0.013081,-0.02802 0.06129,0.02135 0.073671,0.03637 0.015477,-0.0551 0.00371,-0.06485 -0.00673,-0.1122546 L 8.8821663,9.7667955 c -0.00929,-0.036786 -0.032812,-0.056137 -0.034589,-0.072114 0.00363,-0.016455 0.019571,-0.017894 0.038463,-0.04106 0.019032,-0.023205 0.026781,-0.050765 0.029257,-0.077846 l 9.215e-4,-0.091445 c 0.00597,-0.043515 0.042717,-0.1005516 0.089468,-0.1154899 0.047211,-0.00959 0.09542,0.039781 0.1219602,0.037425 0.026621,-0.00242 0.039622,-0.030416 0.048589,-0.047371 L 9.237526,9.1814558 9.24821,9.18048 c 0.026381,0.046052 0.0541,0.054281 0.089927,0.088689 l 0.030635,0.034869 c 0.00589,0.00483 0.015957,-0.00144 0.026002,-0.00771 0.018892,-0.023186 0.041639,-0.1111963 0.028178,-0.1368586 -0.00759,-0.020809 -0.031114,-0.0402 -0.039322,-0.066322 -0.0017,-0.015977 0.00721,-0.032892 0.016097,-0.049787 0.012542,-0.033391 0.019132,-0.071594 0.043337,-0.09526 0.047989,-0.052662 0.1436286,-0.061269 0.2019027,-0.018113 0.029497,0.024225 0.025782,0.04066 0.038164,0.055678 0.018253,0.019851 0.044794,0.017494 0.053541,0.048948 0.00116,0.010644 -0.00124,0.037725 -0.00487,0.05416 0.00348,0.031932 0.00983,0.042098 -0.00264,0.075449 -0.017794,0.033831 -0.04735,0.057975 -0.059353,0.096658 -0.016635,0.044495 0.010525,0.04745 0.00388,0.085634 -0.011923,0.038703 -0.04094,0.06818 -0.052862,0.106863 -0.0137,0.022727 -0.011363,0.043995 -0.036126,0.062348 -0.02013,0.012522 -0.052623,0.010085 -0.073831,0.011982 -0.031334,0.00817 -0.056177,0.026541 -0.08156,0.039562 0.00108,0.010665 0.00224,0.021268 0.00866,0.031454 0.00881,0.031454 0.035367,0.029058 0.06129,0.021349 0.041939,-0.00909 0.097497,-0.040979 0.1387558,-0.00707 0.035827,0.03443 0.046731,0.1355404 0.077306,0.1703885 0.029396,0.02423 0.050685,0.02233 0.083717,0.03012 0.022367,0.0088 0.039482,0.01795 0.057116,0.03249 0.04118,0.03389 0.028178,0.06194 0.046891,0.08712 0.017654,0.0145 0.033051,0.0079 0.051245,0.02766 l 0.078065,0.1272921 0.0538,-0.04781 c 0.01825,0.01987 0.03954,0.01793 0.04194,-0.0091 -0.0017,-0.01594 -0.01037,-0.04735 -0.01749,-0.06291 0.03591,0.03443 0.03878,0.06105 0.03862,0.109418 0.0012,0.01061 -0.003,0.02175 0.0035,0.03198 0.0023,0.02119 0.0281,0.06191 0.04573,0.07644 0.02299,0.014 0.0383,0.0072 0.05843,-0.0052 0.01841,-0.02848 0.02918,-0.07785 0.05757,-0.112594 0.02376,-0.02902 0.07096,-0.03861 0.113612,-0.09085 -0.01114,-0.0043 -0.04473,-0.01742 -0.04118,-0.03389 0.0084,-0.02221 0.04024,-0.02508 0.06035,-0.03765 0.02958,-0.02414 0.05216,-0.06381 0.05875,-0.10197 l -0.06494,-0.005 -0.0383,-0.0073 -0.05316,0.0048 -0.0523,-0.038324 -0.07553,-0.00398 c 0.013,-0.028018 0.02197,-0.044974 0.05386,-0.04783 0.01594,-0.00144 0.0383,0.00735 0.04837,0.00108 0.02065,-0.00727 0.01833,-0.028558 0.03319,-0.04062 0.0284,-0.034789 0.07026,-0.043916 0.07639,-0.087452 0.04364,0.00681 0.05316,-0.00475 0.07491,-0.00136 0.0448,0.017455 0.05874,0.096818 0.07925,0.1379771 -0.05542,-0.016516 -0.04498,0.030894 -0.0463,0.06862 0.02013,-0.012542 0.04381,-0.041519 0.06447,-0.048769 l 0.06966,-8.793e-4 c 0.01594,-0.00144 0.02065,-0.00721 0.03607,-0.013979 0.03658,-0.00863 0.06073,0.016056 0.08009,0.046551 0.02013,-0.012541 0.01897,-0.023205 0.0061,-0.043536 l 0.02656,-0.00239 -0.01518,-0.041578 c -0.02655,0.00236 -0.03252,-0.00248 -0.04024,0.025063 -0.0229,-0.014039 -0.0229,-0.014039 -0.05006,-0.016995 l 0.01957,-0.017834 -0.0013,-0.010684 c -0.04534,-0.022786 0.0067,-0.038184 0.0144,-0.065763 0.0036,-0.016455 -0.0028,-0.026581 -0.0093,-0.036765 l 0.06678,-0.0275 c 0.0284,-0.034749 0.05254,-0.010065 0.06447,-0.048768 0.0548,0.011223 0.03676,-0.057016 0.07816,-0.071495 0.01,-0.00627 0.02646,-0.00236 0.03714,-0.00333 0.01531,-0.00673 0.03064,-0.01346 0.04611,-0.02023 0.02121,-0.0019 0.03189,-0.00281 0.05246,-0.010105 0.02013,-0.012522 0.03854,-0.04104 0.05278,-0.058414 0.0095,-0.011663 0.02894,-0.029497 0.03313,-0.04064 0.0035,-0.016436 -0.0034,-0.031873 -0.0062,-0.058533 0.02181,0.0034 0.03777,0.00198 0.05184,-0.015397 0.01486,-0.012082 0.01254,-0.033371 -0.0099,-0.042099 -0.0052,4.99e-4 -0.0212,0.00194 -0.02646,0.00239 l 0.07336,-0.065703 0.0144,-0.065783 -0.02075,0.00723 0.0073,-0.032892 -0.05851,0.00528 c 0.0094,-0.011604 0.03792,-0.046392 0.04737,-0.057995 0.02493,-0.018353 0.05201,-0.015398 0.06455,-0.048808 -0.05248,0.010105 -0.117007,0.058873 -0.150138,0.099454 l -0.05171,0.069098 0.0031,-0.021748 c -0.052,0.015437 -0.04861,0.047371 -0.06874,0.059912 l -0.01005,0.00625 c 0.01594,-0.00142 -0.09085,0.0028 -0.07429,0.00671 -0.02716,-0.00295 -0.05658,-0.02716 -0.0801,-0.046592 -0.01772,-0.014518 -0.02995,-0.029516 -0.05006,-0.016955 L 10.7288,8.9833007 c 0.0094,-0.011603 0.01424,-0.017414 0.0024,-0.027121 -0.01176,-0.00969 -0.03947,-0.017953 -0.06245,-0.032013 -0.04126,-0.03389 -0.03932,-0.066322 -0.04452,-0.1142118 -0.0045,-0.042558 -0.0099,-0.042098 -0.02445,-0.078404 -0.007,-0.015518 -0.0082,-0.026141 -0.02059,-0.041159 -0.01231,-0.015018 -0.04116,-0.03389 -0.05881,-0.048448 -0.02353,-0.019352 -0.05292,-0.043596 -0.08008,-0.046552 -0.0383,-0.00727 -0.06788,0.016876 -0.100992,0.00907 -0.0277,-0.00825 -0.06355,-0.042637 -0.09712,-0.055758 -0.02183,-0.00342 -0.04837,-0.00102 -0.06966,8.794e-4 -0.0012,-0.010644 -0.0035,-0.031913 -0.01462,-0.036286 -0.01703,-0.00921 -0.04783,0.00429 -0.06904,0.00619 -0.02127,0.0019 -0.02832,-0.01358 -0.04479,-0.017494 -0.0165,-0.00388 -0.091487,-0.00251 -0.1009917,0.00907 -0.010065,0.00629 -0.00295,0.021768 -0.00186,0.032412 l 0,0 z M 13.7379,7.987818 c 0.0435,0.055198 0.121182,0.1288302 0.186645,0.1390952 -0.01933,-0.030535 -0.0359,-0.034389 -0.05943,-0.053781 -0.03467,-0.023765 -0.09362,-0.072214 -0.127213,-0.085314 l 0,0 z m -0.425334,-0.2143645 -0.01346,-0.025662 c 0.02245,0.00871 0.0449,0.017454 0.05775,0.037804 0.007,0.015477 0.0082,0.026121 0.0099,0.042098 0.0034,0.031933 0.05927,0.1021497 0.09162,0.104586 0.01127,0.00437 0.01066,-9.215e-4 0.02133,-0.0019 L 13.452316,7.825374 c -0.01238,-0.015018 -0.02768,-0.00825 -0.04593,-0.028099 L 13.295871,7.6674691 c -0.0065,-0.010185 -0.03112,-0.0402 -0.02756,-0.056617 0.0094,-0.011603 0.03607,-0.013999 0.04673,-0.014918 l -0.101212,-0.093023 c -0.01178,-0.00971 -0.03003,-0.029556 -0.05077,-0.022327 -0.02061,0.00723 -0.02836,0.034789 -0.03734,0.051684 -0.0089,0.016955 -0.02305,0.034329 -0.02137,0.050306 0.0076,0.020829 0.03175,0.045513 0.04402,0.060511 l 0.09426,0.077506 c 0.02412,0.024723 0.03635,0.039741 0.06994,0.052862 l 0,0 z m 1.377332,-0.010764 c -0.01394,-0.079364 -0.06503,-0.1553516 -0.124895,-0.2144444 l -0.09426,-0.077526 C 14.434355,7.4310176 14.395052,7.3646954 14.341492,7.3157474 14.282698,7.2672986 14.238443,7.2551563 14.18612,7.2168529 L 14.09713,7.1388479 13.938323,7.0080205 c -0.04118,-0.03389 -0.09007,-0.08865 -0.121181,-0.1288102 -0.03175,-0.045533 -0.02277,-0.062448 -0.04102,-0.082299 -0.01238,-0.015018 -0.05712,-0.032512 -0.07892,-0.035907 l 0.0083,-0.022247 -0.03946,-0.017953 c 0.02196,-0.044954 -0.0089,-0.031454 -0.03994,-0.071614 -0.01238,-0.015018 -0.01454,-0.036347 -0.03403,-0.066822 -0.03051,-0.034869 -0.07121,-0.063466 -0.111157,-0.086713 L 13.287171,6.3894308 c -0.06255,-0.031993 -0.148023,-0.078085 -0.218119,-0.082519 -0.05372,-5.602e-4 -0.08807,0.029396 -0.140713,0.039462 -0.04717,0.00963 -0.149181,0.00805 -0.181853,0.053941 -0.03311,0.04058 0.04985,0.1137526 0.07988,0.1433087 l 0.08404,0.083777 c 0.02417,0.024723 0.03112,0.0402 0.05572,0.070216 0.02368,0.019391 0.0695,0.04753 0.08839,0.072673 0.01873,0.025183 -0.01254,0.033391 0.01266,0.068719 0.01937,0.030495 0.06658,0.069258 0.08068,0.1002523 0.0076,0.02081 0.01099,0.052742 0.02864,0.067301 0.01701,0.00921 0.03714,-0.00337 0.05308,-0.00482 0.026,-0.00769 0.102329,-0.046771 0.125215,-0.032691 0.02293,0.014039 0.101211,0.092983 0.119504,0.1128735 0.01175,0.00967 0.03575,0.034349 0.03219,0.050845 0.0029,0.026581 -0.0808,-0.00353 -0.06083,0.032292 0.0065,0.010185 0.05772,0.037804 0.07537,0.052363 l 0.06531,0.058614 0.07585,0.057655 c 0.01765,0.014559 0.03699,0.045034 0.05416,0.054261 0.03359,0.013101 0.05077,-0.026042 0.07972,-0.00717 0.05648,0.02716 0.09702,0.1041668 0.155851,0.1525955 0.03994,0.023266 0.04996,0.016995 0.08356,0.030115 0.02831,0.01358 0.04661,0.03343 0.07537,0.052342 0.04537,0.022786 0.04909,0.00635 0.10201,0.049966 0.07057,0.058114 0.130647,0.1172273 0.191158,0.1816527 0.02412,0.024684 0.08356,0.078465 0.111276,0.086713 0.0052,-4.581e-4 0.01051,-9.215e-4 0.01594,-0.00142 l 0.06083,-0.032313 c 0,0 0.0054,-5.194e-4 0.0048,-0.00581 0.0035,-0.016436 0.0013,-0.037724 0.0048,-0.05418 0.0037,-0.016436 0.01378,-0.022706 0.01673,-0.044495 0.0035,-0.016396 1.64e-4,-0.048369 0.01546,-0.055099 0.0155,-0.00677 0.0449,0.017455 0.05604,0.021828 l 0,0 z M 13.393367,6.379885 c -0.0023,-0.021288 -0.0082,-0.026121 -0.01577,-0.046931 -0.03175,-0.045513 -0.06702,-0.074571 -0.117187,-0.091605 -0.01637,-0.00385 -0.0659,-0.015557 -0.07489,0.00136 -0.01362,0.022707 0.04409,0.060551 0.06111,0.069758 0.01765,0.014518 0.0401,0.023265 0.05775,0.037824 0.03419,0.018413 0.0506,0.022308 0.08899,0.029596 l 0,0 z M 11.312411,5.9325836 c 0.07027,0.00441 0.09674,0.00206 0.163899,0.028238 0.06129,0.021369 0.0972,0.055758 0.167473,0.060211 l -0.07879,-0.084276 0.0449,-0.030875 c -0.02353,-0.019392 -0.03405,-0.018453 -0.05712,-0.032492 -0.01176,-0.00969 -0.01284,-0.020351 -0.0246,-0.030036 -0.01069,9.758e-4 -0.03731,0.00333 -0.04783,0.00429 -0.03141,0.00817 -0.05727,0.015916 -0.09332,0.029876 -0.03143,0.00817 -0.07321,0.017295 -0.07461,0.055059 l 0,0 z m 0.322086,-0.1471034 c -0.0078,0.02754 -0.03375,0.035248 -0.05866,0.053581 0.0059,0.00483 0.0065,0.010185 0.01238,0.015018 0.01718,0.00921 0.104466,0.022866 0.126293,0.026301 0.0537,5.602e-4 0.05556,-0.031833 0.118706,-0.042897 l 0.07908,-0.012462 c 0.07429,-0.00669 0.175821,-0.010405 0.242063,-0.043216 -0.02523,-0.035328 -0.04116,-0.03395 -0.08002,-0.046552 -0.06081,-0.016056 -0.125675,-0.020968 -0.187723,6.994e-4 -0.05727,0.015897 -0.05496,0.037186 -0.12939,0.043876 l -0.12274,0.00566 0,0 z m -1.128299,9.1067928 c -1.2406535,-0.26489 0.252368,0.05257 0,0 l 0,0 z"
         id="path2936"
         inkscape:connector-curvature="0" />
    </g>
  </g>
</svg>
