<?xml version="1.0" encoding="UTF-8" standalone="no"?>
<!-- Created with Inkscape (http://www.inkscape.org/) -->

<svg
   xmlns:dc="http://purl.org/dc/elements/1.1/"
   xmlns:cc="http://creativecommons.org/ns#"
   xmlns:rdf="http://www.w3.org/1999/02/22-rdf-syntax-ns#"
   xmlns:svg="http://www.w3.org/2000/svg"
   xmlns="http://www.w3.org/2000/svg"
   xmlns:xlink="http://www.w3.org/1999/xlink"
   xmlns:sodipodi="http://sodipodi.sourceforge.net/DTD/sodipodi-0.dtd"
   xmlns:inkscape="http://www.inkscape.org/namespaces/inkscape"
   width="16"
   height="16"
   id="svg2"
   sodipodi:version="0.32"
   inkscape:version="0.48.0 r9654"
   version="1.0"
   sodipodi:docname="update-manager.svg"
   inkscape:output_extension="org.inkscape.output.svg.inkscape"
   style="display:inline">
  <defs
     id="defs4">
    <linearGradient
       inkscape:collect="always"
       id="linearGradient3902">
      <stop
         style="stop-color:#ffffff;stop-opacity:1;"
         offset="0"
         id="stop3904" />
      <stop
         style="stop-color:#ffffff;stop-opacity:0;"
         offset="1"
         id="stop3906" />
    </linearGradient>
    <linearGradient
       id="linearGradient3880">
      <stop
         style="stop-color:#6d5131;stop-opacity:1;"
         offset="0"
         id="stop3882" />
      <stop
         style="stop-color:#6d5131;stop-opacity:0;"
         offset="1"
         id="stop3884" />
    </linearGradient>
    <inkscape:perspective
       sodipodi:type="inkscape:persp3d"
       inkscape:vp_x="0 : 8 : 1"
       inkscape:vp_y="0 : 1000 : 0"
       inkscape:vp_z="16 : 8 : 1"
       inkscape:persp3d-origin="8 : 5.3333333 : 1"
       id="perspective26" />
    <linearGradient
       inkscape:collect="always"
       id="linearGradient3327">
      <stop
         style="stop-color:#000000;stop-opacity:1;"
         offset="0"
         id="stop3330" />
      <stop
         style="stop-color:#000000;stop-opacity:0;"
         offset="1"
         id="stop3333" />
    </linearGradient>
    <linearGradient
       id="ButtonColor"
       x1="10.31979"
       y1="21"
       x2="10.31979"
       y2="0.99929649"
       gradientUnits="userSpaceOnUse">
      <stop
         style="stop-color:#e6e6e6;stop-opacity:1;"
         offset="0"
         id="stop3189" />
      <stop
         style="stop-color:#f5f5f5;stop-opacity:1;"
         offset="1"
         id="stop3191" />
    </linearGradient>
    <linearGradient
       inkscape:collect="always"
       xlink:href="#linearGradient3327"
       id="linearGradient3192"
       x1="9.0574636"
       y1="10.202822"
       x2="9.0574636"
       y2="-12.198761"
       gradientUnits="userSpaceOnUse"
       gradientTransform="translate(0,5.8006549)" />
    <linearGradient
       inkscape:collect="always"
       xlink:href="#ButtonColor"
       id="linearGradient3204"
       x1="1"
       y1="9"
       x2="15"
       y2="9"
       gradientUnits="userSpaceOnUse"
       gradientTransform="translate(-16,-1)" />
    <linearGradient
       inkscape:collect="always"
       xlink:href="#ButtonColor"
       id="linearGradient3173"
       gradientUnits="userSpaceOnUse"
       gradientTransform="translate(-16,-1)"
       x1="1"
       y1="9"
       x2="15"
       y2="9" />
    <linearGradient
       inkscape:collect="always"
       xlink:href="#ButtonColor"
       id="linearGradient3177"
       gradientUnits="userSpaceOnUse"
       gradientTransform="translate(-16,-1)"
       x1="1"
       y1="9"
       x2="15"
       y2="9" />
    <linearGradient
       inkscape:collect="always"
       xlink:href="#ButtonColor"
       id="linearGradient3179"
       gradientUnits="userSpaceOnUse"
       gradientTransform="matrix(0,-1,1,0,-1,16)"
       x1="1"
       y1="9"
       x2="15"
       y2="9" />
    <linearGradient
       inkscape:collect="always"
       xlink:href="#linearGradient3327"
       id="linearGradient3612"
       x1="8"
       y1="15"
       x2="8"
       y2="-1"
       gradientUnits="userSpaceOnUse" />
    <inkscape:perspective
       id="perspective3752"
       inkscape:persp3d-origin="0.5 : 0.33333333 : 1"
       inkscape:vp_z="1 : 0.5 : 1"
       inkscape:vp_y="0 : 1000 : 0"
       inkscape:vp_x="0 : 0.5 : 1"
       sodipodi:type="inkscape:persp3d" />
    <linearGradient
       inkscape:collect="always"
       xlink:href="#ButtonColor-5"
       id="linearGradient3204-0"
       x1="1"
       y1="9"
       x2="16.955648"
       y2="9"
       gradientUnits="userSpaceOnUse"
       gradientTransform="translate(-17,-2)" />
    <linearGradient
       id="ButtonColor-5"
       x1="10.31979"
       y1="21"
       x2="10.31979"
       y2="0.99929649"
       gradientUnits="userSpaceOnUse">
      <stop
         style="stop-color:#e6e6e6;stop-opacity:1;"
         offset="0"
         id="stop3189-0" />
      <stop
         style="stop-color:#f5f5f5;stop-opacity:1;"
         offset="1"
         id="stop3191-2" />
    </linearGradient>
    <linearGradient
       y2="-19.30397"
       x2="9.0574636"
       y1="10.202822"
       x1="9.0574636"
       gradientTransform="translate(-0.499722,5.300655)"
       gradientUnits="userSpaceOnUse"
       id="linearGradient2897"
       xlink:href="#linearGradient3327-7"
       inkscape:collect="always" />
    <linearGradient
       inkscape:collect="always"
       id="linearGradient3327-7">
      <stop
         style="stop-color:#000000;stop-opacity:1;"
         offset="0"
         id="stop3330-6" />
      <stop
         style="stop-color:#000000;stop-opacity:0;"
         offset="1"
         id="stop3333-8" />
    </linearGradient>
    <linearGradient
       y2="9"
       x2="16.955648"
       y1="9"
       x1="1"
       gradientTransform="translate(-17,-2)"
       gradientUnits="userSpaceOnUse"
       id="linearGradient3767"
       xlink:href="#linearGradient4289"
       inkscape:collect="always" />
    <inkscape:perspective
       id="perspective2982"
       inkscape:persp3d-origin="0.5 : 0.33333333 : 1"
       inkscape:vp_z="1 : 0.5 : 1"
       inkscape:vp_y="0 : 1000 : 0"
       inkscape:vp_x="0 : 0.5 : 1"
       sodipodi:type="inkscape:persp3d" />
    <linearGradient
       inkscape:collect="always"
       xlink:href="#linearGradient4289"
       id="linearGradient3867"
       gradientUnits="userSpaceOnUse"
       gradientTransform="translate(11.119372,-6.2581977)"
       x1="-3.0607977"
       y1="27.258198"
       x2="-3.0607977"
       y2="7.2536583" />
    <linearGradient
       id="linearGradient4289">
      <stop
         id="stop4291"
         offset="0"
         style="stop-color:#996c3b;stop-opacity:1" />
      <stop
         id="stop4293"
         offset="1"
         style="stop-color:#c19e6d;stop-opacity:1;" />
    </linearGradient>
    <linearGradient
       inkscape:collect="always"
       xlink:href="#linearGradient4309"
       id="linearGradient3889"
       gradientUnits="userSpaceOnUse"
       gradientTransform="matrix(0.2514503,0,0,0.2514503,-42.22951,-5.0793315)"
       x1="50.499405"
       y1="19.881863"
       x2="50.499405"
       y2="47.295406" />
    <linearGradient
       id="linearGradient4309"
       gradientUnits="userSpaceOnUse"
       x1="52.25"
       y1="47.247101"
       x2="52.25"
       y2="0.2393">
      <stop
         offset="0"
         style="stop-color:#d8cab2;stop-opacity:1"
         id="stop4311" />
      <stop
         offset="0.45710954"
         style="stop-color:#d2b98c;stop-opacity:1"
         id="stop4321" />
      <stop
         offset="0.4859"
         style="stop-color:#F9F7EF"
         id="stop4323" />
      <stop
         offset="0.4911"
         style="stop-color:#FFFFFF"
         id="stop4325" />
      <stop
         offset="0.4918"
         style="stop-color:#FBF9F4"
         id="stop4327" />
      <stop
         offset="0.4946"
         style="stop-color:#EFE7D0"
         id="stop4329" />
      <stop
         offset="0.4977"
         style="stop-color:#E4D6B0"
         id="stop4331" />
      <stop
         offset="0.5011"
         style="stop-color:#DAC894"
         id="stop4333" />
      <stop
         offset="0.5049"
         style="stop-color:#c7a572;stop-opacity:1"
         id="stop4335" />
      <stop
         offset="1"
         style="stop-color:#d7c198;stop-opacity:1"
         id="stop4347" />
    </linearGradient>
    <linearGradient
       gradientTransform="matrix(0.23809522,0,0,0.23809522,-40.428572,-6.4761893)"
       inkscape:collect="always"
       xlink:href="#linearGradient4295"
       id="linearGradient2489"
       gradientUnits="userSpaceOnUse"
       x1="48"
       y1="42"
       x2="6.7812738"
       y2="18.202358" />
    <linearGradient
       id="linearGradient4295">
      <stop
         id="stop4297"
         offset="0"
         style="stop-color:#b88f56;stop-opacity:1" />
      <stop
         id="stop4299"
         offset="1"
         style="stop-color:#d9bd98;stop-opacity:1" />
    </linearGradient>
    <linearGradient
       inkscape:collect="always"
       xlink:href="#linearGradient4295"
       id="linearGradient3264"
       gradientUnits="userSpaceOnUse"
       x1="47.226776"
       y1="29.039698"
       x2="6.3304405"
       y2="18.081558"
       gradientTransform="matrix(-0.23809522,0,0,0.23809522,-17.57143,-6.4761893)" />
    <linearGradient
       id="linearGradient3007">
      <stop
         id="stop3009"
         offset="0"
         style="stop-color:#b88f56;stop-opacity:1" />
      <stop
         id="stop3011"
         offset="1"
         style="stop-color:#d9bd98;stop-opacity:1" />
    </linearGradient>
    <linearGradient
       y2="7.2536583"
       x2="-3.0607977"
       y1="27.258198"
       x1="-3.0607977"
       gradientTransform="translate(-28.880628,-12.258198)"
       gradientUnits="userSpaceOnUse"
       id="linearGradient3017"
       xlink:href="#linearGradient4289"
       inkscape:collect="always" />
    <linearGradient
       inkscape:collect="always"
       xlink:href="#linearGradient4289"
       id="linearGradient3859"
       gradientUnits="userSpaceOnUse"
       gradientTransform="translate(-8,-2)"
       x1="1"
       y1="9"
       x2="16.955648"
       y2="9" />
    <linearGradient
       inkscape:collect="always"
       xlink:href="#linearGradient4289"
       id="linearGradient3865"
       gradientUnits="userSpaceOnUse"
       gradientTransform="matrix(0,-1,1,0,-2,8)"
       x1="1"
       y1="9"
       x2="16.955648"
       y2="9" />
    <linearGradient
       inkscape:collect="always"
       xlink:href="#linearGradient4295"
       id="linearGradient3868"
       gradientUnits="userSpaceOnUse"
       gradientTransform="matrix(0,-1,1,0,-2,8)"
       x1="5"
       y1="10"
       x2="5"
       y2="2" />
    <linearGradient
       inkscape:collect="always"
       xlink:href="#linearGradient4295"
       id="linearGradient3872"
       gradientUnits="userSpaceOnUse"
       gradientTransform="matrix(0,-1,-1,0,18,8)"
       x1="5"
       y1="10"
       x2="5"
       y2="2" />
    <linearGradient
       inkscape:collect="always"
       xlink:href="#linearGradient4309"
       id="linearGradient3876"
       gradientUnits="userSpaceOnUse"
       gradientTransform="matrix(0.2514503,0,0,0.2514503,-5.22951,-1.0793315)"
       x1="50.499405"
       y1="16.167381"
       x2="50.499405"
       y2="47.295406" />
    <linearGradient
       inkscape:collect="always"
       xlink:href="#linearGradient3880"
       id="linearGradient3886"
       x1="7.978272"
       y1="7.4889145"
       x2="14"
       y2="7.4889145"
       gradientUnits="userSpaceOnUse"
       spreadMethod="reflect" />
    <inkscape:perspective
       id="perspective3027"
       inkscape:persp3d-origin="0.5 : 0.33333333 : 1"
       inkscape:vp_z="1 : 0.5 : 1"
       inkscape:vp_y="0 : 1000 : 0"
       inkscape:vp_x="0 : 0.5 : 1"
       sodipodi:type="inkscape:persp3d" />
    <linearGradient
       inkscape:collect="always"
       xlink:href="#linearGradient3737"
       id="linearGradient3877"
       gradientUnits="userSpaceOnUse"
       gradientTransform="matrix(-0.25789762,0,0,0.20638289,22.074726,2.1462134)"
       x1="10"
       y1="40.263424"
       x2="10"
       y2="89.666374" />
    <linearGradient
       inkscape:collect="always"
       id="linearGradient3737">
      <stop
         style="stop-color:#ffffff;stop-opacity:1;"
         offset="0"
         id="stop3739" />
      <stop
         style="stop-color:#ffffff;stop-opacity:0;"
         offset="1"
         id="stop3741" />
    </linearGradient>
    <linearGradient
       y2="89.666374"
       x2="10"
       y1="40.263424"
       x1="10"
       gradientTransform="matrix(-0.50000023,0,0,0.15047142,6.0000019,0.58302948)"
       gradientUnits="userSpaceOnUse"
       id="linearGradient3036"
       xlink:href="#linearGradient3737"
       inkscape:collect="always" />
    <linearGradient
       inkscape:collect="always"
       xlink:href="#linearGradient3737"
       id="linearGradient3909"
       gradientUnits="userSpaceOnUse"
       gradientTransform="matrix(-0.50000023,0,0,0.15047142,19.000002,0.58302948)"
       x1="10"
       y1="40.263424"
       x2="10"
       y2="89.666374" />
    <linearGradient
       y2="72.785713"
       x2="90.714287"
       y1="72.785713"
       x1="51.42857"
       gradientUnits="userSpaceOnUse"
       id="linearGradient3226"
       xlink:href="#linearGradient3778"
       inkscape:collect="always" />
    <linearGradient
       id="linearGradient3778">
      <stop
         style="stop-color:#499119;stop-opacity:1;"
         offset="0"
         id="stop3780" />
      <stop
         style="stop-color:#8fd625;stop-opacity:1;"
         offset="1"
         id="stop3782" />
    </linearGradient>
    <linearGradient
       y2="72.785713"
       x2="90.714287"
       y1="72.785713"
       x1="51.42857"
       gradientUnits="userSpaceOnUse"
       id="linearGradient3148"
       xlink:href="#linearGradient3778"
       inkscape:collect="always" />
    <linearGradient
       inkscape:collect="always"
       xlink:href="#linearGradient3187"
       id="linearGradient3875"
       x1="15"
       y1="10.877023"
       x2="15"
       y2="5"
       gradientUnits="userSpaceOnUse"
       gradientTransform="translate(-6,4)" />
    <linearGradient
       inkscape:collect="always"
       xlink:href="#linearGradient3778"
       id="linearGradient3890"
       gradientUnits="userSpaceOnUse"
       gradientTransform="translate(-4,3)"
       x1="15"
       y1="13"
       x2="15"
       y2="5" />
    <linearGradient
       inkscape:collect="always"
       xlink:href="#linearGradient3778"
       id="linearGradient3892"
       gradientUnits="userSpaceOnUse"
       gradientTransform="translate(-4,2)"
       x1="15"
       y1="13"
       x2="15"
       y2="5" />
    <linearGradient
       inkscape:collect="always"
       xlink:href="#linearGradient3902"
       id="linearGradient3908"
       x1="10.146668"
       y1="3.72333"
       x2="10.146668"
       y2="13.832619"
       gradientUnits="userSpaceOnUse" />
    <linearGradient
       inkscape:collect="always"
       xlink:href="#linearGradient3187"
       id="linearGradient3000"
       gradientUnits="userSpaceOnUse"
       gradientTransform="matrix(0.10332655,0,0,0.10344828,9.38004,8.3793103)"
       x1="69"
       y1="122"
       x2="69"
       y2="5.9781809" />
    <linearGradient
       id="linearGradient3187">
      <stop
         style="stop-color:#2890d9;stop-opacity:1;"
         offset="0"
         id="stop3189-7" />
      <stop
         style="stop-color:#81c1e9;stop-opacity:1;"
         offset="1"
         id="stop3191-6" />
    </linearGradient>
    <linearGradient
       inkscape:collect="always"
       xlink:href="#linearGradient3210-5"
       id="linearGradient3002"
       gradientUnits="userSpaceOnUse"
       gradientTransform="matrix(0.10332655,0,0,0.10344828,9.3941633,8.3793103)"
       x1="69"
       y1="122"
       x2="69"
       y2="5.9781809" />
    <linearGradient
       id="linearGradient3210-5">
      <stop
         id="stop3212-7"
         offset="0"
         style="stop-color:#e52424;stop-opacity:1;" />
      <stop
         id="stop3214-3"
         offset="1"
         style="stop-color:#f46f6f;stop-opacity:1;" />
    </linearGradient>
    <linearGradient
       y2="5.9781809"
       x2="69"
       y1="122"
       x1="69"
       gradientTransform="matrix(0.10332655,0,0,0.10344828,9.3941633,8.3793103)"
       gradientUnits="userSpaceOnUse"
       id="linearGradient3188"
       xlink:href="#linearGradient3210-5"
       inkscape:collect="always" />
    <linearGradient
       inkscape:collect="always"
       xlink:href="#linearGradient3210-5"
       id="linearGradient3130"
       gradientUnits="userSpaceOnUse"
       gradientTransform="matrix(-1,0,0,-1,27,16)"
       x1="16.120989"
       y1="5.1575551"
       x2="16.120989"
       y2="10.997293" />
    <linearGradient
       inkscape:collect="always"
       xlink:href="#linearGradient3187"
       id="linearGradient3904"
       gradientUnits="userSpaceOnUse"
       gradientTransform="translate(-6,4)"
       x1="15"
       y1="10.877023"
       x2="15"
       y2="5" />
    <linearGradient
       inkscape:collect="always"
       xlink:href="#linearGradient3187"
       id="linearGradient3910"
       gradientUnits="userSpaceOnUse"
       gradientTransform="translate(-6,5)"
       x1="15"
       y1="10.877023"
       x2="15"
       y2="5" />
    <linearGradient
       inkscape:collect="always"
       xlink:href="#linearGradient3187"
       id="linearGradient3912"
       gradientUnits="userSpaceOnUse"
       gradientTransform="translate(-6,4)"
       x1="15"
       y1="10.877023"
       x2="15"
       y2="5" />
    <linearGradient
       inkscape:collect="always"
       xlink:href="#linearGradient3187"
       id="linearGradient3919"
       gradientUnits="userSpaceOnUse"
       gradientTransform="translate(-6,4)"
       x1="15"
       y1="10.877023"
       x2="15"
       y2="5" />
  </defs>
  <sodipodi:namedview
     id="base"
     pagecolor="#ffffff"
     bordercolor="#e7e7e7"
     borderopacity="1"
     inkscape:pageopacity="0.0"
     inkscape:pageshadow="2"
     inkscape:zoom="17.841381"
     inkscape:cx="-16.601975"
     inkscape:cy="2.4104436"
     inkscape:document-units="px"
     inkscape:current-layer="layer1"
     showgrid="true"
     inkscape:showpageshadow="false"
     showguides="false"
     inkscape:guide-bbox="true"
     inkscape:window-width="1920"
     inkscape:window-height="1026"
     inkscape:window-x="0"
     inkscape:window-y="25"
     inkscape:window-maximized="1"
     inkscape:snap-global="false">
    <sodipodi:guide
       orientation="1,0"
       position="0,112"
       id="guide2383" />
    <sodipodi:guide
       orientation="0,1"
       position="26.278146,128"
       id="guide2385" />
    <sodipodi:guide
       orientation="1,0"
       position="128,54.082119"
       id="guide2387" />
    <sodipodi:guide
       orientation="0,1"
       position="78.156291,0"
       id="guide2389" />
    <sodipodi:guide
       orientation="0,1"
       position="60.863576,64.084768"
       id="guide2391" />
    <inkscape:grid
       type="xygrid"
       id="grid3672"
       visible="true"
       enabled="true" />
  </sodipodi:namedview>
  <metadata
     id="metadata7">
    <rdf:RDF>
      <cc:Work
         rdf:about="">
        <dc:format>image/svg+xml</dc:format>
        <dc:type
           rdf:resource="http://purl.org/dc/dcmitype/StillImage" />
        <dc:title></dc:title>
      </cc:Work>
    </rdf:RDF>
  </metadata>
  <g
     inkscape:label="Button"
     inkscape:groupmode="layer"
     id="layer1">
    <rect
       ry="2"
       rx="2"
       y="0"
       x="-16"
       height="16"
       width="16"
       id="rect3196"
       style="fill:url(#linearGradient3767);fill-opacity:1.0;fill-rule:nonzero;stroke:none;display:inline"
       transform="matrix(0,-1,1,0,0,0)" />
    <path
       sodipodi:nodetypes="ccccc"
       id="path3907"
       d="m 15,6 0,7.895047 c -0.288428,0.0777 -0.627462,0.138899 -1,0.178685 L 14,6 15,6 z"
       style="opacity:0.3;fill:url(#linearGradient3909);fill-opacity:1;fill-rule:nonzero;stroke:none;display:inline" />
    <path
       style="opacity:0.3;fill:url(#linearGradient3036);fill-opacity:1;fill-rule:nonzero;stroke:none;display:inline"
       d="m 2,6 0,7.895047 c -0.2884285,0.0777 -0.6274625,0.138899 -1,0.178685 L 1,6 2,6 z"
       id="path3873"
       sodipodi:nodetypes="ccccc" />
    <path
       id="path3870"
       d="m 14,0 c 1.108,0 2,0.892 2,2 l 0,3 c 0,1.108 -0.892,2 -2,2 L 8,7 8,0 14,0 z"
       style="fill:url(#linearGradient3872);fill-opacity:1;fill-rule:nonzero;stroke:none;display:inline" />
    <path
       style="fill:url(#linearGradient3868);fill-opacity:1;fill-rule:nonzero;stroke:none;display:inline"
       d="M 2 0 C 0.892 0 3.0947467e-18 0.892 0 2 L 0 5 C 0 6.108 0.892 7 2 7 L 8 7 L 8 0 L 2 0 z "
       id="rect3861" />
    <rect
       style="opacity:1;color:#000000;fill:url(#linearGradient3886);fill-opacity:1;fill-rule:nonzero;stroke:none;stroke-width:0.50000000000000000;marker:none;visibility:visible;display:inline;overflow:visible;enable-background:accumulate"
       id="rect3878"
       width="12.038658"
       height="1.0221715"
       x="1.9613416"
       y="6.9778285" />
    <path
       style="fill:url(#linearGradient3876);fill-opacity:1;display:inline"
       d="M 6.061545,0.0220848 6.043325,11.05172 10.017159,10.027301 9.976799,0 6.061545,0.0220848 z"
       id="path3874"
       sodipodi:nodetypes="ccccc" />
    <path
       style="opacity:0.08;fill:#000000;fill-opacity:1;stroke:none;display:inline"
       d="M 11.78125 4.53125 C 11.582061 4.61077 11.375415 4.7746995 11.25 4.90625 L 8.34375 7.84375 C 8.188075 7.9392292 8.0762974 8.1927183 8.0625 8.40625 C 8.06783 8.6640778 7.6154051 8.454631 7.46875 8.65625 C 7.2292513 8.7924722 7.1215257 9.0538298 7.03125 9.28125 L 7.03125 11.53125 L 5.84375 11.53125 C 5.6410034 11.613 5.414261 11.69074 5.28125 11.875 C 5.1415502 12.01471 5.0559287 12.235146 5.0625 12.46875 C 5.036454 12.71376 5.138165 12.905852 5.25 13.09375 C 5.5173905 13.295715 5.7888892 13.616867 6.0625 13.875 L 8.1875 16 L 9.8125 16 L 12.65625 13.15625 C 12.811925 13.06077 12.923703 12.807282 12.9375 12.59375 C 12.95475 12.333394 13.438485 12.5213 13.59375 12.28125 C 13.839023 12.071304 13.978558 11.810914 13.96875 11.5 L 13.96875 9.46875 L 15.15625 9.46875 C 15.358997 9.3870031 15.585739 9.30926 15.71875 9.125 C 15.85845 8.9852897 15.944071 8.7648542 15.9375 8.53125 C 15.963546 8.2862396 15.861835 8.0941482 15.75 7.90625 C 15.48294 7.7039563 15.209949 7.3842886 14.9375 7.125 L 12.6875 4.84375 C 12.478516 4.6444409 12.142035 4.4875624 11.8125 4.53125 L 11.78125 4.53125 z "
       id="path3930" />
    <path
       style="opacity:0.4;fill:url(#linearGradient2897);fill-opacity:1;fill-rule:nonzero;stroke:none;display:inline"
       d="M 2,0 C 0.892,0 0,0.892 0,2 l 0,12 c 0,1.108 0.892,2 2,2 l 12,0 c 1.108,0 2,-0.892 2,-2 L 16,2 C 16,0.892 15.108,0 14,0 L 2,0 z m 0.5,1 11,0 C 14.331,1 15,1.669 15,2.5 l 0,11 c 0,0.831 -0.669,1.5 -1.5,1.5 l -11,0 C 1.669,15 1,14.331 1,13.5 L 1,2.5 C 1,1.669 1.669,1 2.5,1 z"
       id="rect2410" />
    <path
       style="opacity:0.2;fill:#ffffff;fill-opacity:1;stroke:none;display:inline"
       d="M 2.5,1 C 1.669,1 1,1.669 1,2.5 l 0,1 C 1,2.669 1.669,2 2.5,2 l 11,0 C 14.331,2 15,2.669 15,3.5 l 0,-1 C 15,1.669 14.331,1 13.5,1 l -11,0 z"
       id="rect3770" />
    <path
       sodipodi:type="inkscape:offset"
       inkscape:radius="0.46219581"
       inkscape:original="M 12 5.5 L 9 8.5 L 11 8.5 L 11 11.5 L 13 11.5 L 13 8.5 L 15 8.5 L 12 5.5 z M 8 9.5 L 8 12.5 L 6 12.5 L 9 15.5 L 12 12.5 L 10 12.5 L 10 9.5 L 8 9.5 z "
       style="opacity:0.15;fill:#000000;fill-opacity:1;stroke:none;display:inline"
       id="path3926"
       d="m 11.9375,5.03125 a 0.46224203,0.46224203 0 0 0 -0.25,0.15625 l -3,3 A 0.46224203,0.46224203 0 0 0 9,8.96875 l 1.53125,0 0,2.53125 A 0.46224203,0.46224203 0 0 0 11,11.96875 l 2,0 A 0.46224203,0.46224203 0 0 0 13.46875,11.5 l 0,-2.53125 1.53125,0 A 0.46224203,0.46224203 0 0 0 15.3125,8.1875 l -3,-3 a 0.46224203,0.46224203 0 0 0 -0.375,-0.15625 z m -3.96875,4 A 0.46224203,0.46224203 0 0 0 7.53125,9.5 l 0,2.53125 -1.53125,0 A 0.46224203,0.46224203 0 0 0 5.6875,12.8125 l 3,3 a 0.46224203,0.46224203 0 0 0 0.625,0 l 3,-3 A 0.46224203,0.46224203 0 0 0 12,12.03125 l -1.53125,0 0,-2.53125 A 0.46224203,0.46224203 0 0 0 10,9.03125 l -2,0 a 0.46224203,0.46224203 0 0 0 -0.03125,0 z" />
    <path
       style="fill:#000000;fill-opacity:1;stroke:none;display:inline;opacity:0.3"
       d="m 12,5.5044453 -3,3 2,0 0,2.9999997 2,0 0,-2.9999997 2,0 -3,-3 z m -4,4 0,2.9999997 -2,0 3,3 3,-3 -2,0 0,-2.9999997 -2,0 z"
       id="path3915"
       inkscape:connector-curvature="0" />
    <path
       inkscape:connector-curvature="0"
       style="fill:url(#linearGradient3875);fill-opacity:1.0;stroke:none;display:inline"
       d="m 8,9 0,3 -2,0 3,3 3,-3 -2,0 0,-3 z"
       id="rect3936"
       sodipodi:nodetypes="cccccccc" />
    <path
       sodipodi:nodetypes="cccccccc"
       id="path3128"
       d="m 13,11 0,-3 2,0 -3,-3 -3,3 2,0 0,3 z"
       style="fill:url(#linearGradient3130);fill-opacity:1;stroke:none;display:inline"
       inkscape:connector-curvature="0" />
    <path
       style="fill:#ffffff;fill-opacity:1;stroke:none;display:inline;opacity:0.2"
       d="M 12 5 L 9 8 L 10 8 L 12 6 L 14 8 L 15 8 L 12 5 z M 8 9 L 8 10 L 10 10 L 10 9 L 9 9 L 8 9 z M 6 12 L 7 13 L 8 13 L 8 12 L 6 12 z M 10 12 L 10 13 L 11 13 L 12 12 L 11 12 L 10 12 z "
       id="path3900" />
  </g>
  <g
     inkscape:groupmode="layer"
     id="layer2"
     inkscape:label="Symbol"
     sodipodi:insensitive="true" />
</svg>
