<?xml version="1.0" encoding="UTF-8" standalone="no"?>
<!-- Created with Inkscape (http://www.inkscape.org/) -->

<svg
   xmlns:dc="http://purl.org/dc/elements/1.1/"
   xmlns:cc="http://creativecommons.org/ns#"
   xmlns:rdf="http://www.w3.org/1999/02/22-rdf-syntax-ns#"
   xmlns:svg="http://www.w3.org/2000/svg"
   xmlns="http://www.w3.org/2000/svg"
   xmlns:xlink="http://www.w3.org/1999/xlink"
   xmlns:sodipodi="http://sodipodi.sourceforge.net/DTD/sodipodi-0.dtd"
   xmlns:inkscape="http://www.inkscape.org/namespaces/inkscape"
   width="96"
   height="96"
   id="svg2408"
   sodipodi:version="0.32"
   inkscape:version="0.47 r22583"
   version="1.0"
   sodipodi:docname="applications-graphics.svg"
   inkscape:output_extension="org.inkscape.output.svg.inkscape">
  <defs
     id="defs2410">
    <linearGradient
       inkscape:collect="always"
       id="linearGradient3810">
      <stop
         style="stop-color:#000000;stop-opacity:1;"
         offset="0"
         id="stop3812" />
      <stop
         style="stop-color:#000000;stop-opacity:0;"
         offset="1"
         id="stop3814" />
    </linearGradient>
    <linearGradient
       id="ButtonShadow"
       gradientTransform="scale(1.0058652,0.994169)"
       x1="45.447727"
       y1="92.539597"
       x2="45.447727"
       y2="7.0165396"
       gradientUnits="userSpaceOnUse">
      <stop
         style="stop-color:#000000;stop-opacity:1;"
         offset="0"
         id="stop3750" />
      <stop
         style="stop-color:#000000;stop-opacity:0.58823532;"
         offset="1"
         id="stop3752" />
    </linearGradient>
    <linearGradient
       inkscape:collect="always"
       id="linearGradient3737">
      <stop
         style="stop-color:#ffffff;stop-opacity:1;"
         offset="0"
         id="stop3739" />
      <stop
         style="stop-color:#ffffff;stop-opacity:0;"
         offset="1"
         id="stop3741" />
    </linearGradient>
    <linearGradient
       id="linearGradient3700">
      <stop
         style="stop-color:#2276c5;stop-opacity:1;"
         offset="0"
         id="stop3702" />
      <stop
         style="stop-color:#68baf4;stop-opacity:1;"
         offset="1"
         id="stop3704" />
    </linearGradient>
    <inkscape:perspective
       sodipodi:type="inkscape:persp3d"
       inkscape:vp_x="0 : 526.18109 : 1"
       inkscape:vp_y="0 : 1000 : 0"
       inkscape:vp_z="744.09448 : 526.18109 : 1"
       inkscape:persp3d-origin="372.04724 : 350.78739 : 1"
       id="perspective2416" />
    <linearGradient
       inkscape:collect="always"
       xlink:href="#linearGradient3700"
       id="linearGradient3706"
       x1="48"
       y1="90"
       x2="48"
       y2="5.9877172"
       gradientUnits="userSpaceOnUse" />
    <linearGradient
       inkscape:collect="always"
       xlink:href="#linearGradient3737"
       id="linearGradient3743"
       x1="36.357143"
       y1="6"
       x2="36.357143"
       y2="63.893143"
       gradientUnits="userSpaceOnUse" />
    <filter
       inkscape:collect="always"
       id="filter3174">
      <feGaussianBlur
         inkscape:collect="always"
         stdDeviation="1.71"
         id="feGaussianBlur3176" />
    </filter>
    <linearGradient
       inkscape:collect="always"
       xlink:href="#linearGradient3737"
       id="linearGradient3188"
       gradientUnits="userSpaceOnUse"
       x1="36.357143"
       y1="6"
       x2="36.357143"
       y2="63.893143" />
    <filter
       inkscape:collect="always"
       id="filter3794"
       x="-0.192"
       width="1.384"
       y="-0.192"
       height="1.384">
      <feGaussianBlur
         inkscape:collect="always"
         stdDeviation="5.28"
         id="feGaussianBlur3796" />
    </filter>
    <linearGradient
       inkscape:collect="always"
       xlink:href="#linearGradient3737"
       id="linearGradient3613"
       x1="48"
       y1="20.220806"
       x2="48"
       y2="138.66119"
       gradientUnits="userSpaceOnUse" />
    <radialGradient
       inkscape:collect="always"
       xlink:href="#linearGradient3737"
       id="radialGradient3619"
       cx="48"
       cy="90.171875"
       fx="48"
       fy="90.171875"
       r="42"
       gradientTransform="matrix(1.1573129,0,0,0.99590774,-7.5510206,0.19713193)"
       gradientUnits="userSpaceOnUse" />
    <clipPath
       clipPathUnits="userSpaceOnUse"
       id="clipPath3613">
      <rect
         ry="6"
         rx="6"
         y="6"
         x="6"
         height="84"
         width="84"
         id="rect3615"
         style="fill:#ffffff;fill-opacity:1;fill-rule:nonzero;stroke:none" />
    </clipPath>
    <inkscape:perspective
       id="perspective4546"
       inkscape:persp3d-origin="0.5 : 0.33333333 : 1"
       inkscape:vp_z="1 : 0.5 : 1"
       inkscape:vp_y="0 : 1000 : 0"
       inkscape:vp_x="0 : 0.5 : 1"
       sodipodi:type="inkscape:persp3d" />
    <inkscape:perspective
       id="perspective2870"
       inkscape:persp3d-origin="0.5 : 0.33333333 : 1"
       inkscape:vp_z="1 : 0.5 : 1"
       inkscape:vp_y="0 : 1000 : 0"
       inkscape:vp_x="0 : 0.5 : 1"
       sodipodi:type="inkscape:persp3d" />
    <inkscape:perspective
       id="perspective3666"
       inkscape:persp3d-origin="0.5 : 0.33333333 : 1"
       inkscape:vp_z="1 : 0.5 : 1"
       inkscape:vp_y="0 : 1000 : 0"
       inkscape:vp_x="0 : 0.5 : 1"
       sodipodi:type="inkscape:persp3d" />
    <linearGradient
       inkscape:collect="always"
       xlink:href="#linearGradient6162"
       id="linearGradient6168"
       x1="65.074471"
       y1="120.92553"
       x2="65.074471"
       y2="5.9354687"
       gradientUnits="userSpaceOnUse"
       gradientTransform="matrix(1.0172414,0,0,1.0172414,-1.1034483,-1.1034483)" />
    <linearGradient
       id="linearGradient6162">
      <stop
         style="stop-color:#000000;stop-opacity:0.19607843;"
         offset="0"
         id="stop6164" />
      <stop
         id="stop6170"
         offset="0.5"
         style="stop-color:#808080;stop-opacity:0;" />
      <stop
         style="stop-color:#ffffff;stop-opacity:0.39215687;"
         offset="1"
         id="stop6166" />
    </linearGradient>
    <linearGradient
       y2="5.9354687"
       x2="65.074471"
       y1="120.92553"
       x1="65.074471"
       gradientTransform="matrix(1.0172414,0,0,1.0172414,-178.31773,-56.603448)"
       gradientUnits="userSpaceOnUse"
       id="linearGradient3676"
       xlink:href="#linearGradient6162"
       inkscape:collect="always" />
    <linearGradient
       inkscape:collect="always"
       xlink:href="#linearGradient6162"
       id="linearGradient3751"
       x1="6"
       y1="48"
       x2="90"
       y2="48"
       gradientUnits="userSpaceOnUse"
       gradientTransform="translate(-96,-96)" />
    <radialGradient
       inkscape:collect="always"
       xlink:href="#linearGradient3810"
       id="radialGradient3816"
       cx="47.84375"
       cy="47.90625"
       fx="47.84375"
       fy="47.90625"
       r="59.40625"
       gradientUnits="userSpaceOnUse" />
    <clipPath
       clipPathUnits="userSpaceOnUse"
       id="clipPath3820">
      <rect
         style="fill:#ffffff;fill-opacity:1;fill-rule:nonzero;stroke:none"
         id="rect3822"
         width="84"
         height="84"
         x="6"
         y="6"
         rx="6"
         ry="6" />
    </clipPath>
    <inkscape:perspective
       id="perspective3770"
       inkscape:persp3d-origin="0.5 : 0.33333333 : 1"
       inkscape:vp_z="1 : 0.5 : 1"
       inkscape:vp_y="0 : 1000 : 0"
       inkscape:vp_x="0 : 0.5 : 1"
       sodipodi:type="inkscape:persp3d" />
    <linearGradient
       y2="90.238609"
       x2="32.251034"
       y1="6.1317081"
       x1="32.251034"
       gradientTransform="matrix(1.0238095,0,0,1.0119048,-1.1428571,-98.071429)"
       gradientUnits="userSpaceOnUse"
       id="linearGradient3026"
       xlink:href="#ButtonShadow-0"
       inkscape:collect="always" />
    <linearGradient
       id="ButtonShadow-0"
       gradientTransform="matrix(1.0058652,0,0,0.994169,100,0)"
       x1="45.447727"
       y1="92.539597"
       x2="45.447727"
       y2="7.0165396"
       gradientUnits="userSpaceOnUse">
      <stop
         style="stop-color:#000000;stop-opacity:1;"
         offset="0"
         id="stop3750-8" />
      <stop
         style="stop-color:#000000;stop-opacity:0.58823532;"
         offset="1"
         id="stop3752-5" />
    </linearGradient>
    <linearGradient
       inkscape:collect="always"
       xlink:href="#ButtonShadow-0"
       id="linearGradient3780"
       gradientUnits="userSpaceOnUse"
       gradientTransform="matrix(1.0238095,0,0,1.0119048,-1.1428571,-98.071429)"
       x1="32.251034"
       y1="6.1317081"
       x2="32.251034"
       y2="90.238609" />
    <linearGradient
       id="linearGradient3779"
       gradientTransform="matrix(1.0058652,0,0,0.994169,100,0)"
       x1="45.447727"
       y1="92.539597"
       x2="45.447727"
       y2="7.0165396"
       gradientUnits="userSpaceOnUse">
      <stop
         style="stop-color:#000000;stop-opacity:1;"
         offset="0"
         id="stop3781" />
      <stop
         style="stop-color:#000000;stop-opacity:0.58823532;"
         offset="1"
         id="stop3783" />
    </linearGradient>
    <linearGradient
       inkscape:collect="always"
       xlink:href="#ButtonShadow-0"
       id="linearGradient3772"
       gradientUnits="userSpaceOnUse"
       gradientTransform="matrix(1.0238095,0,0,1.0119048,-1.1428571,-98.071429)"
       x1="32.251034"
       y1="6.1317081"
       x2="32.251034"
       y2="90.238609" />
    <linearGradient
       id="linearGradient3786"
       gradientTransform="matrix(1.0058652,0,0,0.994169,100,0)"
       x1="45.447727"
       y1="92.539597"
       x2="45.447727"
       y2="7.0165396"
       gradientUnits="userSpaceOnUse">
      <stop
         style="stop-color:#000000;stop-opacity:1;"
         offset="0"
         id="stop3788" />
      <stop
         style="stop-color:#000000;stop-opacity:0.58823532;"
         offset="1"
         id="stop3790" />
    </linearGradient>
    <linearGradient
       inkscape:collect="always"
       xlink:href="#ButtonShadow-0"
       id="linearGradient3725"
       gradientUnits="userSpaceOnUse"
       gradientTransform="matrix(1.0238095,0,0,1.0119048,-1.1428571,-98.071429)"
       x1="32.251034"
       y1="6.1317081"
       x2="32.251034"
       y2="90.238609" />
    <linearGradient
       id="linearGradient3793"
       gradientTransform="matrix(1.0058652,0,0,0.994169,100,0)"
       x1="45.447727"
       y1="92.539597"
       x2="45.447727"
       y2="7.0165396"
       gradientUnits="userSpaceOnUse">
      <stop
         style="stop-color:#000000;stop-opacity:1;"
         offset="0"
         id="stop3795" />
      <stop
         style="stop-color:#000000;stop-opacity:0.58823532;"
         offset="1"
         id="stop3797" />
    </linearGradient>
    <linearGradient
       inkscape:collect="always"
       xlink:href="#ButtonShadow-0"
       id="linearGradient3721"
       gradientUnits="userSpaceOnUse"
       gradientTransform="translate(0,-97)"
       x1="32.251034"
       y1="6.1317081"
       x2="32.251034"
       y2="90.238609" />
    <linearGradient
       id="linearGradient3800"
       gradientTransform="matrix(1.0058652,0,0,0.994169,100,0)"
       x1="45.447727"
       y1="92.539597"
       x2="45.447727"
       y2="7.0165396"
       gradientUnits="userSpaceOnUse">
      <stop
         style="stop-color:#000000;stop-opacity:1;"
         offset="0"
         id="stop3802" />
      <stop
         style="stop-color:#000000;stop-opacity:0.58823532;"
         offset="1"
         id="stop3804" />
    </linearGradient>
    <linearGradient
       y2="90.238609"
       x2="32.251034"
       y1="6.1317081"
       x1="32.251034"
       gradientTransform="matrix(1.0238095,0,0,1.0119048,-1.1428571,-98.071429)"
       gradientUnits="userSpaceOnUse"
       id="linearGradient3811"
       xlink:href="#ButtonShadow-0"
       inkscape:collect="always" />
  </defs>
  <sodipodi:namedview
     id="base"
     pagecolor="#ffffff"
     bordercolor="#666666"
     borderopacity="1.0"
     inkscape:pageopacity="0.0"
     inkscape:pageshadow="2"
     inkscape:zoom="3.0398929"
     inkscape:cx="-28.502075"
     inkscape:cy="22.860464"
     inkscape:document-units="px"
     inkscape:current-layer="layer1"
     showgrid="false"
     showborder="true"
     inkscape:showpageshadow="false"
     inkscape:window-width="1920"
     inkscape:window-height="1024"
     inkscape:window-x="0"
     inkscape:window-y="25"
     inkscape:window-maximized="1">
    <inkscape:grid
       type="xygrid"
       id="grid3732"
       visible="true"
       enabled="true" />
  </sodipodi:namedview>
  <metadata
     id="metadata2413">
    <rdf:RDF>
      <cc:Work
         rdf:about="">
        <dc:format>image/svg+xml</dc:format>
        <dc:type
           rdf:resource="http://purl.org/dc/dcmitype/StillImage" />
      </cc:Work>
    </rdf:RDF>
  </metadata>
  <g
     inkscape:groupmode="layer"
     id="layer2"
     inkscape:label="Blur Shadow"
     sodipodi:insensitive="true"
     style="display:none">
    <rect
       style="opacity:0.9;fill:url(#ButtonShadow);fill-opacity:1;fill-rule:nonzero;stroke:none;filter:url(#filter3174)"
       id="rect3745"
       width="86"
       height="85"
       x="5"
       y="7"
       rx="6"
       ry="6" />
  </g>
  <g
     inkscape:groupmode="layer"
     id="layer3"
     inkscape:label="Shadow"
     style="display:inline"
     sodipodi:insensitive="true">
    <path
       sodipodi:type="inkscape:offset"
       inkscape:radius="0.99097413"
       inkscape:original="M 12 -94.03125 C 7.028367 -94.03125 2.96875 -89.971633 2.96875 -85 L 2.96875 -14 C 2.96875 -9.0283671 7.0283671 -4.96875 12 -4.96875 L 84 -4.96875 C 88.971633 -4.96875 93.03125 -9.028367 93.03125 -14 L 93.03125 -85 C 93.03125 -89.971633 88.971633 -94.03125 84 -94.03125 L 12 -94.03125 z "
       style="opacity:0.07999998;fill:url(#linearGradient3811);fill-opacity:1;fill-rule:nonzero;stroke:none;display:inline"
       id="path3786"
       d="m 12,-95.03125 c -5.5110903,0 -10.03125,4.52016 -10.03125,10.03125 l 0,71 c 0,5.5110902 4.5201598,10.03125 10.03125,10.03125 l 72,0 c 5.51109,0 10.03125,-4.5201597 10.03125,-10.03125 l 0,-71 c 0,-5.51109 -4.52016,-10.03125 -10.03125,-10.03125 l -72,0 z"
       transform="scale(1,-1)" />
    <path
       sodipodi:type="inkscape:offset"
       inkscape:radius="1.0360184"
       inkscape:original="M 12 -93 C 7.5908667 -93 4 -89.409133 4 -85 L 4 -14 C 4 -9.5908667 7.5908667 -6 12 -6 L 84 -6 C 88.409133 -6 92 -9.5908667 92 -14 L 92 -85 C 92 -89.409133 88.409133 -93 84 -93 L 12 -93 z "
       style="opacity:0.1;fill:url(#linearGradient3780);fill-opacity:1;fill-rule:nonzero;stroke:none;display:inline"
       id="path3778"
       d="m 12,-94.03125 c -4.971633,0 -9.03125,4.059617 -9.03125,9.03125 l 0,71 c 0,4.9716329 4.0596171,9.03125 9.03125,9.03125 l 72,0 c 4.971633,0 9.03125,-4.059617 9.03125,-9.03125 l 0,-71 c 0,-4.971633 -4.059617,-9.03125 -9.03125,-9.03125 l -72,0 z"
       transform="scale(1,-1)" />
    <path
       sodipodi:type="inkscape:offset"
       inkscape:radius="0.98962283"
       inkscape:original="M 12 -92 C 8.122 -92 5 -88.878 5 -85 L 5 -14 C 5 -10.122 8.122 -7 12 -7 L 84 -7 C 87.878 -7 91 -10.122 91 -14 L 91 -85 C 91 -88.878 87.878 -92 84 -92 L 12 -92 z "
       style="opacity:0.2;fill:url(#linearGradient3772);fill-opacity:1;fill-rule:nonzero;stroke:none;display:inline"
       id="path3770"
       d="m 12,-93 c -4.4091333,0 -8,3.590867 -8,8 l 0,71 c 0,4.4091333 3.5908667,8 8,8 l 72,0 c 4.409133,0 8,-3.5908667 8,-8 l 0,-71 c 0,-4.409133 -3.590867,-8 -8,-8 l -72,0 z"
       transform="scale(1,-1)" />
    <rect
       style="opacity:0.3;fill:url(#linearGradient3725);fill-opacity:1;fill-rule:nonzero;stroke:none;display:inline"
       id="rect3723"
       width="86"
       height="85"
       x="5"
       y="-92"
       rx="7"
       ry="7"
       transform="scale(1,-1)" />
    <rect
       transform="scale(1,-1)"
       ry="6"
       rx="6"
       y="-91"
       x="6"
       height="84"
       width="84"
       id="rect3716"
       style="opacity:0.45;fill:url(#linearGradient3721);fill-opacity:1;fill-rule:nonzero;stroke:none;display:inline" />
  </g>
  <g
     inkscape:label="Button"
     inkscape:groupmode="layer"
     id="layer1">
    <path
       style="fill:#00df16;fill-opacity:1;stroke:none"
       d="M 48.15625 48 C 40.522056 61.222815 38.517276 76.131201 41.34375 90 L 65.3125 90 C 54.704845 79.173469 48.15625 64.360862 48.15625 48 z "
       id="path4500" />
    <path
       style="fill:#04abcf;fill-opacity:1;stroke:none"
       d="M 48.15625 48.09375 C 32.053458 57.390702 21.877818 73.003621 18.96875 90 L 41.28125 90 C 38.471807 76.156411 40.534518 61.294963 48.15625 48.09375 z "
       id="path4516" />
    <path
       style="fill:#1a36d8;fill-opacity:1;stroke:none"
       d="M 48.09375 48.15625 C 31.700952 48.15625 16.837995 54.699487 6 65.34375 L 6 84 C 6 87.324 8.676 90 12 90 L 18.9375 90 C 21.857978 73.02835 32.010051 57.442167 48.09375 48.15625 z "
       id="path4518" />
    <path
       style="fill:#370099;fill-opacity:1;stroke:none"
       d="M 17.46875 40.125 C 13.600906 40.160372 9.7679064 40.575847 6 41.34375 L 6 65.3125 C 16.82653 54.704838 31.639138 48.156243 48 48.15625 C 38.369596 42.596132 27.837551 40.030176 17.46875 40.125 z "
       id="path4520" />
    <path
       style="fill:#650199;fill-opacity:1;stroke:none"
       d="M 6 18.96875 L 6 41.28125 C 19.843588 38.471804 34.705036 40.534497 47.90625 48.15625 C 38.609296 32.053458 22.996379 21.877817 6 18.96875 z "
       id="path4522" />
    <path
       style="fill:#9c009b;fill-opacity:1;stroke:none"
       d="M 12 6 C 8.676 6 6 8.676 6 12 L 6 18.9375 C 22.971655 21.857977 38.55784 32.010046 47.84375 48.09375 C 47.84375 31.700952 41.300515 16.837998 30.65625 6 L 12 6 z "
       id="path4524" />
    <path
       style="fill:#d10737;fill-opacity:1;stroke:none"
       d="M 30.6875 6 C 41.295161 16.826531 47.843768 31.639131 47.84375 48 C 55.477944 34.777185 57.482721 19.868799 54.65625 6 L 30.6875 6 z "
       id="path4526" />
    <path
       style="fill:#fd0005;fill-opacity:1;stroke:none"
       d="M 54.71875 6 C 57.528198 19.843588 55.465491 34.70503 47.84375 47.90625 C 63.946552 38.609282 74.122183 22.996381 77.03125 6 L 54.71875 6 z "
       id="path4528" />
    <path
       style="fill:#ff6500;fill-opacity:1;stroke:none"
       d="M 77.0625 6 C 74.142007 22.971661 63.98996 38.557833 47.90625 47.84375 C 64.29906 47.843743 79.162002 41.300514 90 30.65625 L 90 12 C 90 8.676 87.324 6 84 6 L 77.0625 6 z "
       id="path4530" />
    <path
       style="fill:#fdad00;fill-opacity:1;stroke:none"
       d="M 90 30.6875 C 79.173468 41.295163 64.360869 47.843757 48 47.84375 C 61.222825 55.477942 76.131197 57.482724 90 54.65625 L 90 30.6875 z "
       id="path4532" />
    <path
       style="fill:#fffd01;fill-opacity:1;stroke:none"
       d="M 48.09375 47.84375 C 57.390714 63.946567 73.003616 74.122186 90 77.03125 L 90 54.71875 C 76.156412 57.528197 61.294972 55.465501 48.09375 47.84375 z "
       id="path4534" />
    <path
       style="fill:#b6fd00;fill-opacity:1;stroke:none"
       d="M 48.15625 47.90625 C 48.15625 64.299062 54.69948 79.162003 65.34375 90 L 84 90 C 87.324 90 90 87.324 90 84 L 90 77.0625 C 73.028335 74.142023 57.44217 63.989954 48.15625 47.90625 z "
       id="path4536" />
    <path
       style="opacity:0.5;fill:url(#linearGradient3188);fill-opacity:1;fill-rule:nonzero;stroke:none"
       d="M 12,6 C 8.676,6 6,8.676 6,12 l 0,2 0,68 0,2 c 0,0.334721 0.04135,0.6507 0.09375,0.96875 0.0487,0.295596 0.09704,0.596915 0.1875,0.875 0.00988,0.03038 0.020892,0.0636 0.03125,0.09375 0.098865,0.287771 0.2348802,0.547452 0.375,0.8125 0.1445918,0.273507 0.3156161,0.535615 0.5,0.78125 0.1843839,0.245635 0.3737765,0.473472 0.59375,0.6875 0.439947,0.428056 0.94291,0.814526 1.5,1.09375 0.278545,0.139612 0.5734731,0.246947 0.875,0.34375 -0.2562018,-0.100222 -0.4867109,-0.236272 -0.71875,-0.375 -0.00741,-0.0044 -0.023866,0.0045 -0.03125,0 -0.031933,-0.0193 -0.062293,-0.04251 -0.09375,-0.0625 -0.120395,-0.0767 -0.2310226,-0.163513 -0.34375,-0.25 -0.1061728,-0.0808 -0.2132809,-0.161112 -0.3125,-0.25 C 8.4783201,88.557317 8.3087904,88.373362 8.15625,88.1875 8.0486711,88.057245 7.9378561,87.922215 7.84375,87.78125 7.818661,87.74287 7.805304,87.69538 7.78125,87.65625 7.716487,87.553218 7.6510225,87.451733 7.59375,87.34375 7.4927417,87.149044 7.3880752,86.928049 7.3125,86.71875 7.30454,86.69694 7.288911,86.6782 7.28125,86.65625 7.2494249,86.5643 7.2454455,86.469419 7.21875,86.375 7.1884177,86.268382 7.1483606,86.171969 7.125,86.0625 7.0521214,85.720988 7,85.364295 7,85 L 7,83 7,15 7,13 C 7,10.218152 9.2181517,8 12,8 l 2,0 68,0 2,0 c 2.781848,0 5,2.218152 5,5 l 0,2 0,68 0,2 c 0,0.364295 -0.05212,0.720988 -0.125,1.0625 -0.04415,0.206893 -0.08838,0.397658 -0.15625,0.59375 -0.0077,0.02195 -0.0233,0.04069 -0.03125,0.0625 -0.06274,0.173739 -0.138383,0.367449 -0.21875,0.53125 -0.04158,0.0828 -0.07904,0.169954 -0.125,0.25 -0.0546,0.09721 -0.126774,0.18835 -0.1875,0.28125 -0.09411,0.140965 -0.204921,0.275995 -0.3125,0.40625 -0.143174,0.17445 -0.303141,0.346998 -0.46875,0.5 -0.01117,0.0102 -0.01998,0.02115 -0.03125,0.03125 -0.138386,0.125556 -0.285091,0.234436 -0.4375,0.34375 -0.102571,0.07315 -0.204318,0.153364 -0.3125,0.21875 -0.0074,0.0045 -0.02384,-0.0044 -0.03125,0 -0.232039,0.138728 -0.462548,0.274778 -0.71875,0.375 0.301527,-0.0968 0.596455,-0.204138 0.875,-0.34375 0.55709,-0.279224 1.060053,-0.665694 1.5,-1.09375 0.219973,-0.214028 0.409366,-0.441865 0.59375,-0.6875 0.184384,-0.245635 0.355408,-0.507743 0.5,-0.78125 0.14012,-0.265048 0.276135,-0.524729 0.375,-0.8125 0.01041,-0.03078 0.02133,-0.06274 0.03125,-0.09375 0.09046,-0.278085 0.1388,-0.579404 0.1875,-0.875 C 89.95865,84.6507 90,84.334721 90,84 l 0,-2 0,-68 0,-2 C 90,8.676 87.324,6 84,6 L 12,6 z"
       id="rect3728" />
    <path
       id="path3615"
       d="M 12,90 C 8.676,90 6,87.324 6,84 L 6,82 6,14 6,12 c 0,-0.334721 0.04135,-0.6507 0.09375,-0.96875 0.0487,-0.295596 0.09704,-0.596915 0.1875,-0.875 C 6.29113,10.12587 6.302142,10.09265 6.3125,10.0625 6.411365,9.774729 6.5473802,9.515048 6.6875,9.25 6.8320918,8.976493 7.0031161,8.714385 7.1875,8.46875 7.3718839,8.223115 7.5612765,7.995278 7.78125,7.78125 8.221197,7.353194 8.72416,6.966724 9.28125,6.6875 9.559795,6.547888 9.8547231,6.440553 10.15625,6.34375 9.9000482,6.443972 9.6695391,6.580022 9.4375,6.71875 c -0.00741,0.0044 -0.023866,-0.0045 -0.03125,0 -0.031933,0.0193 -0.062293,0.04251 -0.09375,0.0625 -0.120395,0.0767 -0.2310226,0.163513 -0.34375,0.25 -0.1061728,0.0808 -0.2132809,0.161112 -0.3125,0.25 C 8.4783201,7.442683 8.3087904,7.626638 8.15625,7.8125 8.0486711,7.942755 7.9378561,8.077785 7.84375,8.21875 7.818661,8.25713 7.805304,8.30462 7.78125,8.34375 7.716487,8.446782 7.6510225,8.548267 7.59375,8.65625 7.4927417,8.850956 7.3880752,9.071951 7.3125,9.28125 7.30454,9.30306 7.288911,9.3218 7.28125,9.34375 7.2494249,9.4357 7.2454455,9.530581 7.21875,9.625 7.1884177,9.731618 7.1483606,9.828031 7.125,9.9375 7.0521214,10.279012 7,10.635705 7,11 l 0,2 0,68 0,2 c 0,2.781848 2.2181517,5 5,5 l 2,0 68,0 2,0 c 2.781848,0 5,-2.218152 5,-5 l 0,-2 0,-68 0,-2 C 89,10.635705 88.94788,10.279012 88.875,9.9375 88.83085,9.730607 88.78662,9.539842 88.71875,9.34375 88.71105,9.3218 88.69545,9.30306 88.6875,9.28125 88.62476,9.107511 88.549117,8.913801 88.46875,8.75 88.42717,8.6672 88.38971,8.580046 88.34375,8.5 88.28915,8.40279 88.216976,8.31165 88.15625,8.21875 88.06214,8.077785 87.951329,7.942755 87.84375,7.8125 87.700576,7.63805 87.540609,7.465502 87.375,7.3125 87.36383,7.3023 87.35502,7.29135 87.34375,7.28125 87.205364,7.155694 87.058659,7.046814 86.90625,6.9375 86.803679,6.86435 86.701932,6.784136 86.59375,6.71875 c -0.0074,-0.0045 -0.02384,0.0044 -0.03125,0 -0.232039,-0.138728 -0.462548,-0.274778 -0.71875,-0.375 0.301527,0.0968 0.596455,0.204138 0.875,0.34375 0.55709,0.279224 1.060053,0.665694 1.5,1.09375 0.219973,0.214028 0.409366,0.441865 0.59375,0.6875 0.184384,0.245635 0.355408,0.507743 0.5,0.78125 0.14012,0.265048 0.276135,0.524729 0.375,0.8125 0.01041,0.03078 0.02133,0.06274 0.03125,0.09375 0.09046,0.278085 0.1388,0.579404 0.1875,0.875 C 89.95865,11.3493 90,11.665279 90,12 l 0,2 0,68 0,2 c 0,3.324 -2.676,6 -6,6 l -72,0 z"
       style="opacity:0.3;fill:url(#radialGradient3619);fill-opacity:1;fill-rule:nonzero;stroke:none" />
    <path
       inkscape:transform-center-y="30.045534"
       inkscape:transform-center-x="-11.15977"
       id="path3675"
       d="m 188.1661,47.999998 c -11.12023,19.260821 -10.36163,42.120163 0,60.091082 10.94388,0 21.20767,-2.96304 30.04554,-8.07475 C 200.25264,89.62572 188.1661,70.240487 188.1661,47.999998 z"
       style="fill:#00df16;fill-opacity:1;stroke:none" />
    <path
       style="fill:#04abcf;fill-opacity:1;stroke:none"
       d="m 188.14385,48.083054 c -19.26082,11.120235 -30.03352,31.296307 -30.04554,52.040396 9.47769,5.47194 19.8479,8.03778 30.05757,8.02985 -10.35764,-17.978045 -11.13227,-40.809425 -0.012,-60.070246 z"
       id="path3677"
       inkscape:transform-center-x="14.8729"
       inkscape:transform-center-y="30.118182" />
    <path
       inkscape:transform-center-y="26.158041"
       inkscape:transform-center-x="25.937141"
       id="path3679"
       d="m 188.08305,48.14386 c -22.24048,0 -41.65795,12.086629 -52.0404,30.04553 5.47194,9.477685 13.1699,16.884859 22.0157,21.98283 0.0189,-20.748257 10.76387,-40.908125 30.02471,-52.02836 z"
       style="fill:#1a36d8;fill-opacity:1;stroke:none" />
    <path
       style="fill:#370099;fill-opacity:1;stroke:none"
       d="m 187.99999,48.16611 c -19.26081,-11.120235 -42.12015,-10.361642 -60.09107,0 0,10.943889 2.96304,21.207661 8.07473,30.045539 C 146.37423,60.252615 165.75951,48.1661 188,48.16611 z"
       id="path3681"
       inkscape:transform-center-x="30.045535"
       inkscape:transform-center-y="11.159774" />
    <path
       inkscape:transform-center-y="-14.872895"
       inkscape:transform-center-x="30.118186"
       id="path3683"
       d="M 187.91693,48.14386 C 176.79669,28.883049 156.62064,18.110327 135.87654,18.098321 c -5.47194,9.477685 -8.03776,19.847886 -8.02984,30.057564 17.97802,-10.357691 40.80942,-11.132278 60.07024,-0.012 z"
       style="fill:#650199;fill-opacity:1;stroke:none" />
    <path
       style="fill:#9c009b;fill-opacity:1;stroke:none"
       d="m 187.85613,48.083054 c 0,-22.24047 -12.08662,-41.6579514 -30.04553,-52.040402 -9.47769,5.4719522 -16.88485,13.1699067 -21.98283,22.015693 20.74826,0.01895 40.90813,10.763878 52.02836,30.024718 z"
       id="path3685"
       inkscape:transform-center-x="26.158046"
       inkscape:transform-center-y="-25.937141" />
    <path
       inkscape:transform-center-y="-30.045536"
       inkscape:transform-center-x="11.159774"
       id="path3687"
       d="m 187.83387,47.999998 c 11.12024,-19.260821 10.36166,-42.1201615 1e-5,-60.091082 -10.94389,1.3e-5 -21.20766,2.9630548 -30.04553,8.0747383 17.95903,10.3905753 30.04554,29.7758547 30.04552,52.0163537 z"
       style="fill:#d10737;fill-opacity:1;stroke:none" />
    <path
       style="fill:#fd0005;fill-opacity:1;stroke:none"
       d="m 187.85613,47.916942 c 19.26082,-11.120254 30.03354,-31.296308 30.04554,-52.0404062 -9.47769,-5.4719297 -19.84789,-8.0377458 -30.05756,-8.0298378 10.35769,17.9780222 11.13228,40.809423 0.012,60.070254 z"
       id="path3689"
       inkscape:transform-center-x="-14.872898"
       inkscape:transform-center-y="-30.118183" />
    <path
       inkscape:transform-center-y="-26.158047"
       inkscape:transform-center-x="-25.937143"
       id="path3691"
       d="m 187.91693,47.856136 c 22.24049,-10e-6 41.65796,-12.086629 52.04042,-30.045539 -5.47197,-9.4776752 -13.16992,-16.88483658 -22.0157,-21.9828313 -0.019,20.7482803 -10.76387,40.9081353 -30.02472,52.0283703 z"
       style="fill:#ff6500;fill-opacity:1;stroke:none" />
    <path
       style="fill:#fdad00;fill-opacity:1;stroke:none"
       d="m 187.99999,47.833887 c 19.26083,11.120234 42.12017,10.361642 60.0911,0 -3e-5,-10.943889 -2.96308,-21.207662 -8.07475,-30.045539 -10.39058,17.959043 -29.77585,30.045548 -52.01635,30.045539 z"
       id="path3693"
       inkscape:transform-center-x="-30.04554"
       inkscape:transform-center-y="-11.159774" />
    <path
       inkscape:transform-center-y="14.872895"
       inkscape:transform-center-x="-30.118186"
       id="path3695"
       d="m 188.08305,47.856126 c 11.12024,19.26084 31.29631,30.033543 52.04041,30.045549 5.47192,-9.477685 8.03774,-19.847886 8.02984,-30.057564 -17.97804,10.357701 -40.80942,11.132279 -60.07025,0.012 z"
       style="fill:#fffd01;fill-opacity:1;stroke:none" />
    <path
       style="fill:#b6fd00;fill-opacity:1;stroke:none"
       d="m 188.14386,47.916933 c 0,22.240489 12.08663,41.657958 30.04554,52.040413 9.47766,-5.471951 16.88483,-13.169906 21.98283,-22.015695 -20.74829,-0.01895 -40.90814,-10.763878 -52.02837,-30.024718 z"
       id="path3697"
       inkscape:transform-center-x="-26.158049"
       inkscape:transform-center-y="25.937141" />
    <rect
       style="fill:url(#linearGradient3676);fill-opacity:1;fill-rule:evenodd;stroke:none;display:inline"
       id="rect6160"
       width="118"
       height="118"
       x="-172.21428"
       y="-50.5"
       rx="9.1551723"
       ry="9.1551723" />
    <rect
       ry="6"
       rx="6"
       y="106"
       x="6"
       height="84"
       width="84"
       id="rect3740"
       style="fill:#1a1a1a;fill-opacity:1;fill-rule:nonzero;stroke:none" />
    <path
       style="fill:#000000;fill-opacity:1;stroke:none"
       d="m 188.00446,47.910714 c -0.27856,0.518496 -0.81852,0.369567 -1.08035,0.892857 1.55996,20.576864 12.86853,40.821719 30.41964,50.665179 C 194.57154,84.585091 189.28651,58.545791 188.00446,47.910714 z"
       id="path3753"
       sodipodi:nodetypes="cccc"
       inkscape:transform-center-x="-14.285714"
       inkscape:transform-center-y="25.779018" />
    <path
       inkscape:transform-center-y="29.738229"
       inkscape:transform-center-x="3.906843"
       sodipodi:nodetypes="cccc"
       id="path3758"
       d="m 187.98353,47.988836 c -0.50049,0.309751 -0.89365,-0.08921 -1.38204,0.233062 -8.93747,18.600067 -9.26639,41.786911 1.01159,59.087152 -12.27948,-24.275732 -3.8368,-49.468942 0.37045,-59.320214 z"
       style="fill:#000000;fill-opacity:1;stroke:none" />
    <path
       style="fill:#000000;fill-opacity:1;stroke:none"
       d="m 187.92634,48.046027 c -0.58831,0.01801 -0.72932,-0.524084 -1.31341,-0.489183 -17.04011,11.639396 -28.91839,31.555332 -28.66752,51.67677 1.50353,-27.163141 21.41171,-44.759761 29.98093,-51.187587 z"
       id="path3760"
       sodipodi:nodetypes="cccc"
       inkscape:transform-center-x="14.914291"
       inkscape:transform-center-y="25.483707" />
    <path
       inkscape:transform-center-y="14.285714"
       inkscape:transform-center-x="25.779016"
       sodipodi:nodetypes="cccc"
       id="path3762"
       d="m 187.84822,48.06696 c -0.5185,-0.278558 -0.36957,-0.81853 -0.89286,-1.08035 -20.57686,1.559958 -40.82172,12.868525 -50.66518,30.419636 14.88366,-22.772205 40.92296,-28.057235 51.55804,-29.339286 z"
       style="fill:#000000;fill-opacity:1;stroke:none" />
    <path
       style="fill:#000000;fill-opacity:1;stroke:none"
       d="m 187.7701,48.046029 c -0.30976,-0.500488 0.0892,-0.893653 -0.23307,-1.382041 -18.60006,-8.937466 -41.78691,-9.26639 -59.08715,1.011588 24.27573,-12.279478 49.46894,-3.836798 59.32022,0.370453 z"
       id="path3769"
       sodipodi:nodetypes="cccc"
       inkscape:transform-center-x="29.738226"
       inkscape:transform-center-y="-3.9068418" />
    <path
       inkscape:transform-center-y="-14.914287"
       inkscape:transform-center-x="25.483708"
       sodipodi:nodetypes="cccc"
       id="path3771"
       d="m 187.71291,47.988842 c -0.018,-0.588315 0.52407,-0.729326 0.48917,-1.313417 -11.63939,-17.040103 -31.55533,-28.918385 -51.67676,-28.667514 27.16313,1.503525 44.75975,21.411705 51.18759,29.980931 z"
       style="fill:#000000;fill-opacity:1;stroke:none" />
    <path
       style="fill:#000000;fill-opacity:1;stroke:none"
       d="m 187.69197,47.910722 c 0.27857,-0.518496 0.81852,-0.36958 1.08035,-0.892868 C 187.21236,26.440997 175.90379,6.1961332 158.35269,-3.6473211 181.12488,11.236335 186.40991,37.275634 187.69197,47.910722 z"
       id="path3773"
       sodipodi:nodetypes="cccc"
       inkscape:transform-center-x="14.285711"
       inkscape:transform-center-y="-25.779013" />
    <path
       inkscape:transform-center-y="-29.738223"
       inkscape:transform-center-x="-3.9068415"
       sodipodi:nodetypes="cccc"
       id="path3775"
       d="m 187.7129,47.832598 c 0.5005,-0.309746 0.89365,0.08919 1.38204,-0.233072 8.93747,-18.60006 9.26639,-41.7869118 -1.01158,-59.087143 12.27947,24.275719 3.83679,49.468928 -0.37046,59.320215 z"
       style="fill:#000000;fill-opacity:1;stroke:none" />
    <path
       style="fill:#000000;fill-opacity:1;stroke:none"
       d="m 187.77009,47.775405 c 0.58832,-0.018 0.72933,0.524066 1.31341,0.489174 C 206.12361,36.62519 218.00189,16.709247 217.75102,-3.4121777 216.2475,23.750947 196.33932,41.347566 187.77009,47.775405 z"
       id="path3777"
       sodipodi:nodetypes="cccc"
       inkscape:transform-center-x="-14.914289"
       inkscape:transform-center-y="-25.483705" />
    <path
       inkscape:transform-center-y="-14.285713"
       inkscape:transform-center-x="-25.779014"
       sodipodi:nodetypes="cccc"
       id="path3779"
       d="m 187.84821,47.75447 c 0.5185,0.278572 0.36959,0.81852 0.89286,1.080342 C 209.31793,47.274861 229.5628,35.966288 239.40625,18.415188 224.5226,41.187384 198.4833,46.472413 187.84821,47.75447 z"
       style="fill:#000000;fill-opacity:1;stroke:none" />
    <path
       style="fill:#000000;fill-opacity:1;stroke:none"
       d="m 187.92633,47.7754 c 0.30975,0.5005 -0.0892,0.893654 0.23307,1.382033 18.60006,8.937473 41.78692,9.266397 59.08715,-1.011577 -24.27572,12.279475 -49.46893,3.836795 -59.32022,-0.370456 z"
       id="path3781"
       sodipodi:nodetypes="cccc"
       inkscape:transform-center-x="-29.738224"
       inkscape:transform-center-y="3.9068431" />
    <path
       inkscape:transform-center-y="14.91429"
       inkscape:transform-center-x="-25.483705"
       sodipodi:nodetypes="cccc"
       id="path3783"
       d="m 187.98352,47.832586 c 0.018,0.58832 -0.52408,0.729327 -0.48917,1.31341 11.63939,17.040109 31.55534,28.918395 51.67676,28.667524 -27.16313,-1.503523 -44.75975,-21.411703 -51.18759,-29.980934 z"
       style="fill:#000000;fill-opacity:1;stroke:none" />
    <path
       style="fill:url(#radialGradient3816);fill-opacity:1;stroke:none"
       d="M 48.09375,-11.5 C 59.51633,11.081702 52.97547,34.449286 48.625,45.53125 46.6442,25.474019 35.46993,5.9488874 18.34375,-3.65625 39.5512,10.204707 45.60943,33.740989 47.375,45.5 35.63453,29.094526 16.18462,17.754965 -3.46875,18 21.80176,19.398765 38.76681,36.723419 46.1875,46.03125 27.82488,37.71278 5.32248,37.656226 -11.5625,47.6875 11.03664,36.256098 34.42849,42.774514 45.5,47.125 25.43165,49.097163 5.89144,60.271065 -3.71875,77.40625 10.15354,56.181456 33.71942,50.135017 45.46875,48.375 29.04629,60.113105 17.69231,79.552813 17.9375,99.21875 19.33627,73.948231 36.66092,56.983176 45.96875,49.5625 37.65028,67.925126 37.59372,90.427519 47.625,107.3125 36.1936,84.71336 42.71201,61.321507 47.0625,50.25 49.03259,70.321012 60.20641,89.857351 77.34375,99.46875 56.10294,85.585994 50.0674,62.021592 48.3125,50.28125 60.05017,66.706808 79.48804,78.05772 99.15625,77.8125 73.87066,76.412902 56.88244,59.085054 49.46875,49.78125 67.83612,58.1114 90.35709,58.192239 107.25,48.15625 84.6683,59.578834 61.30072,53.037974 50.21875,48.6875 70.27846,46.708628 89.79999,35.534427 99.40625,18.40625 85.53497,39.62951 62.0002,45.676991 50.25,47.4375 66.65841,35.697438 77.99506,16.249276 77.75,-3.40625 76.3504,21.879332 59.02255,38.867564 49.71875,46.28125 58.0489,27.913882 58.12973,5.3929133 48.09375,-11.5 z M 47.8125,47.78125 c 0.0346,2.57e-4 0.0621,-0.004 0.0937,0 0.0338,0.02204 0.0347,0.06938 0.0625,0.09375 -2.7e-4,0.03662 -0.0268,0.06043 -0.0312,0.09375 -0.014,0.02029 -0.0164,0.04453 -0.0312,0.0625 -0.0482,-3.58e-4 -0.0824,-0.0239 -0.125,-0.03125 -0.007,-0.0048 -0.0245,0.005 -0.0312,0 -0.0128,-0.02324 -0.0213,-0.03969 -0.0312,-0.0625 0.002,-0.03567 0.0256,-0.06125 0.0312,-0.09375 0.003,-0.0082 -0.004,-0.02305 0,-0.03125 0.0232,-0.01278 0.0397,-0.02128 0.0625,-0.03125 z M 48,47.96875 c 0.0329,0.108189 0.0662,0.210213 0.0625,0.3125 C 48.0502,48.18248 48.0117,48.065051 48,47.96875 z"
       id="path3785"
       clip-path="url(#clipPath3820)" />
  </g>
  <g
     inkscape:groupmode="layer"
     id="layer5"
     inkscape:label="Highlight"
     sodipodi:insensitive="true">
    <rect
       style="opacity:0.1;fill:url(#linearGradient3613);fill-opacity:1;fill-rule:nonzero;stroke:#ffffff;stroke-width:0.5;stroke-linecap:round;stroke-linejoin:miter;stroke-miterlimit:4;stroke-opacity:1;stroke-dasharray:none;stroke-dashoffset:0;filter:url(#filter3794)"
       id="rect3171"
       width="66"
       height="66"
       x="15"
       y="15"
       rx="12"
       ry="12"
       clip-path="url(#clipPath3613)" />
    <rect
       style="fill:url(#linearGradient3751);fill-opacity:1;fill-rule:nonzero;stroke:none"
       id="rect3742"
       width="84"
       height="84"
       x="-90"
       y="-90"
       rx="6"
       ry="6"
       transform="matrix(0,-1,-1,0,0,0)" />
  </g>
</svg>
