<?xml version="1.0" encoding="UTF-8" standalone="no"?>
<!-- Created with Inkscape (http://www.inkscape.org/) -->

<svg
   xmlns:dc="http://purl.org/dc/elements/1.1/"
   xmlns:cc="http://creativecommons.org/ns#"
   xmlns:rdf="http://www.w3.org/1999/02/22-rdf-syntax-ns#"
   xmlns:svg="http://www.w3.org/2000/svg"
   xmlns="http://www.w3.org/2000/svg"
   xmlns:xlink="http://www.w3.org/1999/xlink"
   xmlns:sodipodi="http://sodipodi.sourceforge.net/DTD/sodipodi-0.dtd"
   xmlns:inkscape="http://www.inkscape.org/namespaces/inkscape"
   width="96"
   height="96"
   id="svg2408"
   sodipodi:version="0.32"
   inkscape:version="0.47 r22583"
   version="1.0"
   sodipodi:docname="package-x-generic.svg"
   inkscape:output_extension="org.inkscape.output.svg.inkscape"
   style="display:inline">
  <defs
     id="defs2410">
    <linearGradient
       inkscape:collect="always"
       id="linearGradient4426">
      <stop
         style="stop-color:#71461e;stop-opacity:1;"
         offset="0"
         id="stop4428" />
      <stop
         style="stop-color:#71461e;stop-opacity:0;"
         offset="1"
         id="stop4430" />
    </linearGradient>
    <linearGradient
       inkscape:collect="always"
       id="linearGradient4414">
      <stop
         style="stop-color:#dac3a2;stop-opacity:1;"
         offset="0"
         id="stop4416" />
      <stop
         style="stop-color:#dac3a2;stop-opacity:0;"
         offset="1"
         id="stop4418" />
    </linearGradient>
    <linearGradient
       inkscape:collect="always"
       id="linearGradient4370">
      <stop
         style="stop-color:#8a5b30;stop-opacity:1;"
         offset="0"
         id="stop4372" />
      <stop
         style="stop-color:#8a5b30;stop-opacity:0;"
         offset="1"
         id="stop4374" />
    </linearGradient>
    <linearGradient
       id="linearGradient4351">
      <stop
         style="stop-color:#ffffff;stop-opacity:0.17073171;"
         offset="0"
         id="stop4353" />
      <stop
         id="stop4359"
         offset="0.5"
         style="stop-color:#ffffff;stop-opacity:0;" />
      <stop
         style="stop-color:#000000;stop-opacity:0;"
         offset="0.50999999"
         id="stop4361" />
      <stop
         style="stop-color:#000000;stop-opacity:1;"
         offset="1"
         id="stop4355" />
    </linearGradient>
    <linearGradient
       id="linearGradient4309"
       gradientUnits="userSpaceOnUse"
       x1="52.25"
       y1="47.247101"
       x2="52.25"
       y2="0.2393">
      <stop
         offset="0"
         style="stop-color:#d8cab2;stop-opacity:1"
         id="stop4311" />
      <stop
         offset="0.45710954"
         style="stop-color:#d2b98c;stop-opacity:1"
         id="stop4321" />
      <stop
         offset="0.4859"
         style="stop-color:#F9F7EF"
         id="stop4323" />
      <stop
         offset="0.4911"
         style="stop-color:#FFFFFF"
         id="stop4325" />
      <stop
         offset="0.4918"
         style="stop-color:#FBF9F4"
         id="stop4327" />
      <stop
         offset="0.4946"
         style="stop-color:#EFE7D0"
         id="stop4329" />
      <stop
         offset="0.4977"
         style="stop-color:#E4D6B0"
         id="stop4331" />
      <stop
         offset="0.5011"
         style="stop-color:#DAC894"
         id="stop4333" />
      <stop
         offset="0.5049"
         style="stop-color:#c7a572;stop-opacity:1"
         id="stop4335" />
      <stop
         offset="1"
         style="stop-color:#d7c198;stop-opacity:1"
         id="stop4347" />
    </linearGradient>
    <linearGradient
       id="linearGradient4301">
      <stop
         style="stop-color:#84572d;stop-opacity:1;"
         offset="0"
         id="stop4303" />
      <stop
         id="stop4305"
         offset="0.42268738"
         style="stop-color:#d4b78f;stop-opacity:1" />
      <stop
         style="stop-color:#bf9c6b;stop-opacity:0;"
         offset="1"
         id="stop4307" />
    </linearGradient>
    <linearGradient
       id="linearGradient4295">
      <stop
         id="stop4297"
         offset="0"
         style="stop-color:#b88f56;stop-opacity:1" />
      <stop
         id="stop4299"
         offset="1"
         style="stop-color:#d9bd98;stop-opacity:1" />
    </linearGradient>
    <linearGradient
       id="linearGradient4289">
      <stop
         id="stop4291"
         offset="0"
         style="stop-color:#996c3b;stop-opacity:1" />
      <stop
         id="stop4293"
         offset="1"
         style="stop-color:#c19e6d;stop-opacity:1;" />
    </linearGradient>
    <linearGradient
       id="linearGradient4283">
      <stop
         style="stop-color:#b88f56;stop-opacity:1"
         offset="0"
         id="stop4285" />
      <stop
         style="stop-color:#d0ae80;stop-opacity:1"
         offset="1"
         id="stop4287" />
    </linearGradient>
    <linearGradient
       id="linearGradient5149">
      <stop
         id="stop5151"
         offset="0"
         style="stop-color:#89734e;stop-opacity:1;" />
      <stop
         style="stop-color:#d6bb8f;stop-opacity:1;"
         offset="0.42268738"
         id="stop5155" />
      <stop
         id="stop5153"
         offset="1"
         style="stop-color:#c7ab7d;stop-opacity:0;" />
    </linearGradient>
    <linearGradient
       id="linearGradient5112">
      <stop
         style="stop-color:#decdb0;stop-opacity:1;"
         offset="0"
         id="stop5114" />
      <stop
         style="stop-color:#decdb0;stop-opacity:0;"
         offset="1"
         id="stop5116" />
    </linearGradient>
    <linearGradient
       id="linearGradient5106">
      <stop
         id="stop5108"
         offset="0"
         style="stop-color:#917a53;stop-opacity:1;" />
      <stop
         id="stop5110"
         offset="1"
         style="stop-color:#a68d63;stop-opacity:0;" />
    </linearGradient>
    <linearGradient
       id="linearGradient5092">
      <stop
         id="stop5094"
         offset="0"
         style="stop-color:#be9f6a;stop-opacity:1;" />
      <stop
         id="stop5096"
         offset="1"
         style="stop-color:#e5d2b2;stop-opacity:1;" />
    </linearGradient>
    <linearGradient
       id="linearGradient5032">
      <stop
         style="stop-color:#d9c690;stop-opacity:1;"
         offset="0"
         id="stop5034" />
      <stop
         style="stop-color:#cbb168;stop-opacity:1;"
         offset="1"
         id="stop5036" />
    </linearGradient>
    <linearGradient
       inkscape:collect="always"
       id="linearGradient5010">
      <stop
         style="stop-color:#000000;stop-opacity:1;"
         offset="0"
         id="stop5012" />
      <stop
         style="stop-color:#000000;stop-opacity:0;"
         offset="1"
         id="stop5014" />
    </linearGradient>
    <linearGradient
       y2="0.2393"
       x2="52.25"
       y1="47.247101"
       x1="52.25"
       gradientUnits="userSpaceOnUse"
       id="linearGradient3412">
      <stop
         id="stop3414"
         style="stop-color:#DDCC9D"
         offset="0" />
      <stop
         id="stop3416"
         style="stop-color:#DAC793"
         offset="0.1841" />
      <stop
         id="stop3418"
         style="stop-color:#D5BF84"
         offset="0.41502863" />
      <stop
         id="stop3420"
         style="stop-color:#D6C087"
         offset="0.43733528" />
      <stop
         id="stop3422"
         style="stop-color:#D9C58F"
         offset="0.44797528" />
      <stop
         id="stop3424"
         style="stop-color:#DECD9E"
         offset="0.45710954" />
      <stop
         id="stop3430"
         style="stop-color:#F9F7EF"
         offset="0.4859" />
      <stop
         id="stop3432"
         style="stop-color:#FFFFFF"
         offset="0.4911" />
      <stop
         id="stop3434"
         style="stop-color:#FBF9F4"
         offset="0.4918" />
      <stop
         id="stop3436"
         style="stop-color:#EFE7D0"
         offset="0.4946" />
      <stop
         id="stop3438"
         style="stop-color:#E4D6B0"
         offset="0.4977" />
      <stop
         id="stop3440"
         style="stop-color:#DAC894"
         offset="0.5011" />
      <stop
         id="stop3442"
         style="stop-color:#D3BC7E"
         offset="0.5049" />
      <stop
         id="stop3444"
         style="stop-color:#CDB46D"
         offset="0.5094" />
      <stop
         id="stop3446"
         style="stop-color:#C9AD62"
         offset="0.515" />
      <stop
         id="stop3448"
         style="stop-color:#C7AA5B"
         offset="0.5227" />
      <stop
         id="stop3450"
         style="stop-color:#C6A959"
         offset="0.5444" />
      <stop
         id="stop3452"
         style="stop-color:#CDB46D"
         offset="0.716" />
      <stop
         id="stop3454"
         style="stop-color:#D2BB7B"
         offset="1" />
    </linearGradient>
    <linearGradient
       id="linearGradient3210">
      <stop
         style="stop-color:#ffffff;stop-opacity:0.39024389;"
         offset="0"
         id="stop3212" />
      <stop
         style="stop-color:#000000;stop-opacity:0.2682927;"
         offset="1"
         id="stop3214" />
    </linearGradient>
    <linearGradient
       id="linearGradient3174">
      <stop
         style="stop-color:#c30000;stop-opacity:1;"
         offset="0"
         id="stop3176" />
      <stop
         style="stop-color:#f12300;stop-opacity:1;"
         offset="1"
         id="stop3178" />
    </linearGradient>
    <linearGradient
       id="ButtonShadow"
       gradientTransform="scale(1.0058652,0.994169)"
       x1="45.447727"
       y1="92.539597"
       x2="45.447727"
       y2="7.0165396"
       gradientUnits="userSpaceOnUse">
      <stop
         style="stop-color:#000000;stop-opacity:1;"
         offset="0"
         id="stop3750" />
      <stop
         style="stop-color:#000000;stop-opacity:0.58823532;"
         offset="1"
         id="stop3752" />
    </linearGradient>
    <linearGradient
       inkscape:collect="always"
       id="linearGradient3737">
      <stop
         style="stop-color:#ffffff;stop-opacity:1;"
         offset="0"
         id="stop3739" />
      <stop
         style="stop-color:#ffffff;stop-opacity:0;"
         offset="1"
         id="stop3741" />
    </linearGradient>
    <linearGradient
       id="linearGradient3700">
      <stop
         style="stop-color:#a48a5f;stop-opacity:1;"
         offset="0"
         id="stop3702" />
      <stop
         style="stop-color:#dbc298;stop-opacity:1;"
         offset="1"
         id="stop3704" />
    </linearGradient>
    <inkscape:perspective
       sodipodi:type="inkscape:persp3d"
       inkscape:vp_x="0 : 526.18109 : 1"
       inkscape:vp_y="0 : 1000 : 0"
       inkscape:vp_z="744.09448 : 526.18109 : 1"
       inkscape:persp3d-origin="372.04724 : 350.78739 : 1"
       id="perspective2416" />
    <linearGradient
       inkscape:collect="always"
       xlink:href="#linearGradient4289"
       id="linearGradient3706"
       x1="54.187183"
       y1="90"
       x2="54.187183"
       y2="39.852562"
       gradientUnits="userSpaceOnUse" />
    <linearGradient
       inkscape:collect="always"
       xlink:href="#linearGradient3737"
       id="linearGradient3743"
       x1="36.357143"
       y1="6"
       x2="36.357143"
       y2="63.893143"
       gradientUnits="userSpaceOnUse" />
    <filter
       inkscape:collect="always"
       id="filter3174">
      <feGaussianBlur
         inkscape:collect="always"
         stdDeviation="1.71"
         id="feGaussianBlur3176" />
    </filter>
    <linearGradient
       inkscape:collect="always"
       xlink:href="#ButtonShadow"
       id="linearGradient3195"
       x1="49.142857"
       y1="84"
       x2="49.142857"
       y2="11.990931"
       gradientUnits="userSpaceOnUse"
       gradientTransform="translate(0,1)" />
    <linearGradient
       inkscape:collect="always"
       xlink:href="#linearGradient5106"
       id="linearGradient4340"
       x1="6.5710678"
       y1="36.527267"
       x2="110.98544"
       y2="36.527267"
       gradientUnits="userSpaceOnUse"
       gradientTransform="translate(0,0.2525381)" />
    <radialGradient
       inkscape:collect="always"
       xlink:href="#linearGradient3700"
       id="radialGradient4351"
       cx="48"
       cy="51.89262"
       fx="48"
       fy="51.89262"
       r="42"
       gradientTransform="matrix(1,0,0,0.6157241,0,-9.1126551e-2)"
       gradientUnits="userSpaceOnUse"
       spreadMethod="pad" />
    <filter
       inkscape:collect="always"
       id="filter4362"
       x="-0.31155673"
       width="1.6231135"
       y="-0.42628157"
       height="1.8525631">
      <feGaussianBlur
         inkscape:collect="always"
         stdDeviation="6.2124381"
         id="feGaussianBlur4364" />
    </filter>
    <linearGradient
       inkscape:collect="always"
       xlink:href="#linearGradient5010"
       id="linearGradient5016"
       x1="53.486439"
       y1="28.132706"
       x2="53.486439"
       y2="0.22275853"
       gradientUnits="userSpaceOnUse"
       gradientTransform="matrix(1.0200612,0,0,1.0200612,-5.2380141,6.7562055)" />
    <linearGradient
       inkscape:collect="always"
       xlink:href="#linearGradient5032"
       id="linearGradient5038"
       x1="6.5"
       y1="19.484375"
       x2="48"
       y2="19.484375"
       gradientUnits="userSpaceOnUse" />
    <radialGradient
       inkscape:collect="always"
       xlink:href="#linearGradient3700"
       id="radialGradient5059"
       gradientUnits="userSpaceOnUse"
       gradientTransform="matrix(1,0,0,0.6157241,0,-9.1126551e-2)"
       spreadMethod="pad"
       cx="48"
       cy="51.89262"
       fx="48"
       fy="51.89262"
       r="42" />
    <linearGradient
       inkscape:collect="always"
       xlink:href="#linearGradient3412"
       id="linearGradient5070"
       gradientUnits="userSpaceOnUse"
       x1="-33.053596"
       y1="19.484375"
       x2="48"
       y2="19.484375"
       gradientTransform="matrix(1.0212766,0,0,1,-1.1489362,-2.5e-4)" />
    <linearGradient
       inkscape:collect="always"
       xlink:href="#linearGradient5010"
       id="linearGradient5078"
       x1="48.125389"
       y1="21"
       x2="6.9783502"
       y2="21"
       gradientUnits="userSpaceOnUse" />
    <linearGradient
       inkscape:collect="always"
       xlink:href="#linearGradient5010"
       id="linearGradient5088"
       gradientUnits="userSpaceOnUse"
       x1="48.125389"
       y1="21"
       x2="6.9783502"
       y2="21" />
    <linearGradient
       inkscape:collect="always"
       xlink:href="#linearGradient3412"
       id="linearGradient5090"
       gradientUnits="userSpaceOnUse"
       gradientTransform="matrix(-1.0212766,0,0,1,97.273936,-2.5e-4)"
       x1="-33.053596"
       y1="19.484375"
       x2="48"
       y2="19.484375" />
    <linearGradient
       inkscape:collect="always"
       xlink:href="#linearGradient5092"
       id="linearGradient5100"
       x1="47.079498"
       y1="32.782871"
       x2="6.5962563"
       y2="9.4098616"
       gradientUnits="userSpaceOnUse" />
    <linearGradient
       inkscape:collect="always"
       xlink:href="#linearGradient5106"
       id="linearGradient5136"
       x1="90"
       y1="44.817253"
       x2="23.512409"
       y2="83.20388"
       gradientUnits="userSpaceOnUse" />
    <linearGradient
       inkscape:collect="always"
       xlink:href="#linearGradient3700"
       id="linearGradient5142"
       gradientUnits="userSpaceOnUse"
       x1="48"
       y1="90"
       x2="48"
       y2="6" />
    <linearGradient
       inkscape:collect="always"
       xlink:href="#linearGradient4301"
       id="linearGradient5162"
       gradientUnits="userSpaceOnUse"
       x1="6"
       y1="48"
       x2="11.478265"
       y2="48"
       gradientTransform="matrix(-1,0,0,1,95.96875,0)" />
    <linearGradient
       inkscape:collect="always"
       xlink:href="#linearGradient4295"
       id="linearGradient2489"
       gradientUnits="userSpaceOnUse"
       x1="48"
       y1="42"
       x2="6.7812738"
       y2="18.202358" />
    <linearGradient
       inkscape:collect="always"
       xlink:href="#linearGradient4295"
       id="linearGradient3264"
       gradientUnits="userSpaceOnUse"
       x1="47.226776"
       y1="29.039698"
       x2="6.3304405"
       y2="18.081558"
       gradientTransform="matrix(-1,0,0,1,96,0)" />
    <linearGradient
       inkscape:collect="always"
       xlink:href="#linearGradient4309"
       id="linearGradient3277"
       gradientUnits="userSpaceOnUse"
       x1="50.499405"
       y1="19.881863"
       x2="50.499405"
       y2="47.295406" />
    <linearGradient
       inkscape:collect="always"
       xlink:href="#linearGradient3737"
       id="linearGradient3285"
       x1="23.142857"
       y1="42"
       x2="66.964287"
       y2="6"
       gradientUnits="userSpaceOnUse" />
    <filter
       inkscape:collect="always"
       id="filter3315"
       x="-0.17856994"
       width="1.3571399"
       y="-0.045090277"
       height="1.0901806">
      <feGaussianBlur
         inkscape:collect="always"
         stdDeviation="0.9018055"
         id="feGaussianBlur3317" />
    </filter>
    <inkscape:perspective
       id="perspective4267"
       inkscape:persp3d-origin="372.04724 : 350.78739 : 1"
       inkscape:vp_z="744.09448 : 526.18109 : 1"
       inkscape:vp_y="0 : 1000 : 0"
       inkscape:vp_x="0 : 526.18109 : 1"
       sodipodi:type="inkscape:persp3d" />
    <linearGradient
       inkscape:collect="always"
       xlink:href="#linearGradient4370"
       id="linearGradient4376"
       x1="8"
       y1="38.127232"
       x2="8"
       y2="71.877235"
       gradientUnits="userSpaceOnUse" />
    <linearGradient
       inkscape:collect="always"
       xlink:href="#linearGradient4301"
       id="linearGradient4380"
       gradientUnits="userSpaceOnUse"
       x1="6"
       y1="48"
       x2="11.478265"
       y2="48" />
    <linearGradient
       inkscape:collect="always"
       xlink:href="#linearGradient3737"
       id="linearGradient4394"
       x1="10"
       y1="40.263424"
       x2="10"
       y2="89.666374"
       gradientUnits="userSpaceOnUse" />
    <linearGradient
       inkscape:collect="always"
       xlink:href="#linearGradient4370"
       id="linearGradient4400"
       gradientUnits="userSpaceOnUse"
       x1="8"
       y1="38.127232"
       x2="8"
       y2="87.029526"
       gradientTransform="matrix(-1,0,0,1,96,0)" />
    <linearGradient
       inkscape:collect="always"
       xlink:href="#linearGradient3737"
       id="linearGradient4402"
       gradientUnits="userSpaceOnUse"
       x1="10"
       y1="40.263424"
       x2="10"
       y2="89.666374"
       gradientTransform="matrix(-1,0,0,1,96,0)" />
    <linearGradient
       inkscape:collect="always"
       xlink:href="#linearGradient4414"
       id="linearGradient4420"
       x1="8.9651041"
       y1="44.040279"
       x2="8.9651041"
       y2="52.263294"
       gradientUnits="userSpaceOnUse" />
    <linearGradient
       inkscape:collect="always"
       xlink:href="#linearGradient4414"
       id="linearGradient4424"
       gradientUnits="userSpaceOnUse"
       x1="8.9651041"
       y1="44.040279"
       x2="8.9651041"
       y2="52.263294"
       gradientTransform="matrix(-1,0,0,1,96.086934,0)" />
    <radialGradient
       inkscape:collect="always"
       xlink:href="#linearGradient4426"
       id="radialGradient4432"
       cx="48"
       cy="73.14563"
       fx="48"
       fy="73.14563"
       r="42"
       gradientTransform="matrix(0.867765,0,0,9.5238095e-2,6.3472804,36.190476)"
       gradientUnits="userSpaceOnUse" />
    <inkscape:perspective
       id="perspective3719"
       inkscape:persp3d-origin="0.5 : 0.33333333 : 1"
       inkscape:vp_z="1 : 0.5 : 1"
       inkscape:vp_y="0 : 1000 : 0"
       inkscape:vp_x="0 : 0.5 : 1"
       sodipodi:type="inkscape:persp3d" />
    <linearGradient
       y2="90.238609"
       x2="32.251034"
       y1="6.1317081"
       x1="32.251034"
       gradientTransform="matrix(1.0238095,0,0,1.0119048,-1.1428571,-98.071429)"
       gradientUnits="userSpaceOnUse"
       id="linearGradient3026"
       xlink:href="#ButtonShadow-0"
       inkscape:collect="always" />
    <linearGradient
       id="ButtonShadow-0"
       gradientTransform="matrix(1.0058652,0,0,0.994169,100,0)"
       x1="45.447727"
       y1="92.539597"
       x2="45.447727"
       y2="7.0165396"
       gradientUnits="userSpaceOnUse">
      <stop
         style="stop-color:#000000;stop-opacity:1;"
         offset="0"
         id="stop3750-8" />
      <stop
         style="stop-color:#000000;stop-opacity:0.58823532;"
         offset="1"
         id="stop3752-5" />
    </linearGradient>
    <linearGradient
       inkscape:collect="always"
       xlink:href="#ButtonShadow-0"
       id="linearGradient3780"
       gradientUnits="userSpaceOnUse"
       gradientTransform="matrix(1.0238095,0,0,1.0119048,-1.1428571,-98.071429)"
       x1="32.251034"
       y1="6.1317081"
       x2="32.251034"
       y2="90.238609" />
    <linearGradient
       id="linearGradient3728"
       gradientTransform="matrix(1.0058652,0,0,0.994169,100,0)"
       x1="45.447727"
       y1="92.539597"
       x2="45.447727"
       y2="7.0165396"
       gradientUnits="userSpaceOnUse">
      <stop
         style="stop-color:#000000;stop-opacity:1;"
         offset="0"
         id="stop3730" />
      <stop
         style="stop-color:#000000;stop-opacity:0.58823532;"
         offset="1"
         id="stop3732" />
    </linearGradient>
    <linearGradient
       inkscape:collect="always"
       xlink:href="#ButtonShadow-0"
       id="linearGradient3772"
       gradientUnits="userSpaceOnUse"
       gradientTransform="matrix(1.0238095,0,0,1.0119048,-1.1428571,-98.071429)"
       x1="32.251034"
       y1="6.1317081"
       x2="32.251034"
       y2="90.238609" />
    <linearGradient
       id="linearGradient3735"
       gradientTransform="matrix(1.0058652,0,0,0.994169,100,0)"
       x1="45.447727"
       y1="92.539597"
       x2="45.447727"
       y2="7.0165396"
       gradientUnits="userSpaceOnUse">
      <stop
         style="stop-color:#000000;stop-opacity:1;"
         offset="0"
         id="stop3737" />
      <stop
         style="stop-color:#000000;stop-opacity:0.58823532;"
         offset="1"
         id="stop3739-8" />
    </linearGradient>
    <linearGradient
       inkscape:collect="always"
       xlink:href="#ButtonShadow-0"
       id="linearGradient3725"
       gradientUnits="userSpaceOnUse"
       gradientTransform="matrix(1.0238095,0,0,1.0119048,-1.1428571,-98.071429)"
       x1="32.251034"
       y1="6.1317081"
       x2="32.251034"
       y2="90.238609" />
    <linearGradient
       id="linearGradient3742"
       gradientTransform="matrix(1.0058652,0,0,0.994169,100,0)"
       x1="45.447727"
       y1="92.539597"
       x2="45.447727"
       y2="7.0165396"
       gradientUnits="userSpaceOnUse">
      <stop
         style="stop-color:#000000;stop-opacity:1;"
         offset="0"
         id="stop3744" />
      <stop
         style="stop-color:#000000;stop-opacity:0.58823532;"
         offset="1"
         id="stop3746" />
    </linearGradient>
    <linearGradient
       inkscape:collect="always"
       xlink:href="#ButtonShadow-0"
       id="linearGradient3721"
       gradientUnits="userSpaceOnUse"
       gradientTransform="translate(0,-97)"
       x1="32.251034"
       y1="6.1317081"
       x2="32.251034"
       y2="90.238609" />
    <linearGradient
       id="linearGradient3749"
       gradientTransform="matrix(1.0058652,0,0,0.994169,100,0)"
       x1="45.447727"
       y1="92.539597"
       x2="45.447727"
       y2="7.0165396"
       gradientUnits="userSpaceOnUse">
      <stop
         style="stop-color:#000000;stop-opacity:1;"
         offset="0"
         id="stop3751" />
      <stop
         style="stop-color:#000000;stop-opacity:0.58823532;"
         offset="1"
         id="stop3753" />
    </linearGradient>
    <linearGradient
       y2="90.238609"
       x2="32.251034"
       y1="6.1317081"
       x1="32.251034"
       gradientTransform="matrix(1.0238095,0,0,1.0119048,-1.1428571,-98.071429)"
       gradientUnits="userSpaceOnUse"
       id="linearGradient3760"
       xlink:href="#ButtonShadow-0"
       inkscape:collect="always" />
    <inkscape:perspective
       id="perspective3129"
       inkscape:persp3d-origin="0.5 : 0.33333333 : 1"
       inkscape:vp_z="1 : 0.5 : 1"
       inkscape:vp_y="0 : 1000 : 0"
       inkscape:vp_x="0 : 0.5 : 1"
       sodipodi:type="inkscape:persp3d" />
    <linearGradient
       gradientTransform="matrix(1.0200612,0,0,1.0200612,-5.2981966,5.7562054)"
       inkscape:collect="always"
       xlink:href="#linearGradient4309-3"
       id="linearGradient3277-8"
       gradientUnits="userSpaceOnUse"
       x1="50.499405"
       y1="19.881863"
       x2="50.499405"
       y2="47.295406" />
    <linearGradient
       id="linearGradient4309-3"
       gradientUnits="userSpaceOnUse"
       x1="52.25"
       y1="47.247101"
       x2="52.25"
       y2="0.2393">
      <stop
         offset="0"
         style="stop-color:#d8cab2;stop-opacity:1"
         id="stop4311-7" />
      <stop
         offset="0.45710954"
         style="stop-color:#d2b98c;stop-opacity:1"
         id="stop4321-4" />
      <stop
         offset="0.4859"
         style="stop-color:#F9F7EF"
         id="stop4323-9" />
      <stop
         offset="0.4911"
         style="stop-color:#FFFFFF"
         id="stop4325-6" />
      <stop
         offset="0.4918"
         style="stop-color:#FBF9F4"
         id="stop4327-3" />
      <stop
         offset="0.4946"
         style="stop-color:#EFE7D0"
         id="stop4329-5" />
      <stop
         offset="0.4977"
         style="stop-color:#E4D6B0"
         id="stop4331-4" />
      <stop
         offset="0.5011"
         style="stop-color:#DAC894"
         id="stop4333-7" />
      <stop
         offset="0.5049"
         style="stop-color:#c7a572;stop-opacity:1"
         id="stop4335-5" />
      <stop
         offset="1"
         style="stop-color:#d7c198;stop-opacity:1"
         id="stop4347-7" />
    </linearGradient>
    <linearGradient
       inkscape:collect="always"
       xlink:href="#linearGradient3928"
       id="linearGradient3942"
       x1="46.795631"
       y1="60.307007"
       x2="46.795631"
       y2="6.0179305"
       gradientUnits="userSpaceOnUse" />
    <linearGradient
       inkscape:collect="always"
       id="linearGradient3928">
      <stop
         style="stop-color:#3a240f;stop-opacity:1;"
         offset="0"
         id="stop3930" />
      <stop
         style="stop-color:#3a240f;stop-opacity:0;"
         offset="1"
         id="stop3932" />
    </linearGradient>
    <linearGradient
       inkscape:collect="always"
       xlink:href="#linearGradient3928"
       id="linearGradient3934"
       x1="48.40115"
       y1="61.990967"
       x2="48.40115"
       y2="4.6666145"
       gradientUnits="userSpaceOnUse" />
  </defs>
  <sodipodi:namedview
     id="base"
     pagecolor="#ffffff"
     bordercolor="#666666"
     borderopacity="1.0"
     inkscape:pageopacity="0.0"
     inkscape:pageshadow="2"
     inkscape:zoom="4.2452016"
     inkscape:cx="-92.564841"
     inkscape:cy="33.188009"
     inkscape:document-units="px"
     inkscape:current-layer="layer3"
     showgrid="true"
     showborder="true"
     inkscape:showpageshadow="false"
     inkscape:window-width="1920"
     inkscape:window-height="1023"
     inkscape:window-x="0"
     inkscape:window-y="24"
     inkscape:window-maximized="1">
    <inkscape:grid
       type="xygrid"
       id="grid3732"
       visible="true"
       enabled="true" />
  </sodipodi:namedview>
  <metadata
     id="metadata2413">
    <rdf:RDF>
      <cc:Work
         rdf:about="">
        <dc:format>image/svg+xml</dc:format>
        <dc:type
           rdf:resource="http://purl.org/dc/dcmitype/StillImage" />
      </cc:Work>
    </rdf:RDF>
  </metadata>
  <g
     inkscape:groupmode="layer"
     id="layer2"
     inkscape:label="Blur Shadow"
     sodipodi:insensitive="true"
     style="display:none">
    <path
       style="opacity:0.9;fill:url(#ButtonShadow);fill-opacity:1;fill-rule:nonzero;stroke:none;filter:url(#filter3174)"
       d="M 11,7 48,5 85,7 c 3.324,0 6,2.676 6,6 l 0,73 c 0,3.324 -2.676,6 -6,6 L 11,92 C 7.676,92 5,89.324 5,86 L 5,13 C 5,9.676 7.676,7 11,7 z"
       id="rect3745"
       sodipodi:nodetypes="cccccccccc" />
  </g>
  <g
     inkscape:groupmode="layer"
     id="layer5"
     inkscape:label="Shadow"
     style="display:inline"
     sodipodi:insensitive="true">
    <path
       sodipodi:type="inkscape:offset"
       inkscape:radius="0.99097413"
       inkscape:original="M 12 -94.03125 C 7.028367 -94.03125 2.96875 -89.971633 2.96875 -85 L 2.96875 -14 C 2.96875 -9.0283671 7.0283671 -4.96875 12 -4.96875 L 84 -4.96875 C 88.971633 -4.96875 93.03125 -9.028367 93.03125 -14 L 93.03125 -85 C 93.03125 -89.971633 88.971633 -94.03125 84 -94.03125 L 12 -94.03125 z "
       style="opacity:0.07999998;fill:url(#linearGradient3760);fill-opacity:1;fill-rule:nonzero;stroke:none;display:inline"
       id="path3786"
       d="m 12,-95.03125 c -5.5110903,0 -10.03125,4.52016 -10.03125,10.03125 l 0,71 c 0,5.5110902 4.5201598,10.03125 10.03125,10.03125 l 72,0 c 5.51109,0 10.03125,-4.5201597 10.03125,-10.03125 l 0,-71 c 0,-5.51109 -4.52016,-10.03125 -10.03125,-10.03125 l -72,0 z"
       transform="scale(1,-1)" />
    <path
       sodipodi:type="inkscape:offset"
       inkscape:radius="1.0360184"
       inkscape:original="M 12 -93 C 7.5908667 -93 4 -89.409133 4 -85 L 4 -14 C 4 -9.5908667 7.5908667 -6 12 -6 L 84 -6 C 88.409133 -6 92 -9.5908667 92 -14 L 92 -85 C 92 -89.409133 88.409133 -93 84 -93 L 12 -93 z "
       style="opacity:0.1;fill:url(#linearGradient3780);fill-opacity:1;fill-rule:nonzero;stroke:none;display:inline"
       id="path3778"
       d="m 12,-94.03125 c -4.971633,0 -9.03125,4.059617 -9.03125,9.03125 l 0,71 c 0,4.9716329 4.0596171,9.03125 9.03125,9.03125 l 72,0 c 4.971633,0 9.03125,-4.059617 9.03125,-9.03125 l 0,-71 c 0,-4.971633 -4.059617,-9.03125 -9.03125,-9.03125 l -72,0 z"
       transform="scale(1,-1)" />
    <path
       sodipodi:type="inkscape:offset"
       inkscape:radius="0.98962283"
       inkscape:original="M 12 -92 C 8.122 -92 5 -88.878 5 -85 L 5 -14 C 5 -10.122 8.122 -7 12 -7 L 84 -7 C 87.878 -7 91 -10.122 91 -14 L 91 -85 C 91 -88.878 87.878 -92 84 -92 L 12 -92 z "
       style="opacity:0.2;fill:url(#linearGradient3772);fill-opacity:1;fill-rule:nonzero;stroke:none;display:inline"
       id="path3770"
       d="m 12,-93 c -4.4091333,0 -8,3.590867 -8,8 l 0,71 c 0,4.4091333 3.5908667,8 8,8 l 72,0 c 4.409133,0 8,-3.5908667 8,-8 l 0,-71 c 0,-4.409133 -3.590867,-8 -8,-8 l -72,0 z"
       transform="scale(1,-1)" />
    <rect
       style="opacity:0.3;fill:url(#linearGradient3725);fill-opacity:1;fill-rule:nonzero;stroke:none;display:inline"
       id="rect3723"
       width="86"
       height="85"
       x="5"
       y="-92"
       rx="7"
       ry="7"
       transform="scale(1,-1)" />
    <rect
       transform="scale(1,-1)"
       ry="6"
       rx="6"
       y="-91"
       x="6"
       height="84"
       width="84"
       id="rect3716"
       style="opacity:0.45;fill:url(#linearGradient3721);fill-opacity:1;fill-rule:nonzero;stroke:none;display:inline" />
  </g>
  <g
     inkscape:label="Button"
     inkscape:groupmode="layer"
     id="layer1"
     style="display:inline"
     sodipodi:insensitive="true">
    <path
       style="fill:url(#linearGradient4376);fill-opacity:1;fill-rule:nonzero;stroke:none"
       d="m 6,36 0,48 c 0,1.781762 0.7745675,3.371709 2,4.46875 L 8,36 6,36 z"
       id="rect5138" />
    <rect
       style="fill:url(#linearGradient3706);fill-opacity:1;fill-rule:nonzero;stroke:none"
       id="rect2419"
       width="84"
       height="84"
       x="6"
       y="6"
       rx="6"
       ry="6" />
    <path
       style="fill:url(#radialGradient4432);fill-opacity:1;fill-rule:nonzero;stroke:none"
       d="m 6,36 0,2 c 0,3.324 2.676,6 6,6 l 72,0 c 3.324,0 6,-2.676 6,-6 l 0,-2 c 0,3.324 -2.676,6 -6,6 L 12,42 C 8.676,42 6,39.324 6,36 z"
       id="path3287"
       sodipodi:nodetypes="ccccccccc" />
    <path
       id="path4396"
       d="m 90,36 0,48 c 0,1.781762 -0.774567,3.371709 -2,4.46875 L 88,36 l 2,0 z"
       style="fill:url(#linearGradient4400);fill-opacity:1;fill-rule:nonzero;stroke:none" />
    <rect
       style="fill:#3c2510;fill-opacity:1;fill-rule:nonzero;stroke:none"
       id="rect2483"
       width="84"
       height="24"
       x="6"
       y="18"
       rx="6"
       ry="6" />
    <path
       sodipodi:nodetypes="ccccc"
       id="path4398"
       d="m 88,36 0,52.46875 c -0.576856,0.516417 -1.254924,0.923089 -2,1.1875 L 86,36 l 2,0 z"
       style="opacity:0.3;fill:url(#linearGradient4402);fill-opacity:1;fill-rule:nonzero;stroke:none" />
    <path
       style="opacity:0.3;fill:url(#linearGradient4394);fill-opacity:1;fill-rule:nonzero;stroke:none"
       d="m 8,36 0,52.46875 c 0.5768558,0.516417 1.254924,0.923089 2,1.1875 L 10,36 8,36 z"
       id="path4378"
       sodipodi:nodetypes="ccccc" />
    <path
       style="fill:url(#linearGradient5100);fill-opacity:1;fill-rule:nonzero;stroke:none"
       d="M 12,6 C 8.7734181,6 6,8.2592995 6,13 L 6,15 6,35.65625 48,35.69067 48,6 14,6 12,6 z"
       id="path5055"
       sodipodi:nodetypes="cccccccc" />
    <rect
       style="opacity:0.3;fill:#dac7a8;fill-opacity:1;fill-rule:nonzero;stroke:none;filter:url(#filter4362)"
       id="rect4356"
       width="47.855976"
       height="34.976532"
       x="12.753176"
       y="41.956837"
       rx="6"
       ry="6"
       transform="matrix(1,0,0,0.8555957,0,8.5841304)" />
    <path
       style="fill:url(#linearGradient2489);fill-opacity:1;fill-rule:nonzero;stroke:none"
       d="M 12,6 C 8.676,6 6,8.676 6,12 l 0,24 c 0,3.324 2.676,6 6,6 L 48,40 48,4 12,6 z"
       id="rect2481"
       sodipodi:nodetypes="ccccccc" />
    <path
       id="path3262"
       d="m 84,6 c 3.324,0 6,2.676 6,6 l 0,24 c 0,3.324 -2.676,6 -6,6 L 48,40 48,4 84,6 z"
       style="fill:url(#linearGradient3264);fill-opacity:1;fill-rule:nonzero;stroke:none"
       sodipodi:nodetypes="ccccccc" />
    <path
       style="opacity:0.3;fill:url(#linearGradient3285);fill-opacity:1;fill-rule:nonzero;stroke:none"
       d="M 12,6 C 8.676,6 6,8.676 6,12 l 0,24 c 0,3.324 2.676,6 6,6 l 36,-2 36,2 c 3.324,0 6,-2.676 6,-6 L 90,12 C 90,8.676 87.324,6 84,6 L 48,4 12,6 z m 0,2 36,-2 36,2 c 2.245802,0 4,1.7541975 4,4 l 0,24 c 0,2.245802 -1.754198,4 -4,4 L 48,38 12,40 C 9.7541975,40 8,38.245802 8,36 L 8,12 C 8,9.7541975 9.7541975,8 12,8 z"
       id="rect3266"
       sodipodi:nodetypes="cccccccccccccccccccccc" />
    <path
       style="fill:url(#linearGradient4420);fill-opacity:1;fill-rule:evenodd;stroke:none"
       d="m 6.1871843,37.284884 c 2.3991123,5.555839 1.894036,16.036171 1.894036,16.036171 L 9.9121217,53.068517 C 9.6595836,44.861028 10.354063,41.83057 14.89975,41.704301 7.7307581,40.509469 6.1871843,37.284884 6.1871843,37.284884 z"
       id="path4404"
       sodipodi:nodetypes="ccccc" />
    <path
       sodipodi:nodetypes="ccccc"
       id="path4422"
       d="m 89.89975,37.284884 c -2.399112,5.555839 -1.894036,16.036171 -1.894036,16.036171 L 86.174813,53.068517 C 86.427351,44.861028 85.732871,41.83057 81.187184,41.704301 88.356176,40.509469 89.89975,37.284884 89.89975,37.284884 z"
       style="fill:url(#linearGradient4424);fill-opacity:1;fill-rule:evenodd;stroke:none" />
    <path
       sodipodi:nodetypes="ccccccccc"
       id="path5008"
       d="M 54.120367,7 42.000001,7 42.060185,31.062224 42.194833,60 47.881674,59.50527 53.925535,58.979939 53.958175,53.428766 54.060182,31.062224 54.120362,7 z"
       style="opacity:0.5;fill:#3a240f;fill-opacity:1;display:inline" />
    <path
       sodipodi:type="inkscape:offset"
       inkscape:radius="1.0056832"
       inkscape:original="M 41.84375 6.125 A 0.8619805 0.8619805 0 0 0 41.125 7 L 41.1875 31.0625 L 41.3125 60 A 0.8619805 0.8619805 0 0 0 42.25 60.84375 L 47.9375 60.34375 L 54 59.8125 A 0.8619805 0.8619805 0 0 0 54.8125 58.96875 L 54.84375 53.4375 L 54.9375 31.0625 L 55 7 A 0.8619805 0.8619805 0 0 0 54.125 6.125 L 42 6.125 A 0.8619805 0.8619805 0 0 0 41.84375 6.125 z "
       style="opacity:0.1;fill:url(#linearGradient3934);fill-opacity:1;display:inline"
       id="path3926"
       d="m 41.6875,5.125 c 0.0042,-7.112e-4 -0.191651,0.032337 -0.1875,0.03125 0.0042,-0.00109 -0.160287,0.063954 -0.15625,0.0625 0.004,-0.00145 -0.160141,0.064309 -0.15625,0.0625 0.0039,-0.00181 -0.128713,0.06465 -0.125,0.0625 0.0037,-0.00215 -0.159756,0.096223 -0.15625,0.09375 0.0035,-0.00247 -0.128271,0.1277772 -0.125,0.125 0.0033,-0.00278 -0.128009,0.096809 -0.125,0.09375 0.003,-0.00306 -0.127724,0.1283156 -0.125,0.125 0.0027,-0.00332 -0.09617,0.1597959 -0.09375,0.15625 0.0024,-0.00355 -0.09584,0.1287479 -0.09375,0.125 0.0021,-0.00375 -0.06424,0.1601697 -0.0625,0.15625 0.0017,-0.00392 -0.06389,0.1603101 -0.0625,0.15625 0.0014,-0.00406 -0.03227,0.160418 -0.03125,0.15625 0.001,-0.00417 -0.06314,0.1604925 -0.0625,0.15625 6.42e-4,-0.00424 -2.6e-4,0.1917829 0,0.1875 2.08e-4,-0.00343 7.69e-4,0.08233 0,0.125 l 0,0.03125 L 40.1875,31.0625 40.3125,60 a 1.0057838,1.0057838 0 0 0 0,0.03125 c -4.2e-5,-0.0025 1.68e-4,0.0962 0,0.09375 -1.68e-4,-0.0025 2.94e-4,0.09619 0,0.09375 -2.94e-4,-0.0024 0.03167,0.09617 0.03125,0.09375 -4.19e-4,-0.0024 5.42e-4,0.09615 0,0.09375 -5.42e-4,-0.0024 0.03191,0.09611 0.03125,0.09375 -6.64e-4,-0.0024 0.03204,0.09608 0.03125,0.09375 -7.85e-4,-0.0023 0.03215,0.06479 0.03125,0.0625 -9.03e-4,-0.0023 0.03227,0.09599 0.03125,0.09375 -0.001,-0.0022 0.06363,0.09593 0.0625,0.09375 -0.0011,-0.0022 0.03249,0.09587 0.03125,0.09375 -0.0012,-0.0021 0.06385,0.06455 0.0625,0.0625 -0.0014,-0.0021 0.0327,0.09573 0.03125,0.09375 -0.0015,-0.002 0.06405,0.0644 0.0625,0.0625 -0.0016,-0.0019 0.06415,0.09557 0.0625,0.09375 -0.0016,-0.0018 0.06424,0.06423 0.0625,0.0625 -0.0017,-0.0017 0.09558,0.06414 0.09375,0.0625 -0.0018,-0.0016 0.06441,0.06405 0.0625,0.0625 -0.0019,-0.0015 0.06448,0.06395 0.0625,0.0625 -0.002,-0.0014 0.09581,0.06384 0.09375,0.0625 -0.0021,-0.0013 0.06462,0.03249 0.0625,0.03125 -0.0021,-0.0012 0.09593,0.06363 0.09375,0.0625 -0.0022,-0.0011 0.09599,0.03226 0.09375,0.03125 -0.0022,-0.001 0.09604,0.03215 0.09375,0.03125 -0.0023,-8.97e-4 0.09608,0.03203 0.09375,0.03125 -0.0023,-7.79e-4 0.09612,0.03191 0.09375,0.03125 -0.0024,-6.58e-4 0.09615,0.03179 0.09375,0.03125 -0.0024,-5.36e-4 0.09617,4.12e-4 0.09375,0 -0.0024,-4.12e-4 0.09619,0.03154 0.09375,0.03125 -0.0024,-2.88e-4 0.0962,1.62e-4 0.09375,0 -0.0025,-1.62e-4 0.09621,3.6e-5 0.09375,0 -0.0025,-3.6e-5 0.0962,-9e-5 0.09375,0 -0.0025,9e-5 0.0962,-2.16e-4 0.09375,0 l 5.6875,-0.5 6.03125,-0.53125 c -8.93e-4,5.1e-5 0.02019,0.0012 0.03125,0 0.04424,-0.0047 0.128538,-5.37e-4 0.125,0 -0.0044,6.71e-4 0.19184,-0.06358 0.1875,-0.0625 -0.0043,0.0011 0.160471,-0.03273 0.15625,-0.03125 -0.0042,0.0015 0.160314,-0.06437 0.15625,-0.0625 -0.0041,0.0019 0.160122,-0.09599 0.15625,-0.09375 -0.0039,0.0022 0.159897,-0.09634 0.15625,-0.09375 -0.0036,0.0026 0.128389,-0.09667 0.125,-0.09375 -0.0034,0.0029 0.128103,-0.128222 0.125,-0.125 -0.0031,0.0032 0.127789,-0.128497 0.125,-0.125 -0.0028,0.0035 0.0962,-0.159992 0.09375,-0.15625 -0.0025,0.0037 0.09584,-0.160204 0.09375,-0.15625 -0.0021,0.004 0.09546,-0.160382 0.09375,-0.15625 -0.0017,0.0041 0.06382,-0.160524 0.0625,-0.15625 -0.0013,0.0043 0.03217,-0.160628 0.03125,-0.15625 -9.16e-4,0.0044 0.03175,-0.191944 0.03125,-0.1875 -5.04e-4,0.0044 8.7e-5,-0.160722 0,-0.15625 a 1.0057838,1.0057838 0 0 0 0,-0.03125 L 55.84375,53.4375 55.9375,31.0625 56,7 c -7.3e-5,0.00479 -4.06e-4,-0.1610265 0,-0.15625 4.06e-4,0.00478 -0.03213,-0.1922121 -0.03125,-0.1875 8.81e-4,0.00471 -0.0326,-0.1921004 -0.03125,-0.1875 0.0013,0.0046 -0.0643,-0.1919427 -0.0625,-0.1875 0.0018,0.00444 -0.09599,-0.1604906 -0.09375,-0.15625 0.0022,0.00424 -0.0964,-0.160246 -0.09375,-0.15625 0.0026,0.004 -0.09678,-0.1599614 -0.09375,-0.15625 0.003,0.00371 -0.12839,-0.1596397 -0.125,-0.15625 0.0034,0.00339 -0.159961,-0.1280341 -0.15625,-0.125 0.0037,0.00303 -0.160246,-0.096398 -0.15625,-0.09375 0.004,0.00265 -0.160491,-0.095986 -0.15625,-0.09375 0.0042,0.00224 -0.160693,-0.095551 -0.15625,-0.09375 0.0044,0.0018 -0.1921,-0.063848 -0.1875,-0.0625 0.0046,0.00135 -0.192212,-0.032132 -0.1875,-0.03125 0.0047,8.815e-4 -0.192277,-0.031656 -0.1875,-0.03125 0.0048,4.063e-4 -0.161043,7.3e-5 -0.15625,0 l -12.03125,0 c 0.0026,2.364e-4 -0.04386,0.00229 -0.09375,0 -0.03326,-0.00153 -0.06424,0 -0.0625,0 0.0043,0 -0.19183,3.94e-4 -0.1875,0 a 1.0057838,1.0057838 0 0 0 -0.0625,0 z" />
    <path
       sodipodi:type="inkscape:offset"
       inkscape:radius="0.86189431"
       inkscape:original="M 42 7 L 42.0625 31.0625 L 42.1875 60 L 47.875 59.5 L 53.9375 58.96875 L 53.96875 53.4375 L 54.0625 31.0625 L 54.125 7 L 42 7 z "
       style="opacity:0.2;fill:url(#linearGradient3942);fill-opacity:1;display:inline"
       id="path3922"
       d="M 42,6.125 A 0.8619805,0.8619805 0 0 0 41.125,7 L 41.1875,31.0625 41.3125,60 a 0.8619805,0.8619805 0 0 0 0.9375,0.84375 l 5.6875,-0.5 L 54,59.8125 a 0.8619805,0.8619805 0 0 0 0.8125,-0.84375 L 54.84375,53.4375 54.9375,31.0625 55,7 A 0.8619805,0.8619805 0 0 0 54.125,6.125 L 42,6.125 z" />
    <path
       style="fill:url(#linearGradient3277-8);fill-opacity:1;display:inline"
       d="M 54.060184,4.3686547 48.000001,3.926713 41.939817,4.3686547 42.000001,30.062224 42.134649,59 l 5.686841,-0.494729 6.043862,-0.525332 0.03264,-5.551173 0.102006,-22.366542 0.06018,-25.6935693 z"
       id="polygon120"
       sodipodi:nodetypes="cccccccccc" />
    <rect
       style="opacity:0.2;fill:#8d6137;fill-opacity:1;fill-rule:nonzero;stroke:none;display:inline"
       id="rect4363"
       width="1"
       height="35.714287"
       x="47"
       y="4.1250005" />
    <rect
       y="4.1250005"
       x="48"
       height="35.714287"
       width="1"
       id="rect4365"
       style="opacity:0.2;fill:#ffffff;fill-opacity:1;fill-rule:nonzero;stroke:none;display:inline" />
  </g>
  <g
     inkscape:groupmode="layer"
     id="layer3"
     inkscape:label="Extension">
    <text
       xml:space="preserve"
       style="font-size:4px;font-style:normal;font-variant:normal;font-weight:bold;font-stretch:normal;text-align:start;line-height:120.00000477%;writing-mode:lr-tb;text-anchor:start;fill:#825023;fill-opacity:1;stroke:none;display:inline;font-family:BabelSans;-inkscape-font-specification:BabelSans Bold"
       x="69.415169"
       y="49.91539"
       id="text4274"
       sodipodi:linespacing="120%"><tspan
         sodipodi:role="line"
         id="tspan4276"
         x="69.415169"
         y="49.91539">INSTALL</tspan></text>
    <path
       style="fill:#825023;fill-opacity:1;fill-rule:nonzero;stroke:none;display:inline"
       d="m 72,52 0,6 -4,0 8,10 8,-10 -4,0 0,-6 -8,0 z"
       id="path4278"
       sodipodi:nodetypes="cccccccc" />
  </g>
</svg>
