<?xml version="1.0" encoding="UTF-8" standalone="no"?>
<!-- Created with Inkscape (http://www.inkscape.org/) -->

<svg
   xmlns:dc="http://purl.org/dc/elements/1.1/"
   xmlns:cc="http://creativecommons.org/ns#"
   xmlns:rdf="http://www.w3.org/1999/02/22-rdf-syntax-ns#"
   xmlns:svg="http://www.w3.org/2000/svg"
   xmlns="http://www.w3.org/2000/svg"
   xmlns:xlink="http://www.w3.org/1999/xlink"
   xmlns:sodipodi="http://sodipodi.sourceforge.net/DTD/sodipodi-0.dtd"
   xmlns:inkscape="http://www.inkscape.org/namespaces/inkscape"
   width="96"
   height="96"
   id="svg2408"
   sodipodi:version="0.32"
   inkscape:version="0.47 r22583"
   version="1.0"
   sodipodi:docname="video-x-generic.svg"
   inkscape:output_extension="org.inkscape.output.svg.inkscape">
  <defs
     id="defs2410">
    <linearGradient
       inkscape:collect="always"
       id="linearGradient3748">
      <stop
         style="stop-color:#ffffff;stop-opacity:1;"
         offset="0"
         id="stop3751" />
      <stop
         style="stop-color:#ffffff;stop-opacity:0;"
         offset="1"
         id="stop3753" />
    </linearGradient>
    <linearGradient
       id="linearGradient3726">
      <stop
         id="stop3728"
         offset="0"
         style="stop-color:#87bade;stop-opacity:1;" />
      <stop
         id="stop3730"
         offset="1"
         style="stop-color:#2a8ed5;stop-opacity:1;" />
    </linearGradient>
    <linearGradient
       id="linearGradient3720">
      <stop
         style="stop-color:#efad51;stop-opacity:1;"
         offset="0"
         id="stop3722" />
      <stop
         style="stop-color:#d56616;stop-opacity:1;"
         offset="1"
         id="stop3724" />
    </linearGradient>
    <linearGradient
       id="linearGradient3921">
      <stop
         style="stop-color:#a94508;stop-opacity:1;"
         offset="0"
         id="stop3923" />
      <stop
         style="stop-color:#d58100;stop-opacity:0;"
         offset="1"
         id="stop3925" />
    </linearGradient>
    <linearGradient
       gradientTransform="matrix(1.0172414,0,0,1.0172414,-1.1034483,-1.1034483)"
       gradientUnits="userSpaceOnUse"
       y2="5.4252338"
       x2="58.650177"
       y1="122"
       x1="58.650177"
       id="linearGradient3816">
      <stop
         id="stop3818"
         offset="0"
         style="stop-color:#130c09;stop-opacity:1;" />
      <stop
         id="stop3820"
         offset="1"
         style="stop-color:#714831;stop-opacity:1;" />
    </linearGradient>
    <linearGradient
       id="linearGradient3806">
      <stop
         id="stop3808"
         offset="0"
         style="stop-color:#f7e0c0;stop-opacity:1;" />
      <stop
         id="stop3810"
         offset="1"
         style="stop-color:#b67e35;stop-opacity:1;" />
    </linearGradient>
    <linearGradient
       id="ButtonShadow"
       gradientTransform="scale(1.0058652,0.994169)"
       x1="45.447727"
       y1="92.539597"
       x2="45.447727"
       y2="7.0165396"
       gradientUnits="userSpaceOnUse">
      <stop
         style="stop-color:#000000;stop-opacity:1;"
         offset="0"
         id="stop3750" />
      <stop
         style="stop-color:#000000;stop-opacity:0.58823532;"
         offset="1"
         id="stop3752" />
    </linearGradient>
    <linearGradient
       inkscape:collect="always"
       id="linearGradient3737">
      <stop
         style="stop-color:#ffffff;stop-opacity:1;"
         offset="0"
         id="stop3739" />
      <stop
         style="stop-color:#ffffff;stop-opacity:0;"
         offset="1"
         id="stop3741" />
    </linearGradient>
    <filter
       inkscape:collect="always"
       id="filter3174">
      <feGaussianBlur
         inkscape:collect="always"
         stdDeviation="1.71"
         id="feGaussianBlur3176" />
    </filter>
    <linearGradient
       inkscape:collect="always"
       xlink:href="#linearGradient3737"
       id="linearGradient3188"
       gradientUnits="userSpaceOnUse"
       x1="36.357143"
       y1="6"
       x2="36.357143"
       y2="63.893143" />
    <filter
       inkscape:collect="always"
       id="filter3794"
       x="-0.192"
       width="1.384"
       y="-0.192"
       height="1.384">
      <feGaussianBlur
         inkscape:collect="always"
         stdDeviation="5.28"
         id="feGaussianBlur3796" />
    </filter>
    <linearGradient
       inkscape:collect="always"
       xlink:href="#linearGradient3737"
       id="linearGradient3613"
       x1="48"
       y1="20.220806"
       x2="48"
       y2="138.66119"
       gradientUnits="userSpaceOnUse" />
    <radialGradient
       inkscape:collect="always"
       xlink:href="#linearGradient3737"
       id="radialGradient3619"
       cx="48"
       cy="90.171875"
       fx="48"
       fy="90.171875"
       r="42"
       gradientTransform="matrix(1.1573129,0,0,0.99590774,-7.5510206,0.19713193)"
       gradientUnits="userSpaceOnUse" />
    <clipPath
       clipPathUnits="userSpaceOnUse"
       id="clipPath3613">
      <rect
         ry="6"
         rx="6"
         y="6"
         x="6"
         height="84"
         width="84"
         id="rect3615"
         style="fill:#ffffff;fill-opacity:1;fill-rule:nonzero;stroke:none" />
    </clipPath>
    <linearGradient
       id="ButtonShadow-0"
       gradientTransform="matrix(1.0058652,0,0,0.994169,100,0)"
       x1="45.447727"
       y1="92.539597"
       x2="45.447727"
       y2="7.0165396"
       gradientUnits="userSpaceOnUse">
      <stop
         style="stop-color:#000000;stop-opacity:1;"
         offset="0"
         id="stop3750-8" />
      <stop
         style="stop-color:#000000;stop-opacity:0.58823532;"
         offset="1"
         id="stop3752-5" />
    </linearGradient>
    <linearGradient
       inkscape:collect="always"
       xlink:href="#ButtonShadow-0"
       id="linearGradient3725"
       gradientUnits="userSpaceOnUse"
       gradientTransform="matrix(1.0238095,0,0,-1.0119048,-1.1428571,98.071429)"
       x1="32.251034"
       y1="6.1317081"
       x2="32.251034"
       y2="90.238609" />
    <linearGradient
       inkscape:collect="always"
       xlink:href="#ButtonShadow-0"
       id="linearGradient3721"
       gradientUnits="userSpaceOnUse"
       gradientTransform="matrix(1,0,0,-1,0,97)"
       x1="32.251034"
       y1="6.1317081"
       x2="32.251034"
       y2="90.238609" />
    <linearGradient
       id="linearGradient3015"
       gradientTransform="matrix(1.0058652,0,0,0.994169,100,0)"
       x1="45.447727"
       y1="92.539597"
       x2="45.447727"
       y2="7.0165396"
       gradientUnits="userSpaceOnUse">
      <stop
         style="stop-color:#493115;stop-opacity:1;"
         offset="0"
         id="stop3017" />
      <stop
         style="stop-color:#654929;stop-opacity:0;"
         offset="1"
         id="stop3019" />
    </linearGradient>
    <linearGradient
       id="ButtonColor"
       x1="58.650177"
       y1="122"
       x2="58.650177"
       y2="5.4252338"
       gradientUnits="userSpaceOnUse"
       gradientTransform="matrix(1.0172414,0,0,1.0172414,-1.1034483,-1.1034483)">
      <stop
         style="stop-color:#000000;stop-opacity:1;"
         offset="0"
         id="stop3189" />
      <stop
         style="stop-color:#515151;stop-opacity:1;"
         offset="1"
         id="stop3191" />
    </linearGradient>
    <linearGradient
       inkscape:collect="always"
       xlink:href="#ButtonColor"
       id="linearGradient3686"
       gradientUnits="userSpaceOnUse"
       x1="48"
       y1="90"
       x2="48"
       y2="5.9877172"
       gradientTransform="translate(-110,0)" />
    <linearGradient
       inkscape:collect="always"
       xlink:href="#ButtonShadow-0"
       id="linearGradient3702"
       gradientUnits="userSpaceOnUse"
       gradientTransform="matrix(1.0238095,0,0,-1.0119048,-1.1428571,98.071429)"
       x1="32.251034"
       y1="6.1317081"
       x2="32.251034"
       y2="90.238609" />
    <linearGradient
       inkscape:collect="always"
       xlink:href="#ButtonShadow-0"
       id="linearGradient3711"
       gradientUnits="userSpaceOnUse"
       gradientTransform="matrix(1.0238095,0,0,-1.0119048,-1.1428571,98.071429)"
       x1="32.251034"
       y1="6.1317081"
       x2="32.251034"
       y2="90.238609" />
    <linearGradient
       inkscape:collect="always"
       xlink:href="#ButtonShadow-0"
       id="linearGradient3719"
       gradientUnits="userSpaceOnUse"
       gradientTransform="matrix(1.0238095,0,0,-1.0119048,-1.1428571,98.071429)"
       x1="32.251034"
       y1="6.1317081"
       x2="32.251034"
       y2="90.238609" />
    <linearGradient
       id="linearGradient3347">
      <stop
         style="stop-color:#fcfaf7;stop-opacity:1;"
         offset="0"
         id="stop3349" />
      <stop
         style="stop-color:#a0804b;stop-opacity:1;"
         offset="1"
         id="stop3351" />
    </linearGradient>
    <radialGradient
       inkscape:collect="always"
       xlink:href="#linearGradient3720"
       id="radialGradient3804"
       cx="48"
       cy="48"
       fx="48"
       fy="48"
       r="28"
       gradientTransform="matrix(1.1428571,0,0,0.85714286,-6.8571431,3.8571432)"
       gradientUnits="userSpaceOnUse" />
    <radialGradient
       inkscape:collect="always"
       xlink:href="#linearGradient3720"
       id="radialGradient3832"
       gradientUnits="userSpaceOnUse"
       gradientTransform="matrix(1.1428571,0,0,-0.85714286,-6.8571431,38.142857)"
       cx="48"
       cy="48"
       fx="48"
       fy="48"
       r="28" />
    <radialGradient
       inkscape:collect="always"
       xlink:href="#linearGradient3720"
       id="radialGradient3834"
       gradientUnits="userSpaceOnUse"
       gradientTransform="matrix(1.1428571,0,0,0.85714286,-6.8571431,57.857143)"
       cx="48"
       cy="48"
       fx="48"
       fy="48"
       r="28" />
    <linearGradient
       inkscape:collect="always"
       xlink:href="#ButtonColor"
       id="linearGradient3885"
       gradientUnits="userSpaceOnUse"
       x1="48"
       y1="90"
       x2="48"
       y2="5.9877172" />
    <inkscape:perspective
       id="perspective3737"
       inkscape:persp3d-origin="0.5 : 0.33333333 : 1"
       inkscape:vp_z="1 : 0.5 : 1"
       inkscape:vp_y="0 : 1000 : 0"
       inkscape:vp_x="0 : 0.5 : 1"
       sodipodi:type="inkscape:persp3d" />
    <linearGradient
       inkscape:collect="always"
       xlink:href="#linearGradient3422"
       id="linearGradient3428"
       x1="61.837456"
       y1="122"
       x2="61.837456"
       y2="65.076355"
       gradientUnits="userSpaceOnUse"
       gradientTransform="matrix(1.05,0,0,1,1.593639,0.9999962)" />
    <linearGradient
       id="linearGradient3422">
      <stop
         style="stop-color:#2f230c;stop-opacity:1;"
         offset="0"
         id="stop3424" />
      <stop
         style="stop-color:#825121;stop-opacity:0;"
         offset="1"
         id="stop3426" />
    </linearGradient>
    <linearGradient
       inkscape:collect="always"
       xlink:href="#linearGradient3921"
       id="linearGradient3968"
       gradientUnits="userSpaceOnUse"
       x1="48.495441"
       y1="90.434654"
       x2="48.495441"
       y2="52.387913" />
    <radialGradient
       inkscape:collect="always"
       xlink:href="#linearGradient3806"
       id="radialGradient4008"
       gradientUnits="userSpaceOnUse"
       gradientTransform="matrix(1.1428571,0,0,0.85714286,-6.8571431,4.8571432)"
       cx="48"
       cy="48"
       fx="48"
       fy="48"
       r="28" />
    <radialGradient
       inkscape:collect="always"
       xlink:href="#linearGradient3806"
       id="radialGradient4010"
       gradientUnits="userSpaceOnUse"
       gradientTransform="matrix(1.1428571,0,0,0.85714286,-6.8571431,3.8571432)"
       cx="48"
       cy="48"
       fx="48"
       fy="48"
       r="28" />
    <linearGradient
       inkscape:collect="always"
       xlink:href="#linearGradient3921"
       id="linearGradient2943"
       gradientUnits="userSpaceOnUse"
       x1="48.495441"
       y1="90.434654"
       x2="48.495441"
       y2="52.387913" />
    <linearGradient
       inkscape:collect="always"
       xlink:href="#ButtonColor"
       id="linearGradient3734"
       gradientUnits="userSpaceOnUse"
       gradientTransform="translate(-240,0)"
       x1="48"
       y1="90"
       x2="48"
       y2="5.9877172" />
    <linearGradient
       inkscape:collect="always"
       xlink:href="#ButtonColor"
       id="linearGradient3739"
       gradientUnits="userSpaceOnUse"
       x1="48"
       y1="90"
       x2="48"
       y2="5.9877172" />
    <linearGradient
       inkscape:collect="always"
       xlink:href="#ButtonColor"
       id="linearGradient3745"
       gradientUnits="userSpaceOnUse"
       x1="48"
       y1="90"
       x2="48"
       y2="5.9877172" />
    <linearGradient
       inkscape:collect="always"
       xlink:href="#linearGradient3748"
       id="linearGradient3755"
       x1="48"
       y1="8"
       x2="48"
       y2="72"
       gradientUnits="userSpaceOnUse" />
    <radialGradient
       inkscape:collect="always"
       xlink:href="#linearGradient3748"
       id="radialGradient3761"
       cx="48"
       cy="44.717331"
       fx="48"
       fy="44.717331"
       r="42"
       gradientTransform="matrix(1.1428571,0,0,0.76190474,-6.8571429,5.9296527)"
       gradientUnits="userSpaceOnUse" />
  </defs>
  <sodipodi:namedview
     id="base"
     pagecolor="#ffffff"
     bordercolor="#666666"
     borderopacity="1.0"
     inkscape:pageopacity="0.0"
     inkscape:pageshadow="2"
     inkscape:zoom="5.2711645"
     inkscape:cx="-18.709446"
     inkscape:cy="40.931921"
     inkscape:document-units="px"
     inkscape:current-layer="layer4"
     showgrid="true"
     showborder="true"
     inkscape:showpageshadow="false"
     inkscape:window-width="1920"
     inkscape:window-height="1023"
     inkscape:window-x="0"
     inkscape:window-y="24"
     inkscape:window-maximized="1"
     inkscape:snap-global="true">
    <inkscape:grid
       type="xygrid"
       id="grid3732"
       visible="true"
       enabled="true" />
  </sodipodi:namedview>
  <metadata
     id="metadata2413">
    <rdf:RDF>
      <cc:Work
         rdf:about="">
        <dc:format>image/svg+xml</dc:format>
        <dc:type
           rdf:resource="http://purl.org/dc/dcmitype/StillImage" />
        <dc:title />
      </cc:Work>
    </rdf:RDF>
  </metadata>
  <g
     inkscape:groupmode="layer"
     id="layer2"
     inkscape:label="Blur Shadow"
     style="display:none"
     sodipodi:insensitive="true">
    <path
       style="opacity:0.9;fill:url(#ButtonShadow);fill-opacity:1;fill-rule:nonzero;stroke:none;filter:url(#filter3174)"
       d="M 11,7 C 7.676,7 5,9.676 5,13 l 0,73 c 0,3.324 2.676,6 6,6 l 74,0 c 3.324,0 6,-2.676 6,-6 L 91,13 C 91,9.676 88.324,7 85,7 L 11,7 z m -1,4 6,0 0,4 -6,0 0,-4 z m 70,0 6,0 0,4 -6,0 0,-4 z m -70,8 6,0 0,4 -6,0 0,-4 z m 70,0 6,0 0,4 -6,0 0,-4 z m -70,8 6,0 0,4 -6,0 0,-4 z m 70,0 6,0 0,4 -6,0 0,-4 z m -70,8 6,0 0,4 -6,0 0,-4 z m 70,0 6,0 0,4 -6,0 0,-4 z m -70,8 6,0 0,4 -6,0 0,-4 z m 70,0 6,0 0,4 -6,0 0,-4 z m -70,8 6,0 0,4 -6,0 0,-4 z m 70,0 6,0 0,4 -6,0 0,-4 z m -70,8 6,0 0,4 -6,0 0,-4 z m 70,0 6,0 0,4 -6,0 0,-4 z m -70,8 6,0 0,4 -6,0 0,-4 z m 70,0 6,0 0,4 -6,0 0,-4 z m -70,8 6,0 0,4 -6,0 0,-4 z m 70,0 6,0 0,4 -6,0 0,-4 z m -70,8 6,0 0,4 -6,0 0,-4 z m 70,0 6,0 0,4 -6,0 0,-4 z"
       id="rect3745" />
  </g>
  <g
     inkscape:groupmode="layer"
     id="layer3"
     inkscape:label="Shadow"
     style="display:inline"
     sodipodi:insensitive="true">
    <path
       sodipodi:type="inkscape:offset"
       inkscape:radius="1.0372351"
       inkscape:original="M 12 5.03125 C 7.053585 5.03125 3.03125 9.053585 3.03125 14 L 3.03125 85 C 3.03125 89.946415 7.053585 93.96875 12 93.96875 L 84 93.96875 C 88.946415 93.96875 92.96875 89.946415 92.96875 85 L 92.96875 14 C 92.96875 9.053585 88.946415 5.03125 84 5.03125 L 12 5.03125 z M 11.96875 12.96875 L 14.03125 12.96875 L 14.03125 13.03125 L 11.96875 13.03125 L 11.96875 12.96875 z M 81.96875 12.96875 L 84.03125 12.96875 L 84.03125 13.03125 L 81.96875 13.03125 L 81.96875 12.96875 z M 11.96875 20.96875 L 14.03125 20.96875 L 14.03125 21.03125 L 11.96875 21.03125 L 11.96875 20.96875 z M 81.96875 20.96875 L 84.03125 20.96875 L 84.03125 21.03125 L 81.96875 21.03125 L 81.96875 20.96875 z M 11.96875 28.96875 L 14.03125 28.96875 L 14.03125 29.03125 L 11.96875 29.03125 L 11.96875 28.96875 z M 81.96875 28.96875 L 84.03125 28.96875 L 84.03125 29.03125 L 81.96875 29.03125 L 81.96875 28.96875 z M 11.96875 36.96875 L 14.03125 36.96875 L 14.03125 37.03125 L 11.96875 37.03125 L 11.96875 36.96875 z M 81.96875 36.96875 L 84.03125 36.96875 L 84.03125 37.03125 L 81.96875 37.03125 L 81.96875 36.96875 z M 11.96875 44.96875 L 14.03125 44.96875 L 14.03125 45.03125 L 11.96875 45.03125 L 11.96875 44.96875 z M 81.96875 44.96875 L 84.03125 44.96875 L 84.03125 45.03125 L 81.96875 45.03125 L 81.96875 44.96875 z M 11.96875 52.96875 L 14.03125 52.96875 L 14.03125 53.03125 L 11.96875 53.03125 L 11.96875 52.96875 z M 81.96875 52.96875 L 84.03125 52.96875 L 84.03125 53.03125 L 81.96875 53.03125 L 81.96875 52.96875 z M 11.96875 60.96875 L 14.03125 60.96875 L 14.03125 61.03125 L 11.96875 61.03125 L 11.96875 60.96875 z M 81.96875 60.96875 L 84.03125 60.96875 L 84.03125 61.03125 L 81.96875 61.03125 L 81.96875 60.96875 z M 11.96875 68.96875 L 14.03125 68.96875 L 14.03125 69.03125 L 11.96875 69.03125 L 11.96875 68.96875 z M 81.96875 68.96875 L 84.03125 68.96875 L 84.03125 69.03125 L 81.96875 69.03125 L 81.96875 68.96875 z M 11.96875 76.96875 L 14.03125 76.96875 L 14.03125 77.03125 L 11.96875 77.03125 L 11.96875 76.96875 z M 81.96875 76.96875 L 84.03125 76.96875 L 84.03125 77.03125 L 81.96875 77.03125 L 81.96875 76.96875 z M 11.96875 84.96875 L 14.03125 84.96875 L 14.03125 85.03125 L 11.96875 85.03125 L 11.96875 84.96875 z M 81.96875 84.96875 L 84.03125 84.96875 L 84.03125 85.03125 L 81.96875 85.03125 L 81.96875 84.96875 z "
       style="opacity:0.07999998;fill:url(#linearGradient3719);fill-opacity:1;fill-rule:nonzero;stroke:none;display:inline"
       id="path3717"
       d="M 12,4 C 6.4912778,4 2,8.4912778 2,14 l 0,71 c 0,5.508722 4.4912778,10 10,10 l 72,0 c 5.508722,0 10,-4.491278 10,-10 L 94,14 C 94,8.4912778 89.508722,4 84,4 L 12,4 z" />
    <path
       sodipodi:type="inkscape:offset"
       inkscape:radius="0.97463393"
       inkscape:original="M 12 6 C 7.5798064 6 4 9.5798064 4 14 L 4 85 C 4 89.420194 7.5798064 93 12 93 L 84 93 C 88.420194 93 92 89.420194 92 85 L 92 14 C 92 9.5798064 88.420194 6 84 6 L 12 6 z M 11 12 L 15 12 L 15 14 L 11 14 L 11 12 z M 81 12 L 85 12 L 85 14 L 81 14 L 81 12 z M 11 20 L 15 20 L 15 22 L 11 22 L 11 20 z M 81 20 L 85 20 L 85 22 L 81 22 L 81 20 z M 11 28 L 15 28 L 15 30 L 11 30 L 11 28 z M 81 28 L 85 28 L 85 30 L 81 30 L 81 28 z M 11 36 L 15 36 L 15 38 L 11 38 L 11 36 z M 81 36 L 85 36 L 85 38 L 81 38 L 81 36 z M 11 44 L 15 44 L 15 46 L 11 46 L 11 44 z M 81 44 L 85 44 L 85 46 L 81 46 L 81 44 z M 11 52 L 15 52 L 15 54 L 11 54 L 11 52 z M 81 52 L 85 52 L 85 54 L 81 54 L 81 52 z M 11 60 L 15 60 L 15 62 L 11 62 L 11 60 z M 81 60 L 85 60 L 85 62 L 81 62 L 81 60 z M 11 68 L 15 68 L 15 70 L 11 70 L 11 68 z M 81 68 L 85 68 L 85 70 L 81 70 L 81 68 z M 11 76 L 15 76 L 15 78 L 11 78 L 11 76 z M 81 76 L 85 76 L 85 78 L 81 78 L 81 76 z M 11 84 L 15 84 L 15 86 L 11 86 L 11 84 z M 81 84 L 85 84 L 85 86 L 81 86 L 81 84 z "
       style="opacity:0.1;fill:url(#linearGradient3711);fill-opacity:1;fill-rule:nonzero;stroke:none;display:inline"
       id="path3709"
       d="M 12,5.03125 C 7.053585,5.03125 3.03125,9.053585 3.03125,14 l 0,71 c 0,4.946415 4.022335,8.96875 8.96875,8.96875 l 72,0 c 4.946415,0 8.96875,-4.022335 8.96875,-8.96875 l 0,-71 C 92.96875,9.053585 88.946415,5.03125 84,5.03125 l -72,0 z m -0.03125,7.9375 2.0625,0 0,0.0625 -2.0625,0 0,-0.0625 z m 70,0 2.0625,0 0,0.0625 -2.0625,0 0,-0.0625 z m -70,8 2.0625,0 0,0.0625 -2.0625,0 0,-0.0625 z m 70,0 2.0625,0 0,0.0625 -2.0625,0 0,-0.0625 z m -70,8 2.0625,0 0,0.0625 -2.0625,0 0,-0.0625 z m 70,0 2.0625,0 0,0.0625 -2.0625,0 0,-0.0625 z m -70,8 2.0625,0 0,0.0625 -2.0625,0 0,-0.0625 z m 70,0 2.0625,0 0,0.0625 -2.0625,0 0,-0.0625 z m -70,8 2.0625,0 0,0.0625 -2.0625,0 0,-0.0625 z m 70,0 2.0625,0 0,0.0625 -2.0625,0 0,-0.0625 z m -70,8 2.0625,0 0,0.0625 -2.0625,0 0,-0.0625 z m 70,0 2.0625,0 0,0.0625 -2.0625,0 0,-0.0625 z m -70,8 2.0625,0 0,0.0625 -2.0625,0 0,-0.0625 z m 70,0 2.0625,0 0,0.0625 -2.0625,0 0,-0.0625 z m -70,8 2.0625,0 0,0.0625 -2.0625,0 0,-0.0625 z m 70,0 2.0625,0 0,0.0625 -2.0625,0 0,-0.0625 z m -70,8 2.0625,0 0,0.0625 -2.0625,0 0,-0.0625 z m 70,0 2.0625,0 0,0.0625 -2.0625,0 0,-0.0625 z m -70,8 2.0625,0 0,0.0625 -2.0625,0 0,-0.0625 z m 70,0 2.0625,0 0,0.0625 -2.0625,0 0,-0.0625 z" />
    <path
       sodipodi:type="inkscape:offset"
       inkscape:radius="1.0102307"
       inkscape:original="M 12 7 C 8.122 7 5 10.122 5 14 L 5 85 C 5 88.878 8.122 92 12 92 L 84 92 C 87.878 92 91 88.878 91 85 L 91 14 C 91 10.122 87.878 7 84 7 L 12 7 z M 10 11 L 16 11 L 16 15 L 10 15 L 10 11 z M 80 11 L 86 11 L 86 15 L 80 15 L 80 11 z M 10 19 L 16 19 L 16 23 L 10 23 L 10 19 z M 80 19 L 86 19 L 86 23 L 80 23 L 80 19 z M 10 27 L 16 27 L 16 31 L 10 31 L 10 27 z M 80 27 L 86 27 L 86 31 L 80 31 L 80 27 z M 10 35 L 16 35 L 16 39 L 10 39 L 10 35 z M 80 35 L 86 35 L 86 39 L 80 39 L 80 35 z M 10 43 L 16 43 L 16 47 L 10 47 L 10 43 z M 80 43 L 86 43 L 86 47 L 80 47 L 80 43 z M 10 51 L 16 51 L 16 55 L 10 55 L 10 51 z M 80 51 L 86 51 L 86 55 L 80 55 L 80 51 z M 10 59 L 16 59 L 16 63 L 10 63 L 10 59 z M 80 59 L 86 59 L 86 63 L 80 63 L 80 59 z M 10 67 L 16 67 L 16 71 L 10 71 L 10 67 z M 80 67 L 86 67 L 86 71 L 80 71 L 80 67 z M 10 75 L 16 75 L 16 79 L 10 79 L 10 75 z M 80 75 L 86 75 L 86 79 L 80 79 L 80 75 z M 10 83 L 16 83 L 16 87 L 10 87 L 10 83 z M 80 83 L 86 83 L 86 87 L 80 87 L 80 83 z "
       style="opacity:0.2;fill:url(#linearGradient3702);fill-opacity:1;fill-rule:nonzero;stroke:none;display:inline"
       id="path3700"
       d="M 12,6 C 7.5798064,6 4,9.5798064 4,14 l 0,71 c 0,4.420194 3.5798064,8 8,8 l 72,0 c 4.420194,0 8,-3.579806 8,-8 L 92,14 C 92,9.5798064 88.420194,6 84,6 L 12,6 z m -1,6 4,0 0,2 -4,0 0,-2 z m 70,0 4,0 0,2 -4,0 0,-2 z m -70,8 4,0 0,2 -4,0 0,-2 z m 70,0 4,0 0,2 -4,0 0,-2 z m -70,8 4,0 0,2 -4,0 0,-2 z m 70,0 4,0 0,2 -4,0 0,-2 z m -70,8 4,0 0,2 -4,0 0,-2 z m 70,0 4,0 0,2 -4,0 0,-2 z m -70,8 4,0 0,2 -4,0 0,-2 z m 70,0 4,0 0,2 -4,0 0,-2 z m -70,8 4,0 0,2 -4,0 0,-2 z m 70,0 4,0 0,2 -4,0 0,-2 z m -70,8 4,0 0,2 -4,0 0,-2 z m 70,0 4,0 0,2 -4,0 0,-2 z m -70,8 4,0 0,2 -4,0 0,-2 z m 70,0 4,0 0,2 -4,0 0,-2 z m -70,8 4,0 0,2 -4,0 0,-2 z m 70,0 4,0 0,2 -4,0 0,-2 z m -70,8 4,0 0,2 -4,0 0,-2 z m 70,0 4,0 0,2 -4,0 0,-2 z" />
    <path
       style="opacity:0.3;fill:url(#linearGradient3725);fill-opacity:1;fill-rule:nonzero;stroke:none;display:inline"
       d="M 12,7 C 8.122,7 5,10.122 5,14 l 0,71 c 0,3.878 3.122,7 7,7 l 72,0 c 3.878,0 7,-3.122 7,-7 L 91,14 C 91,10.122 87.878,7 84,7 L 12,7 z m -2,4 6,0 0,4 -6,0 0,-4 z m 70,0 6,0 0,4 -6,0 0,-4 z m -70,8 6,0 0,4 -6,0 0,-4 z m 70,0 6,0 0,4 -6,0 0,-4 z m -70,8 6,0 0,4 -6,0 0,-4 z m 70,0 6,0 0,4 -6,0 0,-4 z m -70,8 6,0 0,4 -6,0 0,-4 z m 70,0 6,0 0,4 -6,0 0,-4 z m -70,8 6,0 0,4 -6,0 0,-4 z m 70,0 6,0 0,4 -6,0 0,-4 z m -70,8 6,0 0,4 -6,0 0,-4 z m 70,0 6,0 0,4 -6,0 0,-4 z m -70,8 6,0 0,4 -6,0 0,-4 z m 70,0 6,0 0,4 -6,0 0,-4 z m -70,8 6,0 0,4 -6,0 0,-4 z m 70,0 6,0 0,4 -6,0 0,-4 z m -70,8 6,0 0,4 -6,0 0,-4 z m 70,0 6,0 0,4 -6,0 0,-4 z m -70,8 6,0 0,4 -6,0 0,-4 z m 70,0 6,0 0,4 -6,0 0,-4 z"
       id="rect3723" />
    <path
       style="opacity:0.45;fill:url(#linearGradient3721);fill-opacity:1;fill-rule:nonzero;stroke:none;display:inline"
       d="M 12,7 C 8.676,7 6,9.676 6,13 l 0,72 c 0,3.324 2.676,6 6,6 l 72,0 c 3.324,0 6,-2.676 6,-6 L 90,13 C 90,9.676 87.324,7 84,7 L 12,7 z m -2,4 6,0 0,4 -6,0 0,-4 z m 70,0 6,0 0,4 -6,0 0,-4 z m -70,8 6,0 0,4 -6,0 0,-4 z m 70,0 6,0 0,4 -6,0 0,-4 z m -70,8 6,0 0,4 -6,0 0,-4 z m 70,0 6,0 0,4 -6,0 0,-4 z m -70,8 6,0 0,4 -6,0 0,-4 z m 70,0 6,0 0,4 -6,0 0,-4 z m -70,8 6,0 0,4 -6,0 0,-4 z m 70,0 6,0 0,4 -6,0 0,-4 z m -70,8 6,0 0,4 -6,0 0,-4 z m 70,0 6,0 0,4 -6,0 0,-4 z m -70,8 6,0 0,4 -6,0 0,-4 z m 70,0 6,0 0,4 -6,0 0,-4 z m -70,8 6,0 0,4 -6,0 0,-4 z m 70,0 6,0 0,4 -6,0 0,-4 z m -70,8 6,0 0,4 -6,0 0,-4 z m 70,0 6,0 0,4 -6,0 0,-4 z m -70,8 6,0 0,4 -6,0 0,-4 z m 70,0 6,0 0,4 -6,0 0,-4 z"
       id="rect3716" />
  </g>
  <g
     inkscape:label="Button"
     inkscape:groupmode="layer"
     id="layer1"
     style="display:inline"
     sodipodi:insensitive="true">
    <path
       style="fill:url(#linearGradient3885);fill-opacity:1;fill-rule:nonzero;stroke:none"
       d="M 12,6 C 8.676,6 6,8.676 6,12 l 0,72 c 0,3.324 2.676,6 6,6 l 72,0 c 3.324,0 6,-2.676 6,-6 L 90,12 C 90,8.676 87.324,6 84,6 L 12,6 z m -2,4 6,0 0,4 -6,0 0,-4 z m 70,0 6,0 0,4 -6,0 0,-4 z m -70,8 6,0 0,4 -6,0 0,-4 z m 70,0 6,0 0,4 -6,0 0,-4 z m -70,8 6,0 0,4 -6,0 0,-4 z m 70,0 6,0 0,4 -6,0 0,-4 z m -70,8 6,0 0,4 -6,0 0,-4 z m 70,0 6,0 0,4 -6,0 0,-4 z m -70,8 6,0 0,4 -6,0 0,-4 z m 70,0 6,0 0,4 -6,0 0,-4 z m -70,8 6,0 0,4 -6,0 0,-4 z m 70,0 6,0 0,4 -6,0 0,-4 z m -70,8 6,0 0,4 -6,0 0,-4 z m 70,0 6,0 0,4 -6,0 0,-4 z m -70,8 6,0 0,4 -6,0 0,-4 z m 70,0 6,0 0,4 -6,0 0,-4 z m -70,8 6,0 0,4 -6,0 0,-4 z m 70,0 6,0 0,4 -6,0 0,-4 z m -70,8 6,0 0,4 -6,0 0,-4 z m 70,0 6,0 0,4 -6,0 0,-4 z"
       id="rect2419" />
    <rect
       ry="6"
       rx="6"
       y="6"
       x="-104"
       height="84"
       width="84"
       id="rect3684"
       style="fill:url(#linearGradient3686);fill-opacity:1;fill-rule:nonzero;stroke:none" />
    <path
       id="path3747"
       d="m -100,10 0,4 6,0 0,-4 -6,0 z m 70,0 0,4 6,0 0,-4 -6,0 z m -70,8 0,4 6,0 0,-4 -6,0 z m 70,0 0,4 6,0 0,-4 -6,0 z m -70,8 0,4 6,0 0,-4 -6,0 z m 70,0 0,4 6,0 0,-4 -6,0 z m -70,8 0,4 6,0 0,-4 -6,0 z m 70,0 0,4 6,0 0,-4 -6,0 z m -70,8 0,4 6,0 0,-4 -6,0 z m 70,0 0,4 6,0 0,-4 -6,0 z m -70,8 0,4 6,0 0,-4 -6,0 z m 70,0 0,4 6,0 0,-4 -6,0 z m -70,8 0,4 6,0 0,-4 -6,0 z m 70,0 0,4 6,0 0,-4 -6,0 z m -70,8 0,4 6,0 0,-4 -6,0 z m 70,0 0,4 6,0 0,-4 -6,0 z m -70,8 0,4 6,0 0,-4 -6,0 z m 70,0 0,4 6,0 0,-4 -6,0 z m -70,8 0,4 6,0 0,-4 -6,0 z m 70,0 0,4 6,0 0,-4 -6,0 z"
       style="opacity:0.58874458;fill:#ff0000;fill-opacity:1;stroke:none;display:inline" />
  </g>
  <g
     inkscape:groupmode="layer"
     id="layer4"
     inkscape:label="Film">
    <rect
       style="fill:url(#radialGradient3804);fill-opacity:1.0;stroke:none"
       id="rect3796"
       width="56"
       height="48"
       x="20"
       y="24"
       rx="2"
       ry="2.0999999" />
    <path
       style="fill:url(#radialGradient3834);fill-opacity:1.0;stroke:none"
       d="m 22,78 c -1.108,0 -2,0.93035 -2,2.09375 L 20,90 76,90 76,80.09375 C 76,78.93035 75.108,78 74,78 l -52,0 z"
       id="rect3822"
       sodipodi:nodetypes="ccccccc" />
    <path
       id="path3830"
       d="m 22,18 c -1.108,0 -2,-0.93035 -2,-2.09375 L 20,6 76,6 76,15.90625 C 76,17.06965 75.108,18 74,18 l -52,0 z"
       style="fill:url(#radialGradient3832);fill-opacity:1.0;stroke:none"
       sodipodi:nodetypes="ccccccc" />
    <path
       style="opacity:0.7;fill:url(#linearGradient2943);fill-opacity:1;stroke:none"
       d="m 20,48 0,21.90625 C 20,71.06965 20.892,72 22,72 l 52,0 c 1.108,0 2,-0.93035 2,-2.09375 L 76,48 20,48 z m 2,30 c -1.108,0 -2,0.93035 -2,2.09375 L 20,90 76,90 76,80.09375 C 76,78.93035 75.108,78 74,78 l -52,0 z"
       id="rect3912" />
    <g
       id="g3823"
       transform="translate(10,0)">
      <g
         id="g3809">
        <path
           id="rect3770"
           d="m 100,6 0,9.90625 C 100,17.06965 100.892,18 102,18 l 52,0 c 1.108,0 2,-0.93035 2,-2.09375 L 156,6 l -2.03125,0 0,9.90625 c 0,0.0427 -0.002,0.05324 0,0.0625 l -51.9375,0 c 0.002,-0.0093 0,-0.0198 0,-0.0625 L 102.03125,6 100,6 z m 2,18 c -1.108,0 -2,0.93035 -2,2.09375 l 0,43.8125 C 100,71.06965 100.892,72 102,72 l 52,0 c 1.108,0 2,-0.93035 2,-2.09375 l 0,-43.8125 C 156,24.93035 155.108,24 154,24 l -52,0 z m 0.0312,2.03125 51.9375,0 c -0.002,0.0093 0,0.0198 0,0.0625 l 0,43.8125 c 0,0.0427 -0.002,0.05324 0,0.0625 l -51.9375,0 c 0.002,-0.0093 0,-0.0198 0,-0.0625 l 0,-43.8125 c 0,-0.0427 0.002,-0.05324 0,-0.0625 z M 102,78 c -1.108,0 -2,0.93035 -2,2.09375 L 100,90 l 2.03125,0 0,-9.90625 c 0,-0.0427 0.002,-0.0532 0,-0.0625 l 51.9375,0 c -0.002,0.0093 0,0.0198 0,0.0625 l 0,9.90625 2.03125,0 0,-9.90625 C 156,78.93035 155.108,78 154,78 l -52,0 z"
           style="opacity:0.05;fill:#000000;fill-opacity:1;stroke:none" />
        <path
           id="rect3763"
           d="m 100,6 0,9.90625 C 100,17.06965 100.892,18 102,18 l 52,0 c 1.108,0 2,-0.93035 2,-2.09375 L 156,6 l -0.90625,0 0,9.90625 c 0,0.700109 -0.49312,1.1875 -1.09375,1.1875 l -52,0 c -0.60063,0 -1.09375,-0.487391 -1.09375,-1.1875 L 100.90625,6 100,6 z m 2,18 c -1.108,0 -2,0.93035 -2,2.09375 l 0,43.8125 C 100,71.06965 100.892,72 102,72 l 52,0 c 1.108,0 2,-0.93035 2,-2.09375 l 0,-43.8125 C 156,24.93035 155.108,24 154,24 l -52,0 z m 0,0.90625 52,0 c 0.60063,0 1.09375,0.487391 1.09375,1.1875 l 0,43.8125 c 0,0.700109 -0.49312,1.1875 -1.09375,1.1875 l -52,0 c -0.60063,0 -1.09375,-0.487391 -1.09375,-1.1875 l 0,-43.8125 c 0,-0.700109 0.49312,-1.1875 1.09375,-1.1875 z M 102,78 c -1.108,0 -2,0.93035 -2,2.09375 L 100,90 l 0.90625,0 0,-9.90625 c 0,-0.700109 0.49312,-1.1875 1.09375,-1.1875 l 52,0 c 0.60063,0 1.09375,0.487391 1.09375,1.1875 l 0,9.90625 0.90625,0 0,-9.90625 C 156,78.93035 155.108,78 154,78 l -52,0 z"
           style="opacity:0.15;fill:#000000;fill-opacity:1;stroke:none" />
      </g>
    </g>
    <path
       style="fill:#ffffff;stroke:none"
       d="M 40,36 40,60 60.021419,48 40,36 z"
       id="path3828" />
    <path
       sodipodi:type="inkscape:offset"
       inkscape:radius="0.95145565"
       inkscape:original="M 40 36 L 40 60 L 60.03125 48 L 40 36 z "
       style="fill:#ffffff;stroke:none;opacity:0.2"
       id="path3833"
       d="M 39.84375,35.0625 A 0.9515508,0.9515508 0 0 0 39.0625,36 l 0,24 A 0.9515508,0.9515508 0 0 0 40.5,60.8125 l 20.03125,-12 a 0.9515508,0.9515508 0 0 0 0,-1.625 L 40.5,35.1875 a 0.9515508,0.9515508 0 0 0 -0.65625,-0.125 z" />
    <path
       style="opacity:0.05;fill:#ffffff;stroke:none"
       d="m 40.03125,33.9375 c -1.261906,-0.03384 -2.241241,1.213369 -2.0625,2.432808 0,7.970314 0,15.940628 0,23.910942 0.169303,1.395591 1.901244,2.244443 3.09375,1.46875 6.720455,-4.017724 13.427274,-8.060311 20.15625,-12.0625 0.944965,-0.670809 1.190826,-2.134557 0.375,-3 C 60.858747,45.969928 59.85449,45.568397 58.997144,44.993999 52.966867,41.38138 46.936419,37.769048 40.90625,34.15625 40.632029,34.020351 40.327604,33.992464 40.03125,33.9375 z"
       id="path3837" />
  </g>
  <g
     inkscape:groupmode="layer"
     id="layer5"
     inkscape:label="Highlight"
     style="display:inline"
     sodipodi:insensitive="true">
    <rect
       style="opacity:0.1;fill:url(#linearGradient3613);fill-opacity:1;fill-rule:nonzero;stroke:#ffffff;stroke-width:0.5;stroke-linecap:round;stroke-linejoin:miter;stroke-miterlimit:4;stroke-opacity:1;stroke-dasharray:none;stroke-dashoffset:0;filter:url(#filter3794)"
       id="rect3171"
       width="66"
       height="66"
       x="15"
       y="15"
       rx="12"
       ry="12"
       clip-path="url(#clipPath3613)" />
    <path
       style="opacity:0.25;fill:url(#linearGradient3188);fill-opacity:1;fill-rule:nonzero;stroke:none"
       d="M 12,6 C 8.676,6 6,8.676 6,12 l 0,2 0,68 0,2 c 0,0.334721 0.04135,0.6507 0.09375,0.96875 0.0487,0.295596 0.09704,0.596915 0.1875,0.875 0.00988,0.03038 0.020892,0.0636 0.03125,0.09375 0.098865,0.287771 0.2348802,0.547452 0.375,0.8125 0.1445918,0.273507 0.3156161,0.535615 0.5,0.78125 0.1843839,0.245635 0.3737765,0.473472 0.59375,0.6875 0.439947,0.428056 0.94291,0.814526 1.5,1.09375 0.278545,0.139612 0.5734731,0.246947 0.875,0.34375 -0.2562018,-0.100222 -0.4867109,-0.236272 -0.71875,-0.375 -0.00741,-0.0044 -0.023866,0.0045 -0.03125,0 -0.031933,-0.0193 -0.062293,-0.04251 -0.09375,-0.0625 -0.120395,-0.0767 -0.2310226,-0.163513 -0.34375,-0.25 -0.1061728,-0.0808 -0.2132809,-0.161112 -0.3125,-0.25 C 8.4783201,88.557317 8.3087904,88.373362 8.15625,88.1875 8.0486711,88.057245 7.9378561,87.922215 7.84375,87.78125 7.818661,87.74287 7.805304,87.69538 7.78125,87.65625 7.716487,87.553218 7.6510225,87.451733 7.59375,87.34375 7.4927417,87.149044 7.3880752,86.928049 7.3125,86.71875 7.30454,86.69694 7.288911,86.6782 7.28125,86.65625 7.2494249,86.5643 7.2454455,86.469419 7.21875,86.375 7.1884177,86.268382 7.1483606,86.171969 7.125,86.0625 7.0521214,85.720988 7,85.364295 7,85 L 7,83 7,15 7,13 C 7,10.218152 9.2181517,8 12,8 l 2,0 68,0 2,0 c 2.781848,0 5,2.218152 5,5 l 0,2 0,68 0,2 c 0,0.364295 -0.05212,0.720988 -0.125,1.0625 -0.04415,0.206893 -0.08838,0.397658 -0.15625,0.59375 -0.0077,0.02195 -0.0233,0.04069 -0.03125,0.0625 -0.06274,0.173739 -0.138383,0.367449 -0.21875,0.53125 -0.04158,0.0828 -0.07904,0.169954 -0.125,0.25 -0.0546,0.09721 -0.126774,0.18835 -0.1875,0.28125 -0.09411,0.140965 -0.204921,0.275995 -0.3125,0.40625 -0.143174,0.17445 -0.303141,0.346998 -0.46875,0.5 -0.01117,0.0102 -0.01998,0.02115 -0.03125,0.03125 -0.138386,0.125556 -0.285091,0.234436 -0.4375,0.34375 -0.102571,0.07315 -0.204318,0.153364 -0.3125,0.21875 -0.0074,0.0045 -0.02384,-0.0044 -0.03125,0 -0.232039,0.138728 -0.462548,0.274778 -0.71875,0.375 0.301527,-0.0968 0.596455,-0.204138 0.875,-0.34375 0.55709,-0.279224 1.060053,-0.665694 1.5,-1.09375 0.219973,-0.214028 0.409366,-0.441865 0.59375,-0.6875 0.184384,-0.245635 0.355408,-0.507743 0.5,-0.78125 0.14012,-0.265048 0.276135,-0.524729 0.375,-0.8125 0.01041,-0.03078 0.02133,-0.06274 0.03125,-0.09375 0.09046,-0.278085 0.1388,-0.579404 0.1875,-0.875 C 89.95865,84.6507 90,84.334721 90,84 l 0,-2 0,-68 0,-2 C 90,8.676 87.324,6 84,6 L 12,6 z"
       id="rect3728" />
    <path
       id="path3615"
       d="M 12,90 C 8.676,90 6,87.324 6,84 L 6,82 6,14 6,12 c 0,-0.334721 0.04135,-0.6507 0.09375,-0.96875 0.0487,-0.295596 0.09704,-0.596915 0.1875,-0.875 C 6.29113,10.12587 6.302142,10.09265 6.3125,10.0625 6.411365,9.774729 6.5473802,9.515048 6.6875,9.25 6.8320918,8.976493 7.0031161,8.714385 7.1875,8.46875 7.3718839,8.223115 7.5612765,7.995278 7.78125,7.78125 8.221197,7.353194 8.72416,6.966724 9.28125,6.6875 9.559795,6.547888 9.8547231,6.440553 10.15625,6.34375 9.9000482,6.443972 9.6695391,6.580022 9.4375,6.71875 c -0.00741,0.0044 -0.023866,-0.0045 -0.03125,0 -0.031933,0.0193 -0.062293,0.04251 -0.09375,0.0625 -0.120395,0.0767 -0.2310226,0.163513 -0.34375,0.25 -0.1061728,0.0808 -0.2132809,0.161112 -0.3125,0.25 C 8.4783201,7.442683 8.3087904,7.626638 8.15625,7.8125 8.0486711,7.942755 7.9378561,8.077785 7.84375,8.21875 7.818661,8.25713 7.805304,8.30462 7.78125,8.34375 7.716487,8.446782 7.6510225,8.548267 7.59375,8.65625 7.4927417,8.850956 7.3880752,9.071951 7.3125,9.28125 7.30454,9.30306 7.288911,9.3218 7.28125,9.34375 7.2494249,9.4357 7.2454455,9.530581 7.21875,9.625 7.1884177,9.731618 7.1483606,9.828031 7.125,9.9375 7.0521214,10.279012 7,10.635705 7,11 l 0,2 0,68 0,2 c 0,2.781848 2.2181517,5 5,5 l 2,0 68,0 2,0 c 2.781848,0 5,-2.218152 5,-5 l 0,-2 0,-68 0,-2 C 89,10.635705 88.94788,10.279012 88.875,9.9375 88.83085,9.730607 88.78662,9.539842 88.71875,9.34375 88.71105,9.3218 88.69545,9.30306 88.6875,9.28125 88.62476,9.107511 88.549117,8.913801 88.46875,8.75 88.42717,8.6672 88.38971,8.580046 88.34375,8.5 88.28915,8.40279 88.216976,8.31165 88.15625,8.21875 88.06214,8.077785 87.951329,7.942755 87.84375,7.8125 87.700576,7.63805 87.540609,7.465502 87.375,7.3125 87.36383,7.3023 87.35502,7.29135 87.34375,7.28125 87.205364,7.155694 87.058659,7.046814 86.90625,6.9375 86.803679,6.86435 86.701932,6.784136 86.59375,6.71875 c -0.0074,-0.0045 -0.02384,0.0044 -0.03125,0 -0.232039,-0.138728 -0.462548,-0.274778 -0.71875,-0.375 0.301527,0.0968 0.596455,0.204138 0.875,0.34375 0.55709,0.279224 1.060053,0.665694 1.5,1.09375 0.219973,0.214028 0.409366,0.441865 0.59375,0.6875 0.184384,0.245635 0.355408,0.507743 0.5,0.78125 0.14012,0.265048 0.276135,0.524729 0.375,0.8125 0.01041,0.03078 0.02133,0.06274 0.03125,0.09375 0.09046,0.278085 0.1388,0.579404 0.1875,0.875 C 89.95865,11.3493 90,11.665279 90,12 l 0,2 0,68 0,2 c 0,3.324 -2.676,6 -6,6 l -72,0 z"
       style="opacity:0.15;fill:url(#radialGradient3619);fill-opacity:1;fill-rule:nonzero;stroke:none" />
    <path
       sodipodi:type="inkscape:offset"
       inkscape:radius="0"
       inkscape:original="M 12 6 C 8.676 6 6 8.676 6 12 L 6 58.375 C 8.8979865 56.836504 11.906015 55.371075 15.0625 54 L 10 54 L 10 50 L 16 50 L 16 53.59375 C 36.054591 45.059076 60.988764 40 88 40 C 88.669441 40 89.333162 40.02506 90 40.03125 L 90 12 C 90 8.676 87.324 6 84 6 L 12 6 z M 10 10 L 16 10 L 16 14 L 10 14 L 10 10 z M 80 10 L 86 10 L 86 14 L 80 14 L 80 10 z M 10 18 L 16 18 L 16 22 L 10 22 L 10 18 z M 80 18 L 86 18 L 86 22 L 80 22 L 80 18 z M 10 26 L 16 26 L 16 30 L 10 30 L 10 26 z M 80 26 L 86 26 L 86 30 L 80 30 L 80 26 z M 10 34 L 16 34 L 16 38 L 10 38 L 10 34 z M 80 34 L 86 34 L 86 38 L 80 38 L 80 34 z M 10 42 L 16 42 L 16 46 L 10 46 L 10 42 z "
       style="opacity:0.4;fill:url(#radialGradient3761);fill-opacity:1;fill-rule:nonzero;stroke:none;display:inline"
       id="path3757"
       d="M 12,6 C 8.676,6 6,8.676 6,12 L 6,58.375 C 8.8979865,56.836504 11.906015,55.371075 15.0625,54 L 10,54 l 0,-4 6,0 0,3.59375 C 36.054591,45.059076 60.988764,40 88,40 c 0.669441,0 1.333162,0.02506 2,0.03125 L 90,12 C 90,8.676 87.324,6 84,6 L 12,6 z m -2,4 6,0 0,4 -6,0 0,-4 z m 70,0 6,0 0,4 -6,0 0,-4 z m -70,8 6,0 0,4 -6,0 0,-4 z m 70,0 6,0 0,4 -6,0 0,-4 z m -70,8 6,0 0,4 -6,0 0,-4 z m 70,0 6,0 0,4 -6,0 0,-4 z m -70,8 6,0 0,4 -6,0 0,-4 z m 70,0 6,0 0,4 -6,0 0,-4 z m -70,8 6,0 0,4 -6,0 0,-4 z" />
  </g>
</svg>
