<?xml version="1.0" encoding="UTF-8" standalone="no"?>
<!-- Created with Inkscape (http://www.inkscape.org/) -->

<svg
   xmlns:dc="http://purl.org/dc/elements/1.1/"
   xmlns:cc="http://creativecommons.org/ns#"
   xmlns:rdf="http://www.w3.org/1999/02/22-rdf-syntax-ns#"
   xmlns:svg="http://www.w3.org/2000/svg"
   xmlns="http://www.w3.org/2000/svg"
   xmlns:xlink="http://www.w3.org/1999/xlink"
   xmlns:sodipodi="http://sodipodi.sourceforge.net/DTD/sodipodi-0.dtd"
   xmlns:inkscape="http://www.inkscape.org/namespaces/inkscape"
   width="16"
   height="16"
   id="svg2"
   sodipodi:version="0.32"
   inkscape:version="0.48.0 r9654"
   version="1.0"
   sodipodi:docname="document-open-recent.svg"
   inkscape:output_extension="org.inkscape.output.svg.inkscape">
  <defs
     id="defs4">
    <linearGradient
       inkscape:collect="always"
       id="linearGradient3164">
      <stop
         style="stop-color:#000000;stop-opacity:1;"
         offset="0"
         id="stop3166" />
      <stop
         style="stop-color:#000000;stop-opacity:0;"
         offset="1"
         id="stop3168" />
    </linearGradient>
    <inkscape:perspective
       sodipodi:type="inkscape:persp3d"
       inkscape:vp_x="0 : 8 : 1"
       inkscape:vp_y="0 : 1000 : 0"
       inkscape:vp_z="16 : 8 : 1"
       inkscape:persp3d-origin="8 : 5.3333333 : 1"
       id="perspective25" />
    <linearGradient
       id="linearGradient3278">
      <stop
         style="stop-color:#000000;stop-opacity:1;"
         offset="0"
         id="stop3280" />
      <stop
         style="stop-color:#646464;stop-opacity:1;"
         offset="1"
         id="stop3282" />
    </linearGradient>
    <linearGradient
       id="linearGradient5452">
      <stop
         style="stop-color:#ffffff;stop-opacity:1;"
         offset="0"
         id="stop5454" />
      <stop
         style="stop-color:#ffffff;stop-opacity:0;"
         offset="1"
         id="stop5456" />
    </linearGradient>
    <linearGradient
       inkscape:collect="always"
       xlink:href="#linearGradient3278"
       id="linearGradient2509"
       gradientUnits="userSpaceOnUse"
       x1="67.486839"
       y1="7.75"
       x2="67.486839"
       y2="120.00103"
       gradientTransform="matrix(0.1780105,0,0,0.178971,-0.3926709,-40.931767)" />
    <linearGradient
       inkscape:collect="always"
       xlink:href="#StandardGradient"
       id="linearGradient2520"
       gradientUnits="userSpaceOnUse"
       x1="19.577816"
       y1="9.4571457"
       x2="2.366431"
       y2="9.4571457"
       gradientTransform="matrix(0,-0.6417474,0.6324505,0,1.0188234,14.564012)" />
    <radialGradient
       inkscape:collect="always"
       xlink:href="#linearGradient3164"
       id="radialGradient3170"
       cx="8.0812206"
       cy="14.966187"
       fx="8.0812206"
       fy="14.966187"
       r="5.110826"
       gradientTransform="matrix(1,0,0,0.1965812,0,12.024116)"
       gradientUnits="userSpaceOnUse" />
    <inkscape:perspective
       id="perspective3648"
       inkscape:persp3d-origin="0.5 : 0.33333333 : 1"
       inkscape:vp_z="1 : 0.5 : 1"
       inkscape:vp_y="0 : 1000 : 0"
       inkscape:vp_x="0 : 0.5 : 1"
       sodipodi:type="inkscape:persp3d" />
    <linearGradient
       inkscape:collect="always"
       xlink:href="#linearGradient3278"
       id="linearGradient3633"
       gradientUnits="userSpaceOnUse"
       gradientTransform="matrix(0,-0.6417474,0.6324505,0,1.0188234,15.564012)"
       x1="19.577816"
       y1="9.4571457"
       x2="2.366431"
       y2="9.4571457" />
    <linearGradient
       inkscape:collect="always"
       xlink:href="#linearGradient3278"
       id="linearGradient3635"
       gradientUnits="userSpaceOnUse"
       gradientTransform="matrix(0,-0.6417474,0.6324505,0,1.0188234,14.564012)"
       x1="19.577816"
       y1="9.4571457"
       x2="2.366431"
       y2="9.4571457" />
    <linearGradient
       inkscape:collect="always"
       xlink:href="#linearGradient3278"
       id="linearGradient3640"
       gradientUnits="userSpaceOnUse"
       gradientTransform="matrix(0,-0.6417474,0.6324505,0,1.0188234,15.564012)"
       x1="19.577816"
       y1="9.4571457"
       x2="2.366431"
       y2="9.4571457" />
    <linearGradient
       inkscape:collect="always"
       xlink:href="#linearGradient3278"
       id="linearGradient3644"
       gradientUnits="userSpaceOnUse"
       gradientTransform="matrix(0,-0.6417474,0.6324505,0,1.0188234,14.564012)"
       x1="19.577816"
       y1="9.4571457"
       x2="2.366431"
       y2="9.4571457" />
    <linearGradient
       inkscape:collect="always"
       xlink:href="#linearGradient3278"
       id="linearGradient3649"
       gradientUnits="userSpaceOnUse"
       gradientTransform="matrix(0,-0.6417474,0.6324505,0,-18.981177,14.564012)"
       x1="19.577816"
       y1="9.4571457"
       x2="2.366431"
       y2="9.4571457" />
    <clipPath
       clipPathUnits="userSpaceOnUse"
       id="clipPath3656">
      <path
         style="fill:#ff00ff;fill-opacity:1;stroke:none;display:inline"
         d="m -20,0 0,16 16,0 0,-16 -16,0 z m 8.09375,2.0625 c 0.173909,-0.017258 0.321578,0 0.5,0 2.967459,0 5.375001,2.4264217 5.375,5.4375 0,3.011078 -2.407541,5.46875 -5.375,5.46875 l 0,-1.84375 c 1.978306,0 3.59375,-1.6176151 3.59375,-3.625 0,-2.0073863 -1.615444,-3.624999 -3.59375,-3.625 -1.86764,0 -3.365967,1.430465 -3.53125,3.28125 l 1.875,0 -2.90625,4.09375 -2.71875,-4.09375 1.9375,0 c 0.162578,-2.6743762 2.235116,-4.834874 4.84375,-5.09375 z m 0.25,2.1875 0.59375,3.1875 2.1875,1.90625 -3.3125,-1.125 0.53125,-3.96875 z"
         id="path3658" />
    </clipPath>
    <filter
       inkscape:collect="always"
       id="filter3660">
      <feGaussianBlur
         inkscape:collect="always"
         stdDeviation="0.35375463"
         id="feGaussianBlur3662" />
    </filter>
    <linearGradient
       id="StandardGradient"
       gradientTransform="scale(1.1389662,0.8779892)"
       x1="6.4706173"
       y1="7.6491265"
       x2="6.4706173"
       y2="18.248226"
       gradientUnits="userSpaceOnUse">
      <stop
         style="stop-color:#000000;stop-opacity:0.86274511;"
         offset="0"
         id="stop3283" />
      <stop
         style="stop-color:#000000;stop-opacity:0.47058824;"
         offset="1"
         id="stop3285" />
    </linearGradient>
    <linearGradient
       y2="18.248226"
       x2="6.4706173"
       y1="7.6491265"
       x1="6.4706173"
       gradientTransform="matrix(1.1389662,0,0,0.8779892,2.5357387,1.0000184)"
       gradientUnits="userSpaceOnUse"
       id="linearGradient3026"
       xlink:href="#StandardGradient"
       inkscape:collect="always" />
    <linearGradient
       inkscape:collect="always"
       xlink:href="#StandardGradient"
       id="linearGradient3029"
       gradientUnits="userSpaceOnUse"
       gradientTransform="matrix(0,-0.6417474,0.6324505,0,1.0188234,14.564012)"
       x1="19.577816"
       y1="9.4571457"
       x2="2.366431"
       y2="9.4571457" />
    <linearGradient
       inkscape:collect="always"
       xlink:href="#StandardGradient"
       id="linearGradient3033"
       gradientUnits="userSpaceOnUse"
       gradientTransform="matrix(0,-0.6417474,0.6324505,0,1.0188234,14.564012)"
       x1="19.577816"
       y1="9.4571457"
       x2="2.366431"
       y2="9.4571457" />
  </defs>
  <sodipodi:namedview
     id="base"
     pagecolor="#ffffff"
     bordercolor="#9a9a9a"
     borderopacity="1"
     inkscape:pageopacity="0.0"
     inkscape:pageshadow="2"
     inkscape:zoom="28.328952"
     inkscape:cx="8.2232877"
     inkscape:cy="10.459358"
     inkscape:document-units="px"
     inkscape:current-layer="layer3"
     showgrid="true"
     inkscape:showpageshadow="false"
     showguides="true"
     inkscape:guide-bbox="true"
     inkscape:window-width="1920"
     inkscape:window-height="1029"
     inkscape:window-x="0"
     inkscape:window-y="25"
     inkscape:window-maximized="1">
    <sodipodi:guide
       orientation="0,1"
       position="26.278146,128"
       id="guide2385" />
    <sodipodi:guide
       orientation="1,0"
       position="128,54.082119"
       id="guide2387" />
    <inkscape:grid
       type="xygrid"
       id="grid3672"
       visible="true"
       enabled="true" />
  </sodipodi:namedview>
  <metadata
     id="metadata7">
    <rdf:RDF>
      <cc:Work
         rdf:about="">
        <dc:format>image/svg+xml</dc:format>
        <dc:type
           rdf:resource="http://purl.org/dc/dcmitype/StillImage" />
      </cc:Work>
    </rdf:RDF>
  </metadata>
  <g
     inkscape:groupmode="layer"
     id="layer3"
     inkscape:label="Arrow"
     style="display:inline">
    <path
       style="fill:#ffffff;fill-opacity:1;stroke:none;opacity:0.15"
       d="M 8.59375 1 C 5.5424417 1 3.087175 3.2096233 2.4375 6.09375 L 1.3125 6.09375 A 1.0590932 1.0590932 0 0 0 0.4375 7.75 L 3.15625 11.84375 A 1.0590932 1.0590932 0 0 0 4.90625 11.875 L 7 8.90625 A 1.0590932 1.0590932 0 0 0 7.46875 9.21875 L 9.1875 9.8125 C 8.9728559 9.8713286 8.8272555 10.0625 8.59375 10.0625 A 1.0590932 1.0590932 0 0 0 7.53125 11.125 L 7.53125 12.96875 A 1.0590932 1.0590932 0 0 0 8.59375 14.03125 C 12.145917 14.03125 15.03125 11.075561 15.03125 7.5 C 15.031251 3.9244379 12.138482 1 8.59375 1 z M 8.09375 2.0625 C 8.267659 2.0452416 8.4153275 2.0625 8.59375 2.0625 C 11.561209 2.0625 13.968751 4.4889217 13.96875 7.5 C 13.96875 10.511078 11.561209 12.96875 8.59375 12.96875 L 8.59375 11.125 C 10.572056 11.125 12.1875 9.5073849 12.1875 7.5 C 12.1875 5.4926137 10.572056 3.875001 8.59375 3.875 C 6.72611 3.875 5.2277827 5.305465 5.0625 7.15625 L 6.9375 7.15625 L 4.03125 11.25 L 1.3125 7.15625 L 3.25 7.15625 C 3.4125772 4.4818738 5.4851155 2.321376 8.09375 2.0625 z M 8.34375 4.25 L 8.9375 7.4375 L 11.125 9.34375 L 7.8125 8.21875 L 8.34375 4.25 z M 9.625 5.375 C 10.458297 5.7902488 11.125 6.4778576 11.125 7.5 C 11.125 7.6234676 11.01614 7.6941456 11 7.8125 L 9.90625 6.875 L 9.625 5.375 z M 7.09375 5.53125 L 7.03125 6.09375 A 1.0590932 1.0590932 0 0 0 6.9375 6.09375 L 6.65625 6.09375 C 6.7966895 5.8838303 6.8989206 5.6865965 7.09375 5.53125 z "
       id="path3031" />
    <path
       id="path3281"
       style="opacity:1;fill:url(#linearGradient2520);fill-opacity:1;stroke:none;stroke-width:1;stroke-linecap:round;stroke-linejoin:miter;stroke-miterlimit:4;stroke-dasharray:none;stroke-opacity:1"
       d="M 1.310124,7.1638623 L 4.02716,11.24922 L 6.9480465,7.1638623 L 5.0506951,7.1638623 C 5.2159778,5.3130773 6.7405891,3.8749063 8.6082291,3.8749063 C 10.586535,3.8749073 12.185527,5.4974043 12.185527,7.5047906 C 12.185527,9.5121755 10.586535,11.134674 8.6082291,11.134674 L 8.6082291,12.959643 C 11.575688,12.959643 13.984059,10.515869 13.984059,7.5047906 C 13.98406,4.4937123 11.575688,2.0499363 8.6082291,2.0499363 C 5.753469,2.0499363 3.4255798,4.3111943 3.2521641,7.1638623 L 1.310124,7.1638623 z M 8.3489196,4.2487987 L 7.8165985,8.2329721 L 11.117128,9.3593267 L 8.941757,7.4254967 L 8.3489196,4.2487987 z"
       sodipodi:nodetypes="ccccssccssccccccc" />
    <path
       style="opacity:0.5;fill:#000000;fill-opacity:1;stroke:none;stroke-width:1;stroke-linecap:round;stroke-linejoin:miter;stroke-miterlimit:4;stroke-dasharray:none;stroke-opacity:1"
       d="M 8.09375 2.0625 C 5.4851155 2.321376 3.4125772 4.4818738 3.25 7.15625 L 1.3125 7.15625 L 1.96875 8.15625 L 3.25 8.15625 C 3.4234157 5.303582 5.7389899 3.0625 8.59375 3.0625 C 11.375743 3.0625 13.693292 5.1879667 13.96875 7.9375 C 13.97992 7.7940248 13.96875 7.6463719 13.96875 7.5 C 13.968751 4.4889217 11.561209 2.0625 8.59375 2.0625 C 8.4153275 2.0625 8.267659 2.0452416 8.09375 2.0625 z M 8.46875 4.875 C 8.3912831 4.8778167 8.3261065 4.8985547 8.25 4.90625 L 7.8125 8.21875 L 7.9375 8.25 L 8.34375 5.25 L 8.9375 8.4375 L 9.25 8.71875 L 11.125 9.34375 L 8.9375 7.4375 L 8.46875 4.875 z M 5.3125 7.15625 C 5.1854894 7.4768159 5.0945718 7.7971194 5.0625 8.15625 L 6.21875 8.15625 L 6.9375 7.15625 L 5.3125 7.15625 z M 12.15625 8 C 12.038195 8.8866968 11.598462 9.6561065 10.96875 10.21875 L 11.125 10.34375 L 10.90625 10.25 C 10.283151 10.785246 9.4756718 11.125 8.59375 11.125 L 8.59375 12.125 C 10.572056 12.125 12.1875 10.507385 12.1875 8.5 C 12.1875 8.3258131 12.179532 8.1675822 12.15625 8 z "
       id="path3629" />
    <path
       style="opacity:0.3;fill:#ffffff;fill-opacity:1;stroke:none"
       d="M 8.59375 3.875 C 6.72611 3.875 5.2277827 5.305465 5.0625 7.15625 L 5.3125 7.15625 C 5.7972005 5.9328999 6.9034713 5.0424012 8.25 4.90625 L 8.34375 4.25 L 8.46875 4.875 C 8.5124226 4.8734121 8.5496821 4.875 8.59375 4.875 C 10.400392 4.8750009 11.911218 6.2363105 12.15625 8 C 12.17768 7.8390461 12.1875 7.6669937 12.1875 7.5 C 12.1875 5.4926137 10.572056 3.875001 8.59375 3.875 z M 13.96875 8.0625 C 13.693291 10.812033 11.375743 12.96875 8.59375 12.96875 L 8.59375 13.96875 C 11.561209 13.96875 13.96875 11.511078 13.96875 8.5 C 13.96875 8.3536281 13.97992 8.2059752 13.96875 8.0625 z M 1.3125 8.15625 L 4.03125 12.25 L 6.9375 8.15625 L 6.21875 8.15625 L 4.03125 11.25 L 1.96875 8.15625 L 1.3125 8.15625 z M 7.9375 8.25 L 7.8125 9.21875 L 10.90625 10.25 C 10.924031 10.234726 10.951271 10.234368 10.96875 10.21875 L 9.25 8.71875 L 7.9375 8.25 z "
       id="path3638" />
  </g>
</svg>
