<?xml version="1.0" encoding="UTF-8" standalone="no"?>
<!-- Created with Inkscape (http://www.inkscape.org/) -->

<svg
   xmlns:dc="http://purl.org/dc/elements/1.1/"
   xmlns:cc="http://creativecommons.org/ns#"
   xmlns:rdf="http://www.w3.org/1999/02/22-rdf-syntax-ns#"
   xmlns:svg="http://www.w3.org/2000/svg"
   xmlns="http://www.w3.org/2000/svg"
   xmlns:xlink="http://www.w3.org/1999/xlink"
   xmlns:sodipodi="http://sodipodi.sourceforge.net/DTD/sodipodi-0.dtd"
   xmlns:inkscape="http://www.inkscape.org/namespaces/inkscape"
   width="16"
   height="16"
   id="svg2"
   sodipodi:version="0.32"
   inkscape:version="0.48.0 r9654"
   version="1.0"
   sodipodi:docname="document-export.svg"
   inkscape:output_extension="org.inkscape.output.svg.inkscape"
   inkscape:export-filename="/home/matt/.icons/Sirocco/scalable/mimetypes/text-plain.png"
   inkscape:export-xdpi="90"
   inkscape:export-ydpi="90"
   sodipodi:modified="true"
   style="display:inline">
  <sodipodi:namedview
     id="base"
     pagecolor="#ffffff"
     bordercolor="#666666"
     borderopacity="1.0"
     inkscape:pageopacity="0.0"
     inkscape:pageshadow="2"
     inkscape:zoom="27.069102"
     inkscape:cx="9.7128661"
     inkscape:cy="3.1640533"
     inkscape:document-units="px"
     inkscape:current-layer="layer1"
     width="128px"
     height="128px"
     inkscape:showpageshadow="false"
     inkscape:window-width="1920"
     inkscape:window-height="1029"
     inkscape:window-x="0"
     inkscape:window-y="25"
     showguides="true"
     inkscape:guide-bbox="true"
     showgrid="true"
     inkscape:window-maximized="1">
    <sodipodi:guide
       id="guide2226"
       position="32.637397,117.99844"
       orientation="horizontal" />
    <sodipodi:guide
       id="guide2230"
       position="110,57.402344"
       orientation="vertical" />
    <sodipodi:guide
       id="guide2232"
       position="33.760911"
       orientation="horizontal" />
    <sodipodi:guide
       id="guide2231"
       position="46.774696"
       orientation="horizontal" />
    <inkscape:grid
       enabled="true"
       visible="true"
       id="grid3231"
       type="xygrid" />
    <sodipodi:guide
       orientation="1,0"
       position="100,67.625"
       id="guide2713" />
  </sodipodi:namedview>
  <defs
     id="defs4">
    <linearGradient
       id="StandardGradient"
       gradientTransform="scale(0.9219544,1.0846523)"
       x1="11.998966"
       y1="0.92195445"
       x2="11.998966"
       y2="19.387045"
       gradientUnits="userSpaceOnUse">
      <stop
         style="stop-color:#000000;stop-opacity:0.86274511;"
         offset="0"
         id="stop3283" />
      <stop
         style="stop-color:#000000;stop-opacity:0.47058824;"
         offset="1"
         id="stop2651" />
    </linearGradient>
    <linearGradient
       id="StandardGradient-9"
       gradientTransform="scale(0.9219544,1.0846523)"
       x1="11.998966"
       y1="0.92195445"
       x2="11.998966"
       y2="19.387045"
       gradientUnits="userSpaceOnUse">
      <stop
         style="stop-color:#000000;stop-opacity:0.86274511;"
         offset="0"
         id="stop3283-6" />
      <stop
         style="stop-color:#000000;stop-opacity:0.47058824;"
         offset="1"
         id="stop2651-4" />
    </linearGradient>
    <linearGradient
       inkscape:collect="always"
       xlink:href="#StandardGradient"
       id="linearGradient3097"
       gradientUnits="userSpaceOnUse"
       gradientTransform="matrix(0.9247229,0,0,1.0872097,13.939944,-21.002358)"
       x1="11.998966"
       y1="3.6800685"
       x2="11.998966"
       y2="15.638639" />
    <linearGradient
       inkscape:collect="always"
       xlink:href="#StandardGradient"
       id="linearGradient3113"
       gradientUnits="userSpaceOnUse"
       gradientTransform="matrix(-0.9247229,0,0,1.0872097,23.060056,-2.002358)"
       x1="11.998966"
       y1="2.8287227"
       x2="11.998966"
       y2="15.638639" />
  </defs>
  <metadata
     id="metadata7">
    <rdf:RDF>
      <cc:Work
         rdf:about="">
        <dc:format>image/svg+xml</dc:format>
        <dc:type
           rdf:resource="http://purl.org/dc/dcmitype/StillImage" />
        <dc:title></dc:title>
      </cc:Work>
    </rdf:RDF>
  </metadata>
  <g
     style="display:inline"
     inkscape:label="Calque 1"
     id="layer1"
     inkscape:groupmode="layer">
    <path
       style="opacity:0.15;fill:#ffffff;fill-opacity:1;stroke:none;display:inline"
       d="m -16.5,0 c -1.482044,-0.01411157 -2.639628,1.3688168 -2.5,2.8125 L -19,6 c -0.780658,-0.03153 -1.123717,0.8061771 -1,1.46875 0.09613,0.7627506 -0.25405,1.7186952 0.375,2.3125 0.687603,0.1211316 0.689603,0.520411 0.625,1.15625 0.08617,1.303639 -0.259396,2.709872 0.40625,3.90625 0.56377,0.848675 1.27504,1.136988 2.34375,1.15625 3.005224,-0.01221 5.995885,0.01155 9,-0.03125 C -5.766047,15.869921 -4.840149,14.392799 -5,13 -5.011332,9.418169 -4.991903,5.8308775 -5.03125,2.25 -5.157207,0.8710767 -6.444687,-0.1434867 -7.8125,0 L -16.5,0 z m 20,0 C 1.970247,-0.03689288 0.839474,1.4451683 1,2.90625 1.01133,6.5235328 0.9919,10.13367 1.03125,13.75 1.15721,15.128922 2.444683,16.143491 3.8125,16 c 3.010256,-0.01754 6.023114,0.03058 9.03125,-0.03125 1.054398,-0.171621 1.807844,-0.824553 2.09375,-2 0.104315,-1.043383 0.05224,-2.107898 0.03125,-3.15625 C 14.858253,10.19433 13.920271,10.095082 14.75,9.625 15.243022,9.0444492 16.271066,8.4971705 15.875,7.59375 15.44516,6.9716146 14.821862,6.496898 14.3125,5.9375 15.234036,5.6396467 14.963486,4.5483178 15,3.8125 15.034156,2.6257024 15.073804,1.1744909 13.9375,0.46875 12.798999,-0.27879232 11.404117,0.0873934 10.125,0 L 3.5,0 z m -20,1 0.5,0 8,0 0.5,0 c 0.103875,0 0.214678,0.01133 0.3125,0.03125 0.326943,0.066564 0.603453,0.227957 0.8125,0.46875 0.01949,0.02192 0.04431,0.039451 0.0625,0.0625 0.084724,0.110082 0.13577,0.243211 0.1875,0.375 0.01205,0.03023 0.02114,0.06258 0.03125,0.09375 C -6.04625,2.177754 -6,2.337263 -6,2.5 l 0,0.5 0,10 0,0.5 c 0,0.162738 -0.046245,0.322246 -0.09375,0.46875 -0.01011,0.03117 -0.0192,0.06352 -0.03125,0.09375 -0.051728,0.131789 -0.10278,0.264919 -0.1875,0.375 -0.01819,0.02305 -0.04301,0.04058 -0.0625,0.0625 -0.209047,0.240793 -0.485557,0.40219 -0.8125,0.46875 C -7.285322,14.98867 -7.396125,15 -7.5,15 l -0.5,0 -8,0 -0.5,0 c -0.285656,0 -0.554473,-0.08124 -0.78125,-0.21875 -0.01999,-0.01218 -0.04316,-0.01816 -0.0625,-0.03125 -0.104177,-0.07026 -0.19804,-0.15642 -0.28125,-0.25 -0.01913,-0.02204 -0.04468,-0.03934 -0.0625,-0.0625 -0.0885,-0.112145 -0.1337,-0.240045 -0.1875,-0.375 -0.01237,-0.03152 -0.02097,-0.0612 -0.03125,-0.09375 C -17.95376,13.822246 -18,13.662738 -18,13.5 l 0,-0.5 0,-3 2,0 0,2.5 c 0,0.277 0.223,0.5 0.5,0.5 l 7,0 c 0.277,0 0.5,-0.223 0.5,-0.5 l 0,-9 C -8,3.223 -8.223,3 -8.5,3 l -7,0 C -15.777,3 -16,3.223 -16,3.5 l 0,2.5 -2,0 0,-3 0,-0.5 c 0,-0.162737 0.04624,-0.322246 0.09375,-0.46875 0.01028,-0.03255 0.01888,-0.062228 0.03125,-0.09375 0.0538,-0.134955 0.099,-0.262856 0.1875,-0.375 0.01782,-0.023159 0.04337,-0.040464 0.0625,-0.0625 0.09914,-0.111495 0.215445,-0.20345 0.34375,-0.28125 0.05935,-0.03618 0.12289,-0.06605 0.1875,-0.09375 C -16.914172,1.0493 -16.70775,1 -16.5,1 z m 20,0 0.5,0 8,0 0.5,0 c 0.20775,0 0.414172,0.0493 0.59375,0.125 0.06461,0.0277 0.128151,0.05757 0.1875,0.09375 0.128305,0.0778 0.244614,0.169755 0.34375,0.28125 0.01913,0.022036 0.04468,0.039341 0.0625,0.0625 0.0885,0.112144 0.133705,0.240045 0.1875,0.375 0.01237,0.031522 0.02097,0.0612 0.03125,0.09375 C 13.953755,2.177754 14,2.337263 14,2.5 L 14,3 14,5 12,3 4.5,3 C 4.223,3 4,3.223 4,3.5 l 0,9 C 4,12.777 4.223,13 4.5,13 l 7.5,0 2,-2 0,2 0,0.5 c 0,0.162738 -0.04624,0.322246 -0.09375,0.46875 -0.01028,0.03255 -0.01888,0.06223 -0.03125,0.09375 -0.0538,0.134955 -0.099,0.262855 -0.1875,0.375 -0.01782,0.02316 -0.04337,0.04046 -0.0625,0.0625 -0.08321,0.09358 -0.177073,0.17974 -0.28125,0.25 -0.01934,0.01309 -0.04251,0.01907 -0.0625,0.03125 C 13.054473,14.91876 12.785656,15 12.5,15 L 12,15 4,15 3.5,15 C 3.396125,15 3.285322,14.98867 3.1875,14.96875 2.860557,14.90219 2.584047,14.740793 2.375,14.5 2.35551,14.47808 2.33069,14.46055 2.3125,14.4375 2.22778,14.327419 2.17673,14.194289 2.125,14.0625 2.11295,14.03227 2.10386,13.99992 2.09375,13.96875 2.04625,13.822246 2,13.662738 2,13.5 L 2,13 2,3 2,2.5 C 2,2.337263 2.04625,2.177754 2.09375,2.03125 2.10386,2.00008 2.11295,1.96773 2.125,1.9375 2.17673,1.805711 2.227776,1.672582 2.3125,1.5625 2.33069,1.539451 2.35551,1.52192 2.375,1.5 2.584047,1.259207 2.860557,1.097814 3.1875,1.03125 3.285322,1.01133 3.396125,1 3.5,1 z m -18.5,3 4,4 -4,4 0,-3 -4,0 0,-2 4,0 0,-3 z m 1.375,0 4.625,0 0,8 -4.625,0 c 1.139282,-1.160649 2.326804,-2.283188 3.4375,-3.46875 0.487418,-0.726529 -0.247625,-1.3917603 -0.75,-1.84375 L -13.625,4 z M 5,4 10,4 10,6 C 8.903788,6.02642 7.808681,5.937596 6.71875,6.03125 5.802417,6.2998195 6.023296,7.3693712 6,8.09375 5.987973,8.7648864 5.881125,9.7432193 6.71875,9.96875 7.80795,10.05786 8.904826,9.9757238 10,10 l 0,2 -5,0 0,-8 z m 6,0 4,4 -4,4 0,-3 -4,0 0,-2 4,0 0,-3 z"
       id="path3905"
       inkscape:connector-curvature="0" />
    <path
       style="fill:url(#linearGradient3097);fill-opacity:1;stroke:none;display:inline"
       d="m 24.5,-18 c -0.831,0 -1.5,0.669 -1.5,1.5 l 0,2.5 2,0 0,-1.5 c 0,-0.277 0.223,-0.5 0.5,-0.5 l 2.5,0 2.5,0 c 0.277,0 0.5,0.223 0.5,0.5 l 0,7 C 31,-8.223 30.777,-8 30.5,-8 L 28,-8 25.5,-8 C 25.223,-8 25,-8.223 25,-8.5 l 0,-1.5 -2,0 0,2.5 c 0,0.831 0.669,1.5 1.5,1.5 l 3.5,0 3.5,0 c 0.831,0 1.5,-0.669 1.5,-1.5 l 0,-9 c 0,-0.831 -0.669,-1.5 -1.5,-1.5 l -3.5,0 -3.5,0 z"
       id="path3032"
       inkscape:connector-curvature="0" />
    <path
       style="fill:#000000;stroke:none"
       d="m 21,-13 5,0 0,-2 3,3 -3,3 0,-2 -5,0 0,-2 z"
       id="path3043"
       inkscape:connector-curvature="0" />
    <path
       style="fill:url(#linearGradient3113);fill-opacity:1;stroke:none;display:inline"
       d="m -16.5,1 c -0.20775,0 -0.414172,0.0493 -0.59375,0.125 -0.06461,0.0277 -0.128151,0.05757 -0.1875,0.09375 -0.128305,0.0778 -0.244614,0.169755 -0.34375,0.28125 -0.01913,0.022036 -0.04468,0.039341 -0.0625,0.0625 -0.0885,0.112144 -0.133705,0.240045 -0.1875,0.375 -0.01237,0.031522 -0.02097,0.0612 -0.03125,0.09375 C -17.953755,2.177754 -18,2.337263 -18,2.5 l 0,0.5 0,3 2,0 0,-2.5 C -16,3.223 -15.777,3 -15.5,3 l 7,0 C -8.223,3 -8,3.223 -8,3.5 l 0,9 c 0,0.277 -0.223,0.5 -0.5,0.5 l -7,0 c -0.277,0 -0.5,-0.223 -0.5,-0.5 l 0,-2.5 -2,0 0,3 0,0.5 c 0,0.162738 0.04624,0.322246 0.09375,0.46875 0.01028,0.03255 0.01888,0.06223 0.03125,0.09375 0.0538,0.134955 0.099,0.262855 0.1875,0.375 0.01782,0.02316 0.04337,0.04046 0.0625,0.0625 0.08321,0.09358 0.177073,0.179735 0.28125,0.25 0.01934,0.01309 0.04251,0.01907 0.0625,0.03125 C -17.054473,14.91876 -16.785656,15 -16.5,15 l 0.5,0 8,0 0.5,0 c 0.103875,0 0.214678,-0.01133 0.3125,-0.03125 0.326943,-0.06656 0.603453,-0.227957 0.8125,-0.46875 0.01949,-0.02192 0.04431,-0.03945 0.0625,-0.0625 0.08472,-0.110081 0.135772,-0.243211 0.1875,-0.375 0.01205,-0.03023 0.02114,-0.06258 0.03125,-0.09375 C -6.046245,13.822246 -6,13.662738 -6,13.5 L -6,13 -6,3 -6,2.5 C -6,2.337263 -6.04625,2.177754 -6.09375,2.03125 -6.10386,2.00008 -6.11295,1.96773 -6.125,1.9375 -6.17673,1.805711 -6.227776,1.672582 -6.3125,1.5625 -6.33069,1.539451 -6.35551,1.52192 -6.375,1.5 -6.584047,1.259207 -6.860557,1.097814 -7.1875,1.03125 -7.285322,1.01133 -7.396125,1 -7.5,1 l -0.5,0 -8,0 -0.5,0 z m 20,0 C 3.396125,1 3.285322,1.01133 3.1875,1.03125 2.860557,1.097814 2.584047,1.259207 2.375,1.5 2.35551,1.52192 2.33069,1.539451 2.3125,1.5625 2.227776,1.672582 2.17673,1.805711 2.125,1.9375 2.11295,1.96773 2.10386,2.00008 2.09375,2.03125 2.04625,2.177754 2,2.337263 2,2.5 L 2,3 2,13 2,13.5 c 0,0.162738 0.04625,0.322246 0.09375,0.46875 0.01011,0.03117 0.0192,0.06352 0.03125,0.09375 0.05173,0.131789 0.10278,0.264919 0.1875,0.375 0.01819,0.02305 0.04301,0.04058 0.0625,0.0625 0.209047,0.240793 0.485557,0.40219 0.8125,0.46875 C 3.285322,14.98867 3.396125,15 3.5,15 l 0.5,0 8,0 0.5,0 c 0.285656,0 0.554473,-0.08124 0.78125,-0.21875 0.01999,-0.01218 0.04316,-0.01816 0.0625,-0.03125 0.104177,-0.07026 0.19804,-0.15642 0.28125,-0.25 0.01913,-0.02204 0.04468,-0.03934 0.0625,-0.0625 0.0885,-0.112145 0.1337,-0.240045 0.1875,-0.375 0.01237,-0.03152 0.02097,-0.0612 0.03125,-0.09375 C 13.95376,13.822246 14,13.662738 14,13.5 l 0,-0.5 0,-2 -2,2 -7.5,0 C 4.223,13 4,12.777 4,12.5 l 0,-9 C 4,3.223 4.223,3 4.5,3 L 12,3 14,5 14,3 14,2.5 C 14,2.337263 13.953755,2.177754 13.90625,2.03125 13.89597,1.9987 13.88737,1.969022 13.875,1.9375 13.821205,1.802545 13.776,1.674644 13.6875,1.5625 13.66968,1.539341 13.64413,1.522036 13.625,1.5 13.525864,1.388505 13.409555,1.29655 13.28125,1.21875 13.221901,1.18257 13.15836,1.1527 13.09375,1.125 12.914172,1.0493 12.70775,1 12.5,1 L 12,1 4,1 3.5,1 z m -18.5,3 0,3 -4,0 0,2 4,0 0,3 4,-4 -4,-4 z m 26,0 0,3 -4,0 0,2 4,0 0,3 4,-4 -4,-4 z"
       id="path3083"
       inkscape:connector-curvature="0" />
    <path
       style="opacity:0.5;fill:#000000;fill-opacity:1;stroke:none;display:inline"
       d="m -16.5,1 c -0.20775,0 -0.414172,0.0493 -0.59375,0.125 -0.06461,0.0277 -0.128151,0.05757 -0.1875,0.09375 -0.128305,0.0778 -0.244614,0.169755 -0.34375,0.28125 -0.01913,0.022036 -0.04468,0.039341 -0.0625,0.0625 -0.0885,0.112144 -0.133705,0.240045 -0.1875,0.375 -0.01237,0.031522 -0.02097,0.0612 -0.03125,0.09375 C -17.953755,2.177754 -18,2.337263 -18,2.5 l 0,0.5 0,0.5 c 0,-0.162737 0.04624,-0.322246 0.09375,-0.46875 0.01028,-0.03255 0.01888,-0.062228 0.03125,-0.09375 0.0538,-0.134955 0.099,-0.262856 0.1875,-0.375 0.01782,-0.023159 0.04337,-0.040464 0.0625,-0.0625 0.09914,-0.111495 0.215445,-0.20345 0.34375,-0.28125 0.05935,-0.03618 0.12289,-0.06605 0.1875,-0.09375 C -16.914172,2.0493 -16.70775,2 -16.5,2 l 0.5,0 8,0 0.5,0 c 0.103875,0 0.214678,0.01133 0.3125,0.03125 0.326943,0.066564 0.603453,0.227957 0.8125,0.46875 0.01949,0.02192 0.04431,0.039451 0.0625,0.0625 0.084724,0.110082 0.13577,0.243211 0.1875,0.375 0.01205,0.03023 0.02114,0.06258 0.03125,0.09375 C -6.04625,3.177754 -6,3.337263 -6,3.5 L -6,3 -6,2.5 C -6,2.337263 -6.04625,2.177754 -6.09375,2.03125 -6.10386,2.00008 -6.11295,1.96773 -6.125,1.9375 -6.17673,1.805711 -6.227776,1.672582 -6.3125,1.5625 -6.33069,1.539451 -6.35551,1.52192 -6.375,1.5 -6.584047,1.259207 -6.860557,1.097814 -7.1875,1.03125 -7.285322,1.01133 -7.396125,1 -7.5,1 l -0.5,0 -8,0 -0.5,0 z m 20,0 C 3.396125,1 3.285322,1.01133 3.1875,1.03125 2.860557,1.097814 2.584047,1.259207 2.375,1.5 2.35551,1.52192 2.33069,1.539451 2.3125,1.5625 2.227776,1.672582 2.17673,1.805711 2.125,1.9375 2.11295,1.96773 2.10386,2.00008 2.09375,2.03125 2.04625,2.177754 2,2.337263 2,2.5 L 2,3 2,3.5 C 2,3.337263 2.04625,3.177754 2.09375,3.03125 2.10386,3.00008 2.11295,2.96773 2.125,2.9375 2.17673,2.805711 2.227776,2.672582 2.3125,2.5625 2.33069,2.539451 2.35551,2.52192 2.375,2.5 2.584047,2.259207 2.860557,2.097814 3.1875,2.03125 3.285322,2.01133 3.396125,2 3.5,2 l 0.5,0 8,0 0.5,0 c 0.20775,0 0.414172,0.0493 0.59375,0.125 0.06461,0.0277 0.128151,0.05757 0.1875,0.09375 0.128305,0.0778 0.244614,0.169755 0.34375,0.28125 0.01913,0.022036 0.04468,0.039341 0.0625,0.0625 0.0885,0.112144 0.133705,0.240045 0.1875,0.375 0.01237,0.031522 0.02097,0.0612 0.03125,0.09375 C 13.953755,3.177754 14,3.337263 14,3.5 L 14,3 14,2.5 C 14,2.337263 13.953755,2.177754 13.90625,2.03125 13.89597,1.9987 13.88737,1.969022 13.875,1.9375 13.821205,1.802545 13.776,1.674644 13.6875,1.5625 13.66968,1.539341 13.64413,1.522036 13.625,1.5 13.525864,1.388505 13.409555,1.29655 13.28125,1.21875 13.221901,1.18257 13.15836,1.1527 13.09375,1.125 12.914172,1.0493 12.70775,1 12.5,1 L 12,1 4,1 3.5,1 z M -15,4 -15,5 -11.5,8.5 -11,8 -15,4 z M 11,4 11,5 14.5,8.5 15,8 11,4 z m -30,3 0,1 4,0 0,-1 -1,0 -2,0 -1,0 z M 7,7 7,8 11,8 11,7 7,7 z m -25,3 0,1 2,0 0,-1 -2,0 z m 32,1 -2,2 -1,0 -6.5,0 C 4.223,13 4,12.777 4,12.5 l 0,1 C 4,13.777 4.223,14 4.5,14 l 7.5,0 2,-2 0,-1 z m -30,1.5 0,1 c 0,0.277 0.223,0.5 0.5,0.5 l 7,0 c 0.277,0 0.5,-0.223 0.5,-0.5 l 0,-1 c 0,0.277 -0.223,0.5 -0.5,0.5 l -6.5,0 -0.5,0 c -0.277,0 -0.5,-0.223 -0.5,-0.5 z"
       id="path3115"
       inkscape:connector-curvature="0" />
    <path
       style="opacity:0.3;fill:#ffffff;fill-opacity:1;stroke:none;display:inline"
       d="M -15.5,3 C -15.777,3 -16,3.223 -16,3.5 l 0,1 C -16,4.223 -15.777,4 -15.5,4 l 0.5,0 6.5,0 C -8.223,4 -8,4.223 -8,4.5 l 0,-1 C -8,3.223 -8.223,3 -8.5,3 l -7,0 z m 20,0 C 4.223,3 4,3.223 4,3.5 l 0,1 C 4,4.223 4.223,4 4.5,4 L 11,4 12,4 14,6 14,5 12,3 4.5,3 z m -22.5,3 0,1 2,0 0,-1 -2,0 z m 6.5,2.5 -3.5,3.5 0,1 4,-4 -0.5,-0.5 z m 26,0 L 11,12 11,13 15,9 14.5,8.5 z M -19,9 l 0,1 1,0 2,0 1,0 0,-1 -4,0 z m 26,0 0,1 4,0 0,-1 -4,0 z m -25,4.5 0,0.5 0,0.5 c 0,0.162738 0.04624,0.322246 0.09375,0.46875 0.01028,0.03255 0.01888,0.06223 0.03125,0.09375 0.0538,0.134955 0.099,0.262855 0.1875,0.375 0.01782,0.02316 0.04337,0.04046 0.0625,0.0625 0.08321,0.09358 0.177073,0.179735 0.28125,0.25 0.01934,0.01309 0.04251,0.01907 0.0625,0.03125 C -17.054473,15.91876 -16.785656,16 -16.5,16 l 0.5,0 8,0 0.5,0 c 0.103875,0 0.214678,-0.01133 0.3125,-0.03125 0.326943,-0.06656 0.603453,-0.227957 0.8125,-0.46875 0.01949,-0.02192 0.04431,-0.03945 0.0625,-0.0625 0.08472,-0.110081 0.135772,-0.243211 0.1875,-0.375 0.01205,-0.03023 0.02114,-0.06258 0.03125,-0.09375 C -6.046245,14.822246 -6,14.662738 -6,14.5 l 0,-0.5 0,-0.5 c 0,0.162738 -0.046245,0.322246 -0.09375,0.46875 -0.01011,0.03117 -0.0192,0.06352 -0.03125,0.09375 -0.051728,0.131789 -0.10278,0.264919 -0.1875,0.375 -0.01819,0.02305 -0.04301,0.04058 -0.0625,0.0625 -0.209047,0.240793 -0.485557,0.40219 -0.8125,0.46875 C -7.285322,14.98867 -7.396125,15 -7.5,15 l -0.5,0 -8,0 -0.5,0 c -0.285656,0 -0.554473,-0.08124 -0.78125,-0.21875 -0.01999,-0.01218 -0.04316,-0.01816 -0.0625,-0.03125 -0.104177,-0.07026 -0.19804,-0.15642 -0.28125,-0.25 -0.01913,-0.02204 -0.04468,-0.03934 -0.0625,-0.0625 -0.0885,-0.112145 -0.1337,-0.240045 -0.1875,-0.375 -0.01237,-0.03152 -0.02097,-0.0612 -0.03125,-0.09375 C -17.95376,13.822246 -18,13.662738 -18,13.5 z m 20,0 0,0.5 0,0.5 c 0,0.162738 0.04625,0.322246 0.09375,0.46875 0.01011,0.03117 0.0192,0.06352 0.03125,0.09375 0.05173,0.131789 0.10278,0.264919 0.1875,0.375 0.01819,0.02305 0.04301,0.04058 0.0625,0.0625 0.209047,0.240793 0.485557,0.40219 0.8125,0.46875 C 3.285322,15.98867 3.396125,16 3.5,16 l 0.5,0 8,0 0.5,0 c 0.285656,0 0.554473,-0.08124 0.78125,-0.21875 0.01999,-0.01218 0.04316,-0.01816 0.0625,-0.03125 0.104177,-0.07026 0.19804,-0.15642 0.28125,-0.25 0.01913,-0.02204 0.04468,-0.03934 0.0625,-0.0625 0.0885,-0.112145 0.1337,-0.240045 0.1875,-0.375 0.01237,-0.03152 0.02097,-0.0612 0.03125,-0.09375 C 13.95376,14.822246 14,14.662738 14,14.5 l 0,-0.5 0,-0.5 c 0,0.162738 -0.04624,0.322246 -0.09375,0.46875 -0.01028,0.03255 -0.01888,0.06223 -0.03125,0.09375 -0.0538,0.134955 -0.099,0.262855 -0.1875,0.375 -0.01782,0.02316 -0.04337,0.04046 -0.0625,0.0625 -0.08321,0.09358 -0.177073,0.17974 -0.28125,0.25 -0.01934,0.01309 -0.04251,0.01907 -0.0625,0.03125 C 13.054473,14.91876 12.785656,15 12.5,15 L 12,15 4,15 3.5,15 C 3.396125,15 3.285322,14.98867 3.1875,14.96875 2.860557,14.90219 2.584047,14.740793 2.375,14.5 2.35551,14.47808 2.33069,14.46055 2.3125,14.4375 2.22778,14.327419 2.17673,14.194289 2.125,14.0625 2.11295,14.03227 2.10386,13.99992 2.09375,13.96875 2.04625,13.822246 2,13.662738 2,13.5 z"
       id="path3892"
       inkscape:connector-curvature="0" />
  </g>
</svg>
