<?xml version="1.0" encoding="UTF-8" standalone="no"?>
<!-- Created with Inkscape (http://www.inkscape.org/) -->

<svg
   xmlns:dc="http://purl.org/dc/elements/1.1/"
   xmlns:cc="http://creativecommons.org/ns#"
   xmlns:rdf="http://www.w3.org/1999/02/22-rdf-syntax-ns#"
   xmlns:svg="http://www.w3.org/2000/svg"
   xmlns="http://www.w3.org/2000/svg"
   xmlns:xlink="http://www.w3.org/1999/xlink"
   xmlns:sodipodi="http://sodipodi.sourceforge.net/DTD/sodipodi-0.dtd"
   xmlns:inkscape="http://www.inkscape.org/namespaces/inkscape"
   width="16"
   height="16"
   id="svg2"
   sodipodi:version="0.32"
   inkscape:version="0.48.0 r9654"
   version="1.0"
   sodipodi:docname="document-import.svg"
   inkscape:output_extension="org.inkscape.output.svg.inkscape"
   inkscape:export-filename="/home/matt/.icons/Sirocco/scalable/mimetypes/text-plain.png"
   inkscape:export-xdpi="90"
   inkscape:export-ydpi="90"
   sodipodi:modified="true"
   style="display:inline">
  <sodipodi:namedview
     id="base"
     pagecolor="#ffffff"
     bordercolor="#666666"
     borderopacity="1.0"
     inkscape:pageopacity="0.0"
     inkscape:pageshadow="2"
     inkscape:zoom="27.069102"
     inkscape:cx="9.7128661"
     inkscape:cy="3.1640533"
     inkscape:document-units="px"
     inkscape:current-layer="layer1"
     width="128px"
     height="128px"
     inkscape:showpageshadow="false"
     inkscape:window-width="1920"
     inkscape:window-height="1029"
     inkscape:window-x="0"
     inkscape:window-y="25"
     showguides="true"
     inkscape:guide-bbox="true"
     showgrid="true"
     inkscape:window-maximized="1">
    <sodipodi:guide
       id="guide2226"
       position="32.637397,117.99844"
       orientation="horizontal" />
    <sodipodi:guide
       id="guide2230"
       position="110,57.402344"
       orientation="vertical" />
    <sodipodi:guide
       id="guide2232"
       position="33.760911"
       orientation="horizontal" />
    <sodipodi:guide
       id="guide2231"
       position="46.774696"
       orientation="horizontal" />
    <inkscape:grid
       enabled="true"
       visible="true"
       id="grid3231"
       type="xygrid" />
    <sodipodi:guide
       orientation="1,0"
       position="100,67.625"
       id="guide2713" />
  </sodipodi:namedview>
  <defs
     id="defs4">
    <linearGradient
       id="StandardGradient"
       gradientTransform="scale(0.9219544,1.0846523)"
       x1="11.998966"
       y1="0.92195445"
       x2="11.998966"
       y2="19.387045"
       gradientUnits="userSpaceOnUse">
      <stop
         style="stop-color:#000000;stop-opacity:0.86274511;"
         offset="0"
         id="stop3283" />
      <stop
         style="stop-color:#000000;stop-opacity:0.47058824;"
         offset="1"
         id="stop2651" />
    </linearGradient>
    <linearGradient
       inkscape:collect="always"
       xlink:href="#StandardGradient"
       id="linearGradient2407"
       gradientUnits="userSpaceOnUse"
       gradientTransform="matrix(0.9247229,0,0,1.0872097,-6.0600562,-2.0023583)"
       x1="11.998966"
       y1="3.6800685"
       x2="11.998966"
       y2="15.638639" />
    <linearGradient
       inkscape:collect="always"
       xlink:href="#StandardGradient"
       id="linearGradient3036"
       gradientUnits="userSpaceOnUse"
       gradientTransform="matrix(0.9247229,0,0,-1.0872097,-6.0600562,16.002358)"
       x1="11.998966"
       y1="3.6800685"
       x2="11.998966"
       y2="15.638639" />
    <linearGradient
       inkscape:collect="always"
       xlink:href="#StandardGradient"
       id="linearGradient3038"
       gradientUnits="userSpaceOnUse"
       gradientTransform="matrix(0.9247229,0,0,1.0872097,-6.0600562,-2.0023583)"
       x1="11.998966"
       y1="3.6800685"
       x2="11.998966"
       y2="15.638639" />
    <linearGradient
       inkscape:collect="always"
       xlink:href="#StandardGradient"
       id="linearGradient3041"
       gradientUnits="userSpaceOnUse"
       gradientTransform="matrix(0.9247229,0,0,1.0872097,-6.0600562,-1.0023583)"
       x1="11.998966"
       y1="3.6800685"
       x2="11.998966"
       y2="15.638639" />
    <linearGradient
       id="StandardGradient-9"
       gradientTransform="scale(0.9219544,1.0846523)"
       x1="11.998966"
       y1="0.92195445"
       x2="11.998966"
       y2="19.387045"
       gradientUnits="userSpaceOnUse">
      <stop
         style="stop-color:#000000;stop-opacity:0.86274511;"
         offset="0"
         id="stop3283-6" />
      <stop
         style="stop-color:#000000;stop-opacity:0.47058824;"
         offset="1"
         id="stop2651-4" />
    </linearGradient>
    <linearGradient
       y2="15.638639"
       x2="11.998966"
       y1="2.8287227"
       x1="11.998966"
       gradientTransform="matrix(0.9247229,0,0,1.0872097,-27.060056,-2.0023583)"
       gradientUnits="userSpaceOnUse"
       id="linearGradient3053"
       xlink:href="#StandardGradient-9"
       inkscape:collect="always" />
    <linearGradient
       inkscape:collect="always"
       xlink:href="#StandardGradient-9"
       id="linearGradient3085"
       gradientUnits="userSpaceOnUse"
       gradientTransform="matrix(0.9247229,0,0,1.0872097,-27.060056,-2.0023583)"
       x1="11.998966"
       y1="2.8287227"
       x2="11.998966"
       y2="15.638639" />
    <linearGradient
       inkscape:collect="always"
       xlink:href="#StandardGradient-9"
       id="linearGradient3088"
       gradientUnits="userSpaceOnUse"
       gradientTransform="matrix(0.9247229,0,0,1.0872097,-27.060056,-2.002358)"
       x1="11.998966"
       y1="2.8287227"
       x2="11.998966"
       y2="15.638639" />
    <linearGradient
       inkscape:collect="always"
       xlink:href="#StandardGradient-9"
       id="linearGradient3095"
       gradientUnits="userSpaceOnUse"
       gradientTransform="matrix(-0.9247229,0,0,1.0872097,23.060056,-2.002358)"
       x1="11.998966"
       y1="2.8287227"
       x2="11.998966"
       y2="15.638639" />
    <linearGradient
       inkscape:collect="always"
       xlink:href="#StandardGradient"
       id="linearGradient3097"
       gradientUnits="userSpaceOnUse"
       gradientTransform="matrix(0.9247229,0,0,1.0872097,13.939944,-21.002358)"
       x1="11.998966"
       y1="3.6800685"
       x2="11.998966"
       y2="15.638639" />
    <linearGradient
       inkscape:collect="always"
       xlink:href="#StandardGradient-9"
       id="linearGradient3103"
       gradientUnits="userSpaceOnUse"
       gradientTransform="matrix(0.9247229,0,0,1.0872097,-27.060056,-2.002358)"
       x1="11.998966"
       y1="2.8287227"
       x2="11.998966"
       y2="15.638639" />
    <linearGradient
       inkscape:collect="always"
       xlink:href="#StandardGradient-9"
       id="linearGradient3110"
       gradientUnits="userSpaceOnUse"
       gradientTransform="matrix(-0.9247229,0,0,1.0872097,23.060056,-2.002358)"
       x1="11.998966"
       y1="2.8287227"
       x2="11.998966"
       y2="15.638639" />
    <linearGradient
       inkscape:collect="always"
       xlink:href="#StandardGradient"
       id="linearGradient3113"
       gradientUnits="userSpaceOnUse"
       gradientTransform="matrix(-0.9247229,0,0,1.0872097,43.060056,-2.002358)"
       x1="11.998966"
       y1="2.8287227"
       x2="11.998966"
       y2="15.638639" />
    <linearGradient
       inkscape:collect="always"
       xlink:href="#StandardGradient-9"
       id="linearGradient3119"
       gradientUnits="userSpaceOnUse"
       gradientTransform="matrix(-0.9247229,0,0,1.0872097,43.060056,-1.002358)"
       x1="11.998966"
       y1="2.8287227"
       x2="11.998966"
       y2="15.638639" />
    <linearGradient
       inkscape:collect="always"
       xlink:href="#StandardGradient-9"
       id="linearGradient3121"
       gradientUnits="userSpaceOnUse"
       gradientTransform="matrix(-0.9247229,0,0,1.0872097,43.060056,-2.002358)"
       x1="11.998966"
       y1="2.8287227"
       x2="11.998966"
       y2="15.638639" />
    <linearGradient
       inkscape:collect="always"
       xlink:href="#StandardGradient"
       id="linearGradient3894"
       gradientUnits="userSpaceOnUse"
       gradientTransform="matrix(-0.9247229,0,0,1.0872097,43.060056,-1.002358)"
       x1="11.998966"
       y1="2.8287227"
       x2="11.998966"
       y2="15.638639" />
    <linearGradient
       inkscape:collect="always"
       xlink:href="#StandardGradient"
       id="linearGradient3898"
       gradientUnits="userSpaceOnUse"
       gradientTransform="matrix(-0.9247229,0,0,1.0872097,43.060056,-2.002358)"
       x1="11.998966"
       y1="2.8287227"
       x2="11.998966"
       y2="15.638639" />
    <linearGradient
       inkscape:collect="always"
       xlink:href="#StandardGradient"
       id="linearGradient3903"
       gradientUnits="userSpaceOnUse"
       gradientTransform="matrix(-0.9247229,0,0,1.0872097,43.060056,-2.002358)"
       x1="11.998966"
       y1="2.8287227"
       x2="11.998966"
       y2="15.638639" />
    <linearGradient
       inkscape:collect="always"
       xlink:href="#StandardGradient"
       id="linearGradient3907"
       gradientUnits="userSpaceOnUse"
       gradientTransform="matrix(-0.9247229,0,0,1.0872097,43.060056,-2.002358)"
       x1="11.998966"
       y1="2.8287227"
       x2="11.998966"
       y2="15.638639" />
    <linearGradient
       inkscape:collect="always"
       xlink:href="#StandardGradient"
       id="linearGradient3910"
       gradientUnits="userSpaceOnUse"
       gradientTransform="matrix(-0.9247229,0,0,1.0872097,43.060056,-2.002358)"
       x1="11.998966"
       y1="2.8287227"
       x2="11.998966"
       y2="15.638639" />
    <linearGradient
       inkscape:collect="always"
       xlink:href="#StandardGradient"
       id="linearGradient3913"
       gradientUnits="userSpaceOnUse"
       gradientTransform="matrix(-0.9247229,0,0,1.0872097,43.060056,-2.002358)"
       x1="11.998966"
       y1="2.8287227"
       x2="11.998966"
       y2="15.638639" />
    <linearGradient
       inkscape:collect="always"
       xlink:href="#StandardGradient"
       id="linearGradient3918"
       gradientUnits="userSpaceOnUse"
       gradientTransform="matrix(-0.9247229,0,0,1.0872097,43.060056,-2.002358)"
       x1="11.998966"
       y1="2.8287227"
       x2="11.998966"
       y2="15.638639" />
  </defs>
  <metadata
     id="metadata7">
    <rdf:RDF>
      <cc:Work
         rdf:about="">
        <dc:format>image/svg+xml</dc:format>
        <dc:type
           rdf:resource="http://purl.org/dc/dcmitype/StillImage" />
        <dc:title></dc:title>
      </cc:Work>
    </rdf:RDF>
  </metadata>
  <g
     style="display:inline"
     inkscape:label="Calque 1"
     id="layer1"
     inkscape:groupmode="layer">
    <path
       style="fill:#ffffff;fill-opacity:1;stroke:none;display:inline;opacity:0.15"
       d="M 3.5 0 C 2.0179561 -0.01411157 0.86037185 1.3688168 1 2.8125 L 1 6 C 0.21934224 5.9684699 -0.12371746 6.8061771 0 7.46875 C 0.0961285 8.2315006 -0.25405019 9.1874452 0.375 9.78125 C 1.0626028 9.9023816 1.064603 10.301661 1 10.9375 C 1.0861719 12.241139 0.74060369 13.647372 1.40625 14.84375 C 1.9700201 15.692425 2.6812899 15.980738 3.75 16 C 6.7552244 15.987789 9.7458854 16.011553 12.75 15.96875 C 14.233953 15.869921 15.159851 14.392799 15 13 C 14.988668 9.418169 15.008097 5.8308775 14.96875 2.25 C 14.842793 0.8710767 13.555313 -0.1434867 12.1875 0 L 3.5 0 z M 23.5 0 C 21.970247 -0.03689288 20.839474 1.4451683 21 2.90625 C 21.01133 6.5235328 20.99191 10.13367 21.03125 13.75 C 21.15721 15.128922 22.444683 16.143491 23.8125 16 C 26.822756 15.98246 29.835614 16.03058 32.84375 15.96875 C 33.898148 15.797129 34.651594 15.144197 34.9375 13.96875 C 35.041815 12.925367 34.98974 11.860852 34.96875 10.8125 C 34.858253 10.19433 33.920271 10.095082 34.75 9.625 C 35.243022 9.0444492 36.271066 8.4971705 35.875 7.59375 C 35.44516 6.9716146 34.821862 6.496898 34.3125 5.9375 C 35.234036 5.6396467 34.963486 4.5483178 35 3.8125 C 35.034156 2.6257024 35.073804 1.1744909 33.9375 0.46875 C 32.798999 -0.27879232 31.404117 0.0873934 30.125 0 L 23.5 0 z M 3.5 1 L 4 1 L 12 1 L 12.5 1 C 12.603875 1 12.714678 1.01133 12.8125 1.03125 C 13.139443 1.097814 13.415953 1.259207 13.625 1.5 C 13.64449 1.52192 13.66931 1.539451 13.6875 1.5625 C 13.772224 1.672582 13.82327 1.805711 13.875 1.9375 C 13.88705 1.96773 13.89614 2.00008 13.90625 2.03125 C 13.95375 2.177754 14 2.337263 14 2.5 L 14 3 L 14 13 L 14 13.5 C 14 13.662738 13.953755 13.822246 13.90625 13.96875 C 13.89614 13.99992 13.88705 14.03227 13.875 14.0625 C 13.823272 14.194289 13.77222 14.327419 13.6875 14.4375 C 13.66931 14.46055 13.64449 14.47808 13.625 14.5 C 13.415953 14.740793 13.139443 14.90219 12.8125 14.96875 C 12.714678 14.98867 12.603875 15 12.5 15 L 12 15 L 4 15 L 3.5 15 C 3.214344 15 2.945527 14.91876 2.71875 14.78125 C 2.69876 14.76907 2.67559 14.76309 2.65625 14.75 C 2.552073 14.679735 2.45821 14.59358 2.375 14.5 C 2.35587 14.47796 2.33032 14.46066 2.3125 14.4375 C 2.224 14.325355 2.1788 14.197455 2.125 14.0625 C 2.11263 14.03098 2.10403 14.0013 2.09375 13.96875 C 2.04624 13.822246 2 13.662738 2 13.5 L 2 13 L 2 10 L 4 10 L 4 12.5 C 4 12.777 4.223 13 4.5 13 L 11.5 13 C 11.777 13 12 12.777 12 12.5 L 12 3.5 C 12 3.223 11.777 3 11.5 3 L 4.5 3 C 4.223 3 4 3.223 4 3.5 L 4 6 L 2 6 L 2 3 L 2 2.5 C 2 2.337263 2.046245 2.177754 2.09375 2.03125 C 2.10403 1.9987 2.11263 1.969022 2.125 1.9375 C 2.178795 1.802545 2.224 1.674644 2.3125 1.5625 C 2.33032 1.539341 2.35587 1.522036 2.375 1.5 C 2.474136 1.388505 2.590445 1.29655 2.71875 1.21875 C 2.778099 1.18257 2.84164 1.1527 2.90625 1.125 C 3.085828 1.0493 3.29225 1 3.5 1 z M 23.5 1 L 24 1 L 32 1 L 32.5 1 C 32.70775 1 32.914172 1.0493 33.09375 1.125 C 33.15836 1.1527 33.221901 1.18257 33.28125 1.21875 C 33.409555 1.29655 33.525864 1.388505 33.625 1.5 C 33.64413 1.522036 33.66968 1.539341 33.6875 1.5625 C 33.776 1.674644 33.821205 1.802545 33.875 1.9375 C 33.88737 1.969022 33.89597 1.9987 33.90625 2.03125 C 33.953755 2.177754 34 2.337263 34 2.5 L 34 3 L 34 5 L 32 3 L 24.5 3 C 24.223 3 24 3.223 24 3.5 L 24 12.5 C 24 12.777 24.223 13 24.5 13 L 32 13 L 34 11 L 34 13 L 34 13.5 C 34 13.662738 33.95376 13.822246 33.90625 13.96875 C 33.89597 14.0013 33.88737 14.03098 33.875 14.0625 C 33.8212 14.197455 33.776 14.325355 33.6875 14.4375 C 33.66968 14.46066 33.64413 14.47796 33.625 14.5 C 33.54179 14.59358 33.447927 14.67974 33.34375 14.75 C 33.32441 14.76309 33.30124 14.76907 33.28125 14.78125 C 33.054473 14.91876 32.785656 15 32.5 15 L 32 15 L 24 15 L 23.5 15 C 23.396125 15 23.285322 14.98867 23.1875 14.96875 C 22.860557 14.90219 22.584047 14.740793 22.375 14.5 C 22.35551 14.47808 22.33069 14.46055 22.3125 14.4375 C 22.22778 14.327419 22.17673 14.194289 22.125 14.0625 C 22.11295 14.03227 22.10386 13.99992 22.09375 13.96875 C 22.04625 13.822246 22 13.662738 22 13.5 L 22 13 L 22 3 L 22 2.5 C 22 2.337263 22.04625 2.177754 22.09375 2.03125 C 22.10386 2.00008 22.11295 1.96773 22.125 1.9375 C 22.17673 1.805711 22.227776 1.672582 22.3125 1.5625 C 22.33069 1.539451 22.35551 1.52192 22.375 1.5 C 22.584047 1.259207 22.860557 1.097814 23.1875 1.03125 C 23.285322 1.01133 23.396125 1 23.5 1 z M 5 4 L 9 8 L 5 12 L 5 9 L 1 9 L 1 7 L 5 7 L 5 4 z M 6.375 4 L 11 4 L 11 12 L 6.375 12 C 7.5142819 10.839351 8.701804 9.716812 9.8125 8.53125 C 10.299918 7.804721 9.5648746 7.1394897 9.0625 6.6875 L 6.375 4 z M 25 4 L 30 4 L 30 6 C 28.903788 6.02642 27.808681 5.937596 26.71875 6.03125 C 25.802417 6.2998195 26.023296 7.3693712 26 8.09375 C 25.987973 8.7648864 25.881125 9.7432193 26.71875 9.96875 C 27.80795 10.05786 28.904826 9.9757238 30 10 L 30 12 L 25 12 L 25 4 z M 31 4 L 35 8 L 31 12 L 31 9 L 27 9 L 27 7 L 31 7 L 31 4 z "
       id="path3905" />
    <path
       style="fill:url(#linearGradient3097);fill-opacity:1;stroke:none;display:inline"
       d="m 24.5,-18 c -0.831,0 -1.5,0.669 -1.5,1.5 l 0,2.5 2,0 0,-1.5 c 0,-0.277 0.223,-0.5 0.5,-0.5 l 2.5,0 2.5,0 c 0.277,0 0.5,0.223 0.5,0.5 l 0,7 C 31,-8.223 30.777,-8 30.5,-8 L 28,-8 25.5,-8 C 25.223,-8 25,-8.223 25,-8.5 l 0,-1.5 -2,0 0,2.5 c 0,0.831 0.669,1.5 1.5,1.5 l 3.5,0 3.5,0 c 0.831,0 1.5,-0.669 1.5,-1.5 l 0,-9 c 0,-0.831 -0.669,-1.5 -1.5,-1.5 l -3.5,0 -3.5,0 z"
       id="path3032"
       inkscape:connector-curvature="0" />
    <path
       style="fill:#000000;stroke:none"
       d="m 21,-13 5,0 0,-2 3,3 -3,3 0,-2 -5,0 0,-2 z"
       id="path3043"
       inkscape:connector-curvature="0" />
    <path
       style="fill:url(#linearGradient3113);fill-opacity:1.0;stroke:none;display:inline"
       d="M 3.5,1 C 3.29225,1 3.085828,1.0493 2.90625,1.125 2.84164,1.1527 2.778099,1.18257 2.71875,1.21875 2.590445,1.29655 2.474136,1.388505 2.375,1.5 2.35587,1.522036 2.33032,1.539341 2.3125,1.5625 2.224,1.674644 2.178795,1.802545 2.125,1.9375 2.11263,1.969022 2.10403,1.9987 2.09375,2.03125 2.046245,2.177754 2,2.337263 2,2.5 L 2,3 2,6 4,6 4,3.5 C 4,3.223 4.223,3 4.5,3 l 7,0 C 11.777,3 12,3.223 12,3.5 l 0,9 c 0,0.277 -0.223,0.5 -0.5,0.5 l -7,0 C 4.223,13 4,12.777 4,12.5 l 0,-2.5 -2,0 0,3 0,0.5 c 0,0.162738 0.04624,0.322246 0.09375,0.46875 0.01028,0.03255 0.01888,0.06223 0.03125,0.09375 0.0538,0.134955 0.099,0.262855 0.1875,0.375 0.01782,0.02316 0.04337,0.04046 0.0625,0.0625 0.08321,0.09358 0.177073,0.179735 0.28125,0.25 0.01934,0.01309 0.04251,0.01907 0.0625,0.03125 C 2.945527,14.91876 3.214344,15 3.5,15 l 0.5,0 8,0 0.5,0 c 0.103875,0 0.214678,-0.01133 0.3125,-0.03125 0.326943,-0.06656 0.603453,-0.227957 0.8125,-0.46875 0.01949,-0.02192 0.04431,-0.03945 0.0625,-0.0625 0.08472,-0.110081 0.135772,-0.243211 0.1875,-0.375 0.01205,-0.03023 0.02114,-0.06258 0.03125,-0.09375 C 13.953755,13.822246 14,13.662738 14,13.5 L 14,13 14,3 14,2.5 C 14,2.337263 13.95375,2.177754 13.90625,2.03125 13.89614,2.00008 13.88705,1.96773 13.875,1.9375 13.82327,1.805711 13.772224,1.672582 13.6875,1.5625 13.66931,1.539451 13.64449,1.52192 13.625,1.5 13.415953,1.259207 13.139443,1.097814 12.8125,1.03125 12.714678,1.01133 12.603875,1 12.5,1 L 12,1 4,1 3.5,1 z m 20,0 C 23.396125,1 23.285322,1.01133 23.1875,1.03125 22.860557,1.097814 22.584047,1.259207 22.375,1.5 22.35551,1.52192 22.33069,1.539451 22.3125,1.5625 22.227776,1.672582 22.17673,1.805711 22.125,1.9375 22.11295,1.96773 22.10386,2.00008 22.09375,2.03125 22.04625,2.177754 22,2.337263 22,2.5 l 0,0.5 0,10 0,0.5 c 0,0.162738 0.04625,0.322246 0.09375,0.46875 0.01011,0.03117 0.0192,0.06352 0.03125,0.09375 0.05173,0.131789 0.10278,0.264919 0.1875,0.375 0.01819,0.02305 0.04301,0.04058 0.0625,0.0625 0.209047,0.240793 0.485557,0.40219 0.8125,0.46875 C 23.285322,14.98867 23.396125,15 23.5,15 l 0.5,0 8,0 0.5,0 c 0.285656,0 0.554473,-0.08124 0.78125,-0.21875 0.01999,-0.01218 0.04316,-0.01816 0.0625,-0.03125 0.104177,-0.07026 0.19804,-0.15642 0.28125,-0.25 0.01913,-0.02204 0.04468,-0.03934 0.0625,-0.0625 0.0885,-0.112145 0.1337,-0.240045 0.1875,-0.375 0.01237,-0.03152 0.02097,-0.0612 0.03125,-0.09375 C 33.95376,13.822246 34,13.662738 34,13.5 l 0,-0.5 0,-2 -2,2 -7.5,0 C 24.223,13 24,12.777 24,12.5 l 0,-9 C 24,3.223 24.223,3 24.5,3 L 32,3 34,5 34,3 34,2.5 C 34,2.337263 33.953755,2.177754 33.90625,2.03125 33.89597,1.9987 33.88737,1.969022 33.875,1.9375 33.821205,1.802545 33.776,1.674644 33.6875,1.5625 33.66968,1.539341 33.64413,1.522036 33.625,1.5 33.525864,1.388505 33.409555,1.29655 33.28125,1.21875 33.221901,1.18257 33.15836,1.1527 33.09375,1.125 32.914172,1.0493 32.70775,1 32.5,1 L 32,1 24,1 23.5,1 z M 5,4 5,7 1,7 1,9 5,9 5,12 9,8 5,4 z m 26,0 0,3 -4,0 0,2 4,0 0,3 4,-4 -4,-4 z"
       id="path3083"
       inkscape:connector-curvature="0" />
    <path
       style="fill:#000000;fill-opacity:1;stroke:none;display:inline;opacity:0.5"
       d="M 3.5 1 C 3.29225 1 3.085828 1.0493 2.90625 1.125 C 2.84164 1.1527 2.778099 1.18257 2.71875 1.21875 C 2.590445 1.29655 2.474136 1.388505 2.375 1.5 C 2.35587 1.522036 2.33032 1.539341 2.3125 1.5625 C 2.224 1.674644 2.178795 1.802545 2.125 1.9375 C 2.11263 1.969022 2.10403 1.9987 2.09375 2.03125 C 2.046245 2.177754 2 2.337263 2 2.5 L 2 3 L 2 3.5 C 2 3.337263 2.046245 3.177754 2.09375 3.03125 C 2.10403 2.9987 2.11263 2.969022 2.125 2.9375 C 2.178795 2.802545 2.224 2.674644 2.3125 2.5625 C 2.33032 2.539341 2.35587 2.522036 2.375 2.5 C 2.474136 2.388505 2.590445 2.29655 2.71875 2.21875 C 2.778099 2.18257 2.84164 2.1527 2.90625 2.125 C 3.085828 2.0493 3.29225 2 3.5 2 L 4 2 L 12 2 L 12.5 2 C 12.603875 2 12.714678 2.01133 12.8125 2.03125 C 13.139443 2.097814 13.415953 2.259207 13.625 2.5 C 13.64449 2.52192 13.66931 2.539451 13.6875 2.5625 C 13.772224 2.672582 13.82327 2.805711 13.875 2.9375 C 13.88705 2.96773 13.89614 3.00008 13.90625 3.03125 C 13.95375 3.177754 14 3.337263 14 3.5 L 14 3 L 14 2.5 C 14 2.337263 13.95375 2.177754 13.90625 2.03125 C 13.89614 2.00008 13.88705 1.96773 13.875 1.9375 C 13.82327 1.805711 13.772224 1.672582 13.6875 1.5625 C 13.66931 1.539451 13.64449 1.52192 13.625 1.5 C 13.415953 1.259207 13.139443 1.097814 12.8125 1.03125 C 12.714678 1.01133 12.603875 1 12.5 1 L 12 1 L 4 1 L 3.5 1 z M 23.5 1 C 23.396125 1 23.285322 1.01133 23.1875 1.03125 C 22.860557 1.097814 22.584047 1.259207 22.375 1.5 C 22.35551 1.52192 22.33069 1.539451 22.3125 1.5625 C 22.227776 1.672582 22.17673 1.805711 22.125 1.9375 C 22.11295 1.96773 22.10386 2.00008 22.09375 2.03125 C 22.04625 2.177754 22 2.337263 22 2.5 L 22 3 L 22 3.5 C 22 3.337263 22.04625 3.177754 22.09375 3.03125 C 22.10386 3.00008 22.11295 2.96773 22.125 2.9375 C 22.17673 2.805711 22.227776 2.672582 22.3125 2.5625 C 22.33069 2.539451 22.35551 2.52192 22.375 2.5 C 22.584047 2.259207 22.860557 2.097814 23.1875 2.03125 C 23.285322 2.01133 23.396125 2 23.5 2 L 24 2 L 32 2 L 32.5 2 C 32.70775 2 32.914172 2.0493 33.09375 2.125 C 33.15836 2.1527 33.221901 2.18257 33.28125 2.21875 C 33.409555 2.29655 33.525864 2.388505 33.625 2.5 C 33.64413 2.522036 33.66968 2.539341 33.6875 2.5625 C 33.776 2.674644 33.821205 2.802545 33.875 2.9375 C 33.88737 2.969022 33.89597 2.9987 33.90625 3.03125 C 33.953755 3.177754 34 3.337263 34 3.5 L 34 3 L 34 2.5 C 34 2.337263 33.953755 2.177754 33.90625 2.03125 C 33.89597 1.9987 33.88737 1.969022 33.875 1.9375 C 33.821205 1.802545 33.776 1.674644 33.6875 1.5625 C 33.66968 1.539341 33.64413 1.522036 33.625 1.5 C 33.525864 1.388505 33.409555 1.29655 33.28125 1.21875 C 33.221901 1.18257 33.15836 1.1527 33.09375 1.125 C 32.914172 1.0493 32.70775 1 32.5 1 L 32 1 L 24 1 L 23.5 1 z M 5 4 L 5 5 L 8.5 8.5 L 9 8 L 5 4 z M 31 4 L 31 5 L 34.5 8.5 L 35 8 L 31 4 z M 1 7 L 1 8 L 5 8 L 5 7 L 4 7 L 2 7 L 1 7 z M 27 7 L 27 8 L 31 8 L 31 7 L 27 7 z M 2 10 L 2 11 L 4 11 L 4 10 L 2 10 z M 34 11 L 32 13 L 31 13 L 24.5 13 C 24.223 13 24 12.777 24 12.5 L 24 13.5 C 24 13.777 24.223 14 24.5 14 L 32 14 L 34 12 L 34 11 z M 4 12.5 L 4 13.5 C 4 13.777 4.223 14 4.5 14 L 11.5 14 C 11.777 14 12 13.777 12 13.5 L 12 12.5 C 12 12.777 11.777 13 11.5 13 L 5 13 L 4.5 13 C 4.223 13 4 12.777 4 12.5 z "
       id="path3115" />
    <path
       style="fill:#ffffff;fill-opacity:1;stroke:none;display:inline;opacity:0.3"
       d="M 4.5 3 C 4.223 3 4 3.223 4 3.5 L 4 4.5 C 4 4.223 4.223 4 4.5 4 L 5 4 L 11.5 4 C 11.777 4 12 4.223 12 4.5 L 12 3.5 C 12 3.223 11.777 3 11.5 3 L 4.5 3 z M 24.5 3 C 24.223 3 24 3.223 24 3.5 L 24 4.5 C 24 4.223 24.223 4 24.5 4 L 31 4 L 32 4 L 34 6 L 34 5 L 32 3 L 24.5 3 z M 2 6 L 2 7 L 4 7 L 4 6 L 2 6 z M 8.5 8.5 L 5 12 L 5 13 L 9 9 L 8.5 8.5 z M 34.5 8.5 L 31 12 L 31 13 L 35 9 L 34.5 8.5 z M 1 9 L 1 10 L 2 10 L 4 10 L 5 10 L 5 9 L 1 9 z M 27 9 L 27 10 L 31 10 L 31 9 L 27 9 z M 2 13.5 L 2 14 L 2 14.5 C 2 14.662738 2.04624 14.822246 2.09375 14.96875 C 2.10403 15.0013 2.11263 15.03098 2.125 15.0625 C 2.1788 15.197455 2.224 15.325355 2.3125 15.4375 C 2.33032 15.46066 2.35587 15.47796 2.375 15.5 C 2.45821 15.59358 2.552073 15.679735 2.65625 15.75 C 2.67559 15.76309 2.69876 15.76907 2.71875 15.78125 C 2.945527 15.91876 3.214344 16 3.5 16 L 4 16 L 12 16 L 12.5 16 C 12.603875 16 12.714678 15.98867 12.8125 15.96875 C 13.139443 15.90219 13.415953 15.740793 13.625 15.5 C 13.64449 15.47808 13.66931 15.46055 13.6875 15.4375 C 13.77222 15.327419 13.823272 15.194289 13.875 15.0625 C 13.88705 15.03227 13.89614 14.99992 13.90625 14.96875 C 13.953755 14.822246 14 14.662738 14 14.5 L 14 14 L 14 13.5 C 14 13.662738 13.953755 13.822246 13.90625 13.96875 C 13.89614 13.99992 13.88705 14.03227 13.875 14.0625 C 13.823272 14.194289 13.77222 14.327419 13.6875 14.4375 C 13.66931 14.46055 13.64449 14.47808 13.625 14.5 C 13.415953 14.740793 13.139443 14.90219 12.8125 14.96875 C 12.714678 14.98867 12.603875 15 12.5 15 L 12 15 L 4 15 L 3.5 15 C 3.214344 15 2.945527 14.91876 2.71875 14.78125 C 2.69876 14.76907 2.67559 14.76309 2.65625 14.75 C 2.552073 14.679735 2.45821 14.59358 2.375 14.5 C 2.35587 14.47796 2.33032 14.46066 2.3125 14.4375 C 2.224 14.325355 2.1788 14.197455 2.125 14.0625 C 2.11263 14.03098 2.10403 14.0013 2.09375 13.96875 C 2.04624 13.822246 2 13.662738 2 13.5 z M 22 13.5 L 22 14 L 22 14.5 C 22 14.662738 22.04625 14.822246 22.09375 14.96875 C 22.10386 14.99992 22.11295 15.03227 22.125 15.0625 C 22.17673 15.194289 22.22778 15.327419 22.3125 15.4375 C 22.33069 15.46055 22.35551 15.47808 22.375 15.5 C 22.584047 15.740793 22.860557 15.90219 23.1875 15.96875 C 23.285322 15.98867 23.396125 16 23.5 16 L 24 16 L 32 16 L 32.5 16 C 32.785656 16 33.054473 15.91876 33.28125 15.78125 C 33.30124 15.76907 33.32441 15.76309 33.34375 15.75 C 33.447927 15.67974 33.54179 15.59358 33.625 15.5 C 33.64413 15.47796 33.66968 15.46066 33.6875 15.4375 C 33.776 15.325355 33.8212 15.197455 33.875 15.0625 C 33.88737 15.03098 33.89597 15.0013 33.90625 14.96875 C 33.95376 14.822246 34 14.662738 34 14.5 L 34 14 L 34 13.5 C 34 13.662738 33.95376 13.822246 33.90625 13.96875 C 33.89597 14.0013 33.88737 14.03098 33.875 14.0625 C 33.8212 14.197455 33.776 14.325355 33.6875 14.4375 C 33.66968 14.46066 33.64413 14.47796 33.625 14.5 C 33.54179 14.59358 33.447927 14.67974 33.34375 14.75 C 33.32441 14.76309 33.30124 14.76907 33.28125 14.78125 C 33.054473 14.91876 32.785656 15 32.5 15 L 32 15 L 24 15 L 23.5 15 C 23.396125 15 23.285322 14.98867 23.1875 14.96875 C 22.860557 14.90219 22.584047 14.740793 22.375 14.5 C 22.35551 14.47808 22.33069 14.46055 22.3125 14.4375 C 22.22778 14.327419 22.17673 14.194289 22.125 14.0625 C 22.11295 14.03227 22.10386 13.99992 22.09375 13.96875 C 22.04625 13.822246 22 13.662738 22 13.5 z "
       id="path3892" />
  </g>
</svg>
