<?xml version="1.0" encoding="UTF-8" standalone="no"?>
<!-- Created with Inkscape (http://www.inkscape.org/) -->

<svg
   xmlns:dc="http://purl.org/dc/elements/1.1/"
   xmlns:cc="http://creativecommons.org/ns#"
   xmlns:rdf="http://www.w3.org/1999/02/22-rdf-syntax-ns#"
   xmlns:svg="http://www.w3.org/2000/svg"
   xmlns="http://www.w3.org/2000/svg"
   xmlns:xlink="http://www.w3.org/1999/xlink"
   xmlns:sodipodi="http://sodipodi.sourceforge.net/DTD/sodipodi-0.dtd"
   xmlns:inkscape="http://www.inkscape.org/namespaces/inkscape"
   width="16"
   height="16"
   id="svg2"
   sodipodi:version="0.32"
   inkscape:version="0.48.0 r9654"
   version="1.0"
   sodipodi:docname="edit-paste.svg"
   inkscape:output_extension="org.inkscape.output.svg.inkscape"
   inkscape:export-filename="/home/matt/.icons/Sirocco/scalable/mimetypes/text-plain.png"
   inkscape:export-xdpi="90"
   inkscape:export-ydpi="90"
   sodipodi:modified="true"
   style="display:inline">
  <sodipodi:namedview
     id="base"
     pagecolor="#ffffff"
     bordercolor="#666666"
     borderopacity="1.0"
     inkscape:pageopacity="0.0"
     inkscape:pageshadow="2"
     inkscape:zoom="23.252798"
     inkscape:cx="-2.3476635"
     inkscape:cy="7.911206"
     inkscape:document-units="px"
     inkscape:current-layer="layer1"
     width="128px"
     height="128px"
     inkscape:showpageshadow="false"
     inkscape:window-width="1920"
     inkscape:window-height="1029"
     inkscape:window-x="0"
     inkscape:window-y="25"
     showguides="true"
     inkscape:guide-bbox="true"
     showgrid="true"
     inkscape:window-maximized="1">
    <sodipodi:guide
       id="guide2226"
       position="32.637397,117.99844"
       orientation="horizontal" />
    <sodipodi:guide
       id="guide2230"
       position="110,57.402344"
       orientation="vertical" />
    <sodipodi:guide
       id="guide2232"
       position="33.760911"
       orientation="horizontal" />
    <sodipodi:guide
       id="guide2231"
       position="46.774696"
       orientation="horizontal" />
    <inkscape:grid
       enabled="true"
       visible="true"
       id="grid3231"
       type="xygrid" />
    <sodipodi:guide
       orientation="1,0"
       position="100,67.625"
       id="guide2713" />
  </sodipodi:namedview>
  <defs
     id="defs4">
    <inkscape:perspective
       sodipodi:type="inkscape:persp3d"
       inkscape:vp_x="0 : 11 : 1"
       inkscape:vp_y="0 : 1000 : 0"
       inkscape:vp_z="22 : 11 : 1"
       inkscape:persp3d-origin="11 : 7.3333333 : 1"
       id="perspective19" />
    <linearGradient
       id="StandardGradient"
       gradientTransform="scale(0.9219544,1.0846523)"
       x1="11.998966"
       y1="0.92195445"
       x2="11.998966"
       y2="19.387045"
       gradientUnits="userSpaceOnUse">
      <stop
         style="stop-color:#000000;stop-opacity:0.86274511;"
         offset="0"
         id="stop3283" />
      <stop
         style="stop-color:#000000;stop-opacity:0.47058824;"
         offset="1"
         id="stop2651" />
    </linearGradient>
    <linearGradient
       inkscape:collect="always"
       xlink:href="#StandardGradient"
       id="linearGradient2452"
       gradientUnits="userSpaceOnUse"
       gradientTransform="matrix(0.9247229,0,0,1.0872097,-6.00562e-2,5.997642)"
       x1="11.998966"
       y1="0.92195445"
       x2="11.998966"
       y2="17.478098" />
    <linearGradient
       inkscape:collect="always"
       xlink:href="#StandardGradient"
       id="linearGradient3900"
       gradientUnits="userSpaceOnUse"
       gradientTransform="matrix(0.9247229,0,0,1.0872097,-1.0600562,4.997642)"
       x1="11.998966"
       y1="0.92195445"
       x2="11.998966"
       y2="17.478098" />
    <linearGradient
       inkscape:collect="always"
       xlink:href="#StandardGradient"
       id="linearGradient3906"
       gradientUnits="userSpaceOnUse"
       gradientTransform="matrix(0.9247229,0,0,1.0872097,-6.00562e-2,5.997642)"
       x1="11.998966"
       y1="0.92195445"
       x2="11.998966"
       y2="17.478098" />
    <linearGradient
       inkscape:collect="always"
       xlink:href="#StandardGradient"
       id="linearGradient3340"
       gradientUnits="userSpaceOnUse"
       gradientTransform="matrix(0.9247229,0,0,1.0872097,-3.0600562,4.999538)"
       x1="11.998966"
       y1="-4.5990243"
       x2="11.998966"
       y2="9.1983051" />
    <linearGradient
       inkscape:collect="always"
       xlink:href="#StandardGradient"
       id="linearGradient2402"
       gradientUnits="userSpaceOnUse"
       gradientTransform="matrix(0.9247229,0,0,1.0872097,-3.0600562,4.999538)"
       x1="11.998966"
       y1="-4.5990243"
       x2="11.998966"
       y2="9.1983051" />
    <linearGradient
       inkscape:collect="always"
       xlink:href="#StandardGradient"
       id="linearGradient2405"
       gradientUnits="userSpaceOnUse"
       gradientTransform="matrix(0.9247229,0,0,1.0872097,-3.0600562,4.999538)"
       x1="11.998966"
       y1="-4.5990243"
       x2="11.998966"
       y2="9.1983051" />
    <linearGradient
       inkscape:collect="always"
       xlink:href="#StandardGradient"
       id="linearGradient2412"
       gradientUnits="userSpaceOnUse"
       gradientTransform="matrix(0.9247229,0,0,1.0872097,-3.0600562,4.999538)"
       x1="11.998966"
       y1="-4.5990243"
       x2="11.998966"
       y2="9.1983051" />
    <linearGradient
       inkscape:collect="always"
       xlink:href="#StandardGradient"
       id="linearGradient2417"
       gradientUnits="userSpaceOnUse"
       gradientTransform="matrix(0.9247229,0,0,1.0872097,-3.0600562,4.999538)"
       x1="11.998966"
       y1="-4.5990243"
       x2="11.998966"
       y2="9.1983051" />
    <linearGradient
       inkscape:collect="always"
       xlink:href="#StandardGradient"
       id="linearGradient2423"
       gradientUnits="userSpaceOnUse"
       gradientTransform="matrix(0.9247229,0,0,1.0872097,-3.0600562,4.999538)"
       x1="11.998966"
       y1="-4.5990243"
       x2="11.998966"
       y2="9.1983051" />
    <inkscape:perspective
       id="perspective3648"
       inkscape:persp3d-origin="0.5 : 0.33333333 : 1"
       inkscape:vp_z="1 : 0.5 : 1"
       inkscape:vp_y="0 : 1000 : 0"
       inkscape:vp_x="0 : 0.5 : 1"
       sodipodi:type="inkscape:persp3d" />
    <linearGradient
       inkscape:collect="always"
       xlink:href="#StandardGradient"
       id="linearGradient3636"
       gradientUnits="userSpaceOnUse"
       gradientTransform="matrix(0.9247229,0,0,1.0872097,-23.060056,4.999538)"
       x1="11.998966"
       y1="-4.5990243"
       x2="11.998966"
       y2="9.1983051" />
    <clipPath
       clipPathUnits="userSpaceOnUse"
       id="clipPath3643">
      <path
         style="fill:#ff00ff;fill-opacity:1;stroke:none;display:inline"
         d="m -20,0 0,16 16,0 0,-16 -6,0 0,0.96875 1.5,0 c 0.831,0 1.5,0.6690001 1.5,1.5 l 0,1.625 C -6.412983,4.2970063 -6,4.842125 -6,5.5 l 0,8 c 0,0.831 -0.669,1.5 -1.5,1.5 l -6,0 c -0.831,0 -1.5,-0.669 -1.5,-1.5 l 0,-0.5 -1,0 -0.46875,0 c -0.02057,0 -0.04214,8.12e-4 -0.0625,0 -0.802306,-0.032 -1.4375,-0.689569 -1.4375,-1.5 l 0,-9.03125 c 0,-0.831 0.669,-1.50000002 1.5,-1.5 L -15,0.96875 -15,0 -20,0 z m 6,1 0,1 3,0 0,-1 -3,0 z m 1.5,5 C -12.777,6 -13,6.223 -13,6.5 l 0,6 c 0,0.277 0.223,0.5 0.5,0.5 l 4,0 c 0.277,0 0.5,-0.223 0.5,-0.5 l 0,-6 C -8,6.223 -8.223,6 -8.5,6 l -4,0 z"
         id="path3645" />
    </clipPath>
    <filter
       inkscape:collect="always"
       id="filter3647">
      <feGaussianBlur
         inkscape:collect="always"
         stdDeviation="0.40453125"
         id="feGaussianBlur3649" />
    </filter>
    <linearGradient
       inkscape:collect="always"
       xlink:href="#StandardGradient"
       id="linearGradient5084"
       gradientUnits="userSpaceOnUse"
       gradientTransform="matrix(0.9247229,0,0,1.0872097,-3.0600562,4.999538)"
       x1="11.998966"
       y1="-4.5990243"
       x2="11.998966"
       y2="9.1983051" />
    <linearGradient
       inkscape:collect="always"
       xlink:href="#StandardGradient"
       id="linearGradient5088"
       gradientUnits="userSpaceOnUse"
       gradientTransform="matrix(0.9247229,0,0,1.0872097,-3.0600562,4.999538)"
       x1="11.998966"
       y1="-4.5990243"
       x2="11.998966"
       y2="9.1983051" />
  </defs>
  <metadata
     id="metadata7">
    <rdf:RDF>
      <cc:Work
         rdf:about="">
        <dc:format>image/svg+xml</dc:format>
        <dc:type
           rdf:resource="http://purl.org/dc/dcmitype/StillImage" />
      </cc:Work>
    </rdf:RDF>
  </metadata>
  <g
     style="display:inline"
     inkscape:label="Calque 1"
     id="layer1"
     inkscape:groupmode="layer">
    <path
       style="fill:#ffffff;fill-opacity:1;stroke:none;display:inline;opacity:0.15"
       d="M 4.8125 -1 A 1.0150695 1.0150695 0 0 0 4 -0.03125 L 3.53125 -0.03125 C 2.1555139 -0.031250033 1.03125 1.0930138 1.03125 2.46875 L 1.03125 11.5 C 1.0312502 12.840767 2.1032463 13.94679 3.4375 14 C 3.5132916 14.003022 3.5373928 14 3.53125 14 L 4 14 L 4.1875 14 C 4.4451127 15.112954 5.3154395 16 6.5 16 L 12.5 16 C 13.875736 16 15 14.875736 15 13.5 L 15 5.5 C 15 4.7163289 14.574916 4.0863979 14 3.625 L 14 2.46875 C 14 1.0930139 12.875736 -0.03125 11.5 -0.03125 L 11 -0.03125 A 1.0150695 1.0150695 0 0 0 10 -1 L 5 -1 A 1.0150695 1.0150695 0 0 0 4.8125 -1 z M 5 0 L 10 0 L 10 0.96875 L 11.5 0.96875 C 12.331 0.96875 13 1.6377501 13 2.46875 L 13 4.09375 C 13.587017 4.2970063 14 4.842125 14 5.5 L 14 13.5 C 14 14.331 13.331 15 12.5 15 L 6.5 15 C 5.669 15 5 14.331 5 13.5 L 5 13 L 4 13 L 3.53125 13 C 3.5106807 13 3.4891131 13.000812 3.46875 13 C 2.6664435 12.968004 2.0312501 12.310431 2.03125 11.5 L 2.03125 2.46875 C 2.03125 1.63775 2.7002501 0.96874998 3.53125 0.96875 L 5 0.96875 L 5 0 z M 6 1 L 6 2 L 9 2 L 9 1 L 6 1 z M 7.5 6 C 7.223 6 7 6.223 7 6.5 L 7 12.5 C 7 12.777 7.223 13 7.5 13 L 11.5 13 C 11.777 13 12 12.777 12 12.5 L 12 6.5 C 12 6.223 11.777 6 11.5 6 L 7.5 6 z M 8 7 L 11 7 L 11 12 L 8 12 L 8 7 z "
       id="path5086" />
    <path
       style="fill:url(#linearGradient2423);fill-opacity:1;stroke:none;stroke-width:1.00000024000000010;stroke-linecap:round;stroke-linejoin:miter;stroke-miterlimit:4;stroke-dasharray:none;stroke-opacity:1;display:inline"
       d="M 5 0 L 5 0.96875 L 3.53125 0.96875 C 2.7002501 0.96874998 2.03125 1.63775 2.03125 2.46875 L 2.03125 11.5 C 2.0312501 12.310431 2.6664435 12.968004 3.46875 13 C 3.4891131 13.000812 3.5106807 13 3.53125 13 L 4 13 L 5 13 L 5 13.5 C 5 14.331 5.669 15 6.5 15 L 12.5 15 C 13.331 15 14 14.331 14 13.5 L 14 5.5 C 14 4.842125 13.587017 4.2970063 13 4.09375 L 13 2.46875 C 13 1.6377501 12.331 0.96875 11.5 0.96875 L 10 0.96875 L 10 0 L 5 0 z M 6 1 L 9 1 L 9 2 L 6 2 L 6 1 z M 7.5 6 L 11.5 6 C 11.777 6 12 6.223 12 6.5 L 12 12.5 C 12 12.777 11.777 13 11.5 13 L 7.5 13 C 7.223 13 7 12.777 7 12.5 L 7 6.5 C 7 6.223 7.223 6 7.5 6 z "
       id="Symbol" />
    <path
       style="opacity:0.5;fill:#000000;fill-opacity:1;stroke:none;stroke-width:1.00000024;stroke-linecap:round;stroke-linejoin:miter;stroke-miterlimit:4;stroke-dasharray:none;stroke-opacity:1;display:inline"
       d="M 5,0 L 5,0.96875 L 3.53125,0.96875 C 2.7002501,0.96874998 2.03125,1.63775 2.03125,2.46875 L 2.03125,3.46875 C 2.03125,2.63775 2.7002501,1.96875 3.53125,1.96875 L 5,1.96875 L 5,1 L 6,1 L 9,1 L 10,1 L 10,1.96875 L 11.5,1.96875 C 12.331,1.96875 13,2.6377501 13,3.46875 L 13,2.46875 C 13,1.6377501 12.331,0.96875 11.5,0.96875 L 10,0.96875 L 10,0 L 5,0 z M 6,2 L 6,3 L 9,3 L 9,2 L 6,2 z M 13,4.09375 L 13,5.09375 C 13.587017,5.2970063 14,5.842125 14,6.5 L 14,5.5 C 14,4.842125 13.587017,4.2970063 13,4.09375 z M 7,12.5 L 7,13.5 C 7,13.777 7.223,14 7.5,14 L 11.5,14 C 11.777,14 12,13.777 12,13.5 L 12,12.5 C 12,12.777 11.777,13 11.5,13 L 7.5,13 C 7.223,13 7,12.777 7,12.5 z"
       id="BevelShadow"
       sodipodi:nodetypes="cccccccccccccccccccccccccccccccccccccc" />
    <path
       style="opacity:0.3;fill:#ffffff;fill-opacity:1;stroke:none;stroke-width:1.00000024000000010;stroke-linecap:round;stroke-linejoin:miter;stroke-miterlimit:4;stroke-dasharray:none;stroke-opacity:1;display:inline"
       d="M 6,1 L 6,2 L 9,2 L 9,1 L 6,1 z M 7.5,6 C 7.223,6 7,6.223 7,6.5 L 7,7.5 C 7,7.223 7.223,7 7.5,7 L 11.5,7 C 11.777,7 12,7.223 12,7.5 L 12,6.5 C 12,6.223 11.777,6 11.5,6 L 7.5,6 z M 2.03125,11.5 L 2.03125,12.5 C 2.0312501,13.310431 2.6664435,13.968004 3.46875,14 C 3.4891131,14.000812 3.5106807,14 3.53125,14 L 4,14 L 5,14 L 5,14.5 C 5,15.331 5.669,16 6.5,16 L 12.5,16 C 13.331,16 14,15.331 14,14.5 L 14,13.5 C 14,14.331 13.331,15 12.5,15 L 6.5,15 C 5.669,15 5,14.331 5,13.5 L 5,13 L 4,13 L 3.53125,13 C 3.5106807,13 3.4891131,13.000812 3.46875,13 C 2.6664435,12.968004 2.0312501,12.310431 2.03125,11.5 z"
       id="BevelHighlight"
       sodipodi:nodetypes="ccccccccccccccccsccccccccccccccsc" />
  </g>
</svg>
