<?xml version="1.0" encoding="UTF-8" standalone="no"?>
<!-- Created with Inkscape (http://www.inkscape.org/) -->

<svg
   xmlns:dc="http://purl.org/dc/elements/1.1/"
   xmlns:cc="http://creativecommons.org/ns#"
   xmlns:rdf="http://www.w3.org/1999/02/22-rdf-syntax-ns#"
   xmlns:svg="http://www.w3.org/2000/svg"
   xmlns="http://www.w3.org/2000/svg"
   xmlns:xlink="http://www.w3.org/1999/xlink"
   xmlns:sodipodi="http://sodipodi.sourceforge.net/DTD/sodipodi-0.dtd"
   xmlns:inkscape="http://www.inkscape.org/namespaces/inkscape"
   width="16"
   height="16"
   id="svg2"
   sodipodi:version="0.32"
   inkscape:version="0.48.0 r9654"
   version="1.0"
   sodipodi:docname="edit-copy.svg"
   inkscape:output_extension="org.inkscape.output.svg.inkscape"
   inkscape:export-filename="/home/matt/.icons/Sirocco/scalable/mimetypes/text-plain.png"
   inkscape:export-xdpi="90"
   inkscape:export-ydpi="90"
   sodipodi:modified="true"
   style="display:inline">
  <sodipodi:namedview
     id="base"
     pagecolor="#ffffff"
     bordercolor="#666666"
     borderopacity="1.0"
     inkscape:pageopacity="0.0"
     inkscape:pageshadow="2"
     inkscape:zoom="17.473965"
     inkscape:cx="-10.547515"
     inkscape:cy="-0.73891209"
     inkscape:document-units="px"
     inkscape:current-layer="layer1"
     width="128px"
     height="128px"
     inkscape:showpageshadow="false"
     inkscape:window-width="1920"
     inkscape:window-height="1029"
     inkscape:window-x="0"
     inkscape:window-y="25"
     showguides="true"
     inkscape:guide-bbox="true"
     showgrid="true"
     inkscape:window-maximized="1">
    <sodipodi:guide
       id="guide2226"
       position="32.637397,117.99844"
       orientation="horizontal" />
    <sodipodi:guide
       id="guide2230"
       position="110,57.402344"
       orientation="vertical" />
    <sodipodi:guide
       id="guide2232"
       position="33.760911"
       orientation="horizontal" />
    <sodipodi:guide
       id="guide2231"
       position="46.774696"
       orientation="horizontal" />
    <inkscape:grid
       enabled="true"
       visible="true"
       id="grid3231"
       type="xygrid" />
    <sodipodi:guide
       orientation="1,0"
       position="100,67.625"
       id="guide2713" />
  </sodipodi:namedview>
  <defs
     id="defs4">
    <inkscape:perspective
       sodipodi:type="inkscape:persp3d"
       inkscape:vp_x="0 : 11 : 1"
       inkscape:vp_y="0 : 1000 : 0"
       inkscape:vp_z="22 : 11 : 1"
       inkscape:persp3d-origin="11 : 7.3333333 : 1"
       id="perspective19" />
    <linearGradient
       id="StandardGradient"
       gradientTransform="scale(0.9219544,1.0846523)"
       x1="11.998966"
       y1="0.92195445"
       x2="11.998966"
       y2="19.387045"
       gradientUnits="userSpaceOnUse">
      <stop
         style="stop-color:#000000;stop-opacity:0.86274511;"
         offset="0"
         id="stop3283" />
      <stop
         style="stop-color:#000000;stop-opacity:0.47058824;"
         offset="1"
         id="stop2651" />
    </linearGradient>
    <linearGradient
       inkscape:collect="always"
       xlink:href="#StandardGradient"
       id="linearGradient2549"
       gradientUnits="userSpaceOnUse"
       gradientTransform="matrix(0.9247229,0,0,1.0872097,-2.0600562,0.9976422)"
       x1="11.998966"
       y1="0.92195445"
       x2="11.998966"
       y2="17.478098" />
    <linearGradient
       inkscape:collect="always"
       xlink:href="#StandardGradient"
       id="linearGradient2418"
       gradientUnits="userSpaceOnUse"
       gradientTransform="matrix(0.9247229,0,0,1.0872097,-3.0600562,-3.0023583)"
       x1="11.998966"
       y1="0.92195445"
       x2="11.998966"
       y2="17.478098" />
    <linearGradient
       inkscape:collect="always"
       xlink:href="#StandardGradient"
       id="linearGradient2422"
       gradientUnits="userSpaceOnUse"
       gradientTransform="matrix(0.9247229,0,0,1.0872097,-5.0600562,-1.0023583)"
       x1="11.998966"
       y1="0.92195445"
       x2="11.998966"
       y2="17.478098" />
    <linearGradient
       inkscape:collect="always"
       xlink:href="#StandardGradient"
       id="linearGradient2428"
       gradientUnits="userSpaceOnUse"
       gradientTransform="matrix(0.9247229,0,0,1.0872097,-4.0600562,-3.0023583)"
       x1="11.998966"
       y1="3.6813121"
       x2="11.998966"
       y2="16.529612" />
    <inkscape:perspective
       id="perspective3648"
       inkscape:persp3d-origin="0.5 : 0.33333333 : 1"
       inkscape:vp_z="1 : 0.5 : 1"
       inkscape:vp_y="0 : 1000 : 0"
       inkscape:vp_x="0 : 0.5 : 1"
       sodipodi:type="inkscape:persp3d" />
    <linearGradient
       inkscape:collect="always"
       xlink:href="#StandardGradient"
       id="linearGradient3631"
       gradientUnits="userSpaceOnUse"
       gradientTransform="matrix(0.9247229,0,0,1.0872097,-24.060056,-3.0023583)"
       x1="11.998966"
       y1="3.6813121"
       x2="11.998966"
       y2="16.529612" />
    <clipPath
       clipPathUnits="userSpaceOnUse"
       id="clipPath3638">
      <path
         style="fill:#ff00ff;fill-opacity:1;stroke:none;display:inline"
         d="m -20,0 0,16 16,0 0,-16 -16,0 z m 6.5,1 6,0 C -6.669,1 -6,1.669 -6,2.5 l 0,8 c 0,0.831 -0.669,1.5 -1.5,1.5 l -6,0 c -0.831,0 -1.5,-0.669 -1.5,-1.5 l 0,-8 C -15,1.669 -14.331,1 -13.5,1 z m 1,2 C -12.777,3 -13,3.223 -13,3.5 l 0,6 c 0,0.277 0.223,0.5 0.5,0.5 l 4,0 C -8.223,10 -8,9.777 -8,9.5 l 0,-6 C -8,3.223 -8.223,3 -8.5,3 l -4,0 z m -4,1 0.5,0 0,2.5 0,6 c 0,0.277 0.223,0.5 0.5,0.5 l 4,0 2.5,0 0,0.5 c 0,0.831 -0.669,1.5 -1.5,1.5 l -6,0 c -0.831,0 -1.5,-0.669 -1.5,-1.5 l 0,-8 C -18,4.669 -17.331,4 -16.5,4 z"
         id="path3640" />
    </clipPath>
    <filter
       inkscape:collect="always"
       id="filter3642">
      <feGaussianBlur
         inkscape:collect="always"
         stdDeviation="0.39"
         id="feGaussianBlur3644" />
    </filter>
    <linearGradient
       inkscape:collect="always"
       xlink:href="#StandardGradient"
       id="linearGradient5498"
       gradientUnits="userSpaceOnUse"
       gradientTransform="matrix(0.9247229,0,0,1.0872097,-4.0600562,-3.0023583)"
       x1="11.998966"
       y1="3.6813121"
       x2="11.998966"
       y2="16.529612" />
    <linearGradient
       inkscape:collect="always"
       xlink:href="#StandardGradient"
       id="linearGradient5502"
       gradientUnits="userSpaceOnUse"
       gradientTransform="matrix(0.9247229,0,0,1.0872097,-4.0600562,-3.0023583)"
       x1="11.998966"
       y1="3.6813121"
       x2="11.998966"
       y2="16.529612" />
  </defs>
  <metadata
     id="metadata7">
    <rdf:RDF>
      <cc:Work
         rdf:about="">
        <dc:format>image/svg+xml</dc:format>
        <dc:type
           rdf:resource="http://purl.org/dc/dcmitype/StillImage" />
      </cc:Work>
    </rdf:RDF>
  </metadata>
  <g
     style="display:inline"
     inkscape:label="Calque 1"
     id="layer1"
     inkscape:groupmode="layer">
    <path
       style="fill:#ffffff;fill-opacity:1;stroke:none;display:inline;opacity:0.15"
       d="M 6.5 -0.03125 C 5.1085143 -0.03125 3.96875 1.1085143 3.96875 2.5 L 3.96875 2.96875 L 3.5 2.96875 C 2.1085143 2.96875 0.96875 4.1085143 0.96875 5.5 L 0.96875 13.5 C 0.96875 14.891486 2.1085143 16.03125 3.5 16.03125 L 9.5 16.03125 C 10.891486 16.03125 12.03125 14.891486 12.03125 13.5 L 12.03125 13.03125 L 12.5 13.03125 C 13.891486 13.03125 15.03125 11.891486 15.03125 10.5 L 15.03125 2.5 C 15.03125 1.1085143 13.891486 -0.03125 12.5 -0.03125 L 6.5 -0.03125 z M 6.5 1 L 12.5 1 C 13.331 1 14 1.669 14 2.5 L 14 10.5 C 14 11.331 13.331 12 12.5 12 L 6.5 12 C 5.669 12 5 11.331 5 10.5 L 5 2.5 C 5 1.669 5.669 1 6.5 1 z M 7.5 3 C 7.223 3 7 3.223 7 3.5 L 7 9.5 C 7 9.777 7.223 10 7.5 10 L 11.5 10 C 11.777 10 12 9.777 12 9.5 L 12 3.5 C 12 3.223 11.777 3 11.5 3 L 7.5 3 z M 3.5 4 L 4 4 L 4 6.5 L 4 12.5 C 4 12.777 4.223 13 4.5 13 L 8.5 13 L 11 13 L 11 13.5 C 11 14.331 10.331 15 9.5 15 L 3.5 15 C 2.669 15 2 14.331 2 13.5 L 2 5.5 C 2 4.669 2.669 4 3.5 4 z M 8.03125 4.03125 L 10.96875 4.03125 L 10.96875 8.96875 L 8.03125 8.96875 L 8.03125 4.03125 z "
       id="path5500" />
    <path
       style="fill:url(#linearGradient2428);fill-opacity:1;stroke:none;stroke-width:1.00000024000000010;stroke-linecap:round;stroke-linejoin:miter;stroke-miterlimit:4;stroke-dasharray:none;stroke-opacity:1;display:inline"
       d="M 6.5,1 C 5.669,1 5,1.669 5,2.5 L 5,10.5 C 5,11.331 5.669,12 6.5,12 L 12.5,12 C 13.331,12 14,11.331 14,10.5 L 14,2.5 C 14,1.669 13.331,1 12.5,1 L 6.5,1 z M 7.5,3 L 11.5,3 C 11.777,3 12,3.223 12,3.5 L 12,9.5 C 12,9.777 11.777,10 11.5,10 L 7.5,10 C 7.223,10 7,9.777 7,9.5 L 7,3.5 C 7,3.223 7.223,3 7.5,3 z M 3.5,4 C 2.669,4 2,4.669 2,5.5 L 2,13.5 C 2,14.331 2.669,15 3.5,15 L 9.5,15 C 10.331,15 11,14.331 11,13.5 L 11,13 L 8.5,13 L 4.5,13 C 4.223,13 4,12.777 4,12.5 L 4,6.5 L 4,4 L 3.5,4 z"
       id="Symbol"
       sodipodi:nodetypes="ccccccccccccccccccccccccccccccc" />
    <path
       style="opacity:0.5;fill:#000000;fill-opacity:1;stroke:none;stroke-width:1.00000024;stroke-linecap:round;stroke-linejoin:miter;stroke-miterlimit:4;stroke-dasharray:none;stroke-opacity:1;display:inline"
       d="M 6.5,1 C 5.669,1 5,1.669 5,2.5 L 5,3.5 C 5,2.669 5.669,2 6.5,2 L 12.5,2 C 13.331,2 14,2.669 14,3.5 L 14,2.5 C 14,1.669 13.331,1 12.5,1 L 6.5,1 z M 3.5,4 C 2.669,4 2,4.669 2,5.5 L 2,6.5 C 2,5.669 2.669,5 3.5,5 L 4,5 L 4,4 L 3.5,4 z M 7,9.5 L 7,10.5 C 7,10.777 7.223,11 7.5,11 L 11.5,11 C 11.777,11 12,10.777 12,10.5 L 12,9.5 C 12,9.777 11.777,10 11.5,10 L 7.5,10 C 7.223,10 7,9.777 7,9.5 z M 4,12.5 L 4,13.5 C 4,13.777 4.223,14 4.5,14 L 8.5,14 L 10.90625,14 C 10.959738,13.845522 11,13.673125 11,13.5 L 11,13 L 8.5,13 L 6.5,13 L 4.5,13 C 4.223,13 4,12.777 4,12.5 z"
       id="BevelShadow"
       sodipodi:nodetypes="cccccccccccccccccccccccccccccccccccc" />
    <path
       style="opacity:0.3;fill:#ffffff;fill-opacity:1;stroke:none;stroke-width:1.00000024000000010;stroke-linecap:round;stroke-linejoin:miter;stroke-miterlimit:4;stroke-dasharray:none;stroke-opacity:1;display:inline"
       d="M 7.5,3 C 7.223,3 7,3.223 7,3.5 L 7,4.5 C 7,4.223 7.223,4 7.5,4 L 11.5,4 C 11.777,4 12,4.223 12,4.5 L 12,3.5 C 12,3.223 11.777,3 11.5,3 L 7.5,3 z M 5,10.5 L 5,11.5 C 5,12.331 5.669,13 6.5,13 L 8.5,13 L 11,13 L 12.5,13 C 13.331,13 14,12.331 14,11.5 L 14,10.5 C 14,11.331 13.331,12 12.5,12 L 6.5,12 C 5.669,12 5,11.331 5,10.5 z M 2,13.5 L 2,14.5 C 2,15.331 2.669,16 3.5,16 L 9.5,16 C 10.331,16 11,15.331 11,14.5 L 11,14 L 10.90625,14 C 10.702994,14.587017 10.157875,15 9.5,15 L 3.5,15 C 2.669,15 2,14.331 2,13.5 z"
       id="BevelHighlight"
       sodipodi:nodetypes="cccccccccccccccccccccccccccccc" />
  </g>
</svg>
