<?xml version="1.0" encoding="UTF-8" standalone="no"?>
<!-- Created with Inkscape (http://www.inkscape.org/) -->

<svg
   xmlns:dc="http://purl.org/dc/elements/1.1/"
   xmlns:cc="http://creativecommons.org/ns#"
   xmlns:rdf="http://www.w3.org/1999/02/22-rdf-syntax-ns#"
   xmlns:svg="http://www.w3.org/2000/svg"
   xmlns="http://www.w3.org/2000/svg"
   xmlns:xlink="http://www.w3.org/1999/xlink"
   xmlns:sodipodi="http://sodipodi.sourceforge.net/DTD/sodipodi-0.dtd"
   xmlns:inkscape="http://www.inkscape.org/namespaces/inkscape"
   width="16"
   height="16"
   id="svg2"
   sodipodi:version="0.32"
   inkscape:version="0.48.0 r9654"
   version="1.0"
   sodipodi:docname="go-first.svg"
   inkscape:output_extension="org.inkscape.output.svg.inkscape">
  <defs
     id="defs4">
    <inkscape:perspective
       sodipodi:type="inkscape:persp3d"
       inkscape:vp_x="0 : 8 : 1"
       inkscape:vp_y="0 : 1000 : 0"
       inkscape:vp_z="16 : 8 : 1"
       inkscape:persp3d-origin="8 : 5.3333333 : 1"
       id="perspective18" />
    <linearGradient
       id="StandardGradient"
       gradientTransform="matrix(-1.0923124,0,0,0.915489,16.03125,0)"
       x1="7.6386113"
       y1="3.2598698"
       x2="7.6386113"
       y2="14.22356"
       gradientUnits="userSpaceOnUse">
      <stop
         id="stop3284"
         offset="0"
         style="stop-color:#000000;stop-opacity:0.86274511;" />
      <stop
         id="stop3286"
         offset="1"
         style="stop-color:#000000;stop-opacity:0.47058824;" />
    </linearGradient>
    <inkscape:perspective
       id="perspective3648"
       inkscape:persp3d-origin="0.5 : 0.33333333 : 1"
       inkscape:vp_z="1 : 0.5 : 1"
       inkscape:vp_y="0 : 1000 : 0"
       inkscape:vp_x="0 : 0.5 : 1"
       sodipodi:type="inkscape:persp3d" />
    <linearGradient
       inkscape:collect="always"
       xlink:href="#StandardGradient"
       id="linearGradient3626"
       gradientUnits="userSpaceOnUse"
       gradientTransform="matrix(-1.0923124,0,0,0.915489,-3.96875,0)"
       x1="7.6386113"
       y1="3.2598698"
       x2="7.6386113"
       y2="14.22356" />
    <clipPath
       clipPathUnits="userSpaceOnUse"
       id="clipPath3633">
      <path
         style="fill:#ff00ff;fill-opacity:1;stroke:none;display:inline"
         d="m -20,0 0,16 16,0 0,-16 -16,0 z m 10.03125,3 0,2.96875 3.96875,0 0,4.0625 -3.96875,0 0,2.96875 -8,-5 8,-5 z"
         id="path3635" />
    </clipPath>
    <linearGradient
       inkscape:collect="always"
       xlink:href="#StandardGradient"
       id="linearGradient2841"
       gradientUnits="userSpaceOnUse"
       gradientTransform="matrix(-1.0923124,0,0,0.915489,17.03125,0)"
       x1="7.6386113"
       y1="3.2598698"
       x2="7.6386113"
       y2="14.22356" />
    <linearGradient
       inkscape:collect="always"
       xlink:href="#StandardGradient"
       id="linearGradient2854"
       gradientUnits="userSpaceOnUse"
       gradientTransform="matrix(-1.0923124,0,0,0.915489,-2.96875,0)"
       x1="7.6386113"
       y1="3.2598698"
       x2="7.6386113"
       y2="14.22356" />
    <clipPath
       clipPathUnits="userSpaceOnUse"
       id="clipPath2861">
      <path
         style="fill:#ff00ff;fill-opacity:1;stroke:none;display:inline"
         d="m -20,0 0,16 16,0 0,-16 -16,0 z m 1,3 2,0 0,10 -2,0 0,-10 z m 10.03125,0 0,2.96875 3.96875,0 0,4.0625 -3.96875,0 0,2.96875 -8,-5 8,-5 z"
         id="path2863" />
    </clipPath>
    <filter
       inkscape:collect="always"
       id="filter3638">
      <feGaussianBlur
         inkscape:collect="always"
         stdDeviation="0.36"
         id="feGaussianBlur3640" />
    </filter>
    <linearGradient
       inkscape:collect="always"
       xlink:href="#StandardGradient"
       id="linearGradient3955"
       gradientUnits="userSpaceOnUse"
       gradientTransform="matrix(-1.0923124,0,0,0.915489,17.03125,0)"
       x1="7.6386113"
       y1="3.2598698"
       x2="7.6386113"
       y2="14.22356" />
    <linearGradient
       inkscape:collect="always"
       xlink:href="#StandardGradient"
       id="linearGradient3959"
       gradientUnits="userSpaceOnUse"
       gradientTransform="matrix(-1.0923124,0,0,0.915489,17.03125,0)"
       x1="7.6386113"
       y1="3.2598698"
       x2="7.6386113"
       y2="14.22356" />
  </defs>
  <sodipodi:namedview
     id="base"
     pagecolor="#ffffff"
     bordercolor="#9a9a9a"
     borderopacity="1"
     inkscape:pageopacity="0.0"
     inkscape:pageshadow="2"
     inkscape:zoom="12.467062"
     inkscape:cx="-28.092242"
     inkscape:cy="-4.1046579"
     inkscape:document-units="px"
     inkscape:current-layer="layer4"
     showgrid="true"
     inkscape:showpageshadow="false"
     showguides="true"
     inkscape:guide-bbox="true"
     inkscape:window-width="1920"
     inkscape:window-height="1029"
     inkscape:window-x="0"
     inkscape:window-y="25"
     inkscape:window-maximized="1">
    <sodipodi:guide
       orientation="1,0"
       position="0,112"
       id="guide2383" />
    <sodipodi:guide
       orientation="0,1"
       position="26.278146,128"
       id="guide2385" />
    <sodipodi:guide
       orientation="1,0"
       position="128,54.082119"
       id="guide2387" />
    <sodipodi:guide
       orientation="0,1"
       position="78.156291,0"
       id="guide2389" />
    <inkscape:grid
       type="xygrid"
       id="grid3672"
       visible="true"
       enabled="true" />
  </sodipodi:namedview>
  <metadata
     id="metadata7">
    <rdf:RDF>
      <cc:Work
         rdf:about="">
        <dc:format>image/svg+xml</dc:format>
        <dc:type
           rdf:resource="http://purl.org/dc/dcmitype/StillImage" />
      </cc:Work>
    </rdf:RDF>
  </metadata>
  <g
     inkscape:groupmode="layer"
     id="layer4"
     inkscape:label="Arrow"
     style="display:inline">
    <path
       style="fill:#ffffff;fill-opacity:1;stroke:none;display:inline;opacity:0.15"
       d="M 0.8125 2.03125 A 0.96929449 0.96929449 0 0 0 0.03125 3 L 0.03125 13 A 0.96929449 0.96929449 0 0 0 1 13.96875 L 3 13.96875 A 0.96929449 0.96929449 0 0 0 3.96875 13 L 3.96875 9.71875 L 10.53125 13.8125 A 0.96929449 0.96929449 0 0 0 12 13 L 12 11 L 15 11 A 0.96929449 0.96929449 0 0 0 15.96875 10.03125 L 15.96875 5.96875 A 0.96929449 0.96929449 0 0 0 15 5 L 12 5 L 12 3 A 0.96929449 0.96929449 0 0 0 10.53125 2.1875 L 3.96875 6.28125 L 3.96875 3 A 0.96929449 0.96929449 0 0 0 3 2.03125 L 1 2.03125 A 0.96929449 0.96929449 0 0 0 0.90625 2.03125 A 0.96929449 0.96929449 0 0 0 0.8125 2.03125 z M 1 3 L 3 3 L 3 13 L 1 13 L 1 3 z M 11.03125 3 L 11.03125 5.96875 L 15 5.96875 L 15 10.03125 L 11.03125 10.03125 L 11.03125 13 L 3.03125 8 L 11.03125 3 z "
       id="path3957" />
    <path
       style="fill:url(#linearGradient2841);fill-opacity:1;stroke:none;display:inline"
       d="M 1 3 L 1 13 L 3 13 L 3 3 L 1 3 z M 11.03125 3 L 3.03125 8 L 11.03125 13 L 11.03125 10.03125 L 15 10.03125 L 15 5.96875 L 11.03125 5.96875 L 11.03125 3 z "
       id="Symbol" />
    <path
       style="opacity:0.5;fill:#000000;fill-opacity:1;stroke:none;display:inline"
       d="M 1 3 L 1 4 L 3 4 L 3 3 L 1 3 z M 11.03125 3 L 3.03125 8 L 3.8125 8.5 L 11.03125 3.96875 L 11.03125 3 z M 15 5.96875 L 11.03125 6 L 11.03125 6.96875 L 15 6.96875 L 15 5.96875 z "
       id="BevelShadow" />
    <path
       style="opacity:0.3;fill:#ffffff;fill-opacity:1;stroke:none;display:inline"
       d="M 3.03125 8 L 3.03125 8.96875 L 11.03125 14 L 11.03125 13 L 3.03125 8 z M 11.03125 10.03125 L 11.03125 11 L 15 11 L 15 10.03125 L 11.03125 10.03125 z M 1 13 L 1 14 L 3 14 L 3 13 L 1 13 z "
       id="BevelHighlight" />
  </g>
</svg>
