<?xml version="1.0" encoding="UTF-8" standalone="no"?>
<!-- Created with Inkscape (http://www.inkscape.org/) -->

<svg
   xmlns:dc="http://purl.org/dc/elements/1.1/"
   xmlns:cc="http://creativecommons.org/ns#"
   xmlns:rdf="http://www.w3.org/1999/02/22-rdf-syntax-ns#"
   xmlns:svg="http://www.w3.org/2000/svg"
   xmlns="http://www.w3.org/2000/svg"
   xmlns:xlink="http://www.w3.org/1999/xlink"
   xmlns:sodipodi="http://sodipodi.sourceforge.net/DTD/sodipodi-0.dtd"
   xmlns:inkscape="http://www.inkscape.org/namespaces/inkscape"
   width="16"
   height="16"
   id="svg2"
   sodipodi:version="0.32"
   inkscape:version="0.48.0 r9654"
   version="1.0"
   sodipodi:docname="go-home.svg"
   inkscape:output_extension="org.inkscape.output.svg.inkscape">
  <defs
     id="defs4">
    <linearGradient
       gradientUnits="userSpaceOnUse"
       y2="15.167372"
       x2="6.1236782"
       y1="2.171978"
       x1="6.1236782"
       gradientTransform="matrix(1.0781072,0,0,0.9240919,2.7412861e-2,-7.1073046e-3)"
       id="linearGradient3799">
      <stop
         id="stop3801"
         offset="0"
         style="stop-color:#000000;stop-opacity:0.86274511;" />
      <stop
         id="stop3803"
         offset="1"
         style="stop-color:#646464;stop-opacity:1;" />
    </linearGradient>
    <clipPath
       clipPathUnits="userSpaceOnUse"
       id="clipPath3634">
      <path
         style="fill:#ff00ff;fill-opacity:1;stroke:none;display:inline"
         d="m -20,0 0,16 16,0 0,-16 -16,0 z m 8,2 3,3.0625 0,-1.03125 1,0 L -8,6 l 3,3.0625 -2.0625,0 0,4.9375 -9.9375,0 0,-4.96875 -2,0 L -12,2 z"
         id="path3636" />
    </clipPath>
    <filter
       inkscape:collect="always"
       id="filter3638">
      <feGaussianBlur
         inkscape:collect="always"
         stdDeviation="0.39"
         id="feGaussianBlur3640" />
    </filter>
    <linearGradient
       inkscape:collect="always"
       xlink:href="#StandardGradient"
       id="linearGradient3012"
       gradientUnits="userSpaceOnUse"
       gradientTransform="matrix(1.0781072,0,0,0.9240919,0.0274129,-0.0071073)"
       x1="6.1236782"
       y1="2.171978"
       x2="6.1236782"
       y2="15.167372" />
    <linearGradient
       id="StandardGradient-6"
       gradientTransform="scale(0.915489,1.0923124)"
       x1="8.7384996"
       y1="1.8452826"
       x2="8.7384996"
       y2="12.802542"
       gradientUnits="userSpaceOnUse">
      <stop
         id="stop3284"
         offset="0"
         style="stop-color:#000000;stop-opacity:0.86274511;" />
      <stop
         id="stop3286"
         offset="1"
         style="stop-color:#000000;stop-opacity:0.47058824;" />
    </linearGradient>
    <linearGradient
       y2="14.647824"
       x2="8.7384996"
       y1="1.8452826"
       x1="8.7384996"
       gradientTransform="matrix(0.915489,0,0,1.0923124,-16,3)"
       gradientUnits="userSpaceOnUse"
       id="linearGradient3034"
       xlink:href="#StandardGradient-6"
       inkscape:collect="always" />
    <linearGradient
       inkscape:collect="always"
       xlink:href="#StandardGradient"
       id="linearGradient2849"
       gradientUnits="userSpaceOnUse"
       gradientTransform="matrix(0.915489,0,0,1.0923124,0,-1)"
       x1="8.7384996"
       y1="1.8452826"
       x2="8.7384996"
       y2="14.647824" />
    <linearGradient
       id="StandardGradient"
       gradientTransform="scale(0.915489,1.0923124)"
       x1="8.7384996"
       y1="1.8452826"
       x2="8.7384996"
       y2="12.802542"
       gradientUnits="userSpaceOnUse">
      <stop
         id="stop3284-4"
         offset="0"
         style="stop-color:#000000;stop-opacity:0.86274511;" />
      <stop
         id="stop3286-8"
         offset="1"
         style="stop-color:#000000;stop-opacity:0.47058824;" />
    </linearGradient>
    <linearGradient
       y2="14.647824"
       x2="8.7384996"
       y1="1.8452826"
       x1="8.7384996"
       gradientTransform="matrix(0.915489,0,0,1.0923124,-17,-2)"
       gradientUnits="userSpaceOnUse"
       id="linearGradient3034-3"
       xlink:href="#StandardGradient"
       inkscape:collect="always" />
    <linearGradient
       inkscape:collect="always"
       xlink:href="#StandardGradient"
       id="linearGradient3021"
       gradientUnits="userSpaceOnUse"
       gradientTransform="matrix(1.0781072,0,0,0.9240919,0.0274129,-0.0071073)"
       x1="6.1236782"
       y1="2.171978"
       x2="6.1236782"
       y2="15.167372" />
    <linearGradient
       inkscape:collect="always"
       xlink:href="#StandardGradient"
       id="linearGradient3025"
       gradientUnits="userSpaceOnUse"
       gradientTransform="matrix(1.0781072,0,0,0.9240919,0.0274129,-0.0071073)"
       x1="6.1236782"
       y1="2.171978"
       x2="6.1236782"
       y2="15.167372" />
  </defs>
  <sodipodi:namedview
     id="base"
     pagecolor="#ffffff"
     bordercolor="#e7e7e7"
     borderopacity="1"
     inkscape:pageopacity="0.0"
     inkscape:pageshadow="2"
     inkscape:zoom="17.565001"
     inkscape:cx="-16.499984"
     inkscape:cy="3.7008558"
     inkscape:document-units="px"
     inkscape:current-layer="layer1"
     showgrid="true"
     inkscape:showpageshadow="false"
     showguides="true"
     inkscape:guide-bbox="true"
     inkscape:window-width="1920"
     inkscape:window-height="1029"
     inkscape:window-x="0"
     inkscape:window-y="25"
     inkscape:window-maximized="1">
    <sodipodi:guide
       orientation="1,0"
       position="0,112"
       id="guide2383" />
    <sodipodi:guide
       orientation="0,1"
       position="78.156291,0"
       id="guide2389" />
    <inkscape:grid
       type="xygrid"
       id="grid3672"
       visible="true"
       enabled="true" />
    <sodipodi:guide
       orientation="1,0"
       position="22.008699,4.1542523"
       id="guide2950" />
    <sodipodi:guide
       orientation="0,1"
       position="11.22532,22.008699"
       id="guide2952" />
  </sodipodi:namedview>
  <metadata
     id="metadata7">
    <rdf:RDF>
      <cc:Work
         rdf:about="">
        <dc:format>image/svg+xml</dc:format>
        <dc:type
           rdf:resource="http://purl.org/dc/dcmitype/StillImage" />
      </cc:Work>
    </rdf:RDF>
  </metadata>
  <g
     inkscape:label="Calque 1"
     inkscape:groupmode="layer"
     id="layer1">
    <path
       style="fill:#ffffff;fill-opacity:1;stroke:none;display:inline;opacity:0.15"
       d="M 7.8125 1.03125 A 0.97294135 0.97294135 0 0 0 7.3125 1.3125 L 0.3125 8.34375 A 0.97294135 0.97294135 0 0 0 1 10 L 2.03125 10 L 2.03125 14 A 0.97294135 0.97294135 0 0 0 3 14.96875 L 12.9375 14.96875 A 0.97294135 0.97294135 0 0 0 13.90625 14 L 13.90625 10.03125 L 15 10.03125 A 0.97294135 0.97294135 0 0 0 15.6875 8.375 L 12.96875 5.59375 L 12.96875 4.03125 A 0.97294135 0.97294135 0 0 0 12 3.0625 L 11 3.0625 A 0.97294135 0.97294135 0 0 0 10.53125 3.1875 L 8.6875 1.3125 A 0.97294135 0.97294135 0 0 0 7.90625 1.03125 A 0.97294135 0.97294135 0 0 0 7.8125 1.03125 z M 8 2 L 11 5.0625 L 11 4.03125 L 12 4.03125 L 12 6 L 15 9.0625 L 12.9375 9.0625 L 12.9375 14 L 3 14 L 3 9.03125 L 1 9.03125 L 8 2 z "
       id="path3023" />
    <path
       style="fill:url(#linearGradient3012);fill-opacity:1.0;stroke:none;display:inline"
       d="M 7.9885788,2 1,9.0361458 l 1.9900011,0 0,4.9638542 9.9514909,0 0,-4.9412067 2.058508,0 -2.996781,-3.0591214 0.0093,-1.9691754 -1.010306,0 0,1.0227156 L 7.9885788,2 z"
       id="Symbol"
       sodipodi:nodetypes="cccccccccccc"
       inkscape:label="#rect2236"
       inkscape:connector-curvature="0" />
    <path
       style="opacity:0.5;fill:#000000;fill-opacity:1;stroke:none;stroke-width:1;stroke-linecap:round;stroke-linejoin:miter;stroke-miterlimit:4;stroke-dasharray:none;stroke-opacity:1;display:inline"
       d="M 8 2 L 1 9.03125 L 2 9.03125 L 8 3 L 11 6.0625 L 11 5.0625 L 11 5.03125 L 8 2 z M 11 5.03125 L 12 5.03125 L 12 4.03125 L 11 4.03125 L 11 5.03125 z M 12 6 L 12 7 L 14.03125 9.0625 L 15 9.0625 L 12 6 z "
       id="BevelShadow"
       inkscape:label="#path3354" />
    <path
       style="opacity:0.3;fill:#ffffff;fill-opacity:1;stroke:none;display:inline"
       d="m 1,9.03125 0,1 2,0 0,-1 -2,0 z m 11.9375,0.03125 0,1 2.0625,0 0,-1 -2.0625,0 z M 3,14 l 0,1 9.9375,0 0,-1 L 3,14 z"
       id="BevelHighlight"
       inkscape:label="#path3361"
       inkscape:connector-curvature="0" />
  </g>
</svg>
