<?xml version="1.0" encoding="UTF-8" standalone="no"?>
<!-- Created with Inkscape (http://www.inkscape.org/) -->

<svg
   xmlns:dc="http://purl.org/dc/elements/1.1/"
   xmlns:cc="http://creativecommons.org/ns#"
   xmlns:rdf="http://www.w3.org/1999/02/22-rdf-syntax-ns#"
   xmlns:svg="http://www.w3.org/2000/svg"
   xmlns="http://www.w3.org/2000/svg"
   xmlns:xlink="http://www.w3.org/1999/xlink"
   xmlns:sodipodi="http://sodipodi.sourceforge.net/DTD/sodipodi-0.dtd"
   xmlns:inkscape="http://www.inkscape.org/namespaces/inkscape"
   width="16"
   height="16"
   id="svg2"
   sodipodi:version="0.32"
   inkscape:version="0.48.0 r9654"
   version="1.0"
   sodipodi:docname="go-last.svg"
   inkscape:output_extension="org.inkscape.output.svg.inkscape">
  <defs
     id="defs4">
    <inkscape:perspective
       sodipodi:type="inkscape:persp3d"
       inkscape:vp_x="0 : 8 : 1"
       inkscape:vp_y="0 : 1000 : 0"
       inkscape:vp_z="16 : 8 : 1"
       inkscape:persp3d-origin="8 : 5.3333333 : 1"
       id="perspective18" />
    <linearGradient
       id="StandardGradient"
       gradientTransform="scale(1.0923124,0.915489)"
       x1="7.6386113"
       y1="3.2598698"
       x2="7.6386113"
       y2="14.22356"
       gradientUnits="userSpaceOnUse">
      <stop
         id="stop3284"
         offset="0"
         style="stop-color:#000000;stop-opacity:0.86274511;" />
      <stop
         id="stop3286"
         offset="1"
         style="stop-color:#000000;stop-opacity:0.47058824;" />
    </linearGradient>
    <inkscape:perspective
       id="perspective3648"
       inkscape:persp3d-origin="0.5 : 0.33333333 : 1"
       inkscape:vp_z="1 : 0.5 : 1"
       inkscape:vp_y="0 : 1000 : 0"
       inkscape:vp_x="0 : 0.5 : 1"
       sodipodi:type="inkscape:persp3d" />
    <linearGradient
       inkscape:collect="always"
       xlink:href="#StandardGradient"
       id="linearGradient3627"
       gradientUnits="userSpaceOnUse"
       gradientTransform="matrix(1.0923124,0,0,0.915489,-20,0)"
       x1="7.6386113"
       y1="3.2598698"
       x2="7.6386113"
       y2="14.22356" />
    <clipPath
       clipPathUnits="userSpaceOnUse"
       id="clipPath3634">
      <path
         style="fill:#ff00ff;fill-opacity:1;stroke:none;display:inline"
         d="m -20,0 0,16 16,0 0,-16 -16,0 z m 6,3 8,5 -8,5 0,-2.96875 -3.96875,0 0,-4.0625 3.96875,0 L -14,3 z"
         id="path3636" />
    </clipPath>
    <linearGradient
       inkscape:collect="always"
       xlink:href="#StandardGradient"
       id="linearGradient2841"
       gradientUnits="userSpaceOnUse"
       gradientTransform="matrix(1.0923124,0,0,0.915489,-1,0)"
       x1="7.6386113"
       y1="3.2598698"
       x2="7.6386113"
       y2="14.22356" />
    <linearGradient
       inkscape:collect="always"
       xlink:href="#StandardGradient"
       id="linearGradient2853"
       gradientUnits="userSpaceOnUse"
       gradientTransform="matrix(1.0923124,0,0,0.915489,-1,0)"
       x1="7.6386113"
       y1="3.2598698"
       x2="7.6386113"
       y2="14.22356" />
    <linearGradient
       inkscape:collect="always"
       xlink:href="#StandardGradient"
       id="linearGradient2859"
       gradientUnits="userSpaceOnUse"
       gradientTransform="matrix(1.0923124,0,0,0.915489,-1,1)"
       x1="7.6386113"
       y1="3.2598698"
       x2="7.6386113"
       y2="14.22356" />
    <linearGradient
       inkscape:collect="always"
       xlink:href="#StandardGradient"
       id="linearGradient2861"
       gradientUnits="userSpaceOnUse"
       gradientTransform="matrix(1.0923124,0,0,0.915489,-1,0)"
       x1="7.6386113"
       y1="3.2598698"
       x2="7.6386113"
       y2="14.22356" />
    <linearGradient
       inkscape:collect="always"
       xlink:href="#StandardGradient"
       id="linearGradient3639"
       gradientUnits="userSpaceOnUse"
       gradientTransform="matrix(1.0923124,0,0,0.915489,-21,0)"
       x1="7.6386113"
       y1="3.2598698"
       x2="7.6386113"
       y2="14.22356" />
    <clipPath
       clipPathUnits="userSpaceOnUse"
       id="clipPath3648">
      <path
         style="fill:#ff00ff;fill-opacity:1;stroke:none;display:inline"
         d="m -20,0 0,16 16,0 0,-16 -16,0 z m 5,3 8,5 0,-5 2,0 0,10 -2,0 L -7,8 -7.78125,8.5 -15,13 l 0,-2.96875 -3.96875,0 0,-3.0625 0,-1 3.96875,0 0,-2 L -15,3 z"
         id="path3650" />
    </clipPath>
    <filter
       inkscape:collect="always"
       id="filter3652">
      <feGaussianBlur
         inkscape:collect="always"
         stdDeviation="0.35953125"
         id="feGaussianBlur3654" />
    </filter>
    <linearGradient
       inkscape:collect="always"
       xlink:href="#StandardGradient"
       id="linearGradient4999"
       gradientUnits="userSpaceOnUse"
       gradientTransform="matrix(1.0923124,0,0,0.915489,-1,0)"
       x1="7.6386113"
       y1="3.2598698"
       x2="7.6386113"
       y2="14.22356" />
    <linearGradient
       inkscape:collect="always"
       xlink:href="#StandardGradient"
       id="linearGradient5003"
       gradientUnits="userSpaceOnUse"
       gradientTransform="matrix(1.0923124,0,0,0.915489,-1,0)"
       x1="7.6386113"
       y1="3.2598698"
       x2="7.6386113"
       y2="14.22356" />
  </defs>
  <sodipodi:namedview
     id="base"
     pagecolor="#ffffff"
     bordercolor="#9a9a9a"
     borderopacity="1"
     inkscape:pageopacity="0.0"
     inkscape:pageshadow="2"
     inkscape:zoom="17.578557"
     inkscape:cx="-16.357427"
     inkscape:cy="5.621016"
     inkscape:document-units="px"
     inkscape:current-layer="layer4"
     showgrid="true"
     inkscape:showpageshadow="false"
     showguides="true"
     inkscape:guide-bbox="true"
     inkscape:window-width="1920"
     inkscape:window-height="1029"
     inkscape:window-x="0"
     inkscape:window-y="25"
     inkscape:window-maximized="1">
    <sodipodi:guide
       orientation="1,0"
       position="0,112"
       id="guide2383" />
    <sodipodi:guide
       orientation="0,1"
       position="26.278146,128"
       id="guide2385" />
    <sodipodi:guide
       orientation="1,0"
       position="128,54.082119"
       id="guide2387" />
    <sodipodi:guide
       orientation="0,1"
       position="78.156291,0"
       id="guide2389" />
    <inkscape:grid
       type="xygrid"
       id="grid3672"
       visible="true"
       enabled="true" />
  </sodipodi:namedview>
  <metadata
     id="metadata7">
    <rdf:RDF>
      <cc:Work
         rdf:about="">
        <dc:format>image/svg+xml</dc:format>
        <dc:type
           rdf:resource="http://purl.org/dc/dcmitype/StillImage" />
      </cc:Work>
    </rdf:RDF>
  </metadata>
  <g
     inkscape:groupmode="layer"
     id="layer4"
     inkscape:label="Arrow"
     style="display:inline">
    <path
       style="fill:#ffffff;fill-opacity:1;stroke:none;display:inline;opacity:0.15"
       d="M 4.84375 1.96875 A 1.0303793 1.0303793 0 0 0 3.96875 3 L 3.96875 3.96875 L 3.96875 4.9375 L 1.03125 4.9375 A 1.0303793 1.0303793 0 0 0 0 5.96875 L 0 6.96875 L 0 10.03125 A 1.0303793 1.0303793 0 0 0 1.03125 11.0625 L 3.96875 11.0625 L 3.96875 13 A 1.0303793 1.0303793 0 0 0 5.53125 13.875 L 11.96875 9.875 L 11.96875 13 A 1.0303793 1.0303793 0 0 0 13 14.03125 L 15 14.03125 A 1.0303793 1.0303793 0 0 0 16.03125 13 L 16.03125 3 A 1.0303793 1.0303793 0 0 0 15 1.96875 L 13 1.96875 A 1.0303793 1.0303793 0 0 0 11.96875 3 L 11.96875 6.15625 L 5.53125 2.125 A 1.0303793 1.0303793 0 0 0 4.84375 1.96875 z M 5 3 L 13 8 L 13 3 L 15 3 L 15 13 L 13 13 L 13 8 L 12.21875 8.5 L 5 13 L 5 10.03125 L 1.03125 10.03125 L 1.03125 6.96875 L 1.03125 5.96875 L 5 5.96875 L 5 3.96875 L 5 3 z "
       id="path5001" />
    <path
       style="fill:url(#linearGradient2853);fill-opacity:1;stroke:none;display:inline"
       d="m 5,3 0,0.96875 0,2 -3.96875,0 0,1 0,3.0625 3.96875,0 L 5,13 12.21875,8.5 13,8 5,3 z m 8,5 0,5 2,0 0,-10 -2,0 0,5 z"
       id="Symbol" />
    <path
       style="opacity:0.3;fill:#ffffff;fill-opacity:1;stroke:none;display:inline"
       d="M 13 8 L 5 13 L 5 14 L 13 8.96875 L 13 8 z M 1.03125 10.03125 L 1.03125 11 L 5 11 L 5 10.03125 L 1.03125 10.03125 z M 13 13 L 13 14 L 15 14 L 15 13 L 13 13 z "
       id="BevelHighlight" />
    <path
       style="fill:#000000;fill-opacity:1;stroke:none;display:inline;opacity:0.5"
       d="M 5 3 L 5 3.96875 L 5 4 L 12.21875 8.5 L 13 8 L 5 3 z M 13 3 L 13 4 L 15 4 L 15 3 L 13 3 z M 1.03125 5.96875 L 1.03125 6.96875 L 5 6.96875 L 5 5.96875 L 1.03125 5.96875 z "
       id="path2855" />
  </g>
</svg>
