<?xml version="1.0" encoding="UTF-8" standalone="no"?>
<!-- Created with Inkscape (http://www.inkscape.org/) -->

<svg
   xmlns:dc="http://purl.org/dc/elements/1.1/"
   xmlns:cc="http://creativecommons.org/ns#"
   xmlns:rdf="http://www.w3.org/1999/02/22-rdf-syntax-ns#"
   xmlns:svg="http://www.w3.org/2000/svg"
   xmlns="http://www.w3.org/2000/svg"
   xmlns:xlink="http://www.w3.org/1999/xlink"
   xmlns:sodipodi="http://sodipodi.sourceforge.net/DTD/sodipodi-0.dtd"
   xmlns:inkscape="http://www.inkscape.org/namespaces/inkscape"
   width="16"
   height="16"
   id="svg2"
   sodipodi:version="0.32"
   inkscape:version="0.48.0 r9654"
   version="1.0"
   sodipodi:docname="view-fullscreen.svg"
   inkscape:output_extension="org.inkscape.output.svg.inkscape">
  <defs
     id="defs4">
    <inkscape:perspective
       sodipodi:type="inkscape:persp3d"
       inkscape:vp_x="0 : 8 : 1"
       inkscape:vp_y="0 : 1000 : 0"
       inkscape:vp_z="16 : 8 : 1"
       inkscape:persp3d-origin="8 : 5.3333333 : 1"
       id="perspective18" />
    <linearGradient
       id="StandardGradient"
       x1="11.347495"
       y1="5.999567"
       x2="11.347495"
       y2="16.013096"
       gradientUnits="userSpaceOnUse"
       gradientTransform="translate(-3,-2.9995677)">
      <stop
         id="stop3177"
         offset="0"
         style="stop-color:#000000;stop-opacity:0.86274511;" />
      <stop
         id="stop3179"
         offset="1"
         style="stop-color:#000000;stop-opacity:0.47058824;" />
    </linearGradient>
    <linearGradient
       inkscape:collect="always"
       xlink:href="#StandardGradient"
       id="linearGradient2409"
       gradientUnits="userSpaceOnUse"
       gradientTransform="translate(-3,-2.9995677)"
       x1="11.347495"
       y1="4.9945378"
       x2="11.347495"
       y2="17.000988" />
    <linearGradient
       inkscape:collect="always"
       xlink:href="#StandardGradient"
       id="linearGradient3206"
       gradientUnits="userSpaceOnUse"
       gradientTransform="translate(0,-1.0312503)"
       x1="11.347495"
       y1="4.9945378"
       x2="11.347495"
       y2="17.000988" />
    <inkscape:perspective
       id="perspective3671"
       inkscape:persp3d-origin="0.5 : 0.33333333 : 1"
       inkscape:vp_z="1 : 0.5 : 1"
       inkscape:vp_y="0 : 1000 : 0"
       inkscape:vp_x="0 : 0.5 : 1"
       sodipodi:type="inkscape:persp3d" />
    <linearGradient
       inkscape:collect="always"
       xlink:href="#StandardGradient"
       id="linearGradient3661"
       x1="9"
       y1="0"
       x2="9"
       y2="16.031219"
       gradientUnits="userSpaceOnUse" />
    <linearGradient
       inkscape:collect="always"
       xlink:href="#StandardGradient"
       id="linearGradient3667"
       gradientUnits="userSpaceOnUse"
       x1="9"
       y1="0"
       x2="9"
       y2="16.031219"
       gradientTransform="translate(3,3.9995677)" />
    <linearGradient
       inkscape:collect="always"
       xlink:href="#StandardGradient"
       id="linearGradient3669"
       gradientUnits="userSpaceOnUse"
       x1="9"
       y1="0"
       x2="9"
       y2="16.031219" />
    <linearGradient
       inkscape:collect="always"
       xlink:href="#StandardGradient"
       id="linearGradient3674"
       gradientUnits="userSpaceOnUse"
       x1="9"
       y1="0"
       x2="9"
       y2="16.031219"
       gradientTransform="translate(-17,2.9995677)" />
    <linearGradient
       inkscape:collect="always"
       xlink:href="#StandardGradient"
       id="linearGradient3678"
       gradientUnits="userSpaceOnUse"
       x1="9"
       y1="0"
       x2="9"
       y2="16.031219"
       gradientTransform="translate(0,1)" />
    <linearGradient
       inkscape:collect="always"
       xlink:href="#StandardGradient"
       id="linearGradient3682"
       gradientUnits="userSpaceOnUse"
       gradientTransform="translate(3,2.9995677)"
       x1="9"
       y1="0"
       x2="9"
       y2="16.031219" />
    <clipPath
       clipPathUnits="userSpaceOnUse"
       id="clipPath3698">
      <path
         style="fill:#ff00ff;fill-opacity:1;stroke:none;display:inline"
         d="m -17,2.9995677 0,8.0000003 3,-3.0000003 0,6.0000003 -3,-3 0,8 8,0 -3,-3 6,0 -3,3 8,0 0,-8 -3,3 0,-6.0000003 3,3.0000003 0,-8.0000003 -8,0 3,3 -6,0 3,-3 -8,0 z m 4.5,4 7,0 c 0.277,0 0.5,0.223 0.5,0.5 l 0,7.0000003 c 0,0.277 -0.223,0.5 -0.5,0.5 l -7,0 c -0.277,0 -0.5,-0.223 -0.5,-0.5 l 0,-7.0000003 c 0,-0.277 0.223,-0.5 0.5,-0.5 z m 1.5,1 0,1 1,0 0,-1 -1,0 z m 2,0 0,1 1,0 0,-1 -1,0 z m 2,0 0,1 1,0 0,-1 -1,0 z m -4,2 0,3.0000003 4,0 0,-3.0000003 -4,0 z"
         id="path3700" />
    </clipPath>
    <filter
       inkscape:collect="always"
       id="filter3702">
      <feGaussianBlur
         inkscape:collect="always"
         stdDeviation="0.48"
         id="feGaussianBlur3704" />
    </filter>
    <linearGradient
       inkscape:collect="always"
       xlink:href="#StandardGradient"
       id="linearGradient4518"
       gradientUnits="userSpaceOnUse"
       x1="9"
       y1="0"
       x2="9"
       y2="16.031219" />
    <linearGradient
       inkscape:collect="always"
       xlink:href="#StandardGradient"
       id="linearGradient4522"
       gradientUnits="userSpaceOnUse"
       x1="9"
       y1="0"
       x2="9"
       y2="16.031219" />
  </defs>
  <sodipodi:namedview
     id="base"
     pagecolor="#ffffff"
     bordercolor="#9a9a9a"
     borderopacity="1"
     inkscape:pageopacity="0.0"
     inkscape:pageshadow="2"
     inkscape:zoom="24.785766"
     inkscape:cx="1.6121004"
     inkscape:cy="8.6386736"
     inkscape:document-units="px"
     inkscape:current-layer="layer3"
     showgrid="true"
     inkscape:showpageshadow="false"
     showguides="true"
     inkscape:guide-bbox="true"
     inkscape:window-width="1920"
     inkscape:window-height="1029"
     inkscape:window-x="0"
     inkscape:window-y="25"
     inkscape:window-maximized="1">
    <sodipodi:guide
       orientation="1,0"
       position="0,112"
       id="guide2383" />
    <sodipodi:guide
       orientation="0,1"
       position="26.278146,128"
       id="guide2385" />
    <sodipodi:guide
       orientation="1,0"
       position="128,54.082119"
       id="guide2387" />
    <sodipodi:guide
       orientation="0,1"
       position="78.156291,0"
       id="guide2389" />
    <inkscape:grid
       type="xygrid"
       id="grid3672"
       visible="true"
       enabled="true" />
  </sodipodi:namedview>
  <metadata
     id="metadata7">
    <rdf:RDF>
      <cc:Work
         rdf:about="">
        <dc:format>image/svg+xml</dc:format>
        <dc:type
           rdf:resource="http://purl.org/dc/dcmitype/StillImage" />
      </cc:Work>
    </rdf:RDF>
  </metadata>
  <g
     inkscape:groupmode="layer"
     id="layer3"
     inkscape:label="Cross"
     style="display:inline"
     transform="translate(-3,-2.9995677)">
    <path
       style="fill:#ffffff;fill-opacity:1;stroke:none;opacity:0.15"
       d="M 7.875 -0.96875 A 0.96839455 0.96839455 0 0 0 7.3125 -0.6875 L 4.3125 2.3125 A 0.96839455 0.96839455 0 0 0 4.0625 3.21875 C 3.6490776 3.3686783 3.3686783 3.6490776 3.21875 4.0625 A 0.96839455 0.96839455 0 0 0 2.3125 4.3125 L -0.6875 7.3125 A 0.96839455 0.96839455 0 0 0 -0.6875 8.6875 L 2.3125 11.6875 A 0.96839455 0.96839455 0 0 0 3.21875 11.9375 C 3.3686783 12.350922 3.6490776 12.631322 4.0625 12.78125 A 0.96839455 0.96839455 0 0 0 4.3125 13.6875 L 7.3125 16.6875 A 0.96839455 0.96839455 0 0 0 8.6875 16.6875 L 11.6875 13.6875 A 0.96839455 0.96839455 0 0 0 11.9375 12.78125 C 12.350922 12.631322 12.631322 12.350922 12.78125 11.9375 A 0.96839455 0.96839455 0 0 0 13.6875 11.6875 L 16.6875 8.6875 A 0.96839455 0.96839455 0 0 0 16.6875 7.3125 L 13.6875 4.3125 A 0.96839455 0.96839455 0 0 0 12.78125 4.0625 C 12.631322 3.6490776 12.350922 3.3686783 11.9375 3.21875 A 0.96839455 0.96839455 0 0 0 11.6875 2.3125 L 8.6875 -0.6875 A 0.96839455 0.96839455 0 0 0 7.875 -0.96875 z M 8 0 L 11 3 L 5 3 L 8 0 z M 4.5 4 L 11.5 4 C 11.777 4 12 4.223 12 4.5 L 12 11.5 C 12 11.777 11.777 12 11.5 12 L 4.5 12 C 4.223 12 4 11.777 4 11.5 L 4 4.5 C 4 4.223 4.223 4 4.5 4 z M 3 5 L 3 11 L 0 8 L 3 5 z M 6 5 L 6 6 L 7 6 L 7 5 L 6 5 z M 8 5 L 8 6 L 9 6 L 9 5 L 8 5 z M 10 5 L 10 6 L 11 6 L 11 5 L 10 5 z M 13 5 L 16 8 L 13 11 L 13 5 z M 6 7 L 6 10 L 10 10 L 10 7 L 6 7 z M 6.96875 7.96875 L 9.03125 7.96875 L 9.03125 9.03125 L 6.96875 9.03125 L 6.96875 7.96875 z M 5 13 L 11 13 L 8 16 L 5 13 z "
       transform="translate(3,2.9995677)"
       id="path4520" />
    <path
       style="fill:url(#linearGradient3661);stroke:none;stroke-width:1px;stroke-linecap:butt;stroke-linejoin:miter;stroke-opacity:1;fill-opacity:1;opacity:1"
       d="M 8 0 L 5 3 L 11 3 L 8 0 z M 4.5 4 C 4.223 4 4 4.223 4 4.5 L 4 11.5 C 4 11.777 4.223 12 4.5 12 L 11.5 12 C 11.777 12 12 11.777 12 11.5 L 12 4.5 C 12 4.223 11.777 4 11.5 4 L 4.5 4 z M 3 5 L 0 8 L 3 11 L 3 5 z M 6 5 L 7 5 L 7 6 L 6 6 L 6 5 z M 8 5 L 9 5 L 9 6 L 8 6 L 8 5 z M 10 5 L 11 5 L 11 6 L 10 6 L 10 5 z M 13 5 L 13 11 L 16 8 L 13 5 z M 6 7 L 10 7 L 10 10 L 6 10 L 6 7 z M 5 13 L 8 16 L 11 13 L 5 13 z "
       transform="translate(3,2.9995677)"
       id="path3626" />
    <path
       style="fill:#000000;stroke:none;stroke-width:1px;stroke-linecap:butt;stroke-linejoin:miter;stroke-opacity:1;fill-opacity:1;opacity:0.5"
       d="M 8 0 L 5 3 L 6 3 L 8 1 L 10 3 L 11 3 L 8 0 z M 4.5 4 C 4.223 4 4 4.223 4 4.5 L 4 5.5 C 4 5.223 4.223 5 4.5 5 L 6 5 L 7 5 L 8 5 L 9 5 L 10 5 L 11 5 L 11.5 5 C 11.777 5 12 5.223 12 5.5 L 12 4.5 C 12 4.223 11.777 4 11.5 4 L 11 4 L 5 4 L 4.5 4 z M 3 5 L 0 8 L 0.5 8.5 L 3 6 L 3 5 z M 13 5 L 13 6 L 15.5 8.5 L 16 8 L 13 5 z M 6 6 L 6 7 L 7 7 L 7 6 L 6 6 z M 8 6 L 8 7 L 9 7 L 9 6 L 8 6 z M 10 6 L 10 7 L 11 7 L 11 6 L 10 6 z M 6 10 L 6 11 L 10 11 L 10 10 L 6 10 z M 5 13 L 6 14 L 10 14 L 11 13 L 5 13 z "
       transform="translate(3,2.9995677)"
       id="path3663" />
    <path
       style="fill:#ffffff;fill-opacity:1;stroke:none;opacity:0.3"
       d="M 6 3 L 5 4 L 11 4 L 10 3 L 6 3 z M 6 5 L 6 6 L 7 6 L 7 5 L 6 5 z M 8 5 L 8 6 L 9 6 L 9 5 L 8 5 z M 10 5 L 10 6 L 11 6 L 11 5 L 10 5 z M 6 7 L 6 8 L 10 8 L 10 7 L 9 7 L 8 7 L 7 7 L 6 7 z M 0.5 8.5 L 0 9 L 3 12 L 3 11 L 0.5 8.5 z M 15.5 8.5 L 13 11 L 13 12 L 16 9 L 15.5 8.5 z M 4 11.5 L 4 12.5 C 4 12.777 4.223 13 4.5 13 L 5 13 L 11 13 L 11.5 13 C 11.777 13 12 12.777 12 12.5 L 12 11.5 C 12 11.777 11.777 12 11.5 12 L 4.5 12 C 4.223 12 4 11.777 4 11.5 z M 5 14 L 7 16 L 8 16 L 6 14 L 5 14 z M 8 16 L 9 16 L 11 14 L 10 14 L 8 16 z "
       transform="translate(3,2.9995677)"
       id="path3676" />
  </g>
</svg>
