<?xml version="1.0" encoding="UTF-8" standalone="no"?>
<!-- Created with Inkscape (http://www.inkscape.org/) -->

<svg
   xmlns:dc="http://purl.org/dc/elements/1.1/"
   xmlns:cc="http://creativecommons.org/ns#"
   xmlns:rdf="http://www.w3.org/1999/02/22-rdf-syntax-ns#"
   xmlns:svg="http://www.w3.org/2000/svg"
   xmlns="http://www.w3.org/2000/svg"
   xmlns:xlink="http://www.w3.org/1999/xlink"
   xmlns:sodipodi="http://sodipodi.sourceforge.net/DTD/sodipodi-0.dtd"
   xmlns:inkscape="http://www.inkscape.org/namespaces/inkscape"
   width="22"
   height="22"
   id="svg2"
   sodipodi:version="0.32"
   inkscape:version="0.48.0 r9654"
   version="1.0"
   sodipodi:docname="applications-graphics.svg"
   inkscape:output_extension="org.inkscape.output.svg.inkscape"
   style="display:inline">
  <defs
     id="defs4">
    <linearGradient
       inkscape:collect="always"
       id="linearGradient3327">
      <stop
         style="stop-color:#000000;stop-opacity:1;"
         offset="0"
         id="stop3330" />
      <stop
         style="stop-color:#000000;stop-opacity:0;"
         offset="1"
         id="stop3333" />
    </linearGradient>
    <linearGradient
       inkscape:collect="always"
       xlink:href="#linearGradient3327"
       id="linearGradient3335"
       x1="11.375"
       y1="22"
       x2="11.375"
       y2="-9.817296"
       gradientUnits="userSpaceOnUse" />
    <inkscape:perspective
       sodipodi:type="inkscape:persp3d"
       inkscape:vp_x="0 : 11 : 1"
       inkscape:vp_y="0 : 1000 : 0"
       inkscape:vp_z="22 : 11 : 1"
       inkscape:persp3d-origin="11 : 7.3333333 : 1"
       id="perspective2531" />
    <linearGradient
       id="ButtonShadow"
       gradientTransform="scale(0.9883037,1.0118347)"
       x1="9.3550024"
       y1="21.742682"
       x2="9.3550024"
       y2="0.49362123"
       gradientUnits="userSpaceOnUse">
      <stop
         id="stop3277"
         offset="0"
         style="stop-color:#000000;stop-opacity:0.70588237;" />
      <stop
         id="stop3279"
         offset="1"
         style="stop-color:#000000;stop-opacity:0.15686275;" />
    </linearGradient>
    <linearGradient
       inkscape:collect="always"
       id="linearGradient3232">
      <stop
         style="stop-color:#000000;stop-opacity:1;"
         offset="0"
         id="stop3234" />
      <stop
         style="stop-color:#000000;stop-opacity:0;"
         offset="1"
         id="stop3236" />
    </linearGradient>
    <linearGradient
       gradientUnits="userSpaceOnUse"
       y2="-6.0004225"
       x2="11"
       y1="14.805666"
       x1="11"
       id="linearGradient3221"
       xlink:href="#linearGradient3232"
       inkscape:collect="always" />
    <linearGradient
       id="ButtonColor"
       x1="10.31979"
       y1="21"
       x2="10.31979"
       y2="0.99929649"
       gradientUnits="userSpaceOnUse">
      <stop
         style="stop-color:#29669f;stop-opacity:1;"
         offset="0"
         id="stop3189" />
      <stop
         style="stop-color:#88b6e0;stop-opacity:1;"
         offset="1"
         id="stop3191" />
    </linearGradient>
    <linearGradient
       inkscape:collect="always"
       xlink:href="#ButtonShadow"
       id="linearGradient38042"
       gradientUnits="userSpaceOnUse"
       gradientTransform="scale(0.9883037,1.0118347)"
       x1="9.3550024"
       y1="21.742682"
       x2="9.3550024"
       y2="0.49362123" />
    <clipPath
       clipPathUnits="userSpaceOnUse"
       id="clipPath2849">
      <rect
         ry="2"
         rx="2"
         y="1"
         x="1"
         height="20"
         width="20"
         id="rect2851"
         style="fill:#ffffff;fill-opacity:1;fill-rule:evenodd;stroke:none;display:inline" />
    </clipPath>
    <linearGradient
       inkscape:collect="always"
       xlink:href="#ButtonColor"
       id="linearGradient3621"
       gradientUnits="userSpaceOnUse"
       gradientTransform="translate(11.119372,23.741802)"
       x1="-3.0607977"
       y1="27.258198"
       x2="-3.0607977"
       y2="7.2536583" />
    <inkscape:perspective
       id="perspective3836"
       inkscape:persp3d-origin="0.5 : 0.33333333 : 1"
       inkscape:vp_z="1 : 0.5 : 1"
       inkscape:vp_y="0 : 1000 : 0"
       inkscape:vp_x="0 : 0.5 : 1"
       sodipodi:type="inkscape:persp3d" />
    <radialGradient
       inkscape:collect="always"
       xlink:href="#linearGradient3810"
       id="radialGradient3816"
       cx="47.84375"
       cy="47.90625"
       fx="47.84375"
       fy="47.90625"
       r="59.40625"
       gradientUnits="userSpaceOnUse"
       gradientTransform="matrix(0.23809524,0,0,0.23809524,-0.428571,-0.428571)" />
    <linearGradient
       inkscape:collect="always"
       id="linearGradient3810">
      <stop
         style="stop-color:#000000;stop-opacity:1;"
         offset="0"
         id="stop3812" />
      <stop
         style="stop-color:#000000;stop-opacity:0;"
         offset="1"
         id="stop3814" />
    </linearGradient>
    <clipPath
       clipPathUnits="userSpaceOnUse"
       id="clipPath3675">
      <rect
         style="fill:#ffffff;fill-opacity:1;fill-rule:evenodd;stroke:none;display:inline"
         id="rect3677"
         width="84"
         height="84"
         x="5.9999981"
         y="5.9999981"
         rx="8.3999996"
         ry="8.3999996" />
    </clipPath>
    <clipPath
       clipPathUnits="userSpaceOnUse"
       id="clipPath3682">
      <rect
         style="fill:#ffffff;fill-opacity:1;fill-rule:evenodd;stroke:none;display:inline"
         id="rect3684"
         width="20"
         height="20"
         x="1"
         y="1"
         rx="2"
         ry="2" />
    </clipPath>
    <inkscape:perspective
       id="perspective3870"
       inkscape:persp3d-origin="0.5 : 0.33333333 : 1"
       inkscape:vp_z="1 : 0.5 : 1"
       inkscape:vp_y="0 : 1000 : 0"
       inkscape:vp_x="0 : 0.5 : 1"
       sodipodi:type="inkscape:persp3d" />
    <linearGradient
       inkscape:collect="always"
       xlink:href="#linearGradient6162"
       id="linearGradient3751"
       x1="6"
       y1="48"
       x2="90"
       y2="48"
       gradientUnits="userSpaceOnUse"
       gradientTransform="translate(-96,-96)" />
    <linearGradient
       id="linearGradient6162">
      <stop
         style="stop-color:#000000;stop-opacity:0.19607843;"
         offset="0"
         id="stop6164" />
      <stop
         id="stop6170"
         offset="0.5"
         style="stop-color:#808080;stop-opacity:0;" />
      <stop
         style="stop-color:#ffffff;stop-opacity:0.39215687;"
         offset="1"
         id="stop6166" />
    </linearGradient>
    <linearGradient
       y2="48"
       x2="90"
       y1="48"
       x1="6"
       gradientTransform="translate(-62,-3)"
       gradientUnits="userSpaceOnUse"
       id="linearGradient3880"
       xlink:href="#linearGradient6162"
       inkscape:collect="always" />
    <linearGradient
       inkscape:collect="always"
       xlink:href="#linearGradient6162"
       id="linearGradient3709"
       gradientUnits="userSpaceOnUse"
       gradientTransform="translate(11.119372,-6.258198)"
       x1="-3.0607977"
       y1="27.258198"
       x2="-3.0607977"
       y2="7.2536583" />
    <linearGradient
       inkscape:collect="always"
       xlink:href="#linearGradient6162"
       id="linearGradient3712"
       gradientUnits="userSpaceOnUse"
       gradientTransform="translate(11.119372,-6.258198)"
       x1="-3.0607977"
       y1="27.258198"
       x2="-3.0607977"
       y2="7.2536583" />
    <linearGradient
       inkscape:collect="always"
       xlink:href="#linearGradient3831"
       id="linearGradient3845"
       x1="11"
       y1="19.5"
       x2="21"
       y2="19.5"
       gradientUnits="userSpaceOnUse"
       spreadMethod="reflect" />
    <linearGradient
       inkscape:collect="always"
       id="linearGradient3831">
      <stop
         style="stop-color:#ffffff;stop-opacity:1;"
         offset="0"
         id="stop3833" />
      <stop
         style="stop-color:#ffffff;stop-opacity:0;"
         offset="1"
         id="stop3835" />
    </linearGradient>
    <linearGradient
       inkscape:collect="always"
       xlink:href="#linearGradient3831"
       id="linearGradient3837"
       x1="10"
       y1="1"
       x2="10"
       y2="16"
       gradientUnits="userSpaceOnUse" />
    <linearGradient
       y2="16"
       x2="10"
       y1="1"
       x1="10"
       gradientUnits="userSpaceOnUse"
       id="linearGradient3084"
       xlink:href="#linearGradient3831"
       inkscape:collect="always" />
    <linearGradient
       y2="16"
       x2="10"
       y1="1"
       x1="10"
       gradientUnits="userSpaceOnUse"
       id="linearGradient3084-1"
       xlink:href="#linearGradient3823"
       inkscape:collect="always" />
    <linearGradient
       id="linearGradient3823">
      <stop
         id="stop3825"
         offset="0"
         style="stop-color:#ffffff;stop-opacity:1;" />
      <stop
         id="stop3829"
         offset="1"
         style="stop-color:#ffffff;stop-opacity:0;" />
    </linearGradient>
    <linearGradient
       inkscape:collect="always"
       xlink:href="#linearGradient3831-1"
       id="linearGradient3845-9"
       x1="11"
       y1="19.5"
       x2="21"
       y2="19.5"
       gradientUnits="userSpaceOnUse"
       spreadMethod="reflect" />
    <linearGradient
       id="linearGradient3831-1">
      <stop
         style="stop-color:#ffffff;stop-opacity:1;"
         offset="0"
         id="stop3833-7" />
      <stop
         id="stop3821"
         offset="0.75"
         style="stop-color:#ffffff;stop-opacity:0.49803922;" />
      <stop
         style="stop-color:#ffffff;stop-opacity:0;"
         offset="1"
         id="stop3835-8" />
    </linearGradient>
    <linearGradient
       y2="16"
       x2="10"
       y1="1"
       x1="10"
       gradientUnits="userSpaceOnUse"
       id="linearGradient3852"
       xlink:href="#linearGradient3823"
       inkscape:collect="always" />
  </defs>
  <sodipodi:namedview
     id="base"
     pagecolor="#ffffff"
     bordercolor="#e7e7e7"
     borderopacity="1"
     inkscape:pageopacity="0.0"
     inkscape:pageshadow="2"
     inkscape:zoom="14.318702"
     inkscape:cx="-26.153005"
     inkscape:cy="4.547626"
     inkscape:document-units="px"
     inkscape:current-layer="layer1"
     showgrid="true"
     inkscape:showpageshadow="false"
     showguides="false"
     inkscape:guide-bbox="true"
     inkscape:window-width="1920"
     inkscape:window-height="1026"
     inkscape:window-x="0"
     inkscape:window-y="25"
     inkscape:window-maximized="1">
    <sodipodi:guide
       orientation="1,0"
       position="0,112"
       id="guide2383" />
    <sodipodi:guide
       orientation="0,1"
       position="26.278146,128"
       id="guide2385" />
    <sodipodi:guide
       orientation="1,0"
       position="128,54.082119"
       id="guide2387" />
    <sodipodi:guide
       orientation="0,1"
       position="78.156291,0"
       id="guide2389" />
    <sodipodi:guide
       orientation="0,1"
       position="60.863576,64.084768"
       id="guide2391" />
    <inkscape:grid
       type="xygrid"
       id="grid3672"
       visible="true"
       enabled="true" />
  </sodipodi:namedview>
  <metadata
     id="metadata7">
    <rdf:RDF>
      <cc:Work
         rdf:about="">
        <dc:format>image/svg+xml</dc:format>
        <dc:type
           rdf:resource="http://purl.org/dc/dcmitype/StillImage" />
      </cc:Work>
    </rdf:RDF>
  </metadata>
  <g
     inkscape:label="Button"
     inkscape:groupmode="layer"
     id="layer1">
    <g
       style="display:inline"
       id="g3337">
      <rect
         ry="2.5"
         rx="2.5"
         y="0.5"
         x="0.5"
         height="21.5"
         width="21"
         id="rect3371"
         style="opacity:0.3;fill:url(#linearGradient3335);fill-opacity:1;stroke:none;display:inline" />
      <rect
         style="opacity:0.5;fill:#000000;fill-opacity:1;stroke:none;display:inline"
         id="rect2553"
         width="20"
         height="20"
         x="1"
         y="2"
         rx="2.3809524"
         ry="2.3255813" />
    </g>
    <g
       transform="matrix(0.23809524,0,0,0.23809524,-0.428571,-0.428571)"
       id="g3699"
       clip-path="url(#clipPath3675)">
      <path
         inkscape:transform-center-y="30.045534"
         inkscape:transform-center-x="-11.15977"
         id="path4500"
         d="m 48.166103,47.999998 c -11.120237,19.260821 -10.361636,42.120163 0,60.091082 10.943881,0 21.207664,-2.96304 30.045535,-8.07475 C 60.25264,89.62572 48.166103,70.240487 48.166103,47.999998 z"
         style="fill:#00df16;fill-opacity:1;stroke:none" />
      <path
         style="fill:#04abcf;fill-opacity:1;stroke:none"
         d="M 48.143845,48.083054 C 28.883034,59.203289 18.110327,79.379361 18.098313,100.12345 c 9.477684,5.47194 19.847897,8.03778 30.057562,8.02985 C 37.798242,90.175255 37.023608,67.343875 48.14386,48.083054 z"
         id="path4516"
         inkscape:transform-center-x="14.8729"
         inkscape:transform-center-y="30.118182" />
      <path
         inkscape:transform-center-y="26.158041"
         inkscape:transform-center-x="25.937141"
         id="path4518"
         d="m 48.083045,48.14386 c -22.24047,0 -41.6579396,12.086629 -52.0403931,30.04553 5.4719397,9.477685 13.1698952,16.884859 22.0156941,21.98283 0.01895,-20.748257 10.763876,-40.908125 30.02471,-52.02836 z"
         style="fill:#1a36d8;fill-opacity:1;stroke:none" />
      <path
         style="fill:#370099;fill-opacity:1;stroke:none"
         d="m 47.999986,48.16611 c -19.260809,-11.120235 -42.1201506,-10.361642 -60.091065,0 0,10.943889 2.9630353,21.207661 8.0747331,30.045539 C 6.3742285,60.252615 25.75951,48.1661 47.999999,48.16611 z"
         id="path4520"
         inkscape:transform-center-x="30.045535"
         inkscape:transform-center-y="11.159774" />
      <path
         inkscape:transform-center-y="-14.872895"
         inkscape:transform-center-x="30.118186"
         id="path4522"
         d="M 47.916929,48.14386 C 36.796692,28.883049 16.620636,18.110327 -4.1234596,18.098321 -9.5953989,27.576006 -12.161216,37.946207 -12.153304,48.155885 5.824722,37.798194 28.656119,37.023607 47.916941,48.143889 z"
         style="fill:#650199;fill-opacity:1;stroke:none" />
      <path
         style="fill:#9c009b;fill-opacity:1;stroke:none"
         d="m 47.856129,48.083054 c 0,-22.24047 -12.086622,-41.6579514 -30.045532,-52.040402 C 8.3329122,1.5146042 0.92574694,9.2125587 -4.1722325,18.058345 16.576033,18.077291 36.735903,28.822223 47.856129,48.083063 z"
         id="path4524"
         inkscape:transform-center-x="26.158046"
         inkscape:transform-center-y="-25.937141" />
      <path
         inkscape:transform-center-y="-30.045536"
         inkscape:transform-center-x="11.159774"
         id="path4526"
         d="M 47.833871,47.999998 C 58.954108,28.739177 58.19553,5.8798365 47.833883,-12.091084 36.88999,-12.091071 26.626216,-9.1280292 17.788348,-4.0163457 35.747382,6.3742296 47.833895,25.759509 47.833871,48.000008 z"
         style="fill:#d10737;fill-opacity:1;stroke:none" />
      <path
         style="fill:#fd0005;fill-opacity:1;stroke:none"
         d="M 47.856129,47.916942 C 67.116951,36.796688 77.889669,16.620634 77.901675,-4.1234642 68.42398,-9.5953939 58.053776,-12.16121 47.84411,-12.153302 58.201804,5.8247202 58.97639,28.656121 47.856125,47.916952 z"
         id="path4528"
         inkscape:transform-center-x="-14.872898"
         inkscape:transform-center-y="-30.118183" />
      <path
         inkscape:transform-center-y="-26.158047"
         inkscape:transform-center-x="-25.937143"
         id="path4530"
         d="M 47.916929,47.856136 C 70.157415,47.856126 89.574895,35.769507 99.957346,17.810597 94.485381,8.3329218 86.787426,0.92576042 77.941649,-4.1722343 77.922655,16.576046 67.177776,36.735901 47.916929,47.856136 z"
         style="fill:#ff6500;fill-opacity:1;stroke:none" />
      <path
         style="fill:#fdad00;fill-opacity:1;stroke:none"
         d="m 47.999986,47.833887 c 19.260835,11.120234 42.120176,10.361642 60.091104,0 -3e-5,-10.943889 -2.96308,-21.207662 -8.07475,-30.045539 C 89.625756,35.747391 70.240485,47.833896 47.999986,47.833887 z"
         id="path4532"
         inkscape:transform-center-x="-30.04554"
         inkscape:transform-center-y="-11.159774" />
      <path
         inkscape:transform-center-y="14.872895"
         inkscape:transform-center-x="-30.118186"
         id="path4534"
         d="m 48.083045,47.856126 c 11.120249,19.26084 31.296318,30.033543 52.040415,30.045549 5.47192,-9.477685 8.03774,-19.847886 8.02984,-30.057564 -17.978035,10.357701 -40.809421,11.132279 -60.070255,0.012 z"
         style="fill:#fffd01;fill-opacity:1;stroke:none" />
      <path
         style="fill:#b6fd00;fill-opacity:1;stroke:none"
         d="m 48.143856,47.916933 c 0,22.240489 12.086634,41.657958 30.045548,52.040413 C 87.667063,94.485395 95.074225,86.78744 100.17223,77.941651 79.423938,77.922705 59.264094,67.177773 48.143856,47.916933 z"
         id="path4536"
         inkscape:transform-center-x="-26.158049"
         inkscape:transform-center-y="25.937141" />
    </g>
    <path
       style="fill:url(#radialGradient3816);fill-opacity:1;stroke:none;opacity:0.3"
       d="M 11.022322,-3.1666663 C 13.741984,2.2099295 12.184636,7.77364 11.14881,10.412203 10.677191,5.6366717 8.01665,0.98783077 3.938989,-1.2991067 8.988381,2.0011212 10.430817,7.6049979 10.851191,10.404762 8.055841,6.4986972 3.42491,3.7988017 -1.254464,3.8571433 4.762324,4.1901826 8.801622,8.3151003 10.568453,10.531251 6.1964,8.5506624 0.838686,8.5371972 -3.181547,10.925596 2.1992,8.2038334 7.768689,9.7558372 10.404762,10.791667 c -4.778178,0.469563 -9.430609,3.130016 -11.71875,7.209822 3.302927,-5.053523 8.91385,-6.493151 11.71131,-6.912203 -3.91011,2.794787 -6.613438,7.423289 -6.55506,12.105655 0.333041,-6.01679 4.457958,-10.056089 6.674108,-11.822917 -1.980589,4.372054 -1.994055,9.729767 0.394345,13.75 -2.721762,-5.380747 -1.16976,-10.950236 -0.133929,-13.586309 0.469069,4.778812 3.129503,9.430322 7.209822,11.71875 -5.057336,-3.305418 -6.494369,-8.91599 -6.912203,-11.71131 2.794684,3.910847 7.422748,6.613446 12.105655,6.55506 -6.020378,-0.333238 -10.065193,-4.458916 -11.830357,-6.674107 4.373183,1.983369 9.735319,2.002616 13.75744,-0.386905 -5.376595,2.719663 -10.940304,1.162315 -13.578869,0.126488 4.776122,-0.47116 9.424105,-3.1316841 11.71131,-7.2098215 C 19.936898,9.0070267 14.333381,10.446903 11.535715,10.866072 15.442479,8.0708191 18.141682,3.4403043 18.083334,-1.2395829 17.750096,4.7807938 13.624417,8.825611 11.409227,10.590774 13.392596,6.2175914 13.411841,0.85545599 11.022322,-3.1666663 z m -0.06696,14.1145833 c 0.0082,6.1e-5 0.01478,-9.52e-4 0.02231,0 0.008,0.0052 0.0083,0.01652 0.01488,0.02232 -6.4e-5,0.0087 -0.0064,0.01439 -0.0074,0.02232 -0.0033,0.0048 -0.0039,0.0106 -0.0074,0.01488 -0.01148,-8.5e-5 -0.01962,-0.0057 -0.02976,-0.0074 -0.0017,-0.0011 -0.0058,0.0012 -0.0074,0 -0.003,-0.0055 -0.0051,-0.0094 -0.0074,-0.01488 4.76e-4,-0.0085 0.0061,-0.01458 0.0074,-0.02232 7.14e-4,-0.002 -9.53e-4,-0.0055 0,-0.0074 0.0055,-0.003 0.0095,-0.0051 0.01488,-0.0074 z m 0.04464,0.04464 c 0.0078,0.02576 0.01576,0.05005 0.01488,0.07441 -0.0029,-0.02352 -0.01209,-0.05148 -0.01488,-0.07441 z"
       id="path3785"
       clip-path="url(#clipPath3682)" />
    <rect
       ry="2"
       rx="2"
       y="31"
       x="1"
       height="20"
       width="20"
       id="rect3619"
       style="fill:url(#linearGradient3621);fill-opacity:1;fill-rule:evenodd;stroke:none;display:inline" />
    <path
       style="opacity:0.3;fill:url(#linearGradient3852);fill-opacity:1;fill-rule:evenodd;stroke:none;display:inline"
       d="M 3,1 C 1.892,1 1,1.892 1,3 l 0,16 c 0,1.108 0.892,2 2,2 l 16,0 c 1.108,0 2,-0.892 2,-2 L 21,3 C 21,1.892 20.108,1 19,1 L 3,1 z m 0,1.03125 16,0 c 0.5497,0 0.96875,0.4190495 0.96875,0.96875 l 0,16 c 0,0.5497 -0.41905,0.96875 -0.96875,0.96875 l -16,0 C 2.4502995,19.96875 2.03125,19.5497 2.03125,19 l 0,-16 C 2.03125,2.4502995 2.4502995,2.03125 3,2.03125 z"
       id="rect3050"
       inkscape:connector-curvature="0" />
    <path
       id="path3235"
       d="M 3,21 C 1.892,21 1,20.108 1,19 l 0,-1 c 0,1.108 0.892,2 2,2 l 16,0 c 1.108,0 2,-0.892 2,-2 l 0,1 c 0,1.108 -0.892,2 -2,2 L 3,21 z"
       style="opacity:0.3;fill:url(#linearGradient3845-9);fill-opacity:1;fill-rule:evenodd;stroke:none;display:inline"
       inkscape:connector-curvature="0" />
  </g>
  <g
     inkscape:groupmode="layer"
     id="layer2"
     inkscape:label="Highlight"
     sodipodi:insensitive="true">
    <rect
       style="opacity:0.8;fill:url(#linearGradient3712);fill-opacity:1;fill-rule:evenodd;stroke:none;display:inline"
       id="rect3707"
       width="20"
       height="20"
       x="1"
       y="1"
       rx="2"
       ry="2" />
  </g>
  <g
     inkscape:groupmode="layer"
     id="layer3"
     inkscape:label="Symbol"
     sodipodi:insensitive="true" />
</svg>
