<?xml version="1.0" encoding="UTF-8" standalone="no"?>
<!-- Created with Inkscape (http://www.inkscape.org/) -->

<svg
   xmlns:dc="http://purl.org/dc/elements/1.1/"
   xmlns:cc="http://creativecommons.org/ns#"
   xmlns:rdf="http://www.w3.org/1999/02/22-rdf-syntax-ns#"
   xmlns:svg="http://www.w3.org/2000/svg"
   xmlns="http://www.w3.org/2000/svg"
   xmlns:xlink="http://www.w3.org/1999/xlink"
   xmlns:sodipodi="http://sodipodi.sourceforge.net/DTD/sodipodi-0.dtd"
   xmlns:inkscape="http://www.inkscape.org/namespaces/inkscape"
   width="22"
   height="22"
   id="svg2"
   sodipodi:version="0.32"
   inkscape:version="0.48.0 r9654"
   version="1.0"
   sodipodi:docname="applications-science.svg"
   inkscape:output_extension="org.inkscape.output.svg.inkscape"
   style="display:inline">
  <defs
     id="defs4">
    <linearGradient
       inkscape:collect="always"
       id="linearGradient3327">
      <stop
         style="stop-color:#000000;stop-opacity:1;"
         offset="0"
         id="stop3330" />
      <stop
         style="stop-color:#000000;stop-opacity:0;"
         offset="1"
         id="stop3333" />
    </linearGradient>
    <linearGradient
       inkscape:collect="always"
       xlink:href="#linearGradient3327"
       id="linearGradient3335"
       x1="11.375"
       y1="22"
       x2="11.375"
       y2="-9.817296"
       gradientUnits="userSpaceOnUse" />
    <inkscape:perspective
       sodipodi:type="inkscape:persp3d"
       inkscape:vp_x="0 : 11 : 1"
       inkscape:vp_y="0 : 1000 : 0"
       inkscape:vp_z="22 : 11 : 1"
       inkscape:persp3d-origin="11 : 7.3333333 : 1"
       id="perspective46" />
    <linearGradient
       id="linearGradient3437">
      <stop
         style="stop-color:#275a39;stop-opacity:1;"
         offset="0"
         id="stop3439" />
      <stop
         style="stop-color:#448459;stop-opacity:1;"
         offset="1"
         id="stop3441" />
    </linearGradient>
    <linearGradient
       id="linearGradient3419">
      <stop
         style="stop-color:#f9e7ce;stop-opacity:1;"
         offset="0"
         id="stop3421" />
      <stop
         style="stop-color:#57401c;stop-opacity:1;"
         offset="1"
         id="stop3423" />
    </linearGradient>
    <linearGradient
       id="linearGradient3215">
      <stop
         id="stop3217"
         offset="0"
         style="stop-color:#000000;stop-opacity:0.78225809;" />
      <stop
         id="stop3219"
         offset="1"
         style="stop-color:#000000;stop-opacity:0.45967743;" />
    </linearGradient>
    <linearGradient
       gradientUnits="userSpaceOnUse"
       y2="0.4934603"
       x2="11"
       y1="22"
       x1="11"
       id="linearGradient3221"
       xlink:href="#linearGradient3215"
       inkscape:collect="always" />
    <linearGradient
       id="linearGradient3187">
      <stop
         style="stop-color:#be8345;stop-opacity:1;"
         offset="0"
         id="stop3189" />
      <stop
         style="stop-color:#e7bc80;stop-opacity:1;"
         offset="1"
         id="stop3191" />
    </linearGradient>
    <linearGradient
       inkscape:collect="always"
       xlink:href="#linearGradient3419"
       id="linearGradient3425"
       x1="3"
       y1="11"
       x2="19"
       y2="11"
       gradientUnits="userSpaceOnUse" />
    <linearGradient
       inkscape:collect="always"
       xlink:href="#linearGradient3187"
       id="linearGradient3434"
       gradientUnits="userSpaceOnUse"
       gradientTransform="matrix(0.1678362,0,0,0.1678362,0.244736,0.2447379)"
       x1="47.667068"
       y1="121.97153"
       x2="47.667068"
       y2="5.9489675" />
    <linearGradient
       inkscape:collect="always"
       xlink:href="#linearGradient3215"
       id="linearGradient3453"
       x1="-19"
       y1="8.6349611"
       x2="-1.7973862"
       y2="8.1974611"
       gradientUnits="userSpaceOnUse" />
    <linearGradient
       inkscape:collect="always"
       xlink:href="#linearGradient3437"
       id="linearGradient3457"
       gradientUnits="userSpaceOnUse"
       x1="4.1767769"
       y1="11"
       x2="18"
       y2="11"
       gradientTransform="translate(-22,0)" />
    <linearGradient
       inkscape:collect="always"
       xlink:href="#linearGradient3187"
       id="linearGradient3197"
       x1="4.7729707"
       y1="24.454914"
       x2="4.7729707"
       y2="4.4000325"
       gradientUnits="userSpaceOnUse"
       gradientTransform="translate(2.9003491,-3.4549133)" />
    <linearGradient
       y2="16"
       x2="10"
       y1="1"
       x1="10"
       gradientUnits="userSpaceOnUse"
       id="linearGradient3084"
       xlink:href="#linearGradient3823"
       inkscape:collect="always" />
    <linearGradient
       id="linearGradient3823">
      <stop
         id="stop3825"
         offset="0"
         style="stop-color:#ffffff;stop-opacity:1;" />
      <stop
         id="stop3829"
         offset="1"
         style="stop-color:#ffffff;stop-opacity:0;" />
    </linearGradient>
    <linearGradient
       inkscape:collect="always"
       xlink:href="#linearGradient3831"
       id="linearGradient3845"
       x1="11"
       y1="19.5"
       x2="21"
       y2="19.5"
       gradientUnits="userSpaceOnUse"
       spreadMethod="reflect" />
    <linearGradient
       id="linearGradient3831">
      <stop
         style="stop-color:#ffffff;stop-opacity:1;"
         offset="0"
         id="stop3833" />
      <stop
         id="stop3821"
         offset="0.75"
         style="stop-color:#ffffff;stop-opacity:0.49803922;" />
      <stop
         style="stop-color:#ffffff;stop-opacity:0;"
         offset="1"
         id="stop3835" />
    </linearGradient>
    <linearGradient
       y2="16"
       x2="10"
       y1="1"
       x1="10"
       gradientUnits="userSpaceOnUse"
       id="linearGradient3852"
       xlink:href="#linearGradient3823"
       inkscape:collect="always" />
  </defs>
  <sodipodi:namedview
     id="base"
     pagecolor="#ffffff"
     bordercolor="#e7e7e7"
     borderopacity="1"
     inkscape:pageopacity="0.0"
     inkscape:pageshadow="2"
     inkscape:zoom="26.465076"
     inkscape:cx="-5.7875227"
     inkscape:cy="12.498102"
     inkscape:document-units="px"
     inkscape:current-layer="layer1"
     showgrid="true"
     inkscape:showpageshadow="false"
     showguides="true"
     inkscape:guide-bbox="true"
     inkscape:window-width="1920"
     inkscape:window-height="1026"
     inkscape:window-x="0"
     inkscape:window-y="25"
     inkscape:window-maximized="1">
    <sodipodi:guide
       orientation="1,0"
       position="0,112"
       id="guide2383" />
    <sodipodi:guide
       orientation="0,1"
       position="26.278146,128"
       id="guide2385" />
    <sodipodi:guide
       orientation="1,0"
       position="128,54.082119"
       id="guide2387" />
    <sodipodi:guide
       orientation="0,1"
       position="13.081476,-44.547728"
       id="guide2389" />
    <inkscape:grid
       type="xygrid"
       id="grid3672"
       visible="true"
       enabled="true" />
  </sodipodi:namedview>
  <metadata
     id="metadata7">
    <rdf:RDF>
      <cc:Work
         rdf:about="">
        <dc:format>image/svg+xml</dc:format>
        <dc:type
           rdf:resource="http://purl.org/dc/dcmitype/StillImage" />
      </cc:Work>
    </rdf:RDF>
  </metadata>
  <g
     inkscape:groupmode="layer"
     id="layer2"
     inkscape:label="Shadow"
     style="display:inline"
     sodipodi:insensitive="true">
    <g
       style="display:inline"
       id="g3337">
      <rect
         ry="2.5"
         rx="2.5"
         y="0.5"
         x="0.5"
         height="21.5"
         width="21"
         id="rect3371"
         style="opacity:0.3;fill:url(#linearGradient3335);fill-opacity:1;stroke:none;display:inline" />
      <rect
         style="opacity:0.5;fill:#000000;fill-opacity:1;stroke:none;display:inline"
         id="rect2553"
         width="20"
         height="20"
         x="1"
         y="2"
         rx="2.3809524"
         ry="2.3255813" />
    </g>
  </g>
  <g
     inkscape:groupmode="layer"
     id="layer3"
     inkscape:label="Ardoise"
     style="display:inline"
     sodipodi:insensitive="true">
    <rect
       ry="1.5"
       rx="1.5"
       y="4"
       x="-18"
       height="14"
       width="14"
       id="rect3427"
       style="fill:url(#linearGradient3457);fill-opacity:1;fill-rule:evenodd;stroke:url(#linearGradient3453);stroke-width:2;stroke-linecap:square;stroke-linejoin:miter;stroke-miterlimit:4;stroke-opacity:0.17672412;stroke-dasharray:none;stroke-dashoffset:0;display:inline"
       transform="matrix(0,-1,1,0,0,0)" />
  </g>
  <g
     inkscape:groupmode="layer"
     id="layer5"
     inkscape:label="Formula B"
     style="display:inline"
     sodipodi:insensitive="true">
    <path
       style="font-size:6.92492628px;font-style:normal;font-variant:normal;font-weight:normal;font-stretch:normal;text-align:center;line-height:100%;writing-mode:lr-tb;text-anchor:middle;fill:#b1d28f;fill-opacity:1;stroke:none;stroke-width:1px;stroke-linecap:butt;stroke-linejoin:miter;stroke-opacity:1;font-family:Field Day Filter;-inkscape-font-specification:Field Day Filter"
       d="M 9.8107851,9.2026865 C 9.8107811,9.7206553 9.6843582,10.110493 9.4315167,10.372198 C 9.5347151,10.628458 9.586317,10.936511 9.5863204,11.296359 C 9.586317,11.912466 9.3541121,12.345921 8.8897054,12.596725 C 8.5697763,12.765746 8.0615064,12.866612 7.3648945,12.899326 C 6.5186363,12.937492 6.0155265,12.975658 5.8555635,13.013824 L 5.8246029,11.852491 C 5.9794058,11.819778 6.5212163,11.767981 7.4500362,11.6971 C 8.2292096,11.642579 8.7142585,11.552617 8.9051859,11.427214 C 8.8948626,11.018295 8.5929967,10.813835 7.9995875,10.813832 C 7.7260999,10.813835 7.3519925,10.865632 6.8772645,10.969223 L 6.8695244,9.7997098 C 7.6744988,9.7233811 8.0873069,9.6852156 8.1079497,9.685212 C 8.7581202,9.5925275 9.0986863,9.472577 9.1296507,9.3253626 C 8.9903241,9.2108684 8.7555394,9.1536195 8.4252962,9.153616 C 8.095047,9.1536195 7.7209397,9.2054161 7.3029731,9.3090057 C 6.8230822,9.428959 6.4799355,9.5761705 6.2735321,9.75064 L 6.025847,8.7038036 C 6.294172,8.4802647 6.657959,8.2976137 7.1172094,8.1558502 C 7.5351761,8.0304527 7.9350839,7.9677516 8.316934,7.9677469 C 8.75038,7.9677516 9.0961066,8.0577141 9.3541154,8.2376344 C 9.6585578,8.444825 9.8107811,8.7665086 9.8107851,9.2026865"
       id="path3484" />
    <path
       style="font-size:6.92492628px;font-style:normal;font-variant:normal;font-weight:normal;font-stretch:normal;text-align:center;line-height:100%;writing-mode:lr-tb;text-anchor:middle;fill:#b1d28f;fill-opacity:1;stroke:none;stroke-width:1px;stroke-linecap:butt;stroke-linejoin:miter;stroke-opacity:1;font-family:Field Day Filter;-inkscape-font-specification:Field Day Filter"
       d="M 13.906089,10.040246 L 13.760163,11.037435 C 13.479755,11.000504 13.176458,10.982038 12.850273,10.982036 C 12.821658,11.259034 12.744404,11.667605 12.618509,12.207748 L 11.897464,12 C 11.989024,11.607589 12.051973,11.272884 12.08631,10.995886 C 11.840237,11.009737 11.494022,11.035129 11.047662,11.07206 L 11.073414,10.07487 C 11.325206,10.05179 11.688589,10.026399 12.163564,9.9986964 C 12.175008,9.7817182 12.197899,9.4516304 12.232236,9.0084319 L 12.987616,9.0084319 C 12.970445,9.2346496 12.947555,9.5601208 12.918945,9.9848465 C 13.262297,9.9848492 13.591345,10.003316 13.906089,10.040246"
       id="path3482" />
    <path
       style="font-size:6.92492628px;font-style:normal;font-variant:normal;font-weight:normal;font-stretch:normal;text-align:center;line-height:100%;writing-mode:lr-tb;text-anchor:middle;fill:#b1d28f;fill-opacity:1;stroke:none;stroke-width:1px;stroke-linecap:butt;stroke-linejoin:miter;stroke-opacity:1;font-family:Field Day Filter;-inkscape-font-specification:Field Day Filter"
       d="M 15.962029,8.8947345 C 15.962028,9.1939359 15.933789,9.6867332 15.877315,10.373128 C 15.820837,11.006726 15.798875,12.451897 15.811426,12.808295 L 14.983111,12.940294 L 14.983111,12.781895 C 14.976835,12.443097 15.005072,11.004525 15.067825,10.366528 C 15.130576,9.6889329 15.161951,9.2005358 15.161951,8.9013346 C 14.998798,8.8969375 14.79172,8.9057375 14.540715,8.9277344 L 14.587778,7.9773389 C 14.788581,7.9597428 14.964284,7.9509429 15.114889,7.950939 C 15.491394,7.9509429 15.739261,8.0521423 15.85849,8.2545376 C 15.927515,8.3733405 15.962028,8.5867393 15.962029,8.8947345"
       id="text3460"
       sodipodi:nodetypes="cscccscccssc" />
  </g>
  <g
     inkscape:groupmode="layer"
     id="layer6"
     inkscape:label="Formula C"
     sodipodi:insensitive="true"
     style="display:none">
    <path
       style="font-size:6.92492628px;font-style:normal;font-variant:normal;font-weight:normal;font-stretch:normal;text-align:center;line-height:100%;writing-mode:lr-tb;text-anchor:middle;fill:#b1d28f;fill-opacity:1;stroke:none;stroke-width:1px;stroke-linecap:butt;stroke-linejoin:miter;stroke-opacity:1;display:inline;font-family:Field Day Filter;-inkscape-font-specification:Field Day Filter"
       d="M 6.7895935,8.9375 C 6.295501,9.0348125 6.2829447,9.469601 6.1218494,9.887689 L 6.6233664,10.025754 C 6.6818573,9.466892 6.797084,9.655439 7.0271541,9.655436 C 7.1753324,9.655439 7.2992045,9.777808 7.396693,10.014405 C 7.4707808,10.189817 7.4944743,10.374939 7.5022755,10.566663 L 7.396693,10.566663 C 6.7961727,10.570744 6.4569502,10.58612 6.3672633,10.594276 C 6.039707,10.635072 5.8066604,10.746144 5.6545813,10.925631 C 5.479105,11.141837 5.3906251,11.481329 5.390625,11.974923 C 5.3906251,12.321665 5.4722068,12.593072 5.6281857,12.748086 C 5.756868,12.874543 5.9398256,12.940434 6.2088896,12.968988 C 6.2712803,12.973069 6.5445192,12.968988 7.0007584,12.968988 C 7.441397,12.968988 7.7305306,12.836268 7.8982099,12.554794 C 8.0229905,12.34675 8.1093726,12.013533 8.109375,11.560729 C 8.1093723,11.475065 8.0907754,11.349559 8.0829793,11.174148 C 8.0790773,10.99874 8.082977,10.849701 8.0829793,10.759954 C 8.0829768,10.192933 8.0013949,9.771234 7.8454187,9.489759 C 7.6426439,9.118545 7.2887241,8.9375038 6.7895935,8.9375 z M 6.573574,11.176301 C 6.6554617,11.176303 6.7745334,11.183519 6.9695084,11.203914 C 7.1488825,11.220233 7.2943494,11.235608 7.3918386,11.231527 L 7.4974211,11.231527 L 7.5022755,12.002536 C 7.0889297,12.04741 6.7919975,12.057762 6.604824,12.057762 C 6.3552568,12.057762 6.1144112,12.055568 5.892142,12.002536 C 5.8843426,11.957665 5.8921414,11.901185 5.892142,11.864471 C 5.8921415,11.554445 6.1056368,11.176303 6.573574,11.176301 z"
       id="path3510"
       sodipodi:nodetypes="cccssccsssssssssssccscccscsc" />
    <path
       style="font-size:6.92492628px;font-style:normal;font-variant:normal;font-weight:normal;font-stretch:normal;text-align:center;line-height:100%;writing-mode:lr-tb;text-anchor:middle;fill:#b1d28f;fill-opacity:1;stroke:none;stroke-width:1px;stroke-linecap:butt;stroke-linejoin:miter;stroke-opacity:1;display:inline;font-family:Field Day Filter;-inkscape-font-specification:Field Day Filter"
       d="M 12.264335,9.969314 L 12.113109,10.966504 C 11.822514,10.929572 11.508202,10.911106 11.17017,10.911104 C 11.140516,11.188103 11.060454,11.596673 10.929988,12.136816 L 10.182753,11.929068 C 10.277639,11.536657 10.342873,11.201952 10.378457,10.924954 C 10.123448,10.938806 9.764657,10.964197 9.3020841,11.001128 L 9.328771,10.003939 C 9.589709,9.980858 9.966291,9.955467 10.458517,9.927765 C 10.470377,9.710786 10.494099,9.380699 10.529683,8.9375 L 11.3125,8.9375 C 11.294707,9.163718 11.270984,9.489189 11.241335,9.913915 C 11.597158,9.913917 11.938157,9.932384 12.264335,9.969314"
       id="path3506" />
    <path
       style="font-size:6.92492628px;font-style:normal;font-variant:normal;font-weight:normal;font-stretch:normal;text-align:center;line-height:100%;writing-mode:lr-tb;text-anchor:middle;fill:#b1d28f;fill-opacity:1;stroke:none;stroke-width:1px;stroke-linecap:butt;stroke-linejoin:miter;stroke-opacity:1;display:inline;font-family:Field Day Filter;-inkscape-font-specification:Field Day Filter"
       d="M 13.96875,8 L 13.34375,8.2189732 C 13.352983,8.4022907 13.375,8.6088106 13.375,8.8029018 C 13.375,9.228838 13.319249,9.879911 13.25,10.737165 C 13.185368,11.594423 13.15625,12.240105 13.15625,12.671429 C 13.15625,12.962572 13.248219,13.109375 13.4375,13.109375 C 14.365439,13.109375 15.027686,13.060441 15.40625,12.963393 C 16.255705,12.753124 16.687496,12.303176 16.6875,11.613058 C 16.687496,11.181736 16.523443,10.76455 16.21875,10.408705 C 15.91405,10.047475 15.583461,9.861276 15.21875,9.861272 C 14.78017,9.861276 14.378562,9.900672 14,9.970759 C 14.013849,9.469349 14.005682,8.8087365 13.96875,8 z M 15,11.029129 C 15.540142,11.029132 15.812497,11.166397 15.8125,11.43058 C 15.812497,11.565371 15.753196,11.686461 15.65625,11.832031 C 15.559298,11.977605 15.459163,12.051006 15.34375,12.051004 C 15.172933,12.051006 14.926145,12.037322 14.59375,11.978013 C 14.261353,11.918707 14.009947,11.905023 13.84375,11.905022 C 13.876066,11.651621 13.919033,11.375845 13.9375,11.138616 C 14.334528,11.057744 14.676835,11.029132 15,11.029129 z"
       id="path3504" />
  </g>
  <g
     inkscape:label="Button"
     inkscape:groupmode="layer"
     id="layer1"
     style="display:inline">
    <path
       style="fill:url(#linearGradient3197);fill-opacity:1;fill-rule:evenodd;stroke:none"
       d="M 3,1 C 1.892,1 1,1.892 1,3 l 0,16 c 0,1.108 0.892,2 2,2 l 16,0 c 1.108,0 2,-0.892 2,-2 L 21,3 C 21,1.892 20.108,1 19,1 L 3,1 z m 2.5,3 11,0 C 17.335688,4 18,4.6669389 18,5.5 l 0,11 c 0,0.833062 -0.664312,1.5 -1.5,1.5 l -11,0 C 4.6643116,18 4,17.333061 4,16.5 L 4,5.5 C 4,4.666939 4.6643116,4 5.5,4 z"
       id="rect3189"
       inkscape:connector-curvature="0" />
    <path
       style="opacity:0.6;fill:#593a19;fill-opacity:1;fill-rule:evenodd;stroke:none"
       d="M 5.21875,1.03125 C 6.988005,1.0348 8.761794,1.067094 10.53125,1.0625 12.622364,1.027424 14.721192,1.036567 16.8125,1.03125 l -11.59375,0 z M 14,1.15625 C 12.726662,1.179482 10.340779,1.240726 9.03125,1.28125 9.06889,1.283871 9.087361,1.309868 9.125,1.3125 10.441942,1.271632 12.744128,1.179624 14,1.15625 z m -5.125,0.125 C 7.03649,1.344724 5.213296,1.428696 3.375,1.46875 5.233784,1.428417 7.110503,1.377007 8.96875,1.3125 8.956452,1.311646 8.949779,1.282841 8.9375,1.28125 c -0.023917,8.31e-4 -0.038582,-8.26e-4 -0.0625,0 z m 6.90625,0.0625 c -1.292131,0.0073 -2.584352,0.033521 -3.875,0.0625 -0.248565,0.00526 -0.501592,0.02877 -0.75,0.03125 0.04087,0.00321 0.08414,0.028004 0.125,0.03125 1.08019,-4.74e-4 2.138495,-0.00923 3.21875,0 0.304241,0.00686 0.633269,0.02611 0.9375,0.03125 1.460243,-0.029764 2.913501,-0.050177 4.375,-0.0625 -0.04898,-0.031162 -0.105013,-0.065986 -0.15625,-0.09375 -1.29083,0.00431 -2.582869,-0.0073 -3.875,0 z M 10.84375,1.4375 C 10.188119,1.450872 9.53064,1.459 8.875,1.46875 c 0.762229,-0.00282 1.519048,5.15e-4 2.28125,0 C 11.08207,1.46294 11.011913,1.442032 10.9375,1.4375 c -0.03094,-0.00239 -0.06282,0.00233 -0.09375,0 z M 18.53125,1.5 c -1.794075,0.017955 -3.583699,0.067918 -5.375,0.125 0.442508,0.039621 0.870065,0.053204 1.3125,0.09375 0.08208,-5.95e-4 0.167922,6.71e-4 0.25,0 1.791309,0.00108 3.584299,-0.039521 5.375,-0.09375 -0.05851,-0.049649 -0.124507,-0.080844 -0.1875,-0.125 -0.457763,0.00224 -0.91732,-0.00267 -1.375,0 z m -4.0625,0.21875 c -0.194933,0.00141 -0.367571,-0.00101 -0.5625,0 0.879144,0.095203 1.972106,0.228949 2.1875,0.25 C 16.728134,2.030748 17.364981,2.07691 18,2.125 c 0.03697,-0.00237 0.05909,0.00239 0.09375,0 0.553192,0.041462 1.102462,0.090742 1.65625,0.125 0.279129,-0.00727 0.564968,-0.024152 0.84375,-0.03125 -0.736796,-0.041987 -1.244773,-0.0904 -1.78125,-0.125 -0.02449,-0.00158 -0.06903,0.00162 -0.09375,0 C 18.370982,2.070944 18.039683,2.038376 17.5625,2 16.534129,1.917297 15.496259,1.812914 14.46875,1.71875 z m 4.34375,0.375 c 0.190006,-0.01148 0.52053,-0.02602 0.625,-0.03125 0.334567,-0.016751 0.665018,-0.051399 1,-0.0625 -0.33474,0.01373 -0.665663,0.014505 -1,0.03125 -0.100669,0.00504 -0.40585,0.049328 -0.625,0.0625 z M 19.75,2.25 C 18.002908,2.295478 16.247596,2.320706 14.5,2.34375 14.374064,2.351114 14.250936,2.367849 14.125,2.375 16.063686,2.350795 17.999424,2.332804 19.9375,2.28125 19.87262,2.277313 19.814874,2.254013 19.75,2.25 z m 0.1875,0.03125 c 0.231623,0.014055 0.456017,0.017107 0.6875,0.03125 -0.0085,-0.015108 0.0088,-0.04759 0,-0.0625 -0.22899,0.00523 -0.458177,0.02515 -0.6875,0.03125 z m -6.03125,-0.5625 c -0.396475,-0.042934 -0.91394,-0.084887 -1,-0.09375 0.06834,-0.0023 0.150404,0.00219 0.21875,0 -0.197397,-0.017649 -0.396317,-0.04531 -0.59375,-0.0625 -0.05833,0.00187 -0.129046,-5.21e-4 -0.1875,0 0.181032,0.018203 0.350118,0.043885 0.53125,0.0625 -0.929002,0.031423 -1.852448,0.054434 -2.78125,0.09375 1.26744,0.00524 2.545022,0.00656 3.8125,0 z m -3.8125,0 C 9.39484,1.715863 8.698956,1.72304 8,1.71875 9.342011,1.693051 10.689848,1.641668 12.03125,1.59375 12.12322,1.59061 12.220523,1.565526 12.3125,1.5625 12.25049,1.55713 12.187118,1.56799 12.125,1.5625 9.611608,1.600415 7.075022,1.640532 4.5625,1.71875 4.873882,1.7201 5.188428,1.719317 5.5,1.71875 5.104174,1.721928 4.708314,1.745582 4.3125,1.75 3.977066,1.75404 3.647975,1.74519 3.3125,1.75 2.757522,1.77089 2.210653,1.792974 1.65625,1.8125 1.635762,1.834173 1.613457,1.8526 1.59375,1.875 1.830732,1.873763 4.408683,1.844205 4.5625,1.84375 6.415693,1.870143 8.242833,1.7971 10.09375,1.71875 z M 3.3125,1.75 C 3.68134,1.736117 4.037431,1.732726 4.40625,1.71875 3.517212,1.714867 2.639477,1.692473 1.75,1.6875 1.721932,1.713629 1.714334,1.753862 1.6875,1.78125 2.227522,1.776701 2.771757,1.757755 3.3125,1.75 z M 14.25,2.34375 C 12.17401,2.370156 10.075959,2.393918 8,2.40625 5.74581,2.41563 3.502132,2.40821 1.25,2.40625 1.24382,2.418434 1.224739,2.4252 1.21875,2.4375 c 2.270274,-6.04e-4 4.542764,0.00945 6.8125,0 C 9.97087,2.425975 11.90408,2.398289 13.84375,2.375 13.976906,2.367591 14.116846,2.351393 14.25,2.34375 z M 13.84375,2.375 C 12.248905,2.463743 10.659123,2.531339 9.0625,2.59375 7.196246,2.634102 5.334724,2.726694 3.46875,2.78125 5.340099,2.727807 7.191035,2.675249 9.0625,2.625 10.652568,2.562836 12.255385,2.464007 13.84375,2.375 z M 20.875,2.9375 c -0.198394,0.024352 -0.394824,0.070938 -0.59375,0.09375 -0.425135,0.040863 -0.764202,0.092465 -1.125,0.125 C 19.742459,3.113223 20.322162,3.054312 20.90625,3 20.901291,2.977103 20.880579,2.960155 20.875,2.9375 z M 1,3.25 C 0.991649,3.323603 0.970619,3.393308 0.96875,3.46875 2.523917,3.449675 4.099582,3.442471 5.65625,3.4375 4.493518,3.415595 3.318874,3.380402 2.15625,3.375 3.841739,3.361172 5.532279,3.326228 7.21875,3.34375 7.355356,3.346717 7.488481,3.370473 7.625,3.375 7.843112,3.374251 8.06302,3.37615 8.28125,3.375 9.642662,3.367813 11.01434,3.350487 12.375,3.34375 14.154161,3.306798 15.940678,3.33669 17.71875,3.25 c -1.010529,0.042456 -1.612356,0.032728 -2.625,0.03125 -0.431985,-6.31e-4 -0.849265,3.41e-4 -1.28125,0 -2.758861,0.00585 -5.522357,0.021109 -8.28125,0 C 4.022636,3.276431 2.507053,3.258653 1,3.25 z m 7.28125,0.125 c 0.327376,0.015931 0.672926,0.041083 1,0.0625 1.569177,0.00989 3.118302,0.027256 4.6875,0.03125 0.431527,-2.05e-4 0.880972,5.16e-4 1.3125,0 0.711277,-8.51e-4 1.245998,0.010379 1.84375,0 C 15.555958,3.467831 14.006438,3.394444 12.4375,3.40625 11.056565,3.399825 9.662193,3.3796 8.28125,3.375 z M 17.125,3.46875 c 0.345266,2.02e-4 0.686023,0.00794 1.03125,0 C 19.286832,3.442742 19.382877,3.413349 20.5,3.3125 20.54443,3.3066 20.58057,3.287117 20.625,3.28125 19.708349,3.349049 18.794007,3.40727 17.875,3.4375 17.588386,3.44693 17.366116,3.464563 17.125,3.46875 z M 9.28125,3.4375 c -0.897235,-0.00566 -1.790249,-0.00203 -2.6875,0 0.248407,0.00541 0.470359,0.024805 0.71875,0.03125 1.532124,0.06018 3.066274,0.179546 4.59375,0.3125 0.07164,0.00624 0.147114,-0.00627 0.21875,0 C 12.823455,3.77771 13.520116,3.754835 14.21875,3.75 13.675993,3.725489 13.140698,3.695719 13,3.6875 11.759816,3.615053 10.520927,3.518677 9.28125,3.4375 z m 4.9375,0.3125 c 0.170478,0.0077 0.253259,0.024401 0.40625,0.03125 0.368745,-0.00261 0.725007,0.00277 1.09375,0 1.517993,-0.00624 3.04336,-0.040956 4.5625,-0.03125 -1.522375,-0.011412 -3.04125,-0.00626 -4.5625,0 -0.495066,0.00372 -1.004932,-0.00343 -1.5,0 z M 14.625,3.78125 c -0.829651,0.00586 -1.670345,-0.00508 -2.5,0 C 12.924535,3.85118 13.72845,3.9271632 14.53125,4 L 16.5,4 c 0.285656,0 0.554473,0.08124 0.78125,0.21875 1.216203,0.1012269 2.443203,0.2132976 3.65625,0.34375 0.01029,0.00134 0.02095,-0.00136 0.03125,0 l 0,-0.40625 C 20.843865,4.145849 20.718913,4.134418 20.59375,4.125 20.5595,4.12263 20.50299,4.12745 20.46875,4.125 19.986946,4.090537 19.513317,4.0617008 19.03125,4.03125 17.797824,3.953336 16.576516,3.904023 15.34375,3.8125 15.252925,3.808432 14.906693,3.79386 14.625,3.78125 z m -2.71875,0 C 8.386157,3.802517 4.863898,3.802932 1.34375,3.8125 c -0.125139,-4.95e-4 -0.249874,3.61e-4 -0.375,0 l 0,0.03125 c 0.125274,-9.29e-4 0.249708,0.00114 0.375,0 C 4.859376,3.83419 8.3905,3.802654 11.90625,3.78125 z M 20.3125,3.75 c 0.218629,0.00143 0.437641,0.028956 0.65625,0.03125 l 0,-0.03125 c -0.220411,-0.00256 -0.435819,0.00169 -0.65625,0 z m -19.34375,0.65625 0,0.0625 c 1.144499,-0.00136 2.297322,-0.00415 3.4375,0 C 3.260189,4.4570824 2.114718,4.4112672 0.96875,4.40625 z M 17.8125,4.75 c 0.04449,0.078417 0.0638,0.1634923 0.09375,0.25 0.02018,-0.00309 0.04301,0.00361 0.0625,0 C 18.06402,4.982366 18.159383,4.972248 18.25,4.9375 18.26878,4.9303 18.30501,4.869106 18.3125,4.84375 18.36244,4.897714 18.39711,4.9547838 18.4375,5 18.4407,5.00361 18.46558,4.99644 18.46875,5 18.48544,4.99736 18.51442,4.970179 18.53125,4.96875 18.33343,4.7439881 18.213581,4.7602362 17.8125,4.75 z m 0.71875,0.21875 c 0.0032,0.00358 -0.0032,0.027541 0,0.03125 0.743362,-0.063317 1.601315,-0.1494412 2.4375,-0.21875 -0.815064,0.068322 -1.620933,0.1181448 -2.4375,0.1875 z m 0,0.03125 C 18.50917,5.00188 18.49068,4.99813 18.46875,5 18.610305,5.159041 18.714074,5.2454048 18.75,5.3125 18.670715,5.203641 18.587422,5.0649545 18.53125,5 z M 18.75,5.3125 C 18.857779,5.5137855 18.527594,5.3859649 18.15625,5.28125 18.09273,5.2677292 18.031192,5.2612188 17.96875,5.25 17.981686,5.3295389 18,5.4166943 18,5.5 l 0,0.0625 C 18.251501,5.5570771 18.503452,5.55723 18.75,5.53125 18.805664,5.525385 18.940124,5.5453758 18.90625,5.5 18.836141,5.4060763 18.80069,5.3820984 18.75,5.3125 z M 0.96875,5.625 l 0,0.15625 C 1.978101,5.8015152 2.989325,5.800447 4,5.8125 L 4,5.625 c -1.010466,3.323e-4 -2.021362,0.00205 -3.03125,0 z M 18,6.03125 18,6.125 c 0.387395,-0.0047 0.768097,0.00489 1.15625,0 0.124821,-0.00486 0.250202,0.00508 0.375,0 0.480508,-0.00617 0.957025,-0.026961 1.4375,-0.03125 l 0,-0.03125 c -0.03164,-4.42e-4 -0.06212,3.638e-4 -0.09375,0 -0.06236,0.00301 -0.125229,-0.003 -0.1875,0 C 19.79034,6.0519563 18.895449,6.0448245 18,6.03125 z M 0.96875,6.1875 l 0,0.125 c 0.964785,0.037446 1.909406,0.085764 2.875,0.09375 0.051611,1.17e-5 0.104627,-1.7e-5 0.15625,0 L 4,6.25 C 3.916654,6.2498784 3.833348,6.2501349 3.75,6.25 2.823076,6.241719 1.893255,6.2212378 0.96875,6.1875 z m 20,0.90625 C 19.974802,7.1125233 18.987798,7.157615 18,7.1875 l 0,0.25 c 0.997258,-0.019915 1.969332,-0.037516 2.96875,-0.09375 l 0,-0.21875 c 3.42e-4,-7e-6 -3.41e-4,-0.031243 0,-0.03125 z m -20,0.28125 0,0.03125 c 1.012313,0.00173 2.021774,5.068e-4 3.03125,0 L 4,7.375 c -1.010691,5.038e-4 -2.021388,0.00172 -3.03125,0 z M 4,7.46875 C 2.989616,7.4798701 1.978886,7.5007084 0.96875,7.5 l 0,0.03125 C 1.980867,7.5281681 2.989093,7.5074725 4,7.5 L 4,7.46875 z M 18,7.875 18,8.03125 C 18.990051,8.0246702 19.981028,8.0100634 20.96875,8 l 0,-0.125 C 19.97991,7.87778 18.989892,7.87154 18,7.875 z m 0,0.15625 0,0.03125 c 0.437568,-0.00267 0.875583,0.0039 1.3125,0 C 18.876592,8.0621561 18.438352,8.0397314 18,8.03125 z m 1.3125,0.03125 c 0.554506,4.38e-4 1.101972,5.98e-5 1.65625,0 l 0,-0.03125 C 20.414903,8.036292 19.866168,8.0575568 19.3125,8.0625 z M 0.96875,8 l 0,0.1875 C 1.979307,8.1868867 2.989604,8.1873592 4,8.1875 L 4,8 c -1.009837,7.72e-5 -2.021735,4.326e-4 -3.03125,0 z m 0,0.59375 0,0.125 C 1.655516,8.725939 2.345231,8.7399528 3.03125,8.75 2.349493,8.709073 1.649484,8.6547068 0.96875,8.59375 z M 3.03125,8.75 C 3.357917,8.7696105 3.678668,8.7947198 4,8.8125 L 4,8.75 c -0.031305,-3.4e-4 -0.062442,3.466e-4 -0.09375,0 -0.293136,-0.0048 -0.581863,0.00429 -0.875,0 z M 18,8.78125 18,8.8125 c 0.989282,-3.293e-4 1.978672,-0.00142 2.96875,0 C 19.982214,8.8113864 18.990926,8.7889404 18,8.78125 z M 3.96875,8.84375 c -0.999698,0.017211 -2.000274,0.021184 -3,0.03125 0.688016,0.06419 1.372647,0.1251328 2.0625,0.15625 0.193777,0.00874 0.399877,-0.00675 0.59375,0 0.124894,-8.46e-5 0.250076,1.875e-4 0.375,0 l 0,-0.1875 c -0.010583,9.66e-5 -0.020618,-1.236e-4 -0.03125,0 z m 17,0.0625 C 19.982514,8.931572 18.990974,8.936124 18,8.9375 l 0,0.09375 c 0.989609,0.00485 1.979149,-0.00818 2.96875,0 l 0,-0.125 z M 18,9.0625 18,9.125 c 0.993577,-3.603e-4 1.976879,-0.00358 2.96875,-0.03125 l 0,-0.03125 C 19.980626,9.05472 18.990046,9.06733 18,9.0625 z m -17.03125,0.09375 0,0.375 C 1.974821,9.5360305 2.992976,9.5607377 4,9.59375 L 4,9.25 C 2.989398,9.2100743 1.977762,9.1800871 0.96875,9.15625 z m 20,0.3125 C 20.469283,9.47815 19.968628,9.482793 19.46875,9.5 18.978801,9.50383 18.4896,9.49785 18,9.5 l 0,0.25 c 0.562509,0.00319 1.12544,-0.00414 1.6875,0 0.427982,0.013869 0.853866,0.023268 1.28125,0.03125 l 0,-0.3125 z m -20,0.15625 0,0.03125 C 1.979525,9.677034 2.989677,9.69535 4,9.71875 2.989233,9.6866381 1.978573,9.645845 0.96875,9.625 z m 0,0.875 0,0.375 c 1.013348,0.01457 2.01881,0.01325 3.03125,0 L 4,10.53125 C 2.98955,10.514704 1.978934,10.491595 0.96875,10.5 z M 18,10.59375 18,10.75 c 0.666648,-0.0022 1.333224,0.0026 2,0 0.325801,0.0038 0.64299,0.0241 0.96875,0.03125 l 0,-0.15625 c -0.374014,-0.0097 -0.750686,-0.02107 -1.125,-0.03125 -0.616107,-0.0024 -1.229215,-3.46e-4 -1.84375,0 z m -17.03125,0.5 0,0.0625 C 1.98232,11.188479 2.98773,11.25573 4,11.3125 L 4,11.28125 C 2.989835,11.219813 1.978583,11.161761 0.96875,11.09375 z m 0,0.28125 0,0.03125 c 1.01193,-1.2e-4 2.021309,-4.3e-5 3.03125,0 L 4,11.375 c -1.01015,6.27e-4 -2.01991,0.002 -3.03125,0 z M 18,11.5 l 0,0.125 0,0.03125 c 0.08347,3.89e-4 0.166478,-3.01e-4 0.25,0 -0.05463,-0.0036 -0.101623,-0.02769 -0.15625,-0.03125 0.754626,0.0026 1.495382,0.02716 2.25,0.03125 -0.693019,-0.0038 -1.400687,0.0025 -2.09375,0 0.850199,0.05548 1.712073,0.110379 2.5625,0.15625 0.05216,0.0019 0.104086,-0.0019 0.15625,0 l 0,-0.15625 0,-0.03125 c -0.114673,-0.0043 -0.229411,0.0061 -0.34375,0 C 19.745226,11.587322 18.877188,11.540259 18,11.5 z m -17.03125,0.53125 0,0.03125 C 1.974874,12.098848 2.987777,12.124941 4,12.15625 L 4,12.125 C 2.98915,12.09346 1.978193,12.0675 0.96875,12.03125 z m 20,0.09375 c -0.938907,0.03095 -1.87356,0.07143 -2.8125,0.09375 0.29357,-8.01e-4 0.581575,-4.08e-4 0.875,0 0.296971,-0.0045 0.578035,0.0045 0.875,0 0.354633,-0.0053 0.707964,0.0052 1.0625,0 l 0,-0.09375 z m 0,0.15625 C 20.324101,12.29868 19.694083,12.33173 18.875,12.375 18.583544,12.3904 18.291758,12.41872 18,12.4375 l 0,0.03125 c 0.293417,-0.01896 0.581152,-0.04698 0.875,-0.0625 0.813403,-0.04296 1.437789,-0.07781 2.09375,-0.09375 l 0,-0.03125 z M 4,12.4375 c -0.490455,0.0074 -0.980986,0.01235 -1.46875,0.03125 -0.522305,0.02024 -1.040432,0.06473 -1.5625,0.09375 l 0,0.15625 C 1.976048,12.690533 2.988778,12.662494 4,12.625 l 0,-0.1875 z m -3.03125,0.6875 0,0.03125 c 1.01163,0.0019 2.021606,7.64e-4 3.03125,0 C 2.989928,13.148842 1.980105,13.12844 0.96875,13.125 z m 17.03125,0 0,0.0625 c 0.04173,3.11e-4 0.08327,-3.17e-4 0.125,0 0.948083,0.0017 1.895098,0.02501 2.84375,0.03125 l 0,-0.0625 c -0.963076,-0.009 -1.943148,-0.04849 -2.90625,-0.03125 -0.02091,1.72e-4 -0.04159,-1.7e-4 -0.0625,0 z m -17.03125,0.21875 0,0.25 c 0.312819,0.03276 0.62419,0.06379 0.9375,0.09375 0.047769,-0.0017 0.108484,0.0018 0.15625,0 0.027423,0.0026 0.035075,-0.0025 0.0625,0 0.367489,0.03401 0.757038,0.06692 1.125,0.09375 0.052174,-2.04e-4 0.104087,2.22e-4 0.15625,0 C 3.602161,13.794809 3.801907,13.801273 4,13.8125 L 4,13.78125 4,13.5625 C 2.985436,13.510191 1.982245,13.440094 0.96875,13.34375 z M 3.25,13.78125 c -0.759011,0.003 -1.522277,-0.003 -2.28125,0 l 0,0.03125 C 1.730467,13.8092 2.488653,13.784206 3.25,13.78125 z m -2.28125,1.125 0,0.03125 c 1.01087,-0.0034 2.020507,-0.002 3.03125,0 l 0,-0.03125 c -1.010554,0.0022 -2.02137,0.0035 -3.03125,0 z m 17.03125,0 0,0.03125 c 0.124787,2e-5 0.250347,-2.1e-5 0.375,0 0.864996,6.16e-4 1.729068,-9.01e-4 2.59375,0 l 0,-0.03125 c -0.865452,-8.95e-4 -1.727982,6.16e-4 -2.59375,0 -0.124773,-2.1e-5 -0.250145,2e-5 -0.375,0 z m 0,0.125 0,0.03125 c 0.01106,6.9e-5 0.02016,-6.8e-5 0.03125,0 0.926439,0.0057 1.854795,-0.0011 2.78125,0 0.05205,1.09e-4 0.104194,-1.01e-4 0.15625,0 l 0,-0.03125 c -0.05216,-1.14e-4 -0.104084,1.09e-4 -0.15625,0 -0.926458,-0.0011 -1.854809,0.0057 -2.78125,0 -0.01109,-6.8e-5 -0.02019,6.9e-5 -0.03125,0 z m -17.03125,0.3125 0,0.03125 C 1.978181,15.389358 2.989444,15.400873 4,15.40625 L 4,15.375 C 2.98974,15.360574 1.97921,15.357796 0.96875,15.34375 z M 18,15.46875 18,15.5625 c 0.989601,0.0038 1.979724,-0.0022 2.96875,0 l 0,-0.09375 c -0.988443,0.0036 -1.978449,-0.0035 -2.96875,0 z M 0.96875,15.5 l 0,0.03125 c 0.615541,0.0014 1.228497,-1.3e-5 1.84375,0 0.396496,6e-6 0.791694,-10e-7 1.1875,0 L 4,15.5 c -0.395767,-10e-7 -0.790944,6e-6 -1.1875,0 -0.614445,-1.3e-5 -1.229337,-0.0014 -1.84375,0 z M 18,15.9375 l 0,0.09375 c 0.156312,-2e-6 0.312125,-6.8e-4 0.46875,0 0.832567,-4.24e-4 1.66754,0.0034 2.5,0 l 0,-0.0625 C 20.104265,15.96515 19.239702,15.938 18.375,15.9375 c -0.125208,5.37e-4 -0.249905,-7.19e-4 -0.375,0 z m -17.03125,0.625 c 0.218547,0.0058 0.437683,0.02613 0.65625,0.03125 -0.219466,-3.31e-4 -0.436781,3.14e-4 -0.65625,0 l 0,0.15625 c 0.563942,0.01715 1.12363,0.05485 1.6875,0.0625 0.456883,0.0032 0.916734,0.02744 1.375,0.03125 C 4.011588,16.75616 4.003699,16.655254 4,16.5625 c -1.010664,7.99e-4 -2.021323,-0.0019 -3.03125,0 z m 17,0.21875 c -0.01982,0.108263 -0.05215,0.213821 -0.09375,0.3125 1.031205,-4e-6 2.060246,-0.0031 3.09375,0 l 0,-0.25 c -0.54258,-0.02154 -1.082994,-0.04376 -1.625,-0.0625 -0.457879,0.002 -0.916444,8.95e-4 -1.375,0 z m 3,0.0625 0,-0.0625 c -0.397518,0.0022 -0.789851,-0.0018 -1.1875,0 0.397137,0.01449 0.789924,0.04598 1.1875,0.0625 z m -20,0.71875 0,0.40625 c 0.083243,-0.0012 0.166807,0.0012 0.25,0 1.269683,-0.0215 2.541153,-0.04326 3.8125,-0.0625 C 4.832305,17.84174 4.652454,17.760555 4.5,17.625 3.323932,17.606433 2.148071,17.58181 0.96875,17.5625 z m 16.4375,0.125 c -0.08058,0.06155 -0.157641,0.111875 -0.25,0.15625 1.269793,-0.002 2.537778,-0.0053 3.8125,0 l 0,-0.15625 c -1.189293,0.0051 -2.375802,0.0014 -3.5625,0 z m -16.4375,0.71875 0,0.125 C 2.542078,18.52155 4.115133,18.49767 5.6875,18.5 9.248674,18.48303 12.813757,18.46293 16.375,18.46875 12.793471,18.47365 9.237729,18.45447 5.65625,18.4375 4.094024,18.4399 2.531129,18.41566 0.96875,18.40625 z M 17.25,18.8125 c -1.218993,-0.005 -2.438029,0.0077 -3.65625,0.03125 -2.501222,0.03713 -4.998625,0.08648 -7.5,0.09375 2.552908,0.007 5.103489,0.05729 7.65625,0.09375 2.388596,0.04505 4.767623,0.03874 7.15625,0.03125 0.01544,-0.07128 0.022,-0.145311 0.03125,-0.21875 -0.01043,-3.51e-4 -0.02082,3.5e-4 -0.03125,0 C 19.687944,18.84025 18.468993,18.81752 17.25,18.8125 z m -16.21875,0.125 c 0.00168,0.01016 -0.0018,0.02113 0,0.03125 0.832573,8.47e-4 1.6671,-2.24e-4 2.5,0 0.834054,-0.008 1.666048,-0.03338 2.5,-0.03125 -0.839481,0.0023 -1.691657,0.0085 -2.53125,0 -0.823513,-2.21e-4 -1.64498,8.66e-4 -2.46875,0 z m 15.40625,0.46875 c -2.468377,0.0018 -4.937899,0.01768 -7.40625,0.03125 -2.638792,0.0109 -5.267725,0.002 -7.90625,0 0.024691,0.06343 0.064164,0.126739 0.09375,0.1875 2.667622,-0.02733 5.332356,-0.01603 8,0 2.480817,0.01865 4.956632,0.02837 7.4375,0.03125 1.343897,-0.0039 2.68956,-0.01749 4.03125,0 0.04128,-0.08134 0.09265,-0.163782 0.125,-0.25 -1.458237,-0.0016 -2.916543,0.02263 -4.375,0 z m -9.375,0.25 c -1.387348,0.0019 -2.775063,0.06059 -4.15625,0.125 -0.503706,0.03423 -0.998708,0.101057 -1.5,0.15625 0.059785,0.08864 0.117119,0.17 0.1875,0.25 0.511232,-0.05753 1.016024,-0.118815 1.53125,-0.15625 2.697733,-0.185746 5.391151,-0.200662 8.09375,-0.25 1.965689,-0.0045 3.940624,-0.01199 5.90625,0 C 15.157709,19.768703 13.186222,19.759906 11.21875,19.75 9.836829,19.709252 8.449848,19.654354 7.0625,19.65625 z m 10.0625,0.125 c 1.154455,0.007 2.314372,0.04705 3.46875,0.0625 0.0045,-0.0074 -0.0044,-0.02382 0,-0.03125 -1.161471,-0.01584 -2.30723,-0.02384 -3.46875,-0.03125 z m 2.09375,1.125 c -0.71034,0.01023 -1.414972,0.02214 -2.125,0.03125 -3.954392,-7.2e-5 -7.920609,4.35e-4 -11.875,0 -0.792117,-9.2e-5 -1.582913,7.68e-4 -2.375,0 0.042437,0.01101 0.081704,0.02243 0.125,0.03125 0.760617,4.22e-4 1.520867,-8.9e-5 2.28125,0 3.954391,4.38e-4 7.88936,-7.7e-5 11.84375,0 0.573556,0.0072 1.145216,0.02312 1.71875,0.03125 0.141006,-0.01954 0.273911,-0.05186 0.40625,-0.09375 z"
       id="path3950"
       inkscape:connector-curvature="0" />
    <path
       sodipodi:type="inkscape:offset"
       inkscape:radius="0.51081729"
       inkscape:original="M 5.5 4 C 4.669 4 4 4.669 4 5.5 L 4 16.5 C 4 17.331 4.669 18 5.5 18 L 16.5 18 C 17.331 18 18 17.331 18 16.5 L 18 5.5 C 18 4.669 17.331 4 16.5 4 L 5.5 4 z "
       style="opacity:0.5;fill:none;stroke:url(#linearGradient3425);stroke-width:1;stroke-linecap:square;stroke-linejoin:miter;stroke-miterlimit:4;stroke-opacity:1;stroke-dasharray:none;stroke-dashoffset:0"
       id="path3417"
       d="m 5.5,3.5 c -1.1051571,0 -2,0.8948429 -2,2 l 0,11 c 0,1.105157 0.8948429,2 2,2 l 11,0 c 1.105157,0 2,-0.894843 2,-2 l 0,-11 c 0,-1.1051571 -0.894843,-2 -2,-2 l -11,0 z"
       transform="matrix(0,-1,-1,0,22,22)" />
    <path
       style="opacity:0.3;fill:url(#linearGradient3852);fill-opacity:1;fill-rule:evenodd;stroke:none;display:inline"
       d="M 3,1 C 1.892,1 1,1.892 1,3 l 0,16 c 0,1.108 0.892,2 2,2 l 16,0 c 1.108,0 2,-0.892 2,-2 L 21,3 C 21,1.892 20.108,1 19,1 L 3,1 z m 0,1.03125 16,0 c 0.5497,0 0.96875,0.4190495 0.96875,0.96875 l 0,16 c 0,0.5497 -0.41905,0.96875 -0.96875,0.96875 l -16,0 C 2.4502995,19.96875 2.03125,19.5497 2.03125,19 l 0,-16 C 2.03125,2.4502995 2.4502995,2.03125 3,2.03125 z"
       id="rect3050"
       inkscape:connector-curvature="0" />
    <path
       id="path3235"
       d="M 3,21 C 1.892,21 1,20.108 1,19 l 0,-1 c 0,1.108 0.892,2 2,2 l 16,0 c 1.108,0 2,-0.892 2,-2 l 0,1 c 0,1.108 -0.892,2 -2,2 L 3,21 z"
       style="opacity:0.2;fill:url(#linearGradient3845);fill-opacity:1;fill-rule:evenodd;stroke:none;display:inline"
       inkscape:connector-curvature="0" />
  </g>
</svg>
