<?xml version="1.0" encoding="UTF-8" standalone="no"?>
<!-- Created with Inkscape (http://www.inkscape.org/) -->

<svg
   xmlns:dc="http://purl.org/dc/elements/1.1/"
   xmlns:cc="http://creativecommons.org/ns#"
   xmlns:rdf="http://www.w3.org/1999/02/22-rdf-syntax-ns#"
   xmlns:svg="http://www.w3.org/2000/svg"
   xmlns="http://www.w3.org/2000/svg"
   xmlns:xlink="http://www.w3.org/1999/xlink"
   xmlns:sodipodi="http://sodipodi.sourceforge.net/DTD/sodipodi-0.dtd"
   xmlns:inkscape="http://www.inkscape.org/namespaces/inkscape"
   width="16"
   height="16"
   id="svg2"
   sodipodi:version="0.32"
   inkscape:version="0.47 r22583"
   version="1.0"
   sodipodi:docname="applications-development.svg"
   inkscape:output_extension="org.inkscape.output.svg.inkscape"
   style="display:inline">
  <defs
     id="defs4">
    <inkscape:perspective
       sodipodi:type="inkscape:persp3d"
       inkscape:vp_x="0 : 8 : 1"
       inkscape:vp_y="0 : 1000 : 0"
       inkscape:vp_z="16 : 8 : 1"
       inkscape:persp3d-origin="8 : 5.3333333 : 1"
       id="perspective35" />
    <linearGradient
       inkscape:collect="always"
       id="linearGradient3327">
      <stop
         style="stop-color:#000000;stop-opacity:1;"
         offset="0"
         id="stop3330" />
      <stop
         style="stop-color:#000000;stop-opacity:0;"
         offset="1"
         id="stop3333" />
    </linearGradient>
    <linearGradient
       id="ButtonColor"
       x1="10.31979"
       y1="21"
       x2="10.31979"
       y2="0.99929649"
       gradientUnits="userSpaceOnUse">
      <stop
         style="stop-color:#29669f;stop-opacity:1;"
         offset="0"
         id="stop3189" />
      <stop
         style="stop-color:#88b6e0;stop-opacity:1;"
         offset="1"
         id="stop3191" />
    </linearGradient>
    <linearGradient
       inkscape:collect="always"
       xlink:href="#ButtonColor-3"
       id="linearGradient3204"
       x1="1"
       y1="9"
       x2="15"
       y2="9"
       gradientUnits="userSpaceOnUse"
       gradientTransform="translate(-17,-2)" />
    <linearGradient
       inkscape:collect="always"
       xlink:href="#linearGradient3327"
       id="linearGradient3629"
       x1="0"
       y1="8"
       x2="29.017237"
       y2="8"
       gradientUnits="userSpaceOnUse"
       gradientTransform="matrix(0,-1,1,0,0,16)" />
    <linearGradient
       inkscape:collect="always"
       xlink:href="#SVGID_1_-4"
       id="linearGradient3765"
       gradientUnits="userSpaceOnUse"
       gradientTransform="matrix(0.09341072,0,0,0.04108075,-26.756456,8.0246654)"
       x1="383.28857"
       y1="0"
       x2="383.28857"
       y2="218.48047" />
    <linearGradient
       id="SVGID_1_-4"
       gradientUnits="userSpaceOnUse"
       x1="383.28857"
       y1="0"
       x2="383.28857"
       y2="218.48047">
      <stop
         offset="0.005618"
         style="stop-color:#ED2828"
         id="stop3143-2" />
      <stop
         offset="0.5"
         style="stop-color:#EF3B39"
         id="stop3145-1" />
      <stop
         offset="0.994382"
         style="stop-color:#C02126"
         id="stop3147-3" />
    </linearGradient>
    <linearGradient
       y2="180.6748"
       x2="175.30762"
       y1="73.254395"
       x1="175.30762"
       gradientUnits="userSpaceOnUse"
       id="linearGradient3749-5">
      <stop
         id="stop3751-8"
         style="stop-color:#000000;stop-opacity:1;"
         offset="0" />
      <stop
         id="stop3753-7"
         style="stop-color:#000000;stop-opacity:0.4728682;"
         offset="0.99438202" />
    </linearGradient>
    <linearGradient
       inkscape:collect="always"
       xlink:href="#linearGradient3749-5"
       id="linearGradient3754"
       gradientUnits="userSpaceOnUse"
       gradientTransform="matrix(0.04164302,0,0,0.03408859,1.9444673,0.78644322)"
       x1="175.30762"
       y1="73.254395"
       x2="175.30762"
       y2="180.6748" />
    <linearGradient
       inkscape:collect="always"
       xlink:href="#linearGradient3749-5"
       id="linearGradient3756"
       gradientUnits="userSpaceOnUse"
       gradientTransform="matrix(0.04998763,0,0,0.03408859,2.4795353,0.78644322)"
       x1="175.30762"
       y1="73.254395"
       x2="175.30762"
       y2="180.6748" />
    <linearGradient
       y2="180.6748"
       x2="175.30762"
       y1="73.254395"
       x1="175.30762"
       gradientTransform="matrix(0.04859283,0,0,0.03408859,3.115962,0.78644322)"
       gradientUnits="userSpaceOnUse"
       id="linearGradient3809"
       xlink:href="#linearGradient3749-5"
       inkscape:collect="always" />
    <inkscape:perspective
       id="perspective3729"
       inkscape:persp3d-origin="0.5 : 0.33333333 : 1"
       inkscape:vp_z="1 : 0.5 : 1"
       inkscape:vp_y="0 : 1000 : 0"
       inkscape:vp_x="0 : 0.5 : 1"
       sodipodi:type="inkscape:persp3d" />
    <linearGradient
       inkscape:collect="always"
       xlink:href="#linearGradient3696"
       id="linearGradient4163"
       x1="6"
       y1="48"
       x2="90"
       y2="48"
       gradientUnits="userSpaceOnUse"
       gradientTransform="translate(-96,0)" />
    <linearGradient
       id="linearGradient3696">
      <stop
         id="stop3698"
         offset="0"
         style="stop-color:#2458a6;stop-opacity:1;" />
      <stop
         id="stop3700"
         offset="1"
         style="stop-color:#598ad4;stop-opacity:1;" />
    </linearGradient>
    <linearGradient
       y2="48"
       x2="90"
       y1="48"
       x1="6"
       gradientTransform="translate(-52.867199,-57.252856)"
       gradientUnits="userSpaceOnUse"
       id="linearGradient3738"
       xlink:href="#linearGradient3696"
       inkscape:collect="always" />
    <inkscape:perspective
       id="perspective3703"
       inkscape:persp3d-origin="0.5 : 0.33333333 : 1"
       inkscape:vp_z="1 : 0.5 : 1"
       inkscape:vp_y="0 : 1000 : 0"
       inkscape:vp_x="0 : 0.5 : 1"
       sodipodi:type="inkscape:persp3d" />
    <linearGradient
       gradientTransform="matrix(0.19388162,0,0,0.19388162,-1.4007219,-1.9461429)"
       inkscape:collect="always"
       xlink:href="#linearGradient4099"
       id="linearGradient4113"
       x1="22.111456"
       y1="62.983868"
       x2="40"
       y2="32"
       gradientUnits="userSpaceOnUse" />
    <linearGradient
       id="linearGradient4099">
      <stop
         style="stop-color:#9ede27;stop-opacity:1;"
         offset="0"
         id="stop4101" />
      <stop
         style="stop-color:#c8f16b;stop-opacity:1;"
         offset="1"
         id="stop4103" />
    </linearGradient>
    <linearGradient
       gradientTransform="matrix(0.19388162,0,0,0.19388162,-1.5256152,-1.9461429)"
       inkscape:collect="always"
       xlink:href="#linearGradient4099"
       id="linearGradient4105"
       x1="38"
       y1="74"
       x2="70"
       y2="49"
       gradientUnits="userSpaceOnUse" />
    <linearGradient
       id="linearGradient3712">
      <stop
         style="stop-color:#9ede27;stop-opacity:1;"
         offset="0"
         id="stop3714" />
      <stop
         style="stop-color:#c8f16b;stop-opacity:1;"
         offset="1"
         id="stop3716" />
    </linearGradient>
    <linearGradient
       inkscape:collect="always"
       xlink:href="#linearGradient3799-3"
       id="linearGradient3746"
       gradientUnits="userSpaceOnUse"
       x1="56.037025"
       y1="49.333305"
       x2="56.037025"
       y2="13.593002"
       gradientTransform="matrix(0.26518093,0,0,0.26518093,-0.34872536,-3.7081516)" />
    <linearGradient
       id="linearGradient3799-3">
      <stop
         style="stop-color:#1a1a1a;stop-opacity:1;"
         offset="0"
         id="stop3801-3" />
      <stop
         style="stop-color:#000000;stop-opacity:1;"
         offset="1"
         id="stop3803-2" />
    </linearGradient>
    <linearGradient
       y2="13.593002"
       x2="56.037025"
       y1="49.333305"
       x1="56.037025"
       gradientTransform="matrix(0.19388162,0,0,0.19388162,-1.3401963,-1.8843368)"
       gradientUnits="userSpaceOnUse"
       id="linearGradient3726"
       xlink:href="#linearGradient3799-3"
       inkscape:collect="always" />
    <inkscape:perspective
       id="perspective3736"
       inkscape:persp3d-origin="0.5 : 0.33333333 : 1"
       inkscape:vp_z="1 : 0.5 : 1"
       inkscape:vp_y="0 : 1000 : 0"
       inkscape:vp_x="0 : 0.5 : 1"
       sodipodi:type="inkscape:persp3d" />
    <radialGradient
       inkscape:collect="always"
       xlink:href="#linearGradient3784-2"
       id="radialGradient3758"
       gradientUnits="userSpaceOnUse"
       gradientTransform="matrix(1.0456205,0.08243661,-0.05194947,0.90987799,0.84943041,1.3399685)"
       cx="49.580967"
       cy="67.04126"
       fx="49.580967"
       fy="67.04126"
       r="10" />
    <linearGradient
       id="linearGradient3784-2">
      <stop
         id="stop3786-4"
         offset="0"
         style="stop-color:#a0a0a0;stop-opacity:1;" />
      <stop
         id="stop3790-2"
         offset="1"
         style="stop-color:#1a1a1a;stop-opacity:1;" />
    </linearGradient>
    <radialGradient
       r="10"
       fy="67.04126"
       fx="49.580967"
       cy="67.04126"
       cx="49.580967"
       gradientTransform="matrix(1.0456205,0.08243661,-0.05194947,0.90987799,0.84943041,1.3399685)"
       gradientUnits="userSpaceOnUse"
       id="radialGradient3745"
       xlink:href="#linearGradient3784-2"
       inkscape:collect="always" />
    <radialGradient
       inkscape:collect="always"
       xlink:href="#linearGradient3784-2"
       id="radialGradient3698"
       cx="10.116978"
       cy="6.5340972"
       fx="10.116978"
       fy="6.5340972"
       r="2.6487656"
       gradientTransform="matrix(0.60548597,-0.18291744,0.13322228,0.44098703,0.81853832,7.6996387)"
       gradientUnits="userSpaceOnUse" />
    <inkscape:perspective
       id="perspective2886"
       inkscape:persp3d-origin="0.5 : 0.33333333 : 1"
       inkscape:vp_z="1 : 0.5 : 1"
       inkscape:vp_y="0 : 1000 : 0"
       inkscape:vp_x="0 : 0.5 : 1"
       sodipodi:type="inkscape:persp3d" />
    <linearGradient
       inkscape:collect="always"
       xlink:href="#ButtonColor-3"
       id="linearGradient3205"
       x1="7.3763251"
       y1="25.15901"
       x2="7.3763251"
       y2="6.9999461"
       gradientUnits="userSpaceOnUse"
       gradientTransform="translate(2.0600706,-6.1590104)" />
    <linearGradient
       id="ButtonColor-3"
       x1="10.31979"
       y1="21"
       x2="10.31979"
       y2="0.99929649"
       gradientUnits="userSpaceOnUse">
      <stop
         style="stop-color:#d28c1e;stop-opacity:1;"
         offset="0"
         id="stop3189-2" />
      <stop
         style="stop-color:#ffcf0f;stop-opacity:1;"
         offset="1"
         id="stop3191-3" />
    </linearGradient>
    <linearGradient
       y2="6.9999461"
       x2="7.3763251"
       y1="25.15901"
       x1="7.3763251"
       gradientTransform="translate(-27.352531,-14.335968)"
       gradientUnits="userSpaceOnUse"
       id="linearGradient2895"
       xlink:href="#ButtonColor-3"
       inkscape:collect="always" />
    <inkscape:perspective
       id="perspective2905"
       inkscape:persp3d-origin="0.5 : 0.33333333 : 1"
       inkscape:vp_z="1 : 0.5 : 1"
       inkscape:vp_y="0 : 1000 : 0"
       inkscape:vp_x="0 : 0.5 : 1"
       sodipodi:type="inkscape:persp3d" />
    <inkscape:perspective
       id="perspective2918"
       inkscape:persp3d-origin="0.5 : 0.33333333 : 1"
       inkscape:vp_z="1 : 0.5 : 1"
       inkscape:vp_y="0 : 1000 : 0"
       inkscape:vp_x="0 : 0.5 : 1"
       sodipodi:type="inkscape:persp3d" />
    <linearGradient
       inkscape:collect="always"
       xlink:href="#linearGradient5287"
       id="linearGradient5341"
       gradientUnits="userSpaceOnUse"
       gradientTransform="matrix(1.4019643,0,0,1,-1.5989816,0)"
       x1="7.1236749"
       y1="2.1614699"
       x2="7.1236749"
       y2="6.2611337" />
    <linearGradient
       inkscape:collect="always"
       id="linearGradient5287">
      <stop
         style="stop-color:#000000;stop-opacity:1;"
         offset="0"
         id="stop5289" />
      <stop
         style="stop-color:#000000;stop-opacity:0;"
         offset="1"
         id="stop5291" />
    </linearGradient>
    <linearGradient
       y2="6.2611337"
       x2="7.1236749"
       y1="2.1614699"
       x1="7.1236749"
       gradientTransform="matrix(1.1198688,0,0,0.79878555,-2.0320133,-0.79878559)"
       gradientUnits="userSpaceOnUse"
       id="linearGradient2927"
       xlink:href="#linearGradient5287"
       inkscape:collect="always" />
    <linearGradient
       inkscape:collect="always"
       xlink:href="#linearGradient5287"
       id="linearGradient3828"
       gradientUnits="userSpaceOnUse"
       gradientTransform="matrix(1.1198688,0,0,0.66858793,-2.0320133,-0.668588)"
       x1="7.1236749"
       y1="2.1614699"
       x2="7.1236749"
       y2="6.2611337" />
  </defs>
  <sodipodi:namedview
     id="base"
     pagecolor="#ffffff"
     bordercolor="#e7e7e7"
     borderopacity="1"
     inkscape:pageopacity="0.0"
     inkscape:pageshadow="2"
     inkscape:zoom="28.458771"
     inkscape:cx="-4.2454167"
     inkscape:cy="9.5563131"
     inkscape:document-units="px"
     inkscape:current-layer="layer1"
     showgrid="true"
     inkscape:showpageshadow="false"
     showguides="false"
     inkscape:guide-bbox="true"
     inkscape:window-width="1920"
     inkscape:window-height="1024"
     inkscape:window-x="0"
     inkscape:window-y="25"
     inkscape:window-maximized="1"
     inkscape:snap-global="false">
    <sodipodi:guide
       orientation="1,0"
       position="0,112"
       id="guide2383" />
    <sodipodi:guide
       orientation="0,1"
       position="26.278146,128"
       id="guide2385" />
    <sodipodi:guide
       orientation="1,0"
       position="128,54.082119"
       id="guide2387" />
    <sodipodi:guide
       orientation="0,1"
       position="78.156291,0"
       id="guide2389" />
    <sodipodi:guide
       orientation="0,1"
       position="60.863576,64.084768"
       id="guide2391" />
    <inkscape:grid
       type="xygrid"
       id="grid3672"
       visible="true"
       enabled="true" />
  </sodipodi:namedview>
  <metadata
     id="metadata7">
    <rdf:RDF>
      <cc:Work
         rdf:about="">
        <dc:format>image/svg+xml</dc:format>
        <dc:type
           rdf:resource="http://purl.org/dc/dcmitype/StillImage" />
        <dc:title></dc:title>
      </cc:Work>
    </rdf:RDF>
  </metadata>
  <g
     inkscape:label="Button"
     inkscape:groupmode="layer"
     id="layer1">
    <rect
       ry="2"
       rx="2"
       y="0"
       x="-16"
       height="16"
       width="16"
       id="rect3196"
       style="fill:url(#linearGradient3204);fill-opacity:1.0;fill-rule:nonzero;stroke:none"
       transform="matrix(0,-1,1,0,0,0)" />
    <path
       style="opacity:0.80000000000000004;fill:url(#linearGradient3828);fill-opacity:1;fill-rule:evenodd;stroke:none;display:inline"
       d="M 2 0 C 1.757625 0 1.5271271 0.046708862 1.3125 0.125 L 0.21875 2 L 2.5 2 L 3.65625 0 L 2 0 z M 4.71875 0 L 3.5625 2 L 5.875 2 L 7.03125 0 L 4.71875 0 z M 8.09375 0 L 6.9375 2 L 9.21875 2 L 10.375 0 L 8.09375 0 z M 11.4375 0 L 10.28125 2 L 12.59375 2 L 13.75 0 L 11.4375 0 z M 14.8125 0.1875 L 13.75 2 L 16 2 C 16 1.1839968 15.510083 0.49917037 14.8125 0.1875 z "
       id="path5318" />
    <path
       style="opacity:0.4;fill:url(#linearGradient3629);fill-opacity:1;fill-rule:nonzero;stroke:none"
       d="m 0,14 c 0,1.108 0.892,2 2,2 l 12,0 c 1.108,0 2,-0.892 2,-2 L 16,2 C 16,0.892 15.108,0 14,0 L 2,0 C 0.892,0 0,0.892 0,2 l 0,12 z m 0.96875,0 0,-12 C 0.96875,1.416801 1.4168007,0.96875 2,0.96875 l 12,0 c 0.583199,0 1.03125,0.448051 1.03125,1.03125 l 0,12 c 0,0.583199 -0.448051,1.03125 -1.03125,1.03125 l -12,0 C 1.4168007,15.03125 0.96875,14.583199 0.96875,14 z"
       id="rect2835" />
    <path
       style="fill:#ffffff;fill-opacity:1;fill-rule:nonzero;stroke:none;opacity:0.35"
       d="M 2 0.96875 C 1.4168007 0.96875 0.96875 1.4168007 0.96875 2 L 0.96875 3 C 0.96875 2.4168007 1.4168007 1.96875 2 1.96875 L 14 1.96875 C 14.583199 1.96875 15.03125 2.4168007 15.03125 3 L 15.03125 2 C 15.03125 1.4168007 14.583199 0.96875 14 0.96875 L 2 0.96875 z "
       id="path2843" />
    <path
       style="fill:#403407;fill-opacity:1;display:inline"
       d="M 5.5060778,12.976271 C 5.3616076,12.9624 5.2905097,12.938612 5.2387241,12.88681 5.1695131,12.81758 5.1677741,12.79636 5.1467451,11.764051 L 5.1253108,10.711856 4.9543227,10.031875 4.7833331,9.351896 3.8392606,11.012312 C 3.3200209,11.925542 2.8444461,12.7261 2.7824296,12.791331 2.6250001,12.956918 2.5334974,12.949495 2.2620674,12.749123 2.029641,12.577542 1.9775238,12.492188 2.0078318,12.332753 c 0.02731,-0.143657 0.00361,-0.09999 1.1112141,-2.046749 C 3.6679711,9.321202 4.1229373,8.5012412 4.1300805,8.4638682 4.1411956,8.4057267 4.0942534,8.3698514 3.8048409,8.2153022 3.4706395,8.0368357 3.4660631,8.0354658 3.4206629,8.1002837 3.3400234,8.2154135 3.2244139,8.181908 2.9987781,7.9780137 2.6891443,7.698218 2.6784149,7.7432415 3.3610018,6.4580261 3.6704927,5.8752989 3.9578587,5.3629415 3.999593,5.3194544 l 0.07588,-0.079068 1.3557948,-0.00918 1.3557955,-0.00918 L 6.7407823,5.073068 C 6.6329744,4.7260804 6.7425189,4.3008015 7.004766,4.0481975 7.4497675,3.6195654 8.1646825,3.7619176 8.4450902,4.3349914 8.550786,4.5510028 8.5609884,4.8972804 8.4688857,5.1425591 8.3301754,5.5119599 8.007059,5.7361857 7.613453,5.7361857 c -0.2072618,0 -0.2175762,0.00347 -0.2034989,0.06837 0.00816,0.037604 0.059733,0.8582541 0.1146253,1.8236678 0.075116,1.3212788 0.091598,1.7863732 0.066643,1.8809742 -0.018232,0.06912 -0.028449,0.133166 -0.022705,0.14232 0.00571,0.0092 0.2039304,0.116272 0.4404092,0.238036 0.2766636,0.1424553 0.4383703,0.2094603 0.453546,0.1879343 0.2435431,-0.3454953 0.6921112,-0.8702813 0.7792142,-0.9116143 0.090742,-0.04306 0.2375802,-0.05117 0.9253792,-0.05113 0.71566,4.3e-5 0.831086,0.0069 0.926385,0.05535 0.08043,0.04086 0.479276,0.534066 1.527052,1.8883433 0.780005,1.008173 1.413965,1.854986 1.408801,1.881805 -0.0084,0.04356 -0.423235,0.04962 -3.89117,0.05679 -3.5094074,0.0073 -3.8817817,0.0032 -3.8817817,-0.04161 0,-0.02731 0.4216119,-0.59014 0.9369158,-1.250744 C 7.7085705,11.044071 8.1248601,10.499093 8.118356,10.493611 8.111815,10.488123 7.6025957,10.217668 6.9866747,9.892586 5.9848335,9.363817 5.7801843,9.27309 5.7826601,9.35881 c 3.925e-4,0.01359 0.077605,0.344565 0.1715828,0.735494 l 0.1708678,0.71078 0.00347,1.035504 c 0.00336,1.001678 0.00137,1.037607 -0.060887,1.099866 -0.068429,0.06843 -0.1607068,0.07431 -0.5616252,0.03582 z M 6.7310474,8.4110579 C 6.7080826,7.971802 6.6805595,7.5796365 6.6698857,7.539578 6.6548235,7.4830476 6.5839586,7.6175793 6.3533471,8.140491 6.189924,8.5110511 6.0515272,8.8234012 6.045799,8.834602 6.034707,8.856292 6.7374899,9.23469 6.7596893,9.218982 6.7668993,9.213882 6.7540093,8.8503131 6.7310473,8.4110579 z M 4.696997,7.1451938 C 4.8917363,6.7063694 5.0606786,6.3219265 5.0724238,6.2908758 5.0922218,6.2385331 5.0690029,6.2350769 4.7536725,6.2434351 l -0.3401048,0.00902 -0.359233,0.6776092 C 3.8567558,7.3027495 3.7015615,7.6141343 3.7094573,7.62203 c 0.020144,0.020142 0.598353,0.3204113 0.617654,0.3207512 0.0087,1.533e-4 0.1751465,-0.3587594 0.3698857,-0.797583 z"
       id="path4617"
       sodipodi:nodetypes="cscccccssssssssscccccssssssssssssssssssssscccsccssssccscccssc" />
  </g>
</svg>
