<?xml version="1.0" encoding="UTF-8" standalone="no"?>
<!-- Created with Inkscape (http://www.inkscape.org/) -->

<svg
   xmlns:dc="http://purl.org/dc/elements/1.1/"
   xmlns:cc="http://creativecommons.org/ns#"
   xmlns:rdf="http://www.w3.org/1999/02/22-rdf-syntax-ns#"
   xmlns:svg="http://www.w3.org/2000/svg"
   xmlns="http://www.w3.org/2000/svg"
   xmlns:xlink="http://www.w3.org/1999/xlink"
   xmlns:sodipodi="http://sodipodi.sourceforge.net/DTD/sodipodi-0.dtd"
   xmlns:inkscape="http://www.inkscape.org/namespaces/inkscape"
   width="16"
   height="16"
   id="svg2"
   sodipodi:version="0.32"
   inkscape:version="0.47 r22583"
   version="1.0"
   sodipodi:docname="applications-internet.svg"
   inkscape:output_extension="org.inkscape.output.svg.inkscape"
   style="display:inline">
  <defs
     id="defs4">
    <inkscape:perspective
       sodipodi:type="inkscape:persp3d"
       inkscape:vp_x="0 : 8 : 1"
       inkscape:vp_y="0 : 1000 : 0"
       inkscape:vp_z="16 : 8 : 1"
       inkscape:persp3d-origin="8 : 5.3333333 : 1"
       id="perspective35" />
    <linearGradient
       inkscape:collect="always"
       id="linearGradient3327">
      <stop
         style="stop-color:#000000;stop-opacity:1;"
         offset="0"
         id="stop3330" />
      <stop
         style="stop-color:#000000;stop-opacity:0;"
         offset="1"
         id="stop3333" />
    </linearGradient>
    <linearGradient
       id="ButtonColor"
       x1="10.31979"
       y1="21"
       x2="10.31979"
       y2="0.99929649"
       gradientUnits="userSpaceOnUse">
      <stop
         style="stop-color:#29669f;stop-opacity:1;"
         offset="0"
         id="stop3189" />
      <stop
         style="stop-color:#88b6e0;stop-opacity:1;"
         offset="1"
         id="stop3191" />
    </linearGradient>
    <linearGradient
       inkscape:collect="always"
       xlink:href="#linearGradient3187"
       id="linearGradient3204"
       x1="1"
       y1="9"
       x2="15"
       y2="9"
       gradientUnits="userSpaceOnUse"
       gradientTransform="translate(-17,-2)" />
    <linearGradient
       inkscape:collect="always"
       xlink:href="#linearGradient3327"
       id="linearGradient3629"
       x1="0"
       y1="8"
       x2="29.017237"
       y2="8"
       gradientUnits="userSpaceOnUse"
       gradientTransform="matrix(0,-1,1,0,0,16)" />
    <linearGradient
       inkscape:collect="always"
       xlink:href="#SVGID_1_-4"
       id="linearGradient3765"
       gradientUnits="userSpaceOnUse"
       gradientTransform="matrix(0.09341072,0,0,0.04108075,-26.756456,8.0246654)"
       x1="383.28857"
       y1="0"
       x2="383.28857"
       y2="218.48047" />
    <linearGradient
       id="SVGID_1_-4"
       gradientUnits="userSpaceOnUse"
       x1="383.28857"
       y1="0"
       x2="383.28857"
       y2="218.48047">
      <stop
         offset="0.005618"
         style="stop-color:#ED2828"
         id="stop3143-2" />
      <stop
         offset="0.5"
         style="stop-color:#EF3B39"
         id="stop3145-1" />
      <stop
         offset="0.994382"
         style="stop-color:#C02126"
         id="stop3147-3" />
    </linearGradient>
    <linearGradient
       y2="180.6748"
       x2="175.30762"
       y1="73.254395"
       x1="175.30762"
       gradientUnits="userSpaceOnUse"
       id="linearGradient3749-5">
      <stop
         id="stop3751-8"
         style="stop-color:#000000;stop-opacity:1;"
         offset="0" />
      <stop
         id="stop3753-7"
         style="stop-color:#000000;stop-opacity:0.4728682;"
         offset="0.99438202" />
    </linearGradient>
    <linearGradient
       inkscape:collect="always"
       xlink:href="#linearGradient3749-5"
       id="linearGradient3754"
       gradientUnits="userSpaceOnUse"
       gradientTransform="matrix(0.04164302,0,0,0.03408859,1.9444673,0.78644322)"
       x1="175.30762"
       y1="73.254395"
       x2="175.30762"
       y2="180.6748" />
    <linearGradient
       inkscape:collect="always"
       xlink:href="#linearGradient3749-5"
       id="linearGradient3756"
       gradientUnits="userSpaceOnUse"
       gradientTransform="matrix(0.04998763,0,0,0.03408859,2.4795353,0.78644322)"
       x1="175.30762"
       y1="73.254395"
       x2="175.30762"
       y2="180.6748" />
    <linearGradient
       y2="180.6748"
       x2="175.30762"
       y1="73.254395"
       x1="175.30762"
       gradientTransform="matrix(0.04859283,0,0,0.03408859,3.115962,0.78644322)"
       gradientUnits="userSpaceOnUse"
       id="linearGradient3809"
       xlink:href="#linearGradient3749-5"
       inkscape:collect="always" />
    <inkscape:perspective
       id="perspective3729"
       inkscape:persp3d-origin="0.5 : 0.33333333 : 1"
       inkscape:vp_z="1 : 0.5 : 1"
       inkscape:vp_y="0 : 1000 : 0"
       inkscape:vp_x="0 : 0.5 : 1"
       sodipodi:type="inkscape:persp3d" />
    <linearGradient
       inkscape:collect="always"
       xlink:href="#linearGradient3696"
       id="linearGradient4163"
       x1="6"
       y1="48"
       x2="90"
       y2="48"
       gradientUnits="userSpaceOnUse"
       gradientTransform="translate(-96,0)" />
    <linearGradient
       id="linearGradient3696">
      <stop
         id="stop3698"
         offset="0"
         style="stop-color:#2458a6;stop-opacity:1;" />
      <stop
         id="stop3700"
         offset="1"
         style="stop-color:#598ad4;stop-opacity:1;" />
    </linearGradient>
    <linearGradient
       y2="48"
       x2="90"
       y1="48"
       x1="6"
       gradientTransform="translate(-52.867199,-57.252856)"
       gradientUnits="userSpaceOnUse"
       id="linearGradient3738"
       xlink:href="#linearGradient3696"
       inkscape:collect="always" />
    <inkscape:perspective
       id="perspective3703"
       inkscape:persp3d-origin="0.5 : 0.33333333 : 1"
       inkscape:vp_z="1 : 0.5 : 1"
       inkscape:vp_y="0 : 1000 : 0"
       inkscape:vp_x="0 : 0.5 : 1"
       sodipodi:type="inkscape:persp3d" />
    <linearGradient
       gradientTransform="matrix(0.19388162,0,0,0.19388162,-1.4007219,-1.9461429)"
       inkscape:collect="always"
       xlink:href="#linearGradient4099"
       id="linearGradient4113"
       x1="22.111456"
       y1="62.983868"
       x2="40"
       y2="32"
       gradientUnits="userSpaceOnUse" />
    <linearGradient
       id="linearGradient4099">
      <stop
         style="stop-color:#9ede27;stop-opacity:1;"
         offset="0"
         id="stop4101" />
      <stop
         style="stop-color:#c8f16b;stop-opacity:1;"
         offset="1"
         id="stop4103" />
    </linearGradient>
    <linearGradient
       gradientTransform="matrix(0.19388162,0,0,0.19388162,-1.5256152,-1.9461429)"
       inkscape:collect="always"
       xlink:href="#linearGradient4099"
       id="linearGradient4105"
       x1="38"
       y1="74"
       x2="70"
       y2="49"
       gradientUnits="userSpaceOnUse" />
    <linearGradient
       id="linearGradient3712">
      <stop
         style="stop-color:#9ede27;stop-opacity:1;"
         offset="0"
         id="stop3714" />
      <stop
         style="stop-color:#c8f16b;stop-opacity:1;"
         offset="1"
         id="stop3716" />
    </linearGradient>
    <linearGradient
       inkscape:collect="always"
       xlink:href="#linearGradient3799-3"
       id="linearGradient3746"
       gradientUnits="userSpaceOnUse"
       x1="56.037025"
       y1="49.333305"
       x2="56.037025"
       y2="13.593002"
       gradientTransform="matrix(0.26518093,0,0,0.26518093,-0.34872536,-3.7081516)" />
    <linearGradient
       id="linearGradient3799-3">
      <stop
         style="stop-color:#1a1a1a;stop-opacity:1;"
         offset="0"
         id="stop3801-3" />
      <stop
         style="stop-color:#000000;stop-opacity:1;"
         offset="1"
         id="stop3803-2" />
    </linearGradient>
    <linearGradient
       y2="13.593002"
       x2="56.037025"
       y1="49.333305"
       x1="56.037025"
       gradientTransform="matrix(0.19388162,0,0,0.19388162,-1.3401963,-1.8843368)"
       gradientUnits="userSpaceOnUse"
       id="linearGradient3726"
       xlink:href="#linearGradient3799-3"
       inkscape:collect="always" />
    <inkscape:perspective
       id="perspective3736"
       inkscape:persp3d-origin="0.5 : 0.33333333 : 1"
       inkscape:vp_z="1 : 0.5 : 1"
       inkscape:vp_y="0 : 1000 : 0"
       inkscape:vp_x="0 : 0.5 : 1"
       sodipodi:type="inkscape:persp3d" />
    <radialGradient
       inkscape:collect="always"
       xlink:href="#linearGradient3784-2"
       id="radialGradient3758"
       gradientUnits="userSpaceOnUse"
       gradientTransform="matrix(1.0456205,0.08243661,-0.05194947,0.90987799,0.84943041,1.3399685)"
       cx="49.580967"
       cy="67.04126"
       fx="49.580967"
       fy="67.04126"
       r="10" />
    <linearGradient
       id="linearGradient3784-2">
      <stop
         id="stop3786-4"
         offset="0"
         style="stop-color:#a0a0a0;stop-opacity:1;" />
      <stop
         id="stop3790-2"
         offset="1"
         style="stop-color:#1a1a1a;stop-opacity:1;" />
    </linearGradient>
    <radialGradient
       r="10"
       fy="67.04126"
       fx="49.580967"
       cy="67.04126"
       cx="49.580967"
       gradientTransform="matrix(1.0456205,0.08243661,-0.05194947,0.90987799,0.84943041,1.3399685)"
       gradientUnits="userSpaceOnUse"
       id="radialGradient3745"
       xlink:href="#linearGradient3784-2"
       inkscape:collect="always" />
    <radialGradient
       inkscape:collect="always"
       xlink:href="#linearGradient3784-2"
       id="radialGradient3698"
       cx="10.116978"
       cy="6.5340972"
       fx="10.116978"
       fy="6.5340972"
       r="2.6487656"
       gradientTransform="matrix(0.60548597,-0.18291744,0.13322228,0.44098703,0.81853832,7.6996387)"
       gradientUnits="userSpaceOnUse" />
    <inkscape:perspective
       id="perspective2887"
       inkscape:persp3d-origin="0.5 : 0.33333333 : 1"
       inkscape:vp_z="1 : 0.5 : 1"
       inkscape:vp_y="0 : 1000 : 0"
       inkscape:vp_x="0 : 0.5 : 1"
       sodipodi:type="inkscape:persp3d" />
    <linearGradient
       inkscape:collect="always"
       xlink:href="#linearGradient3187"
       id="linearGradient3216"
       x1="-6.4374995"
       y1="25.0625"
       x2="-6.4374995"
       y2="5.056252"
       gradientUnits="userSpaceOnUse"
       gradientTransform="translate(16.937499,-4.062501)" />
    <linearGradient
       id="linearGradient3187">
      <stop
         style="stop-color:#1567b3;stop-opacity:1;"
         offset="0"
         id="stop3189-5" />
      <stop
         style="stop-color:#67aeed;stop-opacity:1;"
         offset="1"
         id="stop3191-1" />
    </linearGradient>
    <linearGradient
       y2="5.056252"
       x2="-6.4374995"
       y1="25.0625"
       x1="-6.4374995"
       gradientTransform="translate(-9.7694339,-11.536687)"
       gradientUnits="userSpaceOnUse"
       id="linearGradient2896"
       xlink:href="#linearGradient3187"
       inkscape:collect="always" />
    <inkscape:perspective
       id="perspective2906"
       inkscape:persp3d-origin="0.5 : 0.33333333 : 1"
       inkscape:vp_z="1 : 0.5 : 1"
       inkscape:vp_y="0 : 1000 : 0"
       inkscape:vp_x="0 : 0.5 : 1"
       sodipodi:type="inkscape:persp3d" />
    <radialGradient
       inkscape:collect="always"
       xlink:href="#linearGradient5226"
       id="radialGradient4111"
       gradientUnits="userSpaceOnUse"
       gradientTransform="matrix(0.24085275,0.00309282,-0.00256127,0.19944385,-7.3131963,-5.2410947)"
       cx="65.235977"
       cy="63.182522"
       fx="65.235977"
       fy="63.182522"
       r="43.769611" />
    <linearGradient
       id="linearGradient5226">
      <stop
         style="stop-color:#ffffff;stop-opacity:1;"
         offset="0"
         id="stop5228" />
      <stop
         style="stop-color:#ffffff;stop-opacity:0.4140625;"
         offset="1"
         id="stop5230" />
    </linearGradient>
    <radialGradient
       inkscape:collect="always"
       xlink:href="#linearGradient5226"
       id="radialGradient4114"
       gradientUnits="userSpaceOnUse"
       gradientTransform="matrix(-0.12831461,0.0366879,0.10543903,0.31868372,3.2028802,-17.063406)"
       cx="49.233551"
       cy="70.608253"
       fx="49.233551"
       fy="70.608253"
       r="25.483549" />
    <linearGradient
       id="linearGradient2915">
      <stop
         style="stop-color:#ffffff;stop-opacity:1;"
         offset="0"
         id="stop2917" />
      <stop
         style="stop-color:#ffffff;stop-opacity:0.4140625;"
         offset="1"
         id="stop2919" />
    </linearGradient>
    <radialGradient
       inkscape:collect="always"
       xlink:href="#linearGradient5226"
       id="radialGradient4102"
       gradientUnits="userSpaceOnUse"
       gradientTransform="matrix(0.15626682,0,0,0.06398256,-1.990306,5.1321524)"
       cx="63.875"
       cy="2.2173476"
       fx="63.875"
       fy="2.2173476"
       r="58.375" />
    <linearGradient
       id="linearGradient2922">
      <stop
         style="stop-color:#ffffff;stop-opacity:1;"
         offset="0"
         id="stop2924" />
      <stop
         style="stop-color:#ffffff;stop-opacity:0.4140625;"
         offset="1"
         id="stop2926" />
    </linearGradient>
    <radialGradient
       inkscape:collect="always"
       xlink:href="#linearGradient5226"
       id="radialGradient3180"
       gradientUnits="userSpaceOnUse"
       gradientTransform="matrix(0.2595267,0,0,0.2002063,-5.5769649,-1.70675)"
       cx="63.98003"
       cy="61.948856"
       fx="63.98003"
       fy="61.948856"
       r="58.01997" />
    <linearGradient
       id="linearGradient2929">
      <stop
         style="stop-color:#ffffff;stop-opacity:1;"
         offset="0"
         id="stop2931" />
      <stop
         style="stop-color:#ffffff;stop-opacity:0.4140625;"
         offset="1"
         id="stop2933" />
    </linearGradient>
    <radialGradient
       r="58.01997"
       fy="61.948856"
       fx="63.98003"
       cy="61.948856"
       cx="63.98003"
       gradientTransform="matrix(0.20707945,0,0,0.159741,-5.2478388,-2.1259443)"
       gradientUnits="userSpaceOnUse"
       id="radialGradient2942"
       xlink:href="#linearGradient5226"
       inkscape:collect="always" />
  </defs>
  <sodipodi:namedview
     id="base"
     pagecolor="#ffffff"
     bordercolor="#e7e7e7"
     borderopacity="1"
     inkscape:pageopacity="0.0"
     inkscape:pageshadow="2"
     inkscape:zoom="28.458771"
     inkscape:cx="-4.2102782"
     inkscape:cy="9.5738824"
     inkscape:document-units="px"
     inkscape:current-layer="layer1"
     showgrid="true"
     inkscape:showpageshadow="false"
     showguides="false"
     inkscape:guide-bbox="true"
     inkscape:window-width="1920"
     inkscape:window-height="1024"
     inkscape:window-x="0"
     inkscape:window-y="25"
     inkscape:window-maximized="1"
     inkscape:snap-global="false">
    <sodipodi:guide
       orientation="1,0"
       position="0,112"
       id="guide2383" />
    <sodipodi:guide
       orientation="0,1"
       position="26.278146,128"
       id="guide2385" />
    <sodipodi:guide
       orientation="1,0"
       position="128,54.082119"
       id="guide2387" />
    <sodipodi:guide
       orientation="0,1"
       position="78.156291,0"
       id="guide2389" />
    <sodipodi:guide
       orientation="0,1"
       position="60.863576,64.084768"
       id="guide2391" />
    <inkscape:grid
       type="xygrid"
       id="grid3672"
       visible="true"
       enabled="true" />
  </sodipodi:namedview>
  <metadata
     id="metadata7">
    <rdf:RDF>
      <cc:Work
         rdf:about="">
        <dc:format>image/svg+xml</dc:format>
        <dc:type
           rdf:resource="http://purl.org/dc/dcmitype/StillImage" />
        <dc:title></dc:title>
      </cc:Work>
    </rdf:RDF>
  </metadata>
  <g
     inkscape:label="Button"
     inkscape:groupmode="layer"
     id="layer1">
    <rect
       ry="2"
       rx="2"
       y="0"
       x="-16"
       height="16"
       width="16"
       id="rect3196"
       style="fill:url(#linearGradient3204);fill-opacity:1.0;fill-rule:nonzero;stroke:none"
       transform="matrix(0,-1,1,0,0,0)" />
    <path
       style="fill:#ffffff;fill-opacity:1;fill-rule:nonzero;stroke:none;opacity:0.35"
       d="M 2 0.96875 C 1.4168007 0.96875 0.96875 1.4168007 0.96875 2 L 0.96875 3 C 0.96875 2.4168007 1.4168007 1.96875 2 1.96875 L 14 1.96875 C 14.583199 1.96875 15.03125 2.4168007 15.03125 3 L 15.03125 2 C 15.03125 1.4168007 14.583199 0.96875 14 0.96875 L 2 0.96875 z "
       id="path2843" />
    <path
       style="opacity:0.5;fill:url(#radialGradient2942);fill-opacity:1;stroke:none;display:inline"
       d="M 5.7733934,0.07582305 C 6.0051388,0.50257135 5.9147137,1.1108118 6.3008229,1.3496286 5.8711447,1.4260369 6.6858016,1.6777509 6.2406109,1.9571583 6.1938676,2.3556328 6.2458213,3.3390386 6.9369041,3.4970655 7.0976823,2.8368046 7.4485186,2.3212158 8.0832213,2.0083022 8.513366,1.7260853 8.8934394,1.5863811 8.3057454,1.3296623 8.3812039,0.87025069 9.0647734,1.7507554 8.6751594,1.0706553 8.4005628,0.74670784 8.1711671,0.60602321 8.7504823,0.59043555 9.5129805,-0.0182245 8.1104516,0.02343579 7.67912,0.07582305 c -0.6352417,0 -1.2704863,0 -1.9057286,0 z M 0.49162482,0.35085935 C -0.03147965,0.43040898 0.0901212,1.662435 0.52103505,0.88128372 0.72074786,0.6918477 0.96813838,0.35085049 0.49162482,0.35085935 z M 2.6662182,0.38953668 C 2.2527889,0.92145556 3.0277022,1.0255395 2.9530313,0.46485834 2.8779925,0.39368567 2.7604976,0.40094001 2.6662182,0.38953668 z m 0.6704276,0.0945441 C 2.6840902,0.9078492 3.3367151,1.7491289 3.9970597,1.5053561 4.4945039,1.772739 4.6832384,2.4654651 4.0728318,2.7758876 4.3910467,2.4508035 5.0492764,3.5638344 4.9156622,2.9724897 5.6508027,3.2894855 4.4781435,2.0202345 5.2037222,2.5656077 5.8615733,2.4364586 4.6998281,1.9844679 4.9525493,1.5971207 4.6562977,1.2631857 4.2474062,0.73470618 3.8009556,0.94572266 3.7915122,0.18848606 3.3356626,0.69595376 3.4233145,1.1526712 3.2319661,0.94417852 3.4082567,0.66552271 3.3366458,0.48408083 z m -1.0572134,0.004301 C 1.5393741,0.8986943 2.8130934,1.4450075 2.3816043,0.57772409 l -0.0469,-0.0597534 -0.055271,-0.0295926 -10e-8,8e-8 z M 0.92138641,0.63878943 C 0.39522676,0.68071494 0.84963737,1.2286574 0.67871338,1.3016568 1.0270598,1.3956848 1.3620464,1.4154052 0.79941887,1.569567 0.97363839,2.0409038 2.5114613,1.8824868 1.8398926,1.1711496 1.7431198,0.85724744 1.4559517,0.389387 1.487362,1.0132386 1.3813276,0.52920377 1.1521508,1.134915 0.92138641,0.63878943 z M 15.284014,0.68606075 c -0.617984,0.24978988 0.44885,1.09855035 0.127894,0.2213856 0.01149,-0.0798943 0.0049,-0.26514568 -0.127894,-0.2213856 z M 2.6189443,1.0470473 C 2.2937558,1.2977285 3.0731439,2.1915735 2.4518678,1.9991416 1.8930305,2.0238516 1.1844154,2.2219205 0.64654006,1.7783811 -0.26399015,1.0352018 0.08105437,2.5944057 0.02748256,3.0822215 -0.08298161,3.7243343 0.18377867,5.2220482 0.05654969,5.18522 0.02145434,6.0194889 0.29719028,6.7324916 0.86063515,7.3058938 0.93266106,7.5769095 1.569282,8.2208045 1.1316633,7.5683762 0.7879409,6.6114643 1.64723,8.3443773 2.0263205,8.3934478 2.6723646,8.7701519 3.6571227,9.0151663 4.0545351,9.4864432 3.7233912,10.157846 3.7597413,10.826566 4.3944924,11.309452 5.0700219,11.931008 4.419858,12.774668 4.4762297,13.52273 4.4188247,14.102238 4.128244,15.331808 4.8304126,15.399181 4.9798391,14.792075 4.9388859,13.813509 5.6091977,13.560538 5.8923996,13.036534 6.3949395,12.815794 6.6684063,12.190085 7.215291,11.832684 7.69227,11.086888 7.5594128,10.407585 7.0979412,10.004105 6.2733457,10.286783 6.1755667,9.5727669 5.5748169,9.267964 4.8731309,8.7420154 4.1883739,9.1161813 3.5220336,9.4901797 3.2752422,8.0997555 3.0813199,8.2184021 1.8966166,8.6451309 2.4559548,6.8432854 3.3776648,7.3173952 3.7902778,7.3765023 3.8914415,8.0979459 3.7998343,7.3861088 3.9967317,6.724634 4.5182061,5.9640046 5.107914,5.6783202 4.9827627,6.1621479 5.895714,5.2787698 5.2940213,5.5521499 5.3481124,4.9899495 4.3010858,5.4155667 5.0683321,5.0801419 5.8131405,5.0856552 6.1000099,4.570463 5.4497171,4.1112717 5.3807862,3.8730023 5.1359094,3.4371573 4.9214913,3.8258525 4.8244862,3.0885726 3.7157651,2.9449461 4.1124077,3.8822365 4.117804,4.2110759 3.9118145,5.2226699 3.7077113,4.4966179 3.1407724,4.1733006 2.2072801,3.6998824 2.9441379,2.9799381 3.1035733,2.4862419 4.2182006,2.1508041 3.4999554,1.6057139 3.5233366,1.9368784 3.0730828,2.3154716 3.1724963,1.7619312 2.8036589,2.1220893 2.9241497,1.0912188 2.6189443,1.0470473 z M 12.963303,1.3134895 c -0.895677,0.1825877 -1.078978,1.2120478 -1.686264,1.7242699 -0.384558,0.436305 0.02492,0.9351328 0.380066,0.8812927 0.09345,0.9946963 0.725535,-0.47884 0.633441,-0.8835084 0.02671,-0.3632698 0.654162,-0.7831573 0.322452,-0.1517016 -0.423142,0.5301289 0.226502,0.7429786 0.419285,0.7126419 -0.496656,0.082194 -0.255522,0.4630848 -0.562997,0.535958 -0.05851,0.5451279 -1.16757,0.5082409 -0.962684,-0.1377817 -0.0888,0.662501 -0.617951,0.9419558 -1.167957,1.2840202 0.475764,0.4907548 -0.06755,0.6123733 -0.479946,0.7654798 -0.062796,0.92848 0.854146,0.5002458 1.084167,-0.036432 0.535615,-0.7047173 1.065685,0.5945563 1.013437,0.5160451 0.608445,-0.1959364 -0.667933,-1.1120535 0.08815,-0.6923842 0.337724,0.2346582 0.470775,1.1559788 0.720025,0.3627921 -0.0045,0.5875362 1.331658,0.327918 0.769721,0.9498793 C 12.935708,7.1220134 12.233843,7.2244867 11.712284,7.0114834 11.529505,6.2732717 10.537466,6.6805924 10.064059,6.9245327 9.5418737,7.4821571 8.9325331,8.3615741 9.4309065,9.1202752 9.8079007,10.0587 11.392871,8.8873208 11.522972,9.9766412 c 0.279305,0.6049768 0.176046,1.2961038 0.286202,1.9815228 0.140799,0.738378 0.808917,1.698164 1.472661,0.731261 0.268416,-0.746289 0.959219,-1.327063 0.733984,-2.10063 0.06492,-0.570898 1.055627,-1.1338202 0.877348,-1.5141123 -0.782363,-0.03099 -1.155698,-0.8839958 -1.31894,-1.5223352 0.534986,0.121614 0.440253,1.3315512 1.119608,1.2829131 0.511215,-0.081221 1.561195,-1.0892982 0.490527,-0.9992203 -0.382483,-0.098882 -0.467747,-0.8512397 -0.03624,-0.2609723 1.183095,0.6536611 0.77265,-1.1119042 0.832105,-1.7527717 0,-1.4026631 0,-2.8053262 0,-4.2079892 C 15.575297,2.0512784 15.000692,1.82266 14.569913,2.2019421 14.457568,1.5172357 14.317168,2.8201468 13.839719,2.7163424 13.750576,3.1917622 13.240762,1.8993622 13.860928,2.4326388 14.591363,2.0222539 13.188344,1.6073 13.045258,1.307176 l -0.08195,0.00631 10e-7,-1e-7 z M 6.0785245,1.4810928 c -0.2347701,0.2847152 0.5087132,0.1758397 0,0 z M 2.3696828,1.6057139 c -0.3005814,0.3387811 0.4903731,0.2229998 0,0 z m 1.8007004,0.3223124 c -0.2581784,0.3368395 0.3467182,0.1434964 0,0 z M 9.3189251,2.3835532 C 9.0504421,2.6088147 8.3591161,2.3499393 8.8726059,2.8843507 9.1132027,3.1554271 9.8386594,2.5990681 9.3189251,2.3835532 z M 3.4569791,2.5726433 C 2.9630401,3.0254969 4.3117227,2.9921661 3.5676079,2.6249684 3.5307316,2.6075267 3.4938554,2.590085 3.4569791,2.5726433 z m 6.8890759,1.263454 c -0.279389,0.3138628 0.08229,0.8595991 0.01995,1.1743772 0.924129,-0.1177702 -3.59e-4,-0.7407931 -0.01995,-1.1743772 z m -0.25356,0.4942081 c -0.5506588,0.1240035 -0.03242,0.8447393 0.06662,0.1926246 0.0063,-0.052852 0.02808,-0.1876945 -0.06662,-0.1926246 z M 5.8980246,4.8846738 C 5.1536811,5.2199545 6.5105819,5.7802651 6.0125001,5.1371884 l -0.079414,-0.1211068 -0.035062,-0.1314078 -1e-7,0 z m 9.2054904,0.558669 c 0.0438,0.2165581 -0.353135,0.4693935 0.06939,0.6737246 0.323474,0.6322279 -0.502389,0.5970413 -0.375461,0.00644 -0.202529,-0.3524358 -0.145657,-0.6477885 0.306069,-0.6801605 z m -1.250607,0.0043 c 0.04758,0.28784 0.573814,0.8643836 -0.09025,0.666104 -0.531281,0.2977646 -1.03306,-0.4846287 -0.357295,-0.5296742 0.409223,0.271525 0.09905,-0.1371468 0.447544,-0.1364298 z m -2.419557,0.704777 c -0.308961,0.1825657 0.231393,0.3064954 0,0 z M 3.7621094,7.9874376 c 0.237342,0.3275026 0.7773839,0.1851645 0.1592471,0.03383 -0.053083,-0.011274 -0.1061648,-0.022556 -0.1592471,-0.03383 z m 0.7907617,0.2449498 c -0.25217,0.3411632 0.5967037,0.020873 0,0 z M 14.875742,11.107388 c -0.732338,-0.01764 -0.479295,1.725849 -0.09195,0.637587 0.05506,-0.202981 0.187989,-0.426337 0.09195,-0.637587 z"
       id="path3175" />
    <path
       style="fill:none;stroke:url(#radialGradient4102);stroke-width:1.00000012;stroke-linecap:butt;stroke-linejoin:miter;stroke-miterlimit:4;stroke-opacity:1;stroke-dasharray:none;display:inline"
       d="M 0,8.2120134 C 5.2031421,4.4612853 12.74016,3.7081562 15.816231,7.970347"
       id="path3577"
       sodipodi:nodetypes="cc" />
    <path
       style="fill:none;stroke:url(#radialGradient4114);stroke-width:1.00000012;stroke-linecap:butt;stroke-linejoin:miter;stroke-miterlimit:4;stroke-opacity:1;stroke-dasharray:none;display:inline"
       d="M 4.1107559,0.19026517 C 0.82141714,9.2534409 13.33885,15.621943 13.33885,15.621943"
       id="path3583"
       sodipodi:nodetypes="cc" />
    <path
       style="fill:none;stroke:url(#radialGradient4111);stroke-width:1.00000012;stroke-linecap:butt;stroke-linejoin:miter;stroke-miterlimit:4;stroke-opacity:1;stroke-dasharray:none;display:inline"
       d="M 4.2115988,15.957267 C 4.0152539,12.956684 9.729537,4.1305393 15.783507,2.6302481"
       id="path3581"
       sodipodi:nodetypes="cc" />
    <path
       sodipodi:type="arc"
       style="fill:#eeeeec;fill-opacity:1;fill-rule:evenodd;stroke:none;display:inline"
       id="path4125"
       sodipodi:cx="6.25"
       sodipodi:cy="8.375"
       sodipodi:rx="1.8125"
       sodipodi:ry="1.8125"
       d="m 8.0625,8.375 a 1.8125,1.8125 0 1 1 -3.625,0 1.8125,1.8125 0 1 1 3.625,0 z"
       transform="matrix(0.7153693,0,0,0.71534246,-0.28202062,-0.07289075)" />
    <path
       sodipodi:type="arc"
       style="fill:#eeeeec;fill-opacity:1;fill-rule:evenodd;stroke:none;display:inline"
       id="path4127"
       sodipodi:cx="14.8125"
       sodipodi:cy="7.625"
       sodipodi:rx="1.9375"
       sodipodi:ry="1.9375"
       d="m 16.75,7.625 a 1.9375,1.9375 0 1 1 -3.875,0 1.9375,1.9375 0 1 1 3.875,0 z"
       transform="matrix(0.72069464,0,0,0.7206676,0.34586913,-0.17539952)" />
    <path
       transform="matrix(0.79791193,0,0,0.79788199,-0.79791193,-0.76415919)"
       sodipodi:type="arc"
       style="fill:#eeeeec;fill-opacity:1;fill-rule:evenodd;stroke:none;display:inline"
       id="path4129"
       sodipodi:cx="9.1875"
       sodipodi:cy="13.5"
       sodipodi:rx="1.5625"
       sodipodi:ry="1.5625"
       d="m 10.75,13.5 a 1.5625,1.5625 0 1 1 -3.125,0 1.5625,1.5625 0 1 1 3.125,0 z" />
    <path
       style="opacity:0.4;fill:url(#linearGradient3629);fill-opacity:1;fill-rule:nonzero;stroke:none"
       d="m 0,14 c 0,1.108 0.892,2 2,2 l 12,0 c 1.108,0 2,-0.892 2,-2 L 16,2 C 16,0.892 15.108,0 14,0 L 2,0 C 0.892,0 0,0.892 0,2 l 0,12 z m 0.96875,0 0,-12 C 0.96875,1.416801 1.4168007,0.96875 2,0.96875 l 12,0 c 0.583199,0 1.03125,0.448051 1.03125,1.03125 l 0,12 c 0,0.583199 -0.448051,1.03125 -1.03125,1.03125 l -12,0 C 1.4168007,15.03125 0.96875,14.583199 0.96875,14 z"
       id="rect2835" />
  </g>
</svg>
