<?xml version="1.0" encoding="UTF-8" standalone="no"?>
<!-- Created with Inkscape (http://www.inkscape.org/) -->

<svg
   xmlns:dc="http://purl.org/dc/elements/1.1/"
   xmlns:cc="http://creativecommons.org/ns#"
   xmlns:rdf="http://www.w3.org/1999/02/22-rdf-syntax-ns#"
   xmlns:svg="http://www.w3.org/2000/svg"
   xmlns="http://www.w3.org/2000/svg"
   xmlns:xlink="http://www.w3.org/1999/xlink"
   xmlns:sodipodi="http://sodipodi.sourceforge.net/DTD/sodipodi-0.dtd"
   xmlns:inkscape="http://www.inkscape.org/namespaces/inkscape"
   width="16"
   height="16"
   id="svg2"
   sodipodi:version="0.32"
   inkscape:version="0.47 r22583"
   version="1.0"
   sodipodi:docname="applications-games.svg"
   inkscape:output_extension="org.inkscape.output.svg.inkscape"
   style="display:inline">
  <defs
     id="defs4">
    <inkscape:perspective
       sodipodi:type="inkscape:persp3d"
       inkscape:vp_x="0 : 8 : 1"
       inkscape:vp_y="0 : 1000 : 0"
       inkscape:vp_z="16 : 8 : 1"
       inkscape:persp3d-origin="8 : 5.3333333 : 1"
       id="perspective35" />
    <linearGradient
       inkscape:collect="always"
       id="linearGradient3327">
      <stop
         style="stop-color:#000000;stop-opacity:1;"
         offset="0"
         id="stop3330" />
      <stop
         style="stop-color:#000000;stop-opacity:0;"
         offset="1"
         id="stop3333" />
    </linearGradient>
    <linearGradient
       id="ButtonColor"
       x1="10.31979"
       y1="21"
       x2="10.31979"
       y2="0.99929649"
       gradientUnits="userSpaceOnUse">
      <stop
         style="stop-color:#29669f;stop-opacity:1;"
         offset="0"
         id="stop3189" />
      <stop
         style="stop-color:#88b6e0;stop-opacity:1;"
         offset="1"
         id="stop3191" />
    </linearGradient>
    <linearGradient
       inkscape:collect="always"
       xlink:href="#linearGradient3187"
       id="linearGradient3204"
       x1="1"
       y1="9"
       x2="15"
       y2="9"
       gradientUnits="userSpaceOnUse"
       gradientTransform="translate(-17,-2)" />
    <linearGradient
       inkscape:collect="always"
       xlink:href="#linearGradient3327"
       id="linearGradient3629"
       x1="0"
       y1="8"
       x2="29.017237"
       y2="8"
       gradientUnits="userSpaceOnUse"
       gradientTransform="matrix(0,-1,1,0,0,16)" />
    <linearGradient
       inkscape:collect="always"
       xlink:href="#SVGID_1_-4"
       id="linearGradient3765"
       gradientUnits="userSpaceOnUse"
       gradientTransform="matrix(0.09341072,0,0,0.04108075,-26.756456,8.0246654)"
       x1="383.28857"
       y1="0"
       x2="383.28857"
       y2="218.48047" />
    <linearGradient
       id="SVGID_1_-4"
       gradientUnits="userSpaceOnUse"
       x1="383.28857"
       y1="0"
       x2="383.28857"
       y2="218.48047">
      <stop
         offset="0.005618"
         style="stop-color:#ED2828"
         id="stop3143-2" />
      <stop
         offset="0.5"
         style="stop-color:#EF3B39"
         id="stop3145-1" />
      <stop
         offset="0.994382"
         style="stop-color:#C02126"
         id="stop3147-3" />
    </linearGradient>
    <linearGradient
       y2="180.6748"
       x2="175.30762"
       y1="73.254395"
       x1="175.30762"
       gradientUnits="userSpaceOnUse"
       id="linearGradient3749-5">
      <stop
         id="stop3751-8"
         style="stop-color:#000000;stop-opacity:1;"
         offset="0" />
      <stop
         id="stop3753-7"
         style="stop-color:#000000;stop-opacity:0.4728682;"
         offset="0.99438202" />
    </linearGradient>
    <linearGradient
       inkscape:collect="always"
       xlink:href="#linearGradient3749-5"
       id="linearGradient3754"
       gradientUnits="userSpaceOnUse"
       gradientTransform="matrix(0.04164302,0,0,0.03408859,1.9444673,0.78644322)"
       x1="175.30762"
       y1="73.254395"
       x2="175.30762"
       y2="180.6748" />
    <linearGradient
       inkscape:collect="always"
       xlink:href="#linearGradient3749-5"
       id="linearGradient3756"
       gradientUnits="userSpaceOnUse"
       gradientTransform="matrix(0.04998763,0,0,0.03408859,2.4795353,0.78644322)"
       x1="175.30762"
       y1="73.254395"
       x2="175.30762"
       y2="180.6748" />
    <linearGradient
       y2="180.6748"
       x2="175.30762"
       y1="73.254395"
       x1="175.30762"
       gradientTransform="matrix(0.04859283,0,0,0.03408859,3.115962,0.78644322)"
       gradientUnits="userSpaceOnUse"
       id="linearGradient3809"
       xlink:href="#linearGradient3749-5"
       inkscape:collect="always" />
    <inkscape:perspective
       id="perspective3729"
       inkscape:persp3d-origin="0.5 : 0.33333333 : 1"
       inkscape:vp_z="1 : 0.5 : 1"
       inkscape:vp_y="0 : 1000 : 0"
       inkscape:vp_x="0 : 0.5 : 1"
       sodipodi:type="inkscape:persp3d" />
    <linearGradient
       inkscape:collect="always"
       xlink:href="#linearGradient3696"
       id="linearGradient4163"
       x1="6"
       y1="48"
       x2="90"
       y2="48"
       gradientUnits="userSpaceOnUse"
       gradientTransform="translate(-96,0)" />
    <linearGradient
       id="linearGradient3696">
      <stop
         id="stop3698"
         offset="0"
         style="stop-color:#2458a6;stop-opacity:1;" />
      <stop
         id="stop3700"
         offset="1"
         style="stop-color:#598ad4;stop-opacity:1;" />
    </linearGradient>
    <linearGradient
       y2="48"
       x2="90"
       y1="48"
       x1="6"
       gradientTransform="translate(-52.867199,-57.252856)"
       gradientUnits="userSpaceOnUse"
       id="linearGradient3738"
       xlink:href="#linearGradient3696"
       inkscape:collect="always" />
    <inkscape:perspective
       id="perspective3703"
       inkscape:persp3d-origin="0.5 : 0.33333333 : 1"
       inkscape:vp_z="1 : 0.5 : 1"
       inkscape:vp_y="0 : 1000 : 0"
       inkscape:vp_x="0 : 0.5 : 1"
       sodipodi:type="inkscape:persp3d" />
    <linearGradient
       gradientTransform="matrix(0.19388162,0,0,0.19388162,-1.4007219,-1.9461429)"
       inkscape:collect="always"
       xlink:href="#linearGradient4099"
       id="linearGradient4113"
       x1="22.111456"
       y1="62.983868"
       x2="40"
       y2="32"
       gradientUnits="userSpaceOnUse" />
    <linearGradient
       id="linearGradient4099">
      <stop
         style="stop-color:#9ede27;stop-opacity:1;"
         offset="0"
         id="stop4101" />
      <stop
         style="stop-color:#c8f16b;stop-opacity:1;"
         offset="1"
         id="stop4103" />
    </linearGradient>
    <linearGradient
       gradientTransform="matrix(0.19388162,0,0,0.19388162,-1.5256152,-1.9461429)"
       inkscape:collect="always"
       xlink:href="#linearGradient4099"
       id="linearGradient4105"
       x1="38"
       y1="74"
       x2="70"
       y2="49"
       gradientUnits="userSpaceOnUse" />
    <linearGradient
       id="linearGradient3712">
      <stop
         style="stop-color:#9ede27;stop-opacity:1;"
         offset="0"
         id="stop3714" />
      <stop
         style="stop-color:#c8f16b;stop-opacity:1;"
         offset="1"
         id="stop3716" />
    </linearGradient>
    <linearGradient
       inkscape:collect="always"
       xlink:href="#linearGradient3799-3"
       id="linearGradient3746"
       gradientUnits="userSpaceOnUse"
       x1="56.037025"
       y1="49.333305"
       x2="56.037025"
       y2="13.593002"
       gradientTransform="matrix(0.26518093,0,0,0.26518093,-0.34872536,-3.7081516)" />
    <linearGradient
       id="linearGradient3799-3">
      <stop
         style="stop-color:#1a1a1a;stop-opacity:1;"
         offset="0"
         id="stop3801-3" />
      <stop
         style="stop-color:#000000;stop-opacity:1;"
         offset="1"
         id="stop3803-2" />
    </linearGradient>
    <linearGradient
       y2="13.593002"
       x2="56.037025"
       y1="49.333305"
       x1="56.037025"
       gradientTransform="matrix(0.19388162,0,0,0.19388162,-1.3401963,-1.8843368)"
       gradientUnits="userSpaceOnUse"
       id="linearGradient3726"
       xlink:href="#linearGradient3799-3"
       inkscape:collect="always" />
    <inkscape:perspective
       id="perspective3736"
       inkscape:persp3d-origin="0.5 : 0.33333333 : 1"
       inkscape:vp_z="1 : 0.5 : 1"
       inkscape:vp_y="0 : 1000 : 0"
       inkscape:vp_x="0 : 0.5 : 1"
       sodipodi:type="inkscape:persp3d" />
    <radialGradient
       inkscape:collect="always"
       xlink:href="#linearGradient3784-2"
       id="radialGradient3758"
       gradientUnits="userSpaceOnUse"
       gradientTransform="matrix(1.0456205,0.08243661,-0.05194947,0.90987799,0.84943041,1.3399685)"
       cx="49.580967"
       cy="67.04126"
       fx="49.580967"
       fy="67.04126"
       r="10" />
    <linearGradient
       id="linearGradient3784-2">
      <stop
         id="stop3786-4"
         offset="0"
         style="stop-color:#a0a0a0;stop-opacity:1;" />
      <stop
         id="stop3790-2"
         offset="1"
         style="stop-color:#1a1a1a;stop-opacity:1;" />
    </linearGradient>
    <radialGradient
       r="10"
       fy="67.04126"
       fx="49.580967"
       cy="67.04126"
       cx="49.580967"
       gradientTransform="matrix(1.0456205,0.08243661,-0.05194947,0.90987799,0.84943041,1.3399685)"
       gradientUnits="userSpaceOnUse"
       id="radialGradient3745"
       xlink:href="#linearGradient3784-2"
       inkscape:collect="always" />
    <radialGradient
       inkscape:collect="always"
       xlink:href="#linearGradient3784-2"
       id="radialGradient3698"
       cx="10.116978"
       cy="6.5340972"
       fx="10.116978"
       fy="6.5340972"
       r="2.6487656"
       gradientTransform="matrix(0.60548597,-0.18291744,0.13322228,0.44098703,0.81853832,7.6996387)"
       gradientUnits="userSpaceOnUse" />
    <inkscape:perspective
       id="perspective3679"
       inkscape:persp3d-origin="0.5 : 0.33333333 : 1"
       inkscape:vp_z="1 : 0.5 : 1"
       inkscape:vp_y="0 : 1000 : 0"
       inkscape:vp_x="0 : 0.5 : 1"
       sodipodi:type="inkscape:persp3d" />
    <linearGradient
       inkscape:collect="always"
       xlink:href="#linearGradient3187"
       id="linearGradient3259"
       x1="3.9310954"
       y1="30.250883"
       x2="3.9310954"
       y2="10.193916"
       gradientUnits="userSpaceOnUse"
       gradientTransform="translate(4.4452298,-9.2508831)" />
    <linearGradient
       id="linearGradient3187">
      <stop
         style="stop-color:#b9b79e;stop-opacity:1;"
         offset="0"
         id="stop3189-7" />
      <stop
         style="stop-color:#e4e4da;stop-opacity:1;"
         offset="1"
         id="stop3191-7" />
    </linearGradient>
    <linearGradient
       y2="10.193916"
       x2="3.9310954"
       y1="30.250883"
       x1="3.9310954"
       gradientTransform="translate(-13.055402,-16.092575)"
       gradientUnits="userSpaceOnUse"
       id="linearGradient3688"
       xlink:href="#linearGradient3187"
       inkscape:collect="always" />
    <inkscape:perspective
       id="perspective3698"
       inkscape:persp3d-origin="0.5 : 0.33333333 : 1"
       inkscape:vp_z="1 : 0.5 : 1"
       inkscape:vp_y="0 : 1000 : 0"
       inkscape:vp_x="0 : 0.5 : 1"
       sodipodi:type="inkscape:persp3d" />
    <linearGradient
       inkscape:collect="always"
       xlink:href="#linearGradient5964"
       id="linearGradient3654"
       gradientUnits="userSpaceOnUse"
       x1="78"
       y1="104"
       x2="78"
       y2="112.00382" />
    <linearGradient
       id="linearGradient5964">
      <stop
         style="stop-color:#706f6b;stop-opacity:1;"
         offset="0"
         id="stop5966" />
      <stop
         style="stop-color:#51504e;stop-opacity:1;"
         offset="1"
         id="stop5968" />
    </linearGradient>
    <linearGradient
       inkscape:collect="always"
       xlink:href="#linearGradient5976"
       id="linearGradient3656"
       gradientUnits="userSpaceOnUse"
       x1="79.067139"
       y1="104.35336"
       x2="79.067139"
       y2="107.93777" />
    <linearGradient
       inkscape:collect="always"
       id="linearGradient5976">
      <stop
         style="stop-color:#ffffff;stop-opacity:1;"
         offset="0"
         id="stop5978" />
      <stop
         style="stop-color:#ffffff;stop-opacity:0;"
         offset="1"
         id="stop5980" />
    </linearGradient>
    <linearGradient
       inkscape:collect="always"
       xlink:href="#linearGradient6043"
       id="linearGradient3756-9"
       gradientUnits="userSpaceOnUse"
       x1="38.689964"
       y1="36.890461"
       x2="38.689964"
       y2="43.260303" />
    <linearGradient
       id="linearGradient6043">
      <stop
         style="stop-color:#5d5d56;stop-opacity:1;"
         offset="0"
         id="stop6045" />
      <stop
         style="stop-color:#bcbcb7;stop-opacity:1;"
         offset="1"
         id="stop6047" />
    </linearGradient>
    <linearGradient
       inkscape:collect="always"
       xlink:href="#linearGradient6043"
       id="linearGradient3754-4"
       gradientUnits="userSpaceOnUse"
       x1="38.689964"
       y1="36.890461"
       x2="38.689964"
       y2="43.260303" />
    <linearGradient
       id="linearGradient3715">
      <stop
         style="stop-color:#5d5d56;stop-opacity:1;"
         offset="0"
         id="stop3717" />
      <stop
         style="stop-color:#bcbcb7;stop-opacity:1;"
         offset="1"
         id="stop3719" />
    </linearGradient>
    <linearGradient
       inkscape:collect="always"
       xlink:href="#linearGradient6043"
       id="linearGradient3752"
       gradientUnits="userSpaceOnUse"
       x1="38.689964"
       y1="36.890461"
       x2="38.689964"
       y2="43.260303" />
    <linearGradient
       id="linearGradient3722">
      <stop
         style="stop-color:#5d5d56;stop-opacity:1;"
         offset="0"
         id="stop3724" />
      <stop
         style="stop-color:#bcbcb7;stop-opacity:1;"
         offset="1"
         id="stop3726" />
    </linearGradient>
    <linearGradient
       inkscape:collect="always"
       xlink:href="#linearGradient6043"
       id="linearGradient3750"
       gradientUnits="userSpaceOnUse"
       x1="38.689964"
       y1="36.890461"
       x2="38.689964"
       y2="43.260303" />
    <linearGradient
       id="linearGradient3729">
      <stop
         style="stop-color:#5d5d56;stop-opacity:1;"
         offset="0"
         id="stop3731" />
      <stop
         style="stop-color:#bcbcb7;stop-opacity:1;"
         offset="1"
         id="stop3733" />
    </linearGradient>
    <radialGradient
       inkscape:collect="always"
       xlink:href="#linearGradient6035"
       id="radialGradient3763"
       gradientUnits="userSpaceOnUse"
       gradientTransform="matrix(0,-0.13247908,0.13254086,0,-0.1988596,10.809019)"
       cx="40"
       cy="40"
       fx="40"
       fy="40"
       r="18" />
    <linearGradient
       id="linearGradient6035">
      <stop
         style="stop-color:#91918a;stop-opacity:1;"
         offset="0"
         id="stop6037" />
      <stop
         style="stop-color:#7c7c74;stop-opacity:1;"
         offset="1"
         id="stop6039" />
    </linearGradient>
    <linearGradient
       id="linearGradient3740">
      <stop
         style="stop-color:#5d5d56;stop-opacity:1;"
         offset="0"
         id="stop3742" />
      <stop
         style="stop-color:#bcbcb7;stop-opacity:1;"
         offset="1"
         id="stop3744" />
    </linearGradient>
    <linearGradient
       inkscape:collect="always"
       xlink:href="#linearGradient5724"
       id="linearGradient3774"
       gradientUnits="userSpaceOnUse"
       x1="15.749998"
       y1="40"
       x2="64.464287"
       y2="40" />
    <linearGradient
       id="linearGradient5724">
      <stop
         style="stop-color:#9f9d7c;stop-opacity:1;"
         offset="0"
         id="stop5726" />
      <stop
         style="stop-color:#ffffff;stop-opacity:1;"
         offset="1"
         id="stop5728" />
    </linearGradient>
    <linearGradient
       inkscape:collect="always"
       xlink:href="#linearGradient5964"
       id="linearGradient3640"
       gradientUnits="userSpaceOnUse"
       x1="78"
       y1="104"
       x2="78"
       y2="112.00382" />
    <linearGradient
       id="linearGradient3751">
      <stop
         style="stop-color:#706f6b;stop-opacity:1;"
         offset="0"
         id="stop3753" />
      <stop
         style="stop-color:#51504e;stop-opacity:1;"
         offset="1"
         id="stop3755" />
    </linearGradient>
    <linearGradient
       inkscape:collect="always"
       xlink:href="#linearGradient5976"
       id="linearGradient3642"
       gradientUnits="userSpaceOnUse"
       x1="79.067139"
       y1="104.35336"
       x2="79.067139"
       y2="107.93777" />
    <linearGradient
       inkscape:collect="always"
       xlink:href="#linearGradient5724"
       id="linearGradient4218"
       gradientUnits="userSpaceOnUse"
       x1="15.749998"
       y1="40"
       x2="64.464287"
       y2="40" />
  </defs>
  <sodipodi:namedview
     id="base"
     pagecolor="#ffffff"
     bordercolor="#e7e7e7"
     borderopacity="1"
     inkscape:pageopacity="0.0"
     inkscape:pageshadow="2"
     inkscape:zoom="28.458771"
     inkscape:cx="-4.2102782"
     inkscape:cy="9.5738824"
     inkscape:document-units="px"
     inkscape:current-layer="layer1"
     showgrid="true"
     inkscape:showpageshadow="false"
     showguides="false"
     inkscape:guide-bbox="true"
     inkscape:window-width="1920"
     inkscape:window-height="1024"
     inkscape:window-x="0"
     inkscape:window-y="25"
     inkscape:window-maximized="1"
     inkscape:snap-global="false">
    <sodipodi:guide
       orientation="1,0"
       position="0,112"
       id="guide2383" />
    <sodipodi:guide
       orientation="0,1"
       position="26.278146,128"
       id="guide2385" />
    <sodipodi:guide
       orientation="1,0"
       position="128,54.082119"
       id="guide2387" />
    <sodipodi:guide
       orientation="0,1"
       position="78.156291,0"
       id="guide2389" />
    <sodipodi:guide
       orientation="0,1"
       position="60.863576,64.084768"
       id="guide2391" />
    <inkscape:grid
       type="xygrid"
       id="grid3672"
       visible="true"
       enabled="true" />
  </sodipodi:namedview>
  <metadata
     id="metadata7">
    <rdf:RDF>
      <cc:Work
         rdf:about="">
        <dc:format>image/svg+xml</dc:format>
        <dc:type
           rdf:resource="http://purl.org/dc/dcmitype/StillImage" />
        <dc:title></dc:title>
      </cc:Work>
    </rdf:RDF>
  </metadata>
  <g
     inkscape:label="Button"
     inkscape:groupmode="layer"
     id="layer1">
    <rect
       ry="2"
       rx="2"
       y="0"
       x="-16"
       height="16"
       width="16"
       id="rect3196"
       style="fill:url(#linearGradient3204);fill-opacity:1.0;fill-rule:nonzero;stroke:none"
       transform="matrix(0,-1,1,0,0,0)" />
    <path
       style="opacity:0.4;fill:url(#linearGradient3629);fill-opacity:1;fill-rule:nonzero;stroke:none"
       d="m 0,14 c 0,1.108 0.892,2 2,2 l 12,0 c 1.108,0 2,-0.892 2,-2 L 16,2 C 16,0.892 15.108,0 14,0 L 2,0 C 0.892,0 0,0.892 0,2 l 0,12 z m 0.96875,0 0,-12 C 0.96875,1.416801 1.4168007,0.96875 2,0.96875 l 12,0 c 0.583199,0 1.03125,0.448051 1.03125,1.03125 l 0,12 c 0,0.583199 -0.448051,1.03125 -1.03125,1.03125 l -12,0 C 1.4168007,15.03125 0.96875,14.583199 0.96875,14 z"
       id="rect2835" />
    <path
       style="fill:#ffffff;fill-opacity:1;fill-rule:nonzero;stroke:none;opacity:0.5"
       d="M 2 0.96875 C 1.4168007 0.96875 0.96875 1.4168007 0.96875 2 L 0.96875 3 C 0.96875 2.4168007 1.4168007 1.96875 2 1.96875 L 14 1.96875 C 14.583199 1.96875 15.03125 2.4168007 15.03125 3 L 15.03125 2 C 15.03125 1.4168007 14.583199 0.96875 14 0.96875 L 2 0.96875 z "
       id="path2843" />
    <path
       transform="matrix(0.16235874,-0.04348344,0.04272742,0.159386,-10.187109,10.042584)"
       d="m 96.196504,32.053356 a 8.0982523,8.2454147 0 1 1 -16.196505,0 8.0982523,8.2454147 0 1 1 16.196505,0 z"
       sodipodi:ry="8.2454147"
       sodipodi:rx="8.0982523"
       sodipodi:cy="32.053356"
       sodipodi:cx="88.098251"
       id="path5825"
       style="fill:#848260;fill-opacity:1;fill-rule:evenodd;stroke:none;display:inline"
       sodipodi:type="arc" />
    <path
       inkscape:transform-center-y="-8.9007347"
       sodipodi:type="arc"
       style="fill:#0058e9;fill-opacity:1;fill-rule:evenodd;stroke:none;display:inline"
       id="path5829"
       sodipodi:cx="88.098251"
       sodipodi:cy="32.053356"
       sodipodi:rx="8.0982523"
       sodipodi:ry="8.2454147"
       d="m 96.196504,32.053356 a 8.0982523,8.2454147 0 1 1 -16.196505,0 8.0982523,8.2454147 0 1 1 16.196505,0 z"
       transform="matrix(0.12176901,-0.03261257,0.03204558,0.11953959,-6.268836,10.362092)"
       inkscape:transform-center-x="-33.233632" />
    <path
       transform="matrix(0.16235874,-0.04348344,0.04272743,0.159386,-6.792927,8.70916)"
       d="m 96.196504,32.053356 a 8.0982523,8.2454147 0 1 1 -16.196505,0 8.0982523,8.2454147 0 1 1 16.196505,0 z"
       sodipodi:ry="8.2454147"
       sodipodi:rx="8.0982523"
       sodipodi:cy="32.053356"
       sodipodi:cx="88.098251"
       id="path5805"
       style="fill:#848260;fill-opacity:1;fill-rule:evenodd;stroke:none;display:inline"
       sodipodi:type="arc" />
    <path
       inkscape:transform-center-y="-8.9007302"
       sodipodi:type="arc"
       style="fill:#e51c01;fill-opacity:1;fill-rule:evenodd;stroke:none;display:inline"
       id="path5809"
       sodipodi:cx="88.098251"
       sodipodi:cy="32.053356"
       sodipodi:rx="8.0982523"
       sodipodi:ry="8.2454147"
       d="m 96.196504,32.053356 a 8.0982523,8.2454147 0 1 1 -16.196505,0 8.0982523,8.2454147 0 1 1 16.196505,0 z"
       transform="matrix(0.12176901,-0.03261257,0.03204556,0.11953952,-2.8746521,9.0286681)"
       inkscape:transform-center-x="-33.233613" />
    <path
       transform="matrix(0.16235874,-0.04348344,0.04272742,0.159386,-4.7485459,5.9755292)"
       d="m 96.196504,32.053356 a 8.0982523,8.2454147 0 1 1 -16.196505,0 8.0982523,8.2454147 0 1 1 16.196505,0 z"
       sodipodi:ry="8.2454147"
       sodipodi:rx="8.0982523"
       sodipodi:cy="32.053356"
       sodipodi:cx="88.098251"
       id="path5785"
       style="opacity:0.9;fill:#848260;fill-opacity:1;fill-rule:evenodd;stroke:none;display:inline"
       sodipodi:type="arc" />
    <path
       inkscape:transform-center-y="-8.9007351"
       sodipodi:type="arc"
       style="fill:#05ac00;fill-opacity:1;fill-rule:evenodd;stroke:none;display:inline"
       id="path5789"
       sodipodi:cx="88.098251"
       sodipodi:cy="32.053356"
       sodipodi:rx="8.0982523"
       sodipodi:ry="8.2454147"
       d="m 96.196504,32.053356 a 8.0982523,8.2454147 0 1 1 -16.196505,0 8.0982523,8.2454147 0 1 1 16.196505,0 z"
       transform="matrix(0.12176901,-0.03261257,0.03204558,0.11953959,-0.83027247,6.2950368)"
       inkscape:transform-center-x="-33.233632" />
    <path
       sodipodi:type="arc"
       style="opacity:0.8;fill:#848260;fill-opacity:1;fill-rule:evenodd;stroke:none;display:inline"
       id="path5754"
       sodipodi:cx="88.098251"
       sodipodi:cy="32.053356"
       sodipodi:rx="8.0982523"
       sodipodi:ry="8.2454147"
       d="m 96.196504,32.053356 a 8.0982523,8.2454147 0 1 1 -16.196505,0 8.0982523,8.2454147 0 1 1 16.196505,0 z"
       transform="matrix(0.16235874,-0.04348344,0.04272743,0.159386,-4.7440067,2.5605136)" />
    <path
       inkscape:transform-center-x="-33.233609"
       transform="matrix(0.12176901,-0.03261256,0.03204556,0.11953945,-0.82573301,2.880024)"
       d="m 96.196504,32.053356 a 8.0982523,8.2454147 0 1 1 -16.196505,0 8.0982523,8.2454147 0 1 1 16.196505,0 z"
       sodipodi:ry="8.2454147"
       sodipodi:rx="8.0982523"
       sodipodi:cy="32.053356"
       sodipodi:cx="88.098251"
       id="path3245"
       style="fill:#ffb604;fill-opacity:1;fill-rule:evenodd;stroke:none;display:inline"
       sodipodi:type="arc"
       inkscape:transform-center-y="-8.9007301" />
    <path
       sodipodi:type="arc"
       style="fill:#848260;fill-opacity:1;fill-rule:evenodd;stroke:none;display:inline"
       id="path5473"
       sodipodi:cx="110.00133"
       sodipodi:cy="94.063576"
       sodipodi:rx="1.9364232"
       sodipodi:ry="1.9364232"
       d="m 111.93775,94.063576 a 1.9364232,1.9364232 0 1 1 -3.87285,0 1.9364232,1.9364232 0 1 1 3.87285,0 z"
       transform="matrix(0.17577282,0,0,0.17569018,-5.3424579,-4.8626487)" />
    <g
       style="display:inline"
       id="g6014"
       transform="matrix(0.13575708,0,0,0.13569326,-1.3055214,-1.1627555)">
      <path
         d="m 76,101.96875 c -3.310589,0 -6.03125,2.72066 -6.03125,6.03125 0,3.31059 2.720661,6.03125 6.03125,6.03125 l 8,0 c 3.310589,0 6.03125,-2.72066 6.03125,-6.03125 0,-3.31059 -2.720661,-6.03125 -6.03125,-6.03125 l -8,0 z"
         id="path6004"
         style="fill:#848260;fill-opacity:1;fill-rule:evenodd;stroke:none"
         inkscape:original="M 76 104 C 73.784 104 72 105.784 72 108 C 72 110.216 73.784 112 76 112 L 84 112 C 86.216 112 88 110.216 88 108 C 88 105.784 86.216 104 84 104 L 76 104 z "
         inkscape:radius="2.0394692"
         sodipodi:type="inkscape:offset" />
      <rect
         ry="4"
         rx="4"
         y="104"
         x="72"
         height="8"
         width="16"
         id="rect3247"
         style="fill:url(#linearGradient3640);fill-opacity:1;fill-rule:evenodd;stroke:none" />
      <rect
         style="opacity:0.6;fill:url(#linearGradient3642);fill-opacity:1;fill-rule:evenodd;stroke:none"
         id="rect5972"
         width="13.173144"
         height="3.5830388"
         x="73.413429"
         y="104.35336"
         rx="1.7915194"
         ry="1.7915194" />
    </g>
    <path
       sodipodi:type="arc"
       style="opacity:0.8;fill:#e4e4d9;fill-opacity:1;fill-rule:evenodd;stroke:url(#linearGradient4218);stroke-width:3.70755935;stroke-linecap:butt;stroke-linejoin:round;stroke-miterlimit:4;stroke-opacity:1;stroke-dasharray:none;stroke-dashoffset:0;display:inline"
       id="path3215"
       sodipodi:cx="40.107143"
       sodipodi:cy="40"
       sodipodi:rx="24.107145"
       sodipodi:ry="24"
       d="m 64.214289,40 a 24.107145,24 0 1 1 -48.214291,0 24.107145,24 0 1 1 48.214291,0 z"
       transform="matrix(0,0.13452818,0.1351918,0,-0.29959358,0.10901111)" />
    <path
       style="fill:url(#radialGradient3763);fill-opacity:1;fill-rule:evenodd;stroke:none;stroke-width:0.49999997000000002;stroke-linecap:butt;stroke-linejoin:round;stroke-miterlimit:4;stroke-opacity:1;stroke-dasharray:none;stroke-dashoffset:0;display:inline"
       d="m 4.4400703,3.0193816 c -0.1468552,0 -0.2650818,0.1181713 -0.2650818,0.2649582 l 0,1.2981627 -1.31069,0 c -0.1468552,0 -0.2650817,0.1181713 -0.2650817,0.2649582 l 0,1.3247907 c 0,0.146787 0.1182265,0.2649583 0.2650817,0.2649583 l 1.31069,0 0,1.2981627 c 0,0.1467868 0.1182266,0.2649582 0.2650818,0.2649582 l 1.3254084,0 c 0.1468553,0 0.2650817,-0.1181714 0.2650817,-0.2649582 l 0,-1.2981627 1.2987681,0 c 0.1468553,0 0.2650817,-0.1181713 0.2650817,-0.2649583 l 0,-1.3247907 c 0,-0.1467869 -0.1182264,-0.2649582 -0.2650817,-0.2649582 l -1.2987681,0 0,-1.2981627 c 0,-0.1467869 -0.1182264,-0.2649582 -0.2650817,-0.2649582 l -1.3254084,0 z"
       id="rect3225"
       sodipodi:nodetypes="ccccccccccccccccccccc" />
    <path
       sodipodi:type="arc"
       style="fill:url(#linearGradient3750);fill-opacity:1;fill-rule:evenodd;stroke:none;display:inline"
       id="path6055"
       sodipodi:cx="40"
       sodipodi:cy="40"
       sodipodi:rx="3.1095405"
       sodipodi:ry="3.1095405"
       d="m 43.10954,40 a 3.1095405,3.1095405 0 1 1 -6.21908,0 3.1095405,3.1095405 0 1 1 6.21908,0 z"
       transform="matrix(0.16266376,0,0,0.16258796,-2.7291851,-0.99366266)" />
    <path
       transform="matrix(0.16266376,0,0,0.16258796,-0.07836799,-0.99366266)"
       d="m 43.10954,40 a 3.1095405,3.1095405 0 1 1 -6.21908,0 3.1095405,3.1095405 0 1 1 6.21908,0 z"
       sodipodi:ry="3.1095405"
       sodipodi:rx="3.1095405"
       sodipodi:cy="40"
       sodipodi:cx="40"
       id="path6065"
       style="fill:url(#linearGradient3752);fill-opacity:1;fill-rule:evenodd;stroke:none;display:inline"
       sodipodi:type="arc" />
    <path
       sodipodi:type="arc"
       style="fill:url(#linearGradient3754-4);fill-opacity:1;fill-rule:evenodd;stroke:none;display:inline"
       id="path6069"
       sodipodi:cx="40"
       sodipodi:cy="40"
       sodipodi:rx="3.1095405"
       sodipodi:ry="3.1095405"
       d="m 43.10954,40 a 3.1095405,3.1095405 0 1 1 -6.21908,0 3.1095405,3.1095405 0 1 1 6.21908,0 z"
       transform="matrix(0.16266376,0,0,0.16258796,-1.4037765,-2.3184535)" />
    <path
       transform="matrix(0.16266376,0,0,0.16258796,-1.4037765,0.33112819)"
       d="m 43.10954,40 a 3.1095405,3.1095405 0 1 1 -6.21908,0 3.1095405,3.1095405 0 1 1 6.21908,0 z"
       sodipodi:ry="3.1095405"
       sodipodi:rx="3.1095405"
       sodipodi:cy="40"
       sodipodi:cx="40"
       id="path6073"
       style="fill:url(#linearGradient3756-9);fill-opacity:1;fill-rule:evenodd;stroke:none;display:inline"
       sodipodi:type="arc" />
    <g
       style="display:inline"
       transform="matrix(0.13575708,0,0,0.13569326,2.0921707,-1.1627555)"
       id="g3644">
      <path
         sodipodi:type="inkscape:offset"
         inkscape:radius="2.0394692"
         inkscape:original="M 76 104 C 73.784 104 72 105.784 72 108 C 72 110.216 73.784 112 76 112 L 84 112 C 86.216 112 88 110.216 88 108 C 88 105.784 86.216 104 84 104 L 76 104 z "
         style="fill:#848260;fill-opacity:1;fill-rule:evenodd;stroke:none"
         id="path3646"
         d="m 76,101.96875 c -3.310589,0 -6.03125,2.72066 -6.03125,6.03125 0,3.31059 2.720661,6.03125 6.03125,6.03125 l 8,0 c 3.310589,0 6.03125,-2.72066 6.03125,-6.03125 0,-3.31059 -2.720661,-6.03125 -6.03125,-6.03125 l -8,0 z" />
      <rect
         style="fill:url(#linearGradient3654);fill-opacity:1;fill-rule:evenodd;stroke:none"
         id="rect3648"
         width="16"
         height="8"
         x="72"
         y="104"
         rx="4"
         ry="4" />
      <rect
         ry="1.7915194"
         rx="1.7915194"
         y="104.35336"
         x="73.413429"
         height="3.5830388"
         width="13.173144"
         id="rect3650"
         style="opacity:0.6;fill:url(#linearGradient3656);fill-opacity:1;fill-rule:evenodd;stroke:none" />
    </g>
    <path
       transform="matrix(0.17577282,0,0,0.17569018,-6.7039412,-4.8626487)"
       d="m 111.93775,94.063576 a 1.9364232,1.9364232 0 1 1 -3.87285,0 1.9364232,1.9364232 0 1 1 3.87285,0 z"
       sodipodi:ry="1.9364232"
       sodipodi:rx="1.9364232"
       sodipodi:cy="94.063576"
       sodipodi:cx="110.00133"
       id="path3658"
       style="fill:#848260;fill-opacity:1;fill-rule:evenodd;stroke:none;display:inline"
       sodipodi:type="arc" />
    <path
       sodipodi:type="arc"
       style="fill:#848260;fill-opacity:1;fill-rule:evenodd;stroke:none;display:inline"
       id="path3660"
       sodipodi:cx="110.00133"
       sodipodi:cy="94.063576"
       sodipodi:rx="1.9364232"
       sodipodi:ry="1.9364232"
       d="m 111.93775,94.063576 a 1.9364232,1.9364232 0 1 1 -3.87285,0 1.9364232,1.9364232 0 1 1 3.87285,0 z"
       transform="matrix(0.17577282,0,0,0.17569018,-8.0654236,-4.8626487)" />
    <path
       sodipodi:type="arc"
       style="fill:#848260;fill-opacity:1;fill-rule:evenodd;stroke:none;display:inline"
       id="path3662"
       sodipodi:cx="110.00133"
       sodipodi:cy="94.063576"
       sodipodi:rx="1.9364232"
       sodipodi:ry="1.9364232"
       d="m 111.93775,94.063576 a 1.9364232,1.9364232 0 1 1 -3.87285,0 1.9364232,1.9364232 0 1 1 3.87285,0 z"
       transform="matrix(0.17577282,0,0,0.17569018,-5.3424586,-6.223491)" />
    <path
       transform="matrix(0.17577282,0,0,0.17569018,-6.7039412,-6.223491)"
       d="m 111.93775,94.063576 a 1.9364232,1.9364232 0 1 1 -3.87285,0 1.9364232,1.9364232 0 1 1 3.87285,0 z"
       sodipodi:ry="1.9364232"
       sodipodi:rx="1.9364232"
       sodipodi:cy="94.063576"
       sodipodi:cx="110.00133"
       id="path3664"
       style="fill:#848260;fill-opacity:1;fill-rule:evenodd;stroke:none;display:inline"
       sodipodi:type="arc" />
    <path
       transform="matrix(0.17577282,0,0,0.17569018,-5.3424586,-7.5843333)"
       d="m 111.93775,94.063576 a 1.9364232,1.9364232 0 1 1 -3.87285,0 1.9364232,1.9364232 0 1 1 3.87285,0 z"
       sodipodi:ry="1.9364232"
       sodipodi:rx="1.9364232"
       sodipodi:cy="94.063576"
       sodipodi:cx="110.00133"
       id="path3666"
       style="fill:#848260;fill-opacity:1;fill-rule:evenodd;stroke:none;display:inline"
       sodipodi:type="arc" />
  </g>
</svg>
